%
T01C0.015000
X42088Y38862
X42088Y35463
X42238Y39462
X42238Y34937
X42338Y5963
X42388Y6313
X42388Y5562
X42388Y5213
X42388Y4862
X42513Y30838
X42538Y6612
X42738Y6912
X42788Y31137
X42877Y16092
X42898Y23372
X43157Y22812
X43178Y29812
X43178Y15812
X43178Y8813
X43218Y9692
X43237Y6762
X43388Y31012
X43398Y32192
X43398Y25192
X43398Y18192
X43398Y11192
X43658Y30732
X43658Y23733
X43678Y16733
X43678Y9732
X43688Y38837
X43738Y6762
X43938Y36687
X44298Y21452
X44317Y28452
X44317Y14452
X44363Y35463
X44388Y39462
X44435Y37190
X44935Y37440
X44938Y34937
X45158Y8173
X45178Y32272
X45178Y25272
X45178Y11252
X45178Y9372
X45188Y33637
X45188Y31162
X45188Y29187
X45188Y26572
X45188Y22192
X45188Y19512
X45188Y15238
X45188Y12532
X45198Y30333
X45198Y23332
X45198Y16352
X45218Y18272
X45435Y36940
X45438Y34787
X45513Y38862
X45578Y2773
X45638Y2212
X45888Y35463
X45917Y28012
X45937Y37687
X45937Y21012
X45937Y13772
X45937Y6812
X45978Y3052
X46037Y2212
X46413Y5613
X46438Y2212
X46677Y30432
X46677Y23433
X46698Y16433
X46698Y9432
X46938Y29162
X46938Y22187
X46938Y15187
X46938Y8162
X47038Y5312
X47287Y2212
X47313Y34213
X47338Y4713
X47362Y35263
X47413Y5862
X47613Y34988
X47638Y4212
X47713Y5662
X47938Y3612
X48163Y5162
X48338Y2793
X48588Y36687
X48697Y2793
X49038Y6132
X49038Y5587
X49062Y34213
X49077Y6472
X49088Y37687
X49177Y29812
X49177Y22812
X49177Y15812
X49177Y8813
X49378Y25172
X49378Y17032
X49378Y10032
X49398Y32192
X49398Y31032
X49398Y24032
X49398Y18192
X49398Y11192
X49400Y33600
X49658Y9732
X49678Y30732
X49678Y23733
X49678Y16733
X49913Y36687
X50298Y28472
X50298Y21452
X50298Y7472
X50312Y35562
X50318Y14452
X50435Y37190
X50935Y37440
X50940Y34725
X50975Y48500
X51177Y18252
X51177Y11272
X51177Y8087
X51188Y33637
X51188Y29237
X51188Y26522
X51188Y22237
X51188Y19502
X51188Y12552
X51197Y32272
X51197Y31112
X51197Y30333
X51197Y25253
X51197Y24072
X51197Y23292
X51197Y16352
X51197Y15213
X51197Y10132
X51197Y9332
X51217Y17153
X51430Y40550
X51435Y36940
X51438Y34687
X51913Y35463
X51918Y28012
X51938Y37712
X51938Y6812
X51958Y21012
X51958Y13772
X52678Y30432
X52678Y9432
X52698Y23433
X52698Y16433
X52920Y34940
X52938Y29187
X52938Y15187
X52938Y8087
X53088Y42562
X53110Y22235
X53313Y34213
X53513Y34937
X54138Y5152
X54298Y5752
X54317Y6112
X54675Y35450
X55037Y34213
X55158Y29812
X55178Y22812
X55178Y15812
X55178Y8813
X55313Y37712
X55378Y32172
X55378Y25172
X55378Y18192
X55378Y17032
X55378Y11172
X55378Y10052
X55397Y31032
X55397Y24032
X55420Y33565
X55438Y5512
X55525Y42400
X55658Y16733
X55678Y30732
X55678Y23733
X55687Y9743
X55738Y5252
X55938Y36687
X56037Y4992
X56298Y7492
X56312Y35437
X56318Y28452
X56318Y21452
X56318Y14472
X56435Y37190
X56937Y37437
X56937Y34937
X57178Y32272
X57178Y22192
X57178Y15213
X57178Y11212
X57188Y33637
X57188Y29232
X57188Y26472
X57188Y19452
X57188Y12552
X57188Y8113
X57197Y25272
X57197Y24132
X57197Y23332
X57197Y18252
X57197Y16392
X57197Y10172
X57197Y9352
X57218Y31152
X57218Y30372
X57218Y17172
X57275Y42650
X57435Y36940
X57438Y34787
X57588Y5063
X57863Y35463
X57918Y28012
X57938Y37687
X57938Y13792
X57938Y6812
X57958Y21012
X58525Y41800
X58678Y30432
X58678Y16433
X58678Y9432
X58697Y23433
X58938Y29172
X58938Y15187
X58938Y8113
X58938Y5587
X58963Y22187
X59138Y5037
X59338Y35087
X59338Y34737
X59338Y34213
X59338Y5812
X59588Y6087
X59688Y4862
X59863Y6313
X60262Y4663
X60313Y7387
X60513Y7112
X60663Y4363
X60687Y6787
X60858Y6493
X60988Y34213
X61038Y6212
X61158Y22812
X61178Y29792
X61178Y15812
X61178Y8813
X61255Y45390
X61325Y42400
X61338Y31972
X61338Y18132
X61358Y25092
X61358Y24072
X61358Y11112
X61358Y10032
X61378Y17053
X61398Y31032
X61420Y33585
X61438Y37712
X61538Y45837
X61598Y16733
X61618Y23733
X61658Y30732
X61658Y9732
X61863Y46087
X61937Y36687
X61988Y4162
X62318Y28452
X62318Y21452
X62318Y14472
X62318Y7472
X62388Y35463
X62438Y37187
X62488Y3963
X62938Y37437
X62938Y34737
X62988Y3762
X63138Y3212
X63178Y33662
X63178Y32252
X63178Y22172
X63187Y26472
X63187Y19492
X63187Y15213
X63187Y12512
X63187Y8152
X63198Y30352
X63198Y29172
X63198Y25233
X63198Y9332
X63217Y31132
X63217Y23372
X63217Y18212
X63217Y17153
X63217Y16352
X63217Y11252
X63217Y10132
X63258Y24172
X63430Y36935
X63438Y34762
X63918Y13772
X63938Y35463
X63938Y28012
X63938Y6812
X63958Y21012
X64200Y46015
X64225Y44250
X64388Y2962
X64555Y45700
X64678Y23433
X64678Y16433
X64678Y9432
X64697Y30432
X64725Y42140
X64738Y2962
X64938Y29187
X64938Y22162
X64938Y15187
X64938Y8162
X64997Y4852
X65088Y2962
X65138Y4292
X65313Y34213
X65318Y4592
X65335Y42050
X65385Y44220
X65397Y4072
X65438Y2962
X65563Y34838
X65588Y35212
X65738Y4032
X65758Y3693
X65788Y2962
X66013Y37013
X66058Y3552
X66098Y3212
X66175Y44250
X66225Y42150
X66770Y45390
X66775Y43345
X66775Y42020
X66863Y36388
X67063Y34213
X67137Y29792
X67178Y22793
X67178Y15812
X67178Y11252
X67178Y8813
X67378Y32112
X67378Y31072
X67378Y25053
X67378Y18153
X67378Y17072
X67398Y23992
X67398Y10072
X67430Y33610
X67618Y23692
X67625Y44700
X67628Y30702
X67675Y42750
X67688Y16762
X67688Y9762
X68013Y37612
X68162Y41462
X68288Y37862
X68318Y7472
X68338Y28462
X68338Y21463
X68338Y14412
X68438Y35463
X68525Y43750
X68955Y41320
X69075Y43750
X69178Y32292
X69178Y25293
X69178Y11272
X69178Y9332
X69188Y33612
X69188Y29192
X69188Y26512
X69188Y22192
X69188Y19492
X69188Y15192
X69188Y12492
X69188Y8113
X69197Y30312
X69197Y23313
X69197Y16312
X69218Y24092
X69218Y18233
X69238Y31112
X69238Y17072
X69263Y34937
X69618Y10052
X69838Y35463
X69938Y6812
X69957Y21012
X69978Y13772
X69997Y28012
X70275Y38450
X70325Y43750
X70325Y42750
X70678Y30432
X70697Y23433
X70697Y16433
X70697Y9432
X70938Y29187
X70938Y22187
X70938Y15187
X70938Y8113
X71325Y36250
X71338Y35187
X71338Y34262
X71575Y44750
X71625Y41750
X72338Y34262
X72358Y7472
X72578Y30772
X72578Y23792
X72578Y16752
X72578Y10952
X72858Y10632
X72878Y30452
X72878Y23433
X72878Y16433
X73137Y35463
X73137Y28012
X73137Y21012
X73137Y13772
X73387Y35912
X73398Y28912
X73398Y21892
X73398Y14932
X2100Y82400
X2225Y91400
X2225Y82900
X2375Y90900
X2375Y83400
X2525Y90400
X2525Y83900
X2650Y84400
X2675Y89900
X2800Y84900
X2825Y89400
X2925Y93875
X2950Y85400
X2975Y88875
X3100Y85900
X3125Y88350
X3250Y86400
X3275Y87925
X16125Y70950
X16625Y70950
X17125Y71275
X17625Y71275
X18125Y71575
X18625Y71575
X19125Y71875
X19625Y71875
X22125Y71875
X22625Y71875
X23125Y71600
X23625Y71600
X24125Y71325
X24625Y71325
X25125Y71025
X25625Y71025
X38475Y87900
X38500Y86400
X38600Y88400
X38625Y80225
X38650Y85900
X38775Y88900
X38800Y85400
X38900Y89400
X38950Y84900
X39050Y89900
X39100Y84400
X39200Y90400
X39225Y83875
X39325Y90900
X39375Y83400
X39475Y91400
X39525Y82900
X39600Y91900
X71528Y87612
X71528Y84213
X71678Y88212
X71678Y83687
X71778Y54713
X71828Y55063
X71828Y54312
X71828Y53963
X71828Y53612
X71953Y79588
X71978Y55362
X72178Y55662
X72228Y79887
X72317Y64842
X72338Y72122
X72597Y71562
X72618Y78562
X72618Y64562
X72618Y57563
X72658Y58442
X72677Y55512
X72828Y79762
X72838Y80942
X72838Y73942
X72838Y66942
X72838Y59942
X73098Y79482
X73098Y72483
X73118Y65483
X73118Y58482
X73128Y87587
X73178Y55512
X73378Y85437
X73738Y70202
X73757Y77202
X73757Y63202
X73803Y84213
X73828Y88212
X73875Y85940
X74375Y86190
X74378Y83687
X74598Y56923
X74618Y81022
X74618Y74022
X74618Y60002
X74618Y58122
X74628Y82387
X74628Y79912
X74628Y77937
X74628Y75322
X74628Y70942
X74628Y68262
X74628Y63988
X74628Y61282
X74638Y79083
X74638Y72082
X74638Y65102
X74658Y67022
X74875Y85690
X74878Y83537
X74953Y87612
X75018Y51523
X75078Y50962
X75328Y84213
X75357Y76762
X75377Y86437
X75377Y69762
X75377Y62522
X75377Y55562
X75418Y51802
X75477Y50962
X75853Y54363
X75878Y50962
X76117Y79182
X76117Y72183
X76138Y65183
X76138Y58182
X76378Y77912
X76378Y70937
X76378Y63937
X76378Y56912
X76478Y54062
X76727Y50962
X76753Y82963
X76778Y53463
X76802Y84013
X76853Y54612
X77053Y83738
X77078Y52962
X77153Y54412
X77378Y52362
X77603Y53912
X77778Y51543
X78028Y85437
X78137Y51543
X78478Y54882
X78478Y54337
X78502Y82963
X78517Y55222
X78528Y86437
X78617Y78562
X78617Y71562
X78617Y64562
X78617Y57563
X78818Y73922
X78818Y65782
X78818Y58782
X78838Y80942
X78838Y79782
X78838Y72782
X78838Y66942
X78838Y59942
X78840Y82350
X79098Y58482
X79118Y79482
X79118Y72483
X79118Y65483
X79353Y85437
X79738Y77222
X79738Y70202
X79738Y56222
X79752Y84312
X79758Y63202
X79875Y85940
X80375Y86190
X80380Y83475
X80415Y97250
X80617Y67002
X80617Y60022
X80617Y56837
X80628Y82387
X80628Y77987
X80628Y75272
X80628Y70987
X80628Y68252
X80628Y61302
X80637Y81022
X80637Y79862
X80637Y79083
X80637Y74003
X80637Y72822
X80637Y72042
X80637Y65102
X80637Y63963
X80637Y58882
X80637Y58082
X80657Y65903
X80870Y89300
X80875Y85690
X80878Y83437
X81353Y84213
X81358Y76762
X81378Y86462
X81378Y55562
X81398Y69762
X81398Y62522
X82118Y79182
X82118Y58182
X82138Y72183
X82138Y65183
X82360Y83690
X82378Y77937
X82378Y63937
X82378Y56837
X82528Y91312
X82550Y70985
X82753Y82963
X82953Y83687
X83578Y53902
X83738Y54502
X83757Y54862
X84115Y84200
X84477Y82963
X84598Y78562
X84618Y71562
X84618Y64562
X84618Y57563
X84753Y86462
X84818Y80922
X84818Y73922
X84818Y66942
X84818Y65782
X84818Y59922
X84818Y58802
X84837Y79782
X84837Y72782
X84860Y82315
X84878Y54262
X84965Y91150
X85098Y65483
X85118Y79482
X85118Y72483
X85127Y58493
X85178Y54002
X85378Y85437
X85477Y53742
X85738Y56242
X85752Y84187
X85758Y77202
X85758Y70202
X85758Y63222
X85875Y85940
X86377Y86187
X86377Y83687
X86618Y81022
X86618Y70942
X86618Y63963
X86618Y59962
X86628Y82387
X86628Y77982
X86628Y75222
X86628Y68202
X86628Y61302
X86628Y56863
X86637Y74022
X86637Y72882
X86637Y72082
X86637Y67002
X86637Y65142
X86637Y58922
X86637Y58102
X86658Y79902
X86658Y79122
X86658Y65922
X86715Y91400
X86875Y85690
X86878Y83537
X87028Y53813
X87303Y84213
X87358Y76762
X87378Y86437
X87378Y62542
X87378Y55562
X87398Y69762
X87965Y90550
X88118Y79182
X88118Y65183
X88118Y58182
X88137Y72183
X88378Y77922
X88378Y63937
X88378Y56863
X88378Y54337
X88403Y70937
X88578Y53787
X88778Y83837
X88778Y83487
X88778Y82963
X88778Y54562
X89028Y54837
X89128Y53612
X89303Y55063
X89702Y53413
X89753Y56137
X89953Y55862
X90103Y53113
X90127Y55537
X90298Y55243
X90428Y82963
X90478Y54962
X90598Y71562
X90618Y78542
X90618Y64562
X90618Y57563
X90695Y94140
X90765Y91150
X90778Y80722
X90778Y66882
X90798Y73842
X90798Y72822
X90798Y59862
X90798Y58782
X90818Y65803
X90838Y79782
X90860Y82335
X90878Y86462
X90978Y94587
X91038Y65483
X91058Y72483
X91098Y79482
X91098Y58482
X91303Y94837
X91377Y85437
X91428Y52912
X91758Y77202
X91758Y70202
X91758Y63222
X91758Y56222
X91828Y84213
X91878Y85937
X91928Y52713
X92378Y86187
X92378Y83487
X92428Y52512
X92578Y51962
X92618Y82412
X92618Y81002
X92618Y70922
X92627Y75222
X92627Y68242
X92627Y63963
X92627Y61262
X92627Y56902
X92638Y79102
X92638Y77922
X92638Y73983
X92638Y58082
X92657Y79882
X92657Y72122
X92657Y66962
X92657Y65903
X92657Y65102
X92657Y60002
X92657Y58882
X92698Y72922
X92870Y85685
X92878Y83512
X93358Y62522
X93378Y84213
X93378Y76762
X93378Y55562
X93398Y69762
X93640Y94765
X93665Y93000
X93828Y51712
X93995Y94450
X94118Y72183
X94118Y65183
X94118Y58182
X94137Y79182
X94165Y90890
X94178Y51712
X94378Y77937
X94378Y70912
X94378Y63937
X94378Y56912
X94437Y53602
X94528Y51712
X94578Y53042
X94753Y82963
X94758Y53342
X94775Y90800
X94825Y92970
X94837Y52822
X94878Y51712
X95003Y83588
X95028Y83962
X95178Y52782
X95198Y52443
X95228Y51712
X95453Y85763
X95498Y52302
X95538Y51962
X95615Y93000
X95665Y90900
X96210Y94140
X96215Y92095
X96215Y90770
X96303Y85138
X96503Y82963
X96577Y78542
X96618Y71543
X96618Y64562
X96618Y60002
X96618Y57563
X96818Y80862
X96818Y79822
X96818Y73803
X96818Y66903
X96818Y65822
X96838Y72742
X96838Y58822
X96870Y82360
X97058Y72442
X97065Y93450
X97068Y79452
X97115Y91500
X97128Y65512
X97128Y58512
X97453Y86362
X97602Y90212
X97728Y86612
X97758Y56222
X97778Y77212
X97778Y70213
X97778Y63162
X97878Y84213
X97965Y92500
X98395Y90070
X98515Y92500
X98618Y81042
X98618Y74043
X98618Y60022
X98618Y58082
X98628Y82362
X98628Y77942
X98628Y75262
X98628Y70942
X98628Y68242
X98628Y63942
X98628Y61242
X98628Y56863
X98637Y79062
X98637Y72063
X98637Y65062
X98658Y72842
X98658Y66983
X98678Y79862
X98678Y65822
X98703Y83687
X99058Y58802
X99278Y84213
X99378Y55562
X99397Y69762
X99418Y62522
X99437Y76762
X99715Y87200
X99765Y92500
X99765Y91500
X100118Y79182
X100137Y72183
X100137Y65183
X100137Y58182
X100378Y77937
X100378Y70937
X100378Y63937
X100378Y56863
X100765Y85000
X100778Y83937
X100778Y83012
X101015Y93500
X101065Y90500
X101778Y83012
X101798Y56222
X102018Y79522
X102018Y72542
X102018Y65502
X102018Y59702
X102298Y59382
X102318Y79202
X102318Y72183
X102318Y65183
X102577Y84213
X102577Y76762
X102577Y69762
X102577Y62522
X102827Y84662
X102838Y77662
X102838Y70642
X102838Y63682
X75838Y38862
X75838Y35463
X75988Y39462
X75988Y34937
X76088Y5963
X76138Y6313
X76138Y5562
X76138Y5213
X76138Y4862
X76263Y30838
X76288Y6612
X76488Y6912
X76538Y31137
X76627Y16092
X76648Y23372
X76907Y22812
X76928Y29812
X76928Y15812
X76928Y8813
X76968Y9692
X76987Y6762
X77138Y31012
X77148Y32192
X77148Y25192
X77148Y18192
X77148Y11192
X77408Y30732
X77408Y23733
X77428Y16733
X77428Y9732
X77438Y38837
X77488Y6762
X77688Y36687
X78048Y21452
X78067Y28452
X78067Y14452
X78113Y35463
X78138Y39462
X78185Y37190
X78685Y37440
X78688Y34937
X78908Y8173
X78928Y32272
X78928Y25272
X78928Y11252
X78928Y9372
X78938Y33637
X78938Y31162
X78938Y29187
X78938Y26572
X78938Y22192
X78938Y19512
X78938Y15238
X78938Y12532
X78948Y30333
X78948Y23332
X78948Y16352
X78968Y18272
X79185Y36940
X79188Y34787
X79263Y38862
X79328Y2773
X79388Y2212
X79638Y35463
X79667Y28012
X79687Y37687
X79687Y21012
X79687Y13772
X79687Y6812
X79728Y3052
X79787Y2212
X80163Y5613
X80188Y2212
X80427Y30432
X80427Y23433
X80448Y16433
X80448Y9432
X80688Y29162
X80688Y22187
X80688Y15187
X80688Y8162
X80788Y5312
X81037Y2212
X81063Y34213
X81088Y4713
X81112Y35263
X81163Y5862
X81363Y34988
X81388Y4212
X81463Y5662
X81688Y3612
X81913Y5162
X82088Y2793
X82338Y36687
X82447Y2793
X82788Y6132
X82788Y5587
X82812Y34213
X82827Y6472
X82838Y37687
X82927Y29812
X82927Y22812
X82927Y15812
X82927Y8813
X83128Y25172
X83128Y17032
X83128Y10032
X83148Y32192
X83148Y31032
X83148Y24032
X83148Y18192
X83148Y11192
X83150Y33600
X83408Y9732
X83428Y30732
X83428Y23733
X83428Y16733
X83663Y36687
X84048Y28472
X84048Y21452
X84048Y7472
X84062Y35562
X84068Y14452
X84185Y37190
X84685Y37440
X84690Y34725
X84725Y48500
X84927Y18252
X84927Y11272
X84927Y8087
X84938Y33637
X84938Y29237
X84938Y26522
X84938Y22237
X84938Y19502
X84938Y12552
X84947Y32272
X84947Y31112
X84947Y30333
X84947Y25253
X84947Y24072
X84947Y23292
X84947Y16352
X84947Y15213
X84947Y10132
X84947Y9332
X84967Y17153
X85180Y40550
X85185Y36940
X85188Y34687
X85663Y35463
X85668Y28012
X85688Y37712
X85688Y6812
X85708Y21012
X85708Y13772
X86428Y30432
X86428Y9432
X86448Y23433
X86448Y16433
X86670Y34940
X86688Y29187
X86688Y15187
X86688Y8087
X86838Y42562
X86860Y22235
X87063Y34213
X87263Y34937
X87888Y5152
X88048Y5752
X88067Y6112
X88425Y35450
X88787Y34213
X88908Y29812
X88928Y22812
X88928Y15812
X88928Y8813
X89063Y37712
X89128Y32172
X89128Y25172
X89128Y18192
X89128Y17032
X89128Y11172
X89128Y10052
X89147Y31032
X89147Y24032
X89170Y33565
X89188Y5512
X89275Y42400
X89408Y16733
X89428Y30732
X89428Y23733
X89437Y9743
X89488Y5252
X89688Y36687
X89787Y4992
X90048Y7492
X90062Y35437
X90068Y28452
X90068Y21452
X90068Y14472
X90185Y37190
X90687Y37437
X90687Y34937
X90928Y32272
X90928Y22192
X90928Y15213
X90928Y11212
X90938Y33637
X90938Y29232
X90938Y26472
X90938Y19452
X90938Y12552
X90938Y8113
X90947Y25272
X90947Y24132
X90947Y23332
X90947Y18252
X90947Y16392
X90947Y10172
X90947Y9352
X90968Y31152
X90968Y30372
X90968Y17172
X91025Y42650
X91185Y36940
X91188Y34787
X91338Y5063
X91613Y35463
X91668Y28012
X91688Y37687
X91688Y13792
X91688Y6812
X91708Y21012
X92275Y41800
X92428Y30432
X92428Y16433
X92428Y9432
X92447Y23433
X92688Y29172
X92688Y15187
X92688Y8113
X92688Y5587
X92713Y22187
X92888Y5037
X93088Y35087
X93088Y34737
X93088Y34213
X93088Y5812
X93338Y6087
X93438Y4862
X93613Y6313
X94012Y4663
X94063Y7387
X94263Y7112
X94413Y4363
X94437Y6787
X94608Y6493
X94738Y34213
X94788Y6212
X94908Y22812
X94928Y29792
X94928Y15812
X94928Y8813
X95005Y45390
X95075Y42400
X95088Y31972
X95088Y18132
X95108Y25092
X95108Y24072
X95108Y11112
X95108Y10032
X95128Y17053
X95148Y31032
X95170Y33585
X95188Y37712
X95288Y45837
X95348Y16733
X95368Y23733
X95408Y30732
X95408Y9732
X95613Y46087
X95687Y36687
X95738Y4162
X96068Y28452
X96068Y21452
X96068Y14472
X96068Y7472
X96138Y35463
X96188Y37187
X96238Y3963
X96688Y37437
X96688Y34737
X96738Y3762
X96888Y3212
X96928Y33662
X96928Y32252
X96928Y22172
X96937Y26472
X96937Y19492
X96937Y15213
X96937Y12512
X96937Y8152
X96948Y30352
X96948Y29172
X96948Y25233
X96948Y9332
X96967Y31132
X96967Y23372
X96967Y18212
X96967Y17153
X96967Y16352
X96967Y11252
X96967Y10132
X97008Y24172
X97180Y36935
X97188Y34762
X97668Y13772
X97688Y35463
X97688Y28012
X97688Y6812
X97708Y21012
X97950Y46015
X97975Y44250
X98138Y2962
X98305Y45700
X98428Y23433
X98428Y16433
X98428Y9432
X98447Y30432
X98475Y42140
X98488Y2962
X98688Y29187
X98688Y22162
X98688Y15187
X98688Y8162
X98747Y4852
X98838Y2962
X98888Y4292
X99063Y34213
X99068Y4592
X99085Y42050
X99135Y44220
X99147Y4072
X99188Y2962
X99313Y34838
X99338Y35212
X99488Y4032
X99508Y3693
X99538Y2962
X99763Y37013
X99808Y3552
X99848Y3212
X99925Y44250
X99975Y42150
X100520Y45390
X100525Y43345
X100525Y42020
X100613Y36388
X100813Y34213
X100887Y29792
X100928Y22793
X100928Y15812
X100928Y11252
X100928Y8813
X101128Y32112
X101128Y31072
X101128Y25053
X101128Y18153
X101128Y17072
X101148Y23992
X101148Y10072
X101180Y33610
X101368Y23692
X101375Y44700
X101378Y30702
X101425Y42750
X101438Y16762
X101438Y9762
X101763Y37612
X101912Y41462
X102038Y37862
X102068Y7472
X102088Y28462
X102088Y21463
X102088Y14412
X102188Y35463
X102275Y43750
X102705Y41320
X102825Y43750
X102928Y32292
X102928Y25293
X102928Y11272
X102928Y9332
X102938Y33612
X102938Y29192
X102938Y26512
X102938Y22192
X102938Y19492
X102938Y15192
X102938Y12492
X102938Y8113
X102947Y30312
X102947Y23313
X102947Y16312
X102968Y24092
X102968Y18233
X102988Y31112
X102988Y17072
X103013Y34937
X103368Y10052
X103588Y35463
X103688Y6812
X103707Y21012
X103728Y13772
X103747Y28012
X104025Y38450
X104075Y43750
X104075Y42750
X104428Y30432
X104447Y23433
X104447Y16433
X104447Y9432
X104688Y29187
X104688Y22187
X104688Y15187
X104688Y8113
X105075Y36250
X105088Y35187
X105088Y34262
X105325Y44750
X105375Y41750
X106088Y34262
X106108Y7472
X106328Y30772
X106328Y23792
X106328Y16752
X106328Y10952
X106608Y10632
X106628Y30452
X106628Y23433
X106628Y16433
X106887Y35463
X106887Y28012
X106887Y21012
X106887Y13772
X107137Y35912
X107148Y28912
X107148Y21892
X107148Y14932
X105040Y62250
X105165Y71250
X105165Y62750
X105315Y70750
X105315Y63250
X105465Y70250
X105465Y63750
X105590Y64250
X105615Y69750
X105740Y64750
X105765Y69250
X105865Y73725
X105890Y65250
X105915Y68725
X106040Y65750
X106065Y68200
X106190Y66250
X106215Y67775
X119065Y50800
X119565Y50800
X120065Y51125
X120565Y51125
X121065Y51425
X121565Y51425
X122065Y51725
X122565Y51725
X125065Y51725
X125565Y51725
X126065Y51450
X126565Y51450
X127065Y51175
X127565Y51175
X128065Y50875
X128565Y50875
X141415Y67750
X141440Y66250
X141540Y68250
X141565Y60075
X141590Y65750
X141715Y68750
X141740Y65250
X141840Y69250
X141890Y64750
X141990Y69750
X142040Y64250
X142140Y70250
X142165Y63725
X142265Y70750
X142315Y63250
X142415Y71250
X142465Y62750
X142540Y71750
X109588Y38862
X109588Y35463
X109738Y39462
X109738Y34937
X109838Y5963
X109888Y6313
X109888Y5562
X109888Y5213
X109888Y4862
X110013Y30838
X110038Y6612
X110238Y6912
X110288Y31137
X110377Y16092
X110398Y23372
X110657Y22812
X110678Y29812
X110678Y15812
X110678Y8813
X110718Y9692
X110737Y6762
X110888Y31012
X110898Y32192
X110898Y25192
X110898Y18192
X110898Y11192
X111158Y30732
X111158Y23733
X111178Y16733
X111178Y9732
X111188Y38837
X111238Y6762
X111438Y36687
X111798Y21452
X111817Y28452
X111817Y14452
X111863Y35463
X111888Y39462
X111935Y37190
X112435Y37440
X112438Y34937
X112658Y8173
X112678Y32272
X112678Y25272
X112678Y11252
X112678Y9372
X112688Y33637
X112688Y31162
X112688Y29187
X112688Y26572
X112688Y22192
X112688Y19512
X112688Y15238
X112688Y12532
X112698Y30333
X112698Y23332
X112698Y16352
X112718Y18272
X112935Y36940
X112938Y34787
X113013Y38862
X113078Y2773
X113138Y2212
X113388Y35463
X113417Y28012
X113437Y37687
X113437Y21012
X113437Y13772
X113437Y6812
X113478Y3052
X113537Y2212
X113913Y5613
X113938Y2212
X114177Y30432
X114177Y23433
X114198Y16433
X114198Y9432
X114438Y29162
X114438Y22187
X114438Y15187
X114438Y8162
X114538Y5312
X114787Y2212
X114813Y34213
X114838Y4713
X114862Y35263
X114913Y5862
X115113Y34988
X115138Y4212
X115213Y5662
X115438Y3612
X115663Y5162
X115838Y2793
X116088Y36687
X116197Y2793
X116538Y6132
X116538Y5587
X116562Y34213
X116577Y6472
X116588Y37687
X116677Y29812
X116677Y22812
X116677Y15812
X116677Y8813
X116878Y25172
X116878Y17032
X116878Y10032
X116898Y32192
X116898Y31032
X116898Y24032
X116898Y18192
X116898Y11192
X116900Y33600
X117158Y9732
X117178Y30732
X117178Y23733
X117178Y16733
X117413Y36687
X117798Y28472
X117798Y21452
X117798Y7472
X117812Y35562
X117818Y14452
X117935Y37190
X118435Y37440
X118440Y34725
X118475Y48500
X118677Y18252
X118677Y11272
X118677Y8087
X118688Y33637
X118688Y29237
X118688Y26522
X118688Y22237
X118688Y19502
X118688Y12552
X118697Y32272
X118697Y31112
X118697Y30333
X118697Y25253
X118697Y24072
X118697Y23292
X118697Y16352
X118697Y15213
X118697Y10132
X118697Y9332
X118717Y17153
X118930Y40550
X118935Y36940
X118938Y34687
X119413Y35463
X119418Y28012
X119438Y37712
X119438Y6812
X119458Y21012
X119458Y13772
X120178Y30432
X120178Y9432
X120198Y23433
X120198Y16433
X120420Y34940
X120438Y29187
X120438Y15187
X120438Y8087
X120588Y42562
X120610Y22235
X120813Y34213
X121013Y34937
X121638Y5152
X121798Y5752
X121817Y6112
X122175Y35450
X122537Y34213
X122658Y29812
X122678Y22812
X122678Y15812
X122678Y8813
X122813Y37712
X122878Y32172
X122878Y25172
X122878Y18192
X122878Y17032
X122878Y11172
X122878Y10052
X122897Y31032
X122897Y24032
X122920Y33565
X122938Y5512
X123025Y42400
X123158Y16733
X123178Y30732
X123178Y23733
X123187Y9743
X123238Y5252
X123438Y36687
X123537Y4992
X123798Y7492
X123812Y35437
X123818Y28452
X123818Y21452
X123818Y14472
X123935Y37190
X124437Y37437
X124437Y34937
X124678Y32272
X124678Y22192
X124678Y15213
X124678Y11212
X124688Y33637
X124688Y29232
X124688Y26472
X124688Y19452
X124688Y12552
X124688Y8113
X124697Y25272
X124697Y24132
X124697Y23332
X124697Y18252
X124697Y16392
X124697Y10172
X124697Y9352
X124718Y31152
X124718Y30372
X124718Y17172
X124775Y42650
X124935Y36940
X124938Y34787
X125088Y5063
X125363Y35463
X125418Y28012
X125438Y37687
X125438Y13792
X125438Y6812
X125458Y21012
X126025Y41800
X126178Y30432
X126178Y16433
X126178Y9432
X126197Y23433
X126438Y29172
X126438Y15187
X126438Y8113
X126438Y5587
X126463Y22187
X126638Y5037
X126838Y35087
X126838Y34737
X126838Y34213
X126838Y5812
X127088Y6087
X127188Y4862
X127363Y6313
X127762Y4663
X127813Y7387
X128013Y7112
X128163Y4363
X128187Y6787
X128358Y6493
X128488Y34213
X128538Y6212
X128658Y22812
X128678Y29792
X128678Y15812
X128678Y8813
X128755Y45390
X128825Y42400
X128838Y31972
X128838Y18132
X128858Y25092
X128858Y24072
X128858Y11112
X128858Y10032
X128878Y17053
X128898Y31032
X128920Y33585
X128938Y37712
X129038Y45837
X129098Y16733
X129118Y23733
X129158Y30732
X129158Y9732
X129363Y46087
X129437Y36687
X129488Y4162
X129818Y28452
X129818Y21452
X129818Y14472
X129818Y7472
X129888Y35463
X129938Y37187
X129988Y3963
X130438Y37437
X130438Y34737
X130488Y3762
X130638Y3212
X130678Y33662
X130678Y32252
X130678Y22172
X130687Y26472
X130687Y19492
X130687Y15213
X130687Y12512
X130687Y8152
X130698Y30352
X130698Y29172
X130698Y25233
X130698Y9332
X130717Y31132
X130717Y23372
X130717Y18212
X130717Y17153
X130717Y16352
X130717Y11252
X130717Y10132
X130758Y24172
X130930Y36935
X130938Y34762
X131418Y13772
X131438Y35463
X131438Y28012
X131438Y6812
X131458Y21012
X131700Y46015
X131725Y44250
X131888Y2962
X132055Y45700
X132178Y23433
X132178Y16433
X132178Y9432
X132197Y30432
X132225Y42140
X132238Y2962
X132438Y29187
X132438Y22162
X132438Y15187
X132438Y8162
X132497Y4852
X132588Y2962
X132638Y4292
X132813Y34213
X132818Y4592
X132835Y42050
X132885Y44220
X132897Y4072
X132938Y2962
X133063Y34838
X133088Y35212
X133238Y4032
X133258Y3693
X133288Y2962
X133513Y37013
X133558Y3552
X133598Y3212
X133675Y44250
X133725Y42150
X134270Y45390
X134275Y43345
X134275Y42020
X134363Y36388
X134563Y34213
X134637Y29792
X134678Y22793
X134678Y15812
X134678Y11252
X134678Y8813
X134878Y32112
X134878Y31072
X134878Y25053
X134878Y18153
X134878Y17072
X134898Y23992
X134898Y10072
X134930Y33610
X135118Y23692
X135125Y44700
X135128Y30702
X135175Y42750
X135188Y16762
X135188Y9762
X135513Y37612
X135662Y41462
X135788Y37862
X135818Y7472
X135838Y28462
X135838Y21463
X135838Y14412
X135938Y35463
X136025Y43750
X136455Y41320
X136575Y43750
X136678Y32292
X136678Y25293
X136678Y11272
X136678Y9332
X136688Y33612
X136688Y29192
X136688Y26512
X136688Y22192
X136688Y19492
X136688Y15192
X136688Y12492
X136688Y8113
X136697Y30312
X136697Y23313
X136697Y16312
X136718Y24092
X136718Y18233
X136738Y31112
X136738Y17072
X136763Y34937
X137118Y10052
X137338Y35463
X137438Y6812
X137457Y21012
X137478Y13772
X137497Y28012
X137775Y38450
X137825Y43750
X137825Y42750
X138178Y30432
X138197Y23433
X138197Y16433
X138197Y9432
X138438Y29187
X138438Y22187
X138438Y15187
X138438Y8113
X138825Y36250
X138838Y35187
X138838Y34262
X139075Y44750
X139125Y41750
X139838Y34262
X139858Y7472
X140078Y30772
X140078Y23792
X140078Y16752
X140078Y10952
X140358Y10632
X140378Y30452
X140378Y23433
X140378Y16433
X140637Y35463
X140637Y28012
X140637Y21012
X140637Y13772
X140887Y35912
X140898Y28912
X140898Y21892
X140898Y14932
T02C0.023500
X3515Y4390
X5275Y12455
X5775Y12110
X6280Y11770
X6770Y11440
X8275Y11770
X8720Y11435
X9290Y12455
X10265Y12100
X10275Y17400
X10285Y15540
X10735Y2650
X11145Y6695
X11245Y12980
X11880Y11095
X11990Y15590
X12045Y5315
X12515Y15235
X12705Y12365
X12815Y8460
X13305Y11595
X13335Y8460
X13650Y3970
X13815Y8465
X13845Y11700
X14250Y17985
X14525Y11710
X14720Y18330
X14990Y11735
X15175Y7620
X15361Y5620
X21005Y17970
X21125Y5200
X21345Y18330
X21675Y16220
X21680Y16930
X22025Y16550
X22090Y13395
X22165Y5660
X22195Y13850
X22685Y18285
X23075Y5950
X23150Y11825
X23300Y8675
X23675Y6850
X25455Y13050
X25525Y6580
X26015Y6470
X26325Y14350
X26505Y6580
X26835Y5700
X26925Y12050
X27485Y9450
X27505Y5700
X27925Y12050
X28398Y10833
X28485Y2910
X28905Y4140
X29025Y1960
X29205Y6460
X29585Y5250
X29815Y9680
X30095Y5280
X30705Y17180
X30755Y3150
X30795Y8620
X30795Y7160
X30805Y9730
X31135Y11590
X31145Y4130
X31275Y9410
X31305Y7130
X31335Y5230
X31795Y7130
X31795Y3140
X31925Y12100
X31935Y1705
X31985Y9730
X32265Y3150
X32285Y2070
X32725Y5620
X32785Y7120
X32805Y9660
X33155Y4655
X33175Y2490
X33255Y3030
X33305Y9680
X33525Y5350
X33815Y9740
X34295Y5850
X34695Y9720
X34970Y8710
X35315Y7100
X35415Y13740
X2650Y23650
X2750Y25150
X5050Y23550
X5750Y25150
X5750Y21650
X6750Y27150
X6750Y24150
X52388Y3162
X52388Y2662
X52888Y3162
X52888Y2662
X53388Y3162
X53388Y2662
X53888Y3162
X53888Y2662
X54388Y3162
X54388Y2662
X54888Y3162
X54888Y2662
X55388Y3162
X55388Y2662
X55887Y3162
X55887Y2662
X56388Y3162
X56388Y2662
X56888Y3162
X56888Y2662
X57388Y3162
X57388Y2662
X57888Y3162
X57888Y2662
X58387Y3162
X58387Y2662
X58888Y3162
X58888Y2662
X59388Y3162
X59388Y2662
X59888Y3162
X59888Y2662
X60388Y3162
X60388Y2662
X60887Y3162
X60887Y2662
X61388Y3162
X61388Y2662
X61888Y3162
X61888Y2662
X20260Y26275
X32410Y26900
X21635Y27325
X20935Y27950
X14115Y28430
X24135Y30100
X26435Y30200
X28435Y30200
X17235Y33900
X27485Y34100
X20935Y34350
X17235Y34900
X23185Y35100
X20885Y35150
X17335Y35400
X29455Y35400
X28445Y35490
X27485Y35500
X30955Y36050
X22210Y37075
X29885Y37150
X23435Y37525
X20260Y38075
X26340Y38100
X23515Y38585
X24230Y38670
X17960Y38785
X22045Y38955
X19490Y38965
X23210Y39000
X24810Y39200
X22575Y39415
X24205Y39785
X19435Y40200
X29985Y40550
X32860Y40625
X23775Y40665
X18935Y40800
X32235Y41075
X14035Y41250
X24100Y41690
X23405Y42040
X35435Y42040
X30005Y42430
X23295Y42510
X39995Y43150
X28805Y43360
X26823Y43392
X22810Y43400
X24760Y43400
X14085Y43500
X21810Y43550
X39655Y43570
X39065Y44155
X30375Y44190
X25290Y44385
X23280Y44400
X39565Y44660
X24023Y44750
X29485Y45115
X24001Y45470
X13260Y45575
X24325Y45855
X32885Y45875
X34060Y45875
X24710Y46100
X19675Y47240
X29055Y48290
X32865Y48390
X19520Y48670
X22910Y48725
X21685Y48750
X27560Y48925
X27985Y49325
X30325Y49340
X28675Y49350
X23285Y49525
X30865Y49960
X29135Y50090
X14635Y50620
X35315Y50740
X21760Y50950
X23735Y51225
X20060Y51325
X20975Y51550
X22710Y51800
X32335Y52040
X26315Y52850
X25145Y52853
X18982Y53007
X30581Y53062
X35285Y53100
X23660Y53375
X26455Y53660
X28435Y53675
X20845Y53700
X33465Y53895
X30585Y54070
X17215Y54140
X21055Y54380
X33490Y54400
X23515Y54560
X35615Y54660
X30915Y55072
X33585Y55255
X35940Y56120
X33570Y56640
X35280Y57015
X36270Y57685
X14245Y58480
X36725Y58530
X32935Y58560
X49700Y56625
X61850Y57250
X51075Y57675
X50375Y58300
X43555Y58780
X53575Y60450
X55875Y60550
X57875Y60550
X46675Y64250
X56925Y64450
X50375Y64700
X46675Y65250
X52625Y65450
X50325Y65500
X46775Y65750
X58895Y65750
X57885Y65840
X56925Y65850
X60395Y66400
X51650Y67425
X59325Y67500
X52875Y67875
X49700Y68425
X55780Y68450
X52955Y68935
X53670Y69020
X47400Y69135
X51485Y69305
X48930Y69315
X52650Y69350
X54250Y69550
X52015Y69765
X53645Y70135
X48875Y70550
X59425Y70900
X62300Y70975
X53215Y71015
X48375Y71150
X61675Y71425
X43475Y71600
X53540Y72040
X52845Y72390
X64875Y72390
X59445Y72780
X52735Y72860
X69435Y73500
X58245Y73710
X56263Y73742
X52250Y73750
X54200Y73750
X43525Y73850
X51250Y73900
X69095Y73920
X68505Y74505
X59815Y74540
X54730Y74735
X52720Y74750
X69005Y75010
X53463Y75100
X58925Y75465
X53441Y75820
X42700Y75925
X53765Y76205
X62325Y76225
X63500Y76225
X54150Y76450
X49115Y77590
X58495Y78640
X62305Y78740
X48960Y79020
X52350Y79075
X51125Y79100
X57000Y79275
X57425Y79675
X59765Y79690
X58115Y79700
X52725Y79875
X60305Y80310
X58575Y80440
X44075Y80970
X64755Y81090
X51200Y81300
X53175Y81575
X49500Y81675
X50415Y81900
X52150Y82150
X61775Y82390
X55755Y83200
X54585Y83203
X48422Y83357
X60021Y83412
X64725Y83450
X53100Y83725
X55895Y84010
X57875Y84025
X50285Y84050
X62905Y84245
X60025Y84420
X46655Y84490
X50495Y84730
X62930Y84750
X52955Y84910
X65055Y85010
X60355Y85422
X63025Y85605
X65380Y86470
X63010Y86990
X64720Y87365
X65710Y88035
X43685Y88830
X66165Y88880
X62375Y88910
X25575Y64350
X25575Y63850
X26075Y64350
X26075Y63850
X26575Y64350
X26575Y63850
X27075Y64350
X27075Y63850
X27575Y64350
X27575Y63850
X28075Y64350
X28075Y63850
X28575Y64350
X28575Y63850
X29075Y64350
X29075Y63850
X29575Y64350
X29575Y63850
X30075Y64350
X30075Y63850
X30575Y64350
X30575Y63850
X31075Y64350
X31075Y63850
X31575Y64350
X31575Y63850
X32075Y64350
X32075Y63850
X32575Y64350
X32575Y63850
X33075Y64350
X33075Y63850
X33575Y64350
X33575Y63850
X34075Y64350
X34075Y63850
X34575Y64350
X34575Y63850
X35075Y64350
X35075Y63850
X3875Y91900
X3875Y91400
X3875Y90900
X3875Y90400
X3875Y89900
X3875Y89400
X3875Y88900
X3875Y88400
X3875Y87900
X3875Y87400
X3875Y86900
X3875Y86400
X3875Y85900
X3875Y85400
X3875Y84900
X3875Y84400
X3875Y83900
X3875Y83400
X3875Y82900
X3875Y82400
X4375Y91900
X4375Y91400
X4375Y90900
X4375Y90400
X4375Y89900
X4375Y89400
X4375Y88900
X4375Y88400
X4375Y87900
X4375Y87400
X4375Y86900
X4375Y86400
X4375Y85900
X4375Y85400
X4375Y84900
X4375Y84400
X4375Y83900
X4375Y83400
X4375Y82900
X4375Y82400
X16125Y73150
X16125Y72650
X16625Y73150
X16625Y72650
X17125Y73150
X17125Y72650
X17625Y73150
X17625Y72650
X18125Y73150
X18125Y72650
X18625Y73150
X18625Y72650
X19125Y73150
X19125Y72650
X19625Y73150
X19625Y72650
X20125Y73150
X20125Y72650
X20625Y73150
X20625Y72650
X21125Y73150
X21125Y72650
X21625Y73150
X21625Y72650
X22125Y73150
X22125Y72650
X22625Y73150
X22625Y72650
X23125Y73150
X23125Y72650
X23625Y73150
X23625Y72650
X24125Y73150
X24125Y72650
X24625Y73150
X24625Y72650
X25125Y73150
X25125Y72650
X25625Y73150
X25625Y72650
X37375Y91900
X37375Y91400
X37375Y90900
X37375Y90400
X37375Y89900
X37375Y89400
X37375Y88900
X37375Y88400
X37375Y87900
X37375Y87400
X37375Y86900
X37375Y86400
X37375Y85900
X37375Y85400
X37375Y84900
X37375Y84400
X37375Y83900
X37375Y83400
X37375Y82900
X37375Y82400
X37875Y91900
X37875Y91400
X37875Y90900
X37875Y90400
X37875Y89900
X37875Y89400
X37875Y88900
X37875Y88400
X37875Y87900
X37875Y87400
X37875Y86900
X37875Y86400
X37875Y85900
X37875Y85400
X37875Y84900
X37875Y84400
X37875Y83900
X37875Y83400
X37875Y82900
X37875Y82400
X6875Y91900
X6875Y90900
X6875Y89900
X6875Y88900
X6875Y87900
X6875Y86900
X6875Y85900
X6875Y84900
X6875Y83900
X6875Y82900
X6875Y81900
X6875Y80900
X6875Y79900
X6875Y78900
X6875Y77900
X7875Y91900
X7875Y90900
X7875Y89900
X7875Y88900
X7875Y87900
X7875Y86900
X7875Y85900
X7875Y84900
X7875Y83900
X7875Y82900
X7875Y81900
X7875Y80900
X7875Y79900
X7875Y78900
X7875Y77900
X8875Y91900
X8875Y90900
X8875Y89900
X8875Y88900
X8875Y87900
X8875Y86900
X8875Y85900
X8875Y84900
X8875Y83900
X8875Y82900
X8875Y81900
X8875Y80900
X8875Y79900
X8875Y78900
X8875Y77900
X9875Y91900
X9875Y90900
X9875Y89900
X9875Y88900
X9875Y87900
X9875Y86900
X9875Y85900
X9875Y84900
X9875Y83900
X9875Y82900
X9875Y81900
X9875Y80900
X9875Y79900
X9875Y78900
X9875Y77900
X31875Y91900
X31875Y90900
X31875Y89900
X31875Y88900
X31875Y87900
X31875Y86900
X31875Y85900
X31875Y84900
X31875Y83900
X31875Y82900
X31875Y81900
X31875Y80900
X31875Y79900
X31875Y78900
X31875Y77900
X32875Y91900
X32875Y90900
X32875Y89900
X32875Y88900
X32875Y87900
X32875Y86900
X32875Y85900
X32875Y84900
X32875Y83900
X32875Y82900
X32875Y81900
X32875Y80900
X32875Y79900
X32875Y78900
X32875Y77900
X33875Y91900
X33875Y90900
X33875Y89900
X33875Y88900
X33875Y87900
X33875Y86900
X33875Y85900
X33875Y84900
X33875Y83900
X33875Y82900
X33875Y81900
X33875Y80900
X33875Y79900
X33875Y78900
X33875Y77900
X34875Y91900
X34875Y90900
X34875Y89900
X34875Y88900
X34875Y87900
X34875Y86900
X34875Y85900
X34875Y84900
X34875Y83900
X34875Y82900
X34875Y81900
X34875Y80900
X34875Y79900
X34875Y78900
X34875Y77900
X81828Y51912
X81828Y51412
X82328Y51912
X82328Y51412
X82828Y51912
X82828Y51412
X83328Y51912
X83328Y51412
X83828Y51912
X83828Y51412
X84328Y51912
X84328Y51412
X84828Y51912
X84828Y51412
X85327Y51912
X85327Y51412
X85828Y51912
X85828Y51412
X86328Y51912
X86328Y51412
X86828Y51912
X86828Y51412
X87328Y51912
X87328Y51412
X87827Y51912
X87827Y51412
X88328Y51912
X88328Y51412
X88828Y51912
X88828Y51412
X89328Y51912
X89328Y51412
X89828Y51912
X89828Y51412
X90327Y51912
X90327Y51412
X90828Y51912
X90828Y51412
X91328Y51912
X91328Y51412
X6085Y32900
X6185Y34400
X8485Y32800
X9185Y34400
X9185Y30900
X10185Y36400
X10185Y33400
X15025Y64150
X15125Y65650
X17425Y64050
X18125Y65650
X18125Y62150
X19125Y67650
X19125Y64650
X86138Y3162
X86138Y2662
X86638Y3162
X86638Y2662
X87138Y3162
X87138Y2662
X87638Y3162
X87638Y2662
X88138Y3162
X88138Y2662
X88638Y3162
X88638Y2662
X89138Y3162
X89138Y2662
X89637Y3162
X89637Y2662
X90138Y3162
X90138Y2662
X90638Y3162
X90638Y2662
X91138Y3162
X91138Y2662
X91638Y3162
X91638Y2662
X92137Y3162
X92137Y2662
X92638Y3162
X92638Y2662
X93138Y3162
X93138Y2662
X93638Y3162
X93638Y2662
X94138Y3162
X94138Y2662
X94637Y3162
X94637Y2662
X95138Y3162
X95138Y2662
X95638Y3162
X95638Y2662
X106815Y71750
X106815Y71250
X106815Y70750
X106815Y70250
X106815Y69750
X106815Y69250
X106815Y68750
X106815Y68250
X106815Y67750
X106815Y67250
X106815Y66750
X106815Y66250
X106815Y65750
X106815Y65250
X106815Y64750
X106815Y64250
X106815Y63750
X106815Y63250
X106815Y62750
X106815Y62250
X107315Y71750
X107315Y71250
X107315Y70750
X107315Y70250
X107315Y69750
X107315Y69250
X107315Y68750
X107315Y68250
X107315Y67750
X107315Y67250
X107315Y66750
X107315Y66250
X107315Y65750
X107315Y65250
X107315Y64750
X107315Y64250
X107315Y63750
X107315Y63250
X107315Y62750
X107315Y62250
X119065Y53000
X119065Y52500
X119565Y53000
X119565Y52500
X120065Y53000
X120065Y52500
X120565Y53000
X120565Y52500
X121065Y53000
X121065Y52500
X121565Y53000
X121565Y52500
X122065Y53000
X122065Y52500
X122565Y53000
X122565Y52500
X123065Y53000
X123065Y52500
X123565Y53000
X123565Y52500
X124065Y53000
X124065Y52500
X124565Y53000
X124565Y52500
X125065Y53000
X125065Y52500
X125565Y53000
X125565Y52500
X126065Y53000
X126065Y52500
X126565Y53000
X126565Y52500
X127065Y53000
X127065Y52500
X127565Y53000
X127565Y52500
X128065Y53000
X128065Y52500
X128565Y53000
X128565Y52500
X140315Y71750
X140315Y71250
X140315Y70750
X140315Y70250
X140315Y69750
X140315Y69250
X140315Y68750
X140315Y68250
X140315Y67750
X140315Y67250
X140315Y66750
X140315Y66250
X140315Y65750
X140315Y65250
X140315Y64750
X140315Y64250
X140315Y63750
X140315Y63250
X140315Y62750
X140315Y62250
X140815Y71750
X140815Y71250
X140815Y70750
X140815Y70250
X140815Y69750
X140815Y69250
X140815Y68750
X140815Y68250
X140815Y67750
X140815Y67250
X140815Y66750
X140815Y66250
X140815Y65750
X140815Y65250
X140815Y64750
X140815Y64250
X140815Y63750
X140815Y63250
X140815Y62750
X140815Y62250
X109815Y71750
X109815Y70750
X109815Y69750
X109815Y68750
X109815Y67750
X109815Y66750
X109815Y65750
X109815Y64750
X109815Y63750
X109815Y62750
X109815Y61750
X109815Y60750
X109815Y59750
X109815Y58750
X109815Y57750
X110815Y71750
X110815Y70750
X110815Y69750
X110815Y68750
X110815Y67750
X110815Y66750
X110815Y65750
X110815Y64750
X110815Y63750
X110815Y62750
X110815Y61750
X110815Y60750
X110815Y59750
X110815Y58750
X110815Y57750
X111815Y71750
X111815Y70750
X111815Y69750
X111815Y68750
X111815Y67750
X111815Y66750
X111815Y65750
X111815Y64750
X111815Y63750
X111815Y62750
X111815Y61750
X111815Y60750
X111815Y59750
X111815Y58750
X111815Y57750
X112815Y71750
X112815Y70750
X112815Y69750
X112815Y68750
X112815Y67750
X112815Y66750
X112815Y65750
X112815Y64750
X112815Y63750
X112815Y62750
X112815Y61750
X112815Y60750
X112815Y59750
X112815Y58750
X112815Y57750
X134815Y71750
X134815Y70750
X134815Y69750
X134815Y68750
X134815Y67750
X134815Y66750
X134815Y65750
X134815Y64750
X134815Y63750
X134815Y62750
X134815Y61750
X134815Y60750
X134815Y59750
X134815Y58750
X134815Y57750
X135815Y71750
X135815Y70750
X135815Y69750
X135815Y68750
X135815Y67750
X135815Y66750
X135815Y65750
X135815Y64750
X135815Y63750
X135815Y62750
X135815Y61750
X135815Y60750
X135815Y59750
X135815Y58750
X135815Y57750
X136815Y71750
X136815Y70750
X136815Y69750
X136815Y68750
X136815Y67750
X136815Y66750
X136815Y65750
X136815Y64750
X136815Y63750
X136815Y62750
X136815Y61750
X136815Y60750
X136815Y59750
X136815Y58750
X136815Y57750
X137815Y71750
X137815Y70750
X137815Y69750
X137815Y68750
X137815Y67750
X137815Y66750
X137815Y65750
X137815Y64750
X137815Y63750
X137815Y62750
X137815Y61750
X137815Y60750
X137815Y59750
X137815Y58750
X137815Y57750
X2650Y42150
X2750Y43650
X5050Y42050
X5750Y43650
X5750Y40150
X6750Y45650
X6750Y42650
X106830Y80890
X108590Y88955
X109090Y88610
X109595Y88270
X110085Y87940
X111590Y88270
X112035Y87935
X112605Y88955
X113580Y88600
X113590Y93900
X113600Y92040
X114050Y79150
X114460Y83195
X114560Y89480
X115195Y87595
X115305Y92090
X115360Y81815
X115830Y91735
X116020Y88865
X116130Y84960
X116620Y88095
X116650Y84960
X116965Y80470
X117130Y84965
X117160Y88200
X117565Y94485
X117840Y88210
X118035Y94830
X118305Y88235
X118490Y84120
X118676Y82120
X124320Y94470
X124440Y81700
X124660Y94830
X124990Y92720
X124995Y93430
X125340Y93050
X125405Y89895
X125480Y82160
X125510Y90350
X126000Y94785
X126390Y82450
X126465Y88325
X126615Y85175
X126990Y83350
X128770Y89550
X128840Y83080
X129330Y82970
X129640Y90850
X129820Y83080
X130150Y82200
X130240Y88550
X130800Y85950
X130820Y82200
X131240Y88550
X131713Y87333
X131800Y79410
X132220Y80640
X132340Y78460
X132520Y82960
X132900Y81750
X133130Y86180
X133410Y81780
X134020Y93680
X134070Y79650
X134110Y85120
X134110Y83660
X134120Y86230
X134450Y88090
X134460Y80630
X134590Y85910
X134620Y83630
X134650Y81730
X135110Y83630
X135110Y79640
X135240Y88600
X135250Y78205
X135300Y86230
X135580Y79650
X135600Y78570
X136040Y82120
X136100Y83620
X136120Y86160
X136470Y81155
X136490Y78990
X136570Y79530
X136620Y86180
X136840Y81850
X137130Y86240
X137610Y82350
X138010Y86220
X138285Y85210
X138630Y83600
X138730Y90240
X6485Y52100
X6985Y52100
X6485Y52600
X6985Y52600
X6485Y53100
X6985Y53100
X6485Y53600
X6985Y53600
X6485Y54100
X6985Y54100
X6485Y54600
X6985Y54600
X6485Y55100
X6985Y55100
X6485Y55600
X6985Y55600
X6485Y56100
X6985Y56100
X6485Y56600
X6985Y56600
X6485Y57100
X6985Y57100
X6485Y57600
X6985Y57600
X6485Y58100
X6985Y58100
X6485Y58600
X6985Y58600
X6485Y59100
X6985Y59100
X6485Y59600
X6985Y59600
X6485Y60100
X6985Y60100
X6485Y60600
X6985Y60600
X6485Y61100
X6985Y61100
X6485Y61600
X6985Y61600
X46075Y94700
X46075Y94200
X46575Y94700
X46575Y94200
X47075Y94700
X47075Y94200
X47575Y94700
X47575Y94200
X48075Y94700
X48075Y94200
X48575Y94700
X48575Y94200
X49075Y94700
X49075Y94200
X49575Y94700
X49575Y94200
X50075Y94700
X50075Y94200
X50575Y94700
X50575Y94200
X51075Y94700
X51075Y94200
X51575Y94700
X51575Y94200
X52075Y94700
X52075Y94200
X52575Y94700
X52575Y94200
X53075Y94700
X53075Y94200
X53575Y94700
X53575Y94200
X54075Y94700
X54075Y94200
X54575Y94700
X54575Y94200
X55075Y94700
X55075Y94200
X55575Y94700
X55575Y94200
X119888Y3162
X119888Y2662
X120388Y3162
X120388Y2662
X120888Y3162
X120888Y2662
X121388Y3162
X121388Y2662
X121888Y3162
X121888Y2662
X122388Y3162
X122388Y2662
X122888Y3162
X122888Y2662
X123387Y3162
X123387Y2662
X123888Y3162
X123888Y2662
X124388Y3162
X124388Y2662
X124888Y3162
X124888Y2662
X125388Y3162
X125388Y2662
X125887Y3162
X125887Y2662
X126388Y3162
X126388Y2662
X126888Y3162
X126888Y2662
X127388Y3162
X127388Y2662
X127888Y3162
X127888Y2662
X128387Y3162
X128387Y2662
X128888Y3162
X128888Y2662
X129388Y3162
X129388Y2662
T03C0.031000
X5275Y17400
X5275Y16400
X5275Y3650
X5275Y2650
X6275Y17400
X6275Y16400
X6275Y3650
X6275Y2650
X7275Y17400
X7275Y16400
X7275Y3650
X7275Y2650
X8275Y17400
X8275Y16400
X8275Y3650
X8275Y2650
X9275Y17400
X9275Y16400
X9275Y3650
X9275Y2650
X23415Y15400
X23415Y12400
X24415Y15400
X24415Y12400
X25415Y15400
X25415Y12400
X26415Y15400
X26415Y12400
X27415Y15400
X27415Y12400
X28415Y15400
X28415Y12400
X29415Y15400
X29415Y12400
X30415Y15400
X30415Y12400
X31415Y15400
X31415Y12400
X32415Y15400
X32415Y12400
X33415Y15400
X33415Y12400
X34415Y15400
X34415Y12400
X35415Y15400
X35415Y12400
X36415Y15400
X36415Y12400
X27805Y17240
X29805Y17240
X1750Y27150
X1750Y26150
X1750Y25150
X1750Y24150
X1750Y22150
X1750Y21150
X1750Y20150
X48437Y41237
X48437Y38237
X49438Y41237
X49438Y38237
X50438Y41237
X50438Y38237
X51438Y41237
X51438Y38237
X52438Y41237
X52438Y38237
X53438Y41237
X53438Y38237
X54438Y41237
X54438Y38237
X55438Y41237
X55438Y38237
X56438Y41237
X56438Y38237
X57438Y41237
X57438Y38237
X58438Y41237
X58438Y38237
X59437Y41237
X59437Y38237
X60438Y41237
X60438Y38237
X61438Y41237
X61438Y38237
X65538Y47012
X65538Y46013
X66538Y47012
X66538Y46013
X67537Y47012
X67537Y46013
X68538Y47012
X68538Y46013
X69538Y47012
X69538Y46013
X48537Y43012
X50538Y43012
X12685Y26950
X12685Y27950
X12685Y28950
X12685Y29950
X31685Y30550
X12685Y30950
X31685Y31550
X12685Y31950
X31685Y32550
X12685Y32950
X31685Y33550
X12685Y33950
X31685Y34550
X12685Y34950
X31685Y35550
X12685Y35950
X31685Y36550
X12685Y37550
X31685Y37550
X12685Y38550
X12685Y39550
X31685Y39550
X12685Y40550
X31685Y40550
X12685Y41550
X31685Y41550
X12685Y42550
X31685Y42550
X35435Y43150
X36435Y43150
X12685Y43550
X31685Y43550
X35435Y44150
X36435Y44150
X12685Y44550
X31685Y44550
X20685Y44600
X21685Y44600
X22685Y44600
X35435Y45150
X36435Y45150
X31685Y45550
X20685Y45600
X21685Y45600
X22685Y45600
X35435Y46150
X36435Y46150
X12685Y46550
X31685Y46550
X35435Y47150
X36435Y47150
X12685Y47550
X12685Y48550
X31685Y48550
X12685Y49550
X31685Y49550
X12685Y50550
X31685Y50550
X12685Y51550
X31685Y51550
X12685Y52550
X31685Y52550
X12685Y53550
X31685Y53550
X31685Y54550
X31685Y55550
X12685Y56550
X13685Y56550
X14685Y56550
X15685Y56550
X16685Y56550
X17685Y56550
X18685Y56550
X19685Y56550
X20685Y56550
X21685Y56550
X22685Y56550
X23685Y56550
X24685Y56550
X25685Y56550
X26685Y56550
X27685Y56550
X28685Y56550
X29685Y56550
X12685Y57550
X13685Y57550
X14685Y57550
X15685Y57550
X16685Y57550
X17685Y57550
X18685Y57550
X19685Y57550
X20685Y57550
X21685Y57550
X22685Y57550
X23685Y57550
X24685Y57550
X25685Y57550
X26685Y57550
X27685Y57550
X28685Y57550
X29685Y57550
X42125Y57300
X42125Y58300
X42125Y59300
X42125Y60300
X61125Y60900
X42125Y61300
X61125Y61900
X42125Y62300
X61125Y62900
X42125Y63300
X61125Y63900
X42125Y64300
X61125Y64900
X42125Y65300
X61125Y65900
X42125Y66300
X61125Y66900
X42125Y67900
X61125Y67900
X42125Y68900
X42125Y69900
X61125Y69900
X42125Y70900
X61125Y70900
X42125Y71900
X61125Y71900
X42125Y72900
X61125Y72900
X64875Y73500
X65875Y73500
X42125Y73900
X61125Y73900
X64875Y74500
X65875Y74500
X42125Y74900
X61125Y74900
X50125Y74950
X51125Y74950
X52125Y74950
X64875Y75500
X65875Y75500
X61125Y75900
X50125Y75950
X51125Y75950
X52125Y75950
X64875Y76500
X65875Y76500
X42125Y76900
X61125Y76900
X64875Y77500
X65875Y77500
X42125Y77900
X42125Y78900
X61125Y78900
X42125Y79900
X61125Y79900
X42125Y80900
X61125Y80900
X42125Y81900
X61125Y81900
X42125Y82900
X61125Y82900
X42125Y83900
X61125Y83900
X61125Y84900
X61125Y85900
X42125Y86900
X43125Y86900
X44125Y86900
X45125Y86900
X46125Y86900
X47125Y86900
X48125Y86900
X49125Y86900
X50125Y86900
X51125Y86900
X52125Y86900
X53125Y86900
X54125Y86900
X55125Y86900
X56125Y86900
X57125Y86900
X58125Y86900
X59125Y86900
X42125Y87900
X43125Y87900
X44125Y87900
X45125Y87900
X46125Y87900
X47125Y87900
X48125Y87900
X49125Y87900
X50125Y87900
X51125Y87900
X52125Y87900
X53125Y87900
X54125Y87900
X55125Y87900
X56125Y87900
X57125Y87900
X58125Y87900
X59125Y87900
X77877Y89987
X77877Y86987
X78878Y89987
X78878Y86987
X79878Y89987
X79878Y86987
X80878Y89987
X80878Y86987
X81878Y89987
X81878Y86987
X82878Y89987
X82878Y86987
X83878Y89987
X83878Y86987
X84878Y89987
X84878Y86987
X85878Y89987
X85878Y86987
X86878Y89987
X86878Y86987
X87878Y89987
X87878Y86987
X88877Y89987
X88877Y86987
X89878Y89987
X89878Y86987
X90878Y89987
X90878Y86987
X94978Y95762
X94978Y94763
X95978Y95762
X95978Y94763
X96977Y95762
X96977Y94763
X97978Y95762
X97978Y94763
X98978Y95762
X98978Y94763
X77977Y91762
X79978Y91762
X5185Y36400
X5185Y35400
X5185Y34400
X5185Y33400
X5185Y31400
X5185Y30400
X5185Y29400
X14125Y67650
X14125Y66650
X14125Y65650
X14125Y64650
X14125Y62650
X14125Y61650
X14125Y60650
X82187Y41237
X82187Y38237
X83188Y41237
X83188Y38237
X84188Y41237
X84188Y38237
X85188Y41237
X85188Y38237
X86188Y41237
X86188Y38237
X87188Y41237
X87188Y38237
X88188Y41237
X88188Y38237
X89188Y41237
X89188Y38237
X90188Y41237
X90188Y38237
X91188Y41237
X91188Y38237
X92188Y41237
X92188Y38237
X93187Y41237
X93187Y38237
X94188Y41237
X94188Y38237
X95188Y41237
X95188Y38237
X99288Y47012
X99288Y46013
X100288Y47012
X100288Y46013
X101287Y47012
X101287Y46013
X102288Y47012
X102288Y46013
X103288Y47012
X103288Y46013
X82287Y43012
X84288Y43012
X1750Y45650
X1750Y44650
X1750Y43650
X1750Y42650
X1750Y40650
X1750Y39650
X1750Y38650
X108590Y93900
X108590Y92900
X108590Y80150
X108590Y79150
X109590Y93900
X109590Y92900
X109590Y80150
X109590Y79150
X110590Y93900
X110590Y92900
X110590Y80150
X110590Y79150
X111590Y93900
X111590Y92900
X111590Y80150
X111590Y79150
X112590Y93900
X112590Y92900
X112590Y80150
X112590Y79150
X126730Y91900
X126730Y88900
X127730Y91900
X127730Y88900
X128730Y91900
X128730Y88900
X129730Y91900
X129730Y88900
X130730Y91900
X130730Y88900
X131730Y91900
X131730Y88900
X132730Y91900
X132730Y88900
X133730Y91900
X133730Y88900
X134730Y91900
X134730Y88900
X135730Y91900
X135730Y88900
X136730Y91900
X136730Y88900
X137730Y91900
X137730Y88900
X138730Y91900
X138730Y88900
X139730Y91900
X139730Y88900
X131120Y93740
X133120Y93740
X115937Y41237
X115937Y38237
X116938Y41237
X116938Y38237
X117938Y41237
X117938Y38237
X118938Y41237
X118938Y38237
X119938Y41237
X119938Y38237
X120938Y41237
X120938Y38237
X121938Y41237
X121938Y38237
X122938Y41237
X122938Y38237
X123938Y41237
X123938Y38237
X124938Y41237
X124938Y38237
X125938Y41237
X125938Y38237
X126937Y41237
X126937Y38237
X127938Y41237
X127938Y38237
X128938Y41237
X128938Y38237
X133038Y47012
X133038Y46013
X134038Y47012
X134038Y46013
X135037Y47012
X135037Y46013
X136038Y47012
X136038Y46013
X137038Y47012
X137038Y46013
X116037Y43012
X118038Y43012
T04C0.037000
X16275Y13500
X17275Y13500
X30985Y24400
X31985Y24400
X37385Y24400
X38385Y24400
X60425Y54750
X61425Y54750
X66825Y54750
X67825Y54750
X119590Y90000
X120590Y90000
T05C0.040000
X11995Y13675
X12995Y13675
X21100Y14950
X21100Y13950
X21100Y12950
X22605Y17700
X22605Y16700
X23605Y17700
X23605Y16700
X24605Y17700
X24605Y16700
X34485Y16420
X34595Y17920
X35485Y16420
X35595Y17920
X36595Y17920
X37595Y17920
X38595Y17920
X39595Y17920
X37949Y14501
X37949Y12139
X39721Y14501
X39721Y12139
X54025Y45800
X55025Y45800
X56025Y45800
X57025Y45800
X58025Y45800
X59025Y45800
X61975Y43550
X61975Y42550
X66025Y40250
X66025Y39250
X67025Y40250
X67025Y39250
X68025Y40250
X68025Y39250
X70075Y40550
X70075Y39400
X71075Y40550
X71075Y39400
X62576Y40868
X62576Y38507
X64349Y40868
X64349Y38507
X26585Y39675
X27585Y39675
X28585Y39675
X26585Y41100
X27585Y41100
X28585Y41100
X28285Y45700
X24185Y46500
X25185Y46500
X26185Y46500
X28285Y46700
X24185Y47900
X25185Y47900
X26185Y47900
X24185Y49300
X25185Y49300
X26185Y49300
X37685Y53100
X38685Y53100
X39685Y53100
X37685Y54700
X38685Y54700
X39685Y54700
X37685Y56200
X38685Y56200
X39685Y56200
X37685Y57700
X38685Y57700
X39685Y57700
X56025Y70025
X57025Y70025
X58025Y70025
X56025Y71450
X57025Y71450
X58025Y71450
X57725Y76050
X53625Y76850
X54625Y76850
X55625Y76850
X57725Y77050
X53625Y78250
X54625Y78250
X55625Y78250
X53625Y79650
X54625Y79650
X55625Y79650
X67125Y83450
X68125Y83450
X69125Y83450
X67125Y85050
X68125Y85050
X69125Y85050
X67125Y86550
X68125Y86550
X69125Y86550
X67125Y88050
X68125Y88050
X69125Y88050
X38775Y64350
X83465Y94550
X84465Y94550
X85465Y94550
X86465Y94550
X87465Y94550
X88465Y94550
X91415Y92300
X91415Y91300
X95465Y89000
X95465Y88000
X96465Y89000
X96465Y88000
X97465Y89000
X97465Y88000
X99515Y89300
X99515Y88150
X100515Y89300
X100515Y88150
X92016Y89618
X92016Y87257
X93789Y89618
X93789Y87257
X87775Y45800
X88775Y45800
X89775Y45800
X90775Y45800
X91775Y45800
X92775Y45800
X95725Y43550
X95725Y42550
X99775Y40250
X99775Y39250
X100775Y40250
X100775Y39250
X101775Y40250
X101775Y39250
X103825Y40550
X103825Y39400
X104825Y40550
X104825Y39400
X96326Y40868
X96326Y38507
X98099Y40868
X98099Y38507
X115310Y90175
X116310Y90175
X124415Y91450
X124415Y90450
X124415Y89450
X125920Y94200
X125920Y93200
X126920Y94200
X126920Y93200
X127920Y94200
X127920Y93200
X137800Y92920
X137910Y94420
X138800Y92920
X138910Y94420
X139910Y94420
X140910Y94420
X141910Y94420
X142910Y94420
X141264Y91001
X141264Y88639
X143036Y91001
X143036Y88639
X6485Y65300
X59275Y94700
X121525Y45800
X122525Y45800
X123525Y45800
X124525Y45800
X125525Y45800
X126525Y45800
X129475Y43550
X129475Y42550
X133525Y40250
X133525Y39250
X134525Y40250
X134525Y39250
X135525Y40250
X135525Y39250
X137575Y40550
X137575Y39400
X138575Y40550
X138575Y39400
X130076Y40868
X130076Y38507
X131849Y40868
X131849Y38507
T06C0.050000
X51763Y2912
X62513Y2912
X16103Y37960
X18267Y37960
X16103Y39613
X18267Y39613
X16103Y41267
X18267Y41267
X16103Y42920
X18267Y42920
X16103Y44574
X18267Y44574
X16103Y46226
X18267Y46226
X16103Y47880
X18267Y47880
X16103Y49533
X18267Y49533
X16103Y51187
X18267Y51187
X16103Y52840
X18267Y52840
X45543Y68310
X47707Y68310
X45543Y69963
X47707Y69963
X45543Y71617
X47707Y71617
X45543Y73270
X47707Y73270
X45543Y74924
X47707Y74924
X45543Y76576
X47707Y76576
X45543Y78230
X47707Y78230
X45543Y79883
X47707Y79883
X45543Y81537
X47707Y81537
X45543Y83190
X47707Y83190
X24950Y64100
X35700Y64100
X4125Y92525
X4125Y81775
X15500Y72900
X26250Y72900
X37625Y92525
X37625Y81775
X81203Y51662
X91953Y51662
X85513Y2912
X96263Y2912
X107065Y72375
X107065Y61625
X118440Y52750
X129190Y52750
X140565Y72375
X140565Y61625
X6735Y51475
X6735Y62225
X45450Y94450
X56200Y94450
X119263Y2912
X130013Y2912
T07C0.061000
X43038Y48012
X43038Y46013
X45038Y48012
X45038Y46013
X48038Y48012
X48038Y46013
X50038Y48012
X50038Y46013
X53537Y43513
X55538Y43513
X57537Y43513
X59538Y43513
X44038Y47012
X49038Y47012
X36585Y27150
X38585Y27150
X36585Y29150
X38585Y29150
X37585Y28150
X66025Y57500
X68025Y57500
X66025Y59500
X68025Y59500
X67025Y58500
X72478Y96762
X72478Y94763
X74478Y96762
X74478Y94763
X77478Y96762
X77478Y94763
X79478Y96762
X79478Y94763
X82977Y92263
X84978Y92263
X86977Y92263
X88978Y92263
X73478Y95762
X78478Y95762
X76788Y48012
X76788Y46013
X78788Y48012
X78788Y46013
X81788Y48012
X81788Y46013
X83788Y48012
X83788Y46013
X87287Y43513
X89288Y43513
X91287Y43513
X93288Y43513
X77788Y47012
X82788Y47012
X110538Y48012
X110538Y46013
X112538Y48012
X112538Y46013
X115538Y48012
X115538Y46013
X117538Y48012
X117538Y46013
X121037Y43513
X123038Y43513
X125037Y43513
X127038Y43513
X111538Y47012
X116538Y47012
T08C0.073000
X14745Y6772
X14745Y4608
X16399Y6772
X16399Y4608
X18051Y6772
X18051Y4608
X19705Y6772
X19705Y4608
X14105Y23618
X15759Y23618
X17411Y23618
X19065Y23618
X21605Y23618
X23259Y23618
X24911Y23618
X26565Y23618
X14105Y25782
X15759Y25782
X17411Y25782
X19065Y25782
X21605Y25782
X23259Y25782
X24911Y25782
X26565Y25782
X33603Y32670
X35767Y32670
X33603Y34324
X35767Y34324
X33603Y35976
X35767Y35976
X33603Y37630
X35767Y37630
X43545Y53968
X45199Y53968
X46851Y53968
X48505Y53968
X51045Y53968
X52699Y53968
X54351Y53968
X56005Y53968
X43545Y56132
X45199Y56132
X46851Y56132
X48505Y56132
X51045Y56132
X52699Y56132
X54351Y56132
X56005Y56132
X63043Y63020
X65207Y63020
X63043Y64674
X65207Y64674
X63043Y66326
X65207Y66326
X63043Y67980
X65207Y67980
X118060Y83272
X118060Y81108
X119714Y83272
X119714Y81108
X121366Y83272
X121366Y81108
X123020Y83272
X123020Y81108
T09C0.079000
X15275Y15500
X19275Y15500
X28985Y22400
X32985Y22400
X35385Y22400
X39385Y22400
X58425Y52750
X62425Y52750
X64825Y52750
X68825Y52750
X118590Y92000
X122590Y92000
T10C0.099000
X2975Y17100
X2975Y2950
X11575Y17100
X11575Y2950
X52538Y44512
X60538Y44512
X63238Y46712
X71838Y46712
X36135Y40850
X36135Y49450
X18091Y36109
X18091Y54691
X65575Y71200
X65575Y79800
X47531Y66459
X47531Y85041
X81978Y93262
X89978Y93262
X92678Y95462
X101278Y95462
X86288Y44512
X94288Y44512
X96988Y46712
X105588Y46712
X106290Y93600
X106290Y79450
X114890Y93600
X114890Y79450
X120038Y44512
X128038Y44512
X130738Y46712
X139338Y46712
T11C0.119000
X17775Y8825
X36900Y8825
X14745Y1733
X19705Y1733
X42625Y43000
X42625Y2500
X72625Y43000
X72625Y2500
X14105Y20743
X19065Y20743
X21605Y20743
X26565Y20743
X38642Y32670
X38642Y37630
X15135Y29220
X34285Y29220
X43545Y51093
X48505Y51093
X51045Y51093
X56005Y51093
X68082Y63020
X68082Y67980
X44575Y59570
X63725Y59570
X6875Y94900
X6875Y73400
X34875Y94900
X34875Y73400
X72065Y91750
X72065Y51250
X102065Y91750
X102065Y51250
X76375Y43000
X76375Y2500
X106375Y43000
X106375Y2500
X109815Y74750
X109815Y53250
X137815Y74750
X137815Y53250
X121090Y85325
X140215Y85325
X118060Y78233
X123020Y78233
X110125Y43000
X110125Y2500
X140125Y43000
X140125Y2500
T12C0.125000
X12685Y55050
X31685Y57550
X42125Y85400
X61125Y87900
T13C0.157000
X54538Y47512
X58537Y47512
X83978Y96262
X87977Y96262
X88288Y47512
X92287Y47512
X122038Y47512
X126037Y47512
M30
