G75*
G70*
%OFA0B0*%
%FSLAX25Y25*%
%IPPOS*%
%LPD*%
%AMOC8*
5,1,8,0,0,1.08239X$1,22.5*
%
%ADD102C,0.00000*%
%ADD104C,0.00591*%
%ADD121C,0.00394*%
%ADD61C,0.01500*%
X0010000Y0010000D02*
G01*
D104*
D61*
X0296900Y0407500D02*
X0010000Y0407500D01*
X0296900Y0010000D02*
X0296900Y0407500D01*
X0010000Y0010000D02*
X0296900Y0010000D01*
X0010000Y0010000D02*
X0010000Y0407500D01*
X0010000Y0415000D02*
G01*
D104*
D121*
X0095000Y0480000D02*
X0010000Y0480000D01*
X0095000Y0415000D02*
X0095000Y0480000D01*
X0010000Y0415000D02*
X0095000Y0415000D01*
X0010000Y0415000D02*
X0010000Y0480000D01*
X0304400Y0010000D02*
G01*
D104*
D61*
X0634400Y0490000D02*
X0304400Y0490000D01*
X0634400Y0010000D02*
X0634400Y0490000D01*
X0304400Y0010000D02*
X0634400Y0010000D01*
X0304400Y0490000D02*
X0304400Y0010000D01*
X0641900Y0010000D02*
G01*
D104*
D61*
X0971900Y0490000D02*
X0641900Y0490000D01*
X0971900Y0010000D02*
X0971900Y0490000D01*
X0641900Y0010000D02*
X0971900Y0010000D01*
X0641900Y0490000D02*
X0641900Y0010000D01*
X0979400Y0010000D02*
G01*
D104*
X0979400Y0010000D02*
X0979400Y0186500D01*
X1373150Y0010000D02*
X0979400Y0010000D01*
X1373150Y0186500D02*
X1373150Y0010000D01*
X0979400Y0186500D02*
X1373150Y0186500D01*
X0010000Y0487500D02*
G01*
D102*
D61*
X0010000Y0582500D02*
X0230000Y0582500D01*
X0010000Y0782500D02*
X0230000Y0782500D01*
X0010000Y0877500D02*
X0010000Y0782500D01*
X0280000Y0877500D02*
X0010000Y0877500D01*
X0280000Y0487500D02*
X0280000Y0877500D01*
X0010000Y0487500D02*
X0280000Y0487500D01*
X0010000Y0487500D02*
X0010000Y0582500D01*
X0230000Y0582500D02*
X0230000Y0782500D01*
X0979400Y0194000D02*
G01*
D104*
D61*
X1266300Y0591500D02*
X0979400Y0591500D01*
X1266300Y0194000D02*
X1266300Y0591500D01*
X0979400Y0194000D02*
X1266300Y0194000D01*
X0979400Y0194000D02*
X0979400Y0591500D01*
X1273800Y0194000D02*
G01*
D104*
D121*
X1338800Y0194000D02*
X1338800Y0279000D01*
X1273800Y0194000D02*
X1338800Y0194000D01*
X1273800Y0279000D02*
X1273800Y0194000D01*
X1273800Y0279000D02*
X1338800Y0279000D01*
X1346300Y0194000D02*
G01*
D104*
D61*
X1438800Y0194000D02*
X1346300Y0194000D01*
X1438800Y0391500D02*
X1438800Y0194000D01*
X1346300Y0391500D02*
X1438800Y0391500D01*
X1346300Y0194000D02*
X1346300Y0391500D01*
X0641900Y0497500D02*
G01*
D104*
D61*
X0971900Y0977500D02*
X0641900Y0977500D01*
X0971900Y0497500D02*
X0971900Y0977500D01*
X0641900Y0497500D02*
X0971900Y0497500D01*
X0641900Y0977500D02*
X0641900Y0497500D01*
X0010000Y0885000D02*
G01*
D104*
D121*
X0075000Y0885000D02*
X0075000Y0970000D01*
X0010000Y0885000D02*
X0075000Y0885000D01*
X0010000Y0970000D02*
X0010000Y0885000D01*
X0010000Y0970000D02*
X0075000Y0970000D01*
X0304400Y0497500D02*
G01*
D104*
D61*
X0634400Y0977500D02*
X0304400Y0977500D01*
X0634400Y0497500D02*
X0634400Y0977500D01*
X0304400Y0497500D02*
X0634400Y0497500D01*
X0304400Y0977500D02*
X0304400Y0497500D01*
X0979400Y0599000D02*
G01*
D104*
X1155900Y0599000D02*
X0979400Y0599000D01*
X1155900Y0992750D02*
X1155900Y0599000D01*
X0979400Y0992750D02*
X1155900Y0992750D01*
X0979400Y0599000D02*
X0979400Y0992750D01*
X1273800Y0286500D02*
G01*
D104*
D121*
X1338800Y0286500D02*
X1338800Y0371500D01*
X1273800Y0286500D02*
X1338800Y0286500D01*
X1273800Y0371500D02*
X1273800Y0286500D01*
X1273800Y0371500D02*
X1338800Y0371500D01*
X0082500Y0885000D02*
G01*
D104*
D61*
X0082500Y0885000D02*
X0082500Y0977500D01*
X0280000Y0885000D02*
X0082500Y0885000D01*
X0280000Y0977500D02*
X0280000Y0885000D01*
X0082500Y0977500D02*
X0280000Y0977500D01*
X1273800Y0399000D02*
G01*
D104*
D61*
X1366300Y0399000D02*
X1273800Y0399000D01*
X1366300Y0596500D02*
X1366300Y0399000D01*
X1273800Y0596500D02*
X1366300Y0596500D01*
X1273800Y0399000D02*
X1273800Y0596500D01*
X1163400Y0604000D02*
G01*
D102*
D61*
X1163400Y0699000D02*
X1383400Y0699000D01*
X1163400Y0899000D02*
X1383400Y0899000D01*
X1163400Y0994000D02*
X1163400Y0899000D01*
X1433400Y0994000D02*
X1163400Y0994000D01*
X1433400Y0604000D02*
X1433400Y0994000D01*
X1163400Y0604000D02*
X1433400Y0604000D01*
X1163400Y0604000D02*
X1163400Y0699000D01*
X1383400Y0699000D02*
X1383400Y0899000D01*
M02*
