G75*
G70*
%OFA0B0*%
%FSLAX25Y25*%
%IPPOS*%
%LPD*%
%AMOC8*
5,1,8,0,0,1.08239X$1,22.5*
%
%ADD100R,0.02000X0.04500*%
%ADD104C,0.00591*%
%ADD113R,0.03940X0.03150*%
%ADD115R,0.08000X0.06000*%
%ADD117R,0.07090X0.06290*%
%ADD130R,0.04500X0.02000*%
%ADD137R,0.05000X0.02000*%
%ADD32R,0.14760X0.10040*%
%ADD36R,0.02360X0.05510*%
%ADD37R,0.01500X0.05000*%
%ADD81R,0.03000X0.05000*%
%ADD85R,0.06000X0.08000*%
%ADD89R,0.03150X0.03940*%
%ADD90R,0.06290X0.07090*%
X0010000Y0010000D02*
G01*
D104*
D36*
X0233250Y0078500D03*
X0233250Y0099500D03*
X0228250Y0078500D03*
X0223250Y0078500D03*
X0218250Y0078500D03*
X0228250Y0099500D03*
X0223250Y0099500D03*
X0218250Y0099500D03*
D100*
X0295250Y0025500D03*
X0300250Y0025500D03*
X0305250Y0025500D03*
X0310250Y0025500D03*
X0315250Y0025500D03*
X0320250Y0025500D03*
X0325250Y0025500D03*
X0325250Y0046500D03*
X0320250Y0046500D03*
X0315250Y0046500D03*
X0310250Y0046500D03*
X0305250Y0046500D03*
X0300250Y0046500D03*
X0295250Y0046500D03*
D115*
X0258850Y0165300D03*
X0258850Y0178300D03*
D85*
X0230250Y0110000D03*
X0243250Y0110000D03*
X0254250Y0099000D03*
X0241250Y0099000D03*
D115*
X0242900Y0076750D03*
X0242900Y0089750D03*
D37*
X0390890Y0109200D03*
X0388330Y0109200D03*
X0385770Y0109200D03*
X0383210Y0109200D03*
X0383210Y0092200D03*
X0385770Y0092200D03*
X0388330Y0092200D03*
X0390890Y0092200D03*
D115*
X0327650Y0177800D03*
X0327650Y0164800D03*
D85*
X0024250Y0062200D03*
X0037250Y0062200D03*
D90*
X0024060Y0052000D03*
X0035240Y0052000D03*
D100*
X0394150Y0069500D03*
X0389150Y0069500D03*
X0384150Y0069500D03*
X0379150Y0069500D03*
X0374150Y0069500D03*
X0369150Y0069500D03*
X0364150Y0069500D03*
X0364150Y0048500D03*
X0369150Y0048500D03*
X0374150Y0048500D03*
X0379150Y0048500D03*
X0384150Y0048500D03*
X0389150Y0048500D03*
X0394150Y0048500D03*
X0255150Y0051000D03*
X0260150Y0051000D03*
X0265150Y0051000D03*
X0270150Y0051000D03*
X0275150Y0051000D03*
X0280150Y0051000D03*
X0285150Y0051000D03*
X0285150Y0072000D03*
X0280150Y0072000D03*
X0275150Y0072000D03*
X0270150Y0072000D03*
X0265150Y0072000D03*
X0260150Y0072000D03*
X0255150Y0072000D03*
D81*
X0353050Y0103000D03*
X0348050Y0103000D03*
X0343050Y0103000D03*
X0338050Y0103000D03*
X0333050Y0103000D03*
X0328050Y0103000D03*
X0323050Y0103000D03*
X0318050Y0103000D03*
X0313050Y0103000D03*
X0308050Y0103000D03*
X0303050Y0103000D03*
X0298050Y0103000D03*
X0353050Y0065000D03*
X0348050Y0065000D03*
X0343050Y0065000D03*
X0338050Y0065000D03*
X0333050Y0065000D03*
X0328050Y0065000D03*
X0323050Y0065000D03*
X0318050Y0065000D03*
X0313050Y0065000D03*
X0308050Y0065000D03*
X0303050Y0065000D03*
X0298050Y0065000D03*
D36*
X0338950Y0046500D03*
X0338950Y0025500D03*
X0343950Y0046500D03*
X0348950Y0046500D03*
X0353950Y0046500D03*
X0343950Y0025500D03*
X0348950Y0025500D03*
X0353950Y0025500D03*
D85*
X0387950Y0166500D03*
X0374950Y0166500D03*
D115*
X0317350Y0164800D03*
X0317350Y0177800D03*
X0276350Y0028100D03*
X0276350Y0041100D03*
X0233950Y0034800D03*
X0233950Y0047800D03*
X0265950Y0028100D03*
X0265950Y0041100D03*
X0255550Y0028100D03*
X0255550Y0041100D03*
D85*
X0274950Y0084700D03*
X0287950Y0084700D03*
X0266750Y0084700D03*
X0253750Y0084700D03*
D89*
X0274850Y0099470D03*
X0271100Y0108130D03*
X0278600Y0108130D03*
D100*
X0123150Y0090000D03*
X0128150Y0090000D03*
X0133150Y0090000D03*
X0138150Y0090000D03*
X0143150Y0090000D03*
X0148150Y0090000D03*
X0153150Y0090000D03*
X0153150Y0111000D03*
X0148150Y0111000D03*
X0143150Y0111000D03*
X0138150Y0111000D03*
X0133150Y0111000D03*
X0128150Y0111000D03*
X0123150Y0111000D03*
D85*
X0118900Y0123550D03*
X0131900Y0123550D03*
X0071450Y0061000D03*
X0084450Y0061000D03*
X0071350Y0050400D03*
X0084350Y0050400D03*
D90*
X0094960Y0060400D03*
X0106140Y0060400D03*
X0094910Y0050950D03*
X0106090Y0050950D03*
D115*
X0112050Y0097900D03*
X0112050Y0110900D03*
X0397030Y0166840D03*
X0397030Y0153840D03*
X0398630Y0094040D03*
X0398630Y0107040D03*
D85*
X0384900Y0040700D03*
X0397900Y0040700D03*
X0210500Y0103450D03*
X0197500Y0103450D03*
X0217350Y0070350D03*
X0230350Y0070350D03*
X0312100Y0017050D03*
X0299100Y0017050D03*
D115*
X0245200Y0053450D03*
X0245200Y0066450D03*
X0360850Y0020400D03*
X0360850Y0033400D03*
X0010000Y0194000D02*
G01*
D104*
D100*
X0055000Y0234000D03*
X0060000Y0234000D03*
X0065000Y0234000D03*
X0070000Y0234000D03*
X0070000Y0209000D03*
X0065000Y0209000D03*
X0060000Y0209000D03*
X0055000Y0209000D03*
D85*
X0031000Y0216500D03*
X0044000Y0216500D03*
X0031000Y0226500D03*
X0044000Y0226500D03*
X0044000Y0236500D03*
X0031000Y0236500D03*
X0031000Y0206500D03*
X0044000Y0206500D03*
X0069000Y0261500D03*
X0056000Y0261500D03*
X0044000Y0271500D03*
X0031000Y0271500D03*
X0056000Y0271500D03*
X0069000Y0271500D03*
X0044000Y0261500D03*
X0031000Y0261500D03*
X0411250Y0010000D02*
G01*
D104*
D115*
X0451870Y0354630D03*
X0451870Y0341630D03*
X0466870Y0271630D03*
X0466870Y0284630D03*
X0451870Y0144630D03*
X0451870Y0131630D03*
X0436870Y0144630D03*
X0436870Y0131630D03*
X0526870Y0271630D03*
X0526870Y0284630D03*
X0526870Y0201630D03*
X0526870Y0214630D03*
X0496870Y0144630D03*
X0496870Y0131630D03*
X0436870Y0284630D03*
X0436870Y0271630D03*
X0466870Y0131630D03*
X0466870Y0144630D03*
X0466870Y0201630D03*
X0466870Y0214630D03*
X0436870Y0354630D03*
X0436870Y0341630D03*
X0691870Y0214630D03*
X0691870Y0201630D03*
X0691870Y0284630D03*
X0691870Y0271630D03*
X0436870Y0214630D03*
X0436870Y0201630D03*
X0451870Y0284630D03*
X0451870Y0271630D03*
X0451870Y0214630D03*
X0451870Y0201630D03*
X0511870Y0214630D03*
X0511870Y0201630D03*
X0571870Y0214630D03*
X0571870Y0201630D03*
X0571870Y0284630D03*
X0571870Y0271630D03*
X0631870Y0284630D03*
X0631870Y0271630D03*
X0631870Y0214630D03*
X0631870Y0201630D03*
X0511870Y0284630D03*
X0511870Y0271630D03*
X0571870Y0354630D03*
X0571870Y0341630D03*
X0556870Y0144630D03*
X0556870Y0131630D03*
X0646870Y0201630D03*
X0646870Y0214630D03*
X0646870Y0271630D03*
X0646870Y0284630D03*
X0646870Y0341630D03*
X0646870Y0354630D03*
X0676870Y0354630D03*
X0676870Y0341630D03*
X0706870Y0131130D03*
X0706870Y0144130D03*
X0676870Y0284630D03*
X0676870Y0271630D03*
X0691870Y0144130D03*
X0691870Y0131130D03*
X0616870Y0284630D03*
X0616870Y0271630D03*
X0616870Y0214630D03*
X0616870Y0201630D03*
X0586870Y0341630D03*
X0586870Y0354630D03*
X0586870Y0201630D03*
X0586870Y0214630D03*
X0631870Y0144630D03*
X0631870Y0131630D03*
X0616870Y0144630D03*
X0616870Y0131630D03*
X0586870Y0271630D03*
X0586870Y0284630D03*
X0616870Y0354630D03*
X0616870Y0341630D03*
X0646870Y0131630D03*
X0646870Y0144630D03*
X0631870Y0354630D03*
X0631870Y0341630D03*
X0676870Y0214630D03*
X0676870Y0201630D03*
X0691870Y0354630D03*
X0691870Y0341630D03*
X0676870Y0144130D03*
X0676870Y0131130D03*
X0706870Y0201630D03*
X0706870Y0214630D03*
X0706870Y0341630D03*
X0706870Y0354630D03*
X0706870Y0271630D03*
X0706870Y0284630D03*
X0511870Y0144630D03*
X0511870Y0131630D03*
X0496870Y0354630D03*
X0496870Y0341630D03*
X0466870Y0341630D03*
X0466870Y0354630D03*
X0571870Y0144630D03*
X0571870Y0131630D03*
X0556870Y0284630D03*
X0556870Y0271630D03*
X0496870Y0214630D03*
X0496870Y0201630D03*
X0496870Y0284630D03*
X0496870Y0271630D03*
X0511870Y0354630D03*
X0511870Y0341630D03*
X0586870Y0131630D03*
X0586870Y0144630D03*
X0556870Y0214630D03*
X0556870Y0201630D03*
X0556870Y0354630D03*
X0556870Y0341630D03*
X0526870Y0341630D03*
X0526870Y0354630D03*
X0526870Y0131630D03*
X0526870Y0144630D03*
D85*
X0526870Y0328130D03*
X0516870Y0328130D03*
X0506870Y0328130D03*
X0496870Y0328130D03*
X0496870Y0298130D03*
X0506870Y0298130D03*
X0516870Y0298130D03*
X0526870Y0298130D03*
X0466870Y0188130D03*
X0456870Y0188130D03*
X0446870Y0188130D03*
X0436870Y0188130D03*
X0436870Y0158130D03*
X0446870Y0158130D03*
X0456870Y0158130D03*
X0466870Y0158130D03*
X0586870Y0118130D03*
X0576870Y0118130D03*
X0566870Y0118130D03*
X0556870Y0118130D03*
X0556870Y0088130D03*
X0566870Y0088130D03*
X0576870Y0088130D03*
X0586870Y0088130D03*
X0646870Y0328130D03*
X0636870Y0328130D03*
X0626870Y0328130D03*
X0616870Y0328130D03*
X0616870Y0298130D03*
X0626870Y0298130D03*
X0636870Y0298130D03*
X0646870Y0298130D03*
X0586870Y0328130D03*
X0576870Y0328130D03*
X0566870Y0328130D03*
X0556870Y0328130D03*
X0556870Y0298130D03*
X0566870Y0298130D03*
X0576870Y0298130D03*
X0586870Y0298130D03*
X0466870Y0258130D03*
X0456870Y0258130D03*
X0446870Y0258130D03*
X0436870Y0258130D03*
X0436870Y0228130D03*
X0446870Y0228130D03*
X0456870Y0228130D03*
X0466870Y0228130D03*
X0586870Y0188130D03*
X0576870Y0188130D03*
X0566870Y0188130D03*
X0556870Y0188130D03*
X0556870Y0158130D03*
X0566870Y0158130D03*
X0576870Y0158130D03*
X0586870Y0158130D03*
X0466870Y0328130D03*
X0456870Y0328130D03*
X0446870Y0328130D03*
X0436870Y0328130D03*
X0436870Y0298130D03*
X0446870Y0298130D03*
X0456870Y0298130D03*
X0466870Y0298130D03*
X0646870Y0188130D03*
X0636870Y0188130D03*
X0626870Y0188130D03*
X0616870Y0188130D03*
X0616870Y0158130D03*
X0626870Y0158130D03*
X0636870Y0158130D03*
X0646870Y0158130D03*
X0646870Y0118130D03*
X0636870Y0118130D03*
X0626870Y0118130D03*
X0616870Y0118130D03*
X0616870Y0088130D03*
X0626870Y0088130D03*
X0636870Y0088130D03*
X0646870Y0088130D03*
X0706870Y0118130D03*
X0696870Y0118130D03*
X0686870Y0118130D03*
X0676870Y0118130D03*
X0676870Y0088130D03*
X0686870Y0088130D03*
X0696870Y0088130D03*
X0706870Y0088130D03*
X0646870Y0258130D03*
X0636870Y0258130D03*
X0626870Y0258130D03*
X0616870Y0258130D03*
X0616870Y0228130D03*
X0626870Y0228130D03*
X0636870Y0228130D03*
X0646870Y0228130D03*
X0526870Y0188130D03*
X0516870Y0188130D03*
X0506870Y0188130D03*
X0496870Y0188130D03*
X0496870Y0158130D03*
X0506870Y0158130D03*
X0516870Y0158130D03*
X0526870Y0158130D03*
X0706870Y0328130D03*
X0696870Y0328130D03*
X0686870Y0328130D03*
X0676870Y0328130D03*
X0676870Y0298130D03*
X0686870Y0298130D03*
X0696870Y0298130D03*
X0706870Y0298130D03*
X0526870Y0258130D03*
X0516870Y0258130D03*
X0506870Y0258130D03*
X0496870Y0258130D03*
X0496870Y0228130D03*
X0506870Y0228130D03*
X0516870Y0228130D03*
X0526870Y0228130D03*
X0706870Y0258130D03*
X0696870Y0258130D03*
X0686870Y0258130D03*
X0676870Y0258130D03*
X0676870Y0228130D03*
X0686870Y0228130D03*
X0696870Y0228130D03*
X0706870Y0228130D03*
X0526870Y0118130D03*
X0516870Y0118130D03*
X0506870Y0118130D03*
X0496870Y0118130D03*
X0496870Y0088130D03*
X0506870Y0088130D03*
X0516870Y0088130D03*
X0526870Y0088130D03*
X0706870Y0188130D03*
X0696870Y0188130D03*
X0686870Y0188130D03*
X0676870Y0188130D03*
X0676870Y0158130D03*
X0686870Y0158130D03*
X0696870Y0158130D03*
X0706870Y0158130D03*
X0586870Y0258130D03*
X0576870Y0258130D03*
X0566870Y0258130D03*
X0556870Y0258130D03*
X0556870Y0228130D03*
X0566870Y0228130D03*
X0576870Y0228130D03*
X0586870Y0228130D03*
X0466870Y0118130D03*
X0456870Y0118130D03*
X0446870Y0118130D03*
X0436870Y0118130D03*
X0436870Y0088130D03*
X0446870Y0088130D03*
X0456870Y0088130D03*
X0466870Y0088130D03*
X0501870Y0445130D03*
X0488870Y0445130D03*
X0699000Y0378000D03*
X0712000Y0378000D03*
D32*
X0436870Y0401510D03*
X0436870Y0380250D03*
D100*
X0672250Y0447000D03*
X0667250Y0447000D03*
X0662250Y0447000D03*
X0657250Y0447000D03*
X0652250Y0447000D03*
X0647250Y0447000D03*
X0642250Y0447000D03*
X0642250Y0426000D03*
X0647250Y0426000D03*
X0652250Y0426000D03*
X0657250Y0426000D03*
X0662250Y0426000D03*
X0667250Y0426000D03*
X0672250Y0426000D03*
D115*
X0632250Y0424000D03*
X0632250Y0437000D03*
D90*
X0708840Y0437500D03*
X0697660Y0437500D03*
X0708840Y0427500D03*
X0697660Y0427500D03*
D115*
X0513550Y0458100D03*
X0513550Y0445100D03*
X0542150Y0346700D03*
X0542150Y0333700D03*
X0464250Y0417000D03*
X0464250Y0430000D03*
D85*
X0449750Y0383500D03*
X0462750Y0383500D03*
X0717750Y0366500D03*
X0730750Y0366500D03*
D115*
X0662100Y0346600D03*
X0662100Y0333600D03*
D85*
X0449750Y0397000D03*
X0462750Y0397000D03*
D115*
X0601650Y0346700D03*
X0601650Y0333700D03*
X0482300Y0346850D03*
X0482300Y0333850D03*
D90*
X0708840Y0417500D03*
X0697660Y0417500D03*
X0708840Y0447500D03*
X0697660Y0447500D03*
X0116850Y0194000D02*
G01*
D104*
D115*
X0278700Y0504520D03*
X0278700Y0517520D03*
X0266700Y0504520D03*
X0266700Y0517520D03*
X0240100Y0505500D03*
X0240100Y0518500D03*
X0251600Y0505500D03*
X0251600Y0518500D03*
D85*
X0152850Y0339000D03*
X0165850Y0339000D03*
D115*
X0274350Y0347500D03*
X0274350Y0334500D03*
X0264350Y0334500D03*
X0264350Y0347500D03*
D85*
X0152850Y0349000D03*
X0165850Y0349000D03*
D115*
X0294350Y0334500D03*
X0294350Y0347500D03*
X0284350Y0334500D03*
X0284350Y0347500D03*
D85*
X0152850Y0359000D03*
X0165850Y0359000D03*
D115*
X0241850Y0334500D03*
X0241850Y0347500D03*
X0208350Y0398500D03*
X0208350Y0411500D03*
X0221850Y0334500D03*
X0221850Y0347500D03*
D85*
X0152850Y0319000D03*
X0165850Y0319000D03*
D115*
X0199350Y0334500D03*
X0199350Y0347500D03*
D85*
X0332600Y0276750D03*
X0345600Y0276750D03*
D117*
X0208350Y0420160D03*
X0208350Y0431340D03*
D115*
X0309350Y0267500D03*
X0309350Y0280500D03*
D117*
X0197350Y0420160D03*
X0197350Y0431340D03*
D115*
X0197350Y0398500D03*
X0197350Y0411500D03*
D130*
X0247850Y0358500D03*
X0247850Y0363500D03*
X0247850Y0368500D03*
X0247850Y0373500D03*
X0247850Y0378500D03*
X0247850Y0383500D03*
X0247850Y0388500D03*
X0226850Y0388500D03*
X0226850Y0383500D03*
X0226850Y0378500D03*
X0226850Y0373500D03*
X0226850Y0368500D03*
X0226850Y0363500D03*
X0226850Y0358500D03*
D85*
X0179350Y0293500D03*
X0189350Y0293500D03*
X0199350Y0293500D03*
X0209350Y0293500D03*
X0209350Y0323500D03*
X0199350Y0323500D03*
X0189350Y0323500D03*
X0179350Y0323500D03*
X0221850Y0293500D03*
X0231850Y0293500D03*
X0241850Y0293500D03*
X0251850Y0293500D03*
X0251850Y0323500D03*
X0241850Y0323500D03*
X0231850Y0323500D03*
X0221850Y0323500D03*
X0264350Y0293500D03*
X0274350Y0293500D03*
X0284350Y0293500D03*
X0294350Y0293500D03*
X0294350Y0323500D03*
X0284350Y0323500D03*
X0274350Y0323500D03*
X0264350Y0323500D03*
X0152850Y0329000D03*
X0165850Y0329000D03*
D115*
X0215100Y0386300D03*
X0215100Y0373300D03*
X0204650Y0373300D03*
X0204650Y0386300D03*
X0251850Y0347500D03*
X0251850Y0334500D03*
D85*
X0152850Y0309000D03*
X0165850Y0309000D03*
D115*
X0179350Y0334500D03*
X0179350Y0347500D03*
D85*
X0323350Y0296500D03*
X0310350Y0296500D03*
D115*
X0267050Y0369150D03*
X0267050Y0356150D03*
D85*
X0218950Y0362800D03*
X0205950Y0362800D03*
D115*
X0226820Y0545620D03*
X0226820Y0532620D03*
X0226820Y0510970D03*
X0226820Y0523970D03*
D85*
X0227100Y0501500D03*
X0214100Y0501500D03*
D130*
X0215770Y0515460D03*
X0215770Y0520460D03*
X0215770Y0525460D03*
X0215770Y0530460D03*
X0215770Y0535460D03*
X0215770Y0540460D03*
X0215770Y0545460D03*
X0194770Y0545460D03*
X0194770Y0540460D03*
X0194770Y0535460D03*
X0194770Y0530460D03*
X0194770Y0525460D03*
X0194770Y0520460D03*
X0194770Y0515460D03*
X0247600Y0398250D03*
X0247600Y0403250D03*
X0247600Y0408250D03*
X0247600Y0413250D03*
X0247600Y0418250D03*
X0247600Y0423250D03*
X0247600Y0428250D03*
X0226600Y0428250D03*
X0226600Y0423250D03*
X0226600Y0418250D03*
X0226600Y0413250D03*
X0226600Y0408250D03*
X0226600Y0403250D03*
X0226600Y0398250D03*
D115*
X0144100Y0454750D03*
X0144100Y0441750D03*
D113*
X0269120Y0533300D03*
X0277780Y0537050D03*
X0277780Y0529550D03*
X0242420Y0540700D03*
X0251080Y0544450D03*
X0251080Y0536950D03*
D89*
X0200600Y0486030D03*
X0204350Y0477370D03*
X0196850Y0477370D03*
D85*
X0339900Y0583300D03*
X0352900Y0583300D03*
X0365550Y0519600D03*
X0352550Y0519600D03*
X0330750Y0519600D03*
X0343750Y0519600D03*
D137*
X0330450Y0573900D03*
X0330450Y0568900D03*
X0330450Y0563900D03*
X0330450Y0558900D03*
X0330450Y0553900D03*
X0330450Y0548900D03*
X0330450Y0543900D03*
X0330450Y0538900D03*
X0330450Y0533900D03*
X0330450Y0528900D03*
X0368450Y0528900D03*
X0368450Y0533900D03*
X0368450Y0538900D03*
X0368450Y0543900D03*
X0368450Y0548900D03*
X0368450Y0553900D03*
X0368450Y0558900D03*
X0368450Y0563900D03*
X0368450Y0568900D03*
X0368450Y0573900D03*
D115*
X0328550Y0504200D03*
X0328550Y0491200D03*
X0256600Y0364550D03*
X0256600Y0377550D03*
X0194150Y0378400D03*
X0194150Y0365400D03*
X0218350Y0398550D03*
X0218350Y0411550D03*
X0195650Y0506900D03*
X0195650Y0493900D03*
X0411250Y0497500D02*
G01*
D104*
D115*
X0573100Y0808020D03*
X0573100Y0821020D03*
X0561100Y0808020D03*
X0561100Y0821020D03*
X0534500Y0809000D03*
X0534500Y0822000D03*
X0546000Y0809000D03*
X0546000Y0822000D03*
D85*
X0447250Y0642500D03*
X0460250Y0642500D03*
D115*
X0568750Y0651000D03*
X0568750Y0638000D03*
X0558750Y0638000D03*
X0558750Y0651000D03*
D85*
X0447250Y0652500D03*
X0460250Y0652500D03*
D115*
X0588750Y0638000D03*
X0588750Y0651000D03*
X0578750Y0638000D03*
X0578750Y0651000D03*
D85*
X0447250Y0662500D03*
X0460250Y0662500D03*
D115*
X0536250Y0638000D03*
X0536250Y0651000D03*
X0502750Y0702000D03*
X0502750Y0715000D03*
X0516250Y0638000D03*
X0516250Y0651000D03*
D85*
X0447250Y0622500D03*
X0460250Y0622500D03*
D115*
X0493750Y0638000D03*
X0493750Y0651000D03*
D85*
X0627000Y0580250D03*
X0640000Y0580250D03*
D117*
X0502750Y0723660D03*
X0502750Y0734840D03*
D115*
X0603750Y0571000D03*
X0603750Y0584000D03*
D117*
X0491750Y0723660D03*
X0491750Y0734840D03*
D115*
X0491750Y0702000D03*
X0491750Y0715000D03*
D130*
X0542250Y0662000D03*
X0542250Y0667000D03*
X0542250Y0672000D03*
X0542250Y0677000D03*
X0542250Y0682000D03*
X0542250Y0687000D03*
X0542250Y0692000D03*
X0521250Y0692000D03*
X0521250Y0687000D03*
X0521250Y0682000D03*
X0521250Y0677000D03*
X0521250Y0672000D03*
X0521250Y0667000D03*
X0521250Y0662000D03*
D85*
X0473750Y0597000D03*
X0483750Y0597000D03*
X0493750Y0597000D03*
X0503750Y0597000D03*
X0503750Y0627000D03*
X0493750Y0627000D03*
X0483750Y0627000D03*
X0473750Y0627000D03*
X0516250Y0597000D03*
X0526250Y0597000D03*
X0536250Y0597000D03*
X0546250Y0597000D03*
X0546250Y0627000D03*
X0536250Y0627000D03*
X0526250Y0627000D03*
X0516250Y0627000D03*
X0558750Y0597000D03*
X0568750Y0597000D03*
X0578750Y0597000D03*
X0588750Y0597000D03*
X0588750Y0627000D03*
X0578750Y0627000D03*
X0568750Y0627000D03*
X0558750Y0627000D03*
X0447250Y0632500D03*
X0460250Y0632500D03*
D115*
X0509500Y0689800D03*
X0509500Y0676800D03*
X0499050Y0676800D03*
X0499050Y0689800D03*
X0546250Y0651000D03*
X0546250Y0638000D03*
D85*
X0447250Y0612500D03*
X0460250Y0612500D03*
D115*
X0473750Y0638000D03*
X0473750Y0651000D03*
D85*
X0617750Y0600000D03*
X0604750Y0600000D03*
D115*
X0561450Y0672650D03*
X0561450Y0659650D03*
D85*
X0513350Y0666300D03*
X0500350Y0666300D03*
D115*
X0521220Y0849120D03*
X0521220Y0836120D03*
X0521220Y0814470D03*
X0521220Y0827470D03*
D85*
X0521500Y0805000D03*
X0508500Y0805000D03*
D130*
X0510170Y0818960D03*
X0510170Y0823960D03*
X0510170Y0828960D03*
X0510170Y0833960D03*
X0510170Y0838960D03*
X0510170Y0843960D03*
X0510170Y0848960D03*
X0489170Y0848960D03*
X0489170Y0843960D03*
X0489170Y0838960D03*
X0489170Y0833960D03*
X0489170Y0828960D03*
X0489170Y0823960D03*
X0489170Y0818960D03*
X0542000Y0701750D03*
X0542000Y0706750D03*
X0542000Y0711750D03*
X0542000Y0716750D03*
X0542000Y0721750D03*
X0542000Y0726750D03*
X0542000Y0731750D03*
X0521000Y0731750D03*
X0521000Y0726750D03*
X0521000Y0721750D03*
X0521000Y0716750D03*
X0521000Y0711750D03*
X0521000Y0706750D03*
X0521000Y0701750D03*
D115*
X0438500Y0758250D03*
X0438500Y0745250D03*
D113*
X0563520Y0836800D03*
X0572180Y0840550D03*
X0572180Y0833050D03*
X0536820Y0844200D03*
X0545480Y0847950D03*
X0545480Y0840450D03*
D89*
X0495000Y0789530D03*
X0498750Y0780870D03*
X0491250Y0780870D03*
D85*
X0634300Y0886800D03*
X0647300Y0886800D03*
X0659950Y0823100D03*
X0646950Y0823100D03*
X0625150Y0823100D03*
X0638150Y0823100D03*
D137*
X0624850Y0877400D03*
X0624850Y0872400D03*
X0624850Y0867400D03*
X0624850Y0862400D03*
X0624850Y0857400D03*
X0624850Y0852400D03*
X0624850Y0847400D03*
X0624850Y0842400D03*
X0624850Y0837400D03*
X0624850Y0832400D03*
X0662850Y0832400D03*
X0662850Y0837400D03*
X0662850Y0842400D03*
X0662850Y0847400D03*
X0662850Y0852400D03*
X0662850Y0857400D03*
X0662850Y0862400D03*
X0662850Y0867400D03*
X0662850Y0872400D03*
X0662850Y0877400D03*
D115*
X0622950Y0807700D03*
X0622950Y0794700D03*
X0551000Y0668050D03*
X0551000Y0681050D03*
X0488550Y0681900D03*
X0488550Y0668900D03*
X0512750Y0702050D03*
X0512750Y0715050D03*
X0490050Y0810400D03*
X0490050Y0797400D03*
X0206250Y0599000D02*
G01*
D104*
D115*
X0279750Y0672500D03*
X0279750Y0685500D03*
X0346250Y0672500D03*
X0346250Y0685500D03*
X0345750Y0617000D03*
X0345750Y0604000D03*
X0336750Y0672500D03*
X0336750Y0685500D03*
X0336250Y0617000D03*
X0336250Y0604000D03*
X0327250Y0672500D03*
X0327250Y0685500D03*
X0326750Y0617000D03*
X0326750Y0604000D03*
X0317750Y0672500D03*
X0317750Y0685500D03*
X0317250Y0617000D03*
X0317250Y0604000D03*
X0308250Y0672500D03*
X0308250Y0685500D03*
X0307750Y0617000D03*
X0307750Y0604000D03*
X0298750Y0672500D03*
X0298750Y0685500D03*
X0298250Y0617000D03*
X0298250Y0604000D03*
X0289250Y0672500D03*
X0289250Y0685500D03*
X0288750Y0617000D03*
X0288750Y0604000D03*
X0355250Y0617000D03*
X0355250Y0604000D03*
X0279250Y0617000D03*
X0279250Y0604000D03*
X0270250Y0672500D03*
X0270250Y0685500D03*
X0269750Y0617000D03*
X0269750Y0604000D03*
X0260750Y0672500D03*
X0260750Y0685500D03*
X0260250Y0617000D03*
X0260250Y0604000D03*
X0251250Y0672500D03*
X0251250Y0685500D03*
X0250750Y0617000D03*
X0250750Y0604000D03*
X0241750Y0672500D03*
X0241750Y0685500D03*
X0241250Y0617000D03*
X0241250Y0604000D03*
X0232250Y0672500D03*
X0232250Y0685500D03*
X0231750Y0617000D03*
X0231750Y0604000D03*
X0222750Y0672500D03*
X0222750Y0685500D03*
X0222250Y0617000D03*
X0222250Y0604000D03*
X0213250Y0672500D03*
X0213250Y0685500D03*
X0212750Y0617000D03*
X0212750Y0604000D03*
X0393750Y0672500D03*
X0393750Y0685500D03*
X0393250Y0617000D03*
X0393250Y0604000D03*
X0384250Y0672500D03*
X0384250Y0685500D03*
X0383750Y0617000D03*
X0383750Y0604000D03*
X0374750Y0672500D03*
X0374750Y0685500D03*
X0374250Y0617000D03*
X0374250Y0604000D03*
X0365250Y0672500D03*
X0365250Y0685500D03*
X0364750Y0617000D03*
X0364750Y0604000D03*
X0355750Y0672500D03*
X0355750Y0685500D03*
X0013750Y0699000D02*
G01*
D104*
X0705650Y0497500D02*
G01*
D104*
D115*
X0746270Y0842130D03*
X0746270Y0829130D03*
X0761270Y0759130D03*
X0761270Y0772130D03*
X0746270Y0632130D03*
X0746270Y0619130D03*
X0731270Y0632130D03*
X0731270Y0619130D03*
X0821270Y0759130D03*
X0821270Y0772130D03*
X0821270Y0689130D03*
X0821270Y0702130D03*
X0791270Y0632130D03*
X0791270Y0619130D03*
X0731270Y0772130D03*
X0731270Y0759130D03*
X0761270Y0619130D03*
X0761270Y0632130D03*
X0761270Y0689130D03*
X0761270Y0702130D03*
X0731270Y0842130D03*
X0731270Y0829130D03*
X0986270Y0702130D03*
X0986270Y0689130D03*
X0986270Y0772130D03*
X0986270Y0759130D03*
X0731270Y0702130D03*
X0731270Y0689130D03*
X0746270Y0772130D03*
X0746270Y0759130D03*
X0746270Y0702130D03*
X0746270Y0689130D03*
X0806270Y0702130D03*
X0806270Y0689130D03*
X0866270Y0702130D03*
X0866270Y0689130D03*
X0866270Y0772130D03*
X0866270Y0759130D03*
X0926270Y0772130D03*
X0926270Y0759130D03*
X0926270Y0702130D03*
X0926270Y0689130D03*
X0806270Y0772130D03*
X0806270Y0759130D03*
X0866270Y0842130D03*
X0866270Y0829130D03*
X0851270Y0632130D03*
X0851270Y0619130D03*
X0941270Y0689130D03*
X0941270Y0702130D03*
X0941270Y0759130D03*
X0941270Y0772130D03*
X0941270Y0829130D03*
X0941270Y0842130D03*
X0971270Y0842130D03*
X0971270Y0829130D03*
X1001270Y0618630D03*
X1001270Y0631630D03*
X0971270Y0772130D03*
X0971270Y0759130D03*
X0986270Y0631630D03*
X0986270Y0618630D03*
X0911270Y0772130D03*
X0911270Y0759130D03*
X0911270Y0702130D03*
X0911270Y0689130D03*
X0881270Y0829130D03*
X0881270Y0842130D03*
X0881270Y0689130D03*
X0881270Y0702130D03*
X0926270Y0632130D03*
X0926270Y0619130D03*
X0911270Y0632130D03*
X0911270Y0619130D03*
X0881270Y0759130D03*
X0881270Y0772130D03*
X0911270Y0842130D03*
X0911270Y0829130D03*
X0941270Y0619130D03*
X0941270Y0632130D03*
X0926270Y0842130D03*
X0926270Y0829130D03*
X0971270Y0702130D03*
X0971270Y0689130D03*
X0986270Y0842130D03*
X0986270Y0829130D03*
X0971270Y0631630D03*
X0971270Y0618630D03*
X1001270Y0689130D03*
X1001270Y0702130D03*
X1001270Y0829130D03*
X1001270Y0842130D03*
X1001270Y0759130D03*
X1001270Y0772130D03*
X0806270Y0632130D03*
X0806270Y0619130D03*
X0791270Y0842130D03*
X0791270Y0829130D03*
X0761270Y0829130D03*
X0761270Y0842130D03*
X0866270Y0632130D03*
X0866270Y0619130D03*
X0851270Y0772130D03*
X0851270Y0759130D03*
X0791270Y0702130D03*
X0791270Y0689130D03*
X0791270Y0772130D03*
X0791270Y0759130D03*
X0806270Y0842130D03*
X0806270Y0829130D03*
X0881270Y0619130D03*
X0881270Y0632130D03*
X0851270Y0702130D03*
X0851270Y0689130D03*
X0851270Y0842130D03*
X0851270Y0829130D03*
X0821270Y0829130D03*
X0821270Y0842130D03*
X0821270Y0619130D03*
X0821270Y0632130D03*
D85*
X0821270Y0815630D03*
X0811270Y0815630D03*
X0801270Y0815630D03*
X0791270Y0815630D03*
X0791270Y0785630D03*
X0801270Y0785630D03*
X0811270Y0785630D03*
X0821270Y0785630D03*
X0761270Y0675630D03*
X0751270Y0675630D03*
X0741270Y0675630D03*
X0731270Y0675630D03*
X0731270Y0645630D03*
X0741270Y0645630D03*
X0751270Y0645630D03*
X0761270Y0645630D03*
X0881270Y0605630D03*
X0871270Y0605630D03*
X0861270Y0605630D03*
X0851270Y0605630D03*
X0851270Y0575630D03*
X0861270Y0575630D03*
X0871270Y0575630D03*
X0881270Y0575630D03*
X0941270Y0815630D03*
X0931270Y0815630D03*
X0921270Y0815630D03*
X0911270Y0815630D03*
X0911270Y0785630D03*
X0921270Y0785630D03*
X0931270Y0785630D03*
X0941270Y0785630D03*
X0881270Y0815630D03*
X0871270Y0815630D03*
X0861270Y0815630D03*
X0851270Y0815630D03*
X0851270Y0785630D03*
X0861270Y0785630D03*
X0871270Y0785630D03*
X0881270Y0785630D03*
X0761270Y0745630D03*
X0751270Y0745630D03*
X0741270Y0745630D03*
X0731270Y0745630D03*
X0731270Y0715630D03*
X0741270Y0715630D03*
X0751270Y0715630D03*
X0761270Y0715630D03*
X0881270Y0675630D03*
X0871270Y0675630D03*
X0861270Y0675630D03*
X0851270Y0675630D03*
X0851270Y0645630D03*
X0861270Y0645630D03*
X0871270Y0645630D03*
X0881270Y0645630D03*
X0761270Y0815630D03*
X0751270Y0815630D03*
X0741270Y0815630D03*
X0731270Y0815630D03*
X0731270Y0785630D03*
X0741270Y0785630D03*
X0751270Y0785630D03*
X0761270Y0785630D03*
X0941270Y0675630D03*
X0931270Y0675630D03*
X0921270Y0675630D03*
X0911270Y0675630D03*
X0911270Y0645630D03*
X0921270Y0645630D03*
X0931270Y0645630D03*
X0941270Y0645630D03*
X0941270Y0605630D03*
X0931270Y0605630D03*
X0921270Y0605630D03*
X0911270Y0605630D03*
X0911270Y0575630D03*
X0921270Y0575630D03*
X0931270Y0575630D03*
X0941270Y0575630D03*
X1001270Y0605630D03*
X0991270Y0605630D03*
X0981270Y0605630D03*
X0971270Y0605630D03*
X0971270Y0575630D03*
X0981270Y0575630D03*
X0991270Y0575630D03*
X1001270Y0575630D03*
X0941270Y0745630D03*
X0931270Y0745630D03*
X0921270Y0745630D03*
X0911270Y0745630D03*
X0911270Y0715630D03*
X0921270Y0715630D03*
X0931270Y0715630D03*
X0941270Y0715630D03*
X0821270Y0675630D03*
X0811270Y0675630D03*
X0801270Y0675630D03*
X0791270Y0675630D03*
X0791270Y0645630D03*
X0801270Y0645630D03*
X0811270Y0645630D03*
X0821270Y0645630D03*
X1001270Y0815630D03*
X0991270Y0815630D03*
X0981270Y0815630D03*
X0971270Y0815630D03*
X0971270Y0785630D03*
X0981270Y0785630D03*
X0991270Y0785630D03*
X1001270Y0785630D03*
X0821270Y0745630D03*
X0811270Y0745630D03*
X0801270Y0745630D03*
X0791270Y0745630D03*
X0791270Y0715630D03*
X0801270Y0715630D03*
X0811270Y0715630D03*
X0821270Y0715630D03*
X1001270Y0745630D03*
X0991270Y0745630D03*
X0981270Y0745630D03*
X0971270Y0745630D03*
X0971270Y0715630D03*
X0981270Y0715630D03*
X0991270Y0715630D03*
X1001270Y0715630D03*
X0821270Y0605630D03*
X0811270Y0605630D03*
X0801270Y0605630D03*
X0791270Y0605630D03*
X0791270Y0575630D03*
X0801270Y0575630D03*
X0811270Y0575630D03*
X0821270Y0575630D03*
X1001270Y0675630D03*
X0991270Y0675630D03*
X0981270Y0675630D03*
X0971270Y0675630D03*
X0971270Y0645630D03*
X0981270Y0645630D03*
X0991270Y0645630D03*
X1001270Y0645630D03*
X0881270Y0745630D03*
X0871270Y0745630D03*
X0861270Y0745630D03*
X0851270Y0745630D03*
X0851270Y0715630D03*
X0861270Y0715630D03*
X0871270Y0715630D03*
X0881270Y0715630D03*
X0761270Y0605630D03*
X0751270Y0605630D03*
X0741270Y0605630D03*
X0731270Y0605630D03*
X0731270Y0575630D03*
X0741270Y0575630D03*
X0751270Y0575630D03*
X0761270Y0575630D03*
X0796270Y0932630D03*
X0783270Y0932630D03*
X0993400Y0865500D03*
X1006400Y0865500D03*
D32*
X0731270Y0889010D03*
X0731270Y0867750D03*
D100*
X0966650Y0934500D03*
X0961650Y0934500D03*
X0956650Y0934500D03*
X0951650Y0934500D03*
X0946650Y0934500D03*
X0941650Y0934500D03*
X0936650Y0934500D03*
X0936650Y0913500D03*
X0941650Y0913500D03*
X0946650Y0913500D03*
X0951650Y0913500D03*
X0956650Y0913500D03*
X0961650Y0913500D03*
X0966650Y0913500D03*
D115*
X0926650Y0911500D03*
X0926650Y0924500D03*
D90*
X1003240Y0925000D03*
X0992060Y0925000D03*
X1003240Y0915000D03*
X0992060Y0915000D03*
D115*
X0807950Y0945600D03*
X0807950Y0932600D03*
X0836550Y0834200D03*
X0836550Y0821200D03*
X0758650Y0904500D03*
X0758650Y0917500D03*
D85*
X0744150Y0871000D03*
X0757150Y0871000D03*
X1012150Y0854000D03*
X1025150Y0854000D03*
D115*
X0956500Y0834100D03*
X0956500Y0821100D03*
D85*
X0744150Y0884500D03*
X0757150Y0884500D03*
D115*
X0896050Y0834200D03*
X0896050Y0821200D03*
X0776700Y0834350D03*
X0776700Y0821350D03*
D90*
X1003240Y0905000D03*
X0992060Y0905000D03*
X1003240Y0935000D03*
X0992060Y0935000D03*
X0044350Y0286500D02*
G01*
D104*
D100*
X0089350Y0326500D03*
X0094350Y0326500D03*
X0099350Y0326500D03*
X0104350Y0326500D03*
X0104350Y0301500D03*
X0099350Y0301500D03*
X0094350Y0301500D03*
X0089350Y0301500D03*
D85*
X0065350Y0309000D03*
X0078350Y0309000D03*
X0065350Y0319000D03*
X0078350Y0319000D03*
X0078350Y0329000D03*
X0065350Y0329000D03*
X0065350Y0299000D03*
X0078350Y0299000D03*
X0103350Y0354000D03*
X0090350Y0354000D03*
X0078350Y0364000D03*
X0065350Y0364000D03*
X0090350Y0364000D03*
X0103350Y0364000D03*
X0078350Y0354000D03*
X0065350Y0354000D03*
X0133750Y0599000D02*
G01*
D104*
D100*
X0178750Y0639000D03*
X0183750Y0639000D03*
X0188750Y0639000D03*
X0193750Y0639000D03*
X0193750Y0614000D03*
X0188750Y0614000D03*
X0183750Y0614000D03*
X0178750Y0614000D03*
D85*
X0154750Y0621500D03*
X0167750Y0621500D03*
X0154750Y0631500D03*
X0167750Y0631500D03*
X0167750Y0641500D03*
X0154750Y0641500D03*
X0154750Y0611500D03*
X0167750Y0611500D03*
X0192750Y0666500D03*
X0179750Y0666500D03*
X0167750Y0676500D03*
X0154750Y0676500D03*
X0179750Y0676500D03*
X0192750Y0676500D03*
X0167750Y0666500D03*
X0154750Y0666500D03*
X0748750Y0010000D02*
G01*
D104*
D115*
X0789370Y0354630D03*
X0789370Y0341630D03*
X0804370Y0271630D03*
X0804370Y0284630D03*
X0789370Y0144630D03*
X0789370Y0131630D03*
X0774370Y0144630D03*
X0774370Y0131630D03*
X0864370Y0271630D03*
X0864370Y0284630D03*
X0864370Y0201630D03*
X0864370Y0214630D03*
X0834370Y0144630D03*
X0834370Y0131630D03*
X0774370Y0284630D03*
X0774370Y0271630D03*
X0804370Y0131630D03*
X0804370Y0144630D03*
X0804370Y0201630D03*
X0804370Y0214630D03*
X0774370Y0354630D03*
X0774370Y0341630D03*
X1029370Y0214630D03*
X1029370Y0201630D03*
X1029370Y0284630D03*
X1029370Y0271630D03*
X0774370Y0214630D03*
X0774370Y0201630D03*
X0789370Y0284630D03*
X0789370Y0271630D03*
X0789370Y0214630D03*
X0789370Y0201630D03*
X0849370Y0214630D03*
X0849370Y0201630D03*
X0909370Y0214630D03*
X0909370Y0201630D03*
X0909370Y0284630D03*
X0909370Y0271630D03*
X0969370Y0284630D03*
X0969370Y0271630D03*
X0969370Y0214630D03*
X0969370Y0201630D03*
X0849370Y0284630D03*
X0849370Y0271630D03*
X0909370Y0354630D03*
X0909370Y0341630D03*
X0894370Y0144630D03*
X0894370Y0131630D03*
X0984370Y0201630D03*
X0984370Y0214630D03*
X0984370Y0271630D03*
X0984370Y0284630D03*
X0984370Y0341630D03*
X0984370Y0354630D03*
X1014370Y0354630D03*
X1014370Y0341630D03*
X1044370Y0131130D03*
X1044370Y0144130D03*
X1014370Y0284630D03*
X1014370Y0271630D03*
X1029370Y0144130D03*
X1029370Y0131130D03*
X0954370Y0284630D03*
X0954370Y0271630D03*
X0954370Y0214630D03*
X0954370Y0201630D03*
X0924370Y0341630D03*
X0924370Y0354630D03*
X0924370Y0201630D03*
X0924370Y0214630D03*
X0969370Y0144630D03*
X0969370Y0131630D03*
X0954370Y0144630D03*
X0954370Y0131630D03*
X0924370Y0271630D03*
X0924370Y0284630D03*
X0954370Y0354630D03*
X0954370Y0341630D03*
X0984370Y0131630D03*
X0984370Y0144630D03*
X0969370Y0354630D03*
X0969370Y0341630D03*
X1014370Y0214630D03*
X1014370Y0201630D03*
X1029370Y0354630D03*
X1029370Y0341630D03*
X1014370Y0144130D03*
X1014370Y0131130D03*
X1044370Y0201630D03*
X1044370Y0214630D03*
X1044370Y0341630D03*
X1044370Y0354630D03*
X1044370Y0271630D03*
X1044370Y0284630D03*
X0849370Y0144630D03*
X0849370Y0131630D03*
X0834370Y0354630D03*
X0834370Y0341630D03*
X0804370Y0341630D03*
X0804370Y0354630D03*
X0909370Y0144630D03*
X0909370Y0131630D03*
X0894370Y0284630D03*
X0894370Y0271630D03*
X0834370Y0214630D03*
X0834370Y0201630D03*
X0834370Y0284630D03*
X0834370Y0271630D03*
X0849370Y0354630D03*
X0849370Y0341630D03*
X0924370Y0131630D03*
X0924370Y0144630D03*
X0894370Y0214630D03*
X0894370Y0201630D03*
X0894370Y0354630D03*
X0894370Y0341630D03*
X0864370Y0341630D03*
X0864370Y0354630D03*
X0864370Y0131630D03*
X0864370Y0144630D03*
D85*
X0864370Y0328130D03*
X0854370Y0328130D03*
X0844370Y0328130D03*
X0834370Y0328130D03*
X0834370Y0298130D03*
X0844370Y0298130D03*
X0854370Y0298130D03*
X0864370Y0298130D03*
X0804370Y0188130D03*
X0794370Y0188130D03*
X0784370Y0188130D03*
X0774370Y0188130D03*
X0774370Y0158130D03*
X0784370Y0158130D03*
X0794370Y0158130D03*
X0804370Y0158130D03*
X0924370Y0118130D03*
X0914370Y0118130D03*
X0904370Y0118130D03*
X0894370Y0118130D03*
X0894370Y0088130D03*
X0904370Y0088130D03*
X0914370Y0088130D03*
X0924370Y0088130D03*
X0984370Y0328130D03*
X0974370Y0328130D03*
X0964370Y0328130D03*
X0954370Y0328130D03*
X0954370Y0298130D03*
X0964370Y0298130D03*
X0974370Y0298130D03*
X0984370Y0298130D03*
X0924370Y0328130D03*
X0914370Y0328130D03*
X0904370Y0328130D03*
X0894370Y0328130D03*
X0894370Y0298130D03*
X0904370Y0298130D03*
X0914370Y0298130D03*
X0924370Y0298130D03*
X0804370Y0258130D03*
X0794370Y0258130D03*
X0784370Y0258130D03*
X0774370Y0258130D03*
X0774370Y0228130D03*
X0784370Y0228130D03*
X0794370Y0228130D03*
X0804370Y0228130D03*
X0924370Y0188130D03*
X0914370Y0188130D03*
X0904370Y0188130D03*
X0894370Y0188130D03*
X0894370Y0158130D03*
X0904370Y0158130D03*
X0914370Y0158130D03*
X0924370Y0158130D03*
X0804370Y0328130D03*
X0794370Y0328130D03*
X0784370Y0328130D03*
X0774370Y0328130D03*
X0774370Y0298130D03*
X0784370Y0298130D03*
X0794370Y0298130D03*
X0804370Y0298130D03*
X0984370Y0188130D03*
X0974370Y0188130D03*
X0964370Y0188130D03*
X0954370Y0188130D03*
X0954370Y0158130D03*
X0964370Y0158130D03*
X0974370Y0158130D03*
X0984370Y0158130D03*
X0984370Y0118130D03*
X0974370Y0118130D03*
X0964370Y0118130D03*
X0954370Y0118130D03*
X0954370Y0088130D03*
X0964370Y0088130D03*
X0974370Y0088130D03*
X0984370Y0088130D03*
X1044370Y0118130D03*
X1034370Y0118130D03*
X1024370Y0118130D03*
X1014370Y0118130D03*
X1014370Y0088130D03*
X1024370Y0088130D03*
X1034370Y0088130D03*
X1044370Y0088130D03*
X0984370Y0258130D03*
X0974370Y0258130D03*
X0964370Y0258130D03*
X0954370Y0258130D03*
X0954370Y0228130D03*
X0964370Y0228130D03*
X0974370Y0228130D03*
X0984370Y0228130D03*
X0864370Y0188130D03*
X0854370Y0188130D03*
X0844370Y0188130D03*
X0834370Y0188130D03*
X0834370Y0158130D03*
X0844370Y0158130D03*
X0854370Y0158130D03*
X0864370Y0158130D03*
X1044370Y0328130D03*
X1034370Y0328130D03*
X1024370Y0328130D03*
X1014370Y0328130D03*
X1014370Y0298130D03*
X1024370Y0298130D03*
X1034370Y0298130D03*
X1044370Y0298130D03*
X0864370Y0258130D03*
X0854370Y0258130D03*
X0844370Y0258130D03*
X0834370Y0258130D03*
X0834370Y0228130D03*
X0844370Y0228130D03*
X0854370Y0228130D03*
X0864370Y0228130D03*
X1044370Y0258130D03*
X1034370Y0258130D03*
X1024370Y0258130D03*
X1014370Y0258130D03*
X1014370Y0228130D03*
X1024370Y0228130D03*
X1034370Y0228130D03*
X1044370Y0228130D03*
X0864370Y0118130D03*
X0854370Y0118130D03*
X0844370Y0118130D03*
X0834370Y0118130D03*
X0834370Y0088130D03*
X0844370Y0088130D03*
X0854370Y0088130D03*
X0864370Y0088130D03*
X1044370Y0188130D03*
X1034370Y0188130D03*
X1024370Y0188130D03*
X1014370Y0188130D03*
X1014370Y0158130D03*
X1024370Y0158130D03*
X1034370Y0158130D03*
X1044370Y0158130D03*
X0924370Y0258130D03*
X0914370Y0258130D03*
X0904370Y0258130D03*
X0894370Y0258130D03*
X0894370Y0228130D03*
X0904370Y0228130D03*
X0914370Y0228130D03*
X0924370Y0228130D03*
X0804370Y0118130D03*
X0794370Y0118130D03*
X0784370Y0118130D03*
X0774370Y0118130D03*
X0774370Y0088130D03*
X0784370Y0088130D03*
X0794370Y0088130D03*
X0804370Y0088130D03*
X0839370Y0445130D03*
X0826370Y0445130D03*
X1036500Y0378000D03*
X1049500Y0378000D03*
D32*
X0774370Y0401510D03*
X0774370Y0380250D03*
D100*
X1009750Y0447000D03*
X1004750Y0447000D03*
X0999750Y0447000D03*
X0994750Y0447000D03*
X0989750Y0447000D03*
X0984750Y0447000D03*
X0979750Y0447000D03*
X0979750Y0426000D03*
X0984750Y0426000D03*
X0989750Y0426000D03*
X0994750Y0426000D03*
X0999750Y0426000D03*
X1004750Y0426000D03*
X1009750Y0426000D03*
D115*
X0969750Y0424000D03*
X0969750Y0437000D03*
D90*
X1046340Y0437500D03*
X1035160Y0437500D03*
X1046340Y0427500D03*
X1035160Y0427500D03*
D115*
X0851050Y0458100D03*
X0851050Y0445100D03*
X0879650Y0346700D03*
X0879650Y0333700D03*
X0801750Y0417000D03*
X0801750Y0430000D03*
D85*
X0787250Y0383500D03*
X0800250Y0383500D03*
X1055250Y0366500D03*
X1068250Y0366500D03*
D115*
X0999600Y0346600D03*
X0999600Y0333600D03*
D85*
X0787250Y0397000D03*
X0800250Y0397000D03*
D115*
X0939150Y0346700D03*
X0939150Y0333700D03*
X0819800Y0346850D03*
X0819800Y0333850D03*
D90*
X1046340Y0417500D03*
X1035160Y0417500D03*
X1046340Y0447500D03*
X1035160Y0447500D03*
X1043150Y0497500D02*
G01*
D104*
X0010000Y0379000D02*
G01*
D104*
D100*
X0055000Y0419000D03*
X0060000Y0419000D03*
X0065000Y0419000D03*
X0070000Y0419000D03*
X0070000Y0394000D03*
X0065000Y0394000D03*
X0060000Y0394000D03*
X0055000Y0394000D03*
D85*
X0031000Y0401500D03*
X0044000Y0401500D03*
X0031000Y0411500D03*
X0044000Y0411500D03*
X0044000Y0421500D03*
X0031000Y0421500D03*
X0031000Y0391500D03*
X0044000Y0391500D03*
X0069000Y0446500D03*
X0056000Y0446500D03*
X0044000Y0456500D03*
X0031000Y0456500D03*
X0056000Y0456500D03*
X0069000Y0456500D03*
X0044000Y0446500D03*
X0031000Y0446500D03*
X1043150Y0775000D02*
G01*
D104*
D36*
X1266400Y0843500D03*
X1266400Y0864500D03*
X1261400Y0843500D03*
X1256400Y0843500D03*
X1251400Y0843500D03*
X1261400Y0864500D03*
X1256400Y0864500D03*
X1251400Y0864500D03*
D100*
X1328400Y0790500D03*
X1333400Y0790500D03*
X1338400Y0790500D03*
X1343400Y0790500D03*
X1348400Y0790500D03*
X1353400Y0790500D03*
X1358400Y0790500D03*
X1358400Y0811500D03*
X1353400Y0811500D03*
X1348400Y0811500D03*
X1343400Y0811500D03*
X1338400Y0811500D03*
X1333400Y0811500D03*
X1328400Y0811500D03*
D115*
X1292000Y0930300D03*
X1292000Y0943300D03*
D85*
X1263400Y0875000D03*
X1276400Y0875000D03*
X1287400Y0864000D03*
X1274400Y0864000D03*
D115*
X1276050Y0841750D03*
X1276050Y0854750D03*
D37*
X1424040Y0874200D03*
X1421480Y0874200D03*
X1418920Y0874200D03*
X1416360Y0874200D03*
X1416360Y0857200D03*
X1418920Y0857200D03*
X1421480Y0857200D03*
X1424040Y0857200D03*
D115*
X1360800Y0942800D03*
X1360800Y0929800D03*
D85*
X1057400Y0827200D03*
X1070400Y0827200D03*
D90*
X1057210Y0817000D03*
X1068390Y0817000D03*
D100*
X1427300Y0834500D03*
X1422300Y0834500D03*
X1417300Y0834500D03*
X1412300Y0834500D03*
X1407300Y0834500D03*
X1402300Y0834500D03*
X1397300Y0834500D03*
X1397300Y0813500D03*
X1402300Y0813500D03*
X1407300Y0813500D03*
X1412300Y0813500D03*
X1417300Y0813500D03*
X1422300Y0813500D03*
X1427300Y0813500D03*
X1288300Y0816000D03*
X1293300Y0816000D03*
X1298300Y0816000D03*
X1303300Y0816000D03*
X1308300Y0816000D03*
X1313300Y0816000D03*
X1318300Y0816000D03*
X1318300Y0837000D03*
X1313300Y0837000D03*
X1308300Y0837000D03*
X1303300Y0837000D03*
X1298300Y0837000D03*
X1293300Y0837000D03*
X1288300Y0837000D03*
D81*
X1386200Y0868000D03*
X1381200Y0868000D03*
X1376200Y0868000D03*
X1371200Y0868000D03*
X1366200Y0868000D03*
X1361200Y0868000D03*
X1356200Y0868000D03*
X1351200Y0868000D03*
X1346200Y0868000D03*
X1341200Y0868000D03*
X1336200Y0868000D03*
X1331200Y0868000D03*
X1386200Y0830000D03*
X1381200Y0830000D03*
X1376200Y0830000D03*
X1371200Y0830000D03*
X1366200Y0830000D03*
X1361200Y0830000D03*
X1356200Y0830000D03*
X1351200Y0830000D03*
X1346200Y0830000D03*
X1341200Y0830000D03*
X1336200Y0830000D03*
X1331200Y0830000D03*
D36*
X1372100Y0811500D03*
X1372100Y0790500D03*
X1377100Y0811500D03*
X1382100Y0811500D03*
X1387100Y0811500D03*
X1377100Y0790500D03*
X1382100Y0790500D03*
X1387100Y0790500D03*
D85*
X1421100Y0931500D03*
X1408100Y0931500D03*
D115*
X1350500Y0929800D03*
X1350500Y0942800D03*
X1309500Y0793100D03*
X1309500Y0806100D03*
X1267100Y0799800D03*
X1267100Y0812800D03*
X1299100Y0793100D03*
X1299100Y0806100D03*
X1288700Y0793100D03*
X1288700Y0806100D03*
D85*
X1308100Y0849700D03*
X1321100Y0849700D03*
X1299900Y0849700D03*
X1286900Y0849700D03*
D89*
X1308000Y0864470D03*
X1304250Y0873130D03*
X1311750Y0873130D03*
D100*
X1156300Y0855000D03*
X1161300Y0855000D03*
X1166300Y0855000D03*
X1171300Y0855000D03*
X1176300Y0855000D03*
X1181300Y0855000D03*
X1186300Y0855000D03*
X1186300Y0876000D03*
X1181300Y0876000D03*
X1176300Y0876000D03*
X1171300Y0876000D03*
X1166300Y0876000D03*
X1161300Y0876000D03*
X1156300Y0876000D03*
D85*
X1152050Y0888550D03*
X1165050Y0888550D03*
X1104600Y0826000D03*
X1117600Y0826000D03*
X1104500Y0815400D03*
X1117500Y0815400D03*
D90*
X1128110Y0825400D03*
X1139290Y0825400D03*
X1128060Y0815950D03*
X1139240Y0815950D03*
D115*
X1145200Y0862900D03*
X1145200Y0875900D03*
X1430180Y0931840D03*
X1430180Y0918840D03*
X1431780Y0859040D03*
X1431780Y0872040D03*
D85*
X1418050Y0805700D03*
X1431050Y0805700D03*
X1243650Y0868450D03*
X1230650Y0868450D03*
X1250500Y0835350D03*
X1263500Y0835350D03*
X1345250Y0782050D03*
X1332250Y0782050D03*
D115*
X1278350Y0818450D03*
X1278350Y0831450D03*
X1394000Y0785400D03*
X1394000Y0798400D03*
X0016850Y0471500D02*
G01*
D104*
D85*
X0035850Y0545000D03*
X0022850Y0545000D03*
X0035850Y0611500D03*
X0022850Y0611500D03*
X0091350Y0611000D03*
X0104350Y0611000D03*
X0035850Y0602000D03*
X0022850Y0602000D03*
X0091350Y0601500D03*
X0104350Y0601500D03*
X0035850Y0592500D03*
X0022850Y0592500D03*
X0091350Y0592000D03*
X0104350Y0592000D03*
X0035850Y0583000D03*
X0022850Y0583000D03*
X0091350Y0582500D03*
X0104350Y0582500D03*
X0035850Y0573500D03*
X0022850Y0573500D03*
X0091350Y0573000D03*
X0104350Y0573000D03*
X0035850Y0564000D03*
X0022850Y0564000D03*
X0091350Y0563500D03*
X0104350Y0563500D03*
X0035850Y0554500D03*
X0022850Y0554500D03*
X0091350Y0554000D03*
X0104350Y0554000D03*
X0091350Y0620500D03*
X0104350Y0620500D03*
X0091350Y0544500D03*
X0104350Y0544500D03*
X0035850Y0535500D03*
X0022850Y0535500D03*
X0091350Y0535000D03*
X0104350Y0535000D03*
X0035850Y0526000D03*
X0022850Y0526000D03*
X0091350Y0525500D03*
X0104350Y0525500D03*
X0035850Y0516500D03*
X0022850Y0516500D03*
X0091350Y0516000D03*
X0104350Y0516000D03*
X0035850Y0507000D03*
X0022850Y0507000D03*
X0091350Y0506500D03*
X0104350Y0506500D03*
X0035850Y0497500D03*
X0022850Y0497500D03*
X0091350Y0497000D03*
X0104350Y0497000D03*
X0035850Y0488000D03*
X0022850Y0488000D03*
X0091350Y0487500D03*
X0104350Y0487500D03*
X0035850Y0478500D03*
X0022850Y0478500D03*
X0091350Y0478000D03*
X0104350Y0478000D03*
X0035850Y0659000D03*
X0022850Y0659000D03*
X0091350Y0658500D03*
X0104350Y0658500D03*
X0035850Y0649500D03*
X0022850Y0649500D03*
X0091350Y0649000D03*
X0104350Y0649000D03*
X0035850Y0640000D03*
X0022850Y0640000D03*
X0091350Y0639500D03*
X0104350Y0639500D03*
X0035850Y0630500D03*
X0022850Y0630500D03*
X0091350Y0630000D03*
X0104350Y0630000D03*
X0035850Y0621000D03*
X0022850Y0621000D03*
X0411250Y0902500D02*
G01*
D104*
D115*
X0484750Y0976000D03*
X0484750Y0989000D03*
X0551250Y0976000D03*
X0551250Y0989000D03*
X0550750Y0920500D03*
X0550750Y0907500D03*
X0541750Y0976000D03*
X0541750Y0989000D03*
X0541250Y0920500D03*
X0541250Y0907500D03*
X0532250Y0976000D03*
X0532250Y0989000D03*
X0531750Y0920500D03*
X0531750Y0907500D03*
X0522750Y0976000D03*
X0522750Y0989000D03*
X0522250Y0920500D03*
X0522250Y0907500D03*
X0513250Y0976000D03*
X0513250Y0989000D03*
X0512750Y0920500D03*
X0512750Y0907500D03*
X0503750Y0976000D03*
X0503750Y0989000D03*
X0503250Y0920500D03*
X0503250Y0907500D03*
X0494250Y0976000D03*
X0494250Y0989000D03*
X0493750Y0920500D03*
X0493750Y0907500D03*
X0560250Y0920500D03*
X0560250Y0907500D03*
X0484250Y0920500D03*
X0484250Y0907500D03*
X0475250Y0976000D03*
X0475250Y0989000D03*
X0474750Y0920500D03*
X0474750Y0907500D03*
X0465750Y0976000D03*
X0465750Y0989000D03*
X0465250Y0920500D03*
X0465250Y0907500D03*
X0456250Y0976000D03*
X0456250Y0989000D03*
X0455750Y0920500D03*
X0455750Y0907500D03*
X0446750Y0976000D03*
X0446750Y0989000D03*
X0446250Y0920500D03*
X0446250Y0907500D03*
X0437250Y0976000D03*
X0437250Y0989000D03*
X0436750Y0920500D03*
X0436750Y0907500D03*
X0427750Y0976000D03*
X0427750Y0989000D03*
X0427250Y0920500D03*
X0427250Y0907500D03*
X0418250Y0976000D03*
X0418250Y0989000D03*
X0417750Y0920500D03*
X0417750Y0907500D03*
X0598750Y0976000D03*
X0598750Y0989000D03*
X0598250Y0920500D03*
X0598250Y0907500D03*
X0589250Y0976000D03*
X0589250Y0989000D03*
X0588750Y0920500D03*
X0588750Y0907500D03*
X0579750Y0976000D03*
X0579750Y0989000D03*
X0579250Y0920500D03*
X0579250Y0907500D03*
X0570250Y0976000D03*
X0570250Y0989000D03*
X0569750Y0920500D03*
X0569750Y0907500D03*
X0560750Y0976000D03*
X0560750Y0989000D03*
X1086250Y0010000D02*
G01*
D104*
D115*
X1126870Y0354630D03*
X1126870Y0341630D03*
X1141870Y0271630D03*
X1141870Y0284630D03*
X1126870Y0144630D03*
X1126870Y0131630D03*
X1111870Y0144630D03*
X1111870Y0131630D03*
X1201870Y0271630D03*
X1201870Y0284630D03*
X1201870Y0201630D03*
X1201870Y0214630D03*
X1171870Y0144630D03*
X1171870Y0131630D03*
X1111870Y0284630D03*
X1111870Y0271630D03*
X1141870Y0131630D03*
X1141870Y0144630D03*
X1141870Y0201630D03*
X1141870Y0214630D03*
X1111870Y0354630D03*
X1111870Y0341630D03*
X1366870Y0214630D03*
X1366870Y0201630D03*
X1366870Y0284630D03*
X1366870Y0271630D03*
X1111870Y0214630D03*
X1111870Y0201630D03*
X1126870Y0284630D03*
X1126870Y0271630D03*
X1126870Y0214630D03*
X1126870Y0201630D03*
X1186870Y0214630D03*
X1186870Y0201630D03*
X1246870Y0214630D03*
X1246870Y0201630D03*
X1246870Y0284630D03*
X1246870Y0271630D03*
X1306870Y0284630D03*
X1306870Y0271630D03*
X1306870Y0214630D03*
X1306870Y0201630D03*
X1186870Y0284630D03*
X1186870Y0271630D03*
X1246870Y0354630D03*
X1246870Y0341630D03*
X1231870Y0144630D03*
X1231870Y0131630D03*
X1321870Y0201630D03*
X1321870Y0214630D03*
X1321870Y0271630D03*
X1321870Y0284630D03*
X1321870Y0341630D03*
X1321870Y0354630D03*
X1351870Y0354630D03*
X1351870Y0341630D03*
X1381870Y0131130D03*
X1381870Y0144130D03*
X1351870Y0284630D03*
X1351870Y0271630D03*
X1366870Y0144130D03*
X1366870Y0131130D03*
X1291870Y0284630D03*
X1291870Y0271630D03*
X1291870Y0214630D03*
X1291870Y0201630D03*
X1261870Y0341630D03*
X1261870Y0354630D03*
X1261870Y0201630D03*
X1261870Y0214630D03*
X1306870Y0144630D03*
X1306870Y0131630D03*
X1291870Y0144630D03*
X1291870Y0131630D03*
X1261870Y0271630D03*
X1261870Y0284630D03*
X1291870Y0354630D03*
X1291870Y0341630D03*
X1321870Y0131630D03*
X1321870Y0144630D03*
X1306870Y0354630D03*
X1306870Y0341630D03*
X1351870Y0214630D03*
X1351870Y0201630D03*
X1366870Y0354630D03*
X1366870Y0341630D03*
X1351870Y0144130D03*
X1351870Y0131130D03*
X1381870Y0201630D03*
X1381870Y0214630D03*
X1381870Y0341630D03*
X1381870Y0354630D03*
X1381870Y0271630D03*
X1381870Y0284630D03*
X1186870Y0144630D03*
X1186870Y0131630D03*
X1171870Y0354630D03*
X1171870Y0341630D03*
X1141870Y0341630D03*
X1141870Y0354630D03*
X1246870Y0144630D03*
X1246870Y0131630D03*
X1231870Y0284630D03*
X1231870Y0271630D03*
X1171870Y0214630D03*
X1171870Y0201630D03*
X1171870Y0284630D03*
X1171870Y0271630D03*
X1186870Y0354630D03*
X1186870Y0341630D03*
X1261870Y0131630D03*
X1261870Y0144630D03*
X1231870Y0214630D03*
X1231870Y0201630D03*
X1231870Y0354630D03*
X1231870Y0341630D03*
X1201870Y0341630D03*
X1201870Y0354630D03*
X1201870Y0131630D03*
X1201870Y0144630D03*
D85*
X1201870Y0328130D03*
X1191870Y0328130D03*
X1181870Y0328130D03*
X1171870Y0328130D03*
X1171870Y0298130D03*
X1181870Y0298130D03*
X1191870Y0298130D03*
X1201870Y0298130D03*
X1141870Y0188130D03*
X1131870Y0188130D03*
X1121870Y0188130D03*
X1111870Y0188130D03*
X1111870Y0158130D03*
X1121870Y0158130D03*
X1131870Y0158130D03*
X1141870Y0158130D03*
X1261870Y0118130D03*
X1251870Y0118130D03*
X1241870Y0118130D03*
X1231870Y0118130D03*
X1231870Y0088130D03*
X1241870Y0088130D03*
X1251870Y0088130D03*
X1261870Y0088130D03*
X1321870Y0328130D03*
X1311870Y0328130D03*
X1301870Y0328130D03*
X1291870Y0328130D03*
X1291870Y0298130D03*
X1301870Y0298130D03*
X1311870Y0298130D03*
X1321870Y0298130D03*
X1261870Y0328130D03*
X1251870Y0328130D03*
X1241870Y0328130D03*
X1231870Y0328130D03*
X1231870Y0298130D03*
X1241870Y0298130D03*
X1251870Y0298130D03*
X1261870Y0298130D03*
X1141870Y0258130D03*
X1131870Y0258130D03*
X1121870Y0258130D03*
X1111870Y0258130D03*
X1111870Y0228130D03*
X1121870Y0228130D03*
X1131870Y0228130D03*
X1141870Y0228130D03*
X1261870Y0188130D03*
X1251870Y0188130D03*
X1241870Y0188130D03*
X1231870Y0188130D03*
X1231870Y0158130D03*
X1241870Y0158130D03*
X1251870Y0158130D03*
X1261870Y0158130D03*
X1141870Y0328130D03*
X1131870Y0328130D03*
X1121870Y0328130D03*
X1111870Y0328130D03*
X1111870Y0298130D03*
X1121870Y0298130D03*
X1131870Y0298130D03*
X1141870Y0298130D03*
X1321870Y0188130D03*
X1311870Y0188130D03*
X1301870Y0188130D03*
X1291870Y0188130D03*
X1291870Y0158130D03*
X1301870Y0158130D03*
X1311870Y0158130D03*
X1321870Y0158130D03*
X1321870Y0118130D03*
X1311870Y0118130D03*
X1301870Y0118130D03*
X1291870Y0118130D03*
X1291870Y0088130D03*
X1301870Y0088130D03*
X1311870Y0088130D03*
X1321870Y0088130D03*
X1381870Y0118130D03*
X1371870Y0118130D03*
X1361870Y0118130D03*
X1351870Y0118130D03*
X1351870Y0088130D03*
X1361870Y0088130D03*
X1371870Y0088130D03*
X1381870Y0088130D03*
X1321870Y0258130D03*
X1311870Y0258130D03*
X1301870Y0258130D03*
X1291870Y0258130D03*
X1291870Y0228130D03*
X1301870Y0228130D03*
X1311870Y0228130D03*
X1321870Y0228130D03*
X1201870Y0188130D03*
X1191870Y0188130D03*
X1181870Y0188130D03*
X1171870Y0188130D03*
X1171870Y0158130D03*
X1181870Y0158130D03*
X1191870Y0158130D03*
X1201870Y0158130D03*
X1381870Y0328130D03*
X1371870Y0328130D03*
X1361870Y0328130D03*
X1351870Y0328130D03*
X1351870Y0298130D03*
X1361870Y0298130D03*
X1371870Y0298130D03*
X1381870Y0298130D03*
X1201870Y0258130D03*
X1191870Y0258130D03*
X1181870Y0258130D03*
X1171870Y0258130D03*
X1171870Y0228130D03*
X1181870Y0228130D03*
X1191870Y0228130D03*
X1201870Y0228130D03*
X1381870Y0258130D03*
X1371870Y0258130D03*
X1361870Y0258130D03*
X1351870Y0258130D03*
X1351870Y0228130D03*
X1361870Y0228130D03*
X1371870Y0228130D03*
X1381870Y0228130D03*
X1201870Y0118130D03*
X1191870Y0118130D03*
X1181870Y0118130D03*
X1171870Y0118130D03*
X1171870Y0088130D03*
X1181870Y0088130D03*
X1191870Y0088130D03*
X1201870Y0088130D03*
X1381870Y0188130D03*
X1371870Y0188130D03*
X1361870Y0188130D03*
X1351870Y0188130D03*
X1351870Y0158130D03*
X1361870Y0158130D03*
X1371870Y0158130D03*
X1381870Y0158130D03*
X1261870Y0258130D03*
X1251870Y0258130D03*
X1241870Y0258130D03*
X1231870Y0258130D03*
X1231870Y0228130D03*
X1241870Y0228130D03*
X1251870Y0228130D03*
X1261870Y0228130D03*
X1141870Y0118130D03*
X1131870Y0118130D03*
X1121870Y0118130D03*
X1111870Y0118130D03*
X1111870Y0088130D03*
X1121870Y0088130D03*
X1131870Y0088130D03*
X1141870Y0088130D03*
X1176870Y0445130D03*
X1163870Y0445130D03*
X1374000Y0378000D03*
X1387000Y0378000D03*
D32*
X1111870Y0401510D03*
X1111870Y0380250D03*
D100*
X1347250Y0447000D03*
X1342250Y0447000D03*
X1337250Y0447000D03*
X1332250Y0447000D03*
X1327250Y0447000D03*
X1322250Y0447000D03*
X1317250Y0447000D03*
X1317250Y0426000D03*
X1322250Y0426000D03*
X1327250Y0426000D03*
X1332250Y0426000D03*
X1337250Y0426000D03*
X1342250Y0426000D03*
X1347250Y0426000D03*
D115*
X1307250Y0424000D03*
X1307250Y0437000D03*
D90*
X1383840Y0437500D03*
X1372660Y0437500D03*
X1383840Y0427500D03*
X1372660Y0427500D03*
D115*
X1188550Y0458100D03*
X1188550Y0445100D03*
X1217150Y0346700D03*
X1217150Y0333700D03*
X1139250Y0417000D03*
X1139250Y0430000D03*
D85*
X1124750Y0383500D03*
X1137750Y0383500D03*
X1392750Y0366500D03*
X1405750Y0366500D03*
D115*
X1337100Y0346600D03*
X1337100Y0333600D03*
D85*
X1124750Y0397000D03*
X1137750Y0397000D03*
D115*
X1276650Y0346700D03*
X1276650Y0333700D03*
X1157300Y0346850D03*
X1157300Y0333850D03*
D90*
X1383840Y0417500D03*
X1372660Y0417500D03*
X1383840Y0447500D03*
X1372660Y0447500D03*
M02*
