%
T01C0.015000
X31403Y38862
X31403Y35463
X31553Y39462
X31553Y34937
X31653Y5963
X31703Y6313
X31703Y5562
X31703Y5213
X31703Y4862
X31828Y30838
X31853Y6612
X32053Y6912
X32103Y31137
X32192Y16092
X32213Y23372
X32472Y22812
X32493Y29812
X32493Y15812
X32493Y8813
X32533Y9692
X32552Y6762
X32703Y31012
X32713Y32192
X32713Y25192
X32713Y18192
X32713Y11192
X32973Y30732
X32973Y23733
X32993Y16733
X32993Y9732
X33003Y38837
X33053Y6762
X33253Y36687
X33613Y21452
X33632Y28452
X33632Y14452
X33678Y35463
X33703Y39462
X33750Y37190
X34250Y37440
X34253Y34937
X34473Y8173
X34493Y32272
X34493Y25272
X34493Y11252
X34493Y9372
X34503Y33637
X34503Y31162
X34503Y29187
X34503Y26572
X34503Y22192
X34503Y19512
X34503Y15238
X34503Y12532
X34513Y30333
X34513Y23332
X34513Y16352
X34533Y18272
X34750Y36940
X34753Y34787
X34828Y38862
X34893Y2773
X34953Y2212
X35203Y35463
X35232Y28012
X35252Y37687
X35252Y21012
X35252Y13772
X35252Y6812
X35293Y3052
X35352Y2212
X35728Y5613
X35753Y2212
X35992Y30432
X35992Y23433
X36013Y16433
X36013Y9432
X36253Y29162
X36253Y22187
X36253Y15187
X36253Y8162
X36353Y5312
X36602Y2212
X36628Y34213
X36653Y4713
X36677Y35263
X36728Y5862
X36928Y34988
X36953Y4212
X37028Y5662
X37253Y3612
X37478Y5162
X37653Y2793
X37903Y36687
X38012Y2793
X38353Y6132
X38353Y5587
X38377Y34213
X38392Y6472
X38403Y37687
X38492Y29812
X38492Y22812
X38492Y15812
X38492Y8813
X38693Y25172
X38693Y17032
X38693Y10032
X38713Y32192
X38713Y31032
X38713Y24032
X38713Y18192
X38713Y11192
X38715Y33600
X38973Y9732
X38993Y30732
X38993Y23733
X38993Y16733
X39228Y36687
X39613Y28472
X39613Y21452
X39613Y7472
X39627Y35562
X39633Y14452
X39750Y37190
X40250Y37440
X40255Y34725
X40290Y48500
X40492Y18252
X40492Y11272
X40492Y8087
X40503Y33637
X40503Y29237
X40503Y26522
X40503Y22237
X40503Y19502
X40503Y12552
X40512Y32272
X40512Y31112
X40512Y30333
X40512Y25253
X40512Y24072
X40512Y23292
X40512Y16352
X40512Y15213
X40512Y10132
X40512Y9332
X40532Y17153
X40745Y40550
X40750Y36940
X40753Y34687
X41228Y35463
X41233Y28012
X41253Y37712
X41253Y6812
X41273Y21012
X41273Y13772
X41993Y30432
X41993Y9432
X42013Y23433
X42013Y16433
X42235Y34940
X42253Y29187
X42253Y15187
X42253Y8087
X42403Y42562
X42425Y22235
X42628Y34213
X42828Y34937
X43453Y5152
X43613Y5752
X43632Y6112
X43990Y35450
X44352Y34213
X44473Y29812
X44493Y22812
X44493Y15812
X44493Y8813
X44628Y37712
X44693Y32172
X44693Y25172
X44693Y18192
X44693Y17032
X44693Y11172
X44693Y10052
X44712Y31032
X44712Y24032
X44735Y33565
X44753Y5512
X44840Y42400
X44973Y16733
X44993Y30732
X44993Y23733
X45002Y9743
X45053Y5252
X45253Y36687
X45352Y4992
X45613Y7492
X45627Y35437
X45633Y28452
X45633Y21452
X45633Y14472
X45750Y37190
X46252Y37437
X46252Y34937
X46493Y32272
X46493Y22192
X46493Y15213
X46493Y11212
X46503Y33637
X46503Y29232
X46503Y26472
X46503Y19452
X46503Y12552
X46503Y8113
X46512Y25272
X46512Y24132
X46512Y23332
X46512Y18252
X46512Y16392
X46512Y10172
X46512Y9352
X46533Y31152
X46533Y30372
X46533Y17172
X46590Y42650
X46750Y36940
X46753Y34787
X46903Y5063
X47178Y35463
X47233Y28012
X47253Y37687
X47253Y13792
X47253Y6812
X47273Y21012
X47840Y41800
X47993Y30432
X47993Y16433
X47993Y9432
X48012Y23433
X48253Y29172
X48253Y15187
X48253Y8113
X48253Y5587
X48278Y22187
X48453Y5037
X48653Y35087
X48653Y34737
X48653Y34213
X48653Y5812
X48903Y6087
X49003Y4862
X49178Y6313
X49577Y4663
X49628Y7387
X49828Y7112
X49978Y4363
X50002Y6787
X50173Y6493
X50303Y34213
X50353Y6212
X50473Y22812
X50493Y29792
X50493Y15812
X50493Y8813
X50570Y45390
X50640Y42400
X50653Y31972
X50653Y18132
X50673Y25092
X50673Y24072
X50673Y11112
X50673Y10032
X50693Y17053
X50713Y31032
X50735Y33585
X50753Y37712
X50853Y45837
X50913Y16733
X50933Y23733
X50973Y30732
X50973Y9732
X51178Y46087
X51252Y36687
X51303Y4162
X51633Y28452
X51633Y21452
X51633Y14472
X51633Y7472
X51703Y35463
X51753Y37187
X51803Y3963
X52253Y37437
X52253Y34737
X52303Y3762
X52453Y3212
X52493Y33662
X52493Y32252
X52493Y22172
X52502Y26472
X52502Y19492
X52502Y15213
X52502Y12512
X52502Y8152
X52513Y30352
X52513Y29172
X52513Y25233
X52513Y9332
X52532Y31132
X52532Y23372
X52532Y18212
X52532Y17153
X52532Y16352
X52532Y11252
X52532Y10132
X52573Y24172
X52745Y36935
X52753Y34762
X53233Y13772
X53253Y35463
X53253Y28012
X53253Y6812
X53273Y21012
X53515Y46015
X53540Y44250
X53703Y2962
X53870Y45700
X53993Y23433
X53993Y16433
X53993Y9432
X54012Y30432
X54040Y42140
X54053Y2962
X54253Y29187
X54253Y22162
X54253Y15187
X54253Y8162
X54312Y4852
X54403Y2962
X54453Y4292
X54628Y34213
X54633Y4592
X54650Y42050
X54700Y44220
X54712Y4072
X54753Y2962
X54878Y34838
X54903Y35212
X55053Y4032
X55073Y3693
X55103Y2962
X55328Y37013
X55373Y3552
X55413Y3212
X55490Y44250
X55540Y42150
X56085Y45390
X56090Y43345
X56090Y42020
X56178Y36388
X56378Y34213
X56452Y29792
X56493Y22793
X56493Y15812
X56493Y11252
X56493Y8813
X56693Y32112
X56693Y31072
X56693Y25053
X56693Y18153
X56693Y17072
X56713Y23992
X56713Y10072
X56745Y33610
X56933Y23692
X56940Y44700
X56943Y30702
X56990Y42750
X57003Y16762
X57003Y9762
X57328Y37612
X57477Y41462
X57603Y37862
X57633Y7472
X57653Y28462
X57653Y21463
X57653Y14412
X57753Y35463
X57840Y43750
X58270Y41320
X58390Y43750
X58493Y32292
X58493Y25293
X58493Y11272
X58493Y9332
X58503Y33612
X58503Y29192
X58503Y26512
X58503Y22192
X58503Y19492
X58503Y15192
X58503Y12492
X58503Y8113
X58512Y30312
X58512Y23313
X58512Y16312
X58533Y24092
X58533Y18233
X58553Y31112
X58553Y17072
X58578Y34937
X58933Y10052
X59153Y35463
X59253Y6812
X59272Y21012
X59293Y13772
X59312Y28012
X59590Y38450
X59640Y43750
X59640Y42750
X59993Y30432
X60012Y23433
X60012Y16433
X60012Y9432
X60253Y29187
X60253Y22187
X60253Y15187
X60253Y8113
X60640Y36250
X60653Y35187
X60653Y34262
X60890Y44750
X60940Y41750
X61653Y34262
X61673Y7472
X61893Y30772
X61893Y23792
X61893Y16752
X61893Y10952
X62173Y10632
X62193Y30452
X62193Y23433
X62193Y16433
X62452Y35463
X62452Y28012
X62452Y21012
X62452Y13772
X62702Y35912
X62713Y28912
X62713Y21892
X62713Y14932
X65153Y38862
X65153Y35463
X65303Y39462
X65303Y34937
X65403Y5963
X65453Y6313
X65453Y5562
X65453Y5213
X65453Y4862
X65578Y30838
X65603Y6612
X65803Y6912
X65853Y31137
X65942Y16092
X65963Y23372
X66222Y22812
X66243Y29812
X66243Y15812
X66243Y8813
X66283Y9692
X66302Y6762
X66453Y31012
X66463Y32192
X66463Y25192
X66463Y18192
X66463Y11192
X66723Y30732
X66723Y23733
X66743Y16733
X66743Y9732
X66753Y38837
X66803Y6762
X67003Y36687
X67363Y21452
X67382Y28452
X67382Y14452
X67428Y35463
X67453Y39462
X67500Y37190
X68000Y37440
X68003Y34937
X68223Y8173
X68243Y32272
X68243Y25272
X68243Y11252
X68243Y9372
X68253Y33637
X68253Y31162
X68253Y29187
X68253Y26572
X68253Y22192
X68253Y19512
X68253Y15238
X68253Y12532
X68263Y30333
X68263Y23332
X68263Y16352
X68283Y18272
X68500Y36940
X68503Y34787
X68578Y38862
X68643Y2773
X68703Y2212
X68953Y35463
X68982Y28012
X69002Y37687
X69002Y21012
X69002Y13772
X69002Y6812
X69043Y3052
X69102Y2212
X69478Y5613
X69503Y2212
X69742Y30432
X69742Y23433
X69763Y16433
X69763Y9432
X70003Y29162
X70003Y22187
X70003Y15187
X70003Y8162
X70103Y5312
X70352Y2212
X70378Y34213
X70403Y4713
X70427Y35263
X70478Y5862
X70678Y34988
X70703Y4212
X70778Y5662
X71003Y3612
X71228Y5162
X71403Y2793
X71653Y36687
X71762Y2793
X72103Y6132
X72103Y5587
X72127Y34213
X72142Y6472
X72153Y37687
X72242Y29812
X72242Y22812
X72242Y15812
X72242Y8813
X72443Y25172
X72443Y17032
X72443Y10032
X72463Y32192
X72463Y31032
X72463Y24032
X72463Y18192
X72463Y11192
X72465Y33600
X72723Y9732
X72743Y30732
X72743Y23733
X72743Y16733
X72978Y36687
X73363Y28472
X73363Y21452
X73363Y7472
X73377Y35562
X73383Y14452
X73500Y37190
X74000Y37440
X74005Y34725
X74040Y48500
X74242Y18252
X74242Y11272
X74242Y8087
X74253Y33637
X74253Y29237
X74253Y26522
X74253Y22237
X74253Y19502
X74253Y12552
X74262Y32272
X74262Y31112
X74262Y30333
X74262Y25253
X74262Y24072
X74262Y23292
X74262Y16352
X74262Y15213
X74262Y10132
X74262Y9332
X74282Y17153
X74495Y40550
X74500Y36940
X74503Y34687
X74978Y35463
X74983Y28012
X75003Y37712
X75003Y6812
X75023Y21012
X75023Y13772
X75743Y30432
X75743Y9432
X75763Y23433
X75763Y16433
X75985Y34940
X76003Y29187
X76003Y15187
X76003Y8087
X76153Y42562
X76175Y22235
X76378Y34213
X76578Y34937
X77203Y5152
X77363Y5752
X77382Y6112
X77740Y35450
X78102Y34213
X78223Y29812
X78243Y22812
X78243Y15812
X78243Y8813
X78378Y37712
X78443Y32172
X78443Y25172
X78443Y18192
X78443Y17032
X78443Y11172
X78443Y10052
X78462Y31032
X78462Y24032
X78485Y33565
X78503Y5512
X78590Y42400
X78723Y16733
X78743Y30732
X78743Y23733
X78752Y9743
X78803Y5252
X79003Y36687
X79102Y4992
X79363Y7492
X79377Y35437
X79383Y28452
X79383Y21452
X79383Y14472
X79500Y37190
X80002Y37437
X80002Y34937
X80243Y32272
X80243Y22192
X80243Y15213
X80243Y11212
X80253Y33637
X80253Y29232
X80253Y26472
X80253Y19452
X80253Y12552
X80253Y8113
X80262Y25272
X80262Y24132
X80262Y23332
X80262Y18252
X80262Y16392
X80262Y10172
X80262Y9352
X80283Y31152
X80283Y30372
X80283Y17172
X80340Y42650
X80500Y36940
X80503Y34787
X80653Y5063
X80928Y35463
X80983Y28012
X81003Y37687
X81003Y13792
X81003Y6812
X81023Y21012
X81590Y41800
X81743Y30432
X81743Y16433
X81743Y9432
X81762Y23433
X82003Y29172
X82003Y15187
X82003Y8113
X82003Y5587
X82028Y22187
X82203Y5037
X82403Y35087
X82403Y34737
X82403Y34213
X82403Y5812
X82653Y6087
X82753Y4862
X82928Y6313
X83327Y4663
X83378Y7387
X83578Y7112
X83728Y4363
X83752Y6787
X83923Y6493
X84053Y34213
X84103Y6212
X84223Y22812
X84243Y29792
X84243Y15812
X84243Y8813
X84320Y45390
X84390Y42400
X84403Y31972
X84403Y18132
X84423Y25092
X84423Y24072
X84423Y11112
X84423Y10032
X84443Y17053
X84463Y31032
X84485Y33585
X84503Y37712
X84603Y45837
X84663Y16733
X84683Y23733
X84723Y30732
X84723Y9732
X84928Y46087
X85002Y36687
X85053Y4162
X85383Y28452
X85383Y21452
X85383Y14472
X85383Y7472
X85453Y35463
X85503Y37187
X85553Y3963
X86003Y37437
X86003Y34737
X86053Y3762
X86203Y3212
X86243Y33662
X86243Y32252
X86243Y22172
X86252Y26472
X86252Y19492
X86252Y15213
X86252Y12512
X86252Y8152
X86263Y30352
X86263Y29172
X86263Y25233
X86263Y9332
X86282Y31132
X86282Y23372
X86282Y18212
X86282Y17153
X86282Y16352
X86282Y11252
X86282Y10132
X86323Y24172
X86495Y36935
X86503Y34762
X86983Y13772
X87003Y35463
X87003Y28012
X87003Y6812
X87023Y21012
X87265Y46015
X87290Y44250
X87453Y2962
X87620Y45700
X87743Y23433
X87743Y16433
X87743Y9432
X87762Y30432
X87790Y42140
X87803Y2962
X88003Y29187
X88003Y22162
X88003Y15187
X88003Y8162
X88062Y4852
X88153Y2962
X88203Y4292
X88378Y34213
X88383Y4592
X88400Y42050
X88450Y44220
X88462Y4072
X88503Y2962
X88628Y34838
X88653Y35212
X88803Y4032
X88823Y3693
X88853Y2962
X89078Y37013
X89123Y3552
X89163Y3212
X89240Y44250
X89290Y42150
X89835Y45390
X89840Y43345
X89840Y42020
X89928Y36388
X90128Y34213
X90202Y29792
X90243Y22793
X90243Y15812
X90243Y11252
X90243Y8813
X90443Y32112
X90443Y31072
X90443Y25053
X90443Y18153
X90443Y17072
X90463Y23992
X90463Y10072
X90495Y33610
X90683Y23692
X90690Y44700
X90693Y30702
X90740Y42750
X90753Y16762
X90753Y9762
X91078Y37612
X91227Y41462
X91353Y37862
X91383Y7472
X91403Y28462
X91403Y21463
X91403Y14412
X91503Y35463
X91590Y43750
X92020Y41320
X92140Y43750
X92243Y32292
X92243Y25293
X92243Y11272
X92243Y9332
X92253Y33612
X92253Y29192
X92253Y26512
X92253Y22192
X92253Y19492
X92253Y15192
X92253Y12492
X92253Y8113
X92262Y30312
X92262Y23313
X92262Y16312
X92283Y24092
X92283Y18233
X92303Y31112
X92303Y17072
X92328Y34937
X92683Y10052
X92903Y35463
X93003Y6812
X93022Y21012
X93043Y13772
X93062Y28012
X93340Y38450
X93390Y43750
X93390Y42750
X93743Y30432
X93762Y23433
X93762Y16433
X93762Y9432
X94003Y29187
X94003Y22187
X94003Y15187
X94003Y8113
X94390Y36250
X94403Y35187
X94403Y34262
X94640Y44750
X94690Y41750
X95403Y34262
X95423Y7472
X95643Y30772
X95643Y23792
X95643Y16752
X95643Y10952
X95923Y10632
X95943Y30452
X95943Y23433
X95943Y16433
X96202Y35463
X96202Y28012
X96202Y21012
X96202Y13772
X96452Y35912
X96463Y28912
X96463Y21892
X96463Y14932
X15500Y49475
X6500Y49600
X15000Y49600
X7000Y49750
X14500Y49750
X7500Y49900
X14000Y49900
X13500Y50025
X8000Y50050
X13000Y50175
X8500Y50200
X4025Y50300
X12500Y50325
X9025Y50350
X12000Y50475
X9550Y50500
X11500Y50625
X9975Y50650
X26950Y63500
X26950Y64000
X26625Y64500
X26625Y65000
X26325Y65500
X26325Y66000
X26025Y66500
X26025Y67000
X26025Y69500
X26025Y70000
X26300Y70500
X26300Y71000
X26575Y71500
X26575Y72000
X26875Y72500
X26875Y73000
X10000Y85850
X11500Y85875
X9500Y85975
X17675Y86000
X12000Y86025
X9000Y86150
X12500Y86175
X8500Y86275
X13000Y86325
X8000Y86425
X13500Y86475
X7500Y86575
X14025Y86600
X7000Y86700
X14500Y86750
X6500Y86850
X15000Y86900
X6000Y86975
X65153Y87612
X65153Y84213
X65303Y88212
X65303Y83687
X65403Y54713
X65453Y55063
X65453Y54312
X65453Y53963
X65453Y53612
X65578Y79588
X65603Y55362
X65803Y55662
X65853Y79887
X65942Y64842
X65963Y72122
X66222Y71562
X66243Y78562
X66243Y64562
X66243Y57563
X66283Y58442
X66302Y55512
X66453Y79762
X66463Y80942
X66463Y73942
X66463Y66942
X66463Y59942
X66723Y79482
X66723Y72483
X66743Y65483
X66743Y58482
X66753Y87587
X66803Y55512
X67003Y85437
X67363Y70202
X67382Y77202
X67382Y63202
X67428Y84213
X67453Y88212
X67500Y85940
X68000Y86190
X68003Y83687
X68223Y56923
X68243Y81022
X68243Y74022
X68243Y60002
X68243Y58122
X68253Y82387
X68253Y79912
X68253Y77937
X68253Y75322
X68253Y70942
X68253Y68262
X68253Y63988
X68253Y61282
X68263Y79083
X68263Y72082
X68263Y65102
X68283Y67022
X68500Y85690
X68503Y83537
X68578Y87612
X68643Y51523
X68703Y50962
X68953Y84213
X68982Y76762
X69002Y86437
X69002Y69762
X69002Y62522
X69002Y55562
X69043Y51802
X69102Y50962
X69478Y54363
X69503Y50962
X69742Y79182
X69742Y72183
X69763Y65183
X69763Y58182
X70003Y77912
X70003Y70937
X70003Y63937
X70003Y56912
X70103Y54062
X70352Y50962
X70378Y82963
X70403Y53463
X70427Y84013
X70478Y54612
X70678Y83738
X70703Y52962
X70778Y54412
X71003Y52362
X71228Y53912
X71403Y51543
X71653Y85437
X71762Y51543
X72103Y54882
X72103Y54337
X72127Y82963
X72142Y55222
X72153Y86437
X72242Y78562
X72242Y71562
X72242Y64562
X72242Y57563
X72443Y73922
X72443Y65782
X72443Y58782
X72463Y80942
X72463Y79782
X72463Y72782
X72463Y66942
X72463Y59942
X72465Y82350
X72723Y58482
X72743Y79482
X72743Y72483
X72743Y65483
X72978Y85437
X73363Y77222
X73363Y70202
X73363Y56222
X73377Y84312
X73383Y63202
X73500Y85940
X74000Y86190
X74005Y83475
X74040Y97250
X74242Y67002
X74242Y60022
X74242Y56837
X74253Y82387
X74253Y77987
X74253Y75272
X74253Y70987
X74253Y68252
X74253Y61302
X74262Y81022
X74262Y79862
X74262Y79083
X74262Y74003
X74262Y72822
X74262Y72042
X74262Y65102
X74262Y63963
X74262Y58882
X74262Y58082
X74282Y65903
X74495Y89300
X74500Y85690
X74503Y83437
X74978Y84213
X74983Y76762
X75003Y86462
X75003Y55562
X75023Y69762
X75023Y62522
X75743Y79182
X75743Y58182
X75763Y72183
X75763Y65183
X75985Y83690
X76003Y77937
X76003Y63937
X76003Y56837
X76153Y91312
X76175Y70985
X76378Y82963
X76578Y83687
X77203Y53902
X77363Y54502
X77382Y54862
X77740Y84200
X78102Y82963
X78223Y78562
X78243Y71562
X78243Y64562
X78243Y57563
X78378Y86462
X78443Y80922
X78443Y73922
X78443Y66942
X78443Y65782
X78443Y59922
X78443Y58802
X78462Y79782
X78462Y72782
X78485Y82315
X78503Y54262
X78590Y91150
X78723Y65483
X78743Y79482
X78743Y72483
X78752Y58493
X78803Y54002
X79003Y85437
X79102Y53742
X79363Y56242
X79377Y84187
X79383Y77202
X79383Y70202
X79383Y63222
X79500Y85940
X80002Y86187
X80002Y83687
X80243Y81022
X80243Y70942
X80243Y63963
X80243Y59962
X80253Y82387
X80253Y77982
X80253Y75222
X80253Y68202
X80253Y61302
X80253Y56863
X80262Y74022
X80262Y72882
X80262Y72082
X80262Y67002
X80262Y65142
X80262Y58922
X80262Y58102
X80283Y79902
X80283Y79122
X80283Y65922
X80340Y91400
X80500Y85690
X80503Y83537
X80653Y53813
X80928Y84213
X80983Y76762
X81003Y86437
X81003Y62542
X81003Y55562
X81023Y69762
X81590Y90550
X81743Y79182
X81743Y65183
X81743Y58182
X81762Y72183
X82003Y77922
X82003Y63937
X82003Y56863
X82003Y54337
X82028Y70937
X82203Y53787
X82403Y83837
X82403Y83487
X82403Y82963
X82403Y54562
X82653Y54837
X82753Y53612
X82928Y55063
X83327Y53413
X83378Y56137
X83578Y55862
X83728Y53113
X83752Y55537
X83923Y55243
X84053Y82963
X84103Y54962
X84223Y71562
X84243Y78542
X84243Y64562
X84243Y57563
X84320Y94140
X84390Y91150
X84403Y80722
X84403Y66882
X84423Y73842
X84423Y72822
X84423Y59862
X84423Y58782
X84443Y65803
X84463Y79782
X84485Y82335
X84503Y86462
X84603Y94587
X84663Y65483
X84683Y72483
X84723Y79482
X84723Y58482
X84928Y94837
X85002Y85437
X85053Y52912
X85383Y77202
X85383Y70202
X85383Y63222
X85383Y56222
X85453Y84213
X85503Y85937
X85553Y52713
X86003Y86187
X86003Y83487
X86053Y52512
X86203Y51962
X86243Y82412
X86243Y81002
X86243Y70922
X86252Y75222
X86252Y68242
X86252Y63963
X86252Y61262
X86252Y56902
X86263Y79102
X86263Y77922
X86263Y73983
X86263Y58082
X86282Y79882
X86282Y72122
X86282Y66962
X86282Y65903
X86282Y65102
X86282Y60002
X86282Y58882
X86323Y72922
X86495Y85685
X86503Y83512
X86983Y62522
X87003Y84213
X87003Y76762
X87003Y55562
X87023Y69762
X87265Y94765
X87290Y93000
X87453Y51712
X87620Y94450
X87743Y72183
X87743Y65183
X87743Y58182
X87762Y79182
X87790Y90890
X87803Y51712
X88003Y77937
X88003Y70912
X88003Y63937
X88003Y56912
X88062Y53602
X88153Y51712
X88203Y53042
X88378Y82963
X88383Y53342
X88400Y90800
X88450Y92970
X88462Y52822
X88503Y51712
X88628Y83588
X88653Y83962
X88803Y52782
X88823Y52443
X88853Y51712
X89078Y85763
X89123Y52302
X89163Y51962
X89240Y93000
X89290Y90900
X89835Y94140
X89840Y92095
X89840Y90770
X89928Y85138
X90128Y82963
X90202Y78542
X90243Y71543
X90243Y64562
X90243Y60002
X90243Y57563
X90443Y80862
X90443Y79822
X90443Y73803
X90443Y66903
X90443Y65822
X90463Y72742
X90463Y58822
X90495Y82360
X90683Y72442
X90690Y93450
X90693Y79452
X90740Y91500
X90753Y65512
X90753Y58512
X91078Y86362
X91227Y90212
X91353Y86612
X91383Y56222
X91403Y77212
X91403Y70213
X91403Y63162
X91503Y84213
X91590Y92500
X92020Y90070
X92140Y92500
X92243Y81042
X92243Y74043
X92243Y60022
X92243Y58082
X92253Y82362
X92253Y77942
X92253Y75262
X92253Y70942
X92253Y68242
X92253Y63942
X92253Y61242
X92253Y56863
X92262Y79062
X92262Y72063
X92262Y65062
X92283Y72842
X92283Y66983
X92303Y79862
X92303Y65822
X92328Y83687
X92683Y58802
X92903Y84213
X93003Y55562
X93022Y69762
X93043Y62522
X93062Y76762
X93340Y87200
X93390Y92500
X93390Y91500
X93743Y79182
X93762Y72183
X93762Y65183
X93762Y58182
X94003Y77937
X94003Y70937
X94003Y63937
X94003Y56863
X94390Y85000
X94403Y83937
X94403Y83012
X94640Y93500
X94690Y90500
X95403Y83012
X95423Y56222
X95643Y79522
X95643Y72542
X95643Y65502
X95643Y59702
X95923Y59382
X95943Y79202
X95943Y72183
X95943Y65183
X96202Y84213
X96202Y76762
X96202Y69762
X96202Y62522
X96452Y84662
X96463Y77662
X96463Y70642
X96463Y63682
X31403Y87612
X31403Y84213
X31553Y88212
X31553Y83687
X31653Y54713
X31703Y55063
X31703Y54312
X31703Y53963
X31703Y53612
X31828Y79588
X31853Y55362
X32053Y55662
X32103Y79887
X32192Y64842
X32213Y72122
X32472Y71562
X32493Y78562
X32493Y64562
X32493Y57563
X32533Y58442
X32552Y55512
X32703Y79762
X32713Y80942
X32713Y73942
X32713Y66942
X32713Y59942
X32973Y79482
X32973Y72483
X32993Y65483
X32993Y58482
X33003Y87587
X33053Y55512
X33253Y85437
X33613Y70202
X33632Y77202
X33632Y63202
X33678Y84213
X33703Y88212
X33750Y85940
X34250Y86190
X34253Y83687
X34473Y56923
X34493Y81022
X34493Y74022
X34493Y60002
X34493Y58122
X34503Y82387
X34503Y79912
X34503Y77937
X34503Y75322
X34503Y70942
X34503Y68262
X34503Y63988
X34503Y61282
X34513Y79083
X34513Y72082
X34513Y65102
X34533Y67022
X34750Y85690
X34753Y83537
X34828Y87612
X34893Y51523
X34953Y50962
X35203Y84213
X35232Y76762
X35252Y86437
X35252Y69762
X35252Y62522
X35252Y55562
X35293Y51802
X35352Y50962
X35728Y54363
X35753Y50962
X35992Y79182
X35992Y72183
X36013Y65183
X36013Y58182
X36253Y77912
X36253Y70937
X36253Y63937
X36253Y56912
X36353Y54062
X36602Y50962
X36628Y82963
X36653Y53463
X36677Y84013
X36728Y54612
X36928Y83738
X36953Y52962
X37028Y54412
X37253Y52362
X37478Y53912
X37653Y51543
X37903Y85437
X38012Y51543
X38353Y54882
X38353Y54337
X38377Y82963
X38392Y55222
X38403Y86437
X38492Y78562
X38492Y71562
X38492Y64562
X38492Y57563
X38693Y73922
X38693Y65782
X38693Y58782
X38713Y80942
X38713Y79782
X38713Y72782
X38713Y66942
X38713Y59942
X38715Y82350
X38973Y58482
X38993Y79482
X38993Y72483
X38993Y65483
X39228Y85437
X39613Y77222
X39613Y70202
X39613Y56222
X39627Y84312
X39633Y63202
X39750Y85940
X40250Y86190
X40255Y83475
X40290Y97250
X40492Y67002
X40492Y60022
X40492Y56837
X40503Y82387
X40503Y77987
X40503Y75272
X40503Y70987
X40503Y68252
X40503Y61302
X40512Y81022
X40512Y79862
X40512Y79083
X40512Y74003
X40512Y72822
X40512Y72042
X40512Y65102
X40512Y63963
X40512Y58882
X40512Y58082
X40532Y65903
X40745Y89300
X40750Y85690
X40753Y83437
X41228Y84213
X41233Y76762
X41253Y86462
X41253Y55562
X41273Y69762
X41273Y62522
X41993Y79182
X41993Y58182
X42013Y72183
X42013Y65183
X42235Y83690
X42253Y77937
X42253Y63937
X42253Y56837
X42403Y91312
X42425Y70985
X42628Y82963
X42828Y83687
X43453Y53902
X43613Y54502
X43632Y54862
X43990Y84200
X44352Y82963
X44473Y78562
X44493Y71562
X44493Y64562
X44493Y57563
X44628Y86462
X44693Y80922
X44693Y73922
X44693Y66942
X44693Y65782
X44693Y59922
X44693Y58802
X44712Y79782
X44712Y72782
X44735Y82315
X44753Y54262
X44840Y91150
X44973Y65483
X44993Y79482
X44993Y72483
X45002Y58493
X45053Y54002
X45253Y85437
X45352Y53742
X45613Y56242
X45627Y84187
X45633Y77202
X45633Y70202
X45633Y63222
X45750Y85940
X46252Y86187
X46252Y83687
X46493Y81022
X46493Y70942
X46493Y63963
X46493Y59962
X46503Y82387
X46503Y77982
X46503Y75222
X46503Y68202
X46503Y61302
X46503Y56863
X46512Y74022
X46512Y72882
X46512Y72082
X46512Y67002
X46512Y65142
X46512Y58922
X46512Y58102
X46533Y79902
X46533Y79122
X46533Y65922
X46590Y91400
X46750Y85690
X46753Y83537
X46903Y53813
X47178Y84213
X47233Y76762
X47253Y86437
X47253Y62542
X47253Y55562
X47273Y69762
X47840Y90550
X47993Y79182
X47993Y65183
X47993Y58182
X48012Y72183
X48253Y77922
X48253Y63937
X48253Y56863
X48253Y54337
X48278Y70937
X48453Y53787
X48653Y83837
X48653Y83487
X48653Y82963
X48653Y54562
X48903Y54837
X49003Y53612
X49178Y55063
X49577Y53413
X49628Y56137
X49828Y55862
X49978Y53113
X50002Y55537
X50173Y55243
X50303Y82963
X50353Y54962
X50473Y71562
X50493Y78542
X50493Y64562
X50493Y57563
X50570Y94140
X50640Y91150
X50653Y80722
X50653Y66882
X50673Y73842
X50673Y72822
X50673Y59862
X50673Y58782
X50693Y65803
X50713Y79782
X50735Y82335
X50753Y86462
X50853Y94587
X50913Y65483
X50933Y72483
X50973Y79482
X50973Y58482
X51178Y94837
X51252Y85437
X51303Y52912
X51633Y77202
X51633Y70202
X51633Y63222
X51633Y56222
X51703Y84213
X51753Y85937
X51803Y52713
X52253Y86187
X52253Y83487
X52303Y52512
X52453Y51962
X52493Y82412
X52493Y81002
X52493Y70922
X52502Y75222
X52502Y68242
X52502Y63963
X52502Y61262
X52502Y56902
X52513Y79102
X52513Y77922
X52513Y73983
X52513Y58082
X52532Y79882
X52532Y72122
X52532Y66962
X52532Y65903
X52532Y65102
X52532Y60002
X52532Y58882
X52573Y72922
X52745Y85685
X52753Y83512
X53233Y62522
X53253Y84213
X53253Y76762
X53253Y55562
X53273Y69762
X53515Y94765
X53540Y93000
X53703Y51712
X53870Y94450
X53993Y72183
X53993Y65183
X53993Y58182
X54012Y79182
X54040Y90890
X54053Y51712
X54253Y77937
X54253Y70912
X54253Y63937
X54253Y56912
X54312Y53602
X54403Y51712
X54453Y53042
X54628Y82963
X54633Y53342
X54650Y90800
X54700Y92970
X54712Y52822
X54753Y51712
X54878Y83588
X54903Y83962
X55053Y52782
X55073Y52443
X55103Y51712
X55328Y85763
X55373Y52302
X55413Y51962
X55490Y93000
X55540Y90900
X56085Y94140
X56090Y92095
X56090Y90770
X56178Y85138
X56378Y82963
X56452Y78542
X56493Y71543
X56493Y64562
X56493Y60002
X56493Y57563
X56693Y80862
X56693Y79822
X56693Y73803
X56693Y66903
X56693Y65822
X56713Y72742
X56713Y58822
X56745Y82360
X56933Y72442
X56940Y93450
X56943Y79452
X56990Y91500
X57003Y65512
X57003Y58512
X57328Y86362
X57477Y90212
X57603Y86612
X57633Y56222
X57653Y77212
X57653Y70213
X57653Y63162
X57753Y84213
X57840Y92500
X58270Y90070
X58390Y92500
X58493Y81042
X58493Y74043
X58493Y60022
X58493Y58082
X58503Y82362
X58503Y77942
X58503Y75262
X58503Y70942
X58503Y68242
X58503Y63942
X58503Y61242
X58503Y56863
X58512Y79062
X58512Y72063
X58512Y65062
X58533Y72842
X58533Y66983
X58553Y79862
X58553Y65822
X58578Y83687
X58933Y58802
X59153Y84213
X59253Y55562
X59272Y69762
X59293Y62522
X59312Y76762
X59590Y87200
X59640Y92500
X59640Y91500
X59993Y79182
X60012Y72183
X60012Y65183
X60012Y58182
X60253Y77937
X60253Y70937
X60253Y63937
X60253Y56863
X60640Y85000
X60653Y83937
X60653Y83012
X60890Y93500
X60940Y90500
X61653Y83012
X61673Y56222
X61893Y79522
X61893Y72542
X61893Y65502
X61893Y59702
X62173Y59382
X62193Y79202
X62193Y72183
X62193Y65183
X62452Y84213
X62452Y76762
X62452Y69762
X62452Y62522
X62702Y84662
X62713Y77662
X62713Y70642
X62713Y63682
X130840Y61125
X121840Y61250
X130340Y61250
X122340Y61400
X129840Y61400
X122840Y61550
X129340Y61550
X128840Y61675
X123340Y61700
X128340Y61825
X123840Y61850
X119365Y61950
X127840Y61975
X124365Y62000
X127340Y62125
X124890Y62150
X126840Y62275
X125315Y62300
X142290Y75150
X142290Y75650
X141965Y76150
X141965Y76650
X141665Y77150
X141665Y77650
X141365Y78150
X141365Y78650
X141365Y81150
X141365Y81650
X141640Y82150
X141640Y82650
X141915Y83150
X141915Y83650
X142215Y84150
X142215Y84650
X125340Y97500
X126840Y97525
X124840Y97625
X133015Y97650
X127340Y97675
X124340Y97800
X127840Y97825
X123840Y97925
X128340Y97975
X123340Y98075
X128840Y98125
X122840Y98225
X129365Y98250
X122340Y98350
X129840Y98400
X121840Y98500
X130340Y98550
X121340Y98625
T02C0.023500
X9575Y7875
X21725Y8500
X10950Y8925
X10250Y9550
X3430Y10030
X13450Y11700
X15750Y11800
X17750Y11800
X6550Y15500
X16800Y15700
X10250Y15950
X6550Y16500
X12500Y16700
X10200Y16750
X6650Y17000
X18770Y17000
X17760Y17090
X16800Y17100
X20270Y17650
X11525Y18675
X19200Y18750
X12750Y19125
X9575Y19675
X15655Y19700
X12830Y20185
X13545Y20270
X7275Y20385
X11360Y20555
X8805Y20565
X12525Y20600
X14125Y20800
X11890Y21015
X13520Y21385
X8750Y21800
X19300Y22150
X22175Y22225
X13090Y22265
X8250Y22400
X21550Y22675
X3350Y22850
X13415Y23290
X12720Y23640
X24750Y23640
X19320Y24030
X12610Y24110
X29310Y24750
X18120Y24960
X16138Y24992
X12125Y25000
X14075Y25000
X3400Y25100
X11125Y25150
X28970Y25170
X28380Y25755
X19690Y25790
X14605Y25985
X12595Y26000
X28880Y26260
X13338Y26350
X18800Y26715
X13316Y27070
X2575Y27175
X13640Y27455
X22200Y27475
X23375Y27475
X14025Y27700
X8990Y28840
X18370Y29890
X22180Y29990
X8835Y30270
X12225Y30325
X11000Y30350
X16875Y30525
X17300Y30925
X19640Y30940
X17990Y30950
X12600Y31125
X20180Y31560
X18450Y31690
X3950Y32220
X24630Y32340
X11075Y32550
X13050Y32825
X9375Y32925
X10290Y33150
X12025Y33400
X21650Y33640
X15630Y34450
X14460Y34453
X8297Y34607
X19896Y34662
X24600Y34700
X12975Y34975
X15770Y35260
X17750Y35275
X10160Y35300
X22780Y35495
X19900Y35670
X6530Y35740
X10370Y35980
X22805Y36000
X12830Y36160
X24930Y36260
X20230Y36672
X22900Y36855
X25255Y37720
X22885Y38240
X24595Y38615
X25585Y39285
X3560Y40080
X26040Y40130
X22250Y40160
X5250Y43150
X3750Y43250
X5350Y45550
X3750Y46250
X7250Y46250
X1750Y47250
X4750Y47250
X41703Y3162
X41703Y2662
X42203Y3162
X42203Y2662
X42703Y3162
X42703Y2662
X43203Y3162
X43203Y2662
X43703Y3162
X43703Y2662
X44203Y3162
X44203Y2662
X44703Y3162
X44703Y2662
X45202Y3162
X45202Y2662
X45703Y3162
X45703Y2662
X46203Y3162
X46203Y2662
X46703Y3162
X46703Y2662
X47203Y3162
X47203Y2662
X47702Y3162
X47702Y2662
X48203Y3162
X48203Y2662
X48703Y3162
X48703Y2662
X49203Y3162
X49203Y2662
X49703Y3162
X49703Y2662
X50202Y3162
X50202Y2662
X50703Y3162
X50703Y2662
X51203Y3162
X51203Y2662
X75453Y3162
X75453Y2662
X75953Y3162
X75953Y2662
X76453Y3162
X76453Y2662
X76953Y3162
X76953Y2662
X77453Y3162
X77453Y2662
X77953Y3162
X77953Y2662
X78453Y3162
X78453Y2662
X78952Y3162
X78952Y2662
X79453Y3162
X79453Y2662
X79953Y3162
X79953Y2662
X80453Y3162
X80453Y2662
X80953Y3162
X80953Y2662
X81452Y3162
X81452Y2662
X81953Y3162
X81953Y2662
X82453Y3162
X82453Y2662
X82953Y3162
X82953Y2662
X83453Y3162
X83453Y2662
X83952Y3162
X83952Y2662
X84453Y3162
X84453Y2662
X84953Y3162
X84953Y2662
X100455Y4390
X102215Y12455
X102715Y12110
X103220Y11770
X103710Y11440
X105215Y11770
X105660Y11435
X106230Y12455
X107205Y12100
X107215Y17400
X107225Y15540
X107675Y2650
X108085Y6695
X108185Y12980
X108820Y11095
X108930Y15590
X108985Y5315
X109455Y15235
X109645Y12365
X109755Y8460
X110245Y11595
X110275Y8460
X110590Y3970
X110755Y8465
X110785Y11700
X111190Y17985
X111465Y11710
X111660Y18330
X111930Y11735
X112115Y7620
X112301Y5620
X117945Y17970
X118065Y5200
X118285Y18330
X118615Y16220
X118620Y16930
X118965Y16550
X119030Y13395
X119105Y5660
X119135Y13850
X119625Y18285
X120015Y5950
X120090Y11825
X120240Y8675
X120615Y6850
X122395Y13050
X122465Y6580
X122955Y6470
X123265Y14350
X123445Y6580
X123775Y5700
X123865Y12050
X124425Y9450
X124445Y5700
X124865Y12050
X125338Y10833
X125425Y2910
X125845Y4140
X125965Y1960
X126145Y6460
X126525Y5250
X126755Y9680
X127035Y5280
X127645Y17180
X127695Y3150
X127735Y8620
X127735Y7160
X127745Y9730
X128075Y11590
X128085Y4130
X128215Y9410
X128245Y7130
X128275Y5230
X128735Y7130
X128735Y3140
X128865Y12100
X128875Y1705
X128925Y9730
X129205Y3150
X129225Y2070
X129665Y5620
X129725Y7120
X129745Y9660
X130095Y4655
X130115Y2490
X130195Y3030
X130245Y9680
X130465Y5350
X130755Y9740
X131235Y5850
X131635Y9720
X131910Y8710
X132255Y7100
X132355Y13740
X6000Y51250
X6500Y51250
X7000Y51250
X7500Y51250
X8000Y51250
X8500Y51250
X9000Y51250
X9500Y51250
X10000Y51250
X10500Y51250
X11000Y51250
X11500Y51250
X12000Y51250
X12500Y51250
X13000Y51250
X13500Y51250
X14000Y51250
X14500Y51250
X15000Y51250
X15500Y51250
X6000Y51750
X6500Y51750
X7000Y51750
X7500Y51750
X8000Y51750
X8500Y51750
X9000Y51750
X9500Y51750
X10000Y51750
X10500Y51750
X11000Y51750
X11500Y51750
X12000Y51750
X12500Y51750
X13000Y51750
X13500Y51750
X14000Y51750
X14500Y51750
X15000Y51750
X15500Y51750
X24750Y63500
X25250Y63500
X24750Y64000
X25250Y64000
X24750Y64500
X25250Y64500
X24750Y65000
X25250Y65000
X24750Y65500
X25250Y65500
X24750Y66000
X25250Y66000
X24750Y66500
X25250Y66500
X24750Y67000
X25250Y67000
X24750Y67500
X25250Y67500
X24750Y68000
X25250Y68000
X24750Y68500
X25250Y68500
X24750Y69000
X25250Y69000
X24750Y69500
X25250Y69500
X24750Y70000
X25250Y70000
X24750Y70500
X25250Y70500
X24750Y71000
X25250Y71000
X24750Y71500
X25250Y71500
X24750Y72000
X25250Y72000
X24750Y72500
X25250Y72500
X24750Y73000
X25250Y73000
X6000Y84750
X6500Y84750
X7000Y84750
X7500Y84750
X8000Y84750
X8500Y84750
X9000Y84750
X9500Y84750
X10000Y84750
X10500Y84750
X11000Y84750
X11500Y84750
X12000Y84750
X12500Y84750
X13000Y84750
X13500Y84750
X14000Y84750
X14500Y84750
X15000Y84750
X15500Y84750
X6000Y85250
X6500Y85250
X7000Y85250
X7500Y85250
X8000Y85250
X8500Y85250
X9000Y85250
X9500Y85250
X10000Y85250
X10500Y85250
X11000Y85250
X11500Y85250
X12000Y85250
X12500Y85250
X13000Y85250
X13500Y85250
X14000Y85250
X14500Y85250
X15000Y85250
X15500Y85250
X6000Y54250
X7000Y54250
X8000Y54250
X9000Y54250
X10000Y54250
X11000Y54250
X12000Y54250
X13000Y54250
X14000Y54250
X15000Y54250
X16000Y54250
X17000Y54250
X18000Y54250
X19000Y54250
X20000Y54250
X6000Y55250
X7000Y55250
X8000Y55250
X9000Y55250
X10000Y55250
X11000Y55250
X12000Y55250
X13000Y55250
X14000Y55250
X15000Y55250
X16000Y55250
X17000Y55250
X18000Y55250
X19000Y55250
X20000Y55250
X6000Y56250
X7000Y56250
X8000Y56250
X9000Y56250
X10000Y56250
X11000Y56250
X12000Y56250
X13000Y56250
X14000Y56250
X15000Y56250
X16000Y56250
X17000Y56250
X18000Y56250
X19000Y56250
X20000Y56250
X6000Y57250
X7000Y57250
X8000Y57250
X9000Y57250
X10000Y57250
X11000Y57250
X12000Y57250
X13000Y57250
X14000Y57250
X15000Y57250
X16000Y57250
X17000Y57250
X18000Y57250
X19000Y57250
X20000Y57250
X6000Y79250
X7000Y79250
X8000Y79250
X9000Y79250
X10000Y79250
X11000Y79250
X12000Y79250
X13000Y79250
X14000Y79250
X15000Y79250
X16000Y79250
X17000Y79250
X18000Y79250
X19000Y79250
X20000Y79250
X6000Y80250
X7000Y80250
X8000Y80250
X9000Y80250
X10000Y80250
X11000Y80250
X12000Y80250
X13000Y80250
X14000Y80250
X15000Y80250
X16000Y80250
X17000Y80250
X18000Y80250
X19000Y80250
X20000Y80250
X6000Y81250
X7000Y81250
X8000Y81250
X9000Y81250
X10000Y81250
X11000Y81250
X12000Y81250
X13000Y81250
X14000Y81250
X15000Y81250
X16000Y81250
X17000Y81250
X18000Y81250
X19000Y81250
X20000Y81250
X6000Y82250
X7000Y82250
X8000Y82250
X9000Y82250
X10000Y82250
X11000Y82250
X12000Y82250
X13000Y82250
X14000Y82250
X15000Y82250
X16000Y82250
X17000Y82250
X18000Y82250
X19000Y82250
X20000Y82250
X106515Y26275
X118665Y26900
X107890Y27325
X107190Y27950
X100370Y28430
X110390Y30100
X112690Y30200
X114690Y30200
X103490Y33900
X113740Y34100
X107190Y34350
X103490Y34900
X109440Y35100
X107140Y35150
X103590Y35400
X115710Y35400
X114700Y35490
X113740Y35500
X117210Y36050
X108465Y37075
X116140Y37150
X109690Y37525
X106515Y38075
X112595Y38100
X109770Y38585
X110485Y38670
X104215Y38785
X108300Y38955
X105745Y38965
X109465Y39000
X111065Y39200
X108830Y39415
X110460Y39785
X105690Y40200
X116240Y40550
X119115Y40625
X110030Y40665
X105190Y40800
X118490Y41075
X100290Y41250
X110355Y41690
X109660Y42040
X121690Y42040
X116260Y42430
X109550Y42510
X126250Y43150
X115060Y43360
X113078Y43392
X109065Y43400
X111015Y43400
X100340Y43500
X108065Y43550
X125910Y43570
X125320Y44155
X116630Y44190
X111545Y44385
X109535Y44400
X125820Y44660
X110278Y44750
X115740Y45115
X110256Y45470
X99515Y45575
X110580Y45855
X119140Y45875
X120315Y45875
X110965Y46100
X105930Y47240
X115310Y48290
X119120Y48390
X105775Y48670
X109165Y48725
X107940Y48750
X113815Y48925
X114240Y49325
X116580Y49340
X114930Y49350
X109540Y49525
X117120Y49960
X115390Y50090
X100890Y50620
X121570Y50740
X108015Y50950
X109990Y51225
X106315Y51325
X107230Y51550
X108965Y51800
X118590Y52040
X112570Y52850
X111400Y52853
X105237Y53007
X116836Y53062
X121540Y53100
X109915Y53375
X112710Y53660
X114690Y53675
X107100Y53700
X119720Y53895
X116840Y54070
X103470Y54140
X107310Y54380
X119745Y54400
X109770Y54560
X121870Y54660
X117170Y55072
X119840Y55255
X122195Y56120
X119825Y56640
X121535Y57015
X122525Y57685
X100500Y58480
X122980Y58530
X119190Y58560
X129030Y23650
X129130Y25150
X131430Y23550
X132130Y25150
X132130Y21650
X133130Y27150
X133130Y24150
X139430Y24350
X139930Y24350
X139430Y24850
X139930Y24850
X139430Y25350
X139930Y25350
X139430Y25850
X139930Y25850
X139430Y26350
X139930Y26350
X139430Y26850
X139930Y26850
X139430Y27350
X139930Y27350
X139430Y27850
X139930Y27850
X139430Y28350
X139930Y28350
X139430Y28850
X139930Y28850
X139430Y29350
X139930Y29350
X139430Y29850
X139930Y29850
X139430Y30350
X139930Y30350
X139430Y30850
X139930Y30850
X139430Y31350
X139930Y31350
X139430Y31850
X139930Y31850
X139430Y32350
X139930Y32350
X139430Y32850
X139930Y32850
X139430Y33350
X139930Y33350
X139430Y33850
X139930Y33850
X75453Y51912
X75453Y51412
X75953Y51912
X75953Y51412
X76453Y51912
X76453Y51412
X76953Y51912
X76953Y51412
X77453Y51912
X77453Y51412
X77953Y51912
X77953Y51412
X78453Y51912
X78453Y51412
X78952Y51912
X78952Y51412
X79453Y51912
X79453Y51412
X79953Y51912
X79953Y51412
X80453Y51912
X80453Y51412
X80953Y51912
X80953Y51412
X81452Y51912
X81452Y51412
X81953Y51912
X81953Y51412
X82453Y51912
X82453Y51412
X82953Y51912
X82953Y51412
X83453Y51912
X83453Y51412
X83952Y51912
X83952Y51412
X84453Y51912
X84453Y51412
X84953Y51912
X84953Y51412
X2650Y92750
X2750Y94250
X5050Y92650
X5750Y94250
X5750Y90750
X6750Y96250
X6750Y93250
X41703Y51912
X41703Y51412
X42203Y51912
X42203Y51412
X42703Y51912
X42703Y51412
X43203Y51912
X43203Y51412
X43703Y51912
X43703Y51412
X44203Y51912
X44203Y51412
X44703Y51912
X44703Y51412
X45202Y51912
X45202Y51412
X45703Y51912
X45703Y51412
X46203Y51912
X46203Y51412
X46703Y51912
X46703Y51412
X47203Y51912
X47203Y51412
X47702Y51912
X47702Y51412
X48203Y51912
X48203Y51412
X48703Y51912
X48703Y51412
X49203Y51912
X49203Y51412
X49703Y51912
X49703Y51412
X50202Y51912
X50202Y51412
X50703Y51912
X50703Y51412
X51203Y51912
X51203Y51412
X112200Y62415
X104135Y64175
X104480Y64675
X104820Y65180
X105150Y65670
X104820Y67175
X105155Y67620
X104135Y68190
X104490Y69165
X99190Y69175
X101050Y69185
X113940Y69635
X109895Y70045
X103610Y70145
X105495Y70780
X101000Y70890
X111275Y70945
X101355Y71415
X104225Y71605
X108130Y71715
X104995Y72205
X108130Y72235
X112620Y72550
X108125Y72715
X104890Y72745
X98605Y73150
X104880Y73425
X98260Y73620
X104855Y73890
X108970Y74075
X110970Y74261
X98620Y79905
X111390Y80025
X98260Y80245
X100370Y80575
X99660Y80580
X100040Y80925
X103195Y80990
X110930Y81065
X102740Y81095
X98305Y81585
X110640Y81975
X104765Y82050
X107915Y82200
X109740Y82575
X103540Y84355
X110010Y84425
X110120Y84915
X102240Y85225
X110010Y85405
X110890Y85735
X104540Y85825
X107140Y86385
X110890Y86405
X104540Y86825
X105757Y87298
X113680Y87385
X112450Y87805
X114630Y87925
X110130Y88105
X111340Y88485
X106910Y88715
X111310Y88995
X99410Y89605
X113440Y89655
X107970Y89695
X109430Y89695
X106860Y89705
X105000Y90035
X112460Y90045
X107180Y90175
X109460Y90205
X111360Y90235
X109460Y90695
X113450Y90695
X104490Y90825
X114885Y90835
X106860Y90885
X113440Y91165
X114520Y91185
X110970Y91625
X109470Y91685
X106930Y91705
X111935Y92055
X114100Y92075
X113560Y92155
X106910Y92205
X111240Y92425
X106850Y92715
X110740Y93195
X106870Y93595
X107880Y93870
X109490Y94215
X102850Y94315
X129030Y32900
X129130Y34400
X131430Y32800
X132130Y34400
X132130Y30900
X133130Y36400
X133130Y33400
X13200Y92950
X13200Y92450
X13700Y92950
X13700Y92450
X14200Y92950
X14200Y92450
X14700Y92950
X14700Y92450
X15200Y92950
X15200Y92450
X15700Y92950
X15700Y92450
X16200Y92950
X16200Y92450
X16700Y92950
X16700Y92450
X17200Y92950
X17200Y92450
X17700Y92950
X17700Y92450
X18200Y92950
X18200Y92450
X18700Y92950
X18700Y92450
X19200Y92950
X19200Y92450
X19700Y92950
X19700Y92450
X20200Y92950
X20200Y92450
X20700Y92950
X20700Y92450
X21200Y92950
X21200Y92450
X21700Y92950
X21700Y92450
X22200Y92950
X22200Y92450
X22700Y92950
X22700Y92450
X132180Y44850
X132680Y44850
X132180Y45350
X132680Y45350
X132180Y45850
X132680Y45850
X132180Y46350
X132680Y46350
X132180Y46850
X132680Y46850
X132180Y47350
X132680Y47350
X132180Y47850
X132680Y47850
X132180Y48350
X132680Y48350
X132180Y48850
X132680Y48850
X132180Y49350
X132680Y49350
X132180Y49850
X132680Y49850
X132180Y50350
X132680Y50350
X132180Y50850
X132680Y50850
X132180Y51350
X132680Y51350
X132180Y51850
X132680Y51850
X132180Y52350
X132680Y52350
X132180Y52850
X132680Y52850
X132180Y53350
X132680Y53350
X132180Y53850
X132680Y53850
X132180Y54350
X132680Y54350
X121340Y62900
X121840Y62900
X122340Y62900
X122840Y62900
X123340Y62900
X123840Y62900
X124340Y62900
X124840Y62900
X125340Y62900
X125840Y62900
X126340Y62900
X126840Y62900
X127340Y62900
X127840Y62900
X128340Y62900
X128840Y62900
X129340Y62900
X129840Y62900
X130340Y62900
X130840Y62900
X121340Y63400
X121840Y63400
X122340Y63400
X122840Y63400
X123340Y63400
X123840Y63400
X124340Y63400
X124840Y63400
X125340Y63400
X125840Y63400
X126340Y63400
X126840Y63400
X127340Y63400
X127840Y63400
X128340Y63400
X128840Y63400
X129340Y63400
X129840Y63400
X130340Y63400
X130840Y63400
X140090Y75150
X140590Y75150
X140090Y75650
X140590Y75650
X140090Y76150
X140590Y76150
X140090Y76650
X140590Y76650
X140090Y77150
X140590Y77150
X140090Y77650
X140590Y77650
X140090Y78150
X140590Y78150
X140090Y78650
X140590Y78650
X140090Y79150
X140590Y79150
X140090Y79650
X140590Y79650
X140090Y80150
X140590Y80150
X140090Y80650
X140590Y80650
X140090Y81150
X140590Y81150
X140090Y81650
X140590Y81650
X140090Y82150
X140590Y82150
X140090Y82650
X140590Y82650
X140090Y83150
X140590Y83150
X140090Y83650
X140590Y83650
X140090Y84150
X140590Y84150
X140090Y84650
X140590Y84650
X121340Y96400
X121840Y96400
X122340Y96400
X122840Y96400
X123340Y96400
X123840Y96400
X124340Y96400
X124840Y96400
X125340Y96400
X125840Y96400
X126340Y96400
X126840Y96400
X127340Y96400
X127840Y96400
X128340Y96400
X128840Y96400
X129340Y96400
X129840Y96400
X130340Y96400
X130840Y96400
X121340Y96900
X121840Y96900
X122340Y96900
X122840Y96900
X123340Y96900
X123840Y96900
X124340Y96900
X124840Y96900
X125340Y96900
X125840Y96900
X126340Y96900
X126840Y96900
X127340Y96900
X127840Y96900
X128340Y96900
X128840Y96900
X129340Y96900
X129840Y96900
X130340Y96900
X130840Y96900
X121340Y65900
X122340Y65900
X123340Y65900
X124340Y65900
X125340Y65900
X126340Y65900
X127340Y65900
X128340Y65900
X129340Y65900
X130340Y65900
X131340Y65900
X132340Y65900
X133340Y65900
X134340Y65900
X135340Y65900
X121340Y66900
X122340Y66900
X123340Y66900
X124340Y66900
X125340Y66900
X126340Y66900
X127340Y66900
X128340Y66900
X129340Y66900
X130340Y66900
X131340Y66900
X132340Y66900
X133340Y66900
X134340Y66900
X135340Y66900
X121340Y67900
X122340Y67900
X123340Y67900
X124340Y67900
X125340Y67900
X126340Y67900
X127340Y67900
X128340Y67900
X129340Y67900
X130340Y67900
X131340Y67900
X132340Y67900
X133340Y67900
X134340Y67900
X135340Y67900
X121340Y68900
X122340Y68900
X123340Y68900
X124340Y68900
X125340Y68900
X126340Y68900
X127340Y68900
X128340Y68900
X129340Y68900
X130340Y68900
X131340Y68900
X132340Y68900
X133340Y68900
X134340Y68900
X135340Y68900
X121340Y90900
X122340Y90900
X123340Y90900
X124340Y90900
X125340Y90900
X126340Y90900
X127340Y90900
X128340Y90900
X129340Y90900
X130340Y90900
X131340Y90900
X132340Y90900
X133340Y90900
X134340Y90900
X135340Y90900
X121340Y91900
X122340Y91900
X123340Y91900
X124340Y91900
X125340Y91900
X126340Y91900
X127340Y91900
X128340Y91900
X129340Y91900
X130340Y91900
X131340Y91900
X132340Y91900
X133340Y91900
X134340Y91900
X135340Y91900
X121340Y92900
X122340Y92900
X123340Y92900
X124340Y92900
X125340Y92900
X126340Y92900
X127340Y92900
X128340Y92900
X129340Y92900
X130340Y92900
X131340Y92900
X132340Y92900
X133340Y92900
X134340Y92900
X135340Y92900
X121340Y93900
X122340Y93900
X123340Y93900
X124340Y93900
X125340Y93900
X126340Y93900
X127340Y93900
X128340Y93900
X129340Y93900
X130340Y93900
X131340Y93900
X132340Y93900
X133340Y93900
X134340Y93900
X135340Y93900
T03C0.031000
X2000Y8550
X2000Y9550
X2000Y10550
X2000Y11550
X21000Y12150
X2000Y12550
X21000Y13150
X2000Y13550
X21000Y14150
X2000Y14550
X21000Y15150
X2000Y15550
X21000Y16150
X2000Y16550
X21000Y17150
X2000Y17550
X21000Y18150
X2000Y19150
X21000Y19150
X2000Y20150
X2000Y21150
X21000Y21150
X2000Y22150
X21000Y22150
X2000Y23150
X21000Y23150
X2000Y24150
X21000Y24150
X24750Y24750
X25750Y24750
X2000Y25150
X21000Y25150
X24750Y25750
X25750Y25750
X2000Y26150
X21000Y26150
X10000Y26200
X11000Y26200
X12000Y26200
X24750Y26750
X25750Y26750
X21000Y27150
X10000Y27200
X11000Y27200
X12000Y27200
X24750Y27750
X25750Y27750
X2000Y28150
X21000Y28150
X24750Y28750
X25750Y28750
X2000Y29150
X2000Y30150
X21000Y30150
X2000Y31150
X21000Y31150
X2000Y32150
X21000Y32150
X2000Y33150
X21000Y33150
X2000Y34150
X21000Y34150
X2000Y35150
X21000Y35150
X21000Y36150
X21000Y37150
X2000Y38150
X3000Y38150
X4000Y38150
X5000Y38150
X6000Y38150
X7000Y38150
X8000Y38150
X9000Y38150
X10000Y38150
X11000Y38150
X12000Y38150
X13000Y38150
X14000Y38150
X15000Y38150
X16000Y38150
X17000Y38150
X18000Y38150
X19000Y38150
X2000Y39150
X3000Y39150
X4000Y39150
X5000Y39150
X6000Y39150
X7000Y39150
X8000Y39150
X9000Y39150
X10000Y39150
X11000Y39150
X12000Y39150
X13000Y39150
X14000Y39150
X15000Y39150
X16000Y39150
X17000Y39150
X18000Y39150
X19000Y39150
X1750Y42250
X2750Y42250
X3750Y42250
X4750Y42250
X6750Y42250
X7750Y42250
X8750Y42250
X37752Y41237
X37752Y38237
X38753Y41237
X38753Y38237
X39753Y41237
X39753Y38237
X40753Y41237
X40753Y38237
X41753Y41237
X41753Y38237
X42753Y41237
X42753Y38237
X43753Y41237
X43753Y38237
X44753Y41237
X44753Y38237
X45753Y41237
X45753Y38237
X46753Y41237
X46753Y38237
X47753Y41237
X47753Y38237
X48752Y41237
X48752Y38237
X49753Y41237
X49753Y38237
X50753Y41237
X50753Y38237
X54853Y47012
X54853Y46013
X55853Y47012
X55853Y46013
X56852Y47012
X56852Y46013
X57853Y47012
X57853Y46013
X58853Y47012
X58853Y46013
X37852Y43012
X39853Y43012
X71502Y41237
X71502Y38237
X72503Y41237
X72503Y38237
X73503Y41237
X73503Y38237
X74503Y41237
X74503Y38237
X75503Y41237
X75503Y38237
X76503Y41237
X76503Y38237
X77503Y41237
X77503Y38237
X78503Y41237
X78503Y38237
X79503Y41237
X79503Y38237
X80503Y41237
X80503Y38237
X81503Y41237
X81503Y38237
X82502Y41237
X82502Y38237
X83503Y41237
X83503Y38237
X84503Y41237
X84503Y38237
X88603Y47012
X88603Y46013
X89603Y47012
X89603Y46013
X90602Y47012
X90602Y46013
X91603Y47012
X91603Y46013
X92603Y47012
X92603Y46013
X71602Y43012
X73603Y43012
X102215Y17400
X102215Y16400
X102215Y3650
X102215Y2650
X103215Y17400
X103215Y16400
X103215Y3650
X103215Y2650
X104215Y17400
X104215Y16400
X104215Y3650
X104215Y2650
X105215Y17400
X105215Y16400
X105215Y3650
X105215Y2650
X106215Y17400
X106215Y16400
X106215Y3650
X106215Y2650
X120355Y15400
X120355Y12400
X121355Y15400
X121355Y12400
X122355Y15400
X122355Y12400
X123355Y15400
X123355Y12400
X124355Y15400
X124355Y12400
X125355Y15400
X125355Y12400
X126355Y15400
X126355Y12400
X127355Y15400
X127355Y12400
X128355Y15400
X128355Y12400
X129355Y15400
X129355Y12400
X130355Y15400
X130355Y12400
X131355Y15400
X131355Y12400
X132355Y15400
X132355Y12400
X133355Y15400
X133355Y12400
X124745Y17240
X126745Y17240
X98940Y26950
X98940Y27950
X98940Y28950
X98940Y29950
X117940Y30550
X98940Y30950
X117940Y31550
X98940Y31950
X117940Y32550
X98940Y32950
X117940Y33550
X98940Y33950
X117940Y34550
X98940Y34950
X117940Y35550
X98940Y35950
X117940Y36550
X98940Y37550
X117940Y37550
X98940Y38550
X98940Y39550
X117940Y39550
X98940Y40550
X117940Y40550
X98940Y41550
X117940Y41550
X98940Y42550
X117940Y42550
X121690Y43150
X122690Y43150
X98940Y43550
X117940Y43550
X121690Y44150
X122690Y44150
X98940Y44550
X117940Y44550
X106940Y44600
X107940Y44600
X108940Y44600
X121690Y45150
X122690Y45150
X117940Y45550
X106940Y45600
X107940Y45600
X108940Y45600
X121690Y46150
X122690Y46150
X98940Y46550
X117940Y46550
X121690Y47150
X122690Y47150
X98940Y47550
X98940Y48550
X117940Y48550
X98940Y49550
X117940Y49550
X98940Y50550
X117940Y50550
X98940Y51550
X117940Y51550
X98940Y52550
X117940Y52550
X98940Y53550
X117940Y53550
X117940Y54550
X117940Y55550
X98940Y56550
X99940Y56550
X100940Y56550
X101940Y56550
X102940Y56550
X103940Y56550
X104940Y56550
X105940Y56550
X106940Y56550
X107940Y56550
X108940Y56550
X109940Y56550
X110940Y56550
X111940Y56550
X112940Y56550
X113940Y56550
X114940Y56550
X115940Y56550
X98940Y57550
X99940Y57550
X100940Y57550
X101940Y57550
X102940Y57550
X103940Y57550
X104940Y57550
X105940Y57550
X106940Y57550
X107940Y57550
X108940Y57550
X109940Y57550
X110940Y57550
X111940Y57550
X112940Y57550
X113940Y57550
X114940Y57550
X115940Y57550
X128130Y27150
X128130Y26150
X128130Y25150
X128130Y24150
X128130Y22150
X128130Y21150
X128130Y20150
X71502Y89987
X71502Y86987
X72503Y89987
X72503Y86987
X73503Y89987
X73503Y86987
X74503Y89987
X74503Y86987
X75503Y89987
X75503Y86987
X76503Y89987
X76503Y86987
X77503Y89987
X77503Y86987
X78503Y89987
X78503Y86987
X79503Y89987
X79503Y86987
X80503Y89987
X80503Y86987
X81503Y89987
X81503Y86987
X82502Y89987
X82502Y86987
X83503Y89987
X83503Y86987
X84503Y89987
X84503Y86987
X88603Y95762
X88603Y94763
X89603Y95762
X89603Y94763
X90602Y95762
X90602Y94763
X91603Y95762
X91603Y94763
X92603Y95762
X92603Y94763
X71602Y91762
X73603Y91762
X1750Y96250
X1750Y95250
X1750Y94250
X1750Y93250
X1750Y91250
X1750Y90250
X1750Y89250
X37752Y89987
X37752Y86987
X38753Y89987
X38753Y86987
X39753Y89987
X39753Y86987
X40753Y89987
X40753Y86987
X41753Y89987
X41753Y86987
X42753Y89987
X42753Y86987
X43753Y89987
X43753Y86987
X44753Y89987
X44753Y86987
X45753Y89987
X45753Y86987
X46753Y89987
X46753Y86987
X47753Y89987
X47753Y86987
X48752Y89987
X48752Y86987
X49753Y89987
X49753Y86987
X50753Y89987
X50753Y86987
X54853Y95762
X54853Y94763
X55853Y95762
X55853Y94763
X56852Y95762
X56852Y94763
X57853Y95762
X57853Y94763
X58853Y95762
X58853Y94763
X37852Y91762
X39853Y91762
X99190Y64175
X100190Y64175
X112940Y64175
X113940Y64175
X99190Y65175
X100190Y65175
X112940Y65175
X113940Y65175
X99190Y66175
X100190Y66175
X112940Y66175
X113940Y66175
X99190Y67175
X100190Y67175
X112940Y67175
X113940Y67175
X99190Y68175
X100190Y68175
X112940Y68175
X113940Y68175
X101190Y82315
X104190Y82315
X101190Y83315
X104190Y83315
X101190Y84315
X104190Y84315
X101190Y85315
X104190Y85315
X101190Y86315
X104190Y86315
X101190Y87315
X104190Y87315
X101190Y88315
X104190Y88315
X101190Y89315
X104190Y89315
X101190Y90315
X104190Y90315
X101190Y91315
X104190Y91315
X101190Y92315
X104190Y92315
X101190Y93315
X104190Y93315
X101190Y94315
X104190Y94315
X101190Y95315
X104190Y95315
X99350Y86705
X99350Y88705
X128130Y36400
X128130Y35400
X128130Y34400
X128130Y33400
X128130Y31400
X128130Y30400
X128130Y29400
T04C0.037000
X20300Y6000
X21300Y6000
X26700Y6000
X27700Y6000
X113215Y13500
X114215Y13500
X117240Y24400
X118240Y24400
X123640Y24400
X124640Y24400
X103090Y75175
X103090Y76175
T05C0.040000
X15900Y21275
X16900Y21275
X17900Y21275
X15900Y22700
X16900Y22700
X17900Y22700
X17600Y27300
X13500Y28100
X14500Y28100
X15500Y28100
X17600Y28300
X13500Y29500
X14500Y29500
X15500Y29500
X13500Y30900
X14500Y30900
X15500Y30900
X27000Y34700
X28000Y34700
X29000Y34700
X27000Y36300
X28000Y36300
X29000Y36300
X27000Y37800
X28000Y37800
X29000Y37800
X27000Y39300
X28000Y39300
X29000Y39300
X43340Y45800
X44340Y45800
X45340Y45800
X46340Y45800
X47340Y45800
X48340Y45800
X51290Y43550
X51290Y42550
X55340Y40250
X55340Y39250
X56340Y40250
X56340Y39250
X57340Y40250
X57340Y39250
X59390Y40550
X59390Y39400
X60390Y40550
X60390Y39400
X51891Y40868
X51891Y38507
X53664Y40868
X53664Y38507
X77090Y45800
X78090Y45800
X79090Y45800
X80090Y45800
X81090Y45800
X82090Y45800
X85040Y43550
X85040Y42550
X89090Y40250
X89090Y39250
X90090Y40250
X90090Y39250
X91090Y40250
X91090Y39250
X93140Y40550
X93140Y39400
X94140Y40550
X94140Y39400
X85641Y40868
X85641Y38507
X87414Y40868
X87414Y38507
X108935Y13675
X109935Y13675
X118040Y14950
X118040Y13950
X118040Y12950
X119545Y17700
X119545Y16700
X120545Y17700
X120545Y16700
X121545Y17700
X121545Y16700
X131425Y16420
X131535Y17920
X132425Y16420
X132535Y17920
X133535Y17920
X134535Y17920
X135535Y17920
X136535Y17920
X134889Y14501
X134889Y12139
X136661Y14501
X136661Y12139
X112840Y39675
X113840Y39675
X114840Y39675
X112840Y41100
X113840Y41100
X114840Y41100
X114540Y45700
X110440Y46500
X111440Y46500
X112440Y46500
X114540Y46700
X110440Y47900
X111440Y47900
X112440Y47900
X110440Y49300
X111440Y49300
X112440Y49300
X123940Y53100
X124940Y53100
X125940Y53100
X123940Y54700
X124940Y54700
X125940Y54700
X123940Y56200
X124940Y56200
X125940Y56200
X123940Y57700
X124940Y57700
X125940Y57700
X139430Y37550
X77090Y94550
X78090Y94550
X79090Y94550
X80090Y94550
X81090Y94550
X82090Y94550
X85040Y92300
X85040Y91300
X89090Y89000
X89090Y88000
X90090Y89000
X90090Y88000
X91090Y89000
X91090Y88000
X93140Y89300
X93140Y88150
X94140Y89300
X94140Y88150
X85641Y89618
X85641Y87257
X87414Y89618
X87414Y87257
X43340Y94550
X44340Y94550
X45340Y94550
X46340Y94550
X47340Y94550
X48340Y94550
X51290Y92300
X51290Y91300
X55340Y89000
X55340Y88000
X56340Y89000
X56340Y88000
X57340Y89000
X57340Y88000
X59390Y89300
X59390Y88150
X60390Y89300
X60390Y88150
X51891Y89618
X51891Y87257
X53664Y89618
X53664Y87257
X102915Y70895
X102915Y71895
X101640Y80000
X102640Y80000
X103640Y80000
X98890Y81505
X99890Y81505
X98890Y82505
X99890Y82505
X98890Y83505
X99890Y83505
X100170Y93385
X98670Y93495
X100170Y94385
X98670Y94495
X98670Y95495
X98670Y96495
X98670Y97495
X98670Y98495
X102089Y96849
X104451Y96849
X102089Y98621
X104451Y98621
X26400Y92950
X132180Y58050
T06C0.050000
X5418Y19560
X7582Y19560
X5418Y21213
X7582Y21213
X5418Y22867
X7582Y22867
X5418Y24520
X7582Y24520
X5418Y26174
X7582Y26174
X5418Y27826
X7582Y27826
X5418Y29480
X7582Y29480
X5418Y31133
X7582Y31133
X5418Y32787
X7582Y32787
X5418Y34440
X7582Y34440
X41078Y2912
X51828Y2912
X74828Y2912
X85578Y2912
X5375Y51500
X16125Y51500
X25000Y62875
X25000Y73625
X5375Y85000
X16125Y85000
X102358Y37960
X104522Y37960
X102358Y39613
X104522Y39613
X102358Y41267
X104522Y41267
X102358Y42920
X104522Y42920
X102358Y44574
X104522Y44574
X102358Y46226
X104522Y46226
X102358Y47880
X104522Y47880
X102358Y49533
X104522Y49533
X102358Y51187
X104522Y51187
X102358Y52840
X104522Y52840
X139680Y23725
X139680Y34475
X74828Y51662
X85578Y51662
X41078Y51662
X51828Y51662
X12575Y92700
X23325Y92700
X132430Y44225
X132430Y54975
X120715Y63150
X131465Y63150
X140340Y74525
X140340Y85275
X120715Y96650
X131465Y96650
T07C0.061000
X25900Y8750
X27900Y8750
X25900Y10750
X27900Y10750
X26900Y9750
X32353Y48012
X32353Y46013
X34353Y48012
X34353Y46013
X37353Y48012
X37353Y46013
X39353Y48012
X39353Y46013
X42852Y43513
X44853Y43513
X46852Y43513
X48853Y43513
X33353Y47012
X38353Y47012
X66103Y48012
X66103Y46013
X68103Y48012
X68103Y46013
X71103Y48012
X71103Y46013
X73103Y48012
X73103Y46013
X76602Y43513
X78603Y43513
X80602Y43513
X82603Y43513
X67103Y47012
X72103Y47012
X122840Y27150
X124840Y27150
X122840Y29150
X124840Y29150
X123840Y28150
X66103Y96762
X66103Y94763
X68103Y96762
X68103Y94763
X71103Y96762
X71103Y94763
X73103Y96762
X73103Y94763
X76602Y92263
X78603Y92263
X80602Y92263
X82603Y92263
X67103Y95762
X72103Y95762
X32353Y96762
X32353Y94763
X34353Y96762
X34353Y94763
X37353Y96762
X37353Y94763
X39353Y96762
X39353Y94763
X42852Y92263
X44853Y92263
X46852Y92263
X48853Y92263
X33353Y95762
X38353Y95762
T08C0.073000
X3420Y5218
X5074Y5218
X6726Y5218
X8380Y5218
X10920Y5218
X12574Y5218
X14226Y5218
X15880Y5218
X3420Y7382
X5074Y7382
X6726Y7382
X8380Y7382
X10920Y7382
X12574Y7382
X14226Y7382
X15880Y7382
X22918Y14270
X25082Y14270
X22918Y15924
X25082Y15924
X22918Y17576
X25082Y17576
X22918Y19230
X25082Y19230
X111685Y6772
X111685Y4608
X113339Y6772
X113339Y4608
X114991Y6772
X114991Y4608
X116645Y6772
X116645Y4608
X100360Y23618
X102014Y23618
X103666Y23618
X105320Y23618
X107860Y23618
X109514Y23618
X111166Y23618
X112820Y23618
X100360Y25782
X102014Y25782
X103666Y25782
X105320Y25782
X107860Y25782
X109514Y25782
X111166Y25782
X112820Y25782
X119858Y32670
X122022Y32670
X119858Y34324
X122022Y34324
X119858Y35976
X122022Y35976
X119858Y37630
X122022Y37630
X109818Y73645
X111982Y73645
X109818Y75299
X111982Y75299
X109818Y76951
X111982Y76951
X109818Y78605
X111982Y78605
T09C0.079000
X18300Y4000
X22300Y4000
X24700Y4000
X28700Y4000
X112215Y15500
X116215Y15500
X115240Y22400
X119240Y22400
X121640Y22400
X125640Y22400
X101090Y74175
X101090Y78175
T10C0.099000
X25450Y22450
X25450Y31050
X7406Y17709
X7406Y36291
X41853Y44512
X49853Y44512
X52553Y46712
X61153Y46712
X75603Y44512
X83603Y44512
X86303Y46712
X94903Y46712
X99915Y17100
X99915Y2950
X108515Y17100
X108515Y2950
X122390Y40850
X122390Y49450
X104346Y36109
X104346Y54691
X75603Y93262
X83603Y93262
X86303Y95462
X94903Y95462
X41853Y93262
X49853Y93262
X52553Y95462
X61153Y95462
X99490Y61875
X113640Y61875
X99490Y70475
X113640Y70475
T11C0.119000
X3420Y2343
X8380Y2343
X10920Y2343
X15880Y2343
X27957Y14270
X27957Y19230
X4450Y10820
X23600Y10820
X31940Y43000
X31940Y2500
X61940Y43000
X61940Y2500
X65690Y43000
X65690Y2500
X95690Y43000
X95690Y2500
X114715Y8825
X133840Y8825
X111685Y1733
X116645Y1733
X3000Y54250
X24500Y54250
X3000Y82250
X24500Y82250
X100360Y20743
X105320Y20743
X107860Y20743
X112820Y20743
X124897Y32670
X124897Y37630
X101390Y29220
X120540Y29220
X65690Y91750
X65690Y51250
X95690Y91750
X95690Y51250
X31940Y91750
X31940Y51250
X61940Y91750
X61940Y51250
X107765Y76675
X107765Y95800
X114857Y73645
X114857Y78605
X118340Y65900
X139840Y65900
X118340Y93900
X139840Y93900
T12C0.125000
X2000Y36650
X21000Y39150
X98940Y55050
X117940Y57550
T13C0.157000
X43853Y47512
X47852Y47512
X77603Y47512
X81602Y47512
X77603Y96262
X81602Y96262
X43853Y96262
X47852Y96262
M30
