G75*
G70*
%OFA0B0*%
%FSLAX25Y25*%
%IPPOS*%
%LPD*%
%AMOC8*
5,1,8,0,0,1.08239X$1,22.5*
%
%ADD101C,0.13575*%
%ADD102C,0.00000*%
%ADD104C,0.00591*%
%ADD105C,0.12000*%
%ADD109C,0.15355*%
%ADD11C,0.07000*%
%ADD111R,0.21290X0.21290*%
%ADD116R,0.16575X0.16575*%
%ADD118R,0.11575X0.11575*%
%ADD119C,0.18000*%
%ADD123C,0.13810*%
%ADD127R,0.04000X0.07000*%
%ADD128R,0.04575X0.06575*%
%ADD129R,0.07575X0.09575*%
%ADD13C,0.05940*%
%ADD130R,0.12040X0.16760*%
%ADD131R,0.06500X0.04000*%
%ADD134R,0.09090X0.08290*%
%ADD135O,0.12000X0.08000*%
%ADD138R,0.07000X0.04000*%
%ADD14R,0.12000X0.12000*%
%ADD15C,0.17710*%
%ADD16C,0.13386*%
%ADD18R,0.07500X0.07500*%
%ADD19R,0.04725X0.05515*%
%ADD20R,0.07865X0.08665*%
%ADD22C,0.11449*%
%ADD29R,0.05940X0.05150*%
%ADD31C,0.16575*%
%ADD34R,0.07575X0.07575*%
%ADD40C,0.17575*%
%ADD42R,0.05150X0.05940*%
%ADD43C,0.07175*%
%ADD44R,0.08000X0.10000*%
%ADD45C,0.15780*%
%ADD46R,0.07075X0.07075*%
%ADD47C,0.14000*%
%ADD53C,0.08000*%
%ADD54R,0.08665X0.07865*%
%ADD58R,0.10000X0.08000*%
%ADD60R,0.08290X0.09090*%
%ADD65R,0.03075X0.06575*%
%ADD68C,0.07075*%
%ADD70R,0.03935X0.07085*%
%ADD71C,0.14500*%
%ADD72R,0.09575X0.07575*%
%ADD74R,0.03575X0.06075*%
%ADD75R,0.08000X0.08000*%
%ADD76R,0.16760X0.12040*%
%ADD83C,0.07600*%
%ADD84C,0.07575*%
%ADD86C,0.07500*%
%ADD91O,0.08000X0.12000*%
%ADD93R,0.09000X0.09000*%
%ADD95R,0.04000X0.06500*%
%ADD96C,0.17500*%
%ADD97C,0.11843*%
%ADD99C,0.13811*%
X0010000Y0010000D02*
G01*
D104*
D119*
X0025000Y0430000D03*
X0025000Y0025000D03*
X0325000Y0025000D03*
X0325000Y0430000D03*
D11*
X0223870Y0029130D03*
X0116370Y0029130D03*
D13*
X0212620Y0031630D03*
X0217620Y0031630D03*
X0217620Y0026630D03*
X0212620Y0026630D03*
X0197620Y0026630D03*
X0192620Y0026630D03*
X0202620Y0026630D03*
X0207620Y0026630D03*
X0207620Y0031630D03*
X0202620Y0031630D03*
X0192620Y0031630D03*
X0197620Y0031630D03*
X0142620Y0026630D03*
X0137620Y0026630D03*
X0127620Y0026630D03*
X0132620Y0026630D03*
X0132620Y0031630D03*
X0127620Y0031630D03*
X0137620Y0031630D03*
X0142620Y0031630D03*
X0122620Y0031630D03*
X0122620Y0026630D03*
X0147620Y0026630D03*
X0147620Y0031630D03*
X0177620Y0031630D03*
X0172620Y0031630D03*
X0182620Y0031630D03*
X0187620Y0031630D03*
X0167620Y0031630D03*
X0162620Y0031630D03*
X0152620Y0031630D03*
X0157620Y0031630D03*
X0157620Y0026630D03*
X0152620Y0026630D03*
X0162620Y0026630D03*
X0167620Y0026630D03*
X0187620Y0026630D03*
X0182620Y0026630D03*
X0172620Y0026630D03*
X0177620Y0026630D03*
D47*
X0317120Y0467130D03*
X0231120Y0467130D03*
D75*
X0254120Y0460130D03*
D53*
X0254120Y0470130D03*
X0264120Y0460130D03*
X0264120Y0470130D03*
X0274120Y0460130D03*
X0274120Y0470130D03*
X0284120Y0460130D03*
X0284120Y0470130D03*
X0294120Y0460130D03*
X0294120Y0470130D03*
D58*
X0050620Y0354630D03*
X0050620Y0341630D03*
X0065620Y0271630D03*
X0065620Y0284630D03*
X0050620Y0144630D03*
X0050620Y0131630D03*
X0035620Y0144630D03*
X0035620Y0131630D03*
X0125620Y0271630D03*
X0125620Y0284630D03*
X0125620Y0201630D03*
X0125620Y0214630D03*
X0095620Y0144630D03*
X0095620Y0131630D03*
X0035620Y0284630D03*
X0035620Y0271630D03*
X0065620Y0131630D03*
X0065620Y0144630D03*
X0065620Y0201630D03*
X0065620Y0214630D03*
X0035620Y0354630D03*
X0035620Y0341630D03*
X0290620Y0214630D03*
X0290620Y0201630D03*
X0290620Y0284630D03*
X0290620Y0271630D03*
X0035620Y0214630D03*
X0035620Y0201630D03*
X0050620Y0284630D03*
X0050620Y0271630D03*
X0050620Y0214630D03*
X0050620Y0201630D03*
X0110620Y0214630D03*
X0110620Y0201630D03*
X0170620Y0214630D03*
X0170620Y0201630D03*
X0170620Y0284630D03*
X0170620Y0271630D03*
X0230620Y0284630D03*
X0230620Y0271630D03*
X0230620Y0214630D03*
X0230620Y0201630D03*
X0110620Y0284630D03*
X0110620Y0271630D03*
X0170620Y0354630D03*
X0170620Y0341630D03*
X0155620Y0144630D03*
X0155620Y0131630D03*
X0245620Y0201630D03*
X0245620Y0214630D03*
X0245620Y0271630D03*
X0245620Y0284630D03*
X0245620Y0341630D03*
X0245620Y0354630D03*
X0275620Y0354630D03*
X0275620Y0341630D03*
X0305620Y0131130D03*
X0305620Y0144130D03*
X0275620Y0284630D03*
X0275620Y0271630D03*
X0290620Y0144130D03*
X0290620Y0131130D03*
X0215620Y0284630D03*
X0215620Y0271630D03*
X0215620Y0214630D03*
X0215620Y0201630D03*
X0185620Y0341630D03*
X0185620Y0354630D03*
X0185620Y0201630D03*
X0185620Y0214630D03*
X0230620Y0144630D03*
X0230620Y0131630D03*
X0215620Y0144630D03*
X0215620Y0131630D03*
X0185620Y0271630D03*
X0185620Y0284630D03*
X0215620Y0354630D03*
X0215620Y0341630D03*
X0245620Y0131630D03*
X0245620Y0144630D03*
X0230620Y0354630D03*
X0230620Y0341630D03*
X0275620Y0214630D03*
X0275620Y0201630D03*
X0290620Y0354630D03*
X0290620Y0341630D03*
X0275620Y0144130D03*
X0275620Y0131130D03*
X0305620Y0201630D03*
X0305620Y0214630D03*
X0305620Y0341630D03*
X0305620Y0354630D03*
X0305620Y0271630D03*
X0305620Y0284630D03*
X0110620Y0144630D03*
X0110620Y0131630D03*
X0095620Y0354630D03*
X0095620Y0341630D03*
X0065620Y0341630D03*
X0065620Y0354630D03*
X0170620Y0144630D03*
X0170620Y0131630D03*
X0155620Y0284630D03*
X0155620Y0271630D03*
X0095620Y0214630D03*
X0095620Y0201630D03*
X0095620Y0284630D03*
X0095620Y0271630D03*
X0110620Y0354630D03*
X0110620Y0341630D03*
X0185620Y0131630D03*
X0185620Y0144630D03*
X0155620Y0214630D03*
X0155620Y0201630D03*
X0155620Y0354630D03*
X0155620Y0341630D03*
X0125620Y0341630D03*
X0125620Y0354630D03*
X0125620Y0131630D03*
X0125620Y0144630D03*
D44*
X0125620Y0328130D03*
X0115620Y0328130D03*
X0105620Y0328130D03*
X0095620Y0328130D03*
X0095620Y0298130D03*
X0105620Y0298130D03*
X0115620Y0298130D03*
X0125620Y0298130D03*
X0065620Y0188130D03*
X0055620Y0188130D03*
X0045620Y0188130D03*
X0035620Y0188130D03*
X0035620Y0158130D03*
X0045620Y0158130D03*
X0055620Y0158130D03*
X0065620Y0158130D03*
X0185620Y0118130D03*
X0175620Y0118130D03*
X0165620Y0118130D03*
X0155620Y0118130D03*
X0155620Y0088130D03*
X0165620Y0088130D03*
X0175620Y0088130D03*
X0185620Y0088130D03*
X0245620Y0328130D03*
X0235620Y0328130D03*
X0225620Y0328130D03*
X0215620Y0328130D03*
X0215620Y0298130D03*
X0225620Y0298130D03*
X0235620Y0298130D03*
X0245620Y0298130D03*
X0185620Y0328130D03*
X0175620Y0328130D03*
X0165620Y0328130D03*
X0155620Y0328130D03*
X0155620Y0298130D03*
X0165620Y0298130D03*
X0175620Y0298130D03*
X0185620Y0298130D03*
X0065620Y0258130D03*
X0055620Y0258130D03*
X0045620Y0258130D03*
X0035620Y0258130D03*
X0035620Y0228130D03*
X0045620Y0228130D03*
X0055620Y0228130D03*
X0065620Y0228130D03*
X0185620Y0188130D03*
X0175620Y0188130D03*
X0165620Y0188130D03*
X0155620Y0188130D03*
X0155620Y0158130D03*
X0165620Y0158130D03*
X0175620Y0158130D03*
X0185620Y0158130D03*
X0065620Y0328130D03*
X0055620Y0328130D03*
X0045620Y0328130D03*
X0035620Y0328130D03*
X0035620Y0298130D03*
X0045620Y0298130D03*
X0055620Y0298130D03*
X0065620Y0298130D03*
X0245620Y0188130D03*
X0235620Y0188130D03*
X0225620Y0188130D03*
X0215620Y0188130D03*
X0215620Y0158130D03*
X0225620Y0158130D03*
X0235620Y0158130D03*
X0245620Y0158130D03*
X0245620Y0118130D03*
X0235620Y0118130D03*
X0225620Y0118130D03*
X0215620Y0118130D03*
X0215620Y0088130D03*
X0225620Y0088130D03*
X0235620Y0088130D03*
X0245620Y0088130D03*
X0305620Y0118130D03*
X0295620Y0118130D03*
X0285620Y0118130D03*
X0275620Y0118130D03*
X0275620Y0088130D03*
X0285620Y0088130D03*
X0295620Y0088130D03*
X0305620Y0088130D03*
X0245620Y0258130D03*
X0235620Y0258130D03*
X0225620Y0258130D03*
X0215620Y0258130D03*
X0215620Y0228130D03*
X0225620Y0228130D03*
X0235620Y0228130D03*
X0245620Y0228130D03*
X0125620Y0188130D03*
X0115620Y0188130D03*
X0105620Y0188130D03*
X0095620Y0188130D03*
X0095620Y0158130D03*
X0105620Y0158130D03*
X0115620Y0158130D03*
X0125620Y0158130D03*
X0305620Y0328130D03*
X0295620Y0328130D03*
X0285620Y0328130D03*
X0275620Y0328130D03*
X0275620Y0298130D03*
X0285620Y0298130D03*
X0295620Y0298130D03*
X0305620Y0298130D03*
X0125620Y0258130D03*
X0115620Y0258130D03*
X0105620Y0258130D03*
X0095620Y0258130D03*
X0095620Y0228130D03*
X0105620Y0228130D03*
X0115620Y0228130D03*
X0125620Y0228130D03*
X0305620Y0258130D03*
X0295620Y0258130D03*
X0285620Y0258130D03*
X0275620Y0258130D03*
X0275620Y0228130D03*
X0285620Y0228130D03*
X0295620Y0228130D03*
X0305620Y0228130D03*
X0125620Y0118130D03*
X0115620Y0118130D03*
X0105620Y0118130D03*
X0095620Y0118130D03*
X0095620Y0088130D03*
X0105620Y0088130D03*
X0115620Y0088130D03*
X0125620Y0088130D03*
X0305620Y0188130D03*
X0295620Y0188130D03*
X0285620Y0188130D03*
X0275620Y0188130D03*
X0275620Y0158130D03*
X0285620Y0158130D03*
X0295620Y0158130D03*
X0305620Y0158130D03*
X0185620Y0258130D03*
X0175620Y0258130D03*
X0165620Y0258130D03*
X0155620Y0258130D03*
X0155620Y0228130D03*
X0165620Y0228130D03*
X0175620Y0228130D03*
X0185620Y0228130D03*
X0065620Y0118130D03*
X0055620Y0118130D03*
X0045620Y0118130D03*
X0035620Y0118130D03*
X0035620Y0088130D03*
X0045620Y0088130D03*
X0055620Y0088130D03*
X0065620Y0088130D03*
D105*
X0204120Y0445130D03*
X0124120Y0445130D03*
D15*
X0184120Y0475130D03*
D71*
X0154120Y0435130D03*
X0174120Y0435130D03*
X0134120Y0435130D03*
X0194120Y0435130D03*
D15*
X0144120Y0475130D03*
D22*
X0089120Y0470130D03*
D97*
X0079120Y0480130D03*
X0099120Y0480130D03*
X0099120Y0460130D03*
X0079120Y0460130D03*
D22*
X0039120Y0470130D03*
D97*
X0029120Y0480130D03*
X0049120Y0480130D03*
X0049120Y0460130D03*
X0029120Y0460130D03*
D44*
X0100620Y0445130D03*
X0087620Y0445130D03*
X0297750Y0378000D03*
X0310750Y0378000D03*
D75*
X0259000Y0392500D03*
D53*
X0259000Y0402500D03*
X0269000Y0392500D03*
X0269000Y0402500D03*
X0279000Y0392500D03*
X0279000Y0402500D03*
D75*
X0139000Y0458000D03*
D53*
X0149000Y0458000D03*
X0159000Y0458000D03*
X0169000Y0458000D03*
X0179000Y0458000D03*
X0189000Y0458000D03*
D83*
X0084120Y0430130D03*
X0104120Y0430130D03*
D86*
X0203120Y0412380D03*
X0193120Y0412380D03*
X0183120Y0412380D03*
X0173120Y0412380D03*
X0163120Y0412380D03*
X0153120Y0412380D03*
X0143120Y0412380D03*
X0133120Y0412380D03*
X0123120Y0412380D03*
X0113120Y0412380D03*
X0103120Y0412380D03*
X0093120Y0412380D03*
X0083120Y0412380D03*
D18*
X0213120Y0412380D03*
D86*
X0083120Y0382380D03*
X0093120Y0382380D03*
X0103120Y0382380D03*
X0113120Y0382380D03*
X0123120Y0382380D03*
X0133120Y0382380D03*
X0143120Y0382380D03*
X0153120Y0382380D03*
X0163120Y0382380D03*
X0173120Y0382380D03*
X0183120Y0382380D03*
X0193120Y0382380D03*
X0203120Y0382380D03*
X0213120Y0382380D03*
D76*
X0035620Y0401510D03*
X0035620Y0380250D03*
D75*
X0218500Y0435500D03*
D53*
X0218500Y0425500D03*
D75*
X0299500Y0394000D03*
D53*
X0309500Y0394000D03*
D95*
X0271000Y0447000D03*
X0266000Y0447000D03*
X0261000Y0447000D03*
X0256000Y0447000D03*
X0251000Y0447000D03*
X0246000Y0447000D03*
X0241000Y0447000D03*
X0241000Y0426000D03*
X0246000Y0426000D03*
X0251000Y0426000D03*
X0256000Y0426000D03*
X0261000Y0426000D03*
X0266000Y0426000D03*
X0271000Y0426000D03*
D58*
X0231000Y0424000D03*
X0231000Y0437000D03*
D75*
X0299500Y0405500D03*
D53*
X0309500Y0405500D03*
D60*
X0307590Y0437500D03*
X0296410Y0437500D03*
X0307590Y0427500D03*
X0296410Y0427500D03*
D58*
X0112300Y0458100D03*
X0112300Y0445100D03*
X0140900Y0346700D03*
X0140900Y0333700D03*
X0063000Y0417000D03*
X0063000Y0430000D03*
D44*
X0048500Y0383500D03*
X0061500Y0383500D03*
X0316500Y0366500D03*
X0329500Y0366500D03*
D58*
X0260850Y0346600D03*
X0260850Y0333600D03*
D44*
X0048500Y0397000D03*
X0061500Y0397000D03*
D58*
X0200400Y0346700D03*
X0200400Y0333700D03*
X0081050Y0346850D03*
X0081050Y0333850D03*
D86*
X0242230Y0385070D03*
X0224510Y0385070D03*
X0242230Y0408690D03*
X0224510Y0408690D03*
D60*
X0307590Y0417500D03*
X0296410Y0417500D03*
X0307590Y0447500D03*
X0296410Y0447500D03*
X0347500Y0010000D02*
G01*
D102*
D119*
X0582500Y0065000D03*
X0582500Y0345000D03*
X0367500Y0065000D03*
X0367500Y0345000D03*
D11*
X0498750Y0037500D03*
X0391250Y0037500D03*
D13*
X0487500Y0040000D03*
X0492500Y0040000D03*
X0492500Y0035000D03*
X0487500Y0035000D03*
X0472500Y0035000D03*
X0467500Y0035000D03*
X0477500Y0035000D03*
X0482500Y0035000D03*
X0482500Y0040000D03*
X0477500Y0040000D03*
X0467500Y0040000D03*
X0472500Y0040000D03*
X0417500Y0035000D03*
X0412500Y0035000D03*
X0402500Y0035000D03*
X0407500Y0035000D03*
X0407500Y0040000D03*
X0402500Y0040000D03*
X0412500Y0040000D03*
X0417500Y0040000D03*
X0397500Y0040000D03*
X0397500Y0035000D03*
X0422500Y0035000D03*
X0422500Y0040000D03*
X0452500Y0040000D03*
X0447500Y0040000D03*
X0457500Y0040000D03*
X0462500Y0040000D03*
X0442500Y0040000D03*
X0437500Y0040000D03*
X0427500Y0040000D03*
X0432500Y0040000D03*
X0432500Y0035000D03*
X0427500Y0035000D03*
X0437500Y0035000D03*
X0442500Y0035000D03*
X0462500Y0035000D03*
X0457500Y0035000D03*
X0447500Y0035000D03*
X0452500Y0035000D03*
D11*
X0391250Y0372500D03*
X0498750Y0372500D03*
D13*
X0402500Y0370000D03*
X0397500Y0370000D03*
X0397500Y0375000D03*
X0402500Y0375000D03*
X0417500Y0375000D03*
X0422500Y0375000D03*
X0412500Y0375000D03*
X0407500Y0375000D03*
X0407500Y0370000D03*
X0412500Y0370000D03*
X0422500Y0370000D03*
X0417500Y0370000D03*
X0472500Y0375000D03*
X0477500Y0375000D03*
X0487500Y0375000D03*
X0482500Y0375000D03*
X0482500Y0370000D03*
X0487500Y0370000D03*
X0477500Y0370000D03*
X0472500Y0370000D03*
X0492500Y0370000D03*
X0492500Y0375000D03*
X0467500Y0375000D03*
X0467500Y0370000D03*
X0437500Y0370000D03*
X0442500Y0370000D03*
X0432500Y0370000D03*
X0427500Y0370000D03*
X0447500Y0370000D03*
X0452500Y0370000D03*
X0462500Y0370000D03*
X0457500Y0370000D03*
X0457500Y0375000D03*
X0462500Y0375000D03*
X0452500Y0375000D03*
X0447500Y0375000D03*
X0427500Y0375000D03*
X0432500Y0375000D03*
X0442500Y0375000D03*
X0437500Y0375000D03*
D11*
X0587500Y0258750D03*
X0587500Y0151250D03*
D13*
X0585000Y0247500D03*
X0585000Y0252500D03*
X0590000Y0252500D03*
X0590000Y0247500D03*
X0590000Y0232500D03*
X0590000Y0227500D03*
X0590000Y0237500D03*
X0590000Y0242500D03*
X0585000Y0242500D03*
X0585000Y0237500D03*
X0585000Y0227500D03*
X0585000Y0232500D03*
X0590000Y0177500D03*
X0590000Y0172500D03*
X0590000Y0162500D03*
X0590000Y0167500D03*
X0585000Y0167500D03*
X0585000Y0162500D03*
X0585000Y0172500D03*
X0585000Y0177500D03*
X0585000Y0157500D03*
X0590000Y0157500D03*
X0590000Y0182500D03*
X0585000Y0182500D03*
X0585000Y0212500D03*
X0585000Y0207500D03*
X0585000Y0217500D03*
X0585000Y0222500D03*
X0585000Y0202500D03*
X0585000Y0197500D03*
X0585000Y0187500D03*
X0585000Y0192500D03*
X0590000Y0192500D03*
X0590000Y0187500D03*
X0590000Y0197500D03*
X0590000Y0202500D03*
X0590000Y0222500D03*
X0590000Y0217500D03*
X0590000Y0207500D03*
X0590000Y0212500D03*
D53*
X0397500Y0315000D03*
X0397500Y0325000D03*
X0397500Y0335000D03*
X0397500Y0345000D03*
X0407500Y0315000D03*
X0407500Y0325000D03*
X0407500Y0335000D03*
X0407500Y0345000D03*
X0417500Y0315000D03*
X0417500Y0325000D03*
X0417500Y0335000D03*
X0417500Y0345000D03*
X0427500Y0315000D03*
X0427500Y0325000D03*
X0427500Y0335000D03*
X0427500Y0345000D03*
X0437500Y0315000D03*
X0437500Y0325000D03*
X0437500Y0335000D03*
X0437500Y0345000D03*
X0447500Y0315000D03*
X0447500Y0325000D03*
X0447500Y0335000D03*
X0447500Y0345000D03*
X0457500Y0315000D03*
X0457500Y0325000D03*
X0457500Y0335000D03*
X0457500Y0345000D03*
X0467500Y0315000D03*
X0467500Y0325000D03*
X0467500Y0335000D03*
X0467500Y0345000D03*
X0477500Y0315000D03*
X0477500Y0325000D03*
X0477500Y0335000D03*
X0477500Y0345000D03*
X0487500Y0315000D03*
X0487500Y0325000D03*
X0487500Y0335000D03*
X0487500Y0345000D03*
X0497500Y0315000D03*
X0497500Y0325000D03*
X0497500Y0335000D03*
X0497500Y0345000D03*
X0507500Y0315000D03*
X0507500Y0325000D03*
X0507500Y0335000D03*
X0507500Y0345000D03*
X0517500Y0315000D03*
X0517500Y0325000D03*
X0517500Y0335000D03*
X0517500Y0345000D03*
X0527500Y0315000D03*
X0527500Y0325000D03*
X0527500Y0335000D03*
X0527500Y0345000D03*
X0537500Y0315000D03*
X0537500Y0325000D03*
X0537500Y0335000D03*
X0537500Y0345000D03*
X0537500Y0065000D03*
X0537500Y0075000D03*
X0537500Y0085000D03*
X0537500Y0095000D03*
X0527500Y0065000D03*
X0527500Y0075000D03*
X0527500Y0085000D03*
X0527500Y0095000D03*
X0517500Y0065000D03*
X0517500Y0075000D03*
X0517500Y0085000D03*
X0517500Y0095000D03*
X0507500Y0065000D03*
X0507500Y0075000D03*
X0507500Y0085000D03*
X0507500Y0095000D03*
X0497500Y0065000D03*
X0497500Y0075000D03*
X0497500Y0085000D03*
X0497500Y0095000D03*
X0487500Y0065000D03*
X0487500Y0075000D03*
X0487500Y0085000D03*
X0487500Y0095000D03*
X0477500Y0065000D03*
X0477500Y0075000D03*
X0477500Y0085000D03*
X0477500Y0095000D03*
X0467500Y0065000D03*
X0467500Y0075000D03*
X0467500Y0085000D03*
X0467500Y0095000D03*
X0457500Y0065000D03*
X0457500Y0075000D03*
X0457500Y0085000D03*
X0457500Y0095000D03*
X0447500Y0065000D03*
X0447500Y0075000D03*
X0447500Y0085000D03*
X0447500Y0095000D03*
X0437500Y0065000D03*
X0437500Y0075000D03*
X0437500Y0085000D03*
X0437500Y0095000D03*
X0427500Y0065000D03*
X0427500Y0075000D03*
X0427500Y0085000D03*
X0427500Y0095000D03*
X0417500Y0065000D03*
X0417500Y0075000D03*
X0417500Y0085000D03*
X0417500Y0095000D03*
X0407500Y0065000D03*
X0407500Y0075000D03*
X0407500Y0085000D03*
X0407500Y0095000D03*
X0397500Y0065000D03*
X0397500Y0075000D03*
X0397500Y0085000D03*
X0397500Y0095000D03*
X0347500Y0407500D02*
G01*
D104*
D40*
X0615000Y0567500D03*
X0370000Y0567500D03*
D16*
X0453800Y0608570D03*
D118*
X0453800Y0558180D03*
X0437260Y0558180D03*
X0420740Y0558180D03*
X0404200Y0558180D03*
X0453800Y0579820D03*
X0437260Y0579820D03*
X0420740Y0579820D03*
X0404200Y0579820D03*
D16*
X0404200Y0608570D03*
D101*
X0570000Y0606000D03*
X0484000Y0606000D03*
D34*
X0507000Y0599000D03*
D84*
X0507000Y0609000D03*
X0517000Y0599000D03*
X0517000Y0609000D03*
X0527000Y0599000D03*
X0527000Y0609000D03*
X0537000Y0599000D03*
X0537000Y0609000D03*
X0547000Y0599000D03*
X0547000Y0609000D03*
D129*
X0627140Y0474900D03*
X0614140Y0474900D03*
D68*
X0558040Y0589210D03*
X0575760Y0589210D03*
X0558040Y0565590D03*
X0575760Y0565590D03*
D34*
X0638000Y0616080D03*
D84*
X0648000Y0616080D03*
X0658000Y0616080D03*
X0668000Y0616080D03*
X0678000Y0616080D03*
X0688000Y0616080D03*
D68*
X0648440Y0570300D03*
X0648440Y0560300D03*
X0648440Y0550300D03*
X0648440Y0540300D03*
X0648440Y0530300D03*
X0648440Y0520300D03*
X0648440Y0510300D03*
X0648440Y0500300D03*
X0648440Y0490300D03*
X0648440Y0480300D03*
X0648440Y0470300D03*
X0648440Y0460300D03*
X0648440Y0450300D03*
D46*
X0648440Y0580300D03*
D68*
X0678440Y0450300D03*
X0678440Y0460300D03*
X0678440Y0470300D03*
X0678440Y0480300D03*
X0678440Y0490300D03*
X0678440Y0500300D03*
X0678440Y0510300D03*
X0678440Y0520300D03*
X0678440Y0530300D03*
X0678440Y0540300D03*
X0678440Y0550300D03*
X0678440Y0560300D03*
X0678440Y0570300D03*
X0678440Y0580300D03*
D129*
X0614640Y0543700D03*
X0627640Y0543700D03*
D72*
X0582000Y0549100D03*
X0582000Y0536100D03*
D54*
X0624720Y0615850D03*
X0624720Y0604670D03*
D43*
X0620040Y0494100D03*
X0620040Y0514100D03*
D72*
X0648760Y0592100D03*
X0648760Y0605100D03*
D129*
X0627640Y0533400D03*
X0614640Y0533400D03*
D84*
X0638440Y0600300D03*
X0638440Y0590300D03*
X0638440Y0580300D03*
X0638440Y0570300D03*
X0638440Y0560300D03*
X0638440Y0550300D03*
X0638440Y0540300D03*
X0638440Y0530300D03*
X0638440Y0520300D03*
X0638440Y0480300D03*
X0638440Y0470300D03*
X0638440Y0460300D03*
X0638440Y0450300D03*
X0688440Y0450300D03*
X0688440Y0460300D03*
X0688440Y0470300D03*
X0688440Y0480300D03*
X0688440Y0490300D03*
X0688440Y0500300D03*
X0688440Y0510300D03*
X0688440Y0520300D03*
X0688440Y0530300D03*
X0688440Y0540300D03*
X0688440Y0550300D03*
X0688440Y0560300D03*
X0688440Y0570300D03*
X0688440Y0580300D03*
X0688440Y0590300D03*
X0688440Y0600300D03*
D34*
X0686460Y0427280D03*
D84*
X0686460Y0417280D03*
X0676460Y0427280D03*
X0676460Y0417280D03*
X0666460Y0427280D03*
X0666460Y0417280D03*
D34*
X0675800Y0603200D03*
D84*
X0665800Y0603200D03*
D74*
X0618460Y0415800D03*
X0623460Y0415800D03*
X0628460Y0415800D03*
X0633460Y0415800D03*
X0638460Y0415800D03*
X0643460Y0415800D03*
X0648460Y0415800D03*
X0648460Y0436800D03*
X0643460Y0436800D03*
X0638460Y0436800D03*
X0633460Y0436800D03*
X0628460Y0436800D03*
X0623460Y0436800D03*
X0618460Y0436800D03*
D72*
X0593500Y0585500D03*
X0593500Y0572500D03*
X0559600Y0549100D03*
X0559600Y0536100D03*
D129*
X0628100Y0447640D03*
X0615100Y0447640D03*
D72*
X0570900Y0536100D03*
X0570900Y0549100D03*
D34*
X0626400Y0461880D03*
D84*
X0616400Y0461880D03*
D54*
X0600100Y0615890D03*
X0600100Y0604710D03*
X0612500Y0615990D03*
X0612500Y0604810D03*
D129*
X0677200Y0592200D03*
X0664200Y0592200D03*
D72*
X0638940Y0504800D03*
X0638940Y0491800D03*
D84*
X0560000Y0435000D03*
X0600000Y0435000D03*
X0590000Y0435000D03*
X0580000Y0435000D03*
X0570000Y0435000D03*
X0510000Y0435000D03*
X0500000Y0435000D03*
X0490000Y0435000D03*
X0480000Y0435000D03*
X0470000Y0435000D03*
X0520000Y0435000D03*
X0530000Y0435000D03*
X0540000Y0435000D03*
X0550000Y0435000D03*
X0460000Y0435000D03*
X0450000Y0435000D03*
X0440000Y0435000D03*
X0430000Y0435000D03*
X0420000Y0435000D03*
D34*
X0360000Y0435000D03*
D84*
X0370000Y0435000D03*
X0380000Y0435000D03*
X0390000Y0435000D03*
X0400000Y0435000D03*
X0410000Y0435000D03*
X0560000Y0445000D03*
X0600000Y0445000D03*
X0590000Y0445000D03*
X0580000Y0445000D03*
X0570000Y0445000D03*
X0510000Y0445000D03*
X0500000Y0445000D03*
X0490000Y0445000D03*
X0480000Y0445000D03*
X0470000Y0445000D03*
X0520000Y0445000D03*
X0530000Y0445000D03*
X0540000Y0445000D03*
X0550000Y0445000D03*
X0460000Y0445000D03*
X0450000Y0445000D03*
X0440000Y0445000D03*
X0430000Y0445000D03*
X0420000Y0445000D03*
D34*
X0360000Y0445000D03*
D84*
X0370000Y0445000D03*
X0380000Y0445000D03*
X0390000Y0445000D03*
X0400000Y0445000D03*
X0410000Y0445000D03*
X0560000Y0455000D03*
X0600000Y0455000D03*
X0590000Y0455000D03*
X0580000Y0455000D03*
X0570000Y0455000D03*
X0510000Y0455000D03*
X0500000Y0455000D03*
X0490000Y0455000D03*
X0480000Y0455000D03*
X0470000Y0455000D03*
X0520000Y0455000D03*
X0530000Y0455000D03*
X0540000Y0455000D03*
X0550000Y0455000D03*
X0460000Y0455000D03*
X0450000Y0455000D03*
X0440000Y0455000D03*
X0430000Y0455000D03*
X0420000Y0455000D03*
D34*
X0360000Y0455000D03*
D84*
X0370000Y0455000D03*
X0380000Y0455000D03*
X0390000Y0455000D03*
X0400000Y0455000D03*
X0410000Y0455000D03*
X0560000Y0465000D03*
X0600000Y0465000D03*
X0590000Y0465000D03*
X0580000Y0465000D03*
X0570000Y0465000D03*
X0510000Y0465000D03*
X0500000Y0465000D03*
X0490000Y0465000D03*
X0480000Y0465000D03*
X0470000Y0465000D03*
X0520000Y0465000D03*
X0530000Y0465000D03*
X0540000Y0465000D03*
X0550000Y0465000D03*
X0460000Y0465000D03*
X0450000Y0465000D03*
X0440000Y0465000D03*
X0430000Y0465000D03*
X0420000Y0465000D03*
D34*
X0360000Y0465000D03*
D84*
X0370000Y0465000D03*
X0380000Y0465000D03*
X0390000Y0465000D03*
X0400000Y0465000D03*
X0410000Y0465000D03*
X0560000Y0475000D03*
X0600000Y0475000D03*
X0590000Y0475000D03*
X0580000Y0475000D03*
X0570000Y0475000D03*
X0510000Y0475000D03*
X0500000Y0475000D03*
X0490000Y0475000D03*
X0480000Y0475000D03*
X0470000Y0475000D03*
X0520000Y0475000D03*
X0530000Y0475000D03*
X0540000Y0475000D03*
X0550000Y0475000D03*
X0460000Y0475000D03*
X0450000Y0475000D03*
X0440000Y0475000D03*
X0430000Y0475000D03*
X0420000Y0475000D03*
D34*
X0360000Y0475000D03*
D84*
X0370000Y0475000D03*
X0380000Y0475000D03*
X0390000Y0475000D03*
X0400000Y0475000D03*
X0410000Y0475000D03*
X0560000Y0485000D03*
X0600000Y0485000D03*
X0590000Y0485000D03*
X0580000Y0485000D03*
X0570000Y0485000D03*
X0510000Y0485000D03*
X0500000Y0485000D03*
X0490000Y0485000D03*
X0480000Y0485000D03*
X0470000Y0485000D03*
X0520000Y0485000D03*
X0530000Y0485000D03*
X0540000Y0485000D03*
X0550000Y0485000D03*
X0460000Y0485000D03*
X0450000Y0485000D03*
X0440000Y0485000D03*
X0430000Y0485000D03*
X0420000Y0485000D03*
D34*
X0360000Y0485000D03*
D84*
X0370000Y0485000D03*
X0380000Y0485000D03*
X0390000Y0485000D03*
X0400000Y0485000D03*
X0410000Y0485000D03*
X0560000Y0495000D03*
X0600000Y0495000D03*
X0590000Y0495000D03*
X0580000Y0495000D03*
X0570000Y0495000D03*
X0510000Y0495000D03*
X0500000Y0495000D03*
X0490000Y0495000D03*
X0480000Y0495000D03*
X0470000Y0495000D03*
X0520000Y0495000D03*
X0530000Y0495000D03*
X0540000Y0495000D03*
X0550000Y0495000D03*
X0460000Y0495000D03*
X0450000Y0495000D03*
X0440000Y0495000D03*
X0430000Y0495000D03*
X0420000Y0495000D03*
D34*
X0360000Y0495000D03*
D84*
X0370000Y0495000D03*
X0380000Y0495000D03*
X0390000Y0495000D03*
X0400000Y0495000D03*
X0410000Y0495000D03*
X0560000Y0505000D03*
X0600000Y0505000D03*
X0590000Y0505000D03*
X0580000Y0505000D03*
X0570000Y0505000D03*
X0510000Y0505000D03*
X0500000Y0505000D03*
X0490000Y0505000D03*
X0480000Y0505000D03*
X0470000Y0505000D03*
X0520000Y0505000D03*
X0530000Y0505000D03*
X0540000Y0505000D03*
X0550000Y0505000D03*
X0460000Y0505000D03*
X0450000Y0505000D03*
X0440000Y0505000D03*
X0430000Y0505000D03*
X0420000Y0505000D03*
D34*
X0360000Y0505000D03*
D84*
X0370000Y0505000D03*
X0380000Y0505000D03*
X0390000Y0505000D03*
X0400000Y0505000D03*
X0410000Y0505000D03*
X0560000Y0425000D03*
X0600000Y0425000D03*
X0590000Y0425000D03*
X0580000Y0425000D03*
X0570000Y0425000D03*
X0510000Y0425000D03*
X0500000Y0425000D03*
X0490000Y0425000D03*
X0480000Y0425000D03*
X0470000Y0425000D03*
X0520000Y0425000D03*
X0530000Y0425000D03*
X0540000Y0425000D03*
X0550000Y0425000D03*
X0460000Y0425000D03*
X0450000Y0425000D03*
X0440000Y0425000D03*
X0430000Y0425000D03*
X0420000Y0425000D03*
D34*
X0360000Y0425000D03*
D84*
X0370000Y0425000D03*
X0380000Y0425000D03*
X0390000Y0425000D03*
X0400000Y0425000D03*
X0410000Y0425000D03*
X0560000Y0515000D03*
X0600000Y0515000D03*
X0590000Y0515000D03*
X0580000Y0515000D03*
X0570000Y0515000D03*
X0510000Y0515000D03*
X0500000Y0515000D03*
X0490000Y0515000D03*
X0480000Y0515000D03*
X0470000Y0515000D03*
X0520000Y0515000D03*
X0530000Y0515000D03*
X0540000Y0515000D03*
X0550000Y0515000D03*
X0460000Y0515000D03*
X0450000Y0515000D03*
X0440000Y0515000D03*
X0430000Y0515000D03*
X0420000Y0515000D03*
D34*
X0360000Y0515000D03*
D84*
X0370000Y0515000D03*
X0380000Y0515000D03*
X0390000Y0515000D03*
X0400000Y0515000D03*
X0410000Y0515000D03*
D31*
X0497500Y0557000D03*
X0517500Y0557000D03*
D116*
X0477500Y0557000D03*
D31*
X0537500Y0557000D03*
D84*
X0560000Y0525000D03*
X0600000Y0525000D03*
X0590000Y0525000D03*
X0580000Y0525000D03*
X0570000Y0525000D03*
X0510000Y0525000D03*
X0500000Y0525000D03*
X0490000Y0525000D03*
X0480000Y0525000D03*
X0470000Y0525000D03*
X0520000Y0525000D03*
X0530000Y0525000D03*
X0540000Y0525000D03*
X0550000Y0525000D03*
X0460000Y0525000D03*
X0450000Y0525000D03*
X0440000Y0525000D03*
X0430000Y0525000D03*
X0420000Y0525000D03*
D34*
X0360000Y0525000D03*
D84*
X0370000Y0525000D03*
X0380000Y0525000D03*
X0390000Y0525000D03*
X0400000Y0525000D03*
X0410000Y0525000D03*
X0560000Y0415000D03*
X0600000Y0415000D03*
X0590000Y0415000D03*
X0580000Y0415000D03*
X0570000Y0415000D03*
X0510000Y0415000D03*
X0500000Y0415000D03*
X0490000Y0415000D03*
X0480000Y0415000D03*
X0470000Y0415000D03*
X0520000Y0415000D03*
X0530000Y0415000D03*
X0540000Y0415000D03*
X0550000Y0415000D03*
X0460000Y0415000D03*
X0450000Y0415000D03*
X0440000Y0415000D03*
X0430000Y0415000D03*
X0420000Y0415000D03*
D34*
X0360000Y0415000D03*
D84*
X0370000Y0415000D03*
X0380000Y0415000D03*
X0390000Y0415000D03*
X0400000Y0415000D03*
X0410000Y0415000D03*
D34*
X0517000Y0583800D03*
D84*
X0527000Y0583800D03*
X0625000Y0010000D02*
G01*
D104*
D119*
X0685000Y0025000D03*
X1090000Y0025000D03*
X1090000Y0325000D03*
X0685000Y0325000D03*
D11*
X1085870Y0223870D03*
X1085870Y0116370D03*
D13*
X1083370Y0212620D03*
X1083370Y0217620D03*
X1088370Y0217620D03*
X1088370Y0212620D03*
X1088370Y0197620D03*
X1088370Y0192620D03*
X1088370Y0202620D03*
X1088370Y0207620D03*
X1083370Y0207620D03*
X1083370Y0202620D03*
X1083370Y0192620D03*
X1083370Y0197620D03*
X1088370Y0142620D03*
X1088370Y0137620D03*
X1088370Y0127620D03*
X1088370Y0132620D03*
X1083370Y0132620D03*
X1083370Y0127620D03*
X1083370Y0137620D03*
X1083370Y0142620D03*
X1083370Y0122620D03*
X1088370Y0122620D03*
X1088370Y0147620D03*
X1083370Y0147620D03*
X1083370Y0177620D03*
X1083370Y0172620D03*
X1083370Y0182620D03*
X1083370Y0187620D03*
X1083370Y0167620D03*
X1083370Y0162620D03*
X1083370Y0152620D03*
X1083370Y0157620D03*
X1088370Y0157620D03*
X1088370Y0152620D03*
X1088370Y0162620D03*
X1088370Y0167620D03*
X1088370Y0187620D03*
X1088370Y0182620D03*
X1088370Y0172620D03*
X1088370Y0177620D03*
D47*
X0647870Y0317120D03*
X0647870Y0231120D03*
D75*
X0654870Y0254120D03*
D53*
X0644870Y0254120D03*
X0654870Y0264120D03*
X0644870Y0264120D03*
X0654870Y0274120D03*
X0644870Y0274120D03*
X0654870Y0284120D03*
X0644870Y0284120D03*
X0654870Y0294120D03*
X0644870Y0294120D03*
D44*
X0760370Y0050620D03*
X0773370Y0050620D03*
X0843370Y0065620D03*
X0830370Y0065620D03*
X0970370Y0050620D03*
X0983370Y0050620D03*
X0970370Y0035620D03*
X0983370Y0035620D03*
X0843370Y0125620D03*
X0830370Y0125620D03*
X0913370Y0125620D03*
X0900370Y0125620D03*
X0970370Y0095620D03*
X0983370Y0095620D03*
X0830370Y0035620D03*
X0843370Y0035620D03*
X0983370Y0065620D03*
X0970370Y0065620D03*
X0913370Y0065620D03*
X0900370Y0065620D03*
X0760370Y0035620D03*
X0773370Y0035620D03*
X0900370Y0290620D03*
X0913370Y0290620D03*
X0830370Y0290620D03*
X0843370Y0290620D03*
X0900370Y0035620D03*
X0913370Y0035620D03*
X0830370Y0050620D03*
X0843370Y0050620D03*
X0900370Y0050620D03*
X0913370Y0050620D03*
X0900370Y0110620D03*
X0913370Y0110620D03*
X0900370Y0170620D03*
X0913370Y0170620D03*
X0830370Y0170620D03*
X0843370Y0170620D03*
X0830370Y0230620D03*
X0843370Y0230620D03*
X0900370Y0230620D03*
X0913370Y0230620D03*
X0830370Y0110620D03*
X0843370Y0110620D03*
X0760370Y0170620D03*
X0773370Y0170620D03*
X0970370Y0155620D03*
X0983370Y0155620D03*
X0913370Y0245620D03*
X0900370Y0245620D03*
X0843370Y0245620D03*
X0830370Y0245620D03*
X0773370Y0245620D03*
X0760370Y0245620D03*
X0760370Y0275620D03*
X0773370Y0275620D03*
X0983870Y0305620D03*
X0970870Y0305620D03*
X0830370Y0275620D03*
X0843370Y0275620D03*
X0970870Y0290620D03*
X0983870Y0290620D03*
X0830370Y0215620D03*
X0843370Y0215620D03*
X0900370Y0215620D03*
X0913370Y0215620D03*
X0773370Y0185620D03*
X0760370Y0185620D03*
X0913370Y0185620D03*
X0900370Y0185620D03*
X0970370Y0230620D03*
X0983370Y0230620D03*
X0970370Y0215620D03*
X0983370Y0215620D03*
X0843370Y0185620D03*
X0830370Y0185620D03*
X0760370Y0215620D03*
X0773370Y0215620D03*
X0983370Y0245620D03*
X0970370Y0245620D03*
X0760370Y0230620D03*
X0773370Y0230620D03*
X0900370Y0275620D03*
X0913370Y0275620D03*
X0760370Y0290620D03*
X0773370Y0290620D03*
X0970870Y0275620D03*
X0983870Y0275620D03*
X0913370Y0305620D03*
X0900370Y0305620D03*
X0773370Y0305620D03*
X0760370Y0305620D03*
X0843370Y0305620D03*
X0830370Y0305620D03*
X0970370Y0110620D03*
X0983370Y0110620D03*
X0760370Y0095620D03*
X0773370Y0095620D03*
X0773370Y0065620D03*
X0760370Y0065620D03*
X0970370Y0170620D03*
X0983370Y0170620D03*
X0830370Y0155620D03*
X0843370Y0155620D03*
X0900370Y0095620D03*
X0913370Y0095620D03*
X0830370Y0095620D03*
X0843370Y0095620D03*
X0760370Y0110620D03*
X0773370Y0110620D03*
X0983370Y0185620D03*
X0970370Y0185620D03*
X0900370Y0155620D03*
X0913370Y0155620D03*
X0760370Y0155620D03*
X0773370Y0155620D03*
X0773370Y0125620D03*
X0760370Y0125620D03*
X0983370Y0125620D03*
X0970370Y0125620D03*
D58*
X0786870Y0125620D03*
X0786870Y0115620D03*
X0786870Y0105620D03*
X0786870Y0095620D03*
X0816870Y0095620D03*
X0816870Y0105620D03*
X0816870Y0115620D03*
X0816870Y0125620D03*
X0926870Y0065620D03*
X0926870Y0055620D03*
X0926870Y0045620D03*
X0926870Y0035620D03*
X0956870Y0035620D03*
X0956870Y0045620D03*
X0956870Y0055620D03*
X0956870Y0065620D03*
X0996870Y0185620D03*
X0996870Y0175620D03*
X0996870Y0165620D03*
X0996870Y0155620D03*
X1026870Y0155620D03*
X1026870Y0165620D03*
X1026870Y0175620D03*
X1026870Y0185620D03*
X0786870Y0245620D03*
X0786870Y0235620D03*
X0786870Y0225620D03*
X0786870Y0215620D03*
X0816870Y0215620D03*
X0816870Y0225620D03*
X0816870Y0235620D03*
X0816870Y0245620D03*
X0786870Y0185620D03*
X0786870Y0175620D03*
X0786870Y0165620D03*
X0786870Y0155620D03*
X0816870Y0155620D03*
X0816870Y0165620D03*
X0816870Y0175620D03*
X0816870Y0185620D03*
X0856870Y0065620D03*
X0856870Y0055620D03*
X0856870Y0045620D03*
X0856870Y0035620D03*
X0886870Y0035620D03*
X0886870Y0045620D03*
X0886870Y0055620D03*
X0886870Y0065620D03*
X0926870Y0185620D03*
X0926870Y0175620D03*
X0926870Y0165620D03*
X0926870Y0155620D03*
X0956870Y0155620D03*
X0956870Y0165620D03*
X0956870Y0175620D03*
X0956870Y0185620D03*
X0786870Y0065620D03*
X0786870Y0055620D03*
X0786870Y0045620D03*
X0786870Y0035620D03*
X0816870Y0035620D03*
X0816870Y0045620D03*
X0816870Y0055620D03*
X0816870Y0065620D03*
X0926870Y0245620D03*
X0926870Y0235620D03*
X0926870Y0225620D03*
X0926870Y0215620D03*
X0956870Y0215620D03*
X0956870Y0225620D03*
X0956870Y0235620D03*
X0956870Y0245620D03*
X0996870Y0245620D03*
X0996870Y0235620D03*
X0996870Y0225620D03*
X0996870Y0215620D03*
X1026870Y0215620D03*
X1026870Y0225620D03*
X1026870Y0235620D03*
X1026870Y0245620D03*
X0996870Y0305620D03*
X0996870Y0295620D03*
X0996870Y0285620D03*
X0996870Y0275620D03*
X1026870Y0275620D03*
X1026870Y0285620D03*
X1026870Y0295620D03*
X1026870Y0305620D03*
X0856870Y0245620D03*
X0856870Y0235620D03*
X0856870Y0225620D03*
X0856870Y0215620D03*
X0886870Y0215620D03*
X0886870Y0225620D03*
X0886870Y0235620D03*
X0886870Y0245620D03*
X0926870Y0125620D03*
X0926870Y0115620D03*
X0926870Y0105620D03*
X0926870Y0095620D03*
X0956870Y0095620D03*
X0956870Y0105620D03*
X0956870Y0115620D03*
X0956870Y0125620D03*
X0786870Y0305620D03*
X0786870Y0295620D03*
X0786870Y0285620D03*
X0786870Y0275620D03*
X0816870Y0275620D03*
X0816870Y0285620D03*
X0816870Y0295620D03*
X0816870Y0305620D03*
X0856870Y0125620D03*
X0856870Y0115620D03*
X0856870Y0105620D03*
X0856870Y0095620D03*
X0886870Y0095620D03*
X0886870Y0105620D03*
X0886870Y0115620D03*
X0886870Y0125620D03*
X0856870Y0305620D03*
X0856870Y0295620D03*
X0856870Y0285620D03*
X0856870Y0275620D03*
X0886870Y0275620D03*
X0886870Y0285620D03*
X0886870Y0295620D03*
X0886870Y0305620D03*
X0996870Y0125620D03*
X0996870Y0115620D03*
X0996870Y0105620D03*
X0996870Y0095620D03*
X1026870Y0095620D03*
X1026870Y0105620D03*
X1026870Y0115620D03*
X1026870Y0125620D03*
X0926870Y0305620D03*
X0926870Y0295620D03*
X0926870Y0285620D03*
X0926870Y0275620D03*
X0956870Y0275620D03*
X0956870Y0285620D03*
X0956870Y0295620D03*
X0956870Y0305620D03*
X0856870Y0185620D03*
X0856870Y0175620D03*
X0856870Y0165620D03*
X0856870Y0155620D03*
X0886870Y0155620D03*
X0886870Y0165620D03*
X0886870Y0175620D03*
X0886870Y0185620D03*
X0996870Y0065620D03*
X0996870Y0055620D03*
X0996870Y0045620D03*
X0996870Y0035620D03*
X1026870Y0035620D03*
X1026870Y0045620D03*
X1026870Y0055620D03*
X1026870Y0065620D03*
D105*
X0669870Y0204120D03*
X0669870Y0124120D03*
D15*
X0639870Y0184120D03*
D71*
X0679870Y0154120D03*
X0679870Y0174120D03*
X0679870Y0134120D03*
X0679870Y0194120D03*
D15*
X0639870Y0144120D03*
D22*
X0644870Y0089120D03*
D97*
X0634870Y0079120D03*
X0634870Y0099120D03*
X0654870Y0099120D03*
X0654870Y0079120D03*
D22*
X0644870Y0039120D03*
D97*
X0634870Y0029120D03*
X0634870Y0049120D03*
X0654870Y0049120D03*
X0654870Y0029120D03*
D58*
X0669870Y0100620D03*
X0669870Y0087620D03*
X0737000Y0297750D03*
X0737000Y0310750D03*
D75*
X0722500Y0259000D03*
D53*
X0712500Y0259000D03*
X0722500Y0269000D03*
X0712500Y0269000D03*
X0722500Y0279000D03*
X0712500Y0279000D03*
D75*
X0657000Y0139000D03*
D53*
X0657000Y0149000D03*
X0657000Y0159000D03*
X0657000Y0169000D03*
X0657000Y0179000D03*
X0657000Y0189000D03*
D83*
X0684870Y0084120D03*
X0684870Y0104120D03*
D86*
X0702620Y0203120D03*
X0702620Y0193120D03*
X0702620Y0183120D03*
X0702620Y0173120D03*
X0702620Y0163120D03*
X0702620Y0153120D03*
X0702620Y0143120D03*
X0702620Y0133120D03*
X0702620Y0123120D03*
X0702620Y0113120D03*
X0702620Y0103120D03*
X0702620Y0093120D03*
X0702620Y0083120D03*
D18*
X0702620Y0213120D03*
D86*
X0732620Y0083120D03*
X0732620Y0093120D03*
X0732620Y0103120D03*
X0732620Y0113120D03*
X0732620Y0123120D03*
X0732620Y0133120D03*
X0732620Y0143120D03*
X0732620Y0153120D03*
X0732620Y0163120D03*
X0732620Y0173120D03*
X0732620Y0183120D03*
X0732620Y0193120D03*
X0732620Y0203120D03*
X0732620Y0213120D03*
D130*
X0713490Y0035620D03*
X0734750Y0035620D03*
D75*
X0679500Y0218500D03*
D53*
X0689500Y0218500D03*
D75*
X0721000Y0299500D03*
D53*
X0721000Y0309500D03*
D131*
X0668000Y0271000D03*
X0668000Y0266000D03*
X0668000Y0261000D03*
X0668000Y0256000D03*
X0668000Y0251000D03*
X0668000Y0246000D03*
X0668000Y0241000D03*
X0689000Y0241000D03*
X0689000Y0246000D03*
X0689000Y0251000D03*
X0689000Y0256000D03*
X0689000Y0261000D03*
X0689000Y0266000D03*
X0689000Y0271000D03*
D44*
X0691000Y0231000D03*
X0678000Y0231000D03*
D75*
X0709500Y0299500D03*
D53*
X0709500Y0309500D03*
D134*
X0677500Y0307590D03*
X0677500Y0296410D03*
X0687500Y0307590D03*
X0687500Y0296410D03*
D44*
X0656900Y0112300D03*
X0669900Y0112300D03*
X0768300Y0140900D03*
X0781300Y0140900D03*
X0698000Y0063000D03*
X0685000Y0063000D03*
D58*
X0731500Y0048500D03*
X0731500Y0061500D03*
X0748500Y0316500D03*
X0748500Y0329500D03*
D44*
X0768400Y0260850D03*
X0781400Y0260850D03*
D58*
X0718000Y0048500D03*
X0718000Y0061500D03*
D44*
X0768300Y0200400D03*
X0781300Y0200400D03*
X0768150Y0081050D03*
X0781150Y0081050D03*
D86*
X0729930Y0242230D03*
X0729930Y0224510D03*
X0706310Y0242230D03*
X0706310Y0224510D03*
D134*
X0697500Y0307590D03*
X0697500Y0296410D03*
X0667500Y0307590D03*
X0667500Y0296410D03*
X0702500Y0347500D02*
G01*
D104*
D101*
X0722250Y0367000D03*
X0808250Y0367000D03*
D34*
X0785250Y0374000D03*
D84*
X0785250Y0364000D03*
X0775250Y0374000D03*
X0775250Y0364000D03*
X0765250Y0374000D03*
X0765250Y0364000D03*
X0755250Y0374000D03*
X0755250Y0364000D03*
X0745250Y0374000D03*
X0745250Y0364000D03*
D40*
X1061500Y0425750D03*
X0870250Y0425750D03*
D16*
X0839950Y0354840D03*
D118*
X0839950Y0405220D03*
X0856490Y0405220D03*
X0873010Y0405220D03*
X0889550Y0405220D03*
X0839950Y0383580D03*
X0856490Y0383580D03*
X0873010Y0383580D03*
X0889550Y0383580D03*
D16*
X0889550Y0354840D03*
D101*
X0808250Y0508500D03*
X0722250Y0508500D03*
D34*
X0745250Y0501500D03*
D84*
X0745250Y0511500D03*
X0755250Y0501500D03*
X0755250Y0511500D03*
X0765250Y0501500D03*
X0765250Y0511500D03*
X0775250Y0501500D03*
X0775250Y0511500D03*
X0785250Y0501500D03*
X0785250Y0511500D03*
D70*
X0925750Y0416000D03*
X0925750Y0437000D03*
X0920750Y0416000D03*
X0915750Y0416000D03*
X0910750Y0416000D03*
X0920750Y0437000D03*
X0915750Y0437000D03*
X0910750Y0437000D03*
D74*
X0987750Y0363000D03*
X0992750Y0363000D03*
X0997750Y0363000D03*
X1002750Y0363000D03*
X1007750Y0363000D03*
X1012750Y0363000D03*
X1017750Y0363000D03*
X1017750Y0384000D03*
X1012750Y0384000D03*
X1007750Y0384000D03*
X1002750Y0384000D03*
X0997750Y0384000D03*
X0992750Y0384000D03*
X0987750Y0384000D03*
D72*
X0951350Y0502800D03*
X0951350Y0515800D03*
D129*
X0922750Y0447500D03*
X0935750Y0447500D03*
D109*
X0885250Y0492500D03*
X0845250Y0492500D03*
D84*
X0855250Y0472500D03*
X0865250Y0472500D03*
D68*
X1089710Y0458890D03*
X1071990Y0458890D03*
X1089710Y0482510D03*
X1071990Y0482510D03*
D129*
X0946750Y0436500D03*
X0933750Y0436500D03*
D72*
X0935400Y0414250D03*
X0935400Y0427250D03*
D34*
X0938550Y0514500D03*
D84*
X0938550Y0504500D03*
X0928550Y0514500D03*
X0928550Y0504500D03*
X0918550Y0514500D03*
X0918550Y0504500D03*
D34*
X1038450Y0516700D03*
D84*
X1048450Y0516700D03*
X1058450Y0516700D03*
X1068450Y0516700D03*
X1078450Y0516700D03*
X1088450Y0516700D03*
D68*
X1046650Y0491500D03*
X1036650Y0491500D03*
X1026650Y0491500D03*
X1016650Y0491500D03*
X1006650Y0491500D03*
X0996650Y0491500D03*
X0986650Y0491500D03*
X0976650Y0491500D03*
X0966650Y0491500D03*
X0956650Y0491500D03*
X0946650Y0491500D03*
X0936650Y0491500D03*
X0926650Y0491500D03*
D46*
X1056650Y0491500D03*
D68*
X0926650Y0461500D03*
X0936650Y0461500D03*
X0946650Y0461500D03*
X0956650Y0461500D03*
X0966650Y0461500D03*
X0976650Y0461500D03*
X0986650Y0461500D03*
X0996650Y0461500D03*
X1006650Y0461500D03*
X1016650Y0461500D03*
X1026650Y0461500D03*
X1036650Y0461500D03*
X1046650Y0461500D03*
X1056650Y0461500D03*
D65*
X1083390Y0446700D03*
X1080830Y0446700D03*
X1078270Y0446700D03*
X1075710Y0446700D03*
X1075710Y0429700D03*
X1078270Y0429700D03*
X1080830Y0429700D03*
X1083390Y0429700D03*
D72*
X1020150Y0515300D03*
X1020150Y0502300D03*
D129*
X0716750Y0399700D03*
X0729750Y0399700D03*
D20*
X0716560Y0389500D03*
X0727740Y0389500D03*
D34*
X0903500Y0467000D03*
D84*
X0903500Y0477000D03*
X0903500Y0487000D03*
D74*
X1086650Y0407000D03*
X1081650Y0407000D03*
X1076650Y0407000D03*
X1071650Y0407000D03*
X1066650Y0407000D03*
X1061650Y0407000D03*
X1056650Y0407000D03*
X1056650Y0386000D03*
X1061650Y0386000D03*
X1066650Y0386000D03*
X1071650Y0386000D03*
X1076650Y0386000D03*
X1081650Y0386000D03*
X1086650Y0386000D03*
X0947650Y0388500D03*
X0952650Y0388500D03*
X0957650Y0388500D03*
X0962650Y0388500D03*
X0967650Y0388500D03*
X0972650Y0388500D03*
X0977650Y0388500D03*
X0977650Y0409500D03*
X0972650Y0409500D03*
X0967650Y0409500D03*
X0962650Y0409500D03*
X0957650Y0409500D03*
X0952650Y0409500D03*
X0947650Y0409500D03*
D43*
X0970550Y0509900D03*
X0990550Y0509900D03*
D128*
X1045550Y0440500D03*
X1040550Y0440500D03*
X1035550Y0440500D03*
X1030550Y0440500D03*
X1025550Y0440500D03*
X1020550Y0440500D03*
X1015550Y0440500D03*
X1010550Y0440500D03*
X1005550Y0440500D03*
X1000550Y0440500D03*
X0995550Y0440500D03*
X0990550Y0440500D03*
X1045550Y0402500D03*
X1040550Y0402500D03*
X1035550Y0402500D03*
X1030550Y0402500D03*
X1025550Y0402500D03*
X1020550Y0402500D03*
X1015550Y0402500D03*
X1010550Y0402500D03*
X1005550Y0402500D03*
X1000550Y0402500D03*
X0995550Y0402500D03*
X0990550Y0402500D03*
D70*
X1031450Y0384000D03*
X1031450Y0363000D03*
X1036450Y0384000D03*
X1041450Y0384000D03*
X1046450Y0384000D03*
X1036450Y0363000D03*
X1041450Y0363000D03*
X1046450Y0363000D03*
D129*
X1080450Y0504000D03*
X1067450Y0504000D03*
D72*
X1009850Y0502300D03*
X1009850Y0515300D03*
X0968850Y0365600D03*
X0968850Y0378600D03*
X0926450Y0372300D03*
X0926450Y0385300D03*
X0958450Y0365600D03*
X0958450Y0378600D03*
X0948050Y0365600D03*
X0948050Y0378600D03*
D129*
X0967450Y0422200D03*
X0980450Y0422200D03*
X0959250Y0422200D03*
X0946250Y0422200D03*
D19*
X0967350Y0436970D03*
X0963600Y0445630D03*
X0971100Y0445630D03*
D34*
X1037350Y0501700D03*
D84*
X1047350Y0501700D03*
D74*
X0815650Y0427500D03*
X0820650Y0427500D03*
X0825650Y0427500D03*
X0830650Y0427500D03*
X0835650Y0427500D03*
X0840650Y0427500D03*
X0845650Y0427500D03*
X0845650Y0448500D03*
X0840650Y0448500D03*
X0835650Y0448500D03*
X0830650Y0448500D03*
X0825650Y0448500D03*
X0820650Y0448500D03*
X0815650Y0448500D03*
D129*
X0811400Y0461050D03*
X0824400Y0461050D03*
X0763950Y0398500D03*
X0776950Y0398500D03*
X0763850Y0387900D03*
X0776850Y0387900D03*
D34*
X0822450Y0474250D03*
D84*
X0812450Y0474250D03*
D20*
X0787460Y0397900D03*
X0798640Y0397900D03*
X0787410Y0388450D03*
X0798590Y0388450D03*
D72*
X0804550Y0435400D03*
X0804550Y0448400D03*
X1089530Y0504340D03*
X1089530Y0491340D03*
X1091130Y0431540D03*
X1091130Y0444540D03*
D129*
X1077400Y0378200D03*
X1090400Y0378200D03*
X0903000Y0440950D03*
X0890000Y0440950D03*
X0909850Y0407850D03*
X0922850Y0407850D03*
X1004600Y0354550D03*
X0991600Y0354550D03*
D72*
X0937700Y0390950D03*
X0937700Y0403950D03*
X1053350Y0357900D03*
X1053350Y0370900D03*
X0702500Y0531500D02*
G01*
D104*
D53*
X0964500Y0708400D03*
X0954500Y0708400D03*
X0954500Y0718400D03*
X0964500Y0718400D03*
X0964500Y0728400D03*
X0954500Y0728400D03*
D91*
X0778000Y0808400D03*
X0788000Y0808400D03*
X0814000Y0618400D03*
X0824000Y0618400D03*
X0974000Y0808400D03*
X0984000Y0808400D03*
X0994000Y0808400D03*
X1004000Y0808400D03*
X1014000Y0808400D03*
X1024000Y0808400D03*
X1034000Y0808400D03*
X1044000Y0808400D03*
X1064000Y0618400D03*
X1054000Y0618400D03*
X1044000Y0618400D03*
X1034000Y0618400D03*
X0994000Y0618400D03*
X0974000Y0618400D03*
X0964000Y0618400D03*
X1004000Y0618400D03*
X1014000Y0618400D03*
X1024000Y0618400D03*
X0954000Y0618400D03*
X0944000Y0618400D03*
X0934000Y0618400D03*
X0904000Y0618400D03*
X0914000Y0618400D03*
X0924000Y0618400D03*
X0884000Y0618400D03*
X0874000Y0618400D03*
X0864000Y0618400D03*
X0844000Y0618400D03*
X0834000Y0618400D03*
X0954000Y0808400D03*
X0944000Y0808400D03*
X0934000Y0808400D03*
X0924000Y0808400D03*
X0914000Y0808400D03*
X0904000Y0808400D03*
X0894000Y0808400D03*
X0884000Y0808400D03*
X0868000Y0808400D03*
X0858000Y0808400D03*
X0848000Y0808400D03*
X0838000Y0808400D03*
X0828000Y0808400D03*
X0818000Y0808400D03*
X0808000Y0808400D03*
X0798000Y0808400D03*
X0854000Y0618400D03*
D96*
X1084000Y0618400D03*
X1059000Y0808400D03*
D53*
X1074000Y0798400D03*
X1084000Y0798400D03*
X1074000Y0788400D03*
X1084000Y0788400D03*
X1074000Y0778400D03*
X1084000Y0778400D03*
X1074000Y0768400D03*
X1084000Y0768400D03*
X1074000Y0808400D03*
X1084000Y0808400D03*
X1084000Y0758400D03*
X1074000Y0758400D03*
X1074000Y0748400D03*
X1084000Y0748400D03*
X1074000Y0738400D03*
X1084000Y0738400D03*
X1074000Y0728400D03*
X1084000Y0728400D03*
X1074000Y0718400D03*
X1084000Y0718400D03*
X1074000Y0708400D03*
X1084000Y0708400D03*
X1074000Y0698400D03*
X1084000Y0698400D03*
X1074000Y0688400D03*
X1084000Y0688400D03*
X1074000Y0678400D03*
X1084000Y0678400D03*
X1074000Y0668400D03*
X1084000Y0668400D03*
X1074000Y0658400D03*
X1084000Y0658400D03*
X1074000Y0648400D03*
X1084000Y0648400D03*
X1074000Y0638400D03*
X1084000Y0638400D03*
D99*
X0835200Y0548840D03*
D14*
X0835200Y0599220D03*
X0851740Y0599220D03*
X0868260Y0599220D03*
X0884800Y0599220D03*
X0835200Y0577580D03*
X0851740Y0577580D03*
X0868260Y0577580D03*
X0884800Y0577580D03*
D99*
X0884800Y0548840D03*
X0715930Y0719200D03*
D14*
X0766320Y0719200D03*
X0766320Y0702660D03*
X0766320Y0686140D03*
X0766320Y0669600D03*
X0744680Y0719200D03*
X0744680Y0702660D03*
X0744680Y0686140D03*
X0744680Y0669600D03*
D99*
X0715930Y0669600D03*
X0715930Y0794200D03*
D14*
X0766320Y0794200D03*
X0766320Y0777660D03*
X0766320Y0761140D03*
X0766320Y0744600D03*
X0744680Y0794200D03*
X0744680Y0777660D03*
X0744680Y0761140D03*
X0744680Y0744600D03*
D99*
X0715930Y0744600D03*
D75*
X0975500Y0652400D03*
D119*
X0800700Y0592400D03*
D44*
X1013020Y0656550D03*
X1026020Y0656550D03*
X1013020Y0668550D03*
X1026020Y0668550D03*
X1014000Y0695150D03*
X1027000Y0695150D03*
X1014000Y0683650D03*
X1027000Y0683650D03*
D47*
X0917000Y0573900D03*
X1003000Y0573900D03*
D75*
X0980000Y0580900D03*
D53*
X0980000Y0570900D03*
X0970000Y0580900D03*
X0970000Y0570900D03*
X0960000Y0580900D03*
X0960000Y0570900D03*
X0950000Y0580900D03*
X0950000Y0570900D03*
X0940000Y0580900D03*
X0940000Y0570900D03*
D58*
X0847500Y0782400D03*
X0847500Y0769400D03*
D44*
X0856000Y0660900D03*
X0843000Y0660900D03*
X0843000Y0670900D03*
X0856000Y0670900D03*
D58*
X0857500Y0782400D03*
X0857500Y0769400D03*
D44*
X0843000Y0640900D03*
X0856000Y0640900D03*
X0843000Y0650900D03*
X0856000Y0650900D03*
D58*
X0867500Y0782400D03*
X0867500Y0769400D03*
D44*
X0843000Y0693400D03*
X0856000Y0693400D03*
X0907000Y0726900D03*
X0920000Y0726900D03*
X0843000Y0713400D03*
X0856000Y0713400D03*
D58*
X0827500Y0782400D03*
X0827500Y0769400D03*
D44*
X0843000Y0735900D03*
X0856000Y0735900D03*
D58*
X0785250Y0602650D03*
X0785250Y0589650D03*
D60*
X0928660Y0726900D03*
X0939840Y0726900D03*
D44*
X0776000Y0625900D03*
X0789000Y0625900D03*
D45*
X0732500Y0581400D03*
X0732500Y0541400D03*
D53*
X0752500Y0551400D03*
X0752500Y0561400D03*
D45*
X0732500Y0645400D03*
X0732500Y0605400D03*
D53*
X0752500Y0615400D03*
X0752500Y0625400D03*
D60*
X0928660Y0737900D03*
X0939840Y0737900D03*
D93*
X0888100Y0774220D03*
X0904630Y0774220D03*
X0921170Y0774220D03*
X0937700Y0774220D03*
X0954240Y0774220D03*
X0970760Y0774220D03*
X0987300Y0774220D03*
X1003830Y0774220D03*
X1020370Y0774220D03*
X1036900Y0774220D03*
X0888100Y0752580D03*
X0904630Y0752580D03*
X0921170Y0752580D03*
X0937700Y0752580D03*
X0954240Y0752580D03*
X0970760Y0752580D03*
X0987300Y0752580D03*
X1003830Y0752580D03*
X1020370Y0752580D03*
X1036900Y0752580D03*
D123*
X0869590Y0754340D03*
X1055410Y0754340D03*
D22*
X0790000Y0559400D03*
D97*
X0780000Y0569400D03*
X0800000Y0569400D03*
X0800000Y0549400D03*
X0780000Y0549400D03*
D44*
X0907000Y0737900D03*
X0920000Y0737900D03*
D95*
X0867000Y0687400D03*
X0872000Y0687400D03*
X0877000Y0687400D03*
X0882000Y0687400D03*
X0887000Y0687400D03*
X0892000Y0687400D03*
X0897000Y0687400D03*
X0897000Y0708400D03*
X0892000Y0708400D03*
X0887000Y0708400D03*
X0882000Y0708400D03*
X0877000Y0708400D03*
X0872000Y0708400D03*
X0867000Y0708400D03*
D58*
X0802000Y0755900D03*
X0802000Y0745900D03*
X0802000Y0735900D03*
X0802000Y0725900D03*
X0832000Y0725900D03*
X0832000Y0735900D03*
X0832000Y0745900D03*
X0832000Y0755900D03*
X0802000Y0713400D03*
X0802000Y0703400D03*
X0802000Y0693400D03*
X0802000Y0683400D03*
X0832000Y0683400D03*
X0832000Y0693400D03*
X0832000Y0703400D03*
X0832000Y0713400D03*
X0802000Y0670900D03*
X0802000Y0660900D03*
X0802000Y0650900D03*
X0802000Y0640900D03*
X0832000Y0640900D03*
X0832000Y0650900D03*
X0832000Y0660900D03*
X0832000Y0670900D03*
X0837500Y0782400D03*
X0837500Y0769400D03*
D44*
X0894800Y0720150D03*
X0881800Y0720150D03*
X0881800Y0730600D03*
X0894800Y0730600D03*
X0856000Y0683400D03*
X0843000Y0683400D03*
D58*
X0817500Y0782400D03*
X0817500Y0769400D03*
D44*
X0843000Y0755900D03*
X0856000Y0755900D03*
D58*
X0805000Y0611900D03*
X0805000Y0624900D03*
D44*
X0877650Y0668200D03*
X0864650Y0668200D03*
D58*
X0871300Y0716300D03*
X0871300Y0729300D03*
D44*
X1054120Y0708430D03*
X1041120Y0708430D03*
X1019470Y0708430D03*
X1032470Y0708430D03*
D58*
X1010000Y0708150D03*
X1010000Y0721150D03*
D95*
X1023960Y0719480D03*
X1028960Y0719480D03*
X1033960Y0719480D03*
X1038960Y0719480D03*
X1043960Y0719480D03*
X1048960Y0719480D03*
X1053960Y0719480D03*
X1053960Y0740480D03*
X1048960Y0740480D03*
X1043960Y0740480D03*
X1038960Y0740480D03*
X1033960Y0740480D03*
X1028960Y0740480D03*
X1023960Y0740480D03*
X0906750Y0687650D03*
X0911750Y0687650D03*
X0916750Y0687650D03*
X0921750Y0687650D03*
X0926750Y0687650D03*
X0931750Y0687650D03*
X0936750Y0687650D03*
X0936750Y0708650D03*
X0931750Y0708650D03*
X0926750Y0708650D03*
X0921750Y0708650D03*
X0916750Y0708650D03*
X0911750Y0708650D03*
X0906750Y0708650D03*
D44*
X0963250Y0791150D03*
X0950250Y0791150D03*
D42*
X1041800Y0666130D03*
X1045550Y0657470D03*
X1038050Y0657470D03*
X1049200Y0692830D03*
X1052950Y0684170D03*
X1045450Y0684170D03*
D29*
X0994530Y0734650D03*
X0985870Y0730900D03*
X0985870Y0738400D03*
D75*
X0905250Y0649400D03*
D53*
X0905250Y0659400D03*
X0905250Y0669400D03*
D75*
X0987500Y0673400D03*
D53*
X0987500Y0683400D03*
X0987500Y0693400D03*
D75*
X0919500Y0649400D03*
D53*
X0919500Y0659400D03*
X0919500Y0669400D03*
D75*
X1001500Y0673400D03*
D53*
X1001500Y0683400D03*
X1001500Y0693400D03*
D75*
X0973500Y0673400D03*
D53*
X0973500Y0683400D03*
X0973500Y0693400D03*
D75*
X0965500Y0652400D03*
D58*
X1091800Y0595350D03*
X1091800Y0582350D03*
X1028100Y0569700D03*
X1028100Y0582700D03*
X1028100Y0604500D03*
X1028100Y0591500D03*
D75*
X1039500Y0558400D03*
D53*
X1039500Y0548400D03*
X1039500Y0538400D03*
D75*
X1055500Y0558400D03*
D53*
X1055500Y0548400D03*
X1055500Y0538400D03*
D75*
X1085500Y0558400D03*
D53*
X1085500Y0548400D03*
X1085500Y0538400D03*
D75*
X1070500Y0558400D03*
D53*
X1070500Y0548400D03*
X1070500Y0538400D03*
D127*
X1082400Y0604800D03*
X1077400Y0604800D03*
X1072400Y0604800D03*
X1067400Y0604800D03*
X1062400Y0604800D03*
X1057400Y0604800D03*
X1052400Y0604800D03*
X1047400Y0604800D03*
X1042400Y0604800D03*
X1037400Y0604800D03*
X1037400Y0566800D03*
X1042400Y0566800D03*
X1047400Y0566800D03*
X1052400Y0566800D03*
X1057400Y0566800D03*
X1062400Y0566800D03*
X1067400Y0566800D03*
X1072400Y0566800D03*
X1077400Y0566800D03*
X1082400Y0566800D03*
D119*
X0800700Y0783900D03*
D44*
X1012700Y0606700D03*
X0999700Y0606700D03*
X0873050Y0678650D03*
X0886050Y0678650D03*
X0886900Y0741100D03*
X0873900Y0741100D03*
X0907050Y0716900D03*
X0920050Y0716900D03*
X1015400Y0739600D03*
X1002400Y0739600D03*
X0305000Y0630000D02*
G01*
D102*
D119*
X0360000Y0665000D03*
X0640000Y0665000D03*
X0360000Y0880000D03*
X0640000Y0880000D03*
D11*
X0332500Y0748750D03*
X0332500Y0856250D03*
D13*
X0335000Y0760000D03*
X0335000Y0755000D03*
X0330000Y0755000D03*
X0330000Y0760000D03*
X0330000Y0775000D03*
X0330000Y0780000D03*
X0330000Y0770000D03*
X0330000Y0765000D03*
X0335000Y0765000D03*
X0335000Y0770000D03*
X0335000Y0780000D03*
X0335000Y0775000D03*
X0330000Y0830000D03*
X0330000Y0835000D03*
X0330000Y0845000D03*
X0330000Y0840000D03*
X0335000Y0840000D03*
X0335000Y0845000D03*
X0335000Y0835000D03*
X0335000Y0830000D03*
X0335000Y0850000D03*
X0330000Y0850000D03*
X0330000Y0825000D03*
X0335000Y0825000D03*
X0335000Y0795000D03*
X0335000Y0800000D03*
X0335000Y0790000D03*
X0335000Y0785000D03*
X0335000Y0805000D03*
X0335000Y0810000D03*
X0335000Y0820000D03*
X0335000Y0815000D03*
X0330000Y0815000D03*
X0330000Y0820000D03*
X0330000Y0810000D03*
X0330000Y0805000D03*
X0330000Y0785000D03*
X0330000Y0790000D03*
X0330000Y0800000D03*
X0330000Y0795000D03*
D11*
X0667500Y0856250D03*
X0667500Y0748750D03*
D13*
X0665000Y0845000D03*
X0665000Y0850000D03*
X0670000Y0850000D03*
X0670000Y0845000D03*
X0670000Y0830000D03*
X0670000Y0825000D03*
X0670000Y0835000D03*
X0670000Y0840000D03*
X0665000Y0840000D03*
X0665000Y0835000D03*
X0665000Y0825000D03*
X0665000Y0830000D03*
X0670000Y0775000D03*
X0670000Y0770000D03*
X0670000Y0760000D03*
X0670000Y0765000D03*
X0665000Y0765000D03*
X0665000Y0760000D03*
X0665000Y0770000D03*
X0665000Y0775000D03*
X0665000Y0755000D03*
X0670000Y0755000D03*
X0670000Y0780000D03*
X0665000Y0780000D03*
X0665000Y0810000D03*
X0665000Y0805000D03*
X0665000Y0815000D03*
X0665000Y0820000D03*
X0665000Y0800000D03*
X0665000Y0795000D03*
X0665000Y0785000D03*
X0665000Y0790000D03*
X0670000Y0790000D03*
X0670000Y0785000D03*
X0670000Y0795000D03*
X0670000Y0800000D03*
X0670000Y0820000D03*
X0670000Y0815000D03*
X0670000Y0805000D03*
X0670000Y0810000D03*
D11*
X0553750Y0660000D03*
X0446250Y0660000D03*
D13*
X0542500Y0662500D03*
X0547500Y0662500D03*
X0547500Y0657500D03*
X0542500Y0657500D03*
X0527500Y0657500D03*
X0522500Y0657500D03*
X0532500Y0657500D03*
X0537500Y0657500D03*
X0537500Y0662500D03*
X0532500Y0662500D03*
X0522500Y0662500D03*
X0527500Y0662500D03*
X0472500Y0657500D03*
X0467500Y0657500D03*
X0457500Y0657500D03*
X0462500Y0657500D03*
X0462500Y0662500D03*
X0457500Y0662500D03*
X0467500Y0662500D03*
X0472500Y0662500D03*
X0452500Y0662500D03*
X0452500Y0657500D03*
X0477500Y0657500D03*
X0477500Y0662500D03*
X0507500Y0662500D03*
X0502500Y0662500D03*
X0512500Y0662500D03*
X0517500Y0662500D03*
X0497500Y0662500D03*
X0492500Y0662500D03*
X0482500Y0662500D03*
X0487500Y0662500D03*
X0487500Y0657500D03*
X0482500Y0657500D03*
X0492500Y0657500D03*
X0497500Y0657500D03*
X0517500Y0657500D03*
X0512500Y0657500D03*
X0502500Y0657500D03*
X0507500Y0657500D03*
D53*
X0610000Y0850000D03*
X0620000Y0850000D03*
X0630000Y0850000D03*
X0640000Y0850000D03*
X0610000Y0840000D03*
X0620000Y0840000D03*
X0630000Y0840000D03*
X0640000Y0840000D03*
X0610000Y0830000D03*
X0620000Y0830000D03*
X0630000Y0830000D03*
X0640000Y0830000D03*
X0610000Y0820000D03*
X0620000Y0820000D03*
X0630000Y0820000D03*
X0640000Y0820000D03*
X0610000Y0810000D03*
X0620000Y0810000D03*
X0630000Y0810000D03*
X0640000Y0810000D03*
X0610000Y0800000D03*
X0620000Y0800000D03*
X0630000Y0800000D03*
X0640000Y0800000D03*
X0610000Y0790000D03*
X0620000Y0790000D03*
X0630000Y0790000D03*
X0640000Y0790000D03*
X0610000Y0780000D03*
X0620000Y0780000D03*
X0630000Y0780000D03*
X0640000Y0780000D03*
X0610000Y0770000D03*
X0620000Y0770000D03*
X0630000Y0770000D03*
X0640000Y0770000D03*
X0610000Y0760000D03*
X0620000Y0760000D03*
X0630000Y0760000D03*
X0640000Y0760000D03*
X0610000Y0750000D03*
X0620000Y0750000D03*
X0630000Y0750000D03*
X0640000Y0750000D03*
X0610000Y0740000D03*
X0620000Y0740000D03*
X0630000Y0740000D03*
X0640000Y0740000D03*
X0610000Y0730000D03*
X0620000Y0730000D03*
X0630000Y0730000D03*
X0640000Y0730000D03*
X0610000Y0720000D03*
X0620000Y0720000D03*
X0630000Y0720000D03*
X0640000Y0720000D03*
X0610000Y0710000D03*
X0620000Y0710000D03*
X0630000Y0710000D03*
X0640000Y0710000D03*
X0360000Y0710000D03*
X0370000Y0710000D03*
X0380000Y0710000D03*
X0390000Y0710000D03*
X0360000Y0720000D03*
X0370000Y0720000D03*
X0380000Y0720000D03*
X0390000Y0720000D03*
X0360000Y0730000D03*
X0370000Y0730000D03*
X0380000Y0730000D03*
X0390000Y0730000D03*
X0360000Y0740000D03*
X0370000Y0740000D03*
X0380000Y0740000D03*
X0390000Y0740000D03*
X0360000Y0750000D03*
X0370000Y0750000D03*
X0380000Y0750000D03*
X0390000Y0750000D03*
X0360000Y0760000D03*
X0370000Y0760000D03*
X0380000Y0760000D03*
X0390000Y0760000D03*
X0360000Y0770000D03*
X0370000Y0770000D03*
X0380000Y0770000D03*
X0390000Y0770000D03*
X0360000Y0780000D03*
X0370000Y0780000D03*
X0380000Y0780000D03*
X0390000Y0780000D03*
X0360000Y0790000D03*
X0370000Y0790000D03*
X0380000Y0790000D03*
X0390000Y0790000D03*
X0360000Y0800000D03*
X0370000Y0800000D03*
X0380000Y0800000D03*
X0390000Y0800000D03*
X0360000Y0810000D03*
X0370000Y0810000D03*
X0380000Y0810000D03*
X0390000Y0810000D03*
X0360000Y0820000D03*
X0370000Y0820000D03*
X0380000Y0820000D03*
X0390000Y0820000D03*
X0360000Y0830000D03*
X0370000Y0830000D03*
X0380000Y0830000D03*
X0390000Y0830000D03*
X0360000Y0840000D03*
X0370000Y0840000D03*
X0380000Y0840000D03*
X0390000Y0840000D03*
X0360000Y0850000D03*
X0370000Y0850000D03*
X0380000Y0850000D03*
X0390000Y0850000D03*
X1112500Y0010000D02*
G01*
D104*
D119*
X1127500Y0430000D03*
X1127500Y0025000D03*
X1427500Y0025000D03*
X1427500Y0430000D03*
D11*
X1326370Y0029130D03*
X1218870Y0029130D03*
D13*
X1315120Y0031630D03*
X1320120Y0031630D03*
X1320120Y0026630D03*
X1315120Y0026630D03*
X1300120Y0026630D03*
X1295120Y0026630D03*
X1305120Y0026630D03*
X1310120Y0026630D03*
X1310120Y0031630D03*
X1305120Y0031630D03*
X1295120Y0031630D03*
X1300120Y0031630D03*
X1245120Y0026630D03*
X1240120Y0026630D03*
X1230120Y0026630D03*
X1235120Y0026630D03*
X1235120Y0031630D03*
X1230120Y0031630D03*
X1240120Y0031630D03*
X1245120Y0031630D03*
X1225120Y0031630D03*
X1225120Y0026630D03*
X1250120Y0026630D03*
X1250120Y0031630D03*
X1280120Y0031630D03*
X1275120Y0031630D03*
X1285120Y0031630D03*
X1290120Y0031630D03*
X1270120Y0031630D03*
X1265120Y0031630D03*
X1255120Y0031630D03*
X1260120Y0031630D03*
X1260120Y0026630D03*
X1255120Y0026630D03*
X1265120Y0026630D03*
X1270120Y0026630D03*
X1290120Y0026630D03*
X1285120Y0026630D03*
X1275120Y0026630D03*
X1280120Y0026630D03*
D47*
X1419620Y0467130D03*
X1333620Y0467130D03*
D75*
X1356620Y0460130D03*
D53*
X1356620Y0470130D03*
X1366620Y0460130D03*
X1366620Y0470130D03*
X1376620Y0460130D03*
X1376620Y0470130D03*
X1386620Y0460130D03*
X1386620Y0470130D03*
X1396620Y0460130D03*
X1396620Y0470130D03*
D58*
X1153120Y0354630D03*
X1153120Y0341630D03*
X1168120Y0271630D03*
X1168120Y0284630D03*
X1153120Y0144630D03*
X1153120Y0131630D03*
X1138120Y0144630D03*
X1138120Y0131630D03*
X1228120Y0271630D03*
X1228120Y0284630D03*
X1228120Y0201630D03*
X1228120Y0214630D03*
X1198120Y0144630D03*
X1198120Y0131630D03*
X1138120Y0284630D03*
X1138120Y0271630D03*
X1168120Y0131630D03*
X1168120Y0144630D03*
X1168120Y0201630D03*
X1168120Y0214630D03*
X1138120Y0354630D03*
X1138120Y0341630D03*
X1393120Y0214630D03*
X1393120Y0201630D03*
X1393120Y0284630D03*
X1393120Y0271630D03*
X1138120Y0214630D03*
X1138120Y0201630D03*
X1153120Y0284630D03*
X1153120Y0271630D03*
X1153120Y0214630D03*
X1153120Y0201630D03*
X1213120Y0214630D03*
X1213120Y0201630D03*
X1273120Y0214630D03*
X1273120Y0201630D03*
X1273120Y0284630D03*
X1273120Y0271630D03*
X1333120Y0284630D03*
X1333120Y0271630D03*
X1333120Y0214630D03*
X1333120Y0201630D03*
X1213120Y0284630D03*
X1213120Y0271630D03*
X1273120Y0354630D03*
X1273120Y0341630D03*
X1258120Y0144630D03*
X1258120Y0131630D03*
X1348120Y0201630D03*
X1348120Y0214630D03*
X1348120Y0271630D03*
X1348120Y0284630D03*
X1348120Y0341630D03*
X1348120Y0354630D03*
X1378120Y0354630D03*
X1378120Y0341630D03*
X1408120Y0131130D03*
X1408120Y0144130D03*
X1378120Y0284630D03*
X1378120Y0271630D03*
X1393120Y0144130D03*
X1393120Y0131130D03*
X1318120Y0284630D03*
X1318120Y0271630D03*
X1318120Y0214630D03*
X1318120Y0201630D03*
X1288120Y0341630D03*
X1288120Y0354630D03*
X1288120Y0201630D03*
X1288120Y0214630D03*
X1333120Y0144630D03*
X1333120Y0131630D03*
X1318120Y0144630D03*
X1318120Y0131630D03*
X1288120Y0271630D03*
X1288120Y0284630D03*
X1318120Y0354630D03*
X1318120Y0341630D03*
X1348120Y0131630D03*
X1348120Y0144630D03*
X1333120Y0354630D03*
X1333120Y0341630D03*
X1378120Y0214630D03*
X1378120Y0201630D03*
X1393120Y0354630D03*
X1393120Y0341630D03*
X1378120Y0144130D03*
X1378120Y0131130D03*
X1408120Y0201630D03*
X1408120Y0214630D03*
X1408120Y0341630D03*
X1408120Y0354630D03*
X1408120Y0271630D03*
X1408120Y0284630D03*
X1213120Y0144630D03*
X1213120Y0131630D03*
X1198120Y0354630D03*
X1198120Y0341630D03*
X1168120Y0341630D03*
X1168120Y0354630D03*
X1273120Y0144630D03*
X1273120Y0131630D03*
X1258120Y0284630D03*
X1258120Y0271630D03*
X1198120Y0214630D03*
X1198120Y0201630D03*
X1198120Y0284630D03*
X1198120Y0271630D03*
X1213120Y0354630D03*
X1213120Y0341630D03*
X1288120Y0131630D03*
X1288120Y0144630D03*
X1258120Y0214630D03*
X1258120Y0201630D03*
X1258120Y0354630D03*
X1258120Y0341630D03*
X1228120Y0341630D03*
X1228120Y0354630D03*
X1228120Y0131630D03*
X1228120Y0144630D03*
D44*
X1228120Y0328130D03*
X1218120Y0328130D03*
X1208120Y0328130D03*
X1198120Y0328130D03*
X1198120Y0298130D03*
X1208120Y0298130D03*
X1218120Y0298130D03*
X1228120Y0298130D03*
X1168120Y0188130D03*
X1158120Y0188130D03*
X1148120Y0188130D03*
X1138120Y0188130D03*
X1138120Y0158130D03*
X1148120Y0158130D03*
X1158120Y0158130D03*
X1168120Y0158130D03*
X1288120Y0118130D03*
X1278120Y0118130D03*
X1268120Y0118130D03*
X1258120Y0118130D03*
X1258120Y0088130D03*
X1268120Y0088130D03*
X1278120Y0088130D03*
X1288120Y0088130D03*
X1348120Y0328130D03*
X1338120Y0328130D03*
X1328120Y0328130D03*
X1318120Y0328130D03*
X1318120Y0298130D03*
X1328120Y0298130D03*
X1338120Y0298130D03*
X1348120Y0298130D03*
X1288120Y0328130D03*
X1278120Y0328130D03*
X1268120Y0328130D03*
X1258120Y0328130D03*
X1258120Y0298130D03*
X1268120Y0298130D03*
X1278120Y0298130D03*
X1288120Y0298130D03*
X1168120Y0258130D03*
X1158120Y0258130D03*
X1148120Y0258130D03*
X1138120Y0258130D03*
X1138120Y0228130D03*
X1148120Y0228130D03*
X1158120Y0228130D03*
X1168120Y0228130D03*
X1288120Y0188130D03*
X1278120Y0188130D03*
X1268120Y0188130D03*
X1258120Y0188130D03*
X1258120Y0158130D03*
X1268120Y0158130D03*
X1278120Y0158130D03*
X1288120Y0158130D03*
X1168120Y0328130D03*
X1158120Y0328130D03*
X1148120Y0328130D03*
X1138120Y0328130D03*
X1138120Y0298130D03*
X1148120Y0298130D03*
X1158120Y0298130D03*
X1168120Y0298130D03*
X1348120Y0188130D03*
X1338120Y0188130D03*
X1328120Y0188130D03*
X1318120Y0188130D03*
X1318120Y0158130D03*
X1328120Y0158130D03*
X1338120Y0158130D03*
X1348120Y0158130D03*
X1348120Y0118130D03*
X1338120Y0118130D03*
X1328120Y0118130D03*
X1318120Y0118130D03*
X1318120Y0088130D03*
X1328120Y0088130D03*
X1338120Y0088130D03*
X1348120Y0088130D03*
X1408120Y0118130D03*
X1398120Y0118130D03*
X1388120Y0118130D03*
X1378120Y0118130D03*
X1378120Y0088130D03*
X1388120Y0088130D03*
X1398120Y0088130D03*
X1408120Y0088130D03*
X1348120Y0258130D03*
X1338120Y0258130D03*
X1328120Y0258130D03*
X1318120Y0258130D03*
X1318120Y0228130D03*
X1328120Y0228130D03*
X1338120Y0228130D03*
X1348120Y0228130D03*
X1228120Y0188130D03*
X1218120Y0188130D03*
X1208120Y0188130D03*
X1198120Y0188130D03*
X1198120Y0158130D03*
X1208120Y0158130D03*
X1218120Y0158130D03*
X1228120Y0158130D03*
X1408120Y0328130D03*
X1398120Y0328130D03*
X1388120Y0328130D03*
X1378120Y0328130D03*
X1378120Y0298130D03*
X1388120Y0298130D03*
X1398120Y0298130D03*
X1408120Y0298130D03*
X1228120Y0258130D03*
X1218120Y0258130D03*
X1208120Y0258130D03*
X1198120Y0258130D03*
X1198120Y0228130D03*
X1208120Y0228130D03*
X1218120Y0228130D03*
X1228120Y0228130D03*
X1408120Y0258130D03*
X1398120Y0258130D03*
X1388120Y0258130D03*
X1378120Y0258130D03*
X1378120Y0228130D03*
X1388120Y0228130D03*
X1398120Y0228130D03*
X1408120Y0228130D03*
X1228120Y0118130D03*
X1218120Y0118130D03*
X1208120Y0118130D03*
X1198120Y0118130D03*
X1198120Y0088130D03*
X1208120Y0088130D03*
X1218120Y0088130D03*
X1228120Y0088130D03*
X1408120Y0188130D03*
X1398120Y0188130D03*
X1388120Y0188130D03*
X1378120Y0188130D03*
X1378120Y0158130D03*
X1388120Y0158130D03*
X1398120Y0158130D03*
X1408120Y0158130D03*
X1288120Y0258130D03*
X1278120Y0258130D03*
X1268120Y0258130D03*
X1258120Y0258130D03*
X1258120Y0228130D03*
X1268120Y0228130D03*
X1278120Y0228130D03*
X1288120Y0228130D03*
X1168120Y0118130D03*
X1158120Y0118130D03*
X1148120Y0118130D03*
X1138120Y0118130D03*
X1138120Y0088130D03*
X1148120Y0088130D03*
X1158120Y0088130D03*
X1168120Y0088130D03*
D105*
X1306620Y0445130D03*
X1226620Y0445130D03*
D15*
X1286620Y0475130D03*
D71*
X1256620Y0435130D03*
X1276620Y0435130D03*
X1236620Y0435130D03*
X1296620Y0435130D03*
D15*
X1246620Y0475130D03*
D22*
X1191620Y0470130D03*
D97*
X1181620Y0480130D03*
X1201620Y0480130D03*
X1201620Y0460130D03*
X1181620Y0460130D03*
D22*
X1141620Y0470130D03*
D97*
X1131620Y0480130D03*
X1151620Y0480130D03*
X1151620Y0460130D03*
X1131620Y0460130D03*
D44*
X1203120Y0445130D03*
X1190120Y0445130D03*
X1400250Y0378000D03*
X1413250Y0378000D03*
D75*
X1361500Y0392500D03*
D53*
X1361500Y0402500D03*
X1371500Y0392500D03*
X1371500Y0402500D03*
X1381500Y0392500D03*
X1381500Y0402500D03*
D75*
X1241500Y0458000D03*
D53*
X1251500Y0458000D03*
X1261500Y0458000D03*
X1271500Y0458000D03*
X1281500Y0458000D03*
X1291500Y0458000D03*
D83*
X1186620Y0430130D03*
X1206620Y0430130D03*
D86*
X1305620Y0412380D03*
X1295620Y0412380D03*
X1285620Y0412380D03*
X1275620Y0412380D03*
X1265620Y0412380D03*
X1255620Y0412380D03*
X1245620Y0412380D03*
X1235620Y0412380D03*
X1225620Y0412380D03*
X1215620Y0412380D03*
X1205620Y0412380D03*
X1195620Y0412380D03*
X1185620Y0412380D03*
D18*
X1315620Y0412380D03*
D86*
X1185620Y0382380D03*
X1195620Y0382380D03*
X1205620Y0382380D03*
X1215620Y0382380D03*
X1225620Y0382380D03*
X1235620Y0382380D03*
X1245620Y0382380D03*
X1255620Y0382380D03*
X1265620Y0382380D03*
X1275620Y0382380D03*
X1285620Y0382380D03*
X1295620Y0382380D03*
X1305620Y0382380D03*
X1315620Y0382380D03*
D76*
X1138120Y0401510D03*
X1138120Y0380250D03*
D75*
X1321000Y0435500D03*
D53*
X1321000Y0425500D03*
D75*
X1402000Y0394000D03*
D53*
X1412000Y0394000D03*
D95*
X1373500Y0447000D03*
X1368500Y0447000D03*
X1363500Y0447000D03*
X1358500Y0447000D03*
X1353500Y0447000D03*
X1348500Y0447000D03*
X1343500Y0447000D03*
X1343500Y0426000D03*
X1348500Y0426000D03*
X1353500Y0426000D03*
X1358500Y0426000D03*
X1363500Y0426000D03*
X1368500Y0426000D03*
X1373500Y0426000D03*
D58*
X1333500Y0424000D03*
X1333500Y0437000D03*
D75*
X1402000Y0405500D03*
D53*
X1412000Y0405500D03*
D60*
X1410090Y0437500D03*
X1398910Y0437500D03*
X1410090Y0427500D03*
X1398910Y0427500D03*
D58*
X1214800Y0458100D03*
X1214800Y0445100D03*
X1243400Y0346700D03*
X1243400Y0333700D03*
X1165500Y0417000D03*
X1165500Y0430000D03*
D44*
X1151000Y0383500D03*
X1164000Y0383500D03*
X1419000Y0366500D03*
X1432000Y0366500D03*
D58*
X1363350Y0346600D03*
X1363350Y0333600D03*
D44*
X1151000Y0397000D03*
X1164000Y0397000D03*
D58*
X1302900Y0346700D03*
X1302900Y0333700D03*
X1183550Y0346850D03*
X1183550Y0333850D03*
D86*
X1344730Y0385070D03*
X1327010Y0385070D03*
X1344730Y0408690D03*
X1327010Y0408690D03*
D60*
X1410090Y0417500D03*
X1398910Y0417500D03*
X1410090Y0447500D03*
X1398910Y0447500D03*
X0010000Y0497500D02*
G01*
D104*
D11*
X0053250Y0539500D03*
X0160750Y0539500D03*
D13*
X0064500Y0537000D03*
X0059500Y0537000D03*
X0059500Y0542000D03*
X0064500Y0542000D03*
X0079500Y0542000D03*
X0084500Y0542000D03*
X0074500Y0542000D03*
X0069500Y0542000D03*
X0069500Y0537000D03*
X0074500Y0537000D03*
X0084500Y0537000D03*
X0079500Y0537000D03*
X0134500Y0542000D03*
X0139500Y0542000D03*
X0149500Y0542000D03*
X0144500Y0542000D03*
X0144500Y0537000D03*
X0149500Y0537000D03*
X0139500Y0537000D03*
X0134500Y0537000D03*
X0154500Y0537000D03*
X0154500Y0542000D03*
X0129500Y0542000D03*
X0129500Y0537000D03*
X0099500Y0537000D03*
X0104500Y0537000D03*
X0094500Y0537000D03*
X0089500Y0537000D03*
X0109500Y0537000D03*
X0114500Y0537000D03*
X0124500Y0537000D03*
X0119500Y0537000D03*
X0119500Y0542000D03*
X0124500Y0542000D03*
X0114500Y0542000D03*
X0109500Y0542000D03*
X0089500Y0542000D03*
X0094500Y0542000D03*
X0104500Y0542000D03*
X0099500Y0542000D03*
D111*
X0191500Y0542000D03*
D58*
X0083500Y0571000D03*
X0083500Y0584000D03*
X0150000Y0571000D03*
X0150000Y0584000D03*
X0149500Y0515500D03*
X0149500Y0502500D03*
X0140500Y0571000D03*
X0140500Y0584000D03*
X0140000Y0515500D03*
X0140000Y0502500D03*
X0131000Y0571000D03*
X0131000Y0584000D03*
X0130500Y0515500D03*
X0130500Y0502500D03*
X0121500Y0571000D03*
X0121500Y0584000D03*
X0121000Y0515500D03*
X0121000Y0502500D03*
X0112000Y0571000D03*
X0112000Y0584000D03*
X0111500Y0515500D03*
X0111500Y0502500D03*
X0102500Y0571000D03*
X0102500Y0584000D03*
X0102000Y0515500D03*
X0102000Y0502500D03*
X0093000Y0571000D03*
X0093000Y0584000D03*
X0092500Y0515500D03*
X0092500Y0502500D03*
X0159000Y0515500D03*
X0159000Y0502500D03*
X0083000Y0515500D03*
X0083000Y0502500D03*
X0074000Y0571000D03*
X0074000Y0584000D03*
X0073500Y0515500D03*
X0073500Y0502500D03*
X0064500Y0571000D03*
X0064500Y0584000D03*
X0064000Y0515500D03*
X0064000Y0502500D03*
X0055000Y0571000D03*
X0055000Y0584000D03*
X0054500Y0515500D03*
X0054500Y0502500D03*
X0045500Y0571000D03*
X0045500Y0584000D03*
X0045000Y0515500D03*
X0045000Y0502500D03*
X0036000Y0571000D03*
X0036000Y0584000D03*
X0035500Y0515500D03*
X0035500Y0502500D03*
X0026500Y0571000D03*
X0026500Y0584000D03*
X0026000Y0515500D03*
X0026000Y0502500D03*
X0017000Y0571000D03*
X0017000Y0584000D03*
X0016500Y0515500D03*
X0016500Y0502500D03*
X0197500Y0571000D03*
X0197500Y0584000D03*
X0197000Y0515500D03*
X0197000Y0502500D03*
X0188000Y0571000D03*
X0188000Y0584000D03*
X0187500Y0515500D03*
X0187500Y0502500D03*
X0178500Y0571000D03*
X0178500Y0584000D03*
X0178000Y0515500D03*
X0178000Y0502500D03*
X0169000Y0571000D03*
X0169000Y0584000D03*
X0168500Y0515500D03*
X0168500Y0502500D03*
X0159500Y0571000D03*
X0159500Y0584000D03*
X1107500Y0497500D02*
G01*
D104*
D119*
X1122500Y0917500D03*
X1122500Y0512500D03*
X1422500Y0512500D03*
X1422500Y0917500D03*
D11*
X1321370Y0516630D03*
X1213870Y0516630D03*
D13*
X1310120Y0519130D03*
X1315120Y0519130D03*
X1315120Y0514130D03*
X1310120Y0514130D03*
X1295120Y0514130D03*
X1290120Y0514130D03*
X1300120Y0514130D03*
X1305120Y0514130D03*
X1305120Y0519130D03*
X1300120Y0519130D03*
X1290120Y0519130D03*
X1295120Y0519130D03*
X1240120Y0514130D03*
X1235120Y0514130D03*
X1225120Y0514130D03*
X1230120Y0514130D03*
X1230120Y0519130D03*
X1225120Y0519130D03*
X1235120Y0519130D03*
X1240120Y0519130D03*
X1220120Y0519130D03*
X1220120Y0514130D03*
X1245120Y0514130D03*
X1245120Y0519130D03*
X1275120Y0519130D03*
X1270120Y0519130D03*
X1280120Y0519130D03*
X1285120Y0519130D03*
X1265120Y0519130D03*
X1260120Y0519130D03*
X1250120Y0519130D03*
X1255120Y0519130D03*
X1255120Y0514130D03*
X1250120Y0514130D03*
X1260120Y0514130D03*
X1265120Y0514130D03*
X1285120Y0514130D03*
X1280120Y0514130D03*
X1270120Y0514130D03*
X1275120Y0514130D03*
D47*
X1414620Y0954630D03*
X1328620Y0954630D03*
D75*
X1351620Y0947630D03*
D53*
X1351620Y0957630D03*
X1361620Y0947630D03*
X1361620Y0957630D03*
X1371620Y0947630D03*
X1371620Y0957630D03*
X1381620Y0947630D03*
X1381620Y0957630D03*
X1391620Y0947630D03*
X1391620Y0957630D03*
D58*
X1148120Y0842130D03*
X1148120Y0829130D03*
X1163120Y0759130D03*
X1163120Y0772130D03*
X1148120Y0632130D03*
X1148120Y0619130D03*
X1133120Y0632130D03*
X1133120Y0619130D03*
X1223120Y0759130D03*
X1223120Y0772130D03*
X1223120Y0689130D03*
X1223120Y0702130D03*
X1193120Y0632130D03*
X1193120Y0619130D03*
X1133120Y0772130D03*
X1133120Y0759130D03*
X1163120Y0619130D03*
X1163120Y0632130D03*
X1163120Y0689130D03*
X1163120Y0702130D03*
X1133120Y0842130D03*
X1133120Y0829130D03*
X1388120Y0702130D03*
X1388120Y0689130D03*
X1388120Y0772130D03*
X1388120Y0759130D03*
X1133120Y0702130D03*
X1133120Y0689130D03*
X1148120Y0772130D03*
X1148120Y0759130D03*
X1148120Y0702130D03*
X1148120Y0689130D03*
X1208120Y0702130D03*
X1208120Y0689130D03*
X1268120Y0702130D03*
X1268120Y0689130D03*
X1268120Y0772130D03*
X1268120Y0759130D03*
X1328120Y0772130D03*
X1328120Y0759130D03*
X1328120Y0702130D03*
X1328120Y0689130D03*
X1208120Y0772130D03*
X1208120Y0759130D03*
X1268120Y0842130D03*
X1268120Y0829130D03*
X1253120Y0632130D03*
X1253120Y0619130D03*
X1343120Y0689130D03*
X1343120Y0702130D03*
X1343120Y0759130D03*
X1343120Y0772130D03*
X1343120Y0829130D03*
X1343120Y0842130D03*
X1373120Y0842130D03*
X1373120Y0829130D03*
X1403120Y0618630D03*
X1403120Y0631630D03*
X1373120Y0772130D03*
X1373120Y0759130D03*
X1388120Y0631630D03*
X1388120Y0618630D03*
X1313120Y0772130D03*
X1313120Y0759130D03*
X1313120Y0702130D03*
X1313120Y0689130D03*
X1283120Y0829130D03*
X1283120Y0842130D03*
X1283120Y0689130D03*
X1283120Y0702130D03*
X1328120Y0632130D03*
X1328120Y0619130D03*
X1313120Y0632130D03*
X1313120Y0619130D03*
X1283120Y0759130D03*
X1283120Y0772130D03*
X1313120Y0842130D03*
X1313120Y0829130D03*
X1343120Y0619130D03*
X1343120Y0632130D03*
X1328120Y0842130D03*
X1328120Y0829130D03*
X1373120Y0702130D03*
X1373120Y0689130D03*
X1388120Y0842130D03*
X1388120Y0829130D03*
X1373120Y0631630D03*
X1373120Y0618630D03*
X1403120Y0689130D03*
X1403120Y0702130D03*
X1403120Y0829130D03*
X1403120Y0842130D03*
X1403120Y0759130D03*
X1403120Y0772130D03*
X1208120Y0632130D03*
X1208120Y0619130D03*
X1193120Y0842130D03*
X1193120Y0829130D03*
X1163120Y0829130D03*
X1163120Y0842130D03*
X1268120Y0632130D03*
X1268120Y0619130D03*
X1253120Y0772130D03*
X1253120Y0759130D03*
X1193120Y0702130D03*
X1193120Y0689130D03*
X1193120Y0772130D03*
X1193120Y0759130D03*
X1208120Y0842130D03*
X1208120Y0829130D03*
X1283120Y0619130D03*
X1283120Y0632130D03*
X1253120Y0702130D03*
X1253120Y0689130D03*
X1253120Y0842130D03*
X1253120Y0829130D03*
X1223120Y0829130D03*
X1223120Y0842130D03*
X1223120Y0619130D03*
X1223120Y0632130D03*
D44*
X1223120Y0815630D03*
X1213120Y0815630D03*
X1203120Y0815630D03*
X1193120Y0815630D03*
X1193120Y0785630D03*
X1203120Y0785630D03*
X1213120Y0785630D03*
X1223120Y0785630D03*
X1163120Y0675630D03*
X1153120Y0675630D03*
X1143120Y0675630D03*
X1133120Y0675630D03*
X1133120Y0645630D03*
X1143120Y0645630D03*
X1153120Y0645630D03*
X1163120Y0645630D03*
X1283120Y0605630D03*
X1273120Y0605630D03*
X1263120Y0605630D03*
X1253120Y0605630D03*
X1253120Y0575630D03*
X1263120Y0575630D03*
X1273120Y0575630D03*
X1283120Y0575630D03*
X1343120Y0815630D03*
X1333120Y0815630D03*
X1323120Y0815630D03*
X1313120Y0815630D03*
X1313120Y0785630D03*
X1323120Y0785630D03*
X1333120Y0785630D03*
X1343120Y0785630D03*
X1283120Y0815630D03*
X1273120Y0815630D03*
X1263120Y0815630D03*
X1253120Y0815630D03*
X1253120Y0785630D03*
X1263120Y0785630D03*
X1273120Y0785630D03*
X1283120Y0785630D03*
X1163120Y0745630D03*
X1153120Y0745630D03*
X1143120Y0745630D03*
X1133120Y0745630D03*
X1133120Y0715630D03*
X1143120Y0715630D03*
X1153120Y0715630D03*
X1163120Y0715630D03*
X1283120Y0675630D03*
X1273120Y0675630D03*
X1263120Y0675630D03*
X1253120Y0675630D03*
X1253120Y0645630D03*
X1263120Y0645630D03*
X1273120Y0645630D03*
X1283120Y0645630D03*
X1163120Y0815630D03*
X1153120Y0815630D03*
X1143120Y0815630D03*
X1133120Y0815630D03*
X1133120Y0785630D03*
X1143120Y0785630D03*
X1153120Y0785630D03*
X1163120Y0785630D03*
X1343120Y0675630D03*
X1333120Y0675630D03*
X1323120Y0675630D03*
X1313120Y0675630D03*
X1313120Y0645630D03*
X1323120Y0645630D03*
X1333120Y0645630D03*
X1343120Y0645630D03*
X1343120Y0605630D03*
X1333120Y0605630D03*
X1323120Y0605630D03*
X1313120Y0605630D03*
X1313120Y0575630D03*
X1323120Y0575630D03*
X1333120Y0575630D03*
X1343120Y0575630D03*
X1403120Y0605630D03*
X1393120Y0605630D03*
X1383120Y0605630D03*
X1373120Y0605630D03*
X1373120Y0575630D03*
X1383120Y0575630D03*
X1393120Y0575630D03*
X1403120Y0575630D03*
X1343120Y0745630D03*
X1333120Y0745630D03*
X1323120Y0745630D03*
X1313120Y0745630D03*
X1313120Y0715630D03*
X1323120Y0715630D03*
X1333120Y0715630D03*
X1343120Y0715630D03*
X1223120Y0675630D03*
X1213120Y0675630D03*
X1203120Y0675630D03*
X1193120Y0675630D03*
X1193120Y0645630D03*
X1203120Y0645630D03*
X1213120Y0645630D03*
X1223120Y0645630D03*
X1403120Y0815630D03*
X1393120Y0815630D03*
X1383120Y0815630D03*
X1373120Y0815630D03*
X1373120Y0785630D03*
X1383120Y0785630D03*
X1393120Y0785630D03*
X1403120Y0785630D03*
X1223120Y0745630D03*
X1213120Y0745630D03*
X1203120Y0745630D03*
X1193120Y0745630D03*
X1193120Y0715630D03*
X1203120Y0715630D03*
X1213120Y0715630D03*
X1223120Y0715630D03*
X1403120Y0745630D03*
X1393120Y0745630D03*
X1383120Y0745630D03*
X1373120Y0745630D03*
X1373120Y0715630D03*
X1383120Y0715630D03*
X1393120Y0715630D03*
X1403120Y0715630D03*
X1223120Y0605630D03*
X1213120Y0605630D03*
X1203120Y0605630D03*
X1193120Y0605630D03*
X1193120Y0575630D03*
X1203120Y0575630D03*
X1213120Y0575630D03*
X1223120Y0575630D03*
X1403120Y0675630D03*
X1393120Y0675630D03*
X1383120Y0675630D03*
X1373120Y0675630D03*
X1373120Y0645630D03*
X1383120Y0645630D03*
X1393120Y0645630D03*
X1403120Y0645630D03*
X1283120Y0745630D03*
X1273120Y0745630D03*
X1263120Y0745630D03*
X1253120Y0745630D03*
X1253120Y0715630D03*
X1263120Y0715630D03*
X1273120Y0715630D03*
X1283120Y0715630D03*
X1163120Y0605630D03*
X1153120Y0605630D03*
X1143120Y0605630D03*
X1133120Y0605630D03*
X1133120Y0575630D03*
X1143120Y0575630D03*
X1153120Y0575630D03*
X1163120Y0575630D03*
D105*
X1301620Y0932630D03*
X1221620Y0932630D03*
D15*
X1281620Y0962630D03*
D71*
X1251620Y0922630D03*
X1271620Y0922630D03*
X1231620Y0922630D03*
X1291620Y0922630D03*
D15*
X1241620Y0962630D03*
D22*
X1186620Y0957630D03*
D97*
X1176620Y0967630D03*
X1196620Y0967630D03*
X1196620Y0947630D03*
X1176620Y0947630D03*
D22*
X1136620Y0957630D03*
D97*
X1126620Y0967630D03*
X1146620Y0967630D03*
X1146620Y0947630D03*
X1126620Y0947630D03*
D44*
X1198120Y0932630D03*
X1185120Y0932630D03*
X1395250Y0865500D03*
X1408250Y0865500D03*
D75*
X1356500Y0880000D03*
D53*
X1356500Y0890000D03*
X1366500Y0880000D03*
X1366500Y0890000D03*
X1376500Y0880000D03*
X1376500Y0890000D03*
D75*
X1236500Y0945500D03*
D53*
X1246500Y0945500D03*
X1256500Y0945500D03*
X1266500Y0945500D03*
X1276500Y0945500D03*
X1286500Y0945500D03*
D83*
X1181620Y0917630D03*
X1201620Y0917630D03*
D86*
X1300620Y0899880D03*
X1290620Y0899880D03*
X1280620Y0899880D03*
X1270620Y0899880D03*
X1260620Y0899880D03*
X1250620Y0899880D03*
X1240620Y0899880D03*
X1230620Y0899880D03*
X1220620Y0899880D03*
X1210620Y0899880D03*
X1200620Y0899880D03*
X1190620Y0899880D03*
X1180620Y0899880D03*
D18*
X1310620Y0899880D03*
D86*
X1180620Y0869880D03*
X1190620Y0869880D03*
X1200620Y0869880D03*
X1210620Y0869880D03*
X1220620Y0869880D03*
X1230620Y0869880D03*
X1240620Y0869880D03*
X1250620Y0869880D03*
X1260620Y0869880D03*
X1270620Y0869880D03*
X1280620Y0869880D03*
X1290620Y0869880D03*
X1300620Y0869880D03*
X1310620Y0869880D03*
D76*
X1133120Y0889010D03*
X1133120Y0867750D03*
D75*
X1316000Y0923000D03*
D53*
X1316000Y0913000D03*
D75*
X1397000Y0881500D03*
D53*
X1407000Y0881500D03*
D95*
X1368500Y0934500D03*
X1363500Y0934500D03*
X1358500Y0934500D03*
X1353500Y0934500D03*
X1348500Y0934500D03*
X1343500Y0934500D03*
X1338500Y0934500D03*
X1338500Y0913500D03*
X1343500Y0913500D03*
X1348500Y0913500D03*
X1353500Y0913500D03*
X1358500Y0913500D03*
X1363500Y0913500D03*
X1368500Y0913500D03*
D58*
X1328500Y0911500D03*
X1328500Y0924500D03*
D75*
X1397000Y0893000D03*
D53*
X1407000Y0893000D03*
D60*
X1405090Y0925000D03*
X1393910Y0925000D03*
X1405090Y0915000D03*
X1393910Y0915000D03*
D58*
X1209800Y0945600D03*
X1209800Y0932600D03*
X1238400Y0834200D03*
X1238400Y0821200D03*
X1160500Y0904500D03*
X1160500Y0917500D03*
D44*
X1146000Y0871000D03*
X1159000Y0871000D03*
X1414000Y0854000D03*
X1427000Y0854000D03*
D58*
X1358350Y0834100D03*
X1358350Y0821100D03*
D44*
X1146000Y0884500D03*
X1159000Y0884500D03*
D58*
X1297900Y0834200D03*
X1297900Y0821200D03*
X1178550Y0834350D03*
X1178550Y0821350D03*
D86*
X1339730Y0872570D03*
X1322010Y0872570D03*
X1339730Y0896190D03*
X1322010Y0896190D03*
D60*
X1405090Y0905000D03*
X1393910Y0905000D03*
X1405090Y0935000D03*
X1393910Y0935000D03*
X0702500Y0825900D02*
G01*
D104*
D101*
X0722250Y0845400D03*
X0808250Y0845400D03*
D34*
X0785250Y0852400D03*
D84*
X0785250Y0842400D03*
X0775250Y0852400D03*
X0775250Y0842400D03*
X0765250Y0852400D03*
X0765250Y0842400D03*
X0755250Y0852400D03*
X0755250Y0842400D03*
X0745250Y0852400D03*
X0745250Y0842400D03*
D40*
X1061500Y0904150D03*
X0870250Y0904150D03*
D16*
X0839950Y0833240D03*
D118*
X0839950Y0883620D03*
X0856490Y0883620D03*
X0873010Y0883620D03*
X0889550Y0883620D03*
X0839950Y0861980D03*
X0856490Y0861980D03*
X0873010Y0861980D03*
X0889550Y0861980D03*
D16*
X0889550Y0833240D03*
D101*
X0808250Y0986900D03*
X0722250Y0986900D03*
D34*
X0745250Y0979900D03*
D84*
X0745250Y0989900D03*
X0755250Y0979900D03*
X0755250Y0989900D03*
X0765250Y0979900D03*
X0765250Y0989900D03*
X0775250Y0979900D03*
X0775250Y0989900D03*
X0785250Y0979900D03*
X0785250Y0989900D03*
D70*
X0925750Y0894400D03*
X0925750Y0915400D03*
X0920750Y0894400D03*
X0915750Y0894400D03*
X0910750Y0894400D03*
X0920750Y0915400D03*
X0915750Y0915400D03*
X0910750Y0915400D03*
D74*
X0987750Y0841400D03*
X0992750Y0841400D03*
X0997750Y0841400D03*
X1002750Y0841400D03*
X1007750Y0841400D03*
X1012750Y0841400D03*
X1017750Y0841400D03*
X1017750Y0862400D03*
X1012750Y0862400D03*
X1007750Y0862400D03*
X1002750Y0862400D03*
X0997750Y0862400D03*
X0992750Y0862400D03*
X0987750Y0862400D03*
D72*
X0951350Y0981200D03*
X0951350Y0994200D03*
D129*
X0922750Y0925900D03*
X0935750Y0925900D03*
D109*
X0885250Y0970900D03*
X0845250Y0970900D03*
D84*
X0855250Y0950900D03*
X0865250Y0950900D03*
D68*
X1089710Y0937290D03*
X1071990Y0937290D03*
X1089710Y0960910D03*
X1071990Y0960910D03*
D129*
X0946750Y0914900D03*
X0933750Y0914900D03*
D72*
X0935400Y0892650D03*
X0935400Y0905650D03*
D34*
X0938550Y0992900D03*
D84*
X0938550Y0982900D03*
X0928550Y0992900D03*
X0928550Y0982900D03*
X0918550Y0992900D03*
X0918550Y0982900D03*
D34*
X1038450Y0995100D03*
D84*
X1048450Y0995100D03*
X1058450Y0995100D03*
X1068450Y0995100D03*
X1078450Y0995100D03*
X1088450Y0995100D03*
D68*
X1046650Y0969900D03*
X1036650Y0969900D03*
X1026650Y0969900D03*
X1016650Y0969900D03*
X1006650Y0969900D03*
X0996650Y0969900D03*
X0986650Y0969900D03*
X0976650Y0969900D03*
X0966650Y0969900D03*
X0956650Y0969900D03*
X0946650Y0969900D03*
X0936650Y0969900D03*
X0926650Y0969900D03*
D46*
X1056650Y0969900D03*
D68*
X0926650Y0939900D03*
X0936650Y0939900D03*
X0946650Y0939900D03*
X0956650Y0939900D03*
X0966650Y0939900D03*
X0976650Y0939900D03*
X0986650Y0939900D03*
X0996650Y0939900D03*
X1006650Y0939900D03*
X1016650Y0939900D03*
X1026650Y0939900D03*
X1036650Y0939900D03*
X1046650Y0939900D03*
X1056650Y0939900D03*
D65*
X1083390Y0925100D03*
X1080830Y0925100D03*
X1078270Y0925100D03*
X1075710Y0925100D03*
X1075710Y0908100D03*
X1078270Y0908100D03*
X1080830Y0908100D03*
X1083390Y0908100D03*
D72*
X1020150Y0993700D03*
X1020150Y0980700D03*
D129*
X0716750Y0878100D03*
X0729750Y0878100D03*
D20*
X0716560Y0867900D03*
X0727740Y0867900D03*
D34*
X0903500Y0945400D03*
D84*
X0903500Y0955400D03*
X0903500Y0965400D03*
D74*
X1086650Y0885400D03*
X1081650Y0885400D03*
X1076650Y0885400D03*
X1071650Y0885400D03*
X1066650Y0885400D03*
X1061650Y0885400D03*
X1056650Y0885400D03*
X1056650Y0864400D03*
X1061650Y0864400D03*
X1066650Y0864400D03*
X1071650Y0864400D03*
X1076650Y0864400D03*
X1081650Y0864400D03*
X1086650Y0864400D03*
X0947650Y0866900D03*
X0952650Y0866900D03*
X0957650Y0866900D03*
X0962650Y0866900D03*
X0967650Y0866900D03*
X0972650Y0866900D03*
X0977650Y0866900D03*
X0977650Y0887900D03*
X0972650Y0887900D03*
X0967650Y0887900D03*
X0962650Y0887900D03*
X0957650Y0887900D03*
X0952650Y0887900D03*
X0947650Y0887900D03*
D43*
X0970550Y0988300D03*
X0990550Y0988300D03*
D128*
X1045550Y0918900D03*
X1040550Y0918900D03*
X1035550Y0918900D03*
X1030550Y0918900D03*
X1025550Y0918900D03*
X1020550Y0918900D03*
X1015550Y0918900D03*
X1010550Y0918900D03*
X1005550Y0918900D03*
X1000550Y0918900D03*
X0995550Y0918900D03*
X0990550Y0918900D03*
X1045550Y0880900D03*
X1040550Y0880900D03*
X1035550Y0880900D03*
X1030550Y0880900D03*
X1025550Y0880900D03*
X1020550Y0880900D03*
X1015550Y0880900D03*
X1010550Y0880900D03*
X1005550Y0880900D03*
X1000550Y0880900D03*
X0995550Y0880900D03*
X0990550Y0880900D03*
D70*
X1031450Y0862400D03*
X1031450Y0841400D03*
X1036450Y0862400D03*
X1041450Y0862400D03*
X1046450Y0862400D03*
X1036450Y0841400D03*
X1041450Y0841400D03*
X1046450Y0841400D03*
D129*
X1080450Y0982400D03*
X1067450Y0982400D03*
D72*
X1009850Y0980700D03*
X1009850Y0993700D03*
X0968850Y0844000D03*
X0968850Y0857000D03*
X0926450Y0850700D03*
X0926450Y0863700D03*
X0958450Y0844000D03*
X0958450Y0857000D03*
X0948050Y0844000D03*
X0948050Y0857000D03*
D129*
X0967450Y0900600D03*
X0980450Y0900600D03*
X0959250Y0900600D03*
X0946250Y0900600D03*
D19*
X0967350Y0915370D03*
X0963600Y0924030D03*
X0971100Y0924030D03*
D34*
X1037350Y0980100D03*
D84*
X1047350Y0980100D03*
D74*
X0815650Y0905900D03*
X0820650Y0905900D03*
X0825650Y0905900D03*
X0830650Y0905900D03*
X0835650Y0905900D03*
X0840650Y0905900D03*
X0845650Y0905900D03*
X0845650Y0926900D03*
X0840650Y0926900D03*
X0835650Y0926900D03*
X0830650Y0926900D03*
X0825650Y0926900D03*
X0820650Y0926900D03*
X0815650Y0926900D03*
D129*
X0811400Y0939450D03*
X0824400Y0939450D03*
X0763950Y0876900D03*
X0776950Y0876900D03*
X0763850Y0866300D03*
X0776850Y0866300D03*
D34*
X0822450Y0952650D03*
D84*
X0812450Y0952650D03*
D20*
X0787460Y0876300D03*
X0798640Y0876300D03*
X0787410Y0866850D03*
X0798590Y0866850D03*
D72*
X0804550Y0913800D03*
X0804550Y0926800D03*
X1089530Y0982740D03*
X1089530Y0969740D03*
X1091130Y0909940D03*
X1091130Y0922940D03*
D129*
X1077400Y0856600D03*
X1090400Y0856600D03*
X0903000Y0919350D03*
X0890000Y0919350D03*
X0909850Y0886250D03*
X0922850Y0886250D03*
X1004600Y0832950D03*
X0991600Y0832950D03*
D72*
X0937700Y0869350D03*
X0937700Y0882350D03*
X1053350Y0836300D03*
X1053350Y0849300D03*
X0497500Y0907500D02*
G01*
D104*
D11*
X0540750Y0949500D03*
X0648250Y0949500D03*
D13*
X0552000Y0947000D03*
X0547000Y0947000D03*
X0547000Y0952000D03*
X0552000Y0952000D03*
X0567000Y0952000D03*
X0572000Y0952000D03*
X0562000Y0952000D03*
X0557000Y0952000D03*
X0557000Y0947000D03*
X0562000Y0947000D03*
X0572000Y0947000D03*
X0567000Y0947000D03*
X0622000Y0952000D03*
X0627000Y0952000D03*
X0637000Y0952000D03*
X0632000Y0952000D03*
X0632000Y0947000D03*
X0637000Y0947000D03*
X0627000Y0947000D03*
X0622000Y0947000D03*
X0642000Y0947000D03*
X0642000Y0952000D03*
X0617000Y0952000D03*
X0617000Y0947000D03*
X0587000Y0947000D03*
X0592000Y0947000D03*
X0582000Y0947000D03*
X0577000Y0947000D03*
X0597000Y0947000D03*
X0602000Y0947000D03*
X0612000Y0947000D03*
X0607000Y0947000D03*
X0607000Y0952000D03*
X0612000Y0952000D03*
X0602000Y0952000D03*
X0597000Y0952000D03*
X0577000Y0952000D03*
X0582000Y0952000D03*
X0592000Y0952000D03*
X0587000Y0952000D03*
D111*
X0679000Y0952000D03*
D58*
X0571000Y0981000D03*
X0571000Y0994000D03*
X0637500Y0981000D03*
X0637500Y0994000D03*
X0637000Y0925500D03*
X0637000Y0912500D03*
X0628000Y0981000D03*
X0628000Y0994000D03*
X0627500Y0925500D03*
X0627500Y0912500D03*
X0618500Y0981000D03*
X0618500Y0994000D03*
X0618000Y0925500D03*
X0618000Y0912500D03*
X0609000Y0981000D03*
X0609000Y0994000D03*
X0608500Y0925500D03*
X0608500Y0912500D03*
X0599500Y0981000D03*
X0599500Y0994000D03*
X0599000Y0925500D03*
X0599000Y0912500D03*
X0590000Y0981000D03*
X0590000Y0994000D03*
X0589500Y0925500D03*
X0589500Y0912500D03*
X0580500Y0981000D03*
X0580500Y0994000D03*
X0580000Y0925500D03*
X0580000Y0912500D03*
X0646500Y0925500D03*
X0646500Y0912500D03*
X0570500Y0925500D03*
X0570500Y0912500D03*
X0561500Y0981000D03*
X0561500Y0994000D03*
X0561000Y0925500D03*
X0561000Y0912500D03*
X0552000Y0981000D03*
X0552000Y0994000D03*
X0551500Y0925500D03*
X0551500Y0912500D03*
X0542500Y0981000D03*
X0542500Y0994000D03*
X0542000Y0925500D03*
X0542000Y0912500D03*
X0533000Y0981000D03*
X0533000Y0994000D03*
X0532500Y0925500D03*
X0532500Y0912500D03*
X0523500Y0981000D03*
X0523500Y0994000D03*
X0523000Y0925500D03*
X0523000Y0912500D03*
X0514000Y0981000D03*
X0514000Y0994000D03*
X0513500Y0925500D03*
X0513500Y0912500D03*
X0504500Y0981000D03*
X0504500Y0994000D03*
X0504000Y0925500D03*
X0504000Y0912500D03*
X0685000Y0981000D03*
X0685000Y0994000D03*
X0684500Y0925500D03*
X0684500Y0912500D03*
X0675500Y0981000D03*
X0675500Y0994000D03*
X0675000Y0925500D03*
X0675000Y0912500D03*
X0666000Y0981000D03*
X0666000Y0994000D03*
X0665500Y0925500D03*
X0665500Y0912500D03*
X0656500Y0981000D03*
X0656500Y0994000D03*
X0656000Y0925500D03*
X0656000Y0912500D03*
X0647000Y0981000D03*
X0647000Y0994000D03*
X0010000Y0597500D02*
G01*
D104*
D53*
X0120000Y0859500D03*
X0120000Y0849500D03*
X0110000Y0849500D03*
X0110000Y0859500D03*
X0100000Y0859500D03*
X0100000Y0849500D03*
D135*
X0020000Y0673000D03*
X0020000Y0683000D03*
X0210000Y0709000D03*
X0210000Y0719000D03*
X0020000Y0869000D03*
X0020000Y0879000D03*
X0020000Y0889000D03*
X0020000Y0899000D03*
X0020000Y0909000D03*
X0020000Y0919000D03*
X0020000Y0929000D03*
X0020000Y0939000D03*
X0210000Y0959000D03*
X0210000Y0949000D03*
X0210000Y0939000D03*
X0210000Y0929000D03*
X0210000Y0889000D03*
X0210000Y0869000D03*
X0210000Y0859000D03*
X0210000Y0899000D03*
X0210000Y0909000D03*
X0210000Y0919000D03*
X0210000Y0849000D03*
X0210000Y0839000D03*
X0210000Y0829000D03*
X0210000Y0799000D03*
X0210000Y0809000D03*
X0210000Y0819000D03*
X0210000Y0779000D03*
X0210000Y0769000D03*
X0210000Y0759000D03*
X0210000Y0739000D03*
X0210000Y0729000D03*
X0020000Y0849000D03*
X0020000Y0839000D03*
X0020000Y0829000D03*
X0020000Y0819000D03*
X0020000Y0809000D03*
X0020000Y0799000D03*
X0020000Y0789000D03*
X0020000Y0779000D03*
X0020000Y0763000D03*
X0020000Y0753000D03*
X0020000Y0743000D03*
X0020000Y0733000D03*
X0020000Y0723000D03*
X0020000Y0713000D03*
X0020000Y0703000D03*
X0020000Y0693000D03*
X0210000Y0749000D03*
D96*
X0210000Y0979000D03*
X0020000Y0954000D03*
D53*
X0030000Y0969000D03*
X0030000Y0979000D03*
X0040000Y0969000D03*
X0040000Y0979000D03*
X0050000Y0969000D03*
X0050000Y0979000D03*
X0060000Y0969000D03*
X0060000Y0979000D03*
X0020000Y0969000D03*
X0020000Y0979000D03*
X0070000Y0979000D03*
X0070000Y0969000D03*
X0080000Y0969000D03*
X0080000Y0979000D03*
X0090000Y0969000D03*
X0090000Y0979000D03*
X0100000Y0969000D03*
X0100000Y0979000D03*
X0110000Y0969000D03*
X0110000Y0979000D03*
X0120000Y0969000D03*
X0120000Y0979000D03*
X0130000Y0969000D03*
X0130000Y0979000D03*
X0140000Y0969000D03*
X0140000Y0979000D03*
X0150000Y0969000D03*
X0150000Y0979000D03*
X0160000Y0969000D03*
X0160000Y0979000D03*
X0170000Y0969000D03*
X0170000Y0979000D03*
X0180000Y0969000D03*
X0180000Y0979000D03*
X0190000Y0969000D03*
X0190000Y0979000D03*
D99*
X0279560Y0730200D03*
D14*
X0229180Y0730200D03*
X0229180Y0746740D03*
X0229180Y0763260D03*
X0229180Y0779800D03*
X0250820Y0730200D03*
X0250820Y0746740D03*
X0250820Y0763260D03*
X0250820Y0779800D03*
D99*
X0279560Y0779800D03*
X0109200Y0610930D03*
D14*
X0109200Y0661320D03*
X0125740Y0661320D03*
X0142260Y0661320D03*
X0158800Y0661320D03*
X0109200Y0639680D03*
X0125740Y0639680D03*
X0142260Y0639680D03*
X0158800Y0639680D03*
D99*
X0158800Y0610930D03*
X0034200Y0610930D03*
D14*
X0034200Y0661320D03*
X0050740Y0661320D03*
X0067260Y0661320D03*
X0083800Y0661320D03*
X0034200Y0639680D03*
X0050740Y0639680D03*
X0067260Y0639680D03*
X0083800Y0639680D03*
D99*
X0083800Y0610930D03*
D75*
X0176000Y0870500D03*
D119*
X0236000Y0695700D03*
D58*
X0171850Y0908020D03*
X0171850Y0921020D03*
X0159850Y0908020D03*
X0159850Y0921020D03*
X0133250Y0909000D03*
X0133250Y0922000D03*
X0144750Y0909000D03*
X0144750Y0922000D03*
D47*
X0254500Y0812000D03*
X0254500Y0898000D03*
D75*
X0247500Y0875000D03*
D53*
X0257500Y0875000D03*
X0247500Y0865000D03*
X0257500Y0865000D03*
X0247500Y0855000D03*
X0257500Y0855000D03*
X0247500Y0845000D03*
X0257500Y0845000D03*
X0247500Y0835000D03*
X0257500Y0835000D03*
D44*
X0046000Y0742500D03*
X0059000Y0742500D03*
D58*
X0167500Y0751000D03*
X0167500Y0738000D03*
X0157500Y0738000D03*
X0157500Y0751000D03*
D44*
X0046000Y0752500D03*
X0059000Y0752500D03*
D58*
X0187500Y0738000D03*
X0187500Y0751000D03*
X0177500Y0738000D03*
X0177500Y0751000D03*
D44*
X0046000Y0762500D03*
X0059000Y0762500D03*
D58*
X0135000Y0738000D03*
X0135000Y0751000D03*
X0101500Y0802000D03*
X0101500Y0815000D03*
X0115000Y0738000D03*
X0115000Y0751000D03*
D44*
X0046000Y0722500D03*
X0059000Y0722500D03*
D58*
X0092500Y0738000D03*
X0092500Y0751000D03*
D44*
X0225750Y0680250D03*
X0238750Y0680250D03*
D134*
X0101500Y0823660D03*
X0101500Y0834840D03*
D58*
X0202500Y0671000D03*
X0202500Y0684000D03*
D45*
X0247000Y0627500D03*
X0287000Y0627500D03*
D53*
X0277000Y0647500D03*
X0267000Y0647500D03*
D45*
X0183000Y0627500D03*
X0223000Y0627500D03*
D53*
X0213000Y0647500D03*
X0203000Y0647500D03*
D134*
X0090500Y0823660D03*
X0090500Y0834840D03*
D93*
X0054180Y0783100D03*
X0054180Y0799630D03*
X0054180Y0816170D03*
X0054180Y0832700D03*
X0054180Y0849240D03*
X0054180Y0865760D03*
X0054180Y0882300D03*
X0054180Y0898830D03*
X0054180Y0915370D03*
X0054180Y0931900D03*
X0075820Y0783100D03*
X0075820Y0799630D03*
X0075820Y0816170D03*
X0075820Y0832700D03*
X0075820Y0849240D03*
X0075820Y0865760D03*
X0075820Y0882300D03*
X0075820Y0898830D03*
X0075820Y0915370D03*
X0075820Y0931900D03*
D123*
X0074060Y0764590D03*
X0074060Y0950410D03*
D22*
X0269000Y0685000D03*
D97*
X0259000Y0675000D03*
X0259000Y0695000D03*
X0279000Y0695000D03*
X0279000Y0675000D03*
D58*
X0090500Y0802000D03*
X0090500Y0815000D03*
D131*
X0141000Y0762000D03*
X0141000Y0767000D03*
X0141000Y0772000D03*
X0141000Y0777000D03*
X0141000Y0782000D03*
X0141000Y0787000D03*
X0141000Y0792000D03*
X0120000Y0792000D03*
X0120000Y0787000D03*
X0120000Y0782000D03*
X0120000Y0777000D03*
X0120000Y0772000D03*
X0120000Y0767000D03*
X0120000Y0762000D03*
D44*
X0072500Y0697000D03*
X0082500Y0697000D03*
X0092500Y0697000D03*
X0102500Y0697000D03*
X0102500Y0727000D03*
X0092500Y0727000D03*
X0082500Y0727000D03*
X0072500Y0727000D03*
X0115000Y0697000D03*
X0125000Y0697000D03*
X0135000Y0697000D03*
X0145000Y0697000D03*
X0145000Y0727000D03*
X0135000Y0727000D03*
X0125000Y0727000D03*
X0115000Y0727000D03*
X0157500Y0697000D03*
X0167500Y0697000D03*
X0177500Y0697000D03*
X0187500Y0697000D03*
X0187500Y0727000D03*
X0177500Y0727000D03*
X0167500Y0727000D03*
X0157500Y0727000D03*
X0046000Y0732500D03*
X0059000Y0732500D03*
D58*
X0108250Y0789800D03*
X0108250Y0776800D03*
X0097800Y0776800D03*
X0097800Y0789800D03*
X0145000Y0751000D03*
X0145000Y0738000D03*
D44*
X0046000Y0712500D03*
X0059000Y0712500D03*
D58*
X0072500Y0738000D03*
X0072500Y0751000D03*
D44*
X0216500Y0700000D03*
X0203500Y0700000D03*
D58*
X0160200Y0772650D03*
X0160200Y0759650D03*
D44*
X0112100Y0766300D03*
X0099100Y0766300D03*
D58*
X0119970Y0949120D03*
X0119970Y0936120D03*
X0119970Y0914470D03*
X0119970Y0927470D03*
D44*
X0120250Y0905000D03*
X0107250Y0905000D03*
D131*
X0108920Y0918960D03*
X0108920Y0923960D03*
X0108920Y0928960D03*
X0108920Y0933960D03*
X0108920Y0938960D03*
X0108920Y0943960D03*
X0108920Y0948960D03*
X0087920Y0948960D03*
X0087920Y0943960D03*
X0087920Y0938960D03*
X0087920Y0933960D03*
X0087920Y0928960D03*
X0087920Y0923960D03*
X0087920Y0918960D03*
X0140750Y0801750D03*
X0140750Y0806750D03*
X0140750Y0811750D03*
X0140750Y0816750D03*
X0140750Y0821750D03*
X0140750Y0826750D03*
X0140750Y0831750D03*
X0119750Y0831750D03*
X0119750Y0826750D03*
X0119750Y0821750D03*
X0119750Y0816750D03*
X0119750Y0811750D03*
X0119750Y0806750D03*
X0119750Y0801750D03*
D58*
X0037250Y0858250D03*
X0037250Y0845250D03*
D29*
X0162270Y0936800D03*
X0170930Y0940550D03*
X0170930Y0933050D03*
X0135570Y0944200D03*
X0144230Y0947950D03*
X0144230Y0940450D03*
D42*
X0093750Y0889530D03*
X0097500Y0880870D03*
X0090000Y0880870D03*
D75*
X0179000Y0800250D03*
D53*
X0169000Y0800250D03*
X0159000Y0800250D03*
D75*
X0155000Y0882500D03*
D53*
X0145000Y0882500D03*
X0135000Y0882500D03*
D75*
X0179000Y0814500D03*
D53*
X0169000Y0814500D03*
X0159000Y0814500D03*
D75*
X0155000Y0896500D03*
D53*
X0145000Y0896500D03*
X0135000Y0896500D03*
D75*
X0155000Y0868500D03*
D53*
X0145000Y0868500D03*
X0135000Y0868500D03*
D75*
X0176000Y0860500D03*
D44*
X0233050Y0986800D03*
X0246050Y0986800D03*
X0258700Y0923100D03*
X0245700Y0923100D03*
X0223900Y0923100D03*
X0236900Y0923100D03*
D75*
X0270000Y0934500D03*
D53*
X0280000Y0934500D03*
X0290000Y0934500D03*
D75*
X0270000Y0950500D03*
D53*
X0280000Y0950500D03*
X0290000Y0950500D03*
D75*
X0270000Y0980500D03*
D53*
X0280000Y0980500D03*
X0290000Y0980500D03*
D75*
X0270000Y0965500D03*
D53*
X0280000Y0965500D03*
X0290000Y0965500D03*
D138*
X0223600Y0977400D03*
X0223600Y0972400D03*
X0223600Y0967400D03*
X0223600Y0962400D03*
X0223600Y0957400D03*
X0223600Y0952400D03*
X0223600Y0947400D03*
X0223600Y0942400D03*
X0223600Y0937400D03*
X0223600Y0932400D03*
X0261600Y0932400D03*
X0261600Y0937400D03*
X0261600Y0942400D03*
X0261600Y0947400D03*
X0261600Y0952400D03*
X0261600Y0957400D03*
X0261600Y0962400D03*
X0261600Y0967400D03*
X0261600Y0972400D03*
X0261600Y0977400D03*
D119*
X0044500Y0695700D03*
D58*
X0221700Y0907700D03*
X0221700Y0894700D03*
X0149750Y0768050D03*
X0149750Y0781050D03*
X0087300Y0781900D03*
X0087300Y0768900D03*
X0111500Y0802050D03*
X0111500Y0815050D03*
X0088800Y0910400D03*
X0088800Y0897400D03*
M02*
