%
T01C0.015000
X1963Y38862
X1963Y35463
X2113Y39462
X2113Y34937
X2213Y5963
X2263Y6313
X2263Y5562
X2263Y5213
X2263Y4862
X2388Y30838
X2413Y6612
X2613Y6912
X2663Y31137
X2752Y16092
X2773Y23372
X3032Y22812
X3053Y29812
X3053Y15812
X3053Y8813
X3093Y9692
X3112Y6762
X3263Y31012
X3273Y32192
X3273Y25192
X3273Y18192
X3273Y11192
X3533Y30732
X3533Y23733
X3553Y16733
X3553Y9732
X3563Y38837
X3613Y6762
X3813Y36687
X4173Y21452
X4192Y28452
X4192Y14452
X4238Y35463
X4263Y39462
X4310Y37190
X4810Y37440
X4813Y34937
X5033Y8173
X5053Y32272
X5053Y25272
X5053Y11252
X5053Y9372
X5063Y33637
X5063Y31162
X5063Y29187
X5063Y26572
X5063Y22192
X5063Y19512
X5063Y15238
X5063Y12532
X5073Y30333
X5073Y23332
X5073Y16352
X5093Y18272
X5310Y36940
X5313Y34787
X5388Y38862
X5453Y2773
X5513Y2212
X5763Y35463
X5792Y28012
X5812Y37687
X5812Y21012
X5812Y13772
X5812Y6812
X5853Y3052
X5912Y2212
X6288Y5613
X6313Y2212
X6552Y30432
X6552Y23433
X6573Y16433
X6573Y9432
X6813Y29162
X6813Y22187
X6813Y15187
X6813Y8162
X6913Y5312
X7162Y2212
X7188Y34213
X7213Y4713
X7237Y35263
X7288Y5862
X7488Y34988
X7513Y4212
X7588Y5662
X7813Y3612
X8038Y5162
X8213Y2793
X8463Y36687
X8572Y2793
X8913Y6132
X8913Y5587
X8937Y34213
X8952Y6472
X8963Y37687
X9052Y29812
X9052Y22812
X9052Y15812
X9052Y8813
X9253Y25172
X9253Y17032
X9253Y10032
X9273Y32192
X9273Y31032
X9273Y24032
X9273Y18192
X9273Y11192
X9275Y33600
X9533Y9732
X9553Y30732
X9553Y23733
X9553Y16733
X9788Y36687
X10173Y28472
X10173Y21452
X10173Y7472
X10187Y35562
X10193Y14452
X10310Y37190
X10810Y37440
X10815Y34725
X10850Y48500
X11052Y18252
X11052Y11272
X11052Y8087
X11063Y33637
X11063Y29237
X11063Y26522
X11063Y22237
X11063Y19502
X11063Y12552
X11072Y32272
X11072Y31112
X11072Y30333
X11072Y25253
X11072Y24072
X11072Y23292
X11072Y16352
X11072Y15213
X11072Y10132
X11072Y9332
X11092Y17153
X11305Y40550
X11310Y36940
X11313Y34687
X11788Y35463
X11793Y28012
X11813Y37712
X11813Y6812
X11833Y21012
X11833Y13772
X12553Y30432
X12553Y9432
X12573Y23433
X12573Y16433
X12795Y34940
X12813Y29187
X12813Y15187
X12813Y8087
X12963Y42562
X12985Y22235
X13188Y34213
X13388Y34937
X14013Y5152
X14173Y5752
X14192Y6112
X14550Y35450
X14912Y34213
X15033Y29812
X15053Y22812
X15053Y15812
X15053Y8813
X15188Y37712
X15253Y32172
X15253Y25172
X15253Y18192
X15253Y17032
X15253Y11172
X15253Y10052
X15272Y31032
X15272Y24032
X15295Y33565
X15313Y5512
X15400Y42400
X15533Y16733
X15553Y30732
X15553Y23733
X15562Y9743
X15613Y5252
X15813Y36687
X15912Y4992
X16173Y7492
X16187Y35437
X16193Y28452
X16193Y21452
X16193Y14472
X16310Y37190
X16812Y37437
X16812Y34937
X17053Y32272
X17053Y22192
X17053Y15213
X17053Y11212
X17063Y33637
X17063Y29232
X17063Y26472
X17063Y19452
X17063Y12552
X17063Y8113
X17072Y25272
X17072Y24132
X17072Y23332
X17072Y18252
X17072Y16392
X17072Y10172
X17072Y9352
X17093Y31152
X17093Y30372
X17093Y17172
X17150Y42650
X17310Y36940
X17313Y34787
X17463Y5063
X17738Y35463
X17793Y28012
X17813Y37687
X17813Y13792
X17813Y6812
X17833Y21012
X18400Y41800
X18553Y30432
X18553Y16433
X18553Y9432
X18572Y23433
X18813Y29172
X18813Y15187
X18813Y8113
X18813Y5587
X18838Y22187
X19013Y5037
X19213Y35087
X19213Y34737
X19213Y34213
X19213Y5812
X19463Y6087
X19563Y4862
X19738Y6313
X20137Y4663
X20188Y7387
X20388Y7112
X20538Y4363
X20562Y6787
X20733Y6493
X20863Y34213
X20913Y6212
X21033Y22812
X21053Y29792
X21053Y15812
X21053Y8813
X21130Y45390
X21200Y42400
X21213Y31972
X21213Y18132
X21233Y25092
X21233Y24072
X21233Y11112
X21233Y10032
X21253Y17053
X21273Y31032
X21295Y33585
X21313Y37712
X21413Y45837
X21473Y16733
X21493Y23733
X21533Y30732
X21533Y9732
X21738Y46087
X21812Y36687
X21863Y4162
X22193Y28452
X22193Y21452
X22193Y14472
X22193Y7472
X22263Y35463
X22313Y37187
X22363Y3963
X22813Y37437
X22813Y34737
X22863Y3762
X23013Y3212
X23053Y33662
X23053Y32252
X23053Y22172
X23062Y26472
X23062Y19492
X23062Y15213
X23062Y12512
X23062Y8152
X23073Y30352
X23073Y29172
X23073Y25233
X23073Y9332
X23092Y31132
X23092Y23372
X23092Y18212
X23092Y17153
X23092Y16352
X23092Y11252
X23092Y10132
X23133Y24172
X23305Y36935
X23313Y34762
X23793Y13772
X23813Y35463
X23813Y28012
X23813Y6812
X23833Y21012
X24075Y46015
X24100Y44250
X24263Y2962
X24430Y45700
X24553Y23433
X24553Y16433
X24553Y9432
X24572Y30432
X24600Y42140
X24613Y2962
X24813Y29187
X24813Y22162
X24813Y15187
X24813Y8162
X24872Y4852
X24963Y2962
X25013Y4292
X25188Y34213
X25193Y4592
X25210Y42050
X25260Y44220
X25272Y4072
X25313Y2962
X25438Y34838
X25463Y35212
X25613Y4032
X25633Y3693
X25663Y2962
X25888Y37013
X25933Y3552
X25973Y3212
X26050Y44250
X26100Y42150
X26645Y45390
X26650Y43345
X26650Y42020
X26738Y36388
X26938Y34213
X27012Y29792
X27053Y22793
X27053Y15812
X27053Y11252
X27053Y8813
X27253Y32112
X27253Y31072
X27253Y25053
X27253Y18153
X27253Y17072
X27273Y23992
X27273Y10072
X27305Y33610
X27493Y23692
X27500Y44700
X27503Y30702
X27550Y42750
X27563Y16762
X27563Y9762
X27888Y37612
X28037Y41462
X28163Y37862
X28193Y7472
X28213Y28462
X28213Y21463
X28213Y14412
X28313Y35463
X28400Y43750
X28830Y41320
X28950Y43750
X29053Y32292
X29053Y25293
X29053Y11272
X29053Y9332
X29063Y33612
X29063Y29192
X29063Y26512
X29063Y22192
X29063Y19492
X29063Y15192
X29063Y12492
X29063Y8113
X29072Y30312
X29072Y23313
X29072Y16312
X29093Y24092
X29093Y18233
X29113Y31112
X29113Y17072
X29138Y34937
X29493Y10052
X29713Y35463
X29813Y6812
X29832Y21012
X29853Y13772
X29872Y28012
X30150Y38450
X30200Y43750
X30200Y42750
X30553Y30432
X30572Y23433
X30572Y16433
X30572Y9432
X30813Y29187
X30813Y22187
X30813Y15187
X30813Y8113
X31200Y36250
X31213Y35187
X31213Y34262
X31450Y44750
X31500Y41750
X32213Y34262
X32233Y7472
X32453Y30772
X32453Y23792
X32453Y16752
X32453Y10952
X32733Y10632
X32753Y30452
X32753Y23433
X32753Y16433
X33012Y35463
X33012Y28012
X33012Y21012
X33012Y13772
X33262Y35912
X33273Y28912
X33273Y21892
X33273Y14932
X49250Y1725
X40250Y1850
X48750Y1850
X40750Y2000
X48250Y2000
X41250Y2150
X47750Y2150
X47250Y2275
X41750Y2300
X46750Y2425
X42250Y2450
X37775Y2550
X46250Y2575
X42775Y2600
X45750Y2725
X43300Y2750
X45250Y2875
X43725Y2900
X60700Y15750
X60700Y16250
X60375Y16750
X60375Y17250
X60075Y17750
X60075Y18250
X59775Y18750
X59775Y19250
X59775Y21750
X59775Y22250
X60050Y22750
X60050Y23250
X60325Y23750
X60325Y24250
X60625Y24750
X60625Y25250
X43750Y38100
X45250Y38125
X43250Y38225
X51425Y38250
X45750Y38275
X42750Y38400
X46250Y38425
X42250Y38525
X46750Y38575
X41750Y38675
X47250Y38725
X41250Y38825
X47775Y38850
X40750Y38950
X48250Y39000
X40250Y39100
X48750Y39150
X39750Y39225
X72638Y1963
X76037Y1963
X72038Y2113
X76563Y2113
X105537Y2213
X105187Y2263
X105938Y2263
X106287Y2263
X106638Y2263
X80662Y2388
X104888Y2413
X104588Y2613
X80363Y2663
X95408Y2752
X88128Y2773
X88688Y3032
X81688Y3053
X95688Y3053
X102687Y3053
X101808Y3093
X104738Y3112
X80488Y3263
X79308Y3273
X86308Y3273
X93308Y3273
X100308Y3273
X80768Y3533
X87767Y3533
X94767Y3553
X101768Y3553
X72663Y3563
X104738Y3613
X74813Y3813
X90048Y4173
X83048Y4192
X97048Y4192
X76037Y4238
X72038Y4263
X74310Y4310
X74060Y4810
X76563Y4813
X103327Y5033
X79228Y5053
X86228Y5053
X100248Y5053
X102128Y5053
X77863Y5063
X80338Y5063
X82313Y5063
X84928Y5063
X89308Y5063
X91988Y5063
X96262Y5063
X98968Y5063
X81167Y5073
X88168Y5073
X95148Y5073
X93228Y5093
X74560Y5310
X76713Y5313
X72638Y5388
X108727Y5453
X109288Y5513
X76037Y5763
X83488Y5792
X73813Y5812
X90488Y5812
X97728Y5812
X104688Y5812
X108448Y5853
X109288Y5912
X105887Y6288
X109288Y6313
X81068Y6552
X88067Y6552
X95067Y6573
X102068Y6573
X82338Y6813
X89313Y6813
X96313Y6813
X103338Y6813
X106188Y6913
X109288Y7162
X77287Y7188
X106787Y7213
X76237Y7237
X105638Y7288
X76512Y7488
X107288Y7513
X105838Y7588
X107888Y7813
X106338Y8038
X108707Y8213
X74813Y8463
X108707Y8572
X105368Y8913
X105913Y8913
X77287Y8937
X105028Y8952
X73813Y8963
X81688Y9052
X88688Y9052
X95688Y9052
X102687Y9052
X86328Y9253
X94468Y9253
X101468Y9253
X79308Y9273
X80468Y9273
X87468Y9273
X93308Y9273
X100308Y9273
X77900Y9275
X101768Y9533
X80768Y9553
X87767Y9553
X94767Y9553
X74813Y9788
X83028Y10173
X90048Y10173
X104028Y10173
X75938Y10187
X97048Y10193
X74310Y10310
X74060Y10810
X76775Y10815
X63000Y10850
X93248Y11052
X100228Y11052
X103413Y11052
X77863Y11063
X82263Y11063
X84978Y11063
X89263Y11063
X91998Y11063
X98948Y11063
X79228Y11072
X80388Y11072
X81167Y11072
X86247Y11072
X87428Y11072
X88208Y11072
X95148Y11072
X96287Y11072
X101368Y11072
X102168Y11072
X94347Y11092
X70950Y11305
X74560Y11310
X76813Y11313
X76037Y11788
X83488Y11793
X73788Y11813
X104688Y11813
X90488Y11833
X97728Y11833
X81068Y12553
X102068Y12553
X88067Y12573
X95067Y12573
X76560Y12795
X82313Y12813
X96313Y12813
X103413Y12813
X68938Y12963
X89265Y12985
X77287Y13188
X76563Y13388
X106348Y14013
X105748Y14173
X105388Y14192
X76050Y14550
X77287Y14912
X81688Y15033
X88688Y15053
X95688Y15053
X102687Y15053
X73788Y15188
X79328Y15253
X86328Y15253
X93308Y15253
X94468Y15253
X100328Y15253
X101448Y15253
X80468Y15272
X87468Y15272
X77935Y15295
X105988Y15313
X69100Y15400
X94767Y15533
X80768Y15553
X87767Y15553
X101757Y15562
X106248Y15613
X74813Y15813
X106508Y15912
X104008Y16173
X76063Y16187
X83048Y16193
X90048Y16193
X97028Y16193
X74310Y16310
X74063Y16812
X76563Y16812
X79228Y17053
X89308Y17053
X96287Y17053
X100288Y17053
X77863Y17063
X82268Y17063
X85028Y17063
X92048Y17063
X98948Y17063
X103387Y17063
X86228Y17072
X87368Y17072
X88168Y17072
X93248Y17072
X95108Y17072
X101328Y17072
X102148Y17072
X80348Y17093
X81128Y17093
X94328Y17093
X68850Y17150
X74560Y17310
X76713Y17313
X106437Y17463
X76037Y17738
X83488Y17793
X73813Y17813
X97708Y17813
X104688Y17813
X90488Y17833
X69700Y18400
X81068Y18553
X95067Y18553
X102068Y18553
X88067Y18572
X82328Y18813
X96313Y18813
X103387Y18813
X105913Y18813
X89313Y18838
X106463Y19013
X76413Y19213
X76763Y19213
X77287Y19213
X105688Y19213
X105413Y19463
X106638Y19563
X105187Y19738
X106837Y20137
X104113Y20188
X104388Y20388
X107137Y20538
X104713Y20562
X105007Y20733
X77287Y20863
X105288Y20913
X88688Y21033
X81708Y21053
X95688Y21053
X102687Y21053
X66110Y21130
X69100Y21200
X79528Y21213
X93368Y21213
X86408Y21233
X87428Y21233
X100388Y21233
X101468Y21233
X94447Y21253
X80468Y21273
X77915Y21295
X73788Y21313
X65663Y21413
X94767Y21473
X87767Y21493
X80768Y21533
X101768Y21533
X65413Y21738
X74813Y21812
X107338Y21863
X83048Y22193
X90048Y22193
X97028Y22193
X104028Y22193
X76037Y22263
X74313Y22313
X107537Y22363
X74063Y22813
X76763Y22813
X107738Y22863
X108288Y23013
X77838Y23053
X79248Y23053
X89328Y23053
X85028Y23062
X92008Y23062
X96287Y23062
X98988Y23062
X103348Y23062
X81148Y23073
X82328Y23073
X86267Y23073
X102168Y23073
X80368Y23092
X88128Y23092
X93288Y23092
X94347Y23092
X95148Y23092
X100248Y23092
X101368Y23092
X87328Y23133
X74565Y23305
X76738Y23313
X97728Y23793
X76037Y23813
X83488Y23813
X104688Y23813
X90488Y23833
X65485Y24075
X67250Y24100
X108538Y24263
X65800Y24430
X88067Y24553
X95067Y24553
X102068Y24553
X81068Y24572
X69360Y24600
X108538Y24613
X82313Y24813
X89338Y24813
X96313Y24813
X103338Y24813
X106648Y24872
X108538Y24963
X107208Y25013
X77287Y25188
X106908Y25193
X69450Y25210
X67280Y25260
X107428Y25272
X108538Y25313
X76662Y25438
X76288Y25463
X107468Y25613
X107807Y25633
X108538Y25663
X74487Y25888
X107948Y25933
X108288Y25973
X67250Y26050
X69350Y26100
X66110Y26645
X68155Y26650
X69480Y26650
X75112Y26738
X77287Y26938
X81708Y27012
X88707Y27053
X95688Y27053
X100248Y27053
X102687Y27053
X79388Y27253
X80428Y27253
X86447Y27253
X93347Y27253
X94428Y27253
X87508Y27273
X101428Y27273
X77890Y27305
X87808Y27493
X66800Y27500
X80798Y27503
X68750Y27550
X94738Y27563
X101738Y27563
X73888Y27888
X70038Y28037
X73638Y28163
X104028Y28193
X83038Y28213
X90037Y28213
X97088Y28213
X76037Y28313
X67750Y28400
X70180Y28830
X67750Y28950
X79208Y29053
X86207Y29053
X100228Y29053
X102168Y29053
X77888Y29063
X82308Y29063
X84988Y29063
X89308Y29063
X92008Y29063
X96308Y29063
X99008Y29063
X103387Y29063
X81188Y29072
X88187Y29072
X95188Y29072
X87408Y29093
X93267Y29093
X80388Y29113
X94428Y29113
X76563Y29138
X101448Y29493
X76037Y29713
X104688Y29813
X90488Y29832
X97728Y29853
X83488Y29872
X73050Y30150
X67750Y30200
X68750Y30200
X81068Y30553
X88067Y30572
X95067Y30572
X102068Y30572
X82313Y30813
X89313Y30813
X96313Y30813
X103387Y30813
X75250Y31200
X76313Y31213
X77238Y31213
X66750Y31450
X69750Y31500
X77238Y32213
X104028Y32233
X80728Y32453
X87708Y32453
X94748Y32453
X100548Y32453
X100868Y32733
X81048Y32753
X88067Y32753
X95067Y32753
X76037Y33012
X83488Y33012
X90488Y33012
X97728Y33012
X75588Y33262
X82588Y33273
X89608Y33273
X96568Y33273
X31225Y75500
X31350Y84500
X31350Y76000
X31500Y84000
X31500Y76500
X31650Y83500
X31650Y77000
X31775Y77500
X31800Y83000
X31925Y78000
X31950Y82500
X32050Y86975
X32075Y78500
X32100Y81975
X32225Y79000
X32250Y81450
X32375Y79500
X32400Y81025
X45250Y64050
X45750Y64050
X46250Y64375
X46750Y64375
X47250Y64675
X47750Y64675
X48250Y64975
X48750Y64975
X51250Y64975
X51750Y64975
X52250Y64700
X52750Y64700
X53250Y64425
X53750Y64425
X54250Y64125
X54750Y64125
X67600Y81000
X67625Y79500
X67725Y81500
X67750Y73325
X67775Y79000
X67900Y82000
X67925Y78500
X68025Y82500
X68075Y78000
X68175Y83000
X68225Y77500
X68325Y83500
X68350Y76975
X68450Y84000
X68500Y76500
X68600Y84500
X68650Y76000
X68725Y85000
X112213Y38862
X112213Y35463
X112363Y39462
X112363Y34937
X112463Y5963
X112513Y6313
X112513Y5562
X112513Y5213
X112513Y4862
X112638Y30838
X112663Y6612
X112863Y6912
X112913Y31137
X113002Y16092
X113023Y23372
X113282Y22812
X113303Y29812
X113303Y15812
X113303Y8813
X113343Y9692
X113362Y6762
X113513Y31012
X113523Y32192
X113523Y25192
X113523Y18192
X113523Y11192
X113783Y30732
X113783Y23733
X113803Y16733
X113803Y9732
X113813Y38837
X113863Y6762
X114063Y36687
X114423Y21452
X114442Y28452
X114442Y14452
X114488Y35463
X114513Y39462
X114560Y37190
X115060Y37440
X115063Y34937
X115283Y8173
X115303Y32272
X115303Y25272
X115303Y11252
X115303Y9372
X115313Y33637
X115313Y31162
X115313Y29187
X115313Y26572
X115313Y22192
X115313Y19512
X115313Y15238
X115313Y12532
X115323Y30333
X115323Y23332
X115323Y16352
X115343Y18272
X115560Y36940
X115563Y34787
X115638Y38862
X115703Y2773
X115763Y2212
X116013Y35463
X116042Y28012
X116062Y37687
X116062Y21012
X116062Y13772
X116062Y6812
X116103Y3052
X116162Y2212
X116538Y5613
X116563Y2212
X116802Y30432
X116802Y23433
X116823Y16433
X116823Y9432
X117063Y29162
X117063Y22187
X117063Y15187
X117063Y8162
X117163Y5312
X117412Y2212
X117438Y34213
X117463Y4713
X117487Y35263
X117538Y5862
X117738Y34988
X117763Y4212
X117838Y5662
X118063Y3612
X118288Y5162
X118463Y2793
X118713Y36687
X118822Y2793
X119163Y6132
X119163Y5587
X119187Y34213
X119202Y6472
X119213Y37687
X119302Y29812
X119302Y22812
X119302Y15812
X119302Y8813
X119503Y25172
X119503Y17032
X119503Y10032
X119523Y32192
X119523Y31032
X119523Y24032
X119523Y18192
X119523Y11192
X119525Y33600
X119783Y9732
X119803Y30732
X119803Y23733
X119803Y16733
X120038Y36687
X120423Y28472
X120423Y21452
X120423Y7472
X120437Y35562
X120443Y14452
X120560Y37190
X121060Y37440
X121065Y34725
X121100Y48500
X121302Y18252
X121302Y11272
X121302Y8087
X121313Y33637
X121313Y29237
X121313Y26522
X121313Y22237
X121313Y19502
X121313Y12552
X121322Y32272
X121322Y31112
X121322Y30333
X121322Y25253
X121322Y24072
X121322Y23292
X121322Y16352
X121322Y15213
X121322Y10132
X121322Y9332
X121342Y17153
X121555Y40550
X121560Y36940
X121563Y34687
X122038Y35463
X122043Y28012
X122063Y37712
X122063Y6812
X122083Y21012
X122083Y13772
X122803Y30432
X122803Y9432
X122823Y23433
X122823Y16433
X123045Y34940
X123063Y29187
X123063Y15187
X123063Y8087
X123213Y42562
X123235Y22235
X123438Y34213
X123638Y34937
X124263Y5152
X124423Y5752
X124442Y6112
X124800Y35450
X125162Y34213
X125283Y29812
X125303Y22812
X125303Y15812
X125303Y8813
X125438Y37712
X125503Y32172
X125503Y25172
X125503Y18192
X125503Y17032
X125503Y11172
X125503Y10052
X125522Y31032
X125522Y24032
X125545Y33565
X125563Y5512
X125650Y42400
X125783Y16733
X125803Y30732
X125803Y23733
X125812Y9743
X125863Y5252
X126063Y36687
X126162Y4992
X126423Y7492
X126437Y35437
X126443Y28452
X126443Y21452
X126443Y14472
X126560Y37190
X127062Y37437
X127062Y34937
X127303Y32272
X127303Y22192
X127303Y15213
X127303Y11212
X127313Y33637
X127313Y29232
X127313Y26472
X127313Y19452
X127313Y12552
X127313Y8113
X127322Y25272
X127322Y24132
X127322Y23332
X127322Y18252
X127322Y16392
X127322Y10172
X127322Y9352
X127343Y31152
X127343Y30372
X127343Y17172
X127400Y42650
X127560Y36940
X127563Y34787
X127713Y5063
X127988Y35463
X128043Y28012
X128063Y37687
X128063Y13792
X128063Y6812
X128083Y21012
X128650Y41800
X128803Y30432
X128803Y16433
X128803Y9432
X128822Y23433
X129063Y29172
X129063Y15187
X129063Y8113
X129063Y5587
X129088Y22187
X129263Y5037
X129463Y35087
X129463Y34737
X129463Y34213
X129463Y5812
X129713Y6087
X129813Y4862
X129988Y6313
X130387Y4663
X130438Y7387
X130638Y7112
X130788Y4363
X130812Y6787
X130983Y6493
X131113Y34213
X131163Y6212
X131283Y22812
X131303Y29792
X131303Y15812
X131303Y8813
X131380Y45390
X131450Y42400
X131463Y31972
X131463Y18132
X131483Y25092
X131483Y24072
X131483Y11112
X131483Y10032
X131503Y17053
X131523Y31032
X131545Y33585
X131563Y37712
X131663Y45837
X131723Y16733
X131743Y23733
X131783Y30732
X131783Y9732
X131988Y46087
X132062Y36687
X132113Y4162
X132443Y28452
X132443Y21452
X132443Y14472
X132443Y7472
X132513Y35463
X132563Y37187
X132613Y3963
X133063Y37437
X133063Y34737
X133113Y3762
X133263Y3212
X133303Y33662
X133303Y32252
X133303Y22172
X133312Y26472
X133312Y19492
X133312Y15213
X133312Y12512
X133312Y8152
X133323Y30352
X133323Y29172
X133323Y25233
X133323Y9332
X133342Y31132
X133342Y23372
X133342Y18212
X133342Y17153
X133342Y16352
X133342Y11252
X133342Y10132
X133383Y24172
X133555Y36935
X133563Y34762
X134043Y13772
X134063Y35463
X134063Y28012
X134063Y6812
X134083Y21012
X134325Y46015
X134350Y44250
X134513Y2962
X134680Y45700
X134803Y23433
X134803Y16433
X134803Y9432
X134822Y30432
X134850Y42140
X134863Y2962
X135063Y29187
X135063Y22162
X135063Y15187
X135063Y8162
X135122Y4852
X135213Y2962
X135263Y4292
X135438Y34213
X135443Y4592
X135460Y42050
X135510Y44220
X135522Y4072
X135563Y2962
X135688Y34838
X135713Y35212
X135863Y4032
X135883Y3693
X135913Y2962
X136138Y37013
X136183Y3552
X136223Y3212
X136300Y44250
X136350Y42150
X136895Y45390
X136900Y43345
X136900Y42020
X136988Y36388
X137188Y34213
X137262Y29792
X137303Y22793
X137303Y15812
X137303Y11252
X137303Y8813
X137503Y32112
X137503Y31072
X137503Y25053
X137503Y18153
X137503Y17072
X137523Y23992
X137523Y10072
X137555Y33610
X137743Y23692
X137750Y44700
X137753Y30702
X137800Y42750
X137813Y16762
X137813Y9762
X138138Y37612
X138287Y41462
X138413Y37862
X138443Y7472
X138463Y28462
X138463Y21463
X138463Y14412
X138563Y35463
X138650Y43750
X139080Y41320
X139200Y43750
X139303Y32292
X139303Y25293
X139303Y11272
X139303Y9332
X139313Y33612
X139313Y29192
X139313Y26512
X139313Y22192
X139313Y19492
X139313Y15192
X139313Y12492
X139313Y8113
X139322Y30312
X139322Y23313
X139322Y16312
X139343Y24092
X139343Y18233
X139363Y31112
X139363Y17072
X139388Y34937
X139743Y10052
X139963Y35463
X140063Y6812
X140082Y21012
X140103Y13772
X140122Y28012
X140400Y38450
X140450Y43750
X140450Y42750
X140803Y30432
X140822Y23433
X140822Y16433
X140822Y9432
X141063Y29187
X141063Y22187
X141063Y15187
X141063Y8113
X141450Y36250
X141463Y35187
X141463Y34262
X141700Y44750
X141750Y41750
X142463Y34262
X142483Y7472
X142703Y30772
X142703Y23792
X142703Y16752
X142703Y10952
X142983Y10632
X143003Y30452
X143003Y23433
X143003Y16433
X143262Y35463
X143262Y28012
X143262Y21012
X143262Y13772
X143512Y35912
X143523Y28912
X143523Y21892
X143523Y14932
X111713Y87612
X111713Y84213
X111863Y88212
X111863Y83687
X111963Y54713
X112013Y55063
X112013Y54312
X112013Y53963
X112013Y53612
X112138Y79588
X112163Y55362
X112363Y55662
X112413Y79887
X112502Y64842
X112523Y72122
X112782Y71562
X112803Y78562
X112803Y64562
X112803Y57563
X112843Y58442
X112862Y55512
X113013Y79762
X113023Y80942
X113023Y73942
X113023Y66942
X113023Y59942
X113283Y79482
X113283Y72483
X113303Y65483
X113303Y58482
X113313Y87587
X113363Y55512
X113563Y85437
X113923Y70202
X113942Y77202
X113942Y63202
X113988Y84213
X114013Y88212
X114060Y85940
X114560Y86190
X114563Y83687
X114783Y56923
X114803Y81022
X114803Y74022
X114803Y60002
X114803Y58122
X114813Y82387
X114813Y79912
X114813Y77937
X114813Y75322
X114813Y70942
X114813Y68262
X114813Y63988
X114813Y61282
X114823Y79083
X114823Y72082
X114823Y65102
X114843Y67022
X115060Y85690
X115063Y83537
X115138Y87612
X115203Y51523
X115263Y50962
X115513Y84213
X115542Y76762
X115562Y86437
X115562Y69762
X115562Y62522
X115562Y55562
X115603Y51802
X115662Y50962
X116038Y54363
X116063Y50962
X116302Y79182
X116302Y72183
X116323Y65183
X116323Y58182
X116563Y77912
X116563Y70937
X116563Y63937
X116563Y56912
X116663Y54062
X116912Y50962
X116938Y82963
X116963Y53463
X116987Y84013
X117038Y54612
X117238Y83738
X117263Y52962
X117338Y54412
X117563Y52362
X117788Y53912
X117963Y51543
X118213Y85437
X118322Y51543
X118663Y54882
X118663Y54337
X118687Y82963
X118702Y55222
X118713Y86437
X118802Y78562
X118802Y71562
X118802Y64562
X118802Y57563
X119003Y73922
X119003Y65782
X119003Y58782
X119023Y80942
X119023Y79782
X119023Y72782
X119023Y66942
X119023Y59942
X119025Y82350
X119283Y58482
X119303Y79482
X119303Y72483
X119303Y65483
X119538Y85437
X119923Y77222
X119923Y70202
X119923Y56222
X119937Y84312
X119943Y63202
X120060Y85940
X120560Y86190
X120565Y83475
X120600Y97250
X120802Y67002
X120802Y60022
X120802Y56837
X120813Y82387
X120813Y77987
X120813Y75272
X120813Y70987
X120813Y68252
X120813Y61302
X120822Y81022
X120822Y79862
X120822Y79083
X120822Y74003
X120822Y72822
X120822Y72042
X120822Y65102
X120822Y63963
X120822Y58882
X120822Y58082
X120842Y65903
X121055Y89300
X121060Y85690
X121063Y83437
X121538Y84213
X121543Y76762
X121563Y86462
X121563Y55562
X121583Y69762
X121583Y62522
X122303Y79182
X122303Y58182
X122323Y72183
X122323Y65183
X122545Y83690
X122563Y77937
X122563Y63937
X122563Y56837
X122713Y91312
X122735Y70985
X122938Y82963
X123138Y83687
X123763Y53902
X123923Y54502
X123942Y54862
X124300Y84200
X124662Y82963
X124783Y78562
X124803Y71562
X124803Y64562
X124803Y57563
X124938Y86462
X125003Y80922
X125003Y73922
X125003Y66942
X125003Y65782
X125003Y59922
X125003Y58802
X125022Y79782
X125022Y72782
X125045Y82315
X125063Y54262
X125150Y91150
X125283Y65483
X125303Y79482
X125303Y72483
X125312Y58493
X125363Y54002
X125563Y85437
X125662Y53742
X125923Y56242
X125937Y84187
X125943Y77202
X125943Y70202
X125943Y63222
X126060Y85940
X126562Y86187
X126562Y83687
X126803Y81022
X126803Y70942
X126803Y63963
X126803Y59962
X126813Y82387
X126813Y77982
X126813Y75222
X126813Y68202
X126813Y61302
X126813Y56863
X126822Y74022
X126822Y72882
X126822Y72082
X126822Y67002
X126822Y65142
X126822Y58922
X126822Y58102
X126843Y79902
X126843Y79122
X126843Y65922
X126900Y91400
X127060Y85690
X127063Y83537
X127213Y53813
X127488Y84213
X127543Y76762
X127563Y86437
X127563Y62542
X127563Y55562
X127583Y69762
X128150Y90550
X128303Y79182
X128303Y65183
X128303Y58182
X128322Y72183
X128563Y77922
X128563Y63937
X128563Y56863
X128563Y54337
X128588Y70937
X128763Y53787
X128963Y83837
X128963Y83487
X128963Y82963
X128963Y54562
X129213Y54837
X129313Y53612
X129488Y55063
X129887Y53413
X129938Y56137
X130138Y55862
X130288Y53113
X130312Y55537
X130483Y55243
X130613Y82963
X130663Y54962
X130783Y71562
X130803Y78542
X130803Y64562
X130803Y57563
X130880Y94140
X130950Y91150
X130963Y80722
X130963Y66882
X130983Y73842
X130983Y72822
X130983Y59862
X130983Y58782
X131003Y65803
X131023Y79782
X131045Y82335
X131063Y86462
X131163Y94587
X131223Y65483
X131243Y72483
X131283Y79482
X131283Y58482
X131488Y94837
X131562Y85437
X131613Y52912
X131943Y77202
X131943Y70202
X131943Y63222
X131943Y56222
X132013Y84213
X132063Y85937
X132113Y52713
X132563Y86187
X132563Y83487
X132613Y52512
X132763Y51962
X132803Y82412
X132803Y81002
X132803Y70922
X132812Y75222
X132812Y68242
X132812Y63963
X132812Y61262
X132812Y56902
X132823Y79102
X132823Y77922
X132823Y73983
X132823Y58082
X132842Y79882
X132842Y72122
X132842Y66962
X132842Y65903
X132842Y65102
X132842Y60002
X132842Y58882
X132883Y72922
X133055Y85685
X133063Y83512
X133543Y62522
X133563Y84213
X133563Y76762
X133563Y55562
X133583Y69762
X133825Y94765
X133850Y93000
X134013Y51712
X134180Y94450
X134303Y72183
X134303Y65183
X134303Y58182
X134322Y79182
X134350Y90890
X134363Y51712
X134563Y77937
X134563Y70912
X134563Y63937
X134563Y56912
X134622Y53602
X134713Y51712
X134763Y53042
X134938Y82963
X134943Y53342
X134960Y90800
X135010Y92970
X135022Y52822
X135063Y51712
X135188Y83588
X135213Y83962
X135363Y52782
X135383Y52443
X135413Y51712
X135638Y85763
X135683Y52302
X135723Y51962
X135800Y93000
X135850Y90900
X136395Y94140
X136400Y92095
X136400Y90770
X136488Y85138
X136688Y82963
X136762Y78542
X136803Y71543
X136803Y64562
X136803Y60002
X136803Y57563
X137003Y80862
X137003Y79822
X137003Y73803
X137003Y66903
X137003Y65822
X137023Y72742
X137023Y58822
X137055Y82360
X137243Y72442
X137250Y93450
X137253Y79452
X137300Y91500
X137313Y65512
X137313Y58512
X137638Y86362
X137787Y90212
X137913Y86612
X137943Y56222
X137963Y77212
X137963Y70213
X137963Y63162
X138063Y84213
X138150Y92500
X138580Y90070
X138700Y92500
X138803Y81042
X138803Y74043
X138803Y60022
X138803Y58082
X138813Y82362
X138813Y77942
X138813Y75262
X138813Y70942
X138813Y68242
X138813Y63942
X138813Y61242
X138813Y56863
X138822Y79062
X138822Y72063
X138822Y65062
X138843Y72842
X138843Y66983
X138863Y79862
X138863Y65822
X138888Y83687
X139243Y58802
X139463Y84213
X139563Y55562
X139582Y69762
X139603Y62522
X139622Y76762
X139900Y87200
X139950Y92500
X139950Y91500
X140303Y79182
X140322Y72183
X140322Y65183
X140322Y58182
X140563Y77937
X140563Y70937
X140563Y63937
X140563Y56863
X140950Y85000
X140963Y83937
X140963Y83012
X141200Y93500
X141250Y90500
X141963Y83012
X141983Y56222
X142203Y79522
X142203Y72542
X142203Y65502
X142203Y59702
X142483Y59382
X142503Y79202
X142503Y72183
X142503Y65183
X142762Y84213
X142762Y76762
X142762Y69762
X142762Y62522
X143012Y84662
X143023Y77662
X143023Y70642
X143023Y63682
T02C0.023500
X12263Y3162
X12263Y2662
X12763Y3162
X12763Y2662
X13263Y3162
X13263Y2662
X13763Y3162
X13763Y2662
X14263Y3162
X14263Y2662
X14763Y3162
X14763Y2662
X15263Y3162
X15263Y2662
X15762Y3162
X15762Y2662
X16263Y3162
X16263Y2662
X16763Y3162
X16763Y2662
X17263Y3162
X17263Y2662
X17763Y3162
X17763Y2662
X18262Y3162
X18262Y2662
X18763Y3162
X18763Y2662
X19263Y3162
X19263Y2662
X19763Y3162
X19763Y2662
X20263Y3162
X20263Y2662
X20762Y3162
X20762Y2662
X21263Y3162
X21263Y2662
X21763Y3162
X21763Y2662
X39750Y3500
X40250Y3500
X40750Y3500
X41250Y3500
X41750Y3500
X42250Y3500
X42750Y3500
X43250Y3500
X43750Y3500
X44250Y3500
X44750Y3500
X45250Y3500
X45750Y3500
X46250Y3500
X46750Y3500
X47250Y3500
X47750Y3500
X48250Y3500
X48750Y3500
X49250Y3500
X39750Y4000
X40250Y4000
X40750Y4000
X41250Y4000
X41750Y4000
X42250Y4000
X42750Y4000
X43250Y4000
X43750Y4000
X44250Y4000
X44750Y4000
X45250Y4000
X45750Y4000
X46250Y4000
X46750Y4000
X47250Y4000
X47750Y4000
X48250Y4000
X48750Y4000
X49250Y4000
X58500Y15750
X59000Y15750
X58500Y16250
X59000Y16250
X58500Y16750
X59000Y16750
X58500Y17250
X59000Y17250
X58500Y17750
X59000Y17750
X58500Y18250
X59000Y18250
X58500Y18750
X59000Y18750
X58500Y19250
X59000Y19250
X58500Y19750
X59000Y19750
X58500Y20250
X59000Y20250
X58500Y20750
X59000Y20750
X58500Y21250
X59000Y21250
X58500Y21750
X59000Y21750
X58500Y22250
X59000Y22250
X58500Y22750
X59000Y22750
X58500Y23250
X59000Y23250
X58500Y23750
X59000Y23750
X58500Y24250
X59000Y24250
X58500Y24750
X59000Y24750
X58500Y25250
X59000Y25250
X39750Y37000
X40250Y37000
X40750Y37000
X41250Y37000
X41750Y37000
X42250Y37000
X42750Y37000
X43250Y37000
X43750Y37000
X44250Y37000
X44750Y37000
X45250Y37000
X45750Y37000
X46250Y37000
X46750Y37000
X47250Y37000
X47750Y37000
X48250Y37000
X48750Y37000
X49250Y37000
X39750Y37500
X40250Y37500
X40750Y37500
X41250Y37500
X41750Y37500
X42250Y37500
X42750Y37500
X43250Y37500
X43750Y37500
X44250Y37500
X44750Y37500
X45250Y37500
X45750Y37500
X46250Y37500
X46750Y37500
X47250Y37500
X47750Y37500
X48250Y37500
X48750Y37500
X49250Y37500
X39750Y6500
X40750Y6500
X41750Y6500
X42750Y6500
X43750Y6500
X44750Y6500
X45750Y6500
X46750Y6500
X47750Y6500
X48750Y6500
X49750Y6500
X50750Y6500
X51750Y6500
X52750Y6500
X53750Y6500
X39750Y7500
X40750Y7500
X41750Y7500
X42750Y7500
X43750Y7500
X44750Y7500
X45750Y7500
X46750Y7500
X47750Y7500
X48750Y7500
X49750Y7500
X50750Y7500
X51750Y7500
X52750Y7500
X53750Y7500
X39750Y8500
X40750Y8500
X41750Y8500
X42750Y8500
X43750Y8500
X44750Y8500
X45750Y8500
X46750Y8500
X47750Y8500
X48750Y8500
X49750Y8500
X50750Y8500
X51750Y8500
X52750Y8500
X53750Y8500
X39750Y9500
X40750Y9500
X41750Y9500
X42750Y9500
X43750Y9500
X44750Y9500
X45750Y9500
X46750Y9500
X47750Y9500
X48750Y9500
X49750Y9500
X50750Y9500
X51750Y9500
X52750Y9500
X53750Y9500
X39750Y31500
X40750Y31500
X41750Y31500
X42750Y31500
X43750Y31500
X44750Y31500
X45750Y31500
X46750Y31500
X47750Y31500
X48750Y31500
X49750Y31500
X50750Y31500
X51750Y31500
X52750Y31500
X53750Y31500
X39750Y32500
X40750Y32500
X41750Y32500
X42750Y32500
X43750Y32500
X44750Y32500
X45750Y32500
X46750Y32500
X47750Y32500
X48750Y32500
X49750Y32500
X50750Y32500
X51750Y32500
X52750Y32500
X53750Y32500
X39750Y33500
X40750Y33500
X41750Y33500
X42750Y33500
X43750Y33500
X44750Y33500
X45750Y33500
X46750Y33500
X47750Y33500
X48750Y33500
X49750Y33500
X50750Y33500
X51750Y33500
X52750Y33500
X53750Y33500
X39750Y34500
X40750Y34500
X41750Y34500
X42750Y34500
X43750Y34500
X44750Y34500
X45750Y34500
X46750Y34500
X47750Y34500
X48750Y34500
X49750Y34500
X50750Y34500
X51750Y34500
X52750Y34500
X53750Y34500
X43720Y54540
X45400Y54150
X48510Y42500
X48800Y59560
X53500Y51015
X54525Y49995
X55505Y48000
X56500Y47000
X58415Y59060
X58630Y57230
X58750Y61590
X58780Y58760
X59470Y53620
X59490Y60480
X59520Y51500
X60200Y56220
X60450Y55660
X60530Y46190
X60760Y61590
X61000Y58850
X61250Y60100
X61400Y52750
X61400Y49400
X61400Y48100
X61920Y61540
X61920Y58850
X62000Y52670
X62010Y50495
X62520Y45520
X62850Y43250
X62850Y42100
X62870Y41150
X62920Y49070
X62950Y59400
X62950Y55490
X63160Y50450
X63170Y52030
X63255Y47370
X63270Y59800
X63350Y45555
X63350Y43250
X63850Y41150
X64010Y42850
X64350Y54520
X64350Y46000
X65530Y58480
X65540Y45445
X65540Y44610
X65570Y60510
X65720Y42010
X65900Y57050
X65900Y42450
X65935Y54855
X66250Y56050
X66270Y55490
X66300Y44200
X66600Y58550
X66950Y47000
X66960Y54820
X68250Y59500
X108338Y12263
X108838Y12263
X108338Y12763
X108838Y12763
X108338Y13263
X108838Y13263
X108338Y13763
X108838Y13763
X108338Y14263
X108838Y14263
X108338Y14763
X108838Y14763
X108338Y15263
X108838Y15263
X108338Y15762
X108838Y15762
X108338Y16263
X108838Y16263
X108338Y16763
X108838Y16763
X108338Y17263
X108838Y17263
X108338Y17763
X108838Y17763
X108338Y18262
X108838Y18262
X108338Y18763
X108838Y18763
X108338Y19263
X108838Y19263
X108338Y19763
X108838Y19763
X108338Y20263
X108838Y20263
X108338Y20762
X108838Y20762
X108338Y21263
X108838Y21263
X108338Y21763
X108838Y21763
X72765Y38140
X74525Y46205
X75025Y45860
X75530Y45520
X76020Y45190
X77525Y45520
X77970Y45185
X78540Y46205
X79515Y45850
X79525Y51150
X79535Y49290
X79985Y36400
X80395Y40445
X80495Y46730
X81130Y44845
X81240Y49340
X81295Y39065
X81765Y48985
X81955Y46115
X82065Y42210
X82555Y45345
X82585Y42210
X82900Y37720
X83065Y42215
X83095Y45450
X83500Y51735
X83775Y45460
X83970Y52080
X84240Y45485
X84425Y41370
X84611Y39370
X90255Y51720
X90375Y38950
X90595Y52080
X90925Y49970
X90930Y50680
X91275Y50300
X91340Y47145
X91415Y39410
X91445Y47600
X91935Y52035
X92325Y39700
X92400Y45575
X92550Y42425
X92925Y40600
X94705Y46800
X94775Y40330
X95265Y40220
X95575Y48100
X95755Y40330
X96085Y39450
X96175Y45800
X96735Y43200
X96755Y39450
X97175Y45800
X97648Y44583
X97735Y36660
X98155Y37890
X98275Y35710
X98455Y40210
X98835Y39000
X99065Y43430
X99345Y39030
X99955Y50930
X100005Y36900
X100045Y42370
X100045Y40910
X100055Y43480
X100385Y45340
X100395Y37880
X100525Y43160
X100555Y40880
X100585Y38980
X101045Y40880
X101045Y36890
X101175Y45850
X101185Y35455
X101235Y43480
X101515Y36900
X101535Y35820
X101975Y39370
X102035Y40870
X102055Y43410
X102405Y38405
X102425Y36240
X102505Y36780
X102555Y43430
X102775Y39100
X103065Y43490
X103545Y39600
X103945Y43470
X104220Y42460
X104565Y40850
X104665Y47490
X77125Y73265
X77750Y61115
X78175Y71890
X78800Y72590
X79280Y79410
X80950Y69390
X81050Y67090
X81050Y65090
X84750Y76290
X84950Y66040
X85200Y72590
X85750Y76290
X85950Y70340
X86000Y72640
X86250Y76190
X86250Y64070
X86340Y65080
X86350Y66040
X86900Y62570
X87925Y71315
X88000Y63640
X88375Y70090
X88925Y73265
X88950Y67185
X89435Y70010
X89520Y69295
X89635Y75565
X89805Y71480
X89815Y74035
X89850Y70315
X90050Y68715
X90265Y70950
X90635Y69320
X91050Y74090
X91400Y63540
X91475Y60665
X91515Y69750
X91650Y74590
X91925Y61290
X92100Y79490
X92540Y69425
X92890Y70120
X92890Y58090
X93280Y63520
X93360Y70230
X94000Y53530
X94210Y64720
X94242Y66702
X94250Y70715
X94250Y68765
X94350Y79440
X94400Y71715
X94420Y53870
X95005Y54460
X95040Y63150
X95235Y68235
X95250Y70245
X95510Y53960
X95600Y69502
X95965Y64040
X96320Y69524
X96425Y80265
X96705Y69200
X96725Y60640
X96725Y59465
X96950Y68815
X98090Y73850
X99140Y64470
X99240Y60660
X99520Y74005
X99575Y70615
X99600Y71840
X99775Y65965
X100175Y65540
X100190Y63200
X100200Y64850
X100375Y70240
X100810Y62660
X100940Y64390
X101470Y78890
X101590Y58210
X101800Y71765
X102075Y69790
X102175Y73465
X102400Y72550
X102650Y70815
X102890Y61190
X103700Y67210
X103703Y68380
X103857Y74543
X103912Y62944
X103950Y58240
X104225Y69865
X104510Y67070
X104525Y65090
X104550Y72680
X104745Y60060
X104920Y62940
X104990Y76310
X105230Y72470
X105250Y60035
X105410Y70010
X105510Y57910
X105922Y62610
X106105Y59940
X106970Y57585
X107490Y59955
X107865Y58245
X108535Y57255
X109330Y79280
X109380Y56800
X109410Y60590
X33000Y85000
X33000Y84500
X33000Y84000
X33000Y83500
X33000Y83000
X33000Y82500
X33000Y82000
X33000Y81500
X33000Y81000
X33000Y80500
X33000Y80000
X33000Y79500
X33000Y79000
X33000Y78500
X33000Y78000
X33000Y77500
X33000Y77000
X33000Y76500
X33000Y76000
X33000Y75500
X33500Y85000
X33500Y84500
X33500Y84000
X33500Y83500
X33500Y83000
X33500Y82500
X33500Y82000
X33500Y81500
X33500Y81000
X33500Y80500
X33500Y80000
X33500Y79500
X33500Y79000
X33500Y78500
X33500Y78000
X33500Y77500
X33500Y77000
X33500Y76500
X33500Y76000
X33500Y75500
X45250Y66250
X45250Y65750
X45750Y66250
X45750Y65750
X46250Y66250
X46250Y65750
X46750Y66250
X46750Y65750
X47250Y66250
X47250Y65750
X47750Y66250
X47750Y65750
X48250Y66250
X48250Y65750
X48750Y66250
X48750Y65750
X49250Y66250
X49250Y65750
X49750Y66250
X49750Y65750
X50250Y66250
X50250Y65750
X50750Y66250
X50750Y65750
X51250Y66250
X51250Y65750
X51750Y66250
X51750Y65750
X52250Y66250
X52250Y65750
X52750Y66250
X52750Y65750
X53250Y66250
X53250Y65750
X53750Y66250
X53750Y65750
X54250Y66250
X54250Y65750
X54750Y66250
X54750Y65750
X66500Y85000
X66500Y84500
X66500Y84000
X66500Y83500
X66500Y83000
X66500Y82500
X66500Y82000
X66500Y81500
X66500Y81000
X66500Y80500
X66500Y80000
X66500Y79500
X66500Y79000
X66500Y78500
X66500Y78000
X66500Y77500
X66500Y77000
X66500Y76500
X66500Y76000
X66500Y75500
X67000Y85000
X67000Y84500
X67000Y84000
X67000Y83500
X67000Y83000
X67000Y82500
X67000Y82000
X67000Y81500
X67000Y81000
X67000Y80500
X67000Y80000
X67000Y79500
X67000Y79000
X67000Y78500
X67000Y78000
X67000Y77500
X67000Y77000
X67000Y76500
X67000Y76000
X67000Y75500
X36000Y85000
X36000Y84000
X36000Y83000
X36000Y82000
X36000Y81000
X36000Y80000
X36000Y79000
X36000Y78000
X36000Y77000
X36000Y76000
X36000Y75000
X36000Y74000
X36000Y73000
X36000Y72000
X36000Y71000
X37000Y85000
X37000Y84000
X37000Y83000
X37000Y82000
X37000Y81000
X37000Y80000
X37000Y79000
X37000Y78000
X37000Y77000
X37000Y76000
X37000Y75000
X37000Y74000
X37000Y73000
X37000Y72000
X37000Y71000
X38000Y85000
X38000Y84000
X38000Y83000
X38000Y82000
X38000Y81000
X38000Y80000
X38000Y79000
X38000Y78000
X38000Y77000
X38000Y76000
X38000Y75000
X38000Y74000
X38000Y73000
X38000Y72000
X38000Y71000
X39000Y85000
X39000Y84000
X39000Y83000
X39000Y82000
X39000Y81000
X39000Y80000
X39000Y79000
X39000Y78000
X39000Y77000
X39000Y76000
X39000Y75000
X39000Y74000
X39000Y73000
X39000Y72000
X39000Y71000
X61000Y85000
X61000Y84000
X61000Y83000
X61000Y82000
X61000Y81000
X61000Y80000
X61000Y79000
X61000Y78000
X61000Y77000
X61000Y76000
X61000Y75000
X61000Y74000
X61000Y73000
X61000Y72000
X61000Y71000
X62000Y85000
X62000Y84000
X62000Y83000
X62000Y82000
X62000Y81000
X62000Y80000
X62000Y79000
X62000Y78000
X62000Y77000
X62000Y76000
X62000Y75000
X62000Y74000
X62000Y73000
X62000Y72000
X62000Y71000
X63000Y85000
X63000Y84000
X63000Y83000
X63000Y82000
X63000Y81000
X63000Y80000
X63000Y79000
X63000Y78000
X63000Y77000
X63000Y76000
X63000Y75000
X63000Y74000
X63000Y73000
X63000Y72000
X63000Y71000
X64000Y85000
X64000Y84000
X64000Y83000
X64000Y82000
X64000Y81000
X64000Y80000
X64000Y79000
X64000Y78000
X64000Y77000
X64000Y76000
X64000Y75000
X64000Y74000
X64000Y73000
X64000Y72000
X64000Y71000
X122513Y3162
X122513Y2662
X123013Y3162
X123013Y2662
X123513Y3162
X123513Y2662
X124013Y3162
X124013Y2662
X124513Y3162
X124513Y2662
X125013Y3162
X125013Y2662
X125513Y3162
X125513Y2662
X126012Y3162
X126012Y2662
X126513Y3162
X126513Y2662
X127013Y3162
X127013Y2662
X127513Y3162
X127513Y2662
X128013Y3162
X128013Y2662
X128512Y3162
X128512Y2662
X129013Y3162
X129013Y2662
X129513Y3162
X129513Y2662
X130013Y3162
X130013Y2662
X130513Y3162
X130513Y2662
X131012Y3162
X131012Y2662
X131513Y3162
X131513Y2662
X132013Y3162
X132013Y2662
X5950Y54200
X5950Y53700
X6450Y54200
X6450Y53700
X6950Y54200
X6950Y53700
X7450Y54200
X7450Y53700
X7950Y54200
X7950Y53700
X8450Y54200
X8450Y53700
X8950Y54200
X8950Y53700
X9450Y54200
X9450Y53700
X9950Y54200
X9950Y53700
X10450Y54200
X10450Y53700
X10950Y54200
X10950Y53700
X11450Y54200
X11450Y53700
X11950Y54200
X11950Y53700
X12450Y54200
X12450Y53700
X12950Y54200
X12950Y53700
X13450Y54200
X13450Y53700
X13950Y54200
X13950Y53700
X14450Y54200
X14450Y53700
X14950Y54200
X14950Y53700
X15450Y54200
X15450Y53700
X122013Y51912
X122013Y51412
X122513Y51912
X122513Y51412
X123013Y51912
X123013Y51412
X123513Y51912
X123513Y51412
X124013Y51912
X124013Y51412
X124513Y51912
X124513Y51412
X125013Y51912
X125013Y51412
X125512Y51912
X125512Y51412
X126013Y51912
X126013Y51412
X126513Y51912
X126513Y51412
X127013Y51912
X127013Y51412
X127513Y51912
X127513Y51412
X128012Y51912
X128012Y51412
X128513Y51912
X128513Y51412
X129013Y51912
X129013Y51412
X129513Y51912
X129513Y51412
X130013Y51912
X130013Y51412
X130512Y51912
X130512Y51412
X131013Y51912
X131013Y51412
X131513Y51912
X131513Y51412
X72765Y85980
X74525Y94045
X75025Y93700
X75530Y93360
X76020Y93030
X77525Y93360
X77970Y93025
X78540Y94045
X79515Y93690
X79525Y98990
X79535Y97130
X79985Y84240
X80395Y88285
X80495Y94570
X81130Y92685
X81240Y97180
X81295Y86905
X81765Y96825
X81955Y93955
X82065Y90050
X82555Y93185
X82585Y90050
X82900Y85560
X83065Y90055
X83095Y93290
X83500Y99575
X83775Y93300
X83970Y99920
X84240Y93325
X84425Y89210
X84611Y87210
X90255Y99560
X90375Y86790
X90595Y99920
X90925Y97810
X90930Y98520
X91275Y98140
X91340Y94985
X91415Y87250
X91445Y95440
X91935Y99875
X92325Y87540
X92400Y93415
X92550Y90265
X92925Y88440
X94705Y94640
X94775Y88170
X95265Y88060
X95575Y95940
X95755Y88170
X96085Y87290
X96175Y93640
X96735Y91040
X96755Y87290
X97175Y93640
X97648Y92423
X97735Y84500
X98155Y85730
X98275Y83550
X98455Y88050
X98835Y86840
X99065Y91270
X99345Y86870
X99955Y98770
X100005Y84740
X100045Y90210
X100045Y88750
X100055Y91320
X100385Y93180
X100395Y85720
X100525Y91000
X100555Y88720
X100585Y86820
X101045Y88720
X101045Y84730
X101175Y93690
X101185Y83295
X101235Y91320
X101515Y84740
X101535Y83660
X101975Y87210
X102035Y88710
X102055Y91250
X102405Y86245
X102425Y84080
X102505Y84620
X102555Y91270
X102775Y86940
X103065Y91330
X103545Y87440
X103945Y91310
X104220Y90300
X104565Y88690
X104665Y95330
X54700Y95200
X54700Y94700
X55200Y95200
X55200Y94700
X55700Y95200
X55700Y94700
X56200Y95200
X56200Y94700
X56700Y95200
X56700Y94700
X57200Y95200
X57200Y94700
X57700Y95200
X57700Y94700
X58200Y95200
X58200Y94700
X58700Y95200
X58700Y94700
X59200Y95200
X59200Y94700
X59700Y95200
X59700Y94700
X60200Y95200
X60200Y94700
X60700Y95200
X60700Y94700
X61200Y95200
X61200Y94700
X61700Y95200
X61700Y94700
X62200Y95200
X62200Y94700
X62700Y95200
X62700Y94700
X63200Y95200
X63200Y94700
X63700Y95200
X63700Y94700
X64200Y95200
X64200Y94700
X9575Y66625
X21725Y67250
X10950Y67675
X10250Y68300
X3430Y68780
X13450Y70450
X15750Y70550
X17750Y70550
X6550Y74250
X16800Y74450
X10250Y74700
X6550Y75250
X12500Y75450
X10200Y75500
X6650Y75750
X18770Y75750
X17760Y75840
X16800Y75850
X20270Y76400
X11525Y77425
X19200Y77500
X12750Y77875
X9575Y78425
X15655Y78450
X12830Y78935
X13545Y79020
X7275Y79135
X11360Y79305
X8805Y79315
X12525Y79350
X14125Y79550
X11890Y79765
X13520Y80135
X8750Y80550
X19300Y80900
X22175Y80975
X13090Y81015
X8250Y81150
X21550Y81425
X3350Y81600
X13415Y82040
X12720Y82390
X24750Y82390
X19320Y82780
X12610Y82860
X29310Y83500
X18120Y83710
X16138Y83742
X12125Y83750
X14075Y83750
X3400Y83850
X11125Y83900
X28970Y83920
X28380Y84505
X19690Y84540
X14605Y84735
X12595Y84750
X28880Y85010
X13338Y85100
X18800Y85465
X13316Y85820
X2575Y85925
X13640Y86205
X22200Y86225
X23375Y86225
X14025Y86450
X8990Y87590
X18370Y88640
X22180Y88740
X8835Y89020
X12225Y89075
X11000Y89100
X16875Y89275
X17300Y89675
X19640Y89690
X17990Y89700
X12600Y89875
X20180Y90310
X18450Y90440
X3950Y90970
X24630Y91090
X11075Y91300
X13050Y91575
X9375Y91675
X10290Y91900
X12025Y92150
X21650Y92390
X15630Y93200
X14460Y93203
X8297Y93357
X19896Y93412
X24600Y93450
X12975Y93725
X15770Y94010
X17750Y94025
X10160Y94050
X22780Y94245
X19900Y94420
X6530Y94490
X10370Y94730
X22805Y94750
X12830Y94910
X24930Y95010
X20230Y95422
X22900Y95605
X25255Y96470
X22885Y96990
X24595Y97365
X25585Y98035
X3560Y98830
X26040Y98880
X22250Y98910
T03C0.031000
X8312Y41237
X8312Y38237
X9313Y41237
X9313Y38237
X10313Y41237
X10313Y38237
X11313Y41237
X11313Y38237
X12313Y41237
X12313Y38237
X13313Y41237
X13313Y38237
X14313Y41237
X14313Y38237
X15313Y41237
X15313Y38237
X16313Y41237
X16313Y38237
X17313Y41237
X17313Y38237
X18313Y41237
X18313Y38237
X19312Y41237
X19312Y38237
X20313Y41237
X20313Y38237
X21313Y41237
X21313Y38237
X25413Y47012
X25413Y46013
X26413Y47012
X26413Y46013
X27412Y47012
X27412Y46013
X28413Y47012
X28413Y46013
X29413Y47012
X29413Y46013
X8412Y43012
X10413Y43012
X50700Y60900
X50700Y59900
X51700Y60900
X51700Y59900
X52700Y60900
X52700Y59900
X53700Y60900
X53700Y59900
X54700Y60900
X54700Y59900
X64844Y58030
X64844Y57030
X64844Y56030
X64844Y55030
X64844Y54030
X64844Y53030
X64844Y52030
X64844Y51030
X64844Y50030
X64844Y49030
X64844Y48030
X64844Y47030
X64844Y46030
X64844Y45030
X67844Y58030
X67844Y57030
X67844Y56030
X67844Y55030
X67844Y54030
X67844Y53030
X67844Y52030
X67844Y51030
X67844Y50030
X67844Y49030
X67844Y48030
X67844Y47030
X67844Y46030
X67844Y45030
X62004Y51410
X62004Y49410
X70263Y8312
X73263Y8312
X70263Y9313
X73263Y9313
X70263Y10313
X73263Y10313
X70263Y11313
X73263Y11313
X70263Y12313
X73263Y12313
X70263Y13313
X73263Y13313
X70263Y14313
X73263Y14313
X70263Y15313
X73263Y15313
X70263Y16313
X73263Y16313
X70263Y17313
X73263Y17313
X70263Y18313
X73263Y18313
X70263Y19312
X73263Y19312
X70263Y20313
X73263Y20313
X70263Y21313
X73263Y21313
X64488Y25413
X65487Y25413
X64488Y26413
X65487Y26413
X64488Y27412
X65487Y27412
X64488Y28413
X65487Y28413
X64488Y29413
X65487Y29413
X68488Y8412
X68488Y10413
X74525Y51150
X74525Y50150
X74525Y37400
X74525Y36400
X75525Y51150
X75525Y50150
X75525Y37400
X75525Y36400
X76525Y51150
X76525Y50150
X76525Y37400
X76525Y36400
X77525Y51150
X77525Y50150
X77525Y37400
X77525Y36400
X78525Y51150
X78525Y50150
X78525Y37400
X78525Y36400
X92665Y49150
X92665Y46150
X93665Y49150
X93665Y46150
X94665Y49150
X94665Y46150
X95665Y49150
X95665Y46150
X96665Y49150
X96665Y46150
X97665Y49150
X97665Y46150
X98665Y49150
X98665Y46150
X99665Y49150
X99665Y46150
X100665Y49150
X100665Y46150
X101665Y49150
X101665Y46150
X102665Y49150
X102665Y46150
X103665Y49150
X103665Y46150
X104665Y49150
X104665Y46150
X105665Y49150
X105665Y46150
X97055Y50990
X99055Y50990
X77800Y80840
X78800Y80840
X79800Y80840
X80800Y80840
X81400Y61840
X81800Y80840
X82400Y61840
X82800Y80840
X83400Y61840
X83800Y80840
X84400Y61840
X84800Y80840
X85400Y61840
X85800Y80840
X86400Y61840
X86800Y80840
X87400Y61840
X88400Y80840
X88400Y61840
X89400Y80840
X90400Y80840
X90400Y61840
X91400Y80840
X91400Y61840
X92400Y80840
X92400Y61840
X93400Y80840
X93400Y61840
X94000Y58090
X94000Y57090
X94400Y80840
X94400Y61840
X95000Y58090
X95000Y57090
X95400Y80840
X95400Y61840
X95450Y72840
X95450Y71840
X95450Y70840
X96000Y58090
X96000Y57090
X96400Y61840
X96450Y72840
X96450Y71840
X96450Y70840
X97000Y58090
X97000Y57090
X97400Y80840
X97400Y61840
X98000Y58090
X98000Y57090
X98400Y80840
X99400Y80840
X99400Y61840
X100400Y80840
X100400Y61840
X101400Y80840
X101400Y61840
X102400Y80840
X102400Y61840
X103400Y80840
X103400Y61840
X104400Y80840
X104400Y61840
X105400Y61840
X106400Y61840
X107400Y80840
X107400Y79840
X107400Y78840
X107400Y77840
X107400Y76840
X107400Y75840
X107400Y74840
X107400Y73840
X107400Y72840
X107400Y71840
X107400Y70840
X107400Y69840
X107400Y68840
X107400Y67840
X107400Y66840
X107400Y65840
X107400Y64840
X107400Y63840
X108400Y80840
X108400Y79840
X108400Y78840
X108400Y77840
X108400Y76840
X108400Y75840
X108400Y74840
X108400Y73840
X108400Y72840
X108400Y71840
X108400Y70840
X108400Y69840
X108400Y68840
X108400Y67840
X108400Y66840
X108400Y65840
X108400Y64840
X108400Y63840
X118562Y41237
X118562Y38237
X119563Y41237
X119563Y38237
X120563Y41237
X120563Y38237
X121563Y41237
X121563Y38237
X122563Y41237
X122563Y38237
X123563Y41237
X123563Y38237
X124563Y41237
X124563Y38237
X125563Y41237
X125563Y38237
X126563Y41237
X126563Y38237
X127563Y41237
X127563Y38237
X128563Y41237
X128563Y38237
X129562Y41237
X129562Y38237
X130563Y41237
X130563Y38237
X131563Y41237
X131563Y38237
X135663Y47012
X135663Y46013
X136663Y47012
X136663Y46013
X137662Y47012
X137662Y46013
X138663Y47012
X138663Y46013
X139663Y47012
X139663Y46013
X118662Y43012
X120663Y43012
X118062Y89987
X118062Y86987
X119063Y89987
X119063Y86987
X120063Y89987
X120063Y86987
X121063Y89987
X121063Y86987
X122063Y89987
X122063Y86987
X123063Y89987
X123063Y86987
X124063Y89987
X124063Y86987
X125063Y89987
X125063Y86987
X126063Y89987
X126063Y86987
X127063Y89987
X127063Y86987
X128063Y89987
X128063Y86987
X129062Y89987
X129062Y86987
X130063Y89987
X130063Y86987
X131063Y89987
X131063Y86987
X135163Y95762
X135163Y94763
X136163Y95762
X136163Y94763
X137162Y95762
X137162Y94763
X138163Y95762
X138163Y94763
X139163Y95762
X139163Y94763
X118162Y91762
X120163Y91762
X74525Y98990
X74525Y97990
X74525Y85240
X74525Y84240
X75525Y98990
X75525Y97990
X75525Y85240
X75525Y84240
X76525Y98990
X76525Y97990
X76525Y85240
X76525Y84240
X77525Y98990
X77525Y97990
X77525Y85240
X77525Y84240
X78525Y98990
X78525Y97990
X78525Y85240
X78525Y84240
X92665Y96990
X92665Y93990
X93665Y96990
X93665Y93990
X94665Y96990
X94665Y93990
X95665Y96990
X95665Y93990
X96665Y96990
X96665Y93990
X97665Y96990
X97665Y93990
X98665Y96990
X98665Y93990
X99665Y96990
X99665Y93990
X100665Y96990
X100665Y93990
X101665Y96990
X101665Y93990
X102665Y96990
X102665Y93990
X103665Y96990
X103665Y93990
X104665Y96990
X104665Y93990
X105665Y96990
X105665Y93990
X97055Y98830
X99055Y98830
X2000Y67300
X2000Y68300
X2000Y69300
X2000Y70300
X21000Y70900
X2000Y71300
X21000Y71900
X2000Y72300
X21000Y72900
X2000Y73300
X21000Y73900
X2000Y74300
X21000Y74900
X2000Y75300
X21000Y75900
X2000Y76300
X21000Y76900
X2000Y77900
X21000Y77900
X2000Y78900
X2000Y79900
X21000Y79900
X2000Y80900
X21000Y80900
X2000Y81900
X21000Y81900
X2000Y82900
X21000Y82900
X24750Y83500
X25750Y83500
X2000Y83900
X21000Y83900
X24750Y84500
X25750Y84500
X2000Y84900
X21000Y84900
X10000Y84950
X11000Y84950
X12000Y84950
X24750Y85500
X25750Y85500
X21000Y85900
X10000Y85950
X11000Y85950
X12000Y85950
X24750Y86500
X25750Y86500
X2000Y86900
X21000Y86900
X24750Y87500
X25750Y87500
X2000Y87900
X2000Y88900
X21000Y88900
X2000Y89900
X21000Y89900
X2000Y90900
X21000Y90900
X2000Y91900
X21000Y91900
X2000Y92900
X21000Y92900
X2000Y93900
X21000Y93900
X21000Y94900
X21000Y95900
X2000Y96900
X3000Y96900
X4000Y96900
X5000Y96900
X6000Y96900
X7000Y96900
X8000Y96900
X9000Y96900
X10000Y96900
X11000Y96900
X12000Y96900
X13000Y96900
X14000Y96900
X15000Y96900
X16000Y96900
X17000Y96900
X18000Y96900
X19000Y96900
X2000Y97900
X3000Y97900
X4000Y97900
X5000Y97900
X6000Y97900
X7000Y97900
X8000Y97900
X9000Y97900
X10000Y97900
X11000Y97900
X12000Y97900
X13000Y97900
X14000Y97900
X15000Y97900
X16000Y97900
X17000Y97900
X18000Y97900
X19000Y97900
T04C0.037000
X85525Y47250
X86525Y47250
X75250Y62540
X75250Y61540
X75250Y56140
X75250Y55140
X85525Y95090
X86525Y95090
X20300Y64750
X21300Y64750
X26700Y64750
X27700Y64750
T05C0.040000
X13900Y45800
X14900Y45800
X15900Y45800
X16900Y45800
X17900Y45800
X18900Y45800
X21850Y43550
X21850Y42550
X25900Y40250
X25900Y39250
X26900Y40250
X26900Y39250
X27900Y40250
X27900Y39250
X29950Y40550
X29950Y39400
X30950Y40550
X30950Y39400
X22451Y40868
X22451Y38507
X24224Y40868
X24224Y38507
X36000Y52500
X36000Y51500
X36000Y50500
X36000Y49500
X36000Y48500
X36000Y47500
X36000Y46500
X36000Y45500
X36000Y44500
X36000Y43500
X36000Y42500
X36000Y41500
X37000Y52500
X37000Y51500
X37000Y50500
X37000Y49500
X37000Y48500
X37000Y47500
X37000Y46500
X37000Y45500
X37000Y44500
X37000Y43500
X37000Y42500
X37000Y41500
X38000Y52500
X38000Y51500
X38000Y50500
X38000Y49500
X38000Y48500
X38000Y47500
X38000Y46500
X38000Y45500
X38000Y44500
X38000Y43500
X38000Y42500
X38000Y41500
X39000Y52500
X39000Y51500
X39000Y50500
X39000Y49500
X39000Y48500
X39000Y47500
X39000Y46500
X39000Y45500
X39000Y44500
X39000Y43500
X39000Y42500
X39000Y41500
X40000Y52500
X40000Y51500
X40000Y50500
X40000Y49500
X40000Y48500
X40000Y47500
X40000Y46500
X40000Y45500
X40000Y44500
X40000Y43500
X40000Y42500
X40000Y41500
X41000Y52500
X41000Y51500
X41000Y50500
X41000Y49500
X41000Y48500
X41000Y47500
X41000Y46500
X41000Y45500
X41000Y44500
X41000Y43500
X41000Y42500
X41000Y41500
X42000Y52500
X42000Y51500
X42000Y50500
X42000Y49500
X42000Y48500
X42000Y47500
X42000Y46500
X42000Y45500
X42000Y44500
X42000Y43500
X42000Y42500
X42000Y41500
X43000Y52500
X43000Y51500
X43000Y50500
X43000Y49500
X43000Y48500
X43000Y47500
X43000Y46500
X43000Y45500
X43000Y44500
X43000Y43500
X43000Y42500
X43000Y41500
X44000Y52500
X44000Y51500
X44000Y50500
X44000Y49500
X44000Y48500
X44000Y47500
X44000Y46500
X44000Y45500
X44000Y44500
X44000Y43500
X44000Y42500
X44000Y41500
X45000Y52500
X45000Y51500
X45000Y50500
X45000Y49500
X45000Y48500
X45000Y47500
X45000Y46500
X45000Y45500
X45000Y44500
X45000Y43500
X45000Y42500
X45000Y41500
X46000Y52500
X46000Y51500
X46000Y50500
X46000Y49500
X46000Y48500
X46000Y47500
X46000Y46500
X46000Y45500
X46000Y44500
X46000Y43500
X46000Y42500
X46000Y41500
X47000Y52500
X47000Y51500
X47000Y50500
X47000Y49500
X47000Y48500
X47000Y47500
X47000Y46500
X47000Y45500
X47000Y44500
X47000Y43500
X47000Y42500
X47000Y41500
X48000Y52500
X48000Y51500
X48000Y50500
X48000Y49500
X48000Y48500
X48000Y47500
X48000Y46500
X48000Y45500
X48000Y44500
X48000Y43500
X48000Y42500
X48000Y41500
X49000Y52500
X49000Y51500
X49000Y50500
X49000Y49500
X49000Y48500
X49000Y47500
X49000Y46500
X49000Y45500
X49000Y44500
X49000Y43500
X49000Y42500
X49000Y41500
X50000Y52500
X50000Y51500
X50000Y50500
X50000Y49500
X50000Y48500
X50000Y47500
X50000Y46500
X50000Y45500
X50000Y44500
X50000Y43500
X50000Y42500
X50000Y41500
X51000Y52500
X51000Y51500
X51000Y50500
X51000Y49500
X51000Y48500
X51000Y47500
X51000Y46500
X51000Y45500
X51000Y44500
X51000Y43500
X51000Y42500
X51000Y41500
X51700Y58380
X52000Y52500
X52000Y51500
X52000Y50500
X52000Y49500
X52000Y48500
X52000Y47500
X52000Y46500
X52000Y45500
X52000Y44500
X52000Y43500
X52000Y42500
X52000Y41500
X52700Y58380
X53000Y52500
X53000Y51500
X53000Y50500
X53000Y49500
X53000Y48500
X53000Y47500
X53000Y46500
X53000Y45500
X53000Y44500
X53000Y43500
X53000Y42500
X53000Y41500
X54000Y52500
X54000Y51500
X54000Y50500
X54000Y49500
X54000Y48500
X54000Y47500
X54000Y46500
X54000Y45500
X54000Y44500
X54000Y43500
X54000Y42500
X54000Y41500
X55000Y52500
X55000Y51500
X55000Y50500
X55000Y49500
X55000Y48500
X55000Y47500
X55000Y46500
X55000Y45500
X55000Y44500
X55000Y43500
X55000Y42500
X55000Y41500
X56000Y52500
X56000Y51500
X56000Y50500
X56000Y49500
X56000Y48500
X56000Y47500
X56000Y46500
X56000Y45500
X56000Y44500
X56000Y43500
X56000Y42500
X56000Y41500
X57000Y52500
X57000Y51500
X57000Y50500
X57000Y49500
X57000Y48500
X57000Y47500
X57000Y46500
X57000Y45500
X57000Y44500
X57000Y43500
X57000Y42500
X57000Y41500
X58000Y52500
X58000Y51500
X58000Y50500
X58000Y49500
X58000Y48500
X58000Y47500
X58000Y46500
X58000Y45500
X58000Y44500
X58000Y43500
X58000Y42500
X58000Y41500
X59000Y52500
X59000Y51500
X59000Y50500
X59000Y49500
X59000Y48500
X59000Y47500
X59000Y46500
X59000Y45500
X59000Y44500
X59000Y43500
X59000Y42500
X59000Y41500
X60000Y52500
X60000Y51500
X60000Y50500
X60000Y49500
X60000Y48500
X60000Y47500
X60000Y46500
X60000Y45500
X60000Y44500
X60000Y43500
X60000Y42500
X60000Y41500
X61640Y46188
X62640Y46188
X63800Y61608
X63844Y60030
X63844Y59030
X63844Y58030
X63844Y57030
X63844Y56030
X63844Y55030
X63844Y54030
X63844Y53030
X63844Y52030
X63844Y48030
X63844Y47030
X63844Y46030
X63844Y45030
X64800Y61608
X65800Y61608
X66580Y60320
X66646Y42728
X66646Y41728
X66800Y61608
X67580Y60320
X67646Y42728
X67646Y41728
X67800Y61608
X68646Y42728
X68646Y41728
X68800Y61608
X68844Y60030
X68844Y59030
X68844Y58030
X68844Y57030
X68844Y56030
X68844Y55030
X68844Y54030
X68844Y53030
X68844Y52030
X68844Y51030
X68844Y50030
X68844Y49030
X68844Y48030
X68844Y47030
X68844Y46030
X68844Y45030
X55804Y58921
X55804Y56559
X57576Y58921
X57576Y56559
X65700Y13900
X65700Y14900
X65700Y15900
X65700Y16900
X65700Y17900
X65700Y18900
X67950Y21850
X68950Y21850
X71250Y25900
X72250Y25900
X71250Y26900
X72250Y26900
X71250Y27900
X72250Y27900
X70950Y29950
X72100Y29950
X70950Y30950
X72100Y30950
X70632Y22451
X72993Y22451
X70632Y24224
X72993Y24224
X81245Y47425
X82245Y47425
X90350Y48700
X90350Y47700
X90350Y46700
X91855Y51450
X91855Y50450
X92855Y51450
X92855Y50450
X93855Y51450
X93855Y50450
X103735Y50170
X103845Y51670
X104735Y50170
X104845Y51670
X105845Y51670
X106845Y51670
X107845Y51670
X108845Y51670
X107199Y48251
X107199Y45889
X108971Y48251
X108971Y45889
X90525Y66940
X90525Y65940
X90525Y64940
X91950Y66940
X91950Y65940
X91950Y64940
X96550Y65240
X97350Y69340
X97350Y68340
X97350Y67340
X97550Y65240
X98750Y69340
X98750Y68340
X98750Y67340
X100150Y69340
X100150Y68340
X100150Y67340
X103950Y55840
X103950Y54840
X103950Y53840
X105550Y55840
X105550Y54840
X105550Y53840
X107050Y55840
X107050Y54840
X107050Y53840
X108550Y55840
X108550Y54840
X108550Y53840
X124150Y45800
X125150Y45800
X126150Y45800
X127150Y45800
X128150Y45800
X129150Y45800
X132100Y43550
X132100Y42550
X136150Y40250
X136150Y39250
X137150Y40250
X137150Y39250
X138150Y40250
X138150Y39250
X140200Y40550
X140200Y39400
X141200Y40550
X141200Y39400
X132701Y40868
X132701Y38507
X134474Y40868
X134474Y38507
X19150Y54200
X123650Y94550
X124650Y94550
X125650Y94550
X126650Y94550
X127650Y94550
X128650Y94550
X131600Y92300
X131600Y91300
X135650Y89000
X135650Y88000
X136650Y89000
X136650Y88000
X137650Y89000
X137650Y88000
X139700Y89300
X139700Y88150
X140700Y89300
X140700Y88150
X132201Y89618
X132201Y87257
X133974Y89618
X133974Y87257
X81245Y95265
X82245Y95265
X90350Y96540
X90350Y95540
X90350Y94540
X91855Y99290
X91855Y98290
X92855Y99290
X92855Y98290
X93855Y99290
X93855Y98290
X103735Y98010
X103845Y99510
X104735Y98010
X104845Y99510
X105845Y99510
X106845Y99510
X107845Y99510
X108845Y99510
X107199Y96091
X107199Y93729
X108971Y96091
X108971Y93729
X67900Y95200
X15900Y80025
X16900Y80025
X17900Y80025
X15900Y81450
X16900Y81450
X17900Y81450
X17600Y86050
X13500Y86850
X14500Y86850
X15500Y86850
X17600Y87050
X13500Y88250
X14500Y88250
X15500Y88250
X13500Y89650
X14500Y89650
X15500Y89650
X27000Y93450
X28000Y93450
X29000Y93450
X27000Y95050
X28000Y95050
X29000Y95050
X27000Y96550
X28000Y96550
X29000Y96550
X27000Y98050
X28000Y98050
X29000Y98050
T06C0.050000
X11638Y2912
X22388Y2912
X39125Y3750
X49875Y3750
X58750Y15125
X58750Y25875
X39125Y37250
X49875Y37250
X108588Y11638
X108588Y22388
X88810Y77422
X88810Y75258
X90463Y77422
X90463Y75258
X92117Y77422
X92117Y75258
X93770Y77422
X93770Y75258
X95424Y77422
X95424Y75258
X97076Y77422
X97076Y75258
X98730Y77422
X98730Y75258
X100383Y77422
X100383Y75258
X102037Y77422
X102037Y75258
X103690Y77422
X103690Y75258
X33250Y85625
X33250Y74875
X44625Y66000
X55375Y66000
X66750Y85625
X66750Y74875
X121888Y2912
X132638Y2912
X5325Y53950
X16075Y53950
X121388Y51662
X132138Y51662
X54075Y94950
X64825Y94950
X5418Y78310
X7582Y78310
X5418Y79963
X7582Y79963
X5418Y81617
X7582Y81617
X5418Y83270
X7582Y83270
X5418Y84924
X7582Y84924
X5418Y86576
X7582Y86576
X5418Y88230
X7582Y88230
X5418Y89883
X7582Y89883
X5418Y91537
X7582Y91537
X5418Y93190
X7582Y93190
T07C0.061000
X2913Y48012
X2913Y46013
X4913Y48012
X4913Y46013
X7913Y48012
X7913Y46013
X9913Y48012
X9913Y46013
X13412Y43513
X15413Y43513
X17412Y43513
X19413Y43513
X3913Y47012
X8913Y47012
X47750Y55700
X49750Y55700
X51750Y55700
X53750Y55700
X63488Y2913
X65487Y2913
X63488Y4913
X65487Y4913
X63488Y7913
X65487Y7913
X63488Y9913
X65487Y9913
X67987Y13412
X67987Y15413
X67987Y17412
X67987Y19413
X64488Y3913
X64488Y8913
X78000Y56940
X78000Y54940
X80000Y56940
X80000Y54940
X79000Y55940
X113163Y48012
X113163Y46013
X115163Y48012
X115163Y46013
X118163Y48012
X118163Y46013
X120163Y48012
X120163Y46013
X123662Y43513
X125663Y43513
X127662Y43513
X129663Y43513
X114163Y47012
X119163Y47012
X112663Y96762
X112663Y94763
X114663Y96762
X114663Y94763
X117663Y96762
X117663Y94763
X119663Y96762
X119663Y94763
X123162Y92263
X125163Y92263
X127162Y92263
X129163Y92263
X113663Y95762
X118663Y95762
X25900Y67500
X27900Y67500
X25900Y69500
X27900Y69500
X26900Y68500
T08C0.073000
X40420Y57982
X40420Y55818
X42074Y57982
X42074Y55818
X43726Y57982
X43726Y55818
X45380Y57982
X45380Y55818
X83995Y40522
X83995Y38358
X85649Y40522
X85649Y38358
X87301Y40522
X87301Y38358
X88955Y40522
X88955Y38358
X74468Y79420
X74468Y77766
X74468Y76114
X74468Y74460
X74468Y71920
X74468Y70266
X74468Y68614
X74468Y66960
X76632Y79420
X76632Y77766
X76632Y76114
X76632Y74460
X76632Y71920
X76632Y70266
X76632Y68614
X76632Y66960
X83520Y59922
X83520Y57758
X85174Y59922
X85174Y57758
X86826Y59922
X86826Y57758
X88480Y59922
X88480Y57758
X83995Y88362
X83995Y86198
X85649Y88362
X85649Y86198
X87301Y88362
X87301Y86198
X88955Y88362
X88955Y86198
X3420Y63968
X5074Y63968
X6726Y63968
X8380Y63968
X10920Y63968
X12574Y63968
X14226Y63968
X15880Y63968
X3420Y66132
X5074Y66132
X6726Y66132
X8380Y66132
X10920Y66132
X12574Y66132
X14226Y66132
X15880Y66132
X22918Y73020
X25082Y73020
X22918Y74674
X25082Y74674
X22918Y76326
X25082Y76326
X22918Y77980
X25082Y77980
T09C0.079000
X84525Y49250
X88525Y49250
X73250Y64540
X73250Y60540
X73250Y58140
X73250Y54140
X84525Y97090
X88525Y97090
X18300Y62750
X22300Y62750
X24700Y62750
X28700Y62750
T10C0.099000
X12413Y44512
X20413Y44512
X23113Y46712
X31713Y46712
X48400Y60600
X57000Y60600
X66988Y12413
X66988Y20413
X64788Y23113
X64788Y31713
X72225Y50850
X72225Y36700
X80825Y50850
X80825Y36700
X91700Y57390
X100300Y57390
X86959Y75434
X105541Y75434
X122663Y44512
X130663Y44512
X133363Y46712
X141963Y46712
X122163Y93262
X130163Y93262
X132863Y95462
X141463Y95462
X72225Y98690
X72225Y84540
X80825Y98690
X80825Y84540
X25450Y81200
X25450Y89800
X7406Y76459
X7406Y95041
T11C0.119000
X2500Y43000
X2500Y2500
X32500Y43000
X32500Y2500
X36750Y6500
X58250Y6500
X36750Y34500
X58250Y34500
X37000Y56750
X61500Y56750
X40420Y60857
X45380Y60857
X68500Y2500
X109000Y2500
X68500Y32500
X109000Y32500
X87025Y42575
X106150Y42575
X83995Y35483
X88955Y35483
X71593Y79420
X71593Y74460
X71593Y71920
X71593Y66960
X83520Y54883
X88480Y54883
X80070Y78390
X80070Y59240
X36000Y88000
X36000Y66500
X64000Y88000
X64000Y66500
X112750Y43000
X112750Y2500
X142750Y43000
X142750Y2500
X112250Y91750
X112250Y51250
X142250Y91750
X142250Y51250
X87025Y90415
X106150Y90415
X83995Y83323
X88955Y83323
X3420Y61093
X8380Y61093
X10920Y61093
X15880Y61093
X27957Y73020
X27957Y77980
X4450Y69570
X23600Y69570
T12C0.125000
X105900Y80840
X108400Y61840
X2000Y95400
X21000Y97900
T13C0.157000
X14413Y47512
X18412Y47512
X63988Y14413
X63988Y18412
X124663Y47512
X128662Y47512
X124163Y96262
X128162Y96262
M30
