G75*
G70*
%OFA0B0*%
%FSLAX25Y25*%
%IPPOS*%
%LPD*%
%AMOC8*
5,1,8,0,0,1.08239X$1,22.5*
%
%ADD10C,0.05500*%
%ADD100R,0.02000X0.04500*%
%ADD101C,0.13575*%
%ADD102C,0.00000*%
%ADD104C,0.00591*%
%ADD105C,0.12000*%
%ADD109C,0.15355*%
%ADD11C,0.07000*%
%ADD111R,0.21290X0.21290*%
%ADD118R,0.11575X0.11575*%
%ADD119C,0.18000*%
%ADD123C,0.13810*%
%ADD128R,0.04575X0.06575*%
%ADD129R,0.07575X0.09575*%
%ADD13C,0.05940*%
%ADD133R,0.06500X0.04000*%
%ADD134R,0.09090X0.08290*%
%ADD135O,0.12000X0.08000*%
%ADD138R,0.07000X0.04000*%
%ADD14R,0.12000X0.12000*%
%ADD15C,0.17710*%
%ADD16C,0.13386*%
%ADD18R,0.07500X0.07500*%
%ADD19R,0.04725X0.05515*%
%ADD20R,0.07865X0.08665*%
%ADD22C,0.11449*%
%ADD29R,0.05940X0.05150*%
%ADD34R,0.07575X0.07575*%
%ADD40C,0.17575*%
%ADD42R,0.05150X0.05940*%
%ADD43C,0.07175*%
%ADD44R,0.08000X0.10000*%
%ADD45C,0.15780*%
%ADD46R,0.07075X0.07075*%
%ADD47C,0.14000*%
%ADD53C,0.08000*%
%ADD58R,0.10000X0.08000*%
%ADD60R,0.08290X0.09090*%
%ADD63R,0.05500X0.05500*%
%ADD65R,0.03075X0.06575*%
%ADD68C,0.07075*%
%ADD70R,0.03935X0.07085*%
%ADD71C,0.14500*%
%ADD72R,0.09575X0.07575*%
%ADD74R,0.03575X0.06075*%
%ADD75R,0.08000X0.08000*%
%ADD76R,0.16760X0.12040*%
%ADD83C,0.07600*%
%ADD84C,0.07575*%
%ADD85R,0.06000X0.08000*%
%ADD86C,0.07500*%
%ADD93R,0.09000X0.09000*%
%ADD95R,0.04000X0.06500*%
%ADD96C,0.17500*%
%ADD97C,0.11843*%
%ADD99C,0.13811*%
X0010000Y0010000D02*
G01*
D104*
D101*
X0029750Y0029500D03*
X0115750Y0029500D03*
D34*
X0092750Y0036500D03*
D84*
X0092750Y0026500D03*
X0082750Y0036500D03*
X0082750Y0026500D03*
X0072750Y0036500D03*
X0072750Y0026500D03*
X0062750Y0036500D03*
X0062750Y0026500D03*
X0052750Y0036500D03*
X0052750Y0026500D03*
D40*
X0369000Y0088250D03*
X0177750Y0088250D03*
D16*
X0147450Y0017340D03*
D118*
X0147450Y0067720D03*
X0163990Y0067720D03*
X0180510Y0067720D03*
X0197050Y0067720D03*
X0147450Y0046080D03*
X0163990Y0046080D03*
X0180510Y0046080D03*
X0197050Y0046080D03*
D16*
X0197050Y0017340D03*
D101*
X0115750Y0171000D03*
X0029750Y0171000D03*
D34*
X0052750Y0164000D03*
D84*
X0052750Y0174000D03*
X0062750Y0164000D03*
X0062750Y0174000D03*
X0072750Y0164000D03*
X0072750Y0174000D03*
X0082750Y0164000D03*
X0082750Y0174000D03*
X0092750Y0164000D03*
X0092750Y0174000D03*
D70*
X0233250Y0078500D03*
X0233250Y0099500D03*
X0228250Y0078500D03*
X0223250Y0078500D03*
X0218250Y0078500D03*
X0228250Y0099500D03*
X0223250Y0099500D03*
X0218250Y0099500D03*
D74*
X0295250Y0025500D03*
X0300250Y0025500D03*
X0305250Y0025500D03*
X0310250Y0025500D03*
X0315250Y0025500D03*
X0320250Y0025500D03*
X0325250Y0025500D03*
X0325250Y0046500D03*
X0320250Y0046500D03*
X0315250Y0046500D03*
X0310250Y0046500D03*
X0305250Y0046500D03*
X0300250Y0046500D03*
X0295250Y0046500D03*
D72*
X0258850Y0165300D03*
X0258850Y0178300D03*
D129*
X0230250Y0110000D03*
X0243250Y0110000D03*
D109*
X0192750Y0155000D03*
X0152750Y0155000D03*
D84*
X0162750Y0135000D03*
X0172750Y0135000D03*
D68*
X0397210Y0121390D03*
X0379490Y0121390D03*
X0397210Y0145010D03*
X0379490Y0145010D03*
D129*
X0254250Y0099000D03*
X0241250Y0099000D03*
D72*
X0242900Y0076750D03*
X0242900Y0089750D03*
D34*
X0246050Y0177000D03*
D84*
X0246050Y0167000D03*
X0236050Y0177000D03*
X0236050Y0167000D03*
X0226050Y0177000D03*
X0226050Y0167000D03*
D34*
X0345950Y0179200D03*
D84*
X0355950Y0179200D03*
X0365950Y0179200D03*
X0375950Y0179200D03*
X0385950Y0179200D03*
X0395950Y0179200D03*
D68*
X0354150Y0154000D03*
X0344150Y0154000D03*
X0334150Y0154000D03*
X0324150Y0154000D03*
X0314150Y0154000D03*
X0304150Y0154000D03*
X0294150Y0154000D03*
X0284150Y0154000D03*
X0274150Y0154000D03*
X0264150Y0154000D03*
X0254150Y0154000D03*
X0244150Y0154000D03*
X0234150Y0154000D03*
D46*
X0364150Y0154000D03*
D68*
X0234150Y0124000D03*
X0244150Y0124000D03*
X0254150Y0124000D03*
X0264150Y0124000D03*
X0274150Y0124000D03*
X0284150Y0124000D03*
X0294150Y0124000D03*
X0304150Y0124000D03*
X0314150Y0124000D03*
X0324150Y0124000D03*
X0334150Y0124000D03*
X0344150Y0124000D03*
X0354150Y0124000D03*
X0364150Y0124000D03*
D65*
X0390890Y0109200D03*
X0388330Y0109200D03*
X0385770Y0109200D03*
X0383210Y0109200D03*
X0383210Y0092200D03*
X0385770Y0092200D03*
X0388330Y0092200D03*
X0390890Y0092200D03*
D72*
X0327650Y0177800D03*
X0327650Y0164800D03*
D129*
X0024250Y0062200D03*
X0037250Y0062200D03*
D20*
X0024060Y0052000D03*
X0035240Y0052000D03*
D34*
X0211000Y0129500D03*
D84*
X0211000Y0139500D03*
X0211000Y0149500D03*
D74*
X0394150Y0069500D03*
X0389150Y0069500D03*
X0384150Y0069500D03*
X0379150Y0069500D03*
X0374150Y0069500D03*
X0369150Y0069500D03*
X0364150Y0069500D03*
X0364150Y0048500D03*
X0369150Y0048500D03*
X0374150Y0048500D03*
X0379150Y0048500D03*
X0384150Y0048500D03*
X0389150Y0048500D03*
X0394150Y0048500D03*
X0255150Y0051000D03*
X0260150Y0051000D03*
X0265150Y0051000D03*
X0270150Y0051000D03*
X0275150Y0051000D03*
X0280150Y0051000D03*
X0285150Y0051000D03*
X0285150Y0072000D03*
X0280150Y0072000D03*
X0275150Y0072000D03*
X0270150Y0072000D03*
X0265150Y0072000D03*
X0260150Y0072000D03*
X0255150Y0072000D03*
D43*
X0278050Y0172400D03*
X0298050Y0172400D03*
D128*
X0353050Y0103000D03*
X0348050Y0103000D03*
X0343050Y0103000D03*
X0338050Y0103000D03*
X0333050Y0103000D03*
X0328050Y0103000D03*
X0323050Y0103000D03*
X0318050Y0103000D03*
X0313050Y0103000D03*
X0308050Y0103000D03*
X0303050Y0103000D03*
X0298050Y0103000D03*
X0353050Y0065000D03*
X0348050Y0065000D03*
X0343050Y0065000D03*
X0338050Y0065000D03*
X0333050Y0065000D03*
X0328050Y0065000D03*
X0323050Y0065000D03*
X0318050Y0065000D03*
X0313050Y0065000D03*
X0308050Y0065000D03*
X0303050Y0065000D03*
X0298050Y0065000D03*
D70*
X0338950Y0046500D03*
X0338950Y0025500D03*
X0343950Y0046500D03*
X0348950Y0046500D03*
X0353950Y0046500D03*
X0343950Y0025500D03*
X0348950Y0025500D03*
X0353950Y0025500D03*
D129*
X0387950Y0166500D03*
X0374950Y0166500D03*
D72*
X0317350Y0164800D03*
X0317350Y0177800D03*
X0276350Y0028100D03*
X0276350Y0041100D03*
X0233950Y0034800D03*
X0233950Y0047800D03*
X0265950Y0028100D03*
X0265950Y0041100D03*
X0255550Y0028100D03*
X0255550Y0041100D03*
D129*
X0274950Y0084700D03*
X0287950Y0084700D03*
X0266750Y0084700D03*
X0253750Y0084700D03*
D19*
X0274850Y0099470D03*
X0271100Y0108130D03*
X0278600Y0108130D03*
D34*
X0344850Y0164200D03*
D84*
X0354850Y0164200D03*
D74*
X0123150Y0090000D03*
X0128150Y0090000D03*
X0133150Y0090000D03*
X0138150Y0090000D03*
X0143150Y0090000D03*
X0148150Y0090000D03*
X0153150Y0090000D03*
X0153150Y0111000D03*
X0148150Y0111000D03*
X0143150Y0111000D03*
X0138150Y0111000D03*
X0133150Y0111000D03*
X0128150Y0111000D03*
X0123150Y0111000D03*
D129*
X0118900Y0123550D03*
X0131900Y0123550D03*
X0071450Y0061000D03*
X0084450Y0061000D03*
X0071350Y0050400D03*
X0084350Y0050400D03*
D34*
X0129950Y0136750D03*
D84*
X0119950Y0136750D03*
D20*
X0094960Y0060400D03*
X0106140Y0060400D03*
X0094910Y0050950D03*
X0106090Y0050950D03*
D72*
X0112050Y0097900D03*
X0112050Y0110900D03*
X0397030Y0166840D03*
X0397030Y0153840D03*
X0398630Y0094040D03*
X0398630Y0107040D03*
D129*
X0384900Y0040700D03*
X0397900Y0040700D03*
X0210500Y0103450D03*
X0197500Y0103450D03*
X0217350Y0070350D03*
X0230350Y0070350D03*
X0312100Y0017050D03*
X0299100Y0017050D03*
D72*
X0245200Y0053450D03*
X0245200Y0066450D03*
X0360850Y0020400D03*
X0360850Y0033400D03*
X0010000Y0194000D02*
G01*
D104*
D100*
X0055000Y0234000D03*
X0060000Y0234000D03*
X0065000Y0234000D03*
X0070000Y0234000D03*
X0070000Y0209000D03*
X0065000Y0209000D03*
X0060000Y0209000D03*
X0055000Y0209000D03*
D85*
X0031000Y0216500D03*
X0044000Y0216500D03*
X0031000Y0226500D03*
X0044000Y0226500D03*
X0044000Y0236500D03*
X0031000Y0236500D03*
X0031000Y0206500D03*
X0044000Y0206500D03*
X0069000Y0261500D03*
X0056000Y0261500D03*
X0044000Y0271500D03*
X0031000Y0271500D03*
X0056000Y0271500D03*
X0069000Y0271500D03*
X0044000Y0261500D03*
X0031000Y0261500D03*
D63*
X0017500Y0241500D03*
D10*
X0017500Y0251500D03*
X0017500Y0261500D03*
X0017500Y0271500D03*
D63*
X0017500Y0201500D03*
D10*
X0017500Y0211500D03*
X0017500Y0221500D03*
X0411250Y0010000D02*
G01*
D104*
D119*
X0426250Y0430000D03*
X0426250Y0025000D03*
X0726250Y0025000D03*
X0726250Y0430000D03*
D11*
X0625120Y0029130D03*
X0517620Y0029130D03*
D13*
X0613870Y0031630D03*
X0618870Y0031630D03*
X0618870Y0026630D03*
X0613870Y0026630D03*
X0598870Y0026630D03*
X0593870Y0026630D03*
X0603870Y0026630D03*
X0608870Y0026630D03*
X0608870Y0031630D03*
X0603870Y0031630D03*
X0593870Y0031630D03*
X0598870Y0031630D03*
X0543870Y0026630D03*
X0538870Y0026630D03*
X0528870Y0026630D03*
X0533870Y0026630D03*
X0533870Y0031630D03*
X0528870Y0031630D03*
X0538870Y0031630D03*
X0543870Y0031630D03*
X0523870Y0031630D03*
X0523870Y0026630D03*
X0548870Y0026630D03*
X0548870Y0031630D03*
X0578870Y0031630D03*
X0573870Y0031630D03*
X0583870Y0031630D03*
X0588870Y0031630D03*
X0568870Y0031630D03*
X0563870Y0031630D03*
X0553870Y0031630D03*
X0558870Y0031630D03*
X0558870Y0026630D03*
X0553870Y0026630D03*
X0563870Y0026630D03*
X0568870Y0026630D03*
X0588870Y0026630D03*
X0583870Y0026630D03*
X0573870Y0026630D03*
X0578870Y0026630D03*
D47*
X0718370Y0467130D03*
X0632370Y0467130D03*
D75*
X0655370Y0460130D03*
D53*
X0655370Y0470130D03*
X0665370Y0460130D03*
X0665370Y0470130D03*
X0675370Y0460130D03*
X0675370Y0470130D03*
X0685370Y0460130D03*
X0685370Y0470130D03*
X0695370Y0460130D03*
X0695370Y0470130D03*
D58*
X0451870Y0354630D03*
X0451870Y0341630D03*
X0466870Y0271630D03*
X0466870Y0284630D03*
X0451870Y0144630D03*
X0451870Y0131630D03*
X0436870Y0144630D03*
X0436870Y0131630D03*
X0526870Y0271630D03*
X0526870Y0284630D03*
X0526870Y0201630D03*
X0526870Y0214630D03*
X0496870Y0144630D03*
X0496870Y0131630D03*
X0436870Y0284630D03*
X0436870Y0271630D03*
X0466870Y0131630D03*
X0466870Y0144630D03*
X0466870Y0201630D03*
X0466870Y0214630D03*
X0436870Y0354630D03*
X0436870Y0341630D03*
X0691870Y0214630D03*
X0691870Y0201630D03*
X0691870Y0284630D03*
X0691870Y0271630D03*
X0436870Y0214630D03*
X0436870Y0201630D03*
X0451870Y0284630D03*
X0451870Y0271630D03*
X0451870Y0214630D03*
X0451870Y0201630D03*
X0511870Y0214630D03*
X0511870Y0201630D03*
X0571870Y0214630D03*
X0571870Y0201630D03*
X0571870Y0284630D03*
X0571870Y0271630D03*
X0631870Y0284630D03*
X0631870Y0271630D03*
X0631870Y0214630D03*
X0631870Y0201630D03*
X0511870Y0284630D03*
X0511870Y0271630D03*
X0571870Y0354630D03*
X0571870Y0341630D03*
X0556870Y0144630D03*
X0556870Y0131630D03*
X0646870Y0201630D03*
X0646870Y0214630D03*
X0646870Y0271630D03*
X0646870Y0284630D03*
X0646870Y0341630D03*
X0646870Y0354630D03*
X0676870Y0354630D03*
X0676870Y0341630D03*
X0706870Y0131130D03*
X0706870Y0144130D03*
X0676870Y0284630D03*
X0676870Y0271630D03*
X0691870Y0144130D03*
X0691870Y0131130D03*
X0616870Y0284630D03*
X0616870Y0271630D03*
X0616870Y0214630D03*
X0616870Y0201630D03*
X0586870Y0341630D03*
X0586870Y0354630D03*
X0586870Y0201630D03*
X0586870Y0214630D03*
X0631870Y0144630D03*
X0631870Y0131630D03*
X0616870Y0144630D03*
X0616870Y0131630D03*
X0586870Y0271630D03*
X0586870Y0284630D03*
X0616870Y0354630D03*
X0616870Y0341630D03*
X0646870Y0131630D03*
X0646870Y0144630D03*
X0631870Y0354630D03*
X0631870Y0341630D03*
X0676870Y0214630D03*
X0676870Y0201630D03*
X0691870Y0354630D03*
X0691870Y0341630D03*
X0676870Y0144130D03*
X0676870Y0131130D03*
X0706870Y0201630D03*
X0706870Y0214630D03*
X0706870Y0341630D03*
X0706870Y0354630D03*
X0706870Y0271630D03*
X0706870Y0284630D03*
X0511870Y0144630D03*
X0511870Y0131630D03*
X0496870Y0354630D03*
X0496870Y0341630D03*
X0466870Y0341630D03*
X0466870Y0354630D03*
X0571870Y0144630D03*
X0571870Y0131630D03*
X0556870Y0284630D03*
X0556870Y0271630D03*
X0496870Y0214630D03*
X0496870Y0201630D03*
X0496870Y0284630D03*
X0496870Y0271630D03*
X0511870Y0354630D03*
X0511870Y0341630D03*
X0586870Y0131630D03*
X0586870Y0144630D03*
X0556870Y0214630D03*
X0556870Y0201630D03*
X0556870Y0354630D03*
X0556870Y0341630D03*
X0526870Y0341630D03*
X0526870Y0354630D03*
X0526870Y0131630D03*
X0526870Y0144630D03*
D44*
X0526870Y0328130D03*
X0516870Y0328130D03*
X0506870Y0328130D03*
X0496870Y0328130D03*
X0496870Y0298130D03*
X0506870Y0298130D03*
X0516870Y0298130D03*
X0526870Y0298130D03*
X0466870Y0188130D03*
X0456870Y0188130D03*
X0446870Y0188130D03*
X0436870Y0188130D03*
X0436870Y0158130D03*
X0446870Y0158130D03*
X0456870Y0158130D03*
X0466870Y0158130D03*
X0586870Y0118130D03*
X0576870Y0118130D03*
X0566870Y0118130D03*
X0556870Y0118130D03*
X0556870Y0088130D03*
X0566870Y0088130D03*
X0576870Y0088130D03*
X0586870Y0088130D03*
X0646870Y0328130D03*
X0636870Y0328130D03*
X0626870Y0328130D03*
X0616870Y0328130D03*
X0616870Y0298130D03*
X0626870Y0298130D03*
X0636870Y0298130D03*
X0646870Y0298130D03*
X0586870Y0328130D03*
X0576870Y0328130D03*
X0566870Y0328130D03*
X0556870Y0328130D03*
X0556870Y0298130D03*
X0566870Y0298130D03*
X0576870Y0298130D03*
X0586870Y0298130D03*
X0466870Y0258130D03*
X0456870Y0258130D03*
X0446870Y0258130D03*
X0436870Y0258130D03*
X0436870Y0228130D03*
X0446870Y0228130D03*
X0456870Y0228130D03*
X0466870Y0228130D03*
X0586870Y0188130D03*
X0576870Y0188130D03*
X0566870Y0188130D03*
X0556870Y0188130D03*
X0556870Y0158130D03*
X0566870Y0158130D03*
X0576870Y0158130D03*
X0586870Y0158130D03*
X0466870Y0328130D03*
X0456870Y0328130D03*
X0446870Y0328130D03*
X0436870Y0328130D03*
X0436870Y0298130D03*
X0446870Y0298130D03*
X0456870Y0298130D03*
X0466870Y0298130D03*
X0646870Y0188130D03*
X0636870Y0188130D03*
X0626870Y0188130D03*
X0616870Y0188130D03*
X0616870Y0158130D03*
X0626870Y0158130D03*
X0636870Y0158130D03*
X0646870Y0158130D03*
X0646870Y0118130D03*
X0636870Y0118130D03*
X0626870Y0118130D03*
X0616870Y0118130D03*
X0616870Y0088130D03*
X0626870Y0088130D03*
X0636870Y0088130D03*
X0646870Y0088130D03*
X0706870Y0118130D03*
X0696870Y0118130D03*
X0686870Y0118130D03*
X0676870Y0118130D03*
X0676870Y0088130D03*
X0686870Y0088130D03*
X0696870Y0088130D03*
X0706870Y0088130D03*
X0646870Y0258130D03*
X0636870Y0258130D03*
X0626870Y0258130D03*
X0616870Y0258130D03*
X0616870Y0228130D03*
X0626870Y0228130D03*
X0636870Y0228130D03*
X0646870Y0228130D03*
X0526870Y0188130D03*
X0516870Y0188130D03*
X0506870Y0188130D03*
X0496870Y0188130D03*
X0496870Y0158130D03*
X0506870Y0158130D03*
X0516870Y0158130D03*
X0526870Y0158130D03*
X0706870Y0328130D03*
X0696870Y0328130D03*
X0686870Y0328130D03*
X0676870Y0328130D03*
X0676870Y0298130D03*
X0686870Y0298130D03*
X0696870Y0298130D03*
X0706870Y0298130D03*
X0526870Y0258130D03*
X0516870Y0258130D03*
X0506870Y0258130D03*
X0496870Y0258130D03*
X0496870Y0228130D03*
X0506870Y0228130D03*
X0516870Y0228130D03*
X0526870Y0228130D03*
X0706870Y0258130D03*
X0696870Y0258130D03*
X0686870Y0258130D03*
X0676870Y0258130D03*
X0676870Y0228130D03*
X0686870Y0228130D03*
X0696870Y0228130D03*
X0706870Y0228130D03*
X0526870Y0118130D03*
X0516870Y0118130D03*
X0506870Y0118130D03*
X0496870Y0118130D03*
X0496870Y0088130D03*
X0506870Y0088130D03*
X0516870Y0088130D03*
X0526870Y0088130D03*
X0706870Y0188130D03*
X0696870Y0188130D03*
X0686870Y0188130D03*
X0676870Y0188130D03*
X0676870Y0158130D03*
X0686870Y0158130D03*
X0696870Y0158130D03*
X0706870Y0158130D03*
X0586870Y0258130D03*
X0576870Y0258130D03*
X0566870Y0258130D03*
X0556870Y0258130D03*
X0556870Y0228130D03*
X0566870Y0228130D03*
X0576870Y0228130D03*
X0586870Y0228130D03*
X0466870Y0118130D03*
X0456870Y0118130D03*
X0446870Y0118130D03*
X0436870Y0118130D03*
X0436870Y0088130D03*
X0446870Y0088130D03*
X0456870Y0088130D03*
X0466870Y0088130D03*
D105*
X0605370Y0445130D03*
X0525370Y0445130D03*
D15*
X0585370Y0475130D03*
D71*
X0555370Y0435130D03*
X0575370Y0435130D03*
X0535370Y0435130D03*
X0595370Y0435130D03*
D15*
X0545370Y0475130D03*
D22*
X0490370Y0470130D03*
D97*
X0480370Y0480130D03*
X0500370Y0480130D03*
X0500370Y0460130D03*
X0480370Y0460130D03*
D22*
X0440370Y0470130D03*
D97*
X0430370Y0480130D03*
X0450370Y0480130D03*
X0450370Y0460130D03*
X0430370Y0460130D03*
D44*
X0501870Y0445130D03*
X0488870Y0445130D03*
X0699000Y0378000D03*
X0712000Y0378000D03*
D75*
X0660250Y0392500D03*
D53*
X0660250Y0402500D03*
X0670250Y0392500D03*
X0670250Y0402500D03*
X0680250Y0392500D03*
X0680250Y0402500D03*
D75*
X0540250Y0458000D03*
D53*
X0550250Y0458000D03*
X0560250Y0458000D03*
X0570250Y0458000D03*
X0580250Y0458000D03*
X0590250Y0458000D03*
D83*
X0485370Y0430130D03*
X0505370Y0430130D03*
D86*
X0604370Y0412380D03*
X0594370Y0412380D03*
X0584370Y0412380D03*
X0574370Y0412380D03*
X0564370Y0412380D03*
X0554370Y0412380D03*
X0544370Y0412380D03*
X0534370Y0412380D03*
X0524370Y0412380D03*
X0514370Y0412380D03*
X0504370Y0412380D03*
X0494370Y0412380D03*
X0484370Y0412380D03*
D18*
X0614370Y0412380D03*
D86*
X0484370Y0382380D03*
X0494370Y0382380D03*
X0504370Y0382380D03*
X0514370Y0382380D03*
X0524370Y0382380D03*
X0534370Y0382380D03*
X0544370Y0382380D03*
X0554370Y0382380D03*
X0564370Y0382380D03*
X0574370Y0382380D03*
X0584370Y0382380D03*
X0594370Y0382380D03*
X0604370Y0382380D03*
X0614370Y0382380D03*
D76*
X0436870Y0401510D03*
X0436870Y0380250D03*
D75*
X0619750Y0435500D03*
D53*
X0619750Y0425500D03*
D75*
X0700750Y0394000D03*
D53*
X0710750Y0394000D03*
D95*
X0672250Y0447000D03*
X0667250Y0447000D03*
X0662250Y0447000D03*
X0657250Y0447000D03*
X0652250Y0447000D03*
X0647250Y0447000D03*
X0642250Y0447000D03*
X0642250Y0426000D03*
X0647250Y0426000D03*
X0652250Y0426000D03*
X0657250Y0426000D03*
X0662250Y0426000D03*
X0667250Y0426000D03*
X0672250Y0426000D03*
D58*
X0632250Y0424000D03*
X0632250Y0437000D03*
D75*
X0700750Y0405500D03*
D53*
X0710750Y0405500D03*
D60*
X0708840Y0437500D03*
X0697660Y0437500D03*
X0708840Y0427500D03*
X0697660Y0427500D03*
D58*
X0513550Y0458100D03*
X0513550Y0445100D03*
X0542150Y0346700D03*
X0542150Y0333700D03*
X0464250Y0417000D03*
X0464250Y0430000D03*
D44*
X0449750Y0383500D03*
X0462750Y0383500D03*
X0717750Y0366500D03*
X0730750Y0366500D03*
D58*
X0662100Y0346600D03*
X0662100Y0333600D03*
D44*
X0449750Y0397000D03*
X0462750Y0397000D03*
D58*
X0601650Y0346700D03*
X0601650Y0333700D03*
X0482300Y0346850D03*
X0482300Y0333850D03*
D86*
X0643480Y0385070D03*
X0625760Y0385070D03*
X0643480Y0408690D03*
X0625760Y0408690D03*
D60*
X0708840Y0417500D03*
X0697660Y0417500D03*
X0708840Y0447500D03*
X0697660Y0447500D03*
X0116850Y0194000D02*
G01*
D104*
D53*
X0226850Y0456000D03*
X0226850Y0446000D03*
X0216850Y0446000D03*
X0216850Y0456000D03*
X0206850Y0456000D03*
X0206850Y0446000D03*
D135*
X0126850Y0269500D03*
X0126850Y0279500D03*
X0316850Y0305500D03*
X0316850Y0315500D03*
X0126850Y0465500D03*
X0126850Y0475500D03*
X0126850Y0485500D03*
X0126850Y0495500D03*
X0126850Y0505500D03*
X0126850Y0515500D03*
X0126850Y0525500D03*
X0126850Y0535500D03*
X0316850Y0555500D03*
X0316850Y0545500D03*
X0316850Y0535500D03*
X0316850Y0525500D03*
X0316850Y0485500D03*
X0316850Y0465500D03*
X0316850Y0455500D03*
X0316850Y0495500D03*
X0316850Y0505500D03*
X0316850Y0515500D03*
X0316850Y0445500D03*
X0316850Y0435500D03*
X0316850Y0425500D03*
X0316850Y0395500D03*
X0316850Y0405500D03*
X0316850Y0415500D03*
X0316850Y0375500D03*
X0316850Y0365500D03*
X0316850Y0355500D03*
X0316850Y0335500D03*
X0316850Y0325500D03*
X0126850Y0445500D03*
X0126850Y0435500D03*
X0126850Y0425500D03*
X0126850Y0415500D03*
X0126850Y0405500D03*
X0126850Y0395500D03*
X0126850Y0385500D03*
X0126850Y0375500D03*
X0126850Y0359500D03*
X0126850Y0349500D03*
X0126850Y0339500D03*
X0126850Y0329500D03*
X0126850Y0319500D03*
X0126850Y0309500D03*
X0126850Y0299500D03*
X0126850Y0289500D03*
X0316850Y0345500D03*
D96*
X0316850Y0575500D03*
X0126850Y0550500D03*
D53*
X0136850Y0565500D03*
X0136850Y0575500D03*
X0146850Y0565500D03*
X0146850Y0575500D03*
X0156850Y0565500D03*
X0156850Y0575500D03*
X0166850Y0565500D03*
X0166850Y0575500D03*
X0126850Y0565500D03*
X0126850Y0575500D03*
X0176850Y0575500D03*
X0176850Y0565500D03*
X0186850Y0565500D03*
X0186850Y0575500D03*
X0196850Y0565500D03*
X0196850Y0575500D03*
X0206850Y0565500D03*
X0206850Y0575500D03*
X0216850Y0565500D03*
X0216850Y0575500D03*
X0226850Y0565500D03*
X0226850Y0575500D03*
X0236850Y0565500D03*
X0236850Y0575500D03*
X0246850Y0565500D03*
X0246850Y0575500D03*
X0256850Y0565500D03*
X0256850Y0575500D03*
X0266850Y0565500D03*
X0266850Y0575500D03*
X0276850Y0565500D03*
X0276850Y0575500D03*
X0286850Y0565500D03*
X0286850Y0575500D03*
X0296850Y0565500D03*
X0296850Y0575500D03*
D99*
X0386410Y0326700D03*
D14*
X0336030Y0326700D03*
X0336030Y0343240D03*
X0336030Y0359760D03*
X0336030Y0376300D03*
X0357670Y0326700D03*
X0357670Y0343240D03*
X0357670Y0359760D03*
X0357670Y0376300D03*
D99*
X0386410Y0376300D03*
X0216050Y0207430D03*
D14*
X0216050Y0257820D03*
X0232590Y0257820D03*
X0249110Y0257820D03*
X0265650Y0257820D03*
X0216050Y0236180D03*
X0232590Y0236180D03*
X0249110Y0236180D03*
X0265650Y0236180D03*
D99*
X0265650Y0207430D03*
X0141050Y0207430D03*
D14*
X0141050Y0257820D03*
X0157590Y0257820D03*
X0174110Y0257820D03*
X0190650Y0257820D03*
X0141050Y0236180D03*
X0157590Y0236180D03*
X0174110Y0236180D03*
X0190650Y0236180D03*
D99*
X0190650Y0207430D03*
D75*
X0282850Y0467000D03*
D119*
X0342850Y0292200D03*
D58*
X0278700Y0504520D03*
X0278700Y0517520D03*
X0266700Y0504520D03*
X0266700Y0517520D03*
X0240100Y0505500D03*
X0240100Y0518500D03*
X0251600Y0505500D03*
X0251600Y0518500D03*
D47*
X0361350Y0408500D03*
X0361350Y0494500D03*
D75*
X0354350Y0471500D03*
D53*
X0364350Y0471500D03*
X0354350Y0461500D03*
X0364350Y0461500D03*
X0354350Y0451500D03*
X0364350Y0451500D03*
X0354350Y0441500D03*
X0364350Y0441500D03*
X0354350Y0431500D03*
X0364350Y0431500D03*
D44*
X0152850Y0339000D03*
X0165850Y0339000D03*
D58*
X0274350Y0347500D03*
X0274350Y0334500D03*
X0264350Y0334500D03*
X0264350Y0347500D03*
D44*
X0152850Y0349000D03*
X0165850Y0349000D03*
D58*
X0294350Y0334500D03*
X0294350Y0347500D03*
X0284350Y0334500D03*
X0284350Y0347500D03*
D44*
X0152850Y0359000D03*
X0165850Y0359000D03*
D58*
X0241850Y0334500D03*
X0241850Y0347500D03*
X0208350Y0398500D03*
X0208350Y0411500D03*
X0221850Y0334500D03*
X0221850Y0347500D03*
D44*
X0152850Y0319000D03*
X0165850Y0319000D03*
D58*
X0199350Y0334500D03*
X0199350Y0347500D03*
D44*
X0332600Y0276750D03*
X0345600Y0276750D03*
D134*
X0208350Y0420160D03*
X0208350Y0431340D03*
D58*
X0309350Y0267500D03*
X0309350Y0280500D03*
D45*
X0353850Y0224000D03*
X0393850Y0224000D03*
D53*
X0383850Y0244000D03*
X0373850Y0244000D03*
D45*
X0289850Y0224000D03*
X0329850Y0224000D03*
D53*
X0319850Y0244000D03*
X0309850Y0244000D03*
D134*
X0197350Y0420160D03*
X0197350Y0431340D03*
D93*
X0161030Y0379600D03*
X0161030Y0396130D03*
X0161030Y0412670D03*
X0161030Y0429200D03*
X0161030Y0445740D03*
X0161030Y0462260D03*
X0161030Y0478800D03*
X0161030Y0495330D03*
X0161030Y0511870D03*
X0161030Y0528400D03*
X0182670Y0379600D03*
X0182670Y0396130D03*
X0182670Y0412670D03*
X0182670Y0429200D03*
X0182670Y0445740D03*
X0182670Y0462260D03*
X0182670Y0478800D03*
X0182670Y0495330D03*
X0182670Y0511870D03*
X0182670Y0528400D03*
D123*
X0180910Y0361090D03*
X0180910Y0546910D03*
D22*
X0375850Y0281500D03*
D97*
X0365850Y0271500D03*
X0365850Y0291500D03*
X0385850Y0291500D03*
X0385850Y0271500D03*
D58*
X0197350Y0398500D03*
X0197350Y0411500D03*
D133*
X0247850Y0358500D03*
X0247850Y0363500D03*
X0247850Y0368500D03*
X0247850Y0373500D03*
X0247850Y0378500D03*
X0247850Y0383500D03*
X0247850Y0388500D03*
X0226850Y0388500D03*
X0226850Y0383500D03*
X0226850Y0378500D03*
X0226850Y0373500D03*
X0226850Y0368500D03*
X0226850Y0363500D03*
X0226850Y0358500D03*
D44*
X0179350Y0293500D03*
X0189350Y0293500D03*
X0199350Y0293500D03*
X0209350Y0293500D03*
X0209350Y0323500D03*
X0199350Y0323500D03*
X0189350Y0323500D03*
X0179350Y0323500D03*
X0221850Y0293500D03*
X0231850Y0293500D03*
X0241850Y0293500D03*
X0251850Y0293500D03*
X0251850Y0323500D03*
X0241850Y0323500D03*
X0231850Y0323500D03*
X0221850Y0323500D03*
X0264350Y0293500D03*
X0274350Y0293500D03*
X0284350Y0293500D03*
X0294350Y0293500D03*
X0294350Y0323500D03*
X0284350Y0323500D03*
X0274350Y0323500D03*
X0264350Y0323500D03*
X0152850Y0329000D03*
X0165850Y0329000D03*
D58*
X0215100Y0386300D03*
X0215100Y0373300D03*
X0204650Y0373300D03*
X0204650Y0386300D03*
X0251850Y0347500D03*
X0251850Y0334500D03*
D44*
X0152850Y0309000D03*
X0165850Y0309000D03*
D58*
X0179350Y0334500D03*
X0179350Y0347500D03*
D44*
X0323350Y0296500D03*
X0310350Y0296500D03*
D58*
X0267050Y0369150D03*
X0267050Y0356150D03*
D44*
X0218950Y0362800D03*
X0205950Y0362800D03*
D58*
X0226820Y0545620D03*
X0226820Y0532620D03*
X0226820Y0510970D03*
X0226820Y0523970D03*
D44*
X0227100Y0501500D03*
X0214100Y0501500D03*
D133*
X0215770Y0515460D03*
X0215770Y0520460D03*
X0215770Y0525460D03*
X0215770Y0530460D03*
X0215770Y0535460D03*
X0215770Y0540460D03*
X0215770Y0545460D03*
X0194770Y0545460D03*
X0194770Y0540460D03*
X0194770Y0535460D03*
X0194770Y0530460D03*
X0194770Y0525460D03*
X0194770Y0520460D03*
X0194770Y0515460D03*
X0247600Y0398250D03*
X0247600Y0403250D03*
X0247600Y0408250D03*
X0247600Y0413250D03*
X0247600Y0418250D03*
X0247600Y0423250D03*
X0247600Y0428250D03*
X0226600Y0428250D03*
X0226600Y0423250D03*
X0226600Y0418250D03*
X0226600Y0413250D03*
X0226600Y0408250D03*
X0226600Y0403250D03*
X0226600Y0398250D03*
D58*
X0144100Y0454750D03*
X0144100Y0441750D03*
D29*
X0269120Y0533300D03*
X0277780Y0537050D03*
X0277780Y0529550D03*
X0242420Y0540700D03*
X0251080Y0544450D03*
X0251080Y0536950D03*
D42*
X0200600Y0486030D03*
X0204350Y0477370D03*
X0196850Y0477370D03*
D75*
X0285850Y0396750D03*
D53*
X0275850Y0396750D03*
X0265850Y0396750D03*
D75*
X0261850Y0479000D03*
D53*
X0251850Y0479000D03*
X0241850Y0479000D03*
D75*
X0285850Y0411000D03*
D53*
X0275850Y0411000D03*
X0265850Y0411000D03*
D75*
X0261850Y0493000D03*
D53*
X0251850Y0493000D03*
X0241850Y0493000D03*
D75*
X0261850Y0465000D03*
D53*
X0251850Y0465000D03*
X0241850Y0465000D03*
D75*
X0282850Y0457000D03*
D44*
X0339900Y0583300D03*
X0352900Y0583300D03*
X0365550Y0519600D03*
X0352550Y0519600D03*
X0330750Y0519600D03*
X0343750Y0519600D03*
D75*
X0376850Y0531000D03*
D53*
X0386850Y0531000D03*
X0396850Y0531000D03*
D75*
X0376850Y0547000D03*
D53*
X0386850Y0547000D03*
X0396850Y0547000D03*
D75*
X0376850Y0577000D03*
D53*
X0386850Y0577000D03*
X0396850Y0577000D03*
D75*
X0376850Y0562000D03*
D53*
X0386850Y0562000D03*
X0396850Y0562000D03*
D138*
X0330450Y0573900D03*
X0330450Y0568900D03*
X0330450Y0563900D03*
X0330450Y0558900D03*
X0330450Y0553900D03*
X0330450Y0548900D03*
X0330450Y0543900D03*
X0330450Y0538900D03*
X0330450Y0533900D03*
X0330450Y0528900D03*
X0368450Y0528900D03*
X0368450Y0533900D03*
X0368450Y0538900D03*
X0368450Y0543900D03*
X0368450Y0548900D03*
X0368450Y0553900D03*
X0368450Y0558900D03*
X0368450Y0563900D03*
X0368450Y0568900D03*
X0368450Y0573900D03*
D119*
X0151350Y0292200D03*
D58*
X0328550Y0504200D03*
X0328550Y0491200D03*
X0256600Y0364550D03*
X0256600Y0377550D03*
X0194150Y0378400D03*
X0194150Y0365400D03*
X0218350Y0398550D03*
X0218350Y0411550D03*
X0195650Y0506900D03*
X0195650Y0493900D03*
X0411250Y0497500D02*
G01*
D104*
D53*
X0521250Y0759500D03*
X0521250Y0749500D03*
X0511250Y0749500D03*
X0511250Y0759500D03*
X0501250Y0759500D03*
X0501250Y0749500D03*
D135*
X0421250Y0573000D03*
X0421250Y0583000D03*
X0611250Y0609000D03*
X0611250Y0619000D03*
X0421250Y0769000D03*
X0421250Y0779000D03*
X0421250Y0789000D03*
X0421250Y0799000D03*
X0421250Y0809000D03*
X0421250Y0819000D03*
X0421250Y0829000D03*
X0421250Y0839000D03*
X0611250Y0859000D03*
X0611250Y0849000D03*
X0611250Y0839000D03*
X0611250Y0829000D03*
X0611250Y0789000D03*
X0611250Y0769000D03*
X0611250Y0759000D03*
X0611250Y0799000D03*
X0611250Y0809000D03*
X0611250Y0819000D03*
X0611250Y0749000D03*
X0611250Y0739000D03*
X0611250Y0729000D03*
X0611250Y0699000D03*
X0611250Y0709000D03*
X0611250Y0719000D03*
X0611250Y0679000D03*
X0611250Y0669000D03*
X0611250Y0659000D03*
X0611250Y0639000D03*
X0611250Y0629000D03*
X0421250Y0749000D03*
X0421250Y0739000D03*
X0421250Y0729000D03*
X0421250Y0719000D03*
X0421250Y0709000D03*
X0421250Y0699000D03*
X0421250Y0689000D03*
X0421250Y0679000D03*
X0421250Y0663000D03*
X0421250Y0653000D03*
X0421250Y0643000D03*
X0421250Y0633000D03*
X0421250Y0623000D03*
X0421250Y0613000D03*
X0421250Y0603000D03*
X0421250Y0593000D03*
X0611250Y0649000D03*
D96*
X0611250Y0879000D03*
X0421250Y0854000D03*
D53*
X0431250Y0869000D03*
X0431250Y0879000D03*
X0441250Y0869000D03*
X0441250Y0879000D03*
X0451250Y0869000D03*
X0451250Y0879000D03*
X0461250Y0869000D03*
X0461250Y0879000D03*
X0421250Y0869000D03*
X0421250Y0879000D03*
X0471250Y0879000D03*
X0471250Y0869000D03*
X0481250Y0869000D03*
X0481250Y0879000D03*
X0491250Y0869000D03*
X0491250Y0879000D03*
X0501250Y0869000D03*
X0501250Y0879000D03*
X0511250Y0869000D03*
X0511250Y0879000D03*
X0521250Y0869000D03*
X0521250Y0879000D03*
X0531250Y0869000D03*
X0531250Y0879000D03*
X0541250Y0869000D03*
X0541250Y0879000D03*
X0551250Y0869000D03*
X0551250Y0879000D03*
X0561250Y0869000D03*
X0561250Y0879000D03*
X0571250Y0869000D03*
X0571250Y0879000D03*
X0581250Y0869000D03*
X0581250Y0879000D03*
X0591250Y0869000D03*
X0591250Y0879000D03*
D99*
X0680810Y0630200D03*
D14*
X0630430Y0630200D03*
X0630430Y0646740D03*
X0630430Y0663260D03*
X0630430Y0679800D03*
X0652070Y0630200D03*
X0652070Y0646740D03*
X0652070Y0663260D03*
X0652070Y0679800D03*
D99*
X0680810Y0679800D03*
X0510450Y0510930D03*
D14*
X0510450Y0561320D03*
X0526990Y0561320D03*
X0543510Y0561320D03*
X0560050Y0561320D03*
X0510450Y0539680D03*
X0526990Y0539680D03*
X0543510Y0539680D03*
X0560050Y0539680D03*
D99*
X0560050Y0510930D03*
X0435450Y0510930D03*
D14*
X0435450Y0561320D03*
X0451990Y0561320D03*
X0468510Y0561320D03*
X0485050Y0561320D03*
X0435450Y0539680D03*
X0451990Y0539680D03*
X0468510Y0539680D03*
X0485050Y0539680D03*
D99*
X0485050Y0510930D03*
D75*
X0577250Y0770500D03*
D119*
X0637250Y0595700D03*
D58*
X0573100Y0808020D03*
X0573100Y0821020D03*
X0561100Y0808020D03*
X0561100Y0821020D03*
X0534500Y0809000D03*
X0534500Y0822000D03*
X0546000Y0809000D03*
X0546000Y0822000D03*
D47*
X0655750Y0712000D03*
X0655750Y0798000D03*
D75*
X0648750Y0775000D03*
D53*
X0658750Y0775000D03*
X0648750Y0765000D03*
X0658750Y0765000D03*
X0648750Y0755000D03*
X0658750Y0755000D03*
X0648750Y0745000D03*
X0658750Y0745000D03*
X0648750Y0735000D03*
X0658750Y0735000D03*
D44*
X0447250Y0642500D03*
X0460250Y0642500D03*
D58*
X0568750Y0651000D03*
X0568750Y0638000D03*
X0558750Y0638000D03*
X0558750Y0651000D03*
D44*
X0447250Y0652500D03*
X0460250Y0652500D03*
D58*
X0588750Y0638000D03*
X0588750Y0651000D03*
X0578750Y0638000D03*
X0578750Y0651000D03*
D44*
X0447250Y0662500D03*
X0460250Y0662500D03*
D58*
X0536250Y0638000D03*
X0536250Y0651000D03*
X0502750Y0702000D03*
X0502750Y0715000D03*
X0516250Y0638000D03*
X0516250Y0651000D03*
D44*
X0447250Y0622500D03*
X0460250Y0622500D03*
D58*
X0493750Y0638000D03*
X0493750Y0651000D03*
D44*
X0627000Y0580250D03*
X0640000Y0580250D03*
D134*
X0502750Y0723660D03*
X0502750Y0734840D03*
D58*
X0603750Y0571000D03*
X0603750Y0584000D03*
D45*
X0648250Y0527500D03*
X0688250Y0527500D03*
D53*
X0678250Y0547500D03*
X0668250Y0547500D03*
D45*
X0584250Y0527500D03*
X0624250Y0527500D03*
D53*
X0614250Y0547500D03*
X0604250Y0547500D03*
D134*
X0491750Y0723660D03*
X0491750Y0734840D03*
D93*
X0455430Y0683100D03*
X0455430Y0699630D03*
X0455430Y0716170D03*
X0455430Y0732700D03*
X0455430Y0749240D03*
X0455430Y0765760D03*
X0455430Y0782300D03*
X0455430Y0798830D03*
X0455430Y0815370D03*
X0455430Y0831900D03*
X0477070Y0683100D03*
X0477070Y0699630D03*
X0477070Y0716170D03*
X0477070Y0732700D03*
X0477070Y0749240D03*
X0477070Y0765760D03*
X0477070Y0782300D03*
X0477070Y0798830D03*
X0477070Y0815370D03*
X0477070Y0831900D03*
D123*
X0475310Y0664590D03*
X0475310Y0850410D03*
D22*
X0670250Y0585000D03*
D97*
X0660250Y0575000D03*
X0660250Y0595000D03*
X0680250Y0595000D03*
X0680250Y0575000D03*
D58*
X0491750Y0702000D03*
X0491750Y0715000D03*
D133*
X0542250Y0662000D03*
X0542250Y0667000D03*
X0542250Y0672000D03*
X0542250Y0677000D03*
X0542250Y0682000D03*
X0542250Y0687000D03*
X0542250Y0692000D03*
X0521250Y0692000D03*
X0521250Y0687000D03*
X0521250Y0682000D03*
X0521250Y0677000D03*
X0521250Y0672000D03*
X0521250Y0667000D03*
X0521250Y0662000D03*
D44*
X0473750Y0597000D03*
X0483750Y0597000D03*
X0493750Y0597000D03*
X0503750Y0597000D03*
X0503750Y0627000D03*
X0493750Y0627000D03*
X0483750Y0627000D03*
X0473750Y0627000D03*
X0516250Y0597000D03*
X0526250Y0597000D03*
X0536250Y0597000D03*
X0546250Y0597000D03*
X0546250Y0627000D03*
X0536250Y0627000D03*
X0526250Y0627000D03*
X0516250Y0627000D03*
X0558750Y0597000D03*
X0568750Y0597000D03*
X0578750Y0597000D03*
X0588750Y0597000D03*
X0588750Y0627000D03*
X0578750Y0627000D03*
X0568750Y0627000D03*
X0558750Y0627000D03*
X0447250Y0632500D03*
X0460250Y0632500D03*
D58*
X0509500Y0689800D03*
X0509500Y0676800D03*
X0499050Y0676800D03*
X0499050Y0689800D03*
X0546250Y0651000D03*
X0546250Y0638000D03*
D44*
X0447250Y0612500D03*
X0460250Y0612500D03*
D58*
X0473750Y0638000D03*
X0473750Y0651000D03*
D44*
X0617750Y0600000D03*
X0604750Y0600000D03*
D58*
X0561450Y0672650D03*
X0561450Y0659650D03*
D44*
X0513350Y0666300D03*
X0500350Y0666300D03*
D58*
X0521220Y0849120D03*
X0521220Y0836120D03*
X0521220Y0814470D03*
X0521220Y0827470D03*
D44*
X0521500Y0805000D03*
X0508500Y0805000D03*
D133*
X0510170Y0818960D03*
X0510170Y0823960D03*
X0510170Y0828960D03*
X0510170Y0833960D03*
X0510170Y0838960D03*
X0510170Y0843960D03*
X0510170Y0848960D03*
X0489170Y0848960D03*
X0489170Y0843960D03*
X0489170Y0838960D03*
X0489170Y0833960D03*
X0489170Y0828960D03*
X0489170Y0823960D03*
X0489170Y0818960D03*
X0542000Y0701750D03*
X0542000Y0706750D03*
X0542000Y0711750D03*
X0542000Y0716750D03*
X0542000Y0721750D03*
X0542000Y0726750D03*
X0542000Y0731750D03*
X0521000Y0731750D03*
X0521000Y0726750D03*
X0521000Y0721750D03*
X0521000Y0716750D03*
X0521000Y0711750D03*
X0521000Y0706750D03*
X0521000Y0701750D03*
D58*
X0438500Y0758250D03*
X0438500Y0745250D03*
D29*
X0563520Y0836800D03*
X0572180Y0840550D03*
X0572180Y0833050D03*
X0536820Y0844200D03*
X0545480Y0847950D03*
X0545480Y0840450D03*
D42*
X0495000Y0789530D03*
X0498750Y0780870D03*
X0491250Y0780870D03*
D75*
X0580250Y0700250D03*
D53*
X0570250Y0700250D03*
X0560250Y0700250D03*
D75*
X0556250Y0782500D03*
D53*
X0546250Y0782500D03*
X0536250Y0782500D03*
D75*
X0580250Y0714500D03*
D53*
X0570250Y0714500D03*
X0560250Y0714500D03*
D75*
X0556250Y0796500D03*
D53*
X0546250Y0796500D03*
X0536250Y0796500D03*
D75*
X0556250Y0768500D03*
D53*
X0546250Y0768500D03*
X0536250Y0768500D03*
D75*
X0577250Y0760500D03*
D44*
X0634300Y0886800D03*
X0647300Y0886800D03*
X0659950Y0823100D03*
X0646950Y0823100D03*
X0625150Y0823100D03*
X0638150Y0823100D03*
D75*
X0671250Y0834500D03*
D53*
X0681250Y0834500D03*
X0691250Y0834500D03*
D75*
X0671250Y0850500D03*
D53*
X0681250Y0850500D03*
X0691250Y0850500D03*
D75*
X0671250Y0880500D03*
D53*
X0681250Y0880500D03*
X0691250Y0880500D03*
D75*
X0671250Y0865500D03*
D53*
X0681250Y0865500D03*
X0691250Y0865500D03*
D138*
X0624850Y0877400D03*
X0624850Y0872400D03*
X0624850Y0867400D03*
X0624850Y0862400D03*
X0624850Y0857400D03*
X0624850Y0852400D03*
X0624850Y0847400D03*
X0624850Y0842400D03*
X0624850Y0837400D03*
X0624850Y0832400D03*
X0662850Y0832400D03*
X0662850Y0837400D03*
X0662850Y0842400D03*
X0662850Y0847400D03*
X0662850Y0852400D03*
X0662850Y0857400D03*
X0662850Y0862400D03*
X0662850Y0867400D03*
X0662850Y0872400D03*
X0662850Y0877400D03*
D119*
X0445750Y0595700D03*
D58*
X0622950Y0807700D03*
X0622950Y0794700D03*
X0551000Y0668050D03*
X0551000Y0681050D03*
X0488550Y0681900D03*
X0488550Y0668900D03*
X0512750Y0702050D03*
X0512750Y0715050D03*
X0490050Y0810400D03*
X0490050Y0797400D03*
X0206250Y0599000D02*
G01*
D104*
D11*
X0249500Y0641000D03*
X0357000Y0641000D03*
D13*
X0260750Y0638500D03*
X0255750Y0638500D03*
X0255750Y0643500D03*
X0260750Y0643500D03*
X0275750Y0643500D03*
X0280750Y0643500D03*
X0270750Y0643500D03*
X0265750Y0643500D03*
X0265750Y0638500D03*
X0270750Y0638500D03*
X0280750Y0638500D03*
X0275750Y0638500D03*
X0330750Y0643500D03*
X0335750Y0643500D03*
X0345750Y0643500D03*
X0340750Y0643500D03*
X0340750Y0638500D03*
X0345750Y0638500D03*
X0335750Y0638500D03*
X0330750Y0638500D03*
X0350750Y0638500D03*
X0350750Y0643500D03*
X0325750Y0643500D03*
X0325750Y0638500D03*
X0295750Y0638500D03*
X0300750Y0638500D03*
X0290750Y0638500D03*
X0285750Y0638500D03*
X0305750Y0638500D03*
X0310750Y0638500D03*
X0320750Y0638500D03*
X0315750Y0638500D03*
X0315750Y0643500D03*
X0320750Y0643500D03*
X0310750Y0643500D03*
X0305750Y0643500D03*
X0285750Y0643500D03*
X0290750Y0643500D03*
X0300750Y0643500D03*
X0295750Y0643500D03*
D111*
X0387750Y0643500D03*
D58*
X0279750Y0672500D03*
X0279750Y0685500D03*
X0346250Y0672500D03*
X0346250Y0685500D03*
X0345750Y0617000D03*
X0345750Y0604000D03*
X0336750Y0672500D03*
X0336750Y0685500D03*
X0336250Y0617000D03*
X0336250Y0604000D03*
X0327250Y0672500D03*
X0327250Y0685500D03*
X0326750Y0617000D03*
X0326750Y0604000D03*
X0317750Y0672500D03*
X0317750Y0685500D03*
X0317250Y0617000D03*
X0317250Y0604000D03*
X0308250Y0672500D03*
X0308250Y0685500D03*
X0307750Y0617000D03*
X0307750Y0604000D03*
X0298750Y0672500D03*
X0298750Y0685500D03*
X0298250Y0617000D03*
X0298250Y0604000D03*
X0289250Y0672500D03*
X0289250Y0685500D03*
X0288750Y0617000D03*
X0288750Y0604000D03*
X0355250Y0617000D03*
X0355250Y0604000D03*
X0279250Y0617000D03*
X0279250Y0604000D03*
X0270250Y0672500D03*
X0270250Y0685500D03*
X0269750Y0617000D03*
X0269750Y0604000D03*
X0260750Y0672500D03*
X0260750Y0685500D03*
X0260250Y0617000D03*
X0260250Y0604000D03*
X0251250Y0672500D03*
X0251250Y0685500D03*
X0250750Y0617000D03*
X0250750Y0604000D03*
X0241750Y0672500D03*
X0241750Y0685500D03*
X0241250Y0617000D03*
X0241250Y0604000D03*
X0232250Y0672500D03*
X0232250Y0685500D03*
X0231750Y0617000D03*
X0231750Y0604000D03*
X0222750Y0672500D03*
X0222750Y0685500D03*
X0222250Y0617000D03*
X0222250Y0604000D03*
X0213250Y0672500D03*
X0213250Y0685500D03*
X0212750Y0617000D03*
X0212750Y0604000D03*
X0393750Y0672500D03*
X0393750Y0685500D03*
X0393250Y0617000D03*
X0393250Y0604000D03*
X0384250Y0672500D03*
X0384250Y0685500D03*
X0383750Y0617000D03*
X0383750Y0604000D03*
X0374750Y0672500D03*
X0374750Y0685500D03*
X0374250Y0617000D03*
X0374250Y0604000D03*
X0365250Y0672500D03*
X0365250Y0685500D03*
X0364750Y0617000D03*
X0364750Y0604000D03*
X0355750Y0672500D03*
X0355750Y0685500D03*
X0013750Y0699000D02*
G01*
D102*
D119*
X0068750Y0734000D03*
X0348750Y0734000D03*
X0068750Y0949000D03*
X0348750Y0949000D03*
D11*
X0041250Y0817750D03*
X0041250Y0925250D03*
D13*
X0043750Y0829000D03*
X0043750Y0824000D03*
X0038750Y0824000D03*
X0038750Y0829000D03*
X0038750Y0844000D03*
X0038750Y0849000D03*
X0038750Y0839000D03*
X0038750Y0834000D03*
X0043750Y0834000D03*
X0043750Y0839000D03*
X0043750Y0849000D03*
X0043750Y0844000D03*
X0038750Y0899000D03*
X0038750Y0904000D03*
X0038750Y0914000D03*
X0038750Y0909000D03*
X0043750Y0909000D03*
X0043750Y0914000D03*
X0043750Y0904000D03*
X0043750Y0899000D03*
X0043750Y0919000D03*
X0038750Y0919000D03*
X0038750Y0894000D03*
X0043750Y0894000D03*
X0043750Y0864000D03*
X0043750Y0869000D03*
X0043750Y0859000D03*
X0043750Y0854000D03*
X0043750Y0874000D03*
X0043750Y0879000D03*
X0043750Y0889000D03*
X0043750Y0884000D03*
X0038750Y0884000D03*
X0038750Y0889000D03*
X0038750Y0879000D03*
X0038750Y0874000D03*
X0038750Y0854000D03*
X0038750Y0859000D03*
X0038750Y0869000D03*
X0038750Y0864000D03*
D11*
X0376250Y0925250D03*
X0376250Y0817750D03*
D13*
X0373750Y0914000D03*
X0373750Y0919000D03*
X0378750Y0919000D03*
X0378750Y0914000D03*
X0378750Y0899000D03*
X0378750Y0894000D03*
X0378750Y0904000D03*
X0378750Y0909000D03*
X0373750Y0909000D03*
X0373750Y0904000D03*
X0373750Y0894000D03*
X0373750Y0899000D03*
X0378750Y0844000D03*
X0378750Y0839000D03*
X0378750Y0829000D03*
X0378750Y0834000D03*
X0373750Y0834000D03*
X0373750Y0829000D03*
X0373750Y0839000D03*
X0373750Y0844000D03*
X0373750Y0824000D03*
X0378750Y0824000D03*
X0378750Y0849000D03*
X0373750Y0849000D03*
X0373750Y0879000D03*
X0373750Y0874000D03*
X0373750Y0884000D03*
X0373750Y0889000D03*
X0373750Y0869000D03*
X0373750Y0864000D03*
X0373750Y0854000D03*
X0373750Y0859000D03*
X0378750Y0859000D03*
X0378750Y0854000D03*
X0378750Y0864000D03*
X0378750Y0869000D03*
X0378750Y0889000D03*
X0378750Y0884000D03*
X0378750Y0874000D03*
X0378750Y0879000D03*
D11*
X0262500Y0729000D03*
X0155000Y0729000D03*
D13*
X0251250Y0731500D03*
X0256250Y0731500D03*
X0256250Y0726500D03*
X0251250Y0726500D03*
X0236250Y0726500D03*
X0231250Y0726500D03*
X0241250Y0726500D03*
X0246250Y0726500D03*
X0246250Y0731500D03*
X0241250Y0731500D03*
X0231250Y0731500D03*
X0236250Y0731500D03*
X0181250Y0726500D03*
X0176250Y0726500D03*
X0166250Y0726500D03*
X0171250Y0726500D03*
X0171250Y0731500D03*
X0166250Y0731500D03*
X0176250Y0731500D03*
X0181250Y0731500D03*
X0161250Y0731500D03*
X0161250Y0726500D03*
X0186250Y0726500D03*
X0186250Y0731500D03*
X0216250Y0731500D03*
X0211250Y0731500D03*
X0221250Y0731500D03*
X0226250Y0731500D03*
X0206250Y0731500D03*
X0201250Y0731500D03*
X0191250Y0731500D03*
X0196250Y0731500D03*
X0196250Y0726500D03*
X0191250Y0726500D03*
X0201250Y0726500D03*
X0206250Y0726500D03*
X0226250Y0726500D03*
X0221250Y0726500D03*
X0211250Y0726500D03*
X0216250Y0726500D03*
D53*
X0318750Y0919000D03*
X0328750Y0919000D03*
X0338750Y0919000D03*
X0348750Y0919000D03*
X0318750Y0909000D03*
X0328750Y0909000D03*
X0338750Y0909000D03*
X0348750Y0909000D03*
X0318750Y0899000D03*
X0328750Y0899000D03*
X0338750Y0899000D03*
X0348750Y0899000D03*
X0318750Y0889000D03*
X0328750Y0889000D03*
X0338750Y0889000D03*
X0348750Y0889000D03*
X0318750Y0879000D03*
X0328750Y0879000D03*
X0338750Y0879000D03*
X0348750Y0879000D03*
X0318750Y0869000D03*
X0328750Y0869000D03*
X0338750Y0869000D03*
X0348750Y0869000D03*
X0318750Y0859000D03*
X0328750Y0859000D03*
X0338750Y0859000D03*
X0348750Y0859000D03*
X0318750Y0849000D03*
X0328750Y0849000D03*
X0338750Y0849000D03*
X0348750Y0849000D03*
X0318750Y0839000D03*
X0328750Y0839000D03*
X0338750Y0839000D03*
X0348750Y0839000D03*
X0318750Y0829000D03*
X0328750Y0829000D03*
X0338750Y0829000D03*
X0348750Y0829000D03*
X0318750Y0819000D03*
X0328750Y0819000D03*
X0338750Y0819000D03*
X0348750Y0819000D03*
X0318750Y0809000D03*
X0328750Y0809000D03*
X0338750Y0809000D03*
X0348750Y0809000D03*
X0318750Y0799000D03*
X0328750Y0799000D03*
X0338750Y0799000D03*
X0348750Y0799000D03*
X0318750Y0789000D03*
X0328750Y0789000D03*
X0338750Y0789000D03*
X0348750Y0789000D03*
X0318750Y0779000D03*
X0328750Y0779000D03*
X0338750Y0779000D03*
X0348750Y0779000D03*
X0068750Y0779000D03*
X0078750Y0779000D03*
X0088750Y0779000D03*
X0098750Y0779000D03*
X0068750Y0789000D03*
X0078750Y0789000D03*
X0088750Y0789000D03*
X0098750Y0789000D03*
X0068750Y0799000D03*
X0078750Y0799000D03*
X0088750Y0799000D03*
X0098750Y0799000D03*
X0068750Y0809000D03*
X0078750Y0809000D03*
X0088750Y0809000D03*
X0098750Y0809000D03*
X0068750Y0819000D03*
X0078750Y0819000D03*
X0088750Y0819000D03*
X0098750Y0819000D03*
X0068750Y0829000D03*
X0078750Y0829000D03*
X0088750Y0829000D03*
X0098750Y0829000D03*
X0068750Y0839000D03*
X0078750Y0839000D03*
X0088750Y0839000D03*
X0098750Y0839000D03*
X0068750Y0849000D03*
X0078750Y0849000D03*
X0088750Y0849000D03*
X0098750Y0849000D03*
X0068750Y0859000D03*
X0078750Y0859000D03*
X0088750Y0859000D03*
X0098750Y0859000D03*
X0068750Y0869000D03*
X0078750Y0869000D03*
X0088750Y0869000D03*
X0098750Y0869000D03*
X0068750Y0879000D03*
X0078750Y0879000D03*
X0088750Y0879000D03*
X0098750Y0879000D03*
X0068750Y0889000D03*
X0078750Y0889000D03*
X0088750Y0889000D03*
X0098750Y0889000D03*
X0068750Y0899000D03*
X0078750Y0899000D03*
X0088750Y0899000D03*
X0098750Y0899000D03*
X0068750Y0909000D03*
X0078750Y0909000D03*
X0088750Y0909000D03*
X0098750Y0909000D03*
X0068750Y0919000D03*
X0078750Y0919000D03*
X0088750Y0919000D03*
X0098750Y0919000D03*
X0705650Y0497500D02*
G01*
D104*
D119*
X0720650Y0917500D03*
X0720650Y0512500D03*
X1020650Y0512500D03*
X1020650Y0917500D03*
D11*
X0919520Y0516630D03*
X0812020Y0516630D03*
D13*
X0908270Y0519130D03*
X0913270Y0519130D03*
X0913270Y0514130D03*
X0908270Y0514130D03*
X0893270Y0514130D03*
X0888270Y0514130D03*
X0898270Y0514130D03*
X0903270Y0514130D03*
X0903270Y0519130D03*
X0898270Y0519130D03*
X0888270Y0519130D03*
X0893270Y0519130D03*
X0838270Y0514130D03*
X0833270Y0514130D03*
X0823270Y0514130D03*
X0828270Y0514130D03*
X0828270Y0519130D03*
X0823270Y0519130D03*
X0833270Y0519130D03*
X0838270Y0519130D03*
X0818270Y0519130D03*
X0818270Y0514130D03*
X0843270Y0514130D03*
X0843270Y0519130D03*
X0873270Y0519130D03*
X0868270Y0519130D03*
X0878270Y0519130D03*
X0883270Y0519130D03*
X0863270Y0519130D03*
X0858270Y0519130D03*
X0848270Y0519130D03*
X0853270Y0519130D03*
X0853270Y0514130D03*
X0848270Y0514130D03*
X0858270Y0514130D03*
X0863270Y0514130D03*
X0883270Y0514130D03*
X0878270Y0514130D03*
X0868270Y0514130D03*
X0873270Y0514130D03*
D47*
X1012770Y0954630D03*
X0926770Y0954630D03*
D75*
X0949770Y0947630D03*
D53*
X0949770Y0957630D03*
X0959770Y0947630D03*
X0959770Y0957630D03*
X0969770Y0947630D03*
X0969770Y0957630D03*
X0979770Y0947630D03*
X0979770Y0957630D03*
X0989770Y0947630D03*
X0989770Y0957630D03*
D58*
X0746270Y0842130D03*
X0746270Y0829130D03*
X0761270Y0759130D03*
X0761270Y0772130D03*
X0746270Y0632130D03*
X0746270Y0619130D03*
X0731270Y0632130D03*
X0731270Y0619130D03*
X0821270Y0759130D03*
X0821270Y0772130D03*
X0821270Y0689130D03*
X0821270Y0702130D03*
X0791270Y0632130D03*
X0791270Y0619130D03*
X0731270Y0772130D03*
X0731270Y0759130D03*
X0761270Y0619130D03*
X0761270Y0632130D03*
X0761270Y0689130D03*
X0761270Y0702130D03*
X0731270Y0842130D03*
X0731270Y0829130D03*
X0986270Y0702130D03*
X0986270Y0689130D03*
X0986270Y0772130D03*
X0986270Y0759130D03*
X0731270Y0702130D03*
X0731270Y0689130D03*
X0746270Y0772130D03*
X0746270Y0759130D03*
X0746270Y0702130D03*
X0746270Y0689130D03*
X0806270Y0702130D03*
X0806270Y0689130D03*
X0866270Y0702130D03*
X0866270Y0689130D03*
X0866270Y0772130D03*
X0866270Y0759130D03*
X0926270Y0772130D03*
X0926270Y0759130D03*
X0926270Y0702130D03*
X0926270Y0689130D03*
X0806270Y0772130D03*
X0806270Y0759130D03*
X0866270Y0842130D03*
X0866270Y0829130D03*
X0851270Y0632130D03*
X0851270Y0619130D03*
X0941270Y0689130D03*
X0941270Y0702130D03*
X0941270Y0759130D03*
X0941270Y0772130D03*
X0941270Y0829130D03*
X0941270Y0842130D03*
X0971270Y0842130D03*
X0971270Y0829130D03*
X1001270Y0618630D03*
X1001270Y0631630D03*
X0971270Y0772130D03*
X0971270Y0759130D03*
X0986270Y0631630D03*
X0986270Y0618630D03*
X0911270Y0772130D03*
X0911270Y0759130D03*
X0911270Y0702130D03*
X0911270Y0689130D03*
X0881270Y0829130D03*
X0881270Y0842130D03*
X0881270Y0689130D03*
X0881270Y0702130D03*
X0926270Y0632130D03*
X0926270Y0619130D03*
X0911270Y0632130D03*
X0911270Y0619130D03*
X0881270Y0759130D03*
X0881270Y0772130D03*
X0911270Y0842130D03*
X0911270Y0829130D03*
X0941270Y0619130D03*
X0941270Y0632130D03*
X0926270Y0842130D03*
X0926270Y0829130D03*
X0971270Y0702130D03*
X0971270Y0689130D03*
X0986270Y0842130D03*
X0986270Y0829130D03*
X0971270Y0631630D03*
X0971270Y0618630D03*
X1001270Y0689130D03*
X1001270Y0702130D03*
X1001270Y0829130D03*
X1001270Y0842130D03*
X1001270Y0759130D03*
X1001270Y0772130D03*
X0806270Y0632130D03*
X0806270Y0619130D03*
X0791270Y0842130D03*
X0791270Y0829130D03*
X0761270Y0829130D03*
X0761270Y0842130D03*
X0866270Y0632130D03*
X0866270Y0619130D03*
X0851270Y0772130D03*
X0851270Y0759130D03*
X0791270Y0702130D03*
X0791270Y0689130D03*
X0791270Y0772130D03*
X0791270Y0759130D03*
X0806270Y0842130D03*
X0806270Y0829130D03*
X0881270Y0619130D03*
X0881270Y0632130D03*
X0851270Y0702130D03*
X0851270Y0689130D03*
X0851270Y0842130D03*
X0851270Y0829130D03*
X0821270Y0829130D03*
X0821270Y0842130D03*
X0821270Y0619130D03*
X0821270Y0632130D03*
D44*
X0821270Y0815630D03*
X0811270Y0815630D03*
X0801270Y0815630D03*
X0791270Y0815630D03*
X0791270Y0785630D03*
X0801270Y0785630D03*
X0811270Y0785630D03*
X0821270Y0785630D03*
X0761270Y0675630D03*
X0751270Y0675630D03*
X0741270Y0675630D03*
X0731270Y0675630D03*
X0731270Y0645630D03*
X0741270Y0645630D03*
X0751270Y0645630D03*
X0761270Y0645630D03*
X0881270Y0605630D03*
X0871270Y0605630D03*
X0861270Y0605630D03*
X0851270Y0605630D03*
X0851270Y0575630D03*
X0861270Y0575630D03*
X0871270Y0575630D03*
X0881270Y0575630D03*
X0941270Y0815630D03*
X0931270Y0815630D03*
X0921270Y0815630D03*
X0911270Y0815630D03*
X0911270Y0785630D03*
X0921270Y0785630D03*
X0931270Y0785630D03*
X0941270Y0785630D03*
X0881270Y0815630D03*
X0871270Y0815630D03*
X0861270Y0815630D03*
X0851270Y0815630D03*
X0851270Y0785630D03*
X0861270Y0785630D03*
X0871270Y0785630D03*
X0881270Y0785630D03*
X0761270Y0745630D03*
X0751270Y0745630D03*
X0741270Y0745630D03*
X0731270Y0745630D03*
X0731270Y0715630D03*
X0741270Y0715630D03*
X0751270Y0715630D03*
X0761270Y0715630D03*
X0881270Y0675630D03*
X0871270Y0675630D03*
X0861270Y0675630D03*
X0851270Y0675630D03*
X0851270Y0645630D03*
X0861270Y0645630D03*
X0871270Y0645630D03*
X0881270Y0645630D03*
X0761270Y0815630D03*
X0751270Y0815630D03*
X0741270Y0815630D03*
X0731270Y0815630D03*
X0731270Y0785630D03*
X0741270Y0785630D03*
X0751270Y0785630D03*
X0761270Y0785630D03*
X0941270Y0675630D03*
X0931270Y0675630D03*
X0921270Y0675630D03*
X0911270Y0675630D03*
X0911270Y0645630D03*
X0921270Y0645630D03*
X0931270Y0645630D03*
X0941270Y0645630D03*
X0941270Y0605630D03*
X0931270Y0605630D03*
X0921270Y0605630D03*
X0911270Y0605630D03*
X0911270Y0575630D03*
X0921270Y0575630D03*
X0931270Y0575630D03*
X0941270Y0575630D03*
X1001270Y0605630D03*
X0991270Y0605630D03*
X0981270Y0605630D03*
X0971270Y0605630D03*
X0971270Y0575630D03*
X0981270Y0575630D03*
X0991270Y0575630D03*
X1001270Y0575630D03*
X0941270Y0745630D03*
X0931270Y0745630D03*
X0921270Y0745630D03*
X0911270Y0745630D03*
X0911270Y0715630D03*
X0921270Y0715630D03*
X0931270Y0715630D03*
X0941270Y0715630D03*
X0821270Y0675630D03*
X0811270Y0675630D03*
X0801270Y0675630D03*
X0791270Y0675630D03*
X0791270Y0645630D03*
X0801270Y0645630D03*
X0811270Y0645630D03*
X0821270Y0645630D03*
X1001270Y0815630D03*
X0991270Y0815630D03*
X0981270Y0815630D03*
X0971270Y0815630D03*
X0971270Y0785630D03*
X0981270Y0785630D03*
X0991270Y0785630D03*
X1001270Y0785630D03*
X0821270Y0745630D03*
X0811270Y0745630D03*
X0801270Y0745630D03*
X0791270Y0745630D03*
X0791270Y0715630D03*
X0801270Y0715630D03*
X0811270Y0715630D03*
X0821270Y0715630D03*
X1001270Y0745630D03*
X0991270Y0745630D03*
X0981270Y0745630D03*
X0971270Y0745630D03*
X0971270Y0715630D03*
X0981270Y0715630D03*
X0991270Y0715630D03*
X1001270Y0715630D03*
X0821270Y0605630D03*
X0811270Y0605630D03*
X0801270Y0605630D03*
X0791270Y0605630D03*
X0791270Y0575630D03*
X0801270Y0575630D03*
X0811270Y0575630D03*
X0821270Y0575630D03*
X1001270Y0675630D03*
X0991270Y0675630D03*
X0981270Y0675630D03*
X0971270Y0675630D03*
X0971270Y0645630D03*
X0981270Y0645630D03*
X0991270Y0645630D03*
X1001270Y0645630D03*
X0881270Y0745630D03*
X0871270Y0745630D03*
X0861270Y0745630D03*
X0851270Y0745630D03*
X0851270Y0715630D03*
X0861270Y0715630D03*
X0871270Y0715630D03*
X0881270Y0715630D03*
X0761270Y0605630D03*
X0751270Y0605630D03*
X0741270Y0605630D03*
X0731270Y0605630D03*
X0731270Y0575630D03*
X0741270Y0575630D03*
X0751270Y0575630D03*
X0761270Y0575630D03*
D105*
X0899770Y0932630D03*
X0819770Y0932630D03*
D15*
X0879770Y0962630D03*
D71*
X0849770Y0922630D03*
X0869770Y0922630D03*
X0829770Y0922630D03*
X0889770Y0922630D03*
D15*
X0839770Y0962630D03*
D22*
X0784770Y0957630D03*
D97*
X0774770Y0967630D03*
X0794770Y0967630D03*
X0794770Y0947630D03*
X0774770Y0947630D03*
D22*
X0734770Y0957630D03*
D97*
X0724770Y0967630D03*
X0744770Y0967630D03*
X0744770Y0947630D03*
X0724770Y0947630D03*
D44*
X0796270Y0932630D03*
X0783270Y0932630D03*
X0993400Y0865500D03*
X1006400Y0865500D03*
D75*
X0954650Y0880000D03*
D53*
X0954650Y0890000D03*
X0964650Y0880000D03*
X0964650Y0890000D03*
X0974650Y0880000D03*
X0974650Y0890000D03*
D75*
X0834650Y0945500D03*
D53*
X0844650Y0945500D03*
X0854650Y0945500D03*
X0864650Y0945500D03*
X0874650Y0945500D03*
X0884650Y0945500D03*
D83*
X0779770Y0917630D03*
X0799770Y0917630D03*
D86*
X0898770Y0899880D03*
X0888770Y0899880D03*
X0878770Y0899880D03*
X0868770Y0899880D03*
X0858770Y0899880D03*
X0848770Y0899880D03*
X0838770Y0899880D03*
X0828770Y0899880D03*
X0818770Y0899880D03*
X0808770Y0899880D03*
X0798770Y0899880D03*
X0788770Y0899880D03*
X0778770Y0899880D03*
D18*
X0908770Y0899880D03*
D86*
X0778770Y0869880D03*
X0788770Y0869880D03*
X0798770Y0869880D03*
X0808770Y0869880D03*
X0818770Y0869880D03*
X0828770Y0869880D03*
X0838770Y0869880D03*
X0848770Y0869880D03*
X0858770Y0869880D03*
X0868770Y0869880D03*
X0878770Y0869880D03*
X0888770Y0869880D03*
X0898770Y0869880D03*
X0908770Y0869880D03*
D76*
X0731270Y0889010D03*
X0731270Y0867750D03*
D75*
X0914150Y0923000D03*
D53*
X0914150Y0913000D03*
D75*
X0995150Y0881500D03*
D53*
X1005150Y0881500D03*
D95*
X0966650Y0934500D03*
X0961650Y0934500D03*
X0956650Y0934500D03*
X0951650Y0934500D03*
X0946650Y0934500D03*
X0941650Y0934500D03*
X0936650Y0934500D03*
X0936650Y0913500D03*
X0941650Y0913500D03*
X0946650Y0913500D03*
X0951650Y0913500D03*
X0956650Y0913500D03*
X0961650Y0913500D03*
X0966650Y0913500D03*
D58*
X0926650Y0911500D03*
X0926650Y0924500D03*
D75*
X0995150Y0893000D03*
D53*
X1005150Y0893000D03*
D60*
X1003240Y0925000D03*
X0992060Y0925000D03*
X1003240Y0915000D03*
X0992060Y0915000D03*
D58*
X0807950Y0945600D03*
X0807950Y0932600D03*
X0836550Y0834200D03*
X0836550Y0821200D03*
X0758650Y0904500D03*
X0758650Y0917500D03*
D44*
X0744150Y0871000D03*
X0757150Y0871000D03*
X1012150Y0854000D03*
X1025150Y0854000D03*
D58*
X0956500Y0834100D03*
X0956500Y0821100D03*
D44*
X0744150Y0884500D03*
X0757150Y0884500D03*
D58*
X0896050Y0834200D03*
X0896050Y0821200D03*
X0776700Y0834350D03*
X0776700Y0821350D03*
D86*
X0937880Y0872570D03*
X0920160Y0872570D03*
X0937880Y0896190D03*
X0920160Y0896190D03*
D60*
X1003240Y0905000D03*
X0992060Y0905000D03*
X1003240Y0935000D03*
X0992060Y0935000D03*
X0044350Y0286500D02*
G01*
D104*
D100*
X0089350Y0326500D03*
X0094350Y0326500D03*
X0099350Y0326500D03*
X0104350Y0326500D03*
X0104350Y0301500D03*
X0099350Y0301500D03*
X0094350Y0301500D03*
X0089350Y0301500D03*
D85*
X0065350Y0309000D03*
X0078350Y0309000D03*
X0065350Y0319000D03*
X0078350Y0319000D03*
X0078350Y0329000D03*
X0065350Y0329000D03*
X0065350Y0299000D03*
X0078350Y0299000D03*
X0103350Y0354000D03*
X0090350Y0354000D03*
X0078350Y0364000D03*
X0065350Y0364000D03*
X0090350Y0364000D03*
X0103350Y0364000D03*
X0078350Y0354000D03*
X0065350Y0354000D03*
D63*
X0051850Y0334000D03*
D10*
X0051850Y0344000D03*
X0051850Y0354000D03*
X0051850Y0364000D03*
D63*
X0051850Y0294000D03*
D10*
X0051850Y0304000D03*
X0051850Y0314000D03*
X0133750Y0599000D02*
G01*
D104*
D100*
X0178750Y0639000D03*
X0183750Y0639000D03*
X0188750Y0639000D03*
X0193750Y0639000D03*
X0193750Y0614000D03*
X0188750Y0614000D03*
X0183750Y0614000D03*
X0178750Y0614000D03*
D85*
X0154750Y0621500D03*
X0167750Y0621500D03*
X0154750Y0631500D03*
X0167750Y0631500D03*
X0167750Y0641500D03*
X0154750Y0641500D03*
X0154750Y0611500D03*
X0167750Y0611500D03*
X0192750Y0666500D03*
X0179750Y0666500D03*
X0167750Y0676500D03*
X0154750Y0676500D03*
X0179750Y0676500D03*
X0192750Y0676500D03*
X0167750Y0666500D03*
X0154750Y0666500D03*
D63*
X0141250Y0646500D03*
D10*
X0141250Y0656500D03*
X0141250Y0666500D03*
X0141250Y0676500D03*
D63*
X0141250Y0606500D03*
D10*
X0141250Y0616500D03*
X0141250Y0626500D03*
X0748750Y0010000D02*
G01*
D104*
D119*
X0763750Y0430000D03*
X0763750Y0025000D03*
X1063750Y0025000D03*
X1063750Y0430000D03*
D11*
X0962620Y0029130D03*
X0855120Y0029130D03*
D13*
X0951370Y0031630D03*
X0956370Y0031630D03*
X0956370Y0026630D03*
X0951370Y0026630D03*
X0936370Y0026630D03*
X0931370Y0026630D03*
X0941370Y0026630D03*
X0946370Y0026630D03*
X0946370Y0031630D03*
X0941370Y0031630D03*
X0931370Y0031630D03*
X0936370Y0031630D03*
X0881370Y0026630D03*
X0876370Y0026630D03*
X0866370Y0026630D03*
X0871370Y0026630D03*
X0871370Y0031630D03*
X0866370Y0031630D03*
X0876370Y0031630D03*
X0881370Y0031630D03*
X0861370Y0031630D03*
X0861370Y0026630D03*
X0886370Y0026630D03*
X0886370Y0031630D03*
X0916370Y0031630D03*
X0911370Y0031630D03*
X0921370Y0031630D03*
X0926370Y0031630D03*
X0906370Y0031630D03*
X0901370Y0031630D03*
X0891370Y0031630D03*
X0896370Y0031630D03*
X0896370Y0026630D03*
X0891370Y0026630D03*
X0901370Y0026630D03*
X0906370Y0026630D03*
X0926370Y0026630D03*
X0921370Y0026630D03*
X0911370Y0026630D03*
X0916370Y0026630D03*
D47*
X1055870Y0467130D03*
X0969870Y0467130D03*
D75*
X0992870Y0460130D03*
D53*
X0992870Y0470130D03*
X1002870Y0460130D03*
X1002870Y0470130D03*
X1012870Y0460130D03*
X1012870Y0470130D03*
X1022870Y0460130D03*
X1022870Y0470130D03*
X1032870Y0460130D03*
X1032870Y0470130D03*
D58*
X0789370Y0354630D03*
X0789370Y0341630D03*
X0804370Y0271630D03*
X0804370Y0284630D03*
X0789370Y0144630D03*
X0789370Y0131630D03*
X0774370Y0144630D03*
X0774370Y0131630D03*
X0864370Y0271630D03*
X0864370Y0284630D03*
X0864370Y0201630D03*
X0864370Y0214630D03*
X0834370Y0144630D03*
X0834370Y0131630D03*
X0774370Y0284630D03*
X0774370Y0271630D03*
X0804370Y0131630D03*
X0804370Y0144630D03*
X0804370Y0201630D03*
X0804370Y0214630D03*
X0774370Y0354630D03*
X0774370Y0341630D03*
X1029370Y0214630D03*
X1029370Y0201630D03*
X1029370Y0284630D03*
X1029370Y0271630D03*
X0774370Y0214630D03*
X0774370Y0201630D03*
X0789370Y0284630D03*
X0789370Y0271630D03*
X0789370Y0214630D03*
X0789370Y0201630D03*
X0849370Y0214630D03*
X0849370Y0201630D03*
X0909370Y0214630D03*
X0909370Y0201630D03*
X0909370Y0284630D03*
X0909370Y0271630D03*
X0969370Y0284630D03*
X0969370Y0271630D03*
X0969370Y0214630D03*
X0969370Y0201630D03*
X0849370Y0284630D03*
X0849370Y0271630D03*
X0909370Y0354630D03*
X0909370Y0341630D03*
X0894370Y0144630D03*
X0894370Y0131630D03*
X0984370Y0201630D03*
X0984370Y0214630D03*
X0984370Y0271630D03*
X0984370Y0284630D03*
X0984370Y0341630D03*
X0984370Y0354630D03*
X1014370Y0354630D03*
X1014370Y0341630D03*
X1044370Y0131130D03*
X1044370Y0144130D03*
X1014370Y0284630D03*
X1014370Y0271630D03*
X1029370Y0144130D03*
X1029370Y0131130D03*
X0954370Y0284630D03*
X0954370Y0271630D03*
X0954370Y0214630D03*
X0954370Y0201630D03*
X0924370Y0341630D03*
X0924370Y0354630D03*
X0924370Y0201630D03*
X0924370Y0214630D03*
X0969370Y0144630D03*
X0969370Y0131630D03*
X0954370Y0144630D03*
X0954370Y0131630D03*
X0924370Y0271630D03*
X0924370Y0284630D03*
X0954370Y0354630D03*
X0954370Y0341630D03*
X0984370Y0131630D03*
X0984370Y0144630D03*
X0969370Y0354630D03*
X0969370Y0341630D03*
X1014370Y0214630D03*
X1014370Y0201630D03*
X1029370Y0354630D03*
X1029370Y0341630D03*
X1014370Y0144130D03*
X1014370Y0131130D03*
X1044370Y0201630D03*
X1044370Y0214630D03*
X1044370Y0341630D03*
X1044370Y0354630D03*
X1044370Y0271630D03*
X1044370Y0284630D03*
X0849370Y0144630D03*
X0849370Y0131630D03*
X0834370Y0354630D03*
X0834370Y0341630D03*
X0804370Y0341630D03*
X0804370Y0354630D03*
X0909370Y0144630D03*
X0909370Y0131630D03*
X0894370Y0284630D03*
X0894370Y0271630D03*
X0834370Y0214630D03*
X0834370Y0201630D03*
X0834370Y0284630D03*
X0834370Y0271630D03*
X0849370Y0354630D03*
X0849370Y0341630D03*
X0924370Y0131630D03*
X0924370Y0144630D03*
X0894370Y0214630D03*
X0894370Y0201630D03*
X0894370Y0354630D03*
X0894370Y0341630D03*
X0864370Y0341630D03*
X0864370Y0354630D03*
X0864370Y0131630D03*
X0864370Y0144630D03*
D44*
X0864370Y0328130D03*
X0854370Y0328130D03*
X0844370Y0328130D03*
X0834370Y0328130D03*
X0834370Y0298130D03*
X0844370Y0298130D03*
X0854370Y0298130D03*
X0864370Y0298130D03*
X0804370Y0188130D03*
X0794370Y0188130D03*
X0784370Y0188130D03*
X0774370Y0188130D03*
X0774370Y0158130D03*
X0784370Y0158130D03*
X0794370Y0158130D03*
X0804370Y0158130D03*
X0924370Y0118130D03*
X0914370Y0118130D03*
X0904370Y0118130D03*
X0894370Y0118130D03*
X0894370Y0088130D03*
X0904370Y0088130D03*
X0914370Y0088130D03*
X0924370Y0088130D03*
X0984370Y0328130D03*
X0974370Y0328130D03*
X0964370Y0328130D03*
X0954370Y0328130D03*
X0954370Y0298130D03*
X0964370Y0298130D03*
X0974370Y0298130D03*
X0984370Y0298130D03*
X0924370Y0328130D03*
X0914370Y0328130D03*
X0904370Y0328130D03*
X0894370Y0328130D03*
X0894370Y0298130D03*
X0904370Y0298130D03*
X0914370Y0298130D03*
X0924370Y0298130D03*
X0804370Y0258130D03*
X0794370Y0258130D03*
X0784370Y0258130D03*
X0774370Y0258130D03*
X0774370Y0228130D03*
X0784370Y0228130D03*
X0794370Y0228130D03*
X0804370Y0228130D03*
X0924370Y0188130D03*
X0914370Y0188130D03*
X0904370Y0188130D03*
X0894370Y0188130D03*
X0894370Y0158130D03*
X0904370Y0158130D03*
X0914370Y0158130D03*
X0924370Y0158130D03*
X0804370Y0328130D03*
X0794370Y0328130D03*
X0784370Y0328130D03*
X0774370Y0328130D03*
X0774370Y0298130D03*
X0784370Y0298130D03*
X0794370Y0298130D03*
X0804370Y0298130D03*
X0984370Y0188130D03*
X0974370Y0188130D03*
X0964370Y0188130D03*
X0954370Y0188130D03*
X0954370Y0158130D03*
X0964370Y0158130D03*
X0974370Y0158130D03*
X0984370Y0158130D03*
X0984370Y0118130D03*
X0974370Y0118130D03*
X0964370Y0118130D03*
X0954370Y0118130D03*
X0954370Y0088130D03*
X0964370Y0088130D03*
X0974370Y0088130D03*
X0984370Y0088130D03*
X1044370Y0118130D03*
X1034370Y0118130D03*
X1024370Y0118130D03*
X1014370Y0118130D03*
X1014370Y0088130D03*
X1024370Y0088130D03*
X1034370Y0088130D03*
X1044370Y0088130D03*
X0984370Y0258130D03*
X0974370Y0258130D03*
X0964370Y0258130D03*
X0954370Y0258130D03*
X0954370Y0228130D03*
X0964370Y0228130D03*
X0974370Y0228130D03*
X0984370Y0228130D03*
X0864370Y0188130D03*
X0854370Y0188130D03*
X0844370Y0188130D03*
X0834370Y0188130D03*
X0834370Y0158130D03*
X0844370Y0158130D03*
X0854370Y0158130D03*
X0864370Y0158130D03*
X1044370Y0328130D03*
X1034370Y0328130D03*
X1024370Y0328130D03*
X1014370Y0328130D03*
X1014370Y0298130D03*
X1024370Y0298130D03*
X1034370Y0298130D03*
X1044370Y0298130D03*
X0864370Y0258130D03*
X0854370Y0258130D03*
X0844370Y0258130D03*
X0834370Y0258130D03*
X0834370Y0228130D03*
X0844370Y0228130D03*
X0854370Y0228130D03*
X0864370Y0228130D03*
X1044370Y0258130D03*
X1034370Y0258130D03*
X1024370Y0258130D03*
X1014370Y0258130D03*
X1014370Y0228130D03*
X1024370Y0228130D03*
X1034370Y0228130D03*
X1044370Y0228130D03*
X0864370Y0118130D03*
X0854370Y0118130D03*
X0844370Y0118130D03*
X0834370Y0118130D03*
X0834370Y0088130D03*
X0844370Y0088130D03*
X0854370Y0088130D03*
X0864370Y0088130D03*
X1044370Y0188130D03*
X1034370Y0188130D03*
X1024370Y0188130D03*
X1014370Y0188130D03*
X1014370Y0158130D03*
X1024370Y0158130D03*
X1034370Y0158130D03*
X1044370Y0158130D03*
X0924370Y0258130D03*
X0914370Y0258130D03*
X0904370Y0258130D03*
X0894370Y0258130D03*
X0894370Y0228130D03*
X0904370Y0228130D03*
X0914370Y0228130D03*
X0924370Y0228130D03*
X0804370Y0118130D03*
X0794370Y0118130D03*
X0784370Y0118130D03*
X0774370Y0118130D03*
X0774370Y0088130D03*
X0784370Y0088130D03*
X0794370Y0088130D03*
X0804370Y0088130D03*
D105*
X0942870Y0445130D03*
X0862870Y0445130D03*
D15*
X0922870Y0475130D03*
D71*
X0892870Y0435130D03*
X0912870Y0435130D03*
X0872870Y0435130D03*
X0932870Y0435130D03*
D15*
X0882870Y0475130D03*
D22*
X0827870Y0470130D03*
D97*
X0817870Y0480130D03*
X0837870Y0480130D03*
X0837870Y0460130D03*
X0817870Y0460130D03*
D22*
X0777870Y0470130D03*
D97*
X0767870Y0480130D03*
X0787870Y0480130D03*
X0787870Y0460130D03*
X0767870Y0460130D03*
D44*
X0839370Y0445130D03*
X0826370Y0445130D03*
X1036500Y0378000D03*
X1049500Y0378000D03*
D75*
X0997750Y0392500D03*
D53*
X0997750Y0402500D03*
X1007750Y0392500D03*
X1007750Y0402500D03*
X1017750Y0392500D03*
X1017750Y0402500D03*
D75*
X0877750Y0458000D03*
D53*
X0887750Y0458000D03*
X0897750Y0458000D03*
X0907750Y0458000D03*
X0917750Y0458000D03*
X0927750Y0458000D03*
D83*
X0822870Y0430130D03*
X0842870Y0430130D03*
D86*
X0941870Y0412380D03*
X0931870Y0412380D03*
X0921870Y0412380D03*
X0911870Y0412380D03*
X0901870Y0412380D03*
X0891870Y0412380D03*
X0881870Y0412380D03*
X0871870Y0412380D03*
X0861870Y0412380D03*
X0851870Y0412380D03*
X0841870Y0412380D03*
X0831870Y0412380D03*
X0821870Y0412380D03*
D18*
X0951870Y0412380D03*
D86*
X0821870Y0382380D03*
X0831870Y0382380D03*
X0841870Y0382380D03*
X0851870Y0382380D03*
X0861870Y0382380D03*
X0871870Y0382380D03*
X0881870Y0382380D03*
X0891870Y0382380D03*
X0901870Y0382380D03*
X0911870Y0382380D03*
X0921870Y0382380D03*
X0931870Y0382380D03*
X0941870Y0382380D03*
X0951870Y0382380D03*
D76*
X0774370Y0401510D03*
X0774370Y0380250D03*
D75*
X0957250Y0435500D03*
D53*
X0957250Y0425500D03*
D75*
X1038250Y0394000D03*
D53*
X1048250Y0394000D03*
D95*
X1009750Y0447000D03*
X1004750Y0447000D03*
X0999750Y0447000D03*
X0994750Y0447000D03*
X0989750Y0447000D03*
X0984750Y0447000D03*
X0979750Y0447000D03*
X0979750Y0426000D03*
X0984750Y0426000D03*
X0989750Y0426000D03*
X0994750Y0426000D03*
X0999750Y0426000D03*
X1004750Y0426000D03*
X1009750Y0426000D03*
D58*
X0969750Y0424000D03*
X0969750Y0437000D03*
D75*
X1038250Y0405500D03*
D53*
X1048250Y0405500D03*
D60*
X1046340Y0437500D03*
X1035160Y0437500D03*
X1046340Y0427500D03*
X1035160Y0427500D03*
D58*
X0851050Y0458100D03*
X0851050Y0445100D03*
X0879650Y0346700D03*
X0879650Y0333700D03*
X0801750Y0417000D03*
X0801750Y0430000D03*
D44*
X0787250Y0383500D03*
X0800250Y0383500D03*
X1055250Y0366500D03*
X1068250Y0366500D03*
D58*
X0999600Y0346600D03*
X0999600Y0333600D03*
D44*
X0787250Y0397000D03*
X0800250Y0397000D03*
D58*
X0939150Y0346700D03*
X0939150Y0333700D03*
X0819800Y0346850D03*
X0819800Y0333850D03*
D86*
X0980980Y0385070D03*
X0963260Y0385070D03*
X0980980Y0408690D03*
X0963260Y0408690D03*
D60*
X1046340Y0417500D03*
X1035160Y0417500D03*
X1046340Y0447500D03*
X1035160Y0447500D03*
X1043150Y0497500D02*
G01*
D102*
D119*
X1098150Y0532500D03*
X1378150Y0532500D03*
X1098150Y0747500D03*
X1378150Y0747500D03*
D11*
X1070650Y0616250D03*
X1070650Y0723750D03*
D13*
X1073150Y0627500D03*
X1073150Y0622500D03*
X1068150Y0622500D03*
X1068150Y0627500D03*
X1068150Y0642500D03*
X1068150Y0647500D03*
X1068150Y0637500D03*
X1068150Y0632500D03*
X1073150Y0632500D03*
X1073150Y0637500D03*
X1073150Y0647500D03*
X1073150Y0642500D03*
X1068150Y0697500D03*
X1068150Y0702500D03*
X1068150Y0712500D03*
X1068150Y0707500D03*
X1073150Y0707500D03*
X1073150Y0712500D03*
X1073150Y0702500D03*
X1073150Y0697500D03*
X1073150Y0717500D03*
X1068150Y0717500D03*
X1068150Y0692500D03*
X1073150Y0692500D03*
X1073150Y0662500D03*
X1073150Y0667500D03*
X1073150Y0657500D03*
X1073150Y0652500D03*
X1073150Y0672500D03*
X1073150Y0677500D03*
X1073150Y0687500D03*
X1073150Y0682500D03*
X1068150Y0682500D03*
X1068150Y0687500D03*
X1068150Y0677500D03*
X1068150Y0672500D03*
X1068150Y0652500D03*
X1068150Y0657500D03*
X1068150Y0667500D03*
X1068150Y0662500D03*
D11*
X1405650Y0723750D03*
X1405650Y0616250D03*
D13*
X1403150Y0712500D03*
X1403150Y0717500D03*
X1408150Y0717500D03*
X1408150Y0712500D03*
X1408150Y0697500D03*
X1408150Y0692500D03*
X1408150Y0702500D03*
X1408150Y0707500D03*
X1403150Y0707500D03*
X1403150Y0702500D03*
X1403150Y0692500D03*
X1403150Y0697500D03*
X1408150Y0642500D03*
X1408150Y0637500D03*
X1408150Y0627500D03*
X1408150Y0632500D03*
X1403150Y0632500D03*
X1403150Y0627500D03*
X1403150Y0637500D03*
X1403150Y0642500D03*
X1403150Y0622500D03*
X1408150Y0622500D03*
X1408150Y0647500D03*
X1403150Y0647500D03*
X1403150Y0677500D03*
X1403150Y0672500D03*
X1403150Y0682500D03*
X1403150Y0687500D03*
X1403150Y0667500D03*
X1403150Y0662500D03*
X1403150Y0652500D03*
X1403150Y0657500D03*
X1408150Y0657500D03*
X1408150Y0652500D03*
X1408150Y0662500D03*
X1408150Y0667500D03*
X1408150Y0687500D03*
X1408150Y0682500D03*
X1408150Y0672500D03*
X1408150Y0677500D03*
D11*
X1291900Y0527500D03*
X1184400Y0527500D03*
D13*
X1280650Y0530000D03*
X1285650Y0530000D03*
X1285650Y0525000D03*
X1280650Y0525000D03*
X1265650Y0525000D03*
X1260650Y0525000D03*
X1270650Y0525000D03*
X1275650Y0525000D03*
X1275650Y0530000D03*
X1270650Y0530000D03*
X1260650Y0530000D03*
X1265650Y0530000D03*
X1210650Y0525000D03*
X1205650Y0525000D03*
X1195650Y0525000D03*
X1200650Y0525000D03*
X1200650Y0530000D03*
X1195650Y0530000D03*
X1205650Y0530000D03*
X1210650Y0530000D03*
X1190650Y0530000D03*
X1190650Y0525000D03*
X1215650Y0525000D03*
X1215650Y0530000D03*
X1245650Y0530000D03*
X1240650Y0530000D03*
X1250650Y0530000D03*
X1255650Y0530000D03*
X1235650Y0530000D03*
X1230650Y0530000D03*
X1220650Y0530000D03*
X1225650Y0530000D03*
X1225650Y0525000D03*
X1220650Y0525000D03*
X1230650Y0525000D03*
X1235650Y0525000D03*
X1255650Y0525000D03*
X1250650Y0525000D03*
X1240650Y0525000D03*
X1245650Y0525000D03*
D53*
X1348150Y0717500D03*
X1358150Y0717500D03*
X1368150Y0717500D03*
X1378150Y0717500D03*
X1348150Y0707500D03*
X1358150Y0707500D03*
X1368150Y0707500D03*
X1378150Y0707500D03*
X1348150Y0697500D03*
X1358150Y0697500D03*
X1368150Y0697500D03*
X1378150Y0697500D03*
X1348150Y0687500D03*
X1358150Y0687500D03*
X1368150Y0687500D03*
X1378150Y0687500D03*
X1348150Y0677500D03*
X1358150Y0677500D03*
X1368150Y0677500D03*
X1378150Y0677500D03*
X1348150Y0667500D03*
X1358150Y0667500D03*
X1368150Y0667500D03*
X1378150Y0667500D03*
X1348150Y0657500D03*
X1358150Y0657500D03*
X1368150Y0657500D03*
X1378150Y0657500D03*
X1348150Y0647500D03*
X1358150Y0647500D03*
X1368150Y0647500D03*
X1378150Y0647500D03*
X1348150Y0637500D03*
X1358150Y0637500D03*
X1368150Y0637500D03*
X1378150Y0637500D03*
X1348150Y0627500D03*
X1358150Y0627500D03*
X1368150Y0627500D03*
X1378150Y0627500D03*
X1348150Y0617500D03*
X1358150Y0617500D03*
X1368150Y0617500D03*
X1378150Y0617500D03*
X1348150Y0607500D03*
X1358150Y0607500D03*
X1368150Y0607500D03*
X1378150Y0607500D03*
X1348150Y0597500D03*
X1358150Y0597500D03*
X1368150Y0597500D03*
X1378150Y0597500D03*
X1348150Y0587500D03*
X1358150Y0587500D03*
X1368150Y0587500D03*
X1378150Y0587500D03*
X1348150Y0577500D03*
X1358150Y0577500D03*
X1368150Y0577500D03*
X1378150Y0577500D03*
X1098150Y0577500D03*
X1108150Y0577500D03*
X1118150Y0577500D03*
X1128150Y0577500D03*
X1098150Y0587500D03*
X1108150Y0587500D03*
X1118150Y0587500D03*
X1128150Y0587500D03*
X1098150Y0597500D03*
X1108150Y0597500D03*
X1118150Y0597500D03*
X1128150Y0597500D03*
X1098150Y0607500D03*
X1108150Y0607500D03*
X1118150Y0607500D03*
X1128150Y0607500D03*
X1098150Y0617500D03*
X1108150Y0617500D03*
X1118150Y0617500D03*
X1128150Y0617500D03*
X1098150Y0627500D03*
X1108150Y0627500D03*
X1118150Y0627500D03*
X1128150Y0627500D03*
X1098150Y0637500D03*
X1108150Y0637500D03*
X1118150Y0637500D03*
X1128150Y0637500D03*
X1098150Y0647500D03*
X1108150Y0647500D03*
X1118150Y0647500D03*
X1128150Y0647500D03*
X1098150Y0657500D03*
X1108150Y0657500D03*
X1118150Y0657500D03*
X1128150Y0657500D03*
X1098150Y0667500D03*
X1108150Y0667500D03*
X1118150Y0667500D03*
X1128150Y0667500D03*
X1098150Y0677500D03*
X1108150Y0677500D03*
X1118150Y0677500D03*
X1128150Y0677500D03*
X1098150Y0687500D03*
X1108150Y0687500D03*
X1118150Y0687500D03*
X1128150Y0687500D03*
X1098150Y0697500D03*
X1108150Y0697500D03*
X1118150Y0697500D03*
X1128150Y0697500D03*
X1098150Y0707500D03*
X1108150Y0707500D03*
X1118150Y0707500D03*
X1128150Y0707500D03*
X1098150Y0717500D03*
X1108150Y0717500D03*
X1118150Y0717500D03*
X1128150Y0717500D03*
X0010000Y0379000D02*
G01*
D104*
D100*
X0055000Y0419000D03*
X0060000Y0419000D03*
X0065000Y0419000D03*
X0070000Y0419000D03*
X0070000Y0394000D03*
X0065000Y0394000D03*
X0060000Y0394000D03*
X0055000Y0394000D03*
D85*
X0031000Y0401500D03*
X0044000Y0401500D03*
X0031000Y0411500D03*
X0044000Y0411500D03*
X0044000Y0421500D03*
X0031000Y0421500D03*
X0031000Y0391500D03*
X0044000Y0391500D03*
X0069000Y0446500D03*
X0056000Y0446500D03*
X0044000Y0456500D03*
X0031000Y0456500D03*
X0056000Y0456500D03*
X0069000Y0456500D03*
X0044000Y0446500D03*
X0031000Y0446500D03*
D63*
X0017500Y0426500D03*
D10*
X0017500Y0436500D03*
X0017500Y0446500D03*
X0017500Y0456500D03*
D63*
X0017500Y0386500D03*
D10*
X0017500Y0396500D03*
X0017500Y0406500D03*
X1043150Y0775000D02*
G01*
D104*
D101*
X1062900Y0794500D03*
X1148900Y0794500D03*
D34*
X1125900Y0801500D03*
D84*
X1125900Y0791500D03*
X1115900Y0801500D03*
X1115900Y0791500D03*
X1105900Y0801500D03*
X1105900Y0791500D03*
X1095900Y0801500D03*
X1095900Y0791500D03*
X1085900Y0801500D03*
X1085900Y0791500D03*
D40*
X1402150Y0853250D03*
X1210900Y0853250D03*
D16*
X1180600Y0782340D03*
D118*
X1180600Y0832720D03*
X1197140Y0832720D03*
X1213660Y0832720D03*
X1230200Y0832720D03*
X1180600Y0811080D03*
X1197140Y0811080D03*
X1213660Y0811080D03*
X1230200Y0811080D03*
D16*
X1230200Y0782340D03*
D101*
X1148900Y0936000D03*
X1062900Y0936000D03*
D34*
X1085900Y0929000D03*
D84*
X1085900Y0939000D03*
X1095900Y0929000D03*
X1095900Y0939000D03*
X1105900Y0929000D03*
X1105900Y0939000D03*
X1115900Y0929000D03*
X1115900Y0939000D03*
X1125900Y0929000D03*
X1125900Y0939000D03*
D70*
X1266400Y0843500D03*
X1266400Y0864500D03*
X1261400Y0843500D03*
X1256400Y0843500D03*
X1251400Y0843500D03*
X1261400Y0864500D03*
X1256400Y0864500D03*
X1251400Y0864500D03*
D74*
X1328400Y0790500D03*
X1333400Y0790500D03*
X1338400Y0790500D03*
X1343400Y0790500D03*
X1348400Y0790500D03*
X1353400Y0790500D03*
X1358400Y0790500D03*
X1358400Y0811500D03*
X1353400Y0811500D03*
X1348400Y0811500D03*
X1343400Y0811500D03*
X1338400Y0811500D03*
X1333400Y0811500D03*
X1328400Y0811500D03*
D72*
X1292000Y0930300D03*
X1292000Y0943300D03*
D129*
X1263400Y0875000D03*
X1276400Y0875000D03*
D109*
X1225900Y0920000D03*
X1185900Y0920000D03*
D84*
X1195900Y0900000D03*
X1205900Y0900000D03*
D68*
X1430360Y0886390D03*
X1412640Y0886390D03*
X1430360Y0910010D03*
X1412640Y0910010D03*
D129*
X1287400Y0864000D03*
X1274400Y0864000D03*
D72*
X1276050Y0841750D03*
X1276050Y0854750D03*
D34*
X1279200Y0942000D03*
D84*
X1279200Y0932000D03*
X1269200Y0942000D03*
X1269200Y0932000D03*
X1259200Y0942000D03*
X1259200Y0932000D03*
D34*
X1379100Y0944200D03*
D84*
X1389100Y0944200D03*
X1399100Y0944200D03*
X1409100Y0944200D03*
X1419100Y0944200D03*
X1429100Y0944200D03*
D68*
X1387300Y0919000D03*
X1377300Y0919000D03*
X1367300Y0919000D03*
X1357300Y0919000D03*
X1347300Y0919000D03*
X1337300Y0919000D03*
X1327300Y0919000D03*
X1317300Y0919000D03*
X1307300Y0919000D03*
X1297300Y0919000D03*
X1287300Y0919000D03*
X1277300Y0919000D03*
X1267300Y0919000D03*
D46*
X1397300Y0919000D03*
D68*
X1267300Y0889000D03*
X1277300Y0889000D03*
X1287300Y0889000D03*
X1297300Y0889000D03*
X1307300Y0889000D03*
X1317300Y0889000D03*
X1327300Y0889000D03*
X1337300Y0889000D03*
X1347300Y0889000D03*
X1357300Y0889000D03*
X1367300Y0889000D03*
X1377300Y0889000D03*
X1387300Y0889000D03*
X1397300Y0889000D03*
D65*
X1424040Y0874200D03*
X1421480Y0874200D03*
X1418920Y0874200D03*
X1416360Y0874200D03*
X1416360Y0857200D03*
X1418920Y0857200D03*
X1421480Y0857200D03*
X1424040Y0857200D03*
D72*
X1360800Y0942800D03*
X1360800Y0929800D03*
D129*
X1057400Y0827200D03*
X1070400Y0827200D03*
D20*
X1057210Y0817000D03*
X1068390Y0817000D03*
D34*
X1244150Y0894500D03*
D84*
X1244150Y0904500D03*
X1244150Y0914500D03*
D74*
X1427300Y0834500D03*
X1422300Y0834500D03*
X1417300Y0834500D03*
X1412300Y0834500D03*
X1407300Y0834500D03*
X1402300Y0834500D03*
X1397300Y0834500D03*
X1397300Y0813500D03*
X1402300Y0813500D03*
X1407300Y0813500D03*
X1412300Y0813500D03*
X1417300Y0813500D03*
X1422300Y0813500D03*
X1427300Y0813500D03*
X1288300Y0816000D03*
X1293300Y0816000D03*
X1298300Y0816000D03*
X1303300Y0816000D03*
X1308300Y0816000D03*
X1313300Y0816000D03*
X1318300Y0816000D03*
X1318300Y0837000D03*
X1313300Y0837000D03*
X1308300Y0837000D03*
X1303300Y0837000D03*
X1298300Y0837000D03*
X1293300Y0837000D03*
X1288300Y0837000D03*
D43*
X1311200Y0937400D03*
X1331200Y0937400D03*
D128*
X1386200Y0868000D03*
X1381200Y0868000D03*
X1376200Y0868000D03*
X1371200Y0868000D03*
X1366200Y0868000D03*
X1361200Y0868000D03*
X1356200Y0868000D03*
X1351200Y0868000D03*
X1346200Y0868000D03*
X1341200Y0868000D03*
X1336200Y0868000D03*
X1331200Y0868000D03*
X1386200Y0830000D03*
X1381200Y0830000D03*
X1376200Y0830000D03*
X1371200Y0830000D03*
X1366200Y0830000D03*
X1361200Y0830000D03*
X1356200Y0830000D03*
X1351200Y0830000D03*
X1346200Y0830000D03*
X1341200Y0830000D03*
X1336200Y0830000D03*
X1331200Y0830000D03*
D70*
X1372100Y0811500D03*
X1372100Y0790500D03*
X1377100Y0811500D03*
X1382100Y0811500D03*
X1387100Y0811500D03*
X1377100Y0790500D03*
X1382100Y0790500D03*
X1387100Y0790500D03*
D129*
X1421100Y0931500D03*
X1408100Y0931500D03*
D72*
X1350500Y0929800D03*
X1350500Y0942800D03*
X1309500Y0793100D03*
X1309500Y0806100D03*
X1267100Y0799800D03*
X1267100Y0812800D03*
X1299100Y0793100D03*
X1299100Y0806100D03*
X1288700Y0793100D03*
X1288700Y0806100D03*
D129*
X1308100Y0849700D03*
X1321100Y0849700D03*
X1299900Y0849700D03*
X1286900Y0849700D03*
D19*
X1308000Y0864470D03*
X1304250Y0873130D03*
X1311750Y0873130D03*
D34*
X1378000Y0929200D03*
D84*
X1388000Y0929200D03*
D74*
X1156300Y0855000D03*
X1161300Y0855000D03*
X1166300Y0855000D03*
X1171300Y0855000D03*
X1176300Y0855000D03*
X1181300Y0855000D03*
X1186300Y0855000D03*
X1186300Y0876000D03*
X1181300Y0876000D03*
X1176300Y0876000D03*
X1171300Y0876000D03*
X1166300Y0876000D03*
X1161300Y0876000D03*
X1156300Y0876000D03*
D129*
X1152050Y0888550D03*
X1165050Y0888550D03*
X1104600Y0826000D03*
X1117600Y0826000D03*
X1104500Y0815400D03*
X1117500Y0815400D03*
D34*
X1163100Y0901750D03*
D84*
X1153100Y0901750D03*
D20*
X1128110Y0825400D03*
X1139290Y0825400D03*
X1128060Y0815950D03*
X1139240Y0815950D03*
D72*
X1145200Y0862900D03*
X1145200Y0875900D03*
X1430180Y0931840D03*
X1430180Y0918840D03*
X1431780Y0859040D03*
X1431780Y0872040D03*
D129*
X1418050Y0805700D03*
X1431050Y0805700D03*
X1243650Y0868450D03*
X1230650Y0868450D03*
X1250500Y0835350D03*
X1263500Y0835350D03*
X1345250Y0782050D03*
X1332250Y0782050D03*
D72*
X1278350Y0818450D03*
X1278350Y0831450D03*
X1394000Y0785400D03*
X1394000Y0798400D03*
X0016850Y0471500D02*
G01*
D104*
D11*
X0067350Y0514750D03*
X0067350Y0622250D03*
D13*
X0069850Y0526000D03*
X0069850Y0521000D03*
X0064850Y0521000D03*
X0064850Y0526000D03*
X0064850Y0541000D03*
X0064850Y0546000D03*
X0064850Y0536000D03*
X0064850Y0531000D03*
X0069850Y0531000D03*
X0069850Y0536000D03*
X0069850Y0546000D03*
X0069850Y0541000D03*
X0064850Y0596000D03*
X0064850Y0601000D03*
X0064850Y0611000D03*
X0064850Y0606000D03*
X0069850Y0606000D03*
X0069850Y0611000D03*
X0069850Y0601000D03*
X0069850Y0596000D03*
X0069850Y0616000D03*
X0064850Y0616000D03*
X0064850Y0591000D03*
X0069850Y0591000D03*
X0069850Y0561000D03*
X0069850Y0566000D03*
X0069850Y0556000D03*
X0069850Y0551000D03*
X0069850Y0571000D03*
X0069850Y0576000D03*
X0069850Y0586000D03*
X0069850Y0581000D03*
X0064850Y0581000D03*
X0064850Y0586000D03*
X0064850Y0576000D03*
X0064850Y0571000D03*
X0064850Y0551000D03*
X0064850Y0556000D03*
X0064850Y0566000D03*
X0064850Y0561000D03*
D111*
X0064850Y0653000D03*
D44*
X0035850Y0545000D03*
X0022850Y0545000D03*
X0035850Y0611500D03*
X0022850Y0611500D03*
X0091350Y0611000D03*
X0104350Y0611000D03*
X0035850Y0602000D03*
X0022850Y0602000D03*
X0091350Y0601500D03*
X0104350Y0601500D03*
X0035850Y0592500D03*
X0022850Y0592500D03*
X0091350Y0592000D03*
X0104350Y0592000D03*
X0035850Y0583000D03*
X0022850Y0583000D03*
X0091350Y0582500D03*
X0104350Y0582500D03*
X0035850Y0573500D03*
X0022850Y0573500D03*
X0091350Y0573000D03*
X0104350Y0573000D03*
X0035850Y0564000D03*
X0022850Y0564000D03*
X0091350Y0563500D03*
X0104350Y0563500D03*
X0035850Y0554500D03*
X0022850Y0554500D03*
X0091350Y0554000D03*
X0104350Y0554000D03*
X0091350Y0620500D03*
X0104350Y0620500D03*
X0091350Y0544500D03*
X0104350Y0544500D03*
X0035850Y0535500D03*
X0022850Y0535500D03*
X0091350Y0535000D03*
X0104350Y0535000D03*
X0035850Y0526000D03*
X0022850Y0526000D03*
X0091350Y0525500D03*
X0104350Y0525500D03*
X0035850Y0516500D03*
X0022850Y0516500D03*
X0091350Y0516000D03*
X0104350Y0516000D03*
X0035850Y0507000D03*
X0022850Y0507000D03*
X0091350Y0506500D03*
X0104350Y0506500D03*
X0035850Y0497500D03*
X0022850Y0497500D03*
X0091350Y0497000D03*
X0104350Y0497000D03*
X0035850Y0488000D03*
X0022850Y0488000D03*
X0091350Y0487500D03*
X0104350Y0487500D03*
X0035850Y0478500D03*
X0022850Y0478500D03*
X0091350Y0478000D03*
X0104350Y0478000D03*
X0035850Y0659000D03*
X0022850Y0659000D03*
X0091350Y0658500D03*
X0104350Y0658500D03*
X0035850Y0649500D03*
X0022850Y0649500D03*
X0091350Y0649000D03*
X0104350Y0649000D03*
X0035850Y0640000D03*
X0022850Y0640000D03*
X0091350Y0639500D03*
X0104350Y0639500D03*
X0035850Y0630500D03*
X0022850Y0630500D03*
X0091350Y0630000D03*
X0104350Y0630000D03*
X0035850Y0621000D03*
X0022850Y0621000D03*
X0411250Y0902500D02*
G01*
D104*
D11*
X0454500Y0944500D03*
X0562000Y0944500D03*
D13*
X0465750Y0942000D03*
X0460750Y0942000D03*
X0460750Y0947000D03*
X0465750Y0947000D03*
X0480750Y0947000D03*
X0485750Y0947000D03*
X0475750Y0947000D03*
X0470750Y0947000D03*
X0470750Y0942000D03*
X0475750Y0942000D03*
X0485750Y0942000D03*
X0480750Y0942000D03*
X0535750Y0947000D03*
X0540750Y0947000D03*
X0550750Y0947000D03*
X0545750Y0947000D03*
X0545750Y0942000D03*
X0550750Y0942000D03*
X0540750Y0942000D03*
X0535750Y0942000D03*
X0555750Y0942000D03*
X0555750Y0947000D03*
X0530750Y0947000D03*
X0530750Y0942000D03*
X0500750Y0942000D03*
X0505750Y0942000D03*
X0495750Y0942000D03*
X0490750Y0942000D03*
X0510750Y0942000D03*
X0515750Y0942000D03*
X0525750Y0942000D03*
X0520750Y0942000D03*
X0520750Y0947000D03*
X0525750Y0947000D03*
X0515750Y0947000D03*
X0510750Y0947000D03*
X0490750Y0947000D03*
X0495750Y0947000D03*
X0505750Y0947000D03*
X0500750Y0947000D03*
D111*
X0592750Y0947000D03*
D58*
X0484750Y0976000D03*
X0484750Y0989000D03*
X0551250Y0976000D03*
X0551250Y0989000D03*
X0550750Y0920500D03*
X0550750Y0907500D03*
X0541750Y0976000D03*
X0541750Y0989000D03*
X0541250Y0920500D03*
X0541250Y0907500D03*
X0532250Y0976000D03*
X0532250Y0989000D03*
X0531750Y0920500D03*
X0531750Y0907500D03*
X0522750Y0976000D03*
X0522750Y0989000D03*
X0522250Y0920500D03*
X0522250Y0907500D03*
X0513250Y0976000D03*
X0513250Y0989000D03*
X0512750Y0920500D03*
X0512750Y0907500D03*
X0503750Y0976000D03*
X0503750Y0989000D03*
X0503250Y0920500D03*
X0503250Y0907500D03*
X0494250Y0976000D03*
X0494250Y0989000D03*
X0493750Y0920500D03*
X0493750Y0907500D03*
X0560250Y0920500D03*
X0560250Y0907500D03*
X0484250Y0920500D03*
X0484250Y0907500D03*
X0475250Y0976000D03*
X0475250Y0989000D03*
X0474750Y0920500D03*
X0474750Y0907500D03*
X0465750Y0976000D03*
X0465750Y0989000D03*
X0465250Y0920500D03*
X0465250Y0907500D03*
X0456250Y0976000D03*
X0456250Y0989000D03*
X0455750Y0920500D03*
X0455750Y0907500D03*
X0446750Y0976000D03*
X0446750Y0989000D03*
X0446250Y0920500D03*
X0446250Y0907500D03*
X0437250Y0976000D03*
X0437250Y0989000D03*
X0436750Y0920500D03*
X0436750Y0907500D03*
X0427750Y0976000D03*
X0427750Y0989000D03*
X0427250Y0920500D03*
X0427250Y0907500D03*
X0418250Y0976000D03*
X0418250Y0989000D03*
X0417750Y0920500D03*
X0417750Y0907500D03*
X0598750Y0976000D03*
X0598750Y0989000D03*
X0598250Y0920500D03*
X0598250Y0907500D03*
X0589250Y0976000D03*
X0589250Y0989000D03*
X0588750Y0920500D03*
X0588750Y0907500D03*
X0579750Y0976000D03*
X0579750Y0989000D03*
X0579250Y0920500D03*
X0579250Y0907500D03*
X0570250Y0976000D03*
X0570250Y0989000D03*
X0569750Y0920500D03*
X0569750Y0907500D03*
X0560750Y0976000D03*
X0560750Y0989000D03*
X1086250Y0010000D02*
G01*
D104*
D119*
X1101250Y0430000D03*
X1101250Y0025000D03*
X1401250Y0025000D03*
X1401250Y0430000D03*
D11*
X1300120Y0029130D03*
X1192620Y0029130D03*
D13*
X1288870Y0031630D03*
X1293870Y0031630D03*
X1293870Y0026630D03*
X1288870Y0026630D03*
X1273870Y0026630D03*
X1268870Y0026630D03*
X1278870Y0026630D03*
X1283870Y0026630D03*
X1283870Y0031630D03*
X1278870Y0031630D03*
X1268870Y0031630D03*
X1273870Y0031630D03*
X1218870Y0026630D03*
X1213870Y0026630D03*
X1203870Y0026630D03*
X1208870Y0026630D03*
X1208870Y0031630D03*
X1203870Y0031630D03*
X1213870Y0031630D03*
X1218870Y0031630D03*
X1198870Y0031630D03*
X1198870Y0026630D03*
X1223870Y0026630D03*
X1223870Y0031630D03*
X1253870Y0031630D03*
X1248870Y0031630D03*
X1258870Y0031630D03*
X1263870Y0031630D03*
X1243870Y0031630D03*
X1238870Y0031630D03*
X1228870Y0031630D03*
X1233870Y0031630D03*
X1233870Y0026630D03*
X1228870Y0026630D03*
X1238870Y0026630D03*
X1243870Y0026630D03*
X1263870Y0026630D03*
X1258870Y0026630D03*
X1248870Y0026630D03*
X1253870Y0026630D03*
D47*
X1393370Y0467130D03*
X1307370Y0467130D03*
D75*
X1330370Y0460130D03*
D53*
X1330370Y0470130D03*
X1340370Y0460130D03*
X1340370Y0470130D03*
X1350370Y0460130D03*
X1350370Y0470130D03*
X1360370Y0460130D03*
X1360370Y0470130D03*
X1370370Y0460130D03*
X1370370Y0470130D03*
D58*
X1126870Y0354630D03*
X1126870Y0341630D03*
X1141870Y0271630D03*
X1141870Y0284630D03*
X1126870Y0144630D03*
X1126870Y0131630D03*
X1111870Y0144630D03*
X1111870Y0131630D03*
X1201870Y0271630D03*
X1201870Y0284630D03*
X1201870Y0201630D03*
X1201870Y0214630D03*
X1171870Y0144630D03*
X1171870Y0131630D03*
X1111870Y0284630D03*
X1111870Y0271630D03*
X1141870Y0131630D03*
X1141870Y0144630D03*
X1141870Y0201630D03*
X1141870Y0214630D03*
X1111870Y0354630D03*
X1111870Y0341630D03*
X1366870Y0214630D03*
X1366870Y0201630D03*
X1366870Y0284630D03*
X1366870Y0271630D03*
X1111870Y0214630D03*
X1111870Y0201630D03*
X1126870Y0284630D03*
X1126870Y0271630D03*
X1126870Y0214630D03*
X1126870Y0201630D03*
X1186870Y0214630D03*
X1186870Y0201630D03*
X1246870Y0214630D03*
X1246870Y0201630D03*
X1246870Y0284630D03*
X1246870Y0271630D03*
X1306870Y0284630D03*
X1306870Y0271630D03*
X1306870Y0214630D03*
X1306870Y0201630D03*
X1186870Y0284630D03*
X1186870Y0271630D03*
X1246870Y0354630D03*
X1246870Y0341630D03*
X1231870Y0144630D03*
X1231870Y0131630D03*
X1321870Y0201630D03*
X1321870Y0214630D03*
X1321870Y0271630D03*
X1321870Y0284630D03*
X1321870Y0341630D03*
X1321870Y0354630D03*
X1351870Y0354630D03*
X1351870Y0341630D03*
X1381870Y0131130D03*
X1381870Y0144130D03*
X1351870Y0284630D03*
X1351870Y0271630D03*
X1366870Y0144130D03*
X1366870Y0131130D03*
X1291870Y0284630D03*
X1291870Y0271630D03*
X1291870Y0214630D03*
X1291870Y0201630D03*
X1261870Y0341630D03*
X1261870Y0354630D03*
X1261870Y0201630D03*
X1261870Y0214630D03*
X1306870Y0144630D03*
X1306870Y0131630D03*
X1291870Y0144630D03*
X1291870Y0131630D03*
X1261870Y0271630D03*
X1261870Y0284630D03*
X1291870Y0354630D03*
X1291870Y0341630D03*
X1321870Y0131630D03*
X1321870Y0144630D03*
X1306870Y0354630D03*
X1306870Y0341630D03*
X1351870Y0214630D03*
X1351870Y0201630D03*
X1366870Y0354630D03*
X1366870Y0341630D03*
X1351870Y0144130D03*
X1351870Y0131130D03*
X1381870Y0201630D03*
X1381870Y0214630D03*
X1381870Y0341630D03*
X1381870Y0354630D03*
X1381870Y0271630D03*
X1381870Y0284630D03*
X1186870Y0144630D03*
X1186870Y0131630D03*
X1171870Y0354630D03*
X1171870Y0341630D03*
X1141870Y0341630D03*
X1141870Y0354630D03*
X1246870Y0144630D03*
X1246870Y0131630D03*
X1231870Y0284630D03*
X1231870Y0271630D03*
X1171870Y0214630D03*
X1171870Y0201630D03*
X1171870Y0284630D03*
X1171870Y0271630D03*
X1186870Y0354630D03*
X1186870Y0341630D03*
X1261870Y0131630D03*
X1261870Y0144630D03*
X1231870Y0214630D03*
X1231870Y0201630D03*
X1231870Y0354630D03*
X1231870Y0341630D03*
X1201870Y0341630D03*
X1201870Y0354630D03*
X1201870Y0131630D03*
X1201870Y0144630D03*
D44*
X1201870Y0328130D03*
X1191870Y0328130D03*
X1181870Y0328130D03*
X1171870Y0328130D03*
X1171870Y0298130D03*
X1181870Y0298130D03*
X1191870Y0298130D03*
X1201870Y0298130D03*
X1141870Y0188130D03*
X1131870Y0188130D03*
X1121870Y0188130D03*
X1111870Y0188130D03*
X1111870Y0158130D03*
X1121870Y0158130D03*
X1131870Y0158130D03*
X1141870Y0158130D03*
X1261870Y0118130D03*
X1251870Y0118130D03*
X1241870Y0118130D03*
X1231870Y0118130D03*
X1231870Y0088130D03*
X1241870Y0088130D03*
X1251870Y0088130D03*
X1261870Y0088130D03*
X1321870Y0328130D03*
X1311870Y0328130D03*
X1301870Y0328130D03*
X1291870Y0328130D03*
X1291870Y0298130D03*
X1301870Y0298130D03*
X1311870Y0298130D03*
X1321870Y0298130D03*
X1261870Y0328130D03*
X1251870Y0328130D03*
X1241870Y0328130D03*
X1231870Y0328130D03*
X1231870Y0298130D03*
X1241870Y0298130D03*
X1251870Y0298130D03*
X1261870Y0298130D03*
X1141870Y0258130D03*
X1131870Y0258130D03*
X1121870Y0258130D03*
X1111870Y0258130D03*
X1111870Y0228130D03*
X1121870Y0228130D03*
X1131870Y0228130D03*
X1141870Y0228130D03*
X1261870Y0188130D03*
X1251870Y0188130D03*
X1241870Y0188130D03*
X1231870Y0188130D03*
X1231870Y0158130D03*
X1241870Y0158130D03*
X1251870Y0158130D03*
X1261870Y0158130D03*
X1141870Y0328130D03*
X1131870Y0328130D03*
X1121870Y0328130D03*
X1111870Y0328130D03*
X1111870Y0298130D03*
X1121870Y0298130D03*
X1131870Y0298130D03*
X1141870Y0298130D03*
X1321870Y0188130D03*
X1311870Y0188130D03*
X1301870Y0188130D03*
X1291870Y0188130D03*
X1291870Y0158130D03*
X1301870Y0158130D03*
X1311870Y0158130D03*
X1321870Y0158130D03*
X1321870Y0118130D03*
X1311870Y0118130D03*
X1301870Y0118130D03*
X1291870Y0118130D03*
X1291870Y0088130D03*
X1301870Y0088130D03*
X1311870Y0088130D03*
X1321870Y0088130D03*
X1381870Y0118130D03*
X1371870Y0118130D03*
X1361870Y0118130D03*
X1351870Y0118130D03*
X1351870Y0088130D03*
X1361870Y0088130D03*
X1371870Y0088130D03*
X1381870Y0088130D03*
X1321870Y0258130D03*
X1311870Y0258130D03*
X1301870Y0258130D03*
X1291870Y0258130D03*
X1291870Y0228130D03*
X1301870Y0228130D03*
X1311870Y0228130D03*
X1321870Y0228130D03*
X1201870Y0188130D03*
X1191870Y0188130D03*
X1181870Y0188130D03*
X1171870Y0188130D03*
X1171870Y0158130D03*
X1181870Y0158130D03*
X1191870Y0158130D03*
X1201870Y0158130D03*
X1381870Y0328130D03*
X1371870Y0328130D03*
X1361870Y0328130D03*
X1351870Y0328130D03*
X1351870Y0298130D03*
X1361870Y0298130D03*
X1371870Y0298130D03*
X1381870Y0298130D03*
X1201870Y0258130D03*
X1191870Y0258130D03*
X1181870Y0258130D03*
X1171870Y0258130D03*
X1171870Y0228130D03*
X1181870Y0228130D03*
X1191870Y0228130D03*
X1201870Y0228130D03*
X1381870Y0258130D03*
X1371870Y0258130D03*
X1361870Y0258130D03*
X1351870Y0258130D03*
X1351870Y0228130D03*
X1361870Y0228130D03*
X1371870Y0228130D03*
X1381870Y0228130D03*
X1201870Y0118130D03*
X1191870Y0118130D03*
X1181870Y0118130D03*
X1171870Y0118130D03*
X1171870Y0088130D03*
X1181870Y0088130D03*
X1191870Y0088130D03*
X1201870Y0088130D03*
X1381870Y0188130D03*
X1371870Y0188130D03*
X1361870Y0188130D03*
X1351870Y0188130D03*
X1351870Y0158130D03*
X1361870Y0158130D03*
X1371870Y0158130D03*
X1381870Y0158130D03*
X1261870Y0258130D03*
X1251870Y0258130D03*
X1241870Y0258130D03*
X1231870Y0258130D03*
X1231870Y0228130D03*
X1241870Y0228130D03*
X1251870Y0228130D03*
X1261870Y0228130D03*
X1141870Y0118130D03*
X1131870Y0118130D03*
X1121870Y0118130D03*
X1111870Y0118130D03*
X1111870Y0088130D03*
X1121870Y0088130D03*
X1131870Y0088130D03*
X1141870Y0088130D03*
D105*
X1280370Y0445130D03*
X1200370Y0445130D03*
D15*
X1260370Y0475130D03*
D71*
X1230370Y0435130D03*
X1250370Y0435130D03*
X1210370Y0435130D03*
X1270370Y0435130D03*
D15*
X1220370Y0475130D03*
D22*
X1165370Y0470130D03*
D97*
X1155370Y0480130D03*
X1175370Y0480130D03*
X1175370Y0460130D03*
X1155370Y0460130D03*
D22*
X1115370Y0470130D03*
D97*
X1105370Y0480130D03*
X1125370Y0480130D03*
X1125370Y0460130D03*
X1105370Y0460130D03*
D44*
X1176870Y0445130D03*
X1163870Y0445130D03*
X1374000Y0378000D03*
X1387000Y0378000D03*
D75*
X1335250Y0392500D03*
D53*
X1335250Y0402500D03*
X1345250Y0392500D03*
X1345250Y0402500D03*
X1355250Y0392500D03*
X1355250Y0402500D03*
D75*
X1215250Y0458000D03*
D53*
X1225250Y0458000D03*
X1235250Y0458000D03*
X1245250Y0458000D03*
X1255250Y0458000D03*
X1265250Y0458000D03*
D83*
X1160370Y0430130D03*
X1180370Y0430130D03*
D86*
X1279370Y0412380D03*
X1269370Y0412380D03*
X1259370Y0412380D03*
X1249370Y0412380D03*
X1239370Y0412380D03*
X1229370Y0412380D03*
X1219370Y0412380D03*
X1209370Y0412380D03*
X1199370Y0412380D03*
X1189370Y0412380D03*
X1179370Y0412380D03*
X1169370Y0412380D03*
X1159370Y0412380D03*
D18*
X1289370Y0412380D03*
D86*
X1159370Y0382380D03*
X1169370Y0382380D03*
X1179370Y0382380D03*
X1189370Y0382380D03*
X1199370Y0382380D03*
X1209370Y0382380D03*
X1219370Y0382380D03*
X1229370Y0382380D03*
X1239370Y0382380D03*
X1249370Y0382380D03*
X1259370Y0382380D03*
X1269370Y0382380D03*
X1279370Y0382380D03*
X1289370Y0382380D03*
D76*
X1111870Y0401510D03*
X1111870Y0380250D03*
D75*
X1294750Y0435500D03*
D53*
X1294750Y0425500D03*
D75*
X1375750Y0394000D03*
D53*
X1385750Y0394000D03*
D95*
X1347250Y0447000D03*
X1342250Y0447000D03*
X1337250Y0447000D03*
X1332250Y0447000D03*
X1327250Y0447000D03*
X1322250Y0447000D03*
X1317250Y0447000D03*
X1317250Y0426000D03*
X1322250Y0426000D03*
X1327250Y0426000D03*
X1332250Y0426000D03*
X1337250Y0426000D03*
X1342250Y0426000D03*
X1347250Y0426000D03*
D58*
X1307250Y0424000D03*
X1307250Y0437000D03*
D75*
X1375750Y0405500D03*
D53*
X1385750Y0405500D03*
D60*
X1383840Y0437500D03*
X1372660Y0437500D03*
X1383840Y0427500D03*
X1372660Y0427500D03*
D58*
X1188550Y0458100D03*
X1188550Y0445100D03*
X1217150Y0346700D03*
X1217150Y0333700D03*
X1139250Y0417000D03*
X1139250Y0430000D03*
D44*
X1124750Y0383500D03*
X1137750Y0383500D03*
X1392750Y0366500D03*
X1405750Y0366500D03*
D58*
X1337100Y0346600D03*
X1337100Y0333600D03*
D44*
X1124750Y0397000D03*
X1137750Y0397000D03*
D58*
X1276650Y0346700D03*
X1276650Y0333700D03*
X1157300Y0346850D03*
X1157300Y0333850D03*
D86*
X1318480Y0385070D03*
X1300760Y0385070D03*
X1318480Y0408690D03*
X1300760Y0408690D03*
D60*
X1383840Y0417500D03*
X1372660Y0417500D03*
X1383840Y0447500D03*
X1372660Y0447500D03*
M02*
