G75*
G70*
%OFA0B0*%
%FSLAX25Y25*%
%IPPOS*%
%LPD*%
%AMOC8*
5,1,8,0,0,1.08239X$1,22.5*
%
%ADD100R,0.02000X0.04500*%
%ADD104C,0.00591*%
%ADD113R,0.03940X0.03150*%
%ADD115R,0.08000X0.06000*%
%ADD117R,0.07090X0.06290*%
%ADD130R,0.04500X0.02000*%
%ADD137R,0.05000X0.02000*%
%ADD139R,0.05510X0.02360*%
%ADD140R,0.05000X0.01500*%
%ADD141R,0.05000X0.03000*%
%ADD32R,0.14760X0.10040*%
%ADD36R,0.02360X0.05510*%
%ADD37R,0.01500X0.05000*%
%ADD81R,0.03000X0.05000*%
%ADD85R,0.06000X0.08000*%
%ADD89R,0.03150X0.03940*%
%ADD90R,0.06290X0.07090*%
X0010000Y0010000D02*
G01*
D104*
D115*
X0171850Y0320520D03*
X0171850Y0333520D03*
X0159850Y0320520D03*
X0159850Y0333520D03*
X0133250Y0321500D03*
X0133250Y0334500D03*
X0144750Y0321500D03*
X0144750Y0334500D03*
D85*
X0046000Y0155000D03*
X0059000Y0155000D03*
D115*
X0167500Y0163500D03*
X0167500Y0150500D03*
X0157500Y0150500D03*
X0157500Y0163500D03*
D85*
X0046000Y0165000D03*
X0059000Y0165000D03*
D115*
X0187500Y0150500D03*
X0187500Y0163500D03*
X0177500Y0150500D03*
X0177500Y0163500D03*
D85*
X0046000Y0175000D03*
X0059000Y0175000D03*
D115*
X0135000Y0150500D03*
X0135000Y0163500D03*
X0101500Y0214500D03*
X0101500Y0227500D03*
X0115000Y0150500D03*
X0115000Y0163500D03*
D85*
X0046000Y0135000D03*
X0059000Y0135000D03*
D115*
X0092500Y0150500D03*
X0092500Y0163500D03*
D85*
X0225750Y0092750D03*
X0238750Y0092750D03*
D117*
X0101500Y0236160D03*
X0101500Y0247340D03*
D115*
X0202500Y0083500D03*
X0202500Y0096500D03*
D117*
X0090500Y0236160D03*
X0090500Y0247340D03*
D115*
X0090500Y0214500D03*
X0090500Y0227500D03*
D130*
X0141000Y0174500D03*
X0141000Y0179500D03*
X0141000Y0184500D03*
X0141000Y0189500D03*
X0141000Y0194500D03*
X0141000Y0199500D03*
X0141000Y0204500D03*
X0120000Y0204500D03*
X0120000Y0199500D03*
X0120000Y0194500D03*
X0120000Y0189500D03*
X0120000Y0184500D03*
X0120000Y0179500D03*
X0120000Y0174500D03*
D85*
X0072500Y0109500D03*
X0082500Y0109500D03*
X0092500Y0109500D03*
X0102500Y0109500D03*
X0102500Y0139500D03*
X0092500Y0139500D03*
X0082500Y0139500D03*
X0072500Y0139500D03*
X0115000Y0109500D03*
X0125000Y0109500D03*
X0135000Y0109500D03*
X0145000Y0109500D03*
X0145000Y0139500D03*
X0135000Y0139500D03*
X0125000Y0139500D03*
X0115000Y0139500D03*
X0157500Y0109500D03*
X0167500Y0109500D03*
X0177500Y0109500D03*
X0187500Y0109500D03*
X0187500Y0139500D03*
X0177500Y0139500D03*
X0167500Y0139500D03*
X0157500Y0139500D03*
X0046000Y0145000D03*
X0059000Y0145000D03*
D115*
X0108250Y0202300D03*
X0108250Y0189300D03*
X0097800Y0189300D03*
X0097800Y0202300D03*
X0145000Y0163500D03*
X0145000Y0150500D03*
D85*
X0046000Y0125000D03*
X0059000Y0125000D03*
D115*
X0072500Y0150500D03*
X0072500Y0163500D03*
D85*
X0216500Y0112500D03*
X0203500Y0112500D03*
D115*
X0160200Y0185150D03*
X0160200Y0172150D03*
D85*
X0112100Y0178800D03*
X0099100Y0178800D03*
D115*
X0119970Y0361620D03*
X0119970Y0348620D03*
X0119970Y0326970D03*
X0119970Y0339970D03*
D85*
X0120250Y0317500D03*
X0107250Y0317500D03*
D130*
X0108920Y0331460D03*
X0108920Y0336460D03*
X0108920Y0341460D03*
X0108920Y0346460D03*
X0108920Y0351460D03*
X0108920Y0356460D03*
X0108920Y0361460D03*
X0087920Y0361460D03*
X0087920Y0356460D03*
X0087920Y0351460D03*
X0087920Y0346460D03*
X0087920Y0341460D03*
X0087920Y0336460D03*
X0087920Y0331460D03*
X0140750Y0214250D03*
X0140750Y0219250D03*
X0140750Y0224250D03*
X0140750Y0229250D03*
X0140750Y0234250D03*
X0140750Y0239250D03*
X0140750Y0244250D03*
X0119750Y0244250D03*
X0119750Y0239250D03*
X0119750Y0234250D03*
X0119750Y0229250D03*
X0119750Y0224250D03*
X0119750Y0219250D03*
X0119750Y0214250D03*
D115*
X0037250Y0270750D03*
X0037250Y0257750D03*
D113*
X0162270Y0349300D03*
X0170930Y0353050D03*
X0170930Y0345550D03*
X0135570Y0356700D03*
X0144230Y0360450D03*
X0144230Y0352950D03*
D89*
X0093750Y0302030D03*
X0097500Y0293370D03*
X0090000Y0293370D03*
D85*
X0233050Y0399300D03*
X0246050Y0399300D03*
X0258700Y0335600D03*
X0245700Y0335600D03*
X0223900Y0335600D03*
X0236900Y0335600D03*
D137*
X0223600Y0389900D03*
X0223600Y0384900D03*
X0223600Y0379900D03*
X0223600Y0374900D03*
X0223600Y0369900D03*
X0223600Y0364900D03*
X0223600Y0359900D03*
X0223600Y0354900D03*
X0223600Y0349900D03*
X0223600Y0344900D03*
X0261600Y0344900D03*
X0261600Y0349900D03*
X0261600Y0354900D03*
X0261600Y0359900D03*
X0261600Y0364900D03*
X0261600Y0369900D03*
X0261600Y0374900D03*
X0261600Y0379900D03*
X0261600Y0384900D03*
X0261600Y0389900D03*
D115*
X0221700Y0320200D03*
X0221700Y0307200D03*
X0149750Y0180550D03*
X0149750Y0193550D03*
X0087300Y0194400D03*
X0087300Y0181400D03*
X0111500Y0214550D03*
X0111500Y0227550D03*
X0088800Y0322900D03*
X0088800Y0309900D03*
X0010000Y0415000D02*
G01*
D104*
D130*
X0055000Y0460000D03*
X0055000Y0465000D03*
X0055000Y0470000D03*
X0055000Y0475000D03*
X0080000Y0475000D03*
X0080000Y0470000D03*
X0080000Y0465000D03*
X0080000Y0460000D03*
D115*
X0072500Y0436000D03*
X0072500Y0449000D03*
X0062500Y0436000D03*
X0062500Y0449000D03*
X0052500Y0449000D03*
X0052500Y0436000D03*
X0082500Y0436000D03*
X0082500Y0449000D03*
X0027500Y0474000D03*
X0027500Y0461000D03*
X0017500Y0449000D03*
X0017500Y0436000D03*
X0017500Y0461000D03*
X0017500Y0474000D03*
X0027500Y0449000D03*
X0027500Y0436000D03*
X0304400Y0010000D02*
G01*
D104*
D115*
X0345020Y0354630D03*
X0345020Y0341630D03*
X0360020Y0271630D03*
X0360020Y0284630D03*
X0345020Y0144630D03*
X0345020Y0131630D03*
X0330020Y0144630D03*
X0330020Y0131630D03*
X0420020Y0271630D03*
X0420020Y0284630D03*
X0420020Y0201630D03*
X0420020Y0214630D03*
X0390020Y0144630D03*
X0390020Y0131630D03*
X0330020Y0284630D03*
X0330020Y0271630D03*
X0360020Y0131630D03*
X0360020Y0144630D03*
X0360020Y0201630D03*
X0360020Y0214630D03*
X0330020Y0354630D03*
X0330020Y0341630D03*
X0585020Y0214630D03*
X0585020Y0201630D03*
X0585020Y0284630D03*
X0585020Y0271630D03*
X0330020Y0214630D03*
X0330020Y0201630D03*
X0345020Y0284630D03*
X0345020Y0271630D03*
X0345020Y0214630D03*
X0345020Y0201630D03*
X0405020Y0214630D03*
X0405020Y0201630D03*
X0465020Y0214630D03*
X0465020Y0201630D03*
X0465020Y0284630D03*
X0465020Y0271630D03*
X0525020Y0284630D03*
X0525020Y0271630D03*
X0525020Y0214630D03*
X0525020Y0201630D03*
X0405020Y0284630D03*
X0405020Y0271630D03*
X0465020Y0354630D03*
X0465020Y0341630D03*
X0450020Y0144630D03*
X0450020Y0131630D03*
X0540020Y0201630D03*
X0540020Y0214630D03*
X0540020Y0271630D03*
X0540020Y0284630D03*
X0540020Y0341630D03*
X0540020Y0354630D03*
X0570020Y0354630D03*
X0570020Y0341630D03*
X0600020Y0131130D03*
X0600020Y0144130D03*
X0570020Y0284630D03*
X0570020Y0271630D03*
X0585020Y0144130D03*
X0585020Y0131130D03*
X0510020Y0284630D03*
X0510020Y0271630D03*
X0510020Y0214630D03*
X0510020Y0201630D03*
X0480020Y0341630D03*
X0480020Y0354630D03*
X0480020Y0201630D03*
X0480020Y0214630D03*
X0525020Y0144630D03*
X0525020Y0131630D03*
X0510020Y0144630D03*
X0510020Y0131630D03*
X0480020Y0271630D03*
X0480020Y0284630D03*
X0510020Y0354630D03*
X0510020Y0341630D03*
X0540020Y0131630D03*
X0540020Y0144630D03*
X0525020Y0354630D03*
X0525020Y0341630D03*
X0570020Y0214630D03*
X0570020Y0201630D03*
X0585020Y0354630D03*
X0585020Y0341630D03*
X0570020Y0144130D03*
X0570020Y0131130D03*
X0600020Y0201630D03*
X0600020Y0214630D03*
X0600020Y0341630D03*
X0600020Y0354630D03*
X0600020Y0271630D03*
X0600020Y0284630D03*
X0405020Y0144630D03*
X0405020Y0131630D03*
X0390020Y0354630D03*
X0390020Y0341630D03*
X0360020Y0341630D03*
X0360020Y0354630D03*
X0465020Y0144630D03*
X0465020Y0131630D03*
X0450020Y0284630D03*
X0450020Y0271630D03*
X0390020Y0214630D03*
X0390020Y0201630D03*
X0390020Y0284630D03*
X0390020Y0271630D03*
X0405020Y0354630D03*
X0405020Y0341630D03*
X0480020Y0131630D03*
X0480020Y0144630D03*
X0450020Y0214630D03*
X0450020Y0201630D03*
X0450020Y0354630D03*
X0450020Y0341630D03*
X0420020Y0341630D03*
X0420020Y0354630D03*
X0420020Y0131630D03*
X0420020Y0144630D03*
D85*
X0420020Y0328130D03*
X0410020Y0328130D03*
X0400020Y0328130D03*
X0390020Y0328130D03*
X0390020Y0298130D03*
X0400020Y0298130D03*
X0410020Y0298130D03*
X0420020Y0298130D03*
X0360020Y0188130D03*
X0350020Y0188130D03*
X0340020Y0188130D03*
X0330020Y0188130D03*
X0330020Y0158130D03*
X0340020Y0158130D03*
X0350020Y0158130D03*
X0360020Y0158130D03*
X0480020Y0118130D03*
X0470020Y0118130D03*
X0460020Y0118130D03*
X0450020Y0118130D03*
X0450020Y0088130D03*
X0460020Y0088130D03*
X0470020Y0088130D03*
X0480020Y0088130D03*
X0540020Y0328130D03*
X0530020Y0328130D03*
X0520020Y0328130D03*
X0510020Y0328130D03*
X0510020Y0298130D03*
X0520020Y0298130D03*
X0530020Y0298130D03*
X0540020Y0298130D03*
X0480020Y0328130D03*
X0470020Y0328130D03*
X0460020Y0328130D03*
X0450020Y0328130D03*
X0450020Y0298130D03*
X0460020Y0298130D03*
X0470020Y0298130D03*
X0480020Y0298130D03*
X0360020Y0258130D03*
X0350020Y0258130D03*
X0340020Y0258130D03*
X0330020Y0258130D03*
X0330020Y0228130D03*
X0340020Y0228130D03*
X0350020Y0228130D03*
X0360020Y0228130D03*
X0480020Y0188130D03*
X0470020Y0188130D03*
X0460020Y0188130D03*
X0450020Y0188130D03*
X0450020Y0158130D03*
X0460020Y0158130D03*
X0470020Y0158130D03*
X0480020Y0158130D03*
X0360020Y0328130D03*
X0350020Y0328130D03*
X0340020Y0328130D03*
X0330020Y0328130D03*
X0330020Y0298130D03*
X0340020Y0298130D03*
X0350020Y0298130D03*
X0360020Y0298130D03*
X0540020Y0188130D03*
X0530020Y0188130D03*
X0520020Y0188130D03*
X0510020Y0188130D03*
X0510020Y0158130D03*
X0520020Y0158130D03*
X0530020Y0158130D03*
X0540020Y0158130D03*
X0540020Y0118130D03*
X0530020Y0118130D03*
X0520020Y0118130D03*
X0510020Y0118130D03*
X0510020Y0088130D03*
X0520020Y0088130D03*
X0530020Y0088130D03*
X0540020Y0088130D03*
X0600020Y0118130D03*
X0590020Y0118130D03*
X0580020Y0118130D03*
X0570020Y0118130D03*
X0570020Y0088130D03*
X0580020Y0088130D03*
X0590020Y0088130D03*
X0600020Y0088130D03*
X0540020Y0258130D03*
X0530020Y0258130D03*
X0520020Y0258130D03*
X0510020Y0258130D03*
X0510020Y0228130D03*
X0520020Y0228130D03*
X0530020Y0228130D03*
X0540020Y0228130D03*
X0420020Y0188130D03*
X0410020Y0188130D03*
X0400020Y0188130D03*
X0390020Y0188130D03*
X0390020Y0158130D03*
X0400020Y0158130D03*
X0410020Y0158130D03*
X0420020Y0158130D03*
X0600020Y0328130D03*
X0590020Y0328130D03*
X0580020Y0328130D03*
X0570020Y0328130D03*
X0570020Y0298130D03*
X0580020Y0298130D03*
X0590020Y0298130D03*
X0600020Y0298130D03*
X0420020Y0258130D03*
X0410020Y0258130D03*
X0400020Y0258130D03*
X0390020Y0258130D03*
X0390020Y0228130D03*
X0400020Y0228130D03*
X0410020Y0228130D03*
X0420020Y0228130D03*
X0600020Y0258130D03*
X0590020Y0258130D03*
X0580020Y0258130D03*
X0570020Y0258130D03*
X0570020Y0228130D03*
X0580020Y0228130D03*
X0590020Y0228130D03*
X0600020Y0228130D03*
X0420020Y0118130D03*
X0410020Y0118130D03*
X0400020Y0118130D03*
X0390020Y0118130D03*
X0390020Y0088130D03*
X0400020Y0088130D03*
X0410020Y0088130D03*
X0420020Y0088130D03*
X0600020Y0188130D03*
X0590020Y0188130D03*
X0580020Y0188130D03*
X0570020Y0188130D03*
X0570020Y0158130D03*
X0580020Y0158130D03*
X0590020Y0158130D03*
X0600020Y0158130D03*
X0480020Y0258130D03*
X0470020Y0258130D03*
X0460020Y0258130D03*
X0450020Y0258130D03*
X0450020Y0228130D03*
X0460020Y0228130D03*
X0470020Y0228130D03*
X0480020Y0228130D03*
X0360020Y0118130D03*
X0350020Y0118130D03*
X0340020Y0118130D03*
X0330020Y0118130D03*
X0330020Y0088130D03*
X0340020Y0088130D03*
X0350020Y0088130D03*
X0360020Y0088130D03*
X0395020Y0445130D03*
X0382020Y0445130D03*
X0592150Y0378000D03*
X0605150Y0378000D03*
D32*
X0330020Y0401510D03*
X0330020Y0380250D03*
D100*
X0565400Y0447000D03*
X0560400Y0447000D03*
X0555400Y0447000D03*
X0550400Y0447000D03*
X0545400Y0447000D03*
X0540400Y0447000D03*
X0535400Y0447000D03*
X0535400Y0426000D03*
X0540400Y0426000D03*
X0545400Y0426000D03*
X0550400Y0426000D03*
X0555400Y0426000D03*
X0560400Y0426000D03*
X0565400Y0426000D03*
D115*
X0525400Y0424000D03*
X0525400Y0437000D03*
D90*
X0601990Y0437500D03*
X0590810Y0437500D03*
X0601990Y0427500D03*
X0590810Y0427500D03*
D115*
X0406700Y0458100D03*
X0406700Y0445100D03*
X0435300Y0346700D03*
X0435300Y0333700D03*
X0357400Y0417000D03*
X0357400Y0430000D03*
D85*
X0342900Y0383500D03*
X0355900Y0383500D03*
X0610900Y0366500D03*
X0623900Y0366500D03*
D115*
X0555250Y0346600D03*
X0555250Y0333600D03*
D85*
X0342900Y0397000D03*
X0355900Y0397000D03*
D115*
X0494800Y0346700D03*
X0494800Y0333700D03*
X0375450Y0346850D03*
X0375450Y0333850D03*
D90*
X0601990Y0417500D03*
X0590810Y0417500D03*
X0601990Y0447500D03*
X0590810Y0447500D03*
X0641900Y0010000D02*
G01*
D104*
D115*
X0682520Y0354630D03*
X0682520Y0341630D03*
X0697520Y0271630D03*
X0697520Y0284630D03*
X0682520Y0144630D03*
X0682520Y0131630D03*
X0667520Y0144630D03*
X0667520Y0131630D03*
X0757520Y0271630D03*
X0757520Y0284630D03*
X0757520Y0201630D03*
X0757520Y0214630D03*
X0727520Y0144630D03*
X0727520Y0131630D03*
X0667520Y0284630D03*
X0667520Y0271630D03*
X0697520Y0131630D03*
X0697520Y0144630D03*
X0697520Y0201630D03*
X0697520Y0214630D03*
X0667520Y0354630D03*
X0667520Y0341630D03*
X0922520Y0214630D03*
X0922520Y0201630D03*
X0922520Y0284630D03*
X0922520Y0271630D03*
X0667520Y0214630D03*
X0667520Y0201630D03*
X0682520Y0284630D03*
X0682520Y0271630D03*
X0682520Y0214630D03*
X0682520Y0201630D03*
X0742520Y0214630D03*
X0742520Y0201630D03*
X0802520Y0214630D03*
X0802520Y0201630D03*
X0802520Y0284630D03*
X0802520Y0271630D03*
X0862520Y0284630D03*
X0862520Y0271630D03*
X0862520Y0214630D03*
X0862520Y0201630D03*
X0742520Y0284630D03*
X0742520Y0271630D03*
X0802520Y0354630D03*
X0802520Y0341630D03*
X0787520Y0144630D03*
X0787520Y0131630D03*
X0877520Y0201630D03*
X0877520Y0214630D03*
X0877520Y0271630D03*
X0877520Y0284630D03*
X0877520Y0341630D03*
X0877520Y0354630D03*
X0907520Y0354630D03*
X0907520Y0341630D03*
X0937520Y0131130D03*
X0937520Y0144130D03*
X0907520Y0284630D03*
X0907520Y0271630D03*
X0922520Y0144130D03*
X0922520Y0131130D03*
X0847520Y0284630D03*
X0847520Y0271630D03*
X0847520Y0214630D03*
X0847520Y0201630D03*
X0817520Y0341630D03*
X0817520Y0354630D03*
X0817520Y0201630D03*
X0817520Y0214630D03*
X0862520Y0144630D03*
X0862520Y0131630D03*
X0847520Y0144630D03*
X0847520Y0131630D03*
X0817520Y0271630D03*
X0817520Y0284630D03*
X0847520Y0354630D03*
X0847520Y0341630D03*
X0877520Y0131630D03*
X0877520Y0144630D03*
X0862520Y0354630D03*
X0862520Y0341630D03*
X0907520Y0214630D03*
X0907520Y0201630D03*
X0922520Y0354630D03*
X0922520Y0341630D03*
X0907520Y0144130D03*
X0907520Y0131130D03*
X0937520Y0201630D03*
X0937520Y0214630D03*
X0937520Y0341630D03*
X0937520Y0354630D03*
X0937520Y0271630D03*
X0937520Y0284630D03*
X0742520Y0144630D03*
X0742520Y0131630D03*
X0727520Y0354630D03*
X0727520Y0341630D03*
X0697520Y0341630D03*
X0697520Y0354630D03*
X0802520Y0144630D03*
X0802520Y0131630D03*
X0787520Y0284630D03*
X0787520Y0271630D03*
X0727520Y0214630D03*
X0727520Y0201630D03*
X0727520Y0284630D03*
X0727520Y0271630D03*
X0742520Y0354630D03*
X0742520Y0341630D03*
X0817520Y0131630D03*
X0817520Y0144630D03*
X0787520Y0214630D03*
X0787520Y0201630D03*
X0787520Y0354630D03*
X0787520Y0341630D03*
X0757520Y0341630D03*
X0757520Y0354630D03*
X0757520Y0131630D03*
X0757520Y0144630D03*
D85*
X0757520Y0328130D03*
X0747520Y0328130D03*
X0737520Y0328130D03*
X0727520Y0328130D03*
X0727520Y0298130D03*
X0737520Y0298130D03*
X0747520Y0298130D03*
X0757520Y0298130D03*
X0697520Y0188130D03*
X0687520Y0188130D03*
X0677520Y0188130D03*
X0667520Y0188130D03*
X0667520Y0158130D03*
X0677520Y0158130D03*
X0687520Y0158130D03*
X0697520Y0158130D03*
X0817520Y0118130D03*
X0807520Y0118130D03*
X0797520Y0118130D03*
X0787520Y0118130D03*
X0787520Y0088130D03*
X0797520Y0088130D03*
X0807520Y0088130D03*
X0817520Y0088130D03*
X0877520Y0328130D03*
X0867520Y0328130D03*
X0857520Y0328130D03*
X0847520Y0328130D03*
X0847520Y0298130D03*
X0857520Y0298130D03*
X0867520Y0298130D03*
X0877520Y0298130D03*
X0817520Y0328130D03*
X0807520Y0328130D03*
X0797520Y0328130D03*
X0787520Y0328130D03*
X0787520Y0298130D03*
X0797520Y0298130D03*
X0807520Y0298130D03*
X0817520Y0298130D03*
X0697520Y0258130D03*
X0687520Y0258130D03*
X0677520Y0258130D03*
X0667520Y0258130D03*
X0667520Y0228130D03*
X0677520Y0228130D03*
X0687520Y0228130D03*
X0697520Y0228130D03*
X0817520Y0188130D03*
X0807520Y0188130D03*
X0797520Y0188130D03*
X0787520Y0188130D03*
X0787520Y0158130D03*
X0797520Y0158130D03*
X0807520Y0158130D03*
X0817520Y0158130D03*
X0697520Y0328130D03*
X0687520Y0328130D03*
X0677520Y0328130D03*
X0667520Y0328130D03*
X0667520Y0298130D03*
X0677520Y0298130D03*
X0687520Y0298130D03*
X0697520Y0298130D03*
X0877520Y0188130D03*
X0867520Y0188130D03*
X0857520Y0188130D03*
X0847520Y0188130D03*
X0847520Y0158130D03*
X0857520Y0158130D03*
X0867520Y0158130D03*
X0877520Y0158130D03*
X0877520Y0118130D03*
X0867520Y0118130D03*
X0857520Y0118130D03*
X0847520Y0118130D03*
X0847520Y0088130D03*
X0857520Y0088130D03*
X0867520Y0088130D03*
X0877520Y0088130D03*
X0937520Y0118130D03*
X0927520Y0118130D03*
X0917520Y0118130D03*
X0907520Y0118130D03*
X0907520Y0088130D03*
X0917520Y0088130D03*
X0927520Y0088130D03*
X0937520Y0088130D03*
X0877520Y0258130D03*
X0867520Y0258130D03*
X0857520Y0258130D03*
X0847520Y0258130D03*
X0847520Y0228130D03*
X0857520Y0228130D03*
X0867520Y0228130D03*
X0877520Y0228130D03*
X0757520Y0188130D03*
X0747520Y0188130D03*
X0737520Y0188130D03*
X0727520Y0188130D03*
X0727520Y0158130D03*
X0737520Y0158130D03*
X0747520Y0158130D03*
X0757520Y0158130D03*
X0937520Y0328130D03*
X0927520Y0328130D03*
X0917520Y0328130D03*
X0907520Y0328130D03*
X0907520Y0298130D03*
X0917520Y0298130D03*
X0927520Y0298130D03*
X0937520Y0298130D03*
X0757520Y0258130D03*
X0747520Y0258130D03*
X0737520Y0258130D03*
X0727520Y0258130D03*
X0727520Y0228130D03*
X0737520Y0228130D03*
X0747520Y0228130D03*
X0757520Y0228130D03*
X0937520Y0258130D03*
X0927520Y0258130D03*
X0917520Y0258130D03*
X0907520Y0258130D03*
X0907520Y0228130D03*
X0917520Y0228130D03*
X0927520Y0228130D03*
X0937520Y0228130D03*
X0757520Y0118130D03*
X0747520Y0118130D03*
X0737520Y0118130D03*
X0727520Y0118130D03*
X0727520Y0088130D03*
X0737520Y0088130D03*
X0747520Y0088130D03*
X0757520Y0088130D03*
X0937520Y0188130D03*
X0927520Y0188130D03*
X0917520Y0188130D03*
X0907520Y0188130D03*
X0907520Y0158130D03*
X0917520Y0158130D03*
X0927520Y0158130D03*
X0937520Y0158130D03*
X0817520Y0258130D03*
X0807520Y0258130D03*
X0797520Y0258130D03*
X0787520Y0258130D03*
X0787520Y0228130D03*
X0797520Y0228130D03*
X0807520Y0228130D03*
X0817520Y0228130D03*
X0697520Y0118130D03*
X0687520Y0118130D03*
X0677520Y0118130D03*
X0667520Y0118130D03*
X0667520Y0088130D03*
X0677520Y0088130D03*
X0687520Y0088130D03*
X0697520Y0088130D03*
X0732520Y0445130D03*
X0719520Y0445130D03*
X0929650Y0378000D03*
X0942650Y0378000D03*
D32*
X0667520Y0401510D03*
X0667520Y0380250D03*
D100*
X0902900Y0447000D03*
X0897900Y0447000D03*
X0892900Y0447000D03*
X0887900Y0447000D03*
X0882900Y0447000D03*
X0877900Y0447000D03*
X0872900Y0447000D03*
X0872900Y0426000D03*
X0877900Y0426000D03*
X0882900Y0426000D03*
X0887900Y0426000D03*
X0892900Y0426000D03*
X0897900Y0426000D03*
X0902900Y0426000D03*
D115*
X0862900Y0424000D03*
X0862900Y0437000D03*
D90*
X0939490Y0437500D03*
X0928310Y0437500D03*
X0939490Y0427500D03*
X0928310Y0427500D03*
D115*
X0744200Y0458100D03*
X0744200Y0445100D03*
X0772800Y0346700D03*
X0772800Y0333700D03*
X0694900Y0417000D03*
X0694900Y0430000D03*
D85*
X0680400Y0383500D03*
X0693400Y0383500D03*
X0948400Y0366500D03*
X0961400Y0366500D03*
D115*
X0892750Y0346600D03*
X0892750Y0333600D03*
D85*
X0680400Y0397000D03*
X0693400Y0397000D03*
D115*
X0832300Y0346700D03*
X0832300Y0333700D03*
X0712950Y0346850D03*
X0712950Y0333850D03*
D90*
X0939490Y0417500D03*
X0928310Y0417500D03*
X0939490Y0447500D03*
X0928310Y0447500D03*
X0979400Y0010000D02*
G01*
D104*
D36*
X1202650Y0078500D03*
X1202650Y0099500D03*
X1197650Y0078500D03*
X1192650Y0078500D03*
X1187650Y0078500D03*
X1197650Y0099500D03*
X1192650Y0099500D03*
X1187650Y0099500D03*
D100*
X1264650Y0025500D03*
X1269650Y0025500D03*
X1274650Y0025500D03*
X1279650Y0025500D03*
X1284650Y0025500D03*
X1289650Y0025500D03*
X1294650Y0025500D03*
X1294650Y0046500D03*
X1289650Y0046500D03*
X1284650Y0046500D03*
X1279650Y0046500D03*
X1274650Y0046500D03*
X1269650Y0046500D03*
X1264650Y0046500D03*
D115*
X1228250Y0165300D03*
X1228250Y0178300D03*
D85*
X1199650Y0110000D03*
X1212650Y0110000D03*
X1223650Y0099000D03*
X1210650Y0099000D03*
D115*
X1212300Y0076750D03*
X1212300Y0089750D03*
D37*
X1360290Y0109200D03*
X1357730Y0109200D03*
X1355170Y0109200D03*
X1352610Y0109200D03*
X1352610Y0092200D03*
X1355170Y0092200D03*
X1357730Y0092200D03*
X1360290Y0092200D03*
D115*
X1297050Y0177800D03*
X1297050Y0164800D03*
D85*
X0993650Y0062200D03*
X1006650Y0062200D03*
D90*
X0993460Y0052000D03*
X1004640Y0052000D03*
D100*
X1363550Y0069500D03*
X1358550Y0069500D03*
X1353550Y0069500D03*
X1348550Y0069500D03*
X1343550Y0069500D03*
X1338550Y0069500D03*
X1333550Y0069500D03*
X1333550Y0048500D03*
X1338550Y0048500D03*
X1343550Y0048500D03*
X1348550Y0048500D03*
X1353550Y0048500D03*
X1358550Y0048500D03*
X1363550Y0048500D03*
X1224550Y0051000D03*
X1229550Y0051000D03*
X1234550Y0051000D03*
X1239550Y0051000D03*
X1244550Y0051000D03*
X1249550Y0051000D03*
X1254550Y0051000D03*
X1254550Y0072000D03*
X1249550Y0072000D03*
X1244550Y0072000D03*
X1239550Y0072000D03*
X1234550Y0072000D03*
X1229550Y0072000D03*
X1224550Y0072000D03*
D81*
X1322450Y0103000D03*
X1317450Y0103000D03*
X1312450Y0103000D03*
X1307450Y0103000D03*
X1302450Y0103000D03*
X1297450Y0103000D03*
X1292450Y0103000D03*
X1287450Y0103000D03*
X1282450Y0103000D03*
X1277450Y0103000D03*
X1272450Y0103000D03*
X1267450Y0103000D03*
X1322450Y0065000D03*
X1317450Y0065000D03*
X1312450Y0065000D03*
X1307450Y0065000D03*
X1302450Y0065000D03*
X1297450Y0065000D03*
X1292450Y0065000D03*
X1287450Y0065000D03*
X1282450Y0065000D03*
X1277450Y0065000D03*
X1272450Y0065000D03*
X1267450Y0065000D03*
D36*
X1308350Y0046500D03*
X1308350Y0025500D03*
X1313350Y0046500D03*
X1318350Y0046500D03*
X1323350Y0046500D03*
X1313350Y0025500D03*
X1318350Y0025500D03*
X1323350Y0025500D03*
D85*
X1357350Y0166500D03*
X1344350Y0166500D03*
D115*
X1286750Y0164800D03*
X1286750Y0177800D03*
X1245750Y0028100D03*
X1245750Y0041100D03*
X1203350Y0034800D03*
X1203350Y0047800D03*
X1235350Y0028100D03*
X1235350Y0041100D03*
X1224950Y0028100D03*
X1224950Y0041100D03*
D85*
X1244350Y0084700D03*
X1257350Y0084700D03*
X1236150Y0084700D03*
X1223150Y0084700D03*
D89*
X1244250Y0099470D03*
X1240500Y0108130D03*
X1248000Y0108130D03*
D100*
X1092550Y0090000D03*
X1097550Y0090000D03*
X1102550Y0090000D03*
X1107550Y0090000D03*
X1112550Y0090000D03*
X1117550Y0090000D03*
X1122550Y0090000D03*
X1122550Y0111000D03*
X1117550Y0111000D03*
X1112550Y0111000D03*
X1107550Y0111000D03*
X1102550Y0111000D03*
X1097550Y0111000D03*
X1092550Y0111000D03*
D85*
X1088300Y0123550D03*
X1101300Y0123550D03*
X1040850Y0061000D03*
X1053850Y0061000D03*
X1040750Y0050400D03*
X1053750Y0050400D03*
D90*
X1064360Y0060400D03*
X1075540Y0060400D03*
X1064310Y0050950D03*
X1075490Y0050950D03*
D115*
X1081450Y0097900D03*
X1081450Y0110900D03*
X1366430Y0166840D03*
X1366430Y0153840D03*
X1368030Y0094040D03*
X1368030Y0107040D03*
D85*
X1354300Y0040700D03*
X1367300Y0040700D03*
X1179900Y0103450D03*
X1166900Y0103450D03*
X1186750Y0070350D03*
X1199750Y0070350D03*
X1281500Y0017050D03*
X1268500Y0017050D03*
D115*
X1214600Y0053450D03*
X1214600Y0066450D03*
X1330250Y0020400D03*
X1330250Y0033400D03*
X0010000Y0487500D02*
G01*
D104*
X0979400Y0194000D02*
G01*
D104*
D115*
X1141250Y0504520D03*
X1141250Y0517520D03*
X1129250Y0504520D03*
X1129250Y0517520D03*
X1102650Y0505500D03*
X1102650Y0518500D03*
X1114150Y0505500D03*
X1114150Y0518500D03*
D85*
X1015400Y0339000D03*
X1028400Y0339000D03*
D115*
X1136900Y0347500D03*
X1136900Y0334500D03*
X1126900Y0334500D03*
X1126900Y0347500D03*
D85*
X1015400Y0349000D03*
X1028400Y0349000D03*
D115*
X1156900Y0334500D03*
X1156900Y0347500D03*
X1146900Y0334500D03*
X1146900Y0347500D03*
D85*
X1015400Y0359000D03*
X1028400Y0359000D03*
D115*
X1104400Y0334500D03*
X1104400Y0347500D03*
X1070900Y0398500D03*
X1070900Y0411500D03*
X1084400Y0334500D03*
X1084400Y0347500D03*
D85*
X1015400Y0319000D03*
X1028400Y0319000D03*
D115*
X1061900Y0334500D03*
X1061900Y0347500D03*
D85*
X1195150Y0276750D03*
X1208150Y0276750D03*
D117*
X1070900Y0420160D03*
X1070900Y0431340D03*
D115*
X1171900Y0267500D03*
X1171900Y0280500D03*
D117*
X1059900Y0420160D03*
X1059900Y0431340D03*
D115*
X1059900Y0398500D03*
X1059900Y0411500D03*
D130*
X1110400Y0358500D03*
X1110400Y0363500D03*
X1110400Y0368500D03*
X1110400Y0373500D03*
X1110400Y0378500D03*
X1110400Y0383500D03*
X1110400Y0388500D03*
X1089400Y0388500D03*
X1089400Y0383500D03*
X1089400Y0378500D03*
X1089400Y0373500D03*
X1089400Y0368500D03*
X1089400Y0363500D03*
X1089400Y0358500D03*
D85*
X1041900Y0293500D03*
X1051900Y0293500D03*
X1061900Y0293500D03*
X1071900Y0293500D03*
X1071900Y0323500D03*
X1061900Y0323500D03*
X1051900Y0323500D03*
X1041900Y0323500D03*
X1084400Y0293500D03*
X1094400Y0293500D03*
X1104400Y0293500D03*
X1114400Y0293500D03*
X1114400Y0323500D03*
X1104400Y0323500D03*
X1094400Y0323500D03*
X1084400Y0323500D03*
X1126900Y0293500D03*
X1136900Y0293500D03*
X1146900Y0293500D03*
X1156900Y0293500D03*
X1156900Y0323500D03*
X1146900Y0323500D03*
X1136900Y0323500D03*
X1126900Y0323500D03*
X1015400Y0329000D03*
X1028400Y0329000D03*
D115*
X1077650Y0386300D03*
X1077650Y0373300D03*
X1067200Y0373300D03*
X1067200Y0386300D03*
X1114400Y0347500D03*
X1114400Y0334500D03*
D85*
X1015400Y0309000D03*
X1028400Y0309000D03*
D115*
X1041900Y0334500D03*
X1041900Y0347500D03*
D85*
X1185900Y0296500D03*
X1172900Y0296500D03*
D115*
X1129600Y0369150D03*
X1129600Y0356150D03*
D85*
X1081500Y0362800D03*
X1068500Y0362800D03*
D115*
X1089370Y0545620D03*
X1089370Y0532620D03*
X1089370Y0510970D03*
X1089370Y0523970D03*
D85*
X1089650Y0501500D03*
X1076650Y0501500D03*
D130*
X1078320Y0515460D03*
X1078320Y0520460D03*
X1078320Y0525460D03*
X1078320Y0530460D03*
X1078320Y0535460D03*
X1078320Y0540460D03*
X1078320Y0545460D03*
X1057320Y0545460D03*
X1057320Y0540460D03*
X1057320Y0535460D03*
X1057320Y0530460D03*
X1057320Y0525460D03*
X1057320Y0520460D03*
X1057320Y0515460D03*
X1110150Y0398250D03*
X1110150Y0403250D03*
X1110150Y0408250D03*
X1110150Y0413250D03*
X1110150Y0418250D03*
X1110150Y0423250D03*
X1110150Y0428250D03*
X1089150Y0428250D03*
X1089150Y0423250D03*
X1089150Y0418250D03*
X1089150Y0413250D03*
X1089150Y0408250D03*
X1089150Y0403250D03*
X1089150Y0398250D03*
D115*
X1006650Y0454750D03*
X1006650Y0441750D03*
D113*
X1131670Y0533300D03*
X1140330Y0537050D03*
X1140330Y0529550D03*
X1104970Y0540700D03*
X1113630Y0544450D03*
X1113630Y0536950D03*
D89*
X1063150Y0486030D03*
X1066900Y0477370D03*
X1059400Y0477370D03*
D85*
X1202450Y0583300D03*
X1215450Y0583300D03*
X1228100Y0519600D03*
X1215100Y0519600D03*
X1193300Y0519600D03*
X1206300Y0519600D03*
D137*
X1193000Y0573900D03*
X1193000Y0568900D03*
X1193000Y0563900D03*
X1193000Y0558900D03*
X1193000Y0553900D03*
X1193000Y0548900D03*
X1193000Y0543900D03*
X1193000Y0538900D03*
X1193000Y0533900D03*
X1193000Y0528900D03*
X1231000Y0528900D03*
X1231000Y0533900D03*
X1231000Y0538900D03*
X1231000Y0543900D03*
X1231000Y0548900D03*
X1231000Y0553900D03*
X1231000Y0558900D03*
X1231000Y0563900D03*
X1231000Y0568900D03*
X1231000Y0573900D03*
D115*
X1191100Y0504200D03*
X1191100Y0491200D03*
X1119150Y0364550D03*
X1119150Y0377550D03*
X1056700Y0378400D03*
X1056700Y0365400D03*
X1080900Y0398550D03*
X1080900Y0411550D03*
X1058200Y0506900D03*
X1058200Y0493900D03*
X1273800Y0194000D02*
G01*
D104*
D100*
X1318800Y0234000D03*
X1323800Y0234000D03*
X1328800Y0234000D03*
X1333800Y0234000D03*
X1333800Y0209000D03*
X1328800Y0209000D03*
X1323800Y0209000D03*
X1318800Y0209000D03*
D85*
X1294800Y0216500D03*
X1307800Y0216500D03*
X1294800Y0226500D03*
X1307800Y0226500D03*
X1307800Y0236500D03*
X1294800Y0236500D03*
X1294800Y0206500D03*
X1307800Y0206500D03*
X1332800Y0261500D03*
X1319800Y0261500D03*
X1307800Y0271500D03*
X1294800Y0271500D03*
X1319800Y0271500D03*
X1332800Y0271500D03*
X1307800Y0261500D03*
X1294800Y0261500D03*
X1346300Y0194000D02*
G01*
D104*
D85*
X1365300Y0267500D03*
X1352300Y0267500D03*
X1365300Y0334000D03*
X1352300Y0334000D03*
X1420800Y0333500D03*
X1433800Y0333500D03*
X1365300Y0324500D03*
X1352300Y0324500D03*
X1420800Y0324000D03*
X1433800Y0324000D03*
X1365300Y0315000D03*
X1352300Y0315000D03*
X1420800Y0314500D03*
X1433800Y0314500D03*
X1365300Y0305500D03*
X1352300Y0305500D03*
X1420800Y0305000D03*
X1433800Y0305000D03*
X1365300Y0296000D03*
X1352300Y0296000D03*
X1420800Y0295500D03*
X1433800Y0295500D03*
X1365300Y0286500D03*
X1352300Y0286500D03*
X1420800Y0286000D03*
X1433800Y0286000D03*
X1365300Y0277000D03*
X1352300Y0277000D03*
X1420800Y0276500D03*
X1433800Y0276500D03*
X1420800Y0343000D03*
X1433800Y0343000D03*
X1420800Y0267000D03*
X1433800Y0267000D03*
X1365300Y0258000D03*
X1352300Y0258000D03*
X1420800Y0257500D03*
X1433800Y0257500D03*
X1365300Y0248500D03*
X1352300Y0248500D03*
X1420800Y0248000D03*
X1433800Y0248000D03*
X1365300Y0239000D03*
X1352300Y0239000D03*
X1420800Y0238500D03*
X1433800Y0238500D03*
X1365300Y0229500D03*
X1352300Y0229500D03*
X1420800Y0229000D03*
X1433800Y0229000D03*
X1365300Y0220000D03*
X1352300Y0220000D03*
X1420800Y0219500D03*
X1433800Y0219500D03*
X1365300Y0210500D03*
X1352300Y0210500D03*
X1420800Y0210000D03*
X1433800Y0210000D03*
X1365300Y0201000D03*
X1352300Y0201000D03*
X1420800Y0200500D03*
X1433800Y0200500D03*
X1365300Y0381500D03*
X1352300Y0381500D03*
X1420800Y0381000D03*
X1433800Y0381000D03*
X1365300Y0372000D03*
X1352300Y0372000D03*
X1420800Y0371500D03*
X1433800Y0371500D03*
X1365300Y0362500D03*
X1352300Y0362500D03*
X1420800Y0362000D03*
X1433800Y0362000D03*
X1365300Y0353000D03*
X1352300Y0353000D03*
X1420800Y0352500D03*
X1433800Y0352500D03*
X1365300Y0343500D03*
X1352300Y0343500D03*
X0641900Y0497500D02*
G01*
D104*
D115*
X0682520Y0842130D03*
X0682520Y0829130D03*
X0697520Y0759130D03*
X0697520Y0772130D03*
X0682520Y0632130D03*
X0682520Y0619130D03*
X0667520Y0632130D03*
X0667520Y0619130D03*
X0757520Y0759130D03*
X0757520Y0772130D03*
X0757520Y0689130D03*
X0757520Y0702130D03*
X0727520Y0632130D03*
X0727520Y0619130D03*
X0667520Y0772130D03*
X0667520Y0759130D03*
X0697520Y0619130D03*
X0697520Y0632130D03*
X0697520Y0689130D03*
X0697520Y0702130D03*
X0667520Y0842130D03*
X0667520Y0829130D03*
X0922520Y0702130D03*
X0922520Y0689130D03*
X0922520Y0772130D03*
X0922520Y0759130D03*
X0667520Y0702130D03*
X0667520Y0689130D03*
X0682520Y0772130D03*
X0682520Y0759130D03*
X0682520Y0702130D03*
X0682520Y0689130D03*
X0742520Y0702130D03*
X0742520Y0689130D03*
X0802520Y0702130D03*
X0802520Y0689130D03*
X0802520Y0772130D03*
X0802520Y0759130D03*
X0862520Y0772130D03*
X0862520Y0759130D03*
X0862520Y0702130D03*
X0862520Y0689130D03*
X0742520Y0772130D03*
X0742520Y0759130D03*
X0802520Y0842130D03*
X0802520Y0829130D03*
X0787520Y0632130D03*
X0787520Y0619130D03*
X0877520Y0689130D03*
X0877520Y0702130D03*
X0877520Y0759130D03*
X0877520Y0772130D03*
X0877520Y0829130D03*
X0877520Y0842130D03*
X0907520Y0842130D03*
X0907520Y0829130D03*
X0937520Y0618630D03*
X0937520Y0631630D03*
X0907520Y0772130D03*
X0907520Y0759130D03*
X0922520Y0631630D03*
X0922520Y0618630D03*
X0847520Y0772130D03*
X0847520Y0759130D03*
X0847520Y0702130D03*
X0847520Y0689130D03*
X0817520Y0829130D03*
X0817520Y0842130D03*
X0817520Y0689130D03*
X0817520Y0702130D03*
X0862520Y0632130D03*
X0862520Y0619130D03*
X0847520Y0632130D03*
X0847520Y0619130D03*
X0817520Y0759130D03*
X0817520Y0772130D03*
X0847520Y0842130D03*
X0847520Y0829130D03*
X0877520Y0619130D03*
X0877520Y0632130D03*
X0862520Y0842130D03*
X0862520Y0829130D03*
X0907520Y0702130D03*
X0907520Y0689130D03*
X0922520Y0842130D03*
X0922520Y0829130D03*
X0907520Y0631630D03*
X0907520Y0618630D03*
X0937520Y0689130D03*
X0937520Y0702130D03*
X0937520Y0829130D03*
X0937520Y0842130D03*
X0937520Y0759130D03*
X0937520Y0772130D03*
X0742520Y0632130D03*
X0742520Y0619130D03*
X0727520Y0842130D03*
X0727520Y0829130D03*
X0697520Y0829130D03*
X0697520Y0842130D03*
X0802520Y0632130D03*
X0802520Y0619130D03*
X0787520Y0772130D03*
X0787520Y0759130D03*
X0727520Y0702130D03*
X0727520Y0689130D03*
X0727520Y0772130D03*
X0727520Y0759130D03*
X0742520Y0842130D03*
X0742520Y0829130D03*
X0817520Y0619130D03*
X0817520Y0632130D03*
X0787520Y0702130D03*
X0787520Y0689130D03*
X0787520Y0842130D03*
X0787520Y0829130D03*
X0757520Y0829130D03*
X0757520Y0842130D03*
X0757520Y0619130D03*
X0757520Y0632130D03*
D85*
X0757520Y0815630D03*
X0747520Y0815630D03*
X0737520Y0815630D03*
X0727520Y0815630D03*
X0727520Y0785630D03*
X0737520Y0785630D03*
X0747520Y0785630D03*
X0757520Y0785630D03*
X0697520Y0675630D03*
X0687520Y0675630D03*
X0677520Y0675630D03*
X0667520Y0675630D03*
X0667520Y0645630D03*
X0677520Y0645630D03*
X0687520Y0645630D03*
X0697520Y0645630D03*
X0817520Y0605630D03*
X0807520Y0605630D03*
X0797520Y0605630D03*
X0787520Y0605630D03*
X0787520Y0575630D03*
X0797520Y0575630D03*
X0807520Y0575630D03*
X0817520Y0575630D03*
X0877520Y0815630D03*
X0867520Y0815630D03*
X0857520Y0815630D03*
X0847520Y0815630D03*
X0847520Y0785630D03*
X0857520Y0785630D03*
X0867520Y0785630D03*
X0877520Y0785630D03*
X0817520Y0815630D03*
X0807520Y0815630D03*
X0797520Y0815630D03*
X0787520Y0815630D03*
X0787520Y0785630D03*
X0797520Y0785630D03*
X0807520Y0785630D03*
X0817520Y0785630D03*
X0697520Y0745630D03*
X0687520Y0745630D03*
X0677520Y0745630D03*
X0667520Y0745630D03*
X0667520Y0715630D03*
X0677520Y0715630D03*
X0687520Y0715630D03*
X0697520Y0715630D03*
X0817520Y0675630D03*
X0807520Y0675630D03*
X0797520Y0675630D03*
X0787520Y0675630D03*
X0787520Y0645630D03*
X0797520Y0645630D03*
X0807520Y0645630D03*
X0817520Y0645630D03*
X0697520Y0815630D03*
X0687520Y0815630D03*
X0677520Y0815630D03*
X0667520Y0815630D03*
X0667520Y0785630D03*
X0677520Y0785630D03*
X0687520Y0785630D03*
X0697520Y0785630D03*
X0877520Y0675630D03*
X0867520Y0675630D03*
X0857520Y0675630D03*
X0847520Y0675630D03*
X0847520Y0645630D03*
X0857520Y0645630D03*
X0867520Y0645630D03*
X0877520Y0645630D03*
X0877520Y0605630D03*
X0867520Y0605630D03*
X0857520Y0605630D03*
X0847520Y0605630D03*
X0847520Y0575630D03*
X0857520Y0575630D03*
X0867520Y0575630D03*
X0877520Y0575630D03*
X0937520Y0605630D03*
X0927520Y0605630D03*
X0917520Y0605630D03*
X0907520Y0605630D03*
X0907520Y0575630D03*
X0917520Y0575630D03*
X0927520Y0575630D03*
X0937520Y0575630D03*
X0877520Y0745630D03*
X0867520Y0745630D03*
X0857520Y0745630D03*
X0847520Y0745630D03*
X0847520Y0715630D03*
X0857520Y0715630D03*
X0867520Y0715630D03*
X0877520Y0715630D03*
X0757520Y0675630D03*
X0747520Y0675630D03*
X0737520Y0675630D03*
X0727520Y0675630D03*
X0727520Y0645630D03*
X0737520Y0645630D03*
X0747520Y0645630D03*
X0757520Y0645630D03*
X0937520Y0815630D03*
X0927520Y0815630D03*
X0917520Y0815630D03*
X0907520Y0815630D03*
X0907520Y0785630D03*
X0917520Y0785630D03*
X0927520Y0785630D03*
X0937520Y0785630D03*
X0757520Y0745630D03*
X0747520Y0745630D03*
X0737520Y0745630D03*
X0727520Y0745630D03*
X0727520Y0715630D03*
X0737520Y0715630D03*
X0747520Y0715630D03*
X0757520Y0715630D03*
X0937520Y0745630D03*
X0927520Y0745630D03*
X0917520Y0745630D03*
X0907520Y0745630D03*
X0907520Y0715630D03*
X0917520Y0715630D03*
X0927520Y0715630D03*
X0937520Y0715630D03*
X0757520Y0605630D03*
X0747520Y0605630D03*
X0737520Y0605630D03*
X0727520Y0605630D03*
X0727520Y0575630D03*
X0737520Y0575630D03*
X0747520Y0575630D03*
X0757520Y0575630D03*
X0937520Y0675630D03*
X0927520Y0675630D03*
X0917520Y0675630D03*
X0907520Y0675630D03*
X0907520Y0645630D03*
X0917520Y0645630D03*
X0927520Y0645630D03*
X0937520Y0645630D03*
X0817520Y0745630D03*
X0807520Y0745630D03*
X0797520Y0745630D03*
X0787520Y0745630D03*
X0787520Y0715630D03*
X0797520Y0715630D03*
X0807520Y0715630D03*
X0817520Y0715630D03*
X0697520Y0605630D03*
X0687520Y0605630D03*
X0677520Y0605630D03*
X0667520Y0605630D03*
X0667520Y0575630D03*
X0677520Y0575630D03*
X0687520Y0575630D03*
X0697520Y0575630D03*
X0732520Y0932630D03*
X0719520Y0932630D03*
X0929650Y0865500D03*
X0942650Y0865500D03*
D32*
X0667520Y0889010D03*
X0667520Y0867750D03*
D100*
X0902900Y0934500D03*
X0897900Y0934500D03*
X0892900Y0934500D03*
X0887900Y0934500D03*
X0882900Y0934500D03*
X0877900Y0934500D03*
X0872900Y0934500D03*
X0872900Y0913500D03*
X0877900Y0913500D03*
X0882900Y0913500D03*
X0887900Y0913500D03*
X0892900Y0913500D03*
X0897900Y0913500D03*
X0902900Y0913500D03*
D115*
X0862900Y0911500D03*
X0862900Y0924500D03*
D90*
X0939490Y0925000D03*
X0928310Y0925000D03*
X0939490Y0915000D03*
X0928310Y0915000D03*
D115*
X0744200Y0945600D03*
X0744200Y0932600D03*
X0772800Y0834200D03*
X0772800Y0821200D03*
X0694900Y0904500D03*
X0694900Y0917500D03*
D85*
X0680400Y0871000D03*
X0693400Y0871000D03*
X0948400Y0854000D03*
X0961400Y0854000D03*
D115*
X0892750Y0834100D03*
X0892750Y0821100D03*
D85*
X0680400Y0884500D03*
X0693400Y0884500D03*
D115*
X0832300Y0834200D03*
X0832300Y0821200D03*
X0712950Y0834350D03*
X0712950Y0821350D03*
D90*
X0939490Y0905000D03*
X0928310Y0905000D03*
X0939490Y0935000D03*
X0928310Y0935000D03*
X0010000Y0885000D02*
G01*
D104*
D100*
X0055000Y0925000D03*
X0060000Y0925000D03*
X0065000Y0925000D03*
X0070000Y0925000D03*
X0070000Y0900000D03*
X0065000Y0900000D03*
X0060000Y0900000D03*
X0055000Y0900000D03*
D85*
X0031000Y0907500D03*
X0044000Y0907500D03*
X0031000Y0917500D03*
X0044000Y0917500D03*
X0044000Y0927500D03*
X0031000Y0927500D03*
X0031000Y0897500D03*
X0044000Y0897500D03*
X0069000Y0952500D03*
X0056000Y0952500D03*
X0044000Y0962500D03*
X0031000Y0962500D03*
X0056000Y0962500D03*
X0069000Y0962500D03*
X0044000Y0952500D03*
X0031000Y0952500D03*
X0304400Y0497500D02*
G01*
D104*
D115*
X0345020Y0842130D03*
X0345020Y0829130D03*
X0360020Y0759130D03*
X0360020Y0772130D03*
X0345020Y0632130D03*
X0345020Y0619130D03*
X0330020Y0632130D03*
X0330020Y0619130D03*
X0420020Y0759130D03*
X0420020Y0772130D03*
X0420020Y0689130D03*
X0420020Y0702130D03*
X0390020Y0632130D03*
X0390020Y0619130D03*
X0330020Y0772130D03*
X0330020Y0759130D03*
X0360020Y0619130D03*
X0360020Y0632130D03*
X0360020Y0689130D03*
X0360020Y0702130D03*
X0330020Y0842130D03*
X0330020Y0829130D03*
X0585020Y0702130D03*
X0585020Y0689130D03*
X0585020Y0772130D03*
X0585020Y0759130D03*
X0330020Y0702130D03*
X0330020Y0689130D03*
X0345020Y0772130D03*
X0345020Y0759130D03*
X0345020Y0702130D03*
X0345020Y0689130D03*
X0405020Y0702130D03*
X0405020Y0689130D03*
X0465020Y0702130D03*
X0465020Y0689130D03*
X0465020Y0772130D03*
X0465020Y0759130D03*
X0525020Y0772130D03*
X0525020Y0759130D03*
X0525020Y0702130D03*
X0525020Y0689130D03*
X0405020Y0772130D03*
X0405020Y0759130D03*
X0465020Y0842130D03*
X0465020Y0829130D03*
X0450020Y0632130D03*
X0450020Y0619130D03*
X0540020Y0689130D03*
X0540020Y0702130D03*
X0540020Y0759130D03*
X0540020Y0772130D03*
X0540020Y0829130D03*
X0540020Y0842130D03*
X0570020Y0842130D03*
X0570020Y0829130D03*
X0600020Y0618630D03*
X0600020Y0631630D03*
X0570020Y0772130D03*
X0570020Y0759130D03*
X0585020Y0631630D03*
X0585020Y0618630D03*
X0510020Y0772130D03*
X0510020Y0759130D03*
X0510020Y0702130D03*
X0510020Y0689130D03*
X0480020Y0829130D03*
X0480020Y0842130D03*
X0480020Y0689130D03*
X0480020Y0702130D03*
X0525020Y0632130D03*
X0525020Y0619130D03*
X0510020Y0632130D03*
X0510020Y0619130D03*
X0480020Y0759130D03*
X0480020Y0772130D03*
X0510020Y0842130D03*
X0510020Y0829130D03*
X0540020Y0619130D03*
X0540020Y0632130D03*
X0525020Y0842130D03*
X0525020Y0829130D03*
X0570020Y0702130D03*
X0570020Y0689130D03*
X0585020Y0842130D03*
X0585020Y0829130D03*
X0570020Y0631630D03*
X0570020Y0618630D03*
X0600020Y0689130D03*
X0600020Y0702130D03*
X0600020Y0829130D03*
X0600020Y0842130D03*
X0600020Y0759130D03*
X0600020Y0772130D03*
X0405020Y0632130D03*
X0405020Y0619130D03*
X0390020Y0842130D03*
X0390020Y0829130D03*
X0360020Y0829130D03*
X0360020Y0842130D03*
X0465020Y0632130D03*
X0465020Y0619130D03*
X0450020Y0772130D03*
X0450020Y0759130D03*
X0390020Y0702130D03*
X0390020Y0689130D03*
X0390020Y0772130D03*
X0390020Y0759130D03*
X0405020Y0842130D03*
X0405020Y0829130D03*
X0480020Y0619130D03*
X0480020Y0632130D03*
X0450020Y0702130D03*
X0450020Y0689130D03*
X0450020Y0842130D03*
X0450020Y0829130D03*
X0420020Y0829130D03*
X0420020Y0842130D03*
X0420020Y0619130D03*
X0420020Y0632130D03*
D85*
X0420020Y0815630D03*
X0410020Y0815630D03*
X0400020Y0815630D03*
X0390020Y0815630D03*
X0390020Y0785630D03*
X0400020Y0785630D03*
X0410020Y0785630D03*
X0420020Y0785630D03*
X0360020Y0675630D03*
X0350020Y0675630D03*
X0340020Y0675630D03*
X0330020Y0675630D03*
X0330020Y0645630D03*
X0340020Y0645630D03*
X0350020Y0645630D03*
X0360020Y0645630D03*
X0480020Y0605630D03*
X0470020Y0605630D03*
X0460020Y0605630D03*
X0450020Y0605630D03*
X0450020Y0575630D03*
X0460020Y0575630D03*
X0470020Y0575630D03*
X0480020Y0575630D03*
X0540020Y0815630D03*
X0530020Y0815630D03*
X0520020Y0815630D03*
X0510020Y0815630D03*
X0510020Y0785630D03*
X0520020Y0785630D03*
X0530020Y0785630D03*
X0540020Y0785630D03*
X0480020Y0815630D03*
X0470020Y0815630D03*
X0460020Y0815630D03*
X0450020Y0815630D03*
X0450020Y0785630D03*
X0460020Y0785630D03*
X0470020Y0785630D03*
X0480020Y0785630D03*
X0360020Y0745630D03*
X0350020Y0745630D03*
X0340020Y0745630D03*
X0330020Y0745630D03*
X0330020Y0715630D03*
X0340020Y0715630D03*
X0350020Y0715630D03*
X0360020Y0715630D03*
X0480020Y0675630D03*
X0470020Y0675630D03*
X0460020Y0675630D03*
X0450020Y0675630D03*
X0450020Y0645630D03*
X0460020Y0645630D03*
X0470020Y0645630D03*
X0480020Y0645630D03*
X0360020Y0815630D03*
X0350020Y0815630D03*
X0340020Y0815630D03*
X0330020Y0815630D03*
X0330020Y0785630D03*
X0340020Y0785630D03*
X0350020Y0785630D03*
X0360020Y0785630D03*
X0540020Y0675630D03*
X0530020Y0675630D03*
X0520020Y0675630D03*
X0510020Y0675630D03*
X0510020Y0645630D03*
X0520020Y0645630D03*
X0530020Y0645630D03*
X0540020Y0645630D03*
X0540020Y0605630D03*
X0530020Y0605630D03*
X0520020Y0605630D03*
X0510020Y0605630D03*
X0510020Y0575630D03*
X0520020Y0575630D03*
X0530020Y0575630D03*
X0540020Y0575630D03*
X0600020Y0605630D03*
X0590020Y0605630D03*
X0580020Y0605630D03*
X0570020Y0605630D03*
X0570020Y0575630D03*
X0580020Y0575630D03*
X0590020Y0575630D03*
X0600020Y0575630D03*
X0540020Y0745630D03*
X0530020Y0745630D03*
X0520020Y0745630D03*
X0510020Y0745630D03*
X0510020Y0715630D03*
X0520020Y0715630D03*
X0530020Y0715630D03*
X0540020Y0715630D03*
X0420020Y0675630D03*
X0410020Y0675630D03*
X0400020Y0675630D03*
X0390020Y0675630D03*
X0390020Y0645630D03*
X0400020Y0645630D03*
X0410020Y0645630D03*
X0420020Y0645630D03*
X0600020Y0815630D03*
X0590020Y0815630D03*
X0580020Y0815630D03*
X0570020Y0815630D03*
X0570020Y0785630D03*
X0580020Y0785630D03*
X0590020Y0785630D03*
X0600020Y0785630D03*
X0420020Y0745630D03*
X0410020Y0745630D03*
X0400020Y0745630D03*
X0390020Y0745630D03*
X0390020Y0715630D03*
X0400020Y0715630D03*
X0410020Y0715630D03*
X0420020Y0715630D03*
X0600020Y0745630D03*
X0590020Y0745630D03*
X0580020Y0745630D03*
X0570020Y0745630D03*
X0570020Y0715630D03*
X0580020Y0715630D03*
X0590020Y0715630D03*
X0600020Y0715630D03*
X0420020Y0605630D03*
X0410020Y0605630D03*
X0400020Y0605630D03*
X0390020Y0605630D03*
X0390020Y0575630D03*
X0400020Y0575630D03*
X0410020Y0575630D03*
X0420020Y0575630D03*
X0600020Y0675630D03*
X0590020Y0675630D03*
X0580020Y0675630D03*
X0570020Y0675630D03*
X0570020Y0645630D03*
X0580020Y0645630D03*
X0590020Y0645630D03*
X0600020Y0645630D03*
X0480020Y0745630D03*
X0470020Y0745630D03*
X0460020Y0745630D03*
X0450020Y0745630D03*
X0450020Y0715630D03*
X0460020Y0715630D03*
X0470020Y0715630D03*
X0480020Y0715630D03*
X0360020Y0605630D03*
X0350020Y0605630D03*
X0340020Y0605630D03*
X0330020Y0605630D03*
X0330020Y0575630D03*
X0340020Y0575630D03*
X0350020Y0575630D03*
X0360020Y0575630D03*
X0395020Y0932630D03*
X0382020Y0932630D03*
X0592150Y0865500D03*
X0605150Y0865500D03*
D32*
X0330020Y0889010D03*
X0330020Y0867750D03*
D100*
X0565400Y0934500D03*
X0560400Y0934500D03*
X0555400Y0934500D03*
X0550400Y0934500D03*
X0545400Y0934500D03*
X0540400Y0934500D03*
X0535400Y0934500D03*
X0535400Y0913500D03*
X0540400Y0913500D03*
X0545400Y0913500D03*
X0550400Y0913500D03*
X0555400Y0913500D03*
X0560400Y0913500D03*
X0565400Y0913500D03*
D115*
X0525400Y0911500D03*
X0525400Y0924500D03*
D90*
X0601990Y0925000D03*
X0590810Y0925000D03*
X0601990Y0915000D03*
X0590810Y0915000D03*
D115*
X0406700Y0945600D03*
X0406700Y0932600D03*
X0435300Y0834200D03*
X0435300Y0821200D03*
X0357400Y0904500D03*
X0357400Y0917500D03*
D85*
X0342900Y0871000D03*
X0355900Y0871000D03*
X0610900Y0854000D03*
X0623900Y0854000D03*
D115*
X0555250Y0834100D03*
X0555250Y0821100D03*
D85*
X0342900Y0884500D03*
X0355900Y0884500D03*
D115*
X0494800Y0834200D03*
X0494800Y0821200D03*
X0375450Y0834350D03*
X0375450Y0821350D03*
D90*
X0601990Y0905000D03*
X0590810Y0905000D03*
X0601990Y0935000D03*
X0590810Y0935000D03*
X0979400Y0599000D02*
G01*
D104*
D139*
X1087400Y0822250D03*
X1066400Y0822250D03*
X1087400Y0817250D03*
X1087400Y0812250D03*
X1087400Y0807250D03*
X1066400Y0817250D03*
X1066400Y0812250D03*
X1066400Y0807250D03*
D130*
X1140400Y0884250D03*
X1140400Y0889250D03*
X1140400Y0894250D03*
X1140400Y0899250D03*
X1140400Y0904250D03*
X1140400Y0909250D03*
X1140400Y0914250D03*
X1119400Y0914250D03*
X1119400Y0909250D03*
X1119400Y0904250D03*
X1119400Y0899250D03*
X1119400Y0894250D03*
X1119400Y0889250D03*
X1119400Y0884250D03*
D85*
X1000600Y0847850D03*
X0987600Y0847850D03*
D115*
X1055900Y0819250D03*
X1055900Y0832250D03*
X1066900Y0843250D03*
X1066900Y0830250D03*
D85*
X1089150Y0831900D03*
X1076150Y0831900D03*
D140*
X1056700Y0979890D03*
X1056700Y0977330D03*
X1056700Y0974770D03*
X1056700Y0972210D03*
X1073700Y0972210D03*
X1073700Y0974770D03*
X1073700Y0977330D03*
X1073700Y0979890D03*
D85*
X0988100Y0916650D03*
X1001100Y0916650D03*
D115*
X1103700Y0613250D03*
X1103700Y0626250D03*
D117*
X1113900Y0613060D03*
X1113900Y0624240D03*
D130*
X1096400Y0983150D03*
X1096400Y0978150D03*
X1096400Y0973150D03*
X1096400Y0968150D03*
X1096400Y0963150D03*
X1096400Y0958150D03*
X1096400Y0953150D03*
X1117400Y0953150D03*
X1117400Y0958150D03*
X1117400Y0963150D03*
X1117400Y0968150D03*
X1117400Y0973150D03*
X1117400Y0978150D03*
X1117400Y0983150D03*
X1114900Y0844150D03*
X1114900Y0849150D03*
X1114900Y0854150D03*
X1114900Y0859150D03*
X1114900Y0864150D03*
X1114900Y0869150D03*
X1114900Y0874150D03*
X1093900Y0874150D03*
X1093900Y0869150D03*
X1093900Y0864150D03*
X1093900Y0859150D03*
X1093900Y0854150D03*
X1093900Y0849150D03*
X1093900Y0844150D03*
D141*
X1062900Y0942050D03*
X1062900Y0937050D03*
X1062900Y0932050D03*
X1062900Y0927050D03*
X1062900Y0922050D03*
X1062900Y0917050D03*
X1062900Y0912050D03*
X1062900Y0907050D03*
X1062900Y0902050D03*
X1062900Y0897050D03*
X1062900Y0892050D03*
X1062900Y0887050D03*
X1100900Y0942050D03*
X1100900Y0937050D03*
X1100900Y0932050D03*
X1100900Y0927050D03*
X1100900Y0922050D03*
X1100900Y0917050D03*
X1100900Y0912050D03*
X1100900Y0907050D03*
X1100900Y0902050D03*
X1100900Y0897050D03*
X1100900Y0892050D03*
X1100900Y0887050D03*
D139*
X1119400Y0927950D03*
X1140400Y0927950D03*
X1119400Y0932950D03*
X1119400Y0937950D03*
X1119400Y0942950D03*
X1140400Y0932950D03*
X1140400Y0937950D03*
X1140400Y0942950D03*
D115*
X0999400Y0976950D03*
X0999400Y0963950D03*
D85*
X1001100Y0906350D03*
X0988100Y0906350D03*
X1137800Y0865350D03*
X1124800Y0865350D03*
X1131100Y0822950D03*
X1118100Y0822950D03*
X1137800Y0854950D03*
X1124800Y0854950D03*
X1137800Y0844550D03*
X1124800Y0844550D03*
D115*
X1081200Y0863950D03*
X1081200Y0876950D03*
X1081200Y0855750D03*
X1081200Y0842750D03*
D113*
X1066430Y0863850D03*
X1057770Y0860100D03*
X1057770Y0867600D03*
D130*
X1075900Y0712150D03*
X1075900Y0717150D03*
X1075900Y0722150D03*
X1075900Y0727150D03*
X1075900Y0732150D03*
X1075900Y0737150D03*
X1075900Y0742150D03*
X1054900Y0742150D03*
X1054900Y0737150D03*
X1054900Y0732150D03*
X1054900Y0727150D03*
X1054900Y0722150D03*
X1054900Y0717150D03*
X1054900Y0712150D03*
D115*
X1042350Y0707900D03*
X1042350Y0720900D03*
X1104900Y0660450D03*
X1104900Y0673450D03*
X1115500Y0660350D03*
X1115500Y0673350D03*
D117*
X1105500Y0683960D03*
X1105500Y0695140D03*
X1114950Y0683910D03*
X1114950Y0695090D03*
D85*
X1068000Y0701050D03*
X1055000Y0701050D03*
X0999060Y0986030D03*
X1012060Y0986030D03*
X1071860Y0987630D03*
X1058860Y0987630D03*
D115*
X1125200Y0973900D03*
X1125200Y0986900D03*
X1062450Y0799500D03*
X1062450Y0786500D03*
X1095550Y0806350D03*
X1095550Y0819350D03*
X1148850Y0901100D03*
X1148850Y0888100D03*
D85*
X1112450Y0834200D03*
X1099450Y0834200D03*
X1145500Y0949850D03*
X1132500Y0949850D03*
X1273800Y0286500D02*
G01*
D104*
D100*
X1318800Y0326500D03*
X1323800Y0326500D03*
X1328800Y0326500D03*
X1333800Y0326500D03*
X1333800Y0301500D03*
X1328800Y0301500D03*
X1323800Y0301500D03*
X1318800Y0301500D03*
D85*
X1294800Y0309000D03*
X1307800Y0309000D03*
X1294800Y0319000D03*
X1307800Y0319000D03*
X1307800Y0329000D03*
X1294800Y0329000D03*
X1294800Y0299000D03*
X1307800Y0299000D03*
X1332800Y0354000D03*
X1319800Y0354000D03*
X1307800Y0364000D03*
X1294800Y0364000D03*
X1319800Y0364000D03*
X1332800Y0364000D03*
X1307800Y0354000D03*
X1294800Y0354000D03*
X0082500Y0885000D02*
G01*
D104*
D115*
X0156000Y0958500D03*
X0156000Y0971500D03*
X0222500Y0958500D03*
X0222500Y0971500D03*
X0222000Y0903000D03*
X0222000Y0890000D03*
X0213000Y0958500D03*
X0213000Y0971500D03*
X0212500Y0903000D03*
X0212500Y0890000D03*
X0203500Y0958500D03*
X0203500Y0971500D03*
X0203000Y0903000D03*
X0203000Y0890000D03*
X0194000Y0958500D03*
X0194000Y0971500D03*
X0193500Y0903000D03*
X0193500Y0890000D03*
X0184500Y0958500D03*
X0184500Y0971500D03*
X0184000Y0903000D03*
X0184000Y0890000D03*
X0175000Y0958500D03*
X0175000Y0971500D03*
X0174500Y0903000D03*
X0174500Y0890000D03*
X0165500Y0958500D03*
X0165500Y0971500D03*
X0165000Y0903000D03*
X0165000Y0890000D03*
X0231500Y0903000D03*
X0231500Y0890000D03*
X0155500Y0903000D03*
X0155500Y0890000D03*
X0146500Y0958500D03*
X0146500Y0971500D03*
X0146000Y0903000D03*
X0146000Y0890000D03*
X0137000Y0958500D03*
X0137000Y0971500D03*
X0136500Y0903000D03*
X0136500Y0890000D03*
X0127500Y0958500D03*
X0127500Y0971500D03*
X0127000Y0903000D03*
X0127000Y0890000D03*
X0118000Y0958500D03*
X0118000Y0971500D03*
X0117500Y0903000D03*
X0117500Y0890000D03*
X0108500Y0958500D03*
X0108500Y0971500D03*
X0108000Y0903000D03*
X0108000Y0890000D03*
X0099000Y0958500D03*
X0099000Y0971500D03*
X0098500Y0903000D03*
X0098500Y0890000D03*
X0089500Y0958500D03*
X0089500Y0971500D03*
X0089000Y0903000D03*
X0089000Y0890000D03*
X0270000Y0958500D03*
X0270000Y0971500D03*
X0269500Y0903000D03*
X0269500Y0890000D03*
X0260500Y0958500D03*
X0260500Y0971500D03*
X0260000Y0903000D03*
X0260000Y0890000D03*
X0251000Y0958500D03*
X0251000Y0971500D03*
X0250500Y0903000D03*
X0250500Y0890000D03*
X0241500Y0958500D03*
X0241500Y0971500D03*
X0241000Y0903000D03*
X0241000Y0890000D03*
X0232000Y0958500D03*
X0232000Y0971500D03*
X1273800Y0399000D02*
G01*
D104*
D85*
X1292800Y0472500D03*
X1279800Y0472500D03*
X1292800Y0539000D03*
X1279800Y0539000D03*
X1348300Y0538500D03*
X1361300Y0538500D03*
X1292800Y0529500D03*
X1279800Y0529500D03*
X1348300Y0529000D03*
X1361300Y0529000D03*
X1292800Y0520000D03*
X1279800Y0520000D03*
X1348300Y0519500D03*
X1361300Y0519500D03*
X1292800Y0510500D03*
X1279800Y0510500D03*
X1348300Y0510000D03*
X1361300Y0510000D03*
X1292800Y0501000D03*
X1279800Y0501000D03*
X1348300Y0500500D03*
X1361300Y0500500D03*
X1292800Y0491500D03*
X1279800Y0491500D03*
X1348300Y0491000D03*
X1361300Y0491000D03*
X1292800Y0482000D03*
X1279800Y0482000D03*
X1348300Y0481500D03*
X1361300Y0481500D03*
X1348300Y0548000D03*
X1361300Y0548000D03*
X1348300Y0472000D03*
X1361300Y0472000D03*
X1292800Y0463000D03*
X1279800Y0463000D03*
X1348300Y0462500D03*
X1361300Y0462500D03*
X1292800Y0453500D03*
X1279800Y0453500D03*
X1348300Y0453000D03*
X1361300Y0453000D03*
X1292800Y0444000D03*
X1279800Y0444000D03*
X1348300Y0443500D03*
X1361300Y0443500D03*
X1292800Y0434500D03*
X1279800Y0434500D03*
X1348300Y0434000D03*
X1361300Y0434000D03*
X1292800Y0425000D03*
X1279800Y0425000D03*
X1348300Y0424500D03*
X1361300Y0424500D03*
X1292800Y0415500D03*
X1279800Y0415500D03*
X1348300Y0415000D03*
X1361300Y0415000D03*
X1292800Y0406000D03*
X1279800Y0406000D03*
X1348300Y0405500D03*
X1361300Y0405500D03*
X1292800Y0586500D03*
X1279800Y0586500D03*
X1348300Y0586000D03*
X1361300Y0586000D03*
X1292800Y0577000D03*
X1279800Y0577000D03*
X1348300Y0576500D03*
X1361300Y0576500D03*
X1292800Y0567500D03*
X1279800Y0567500D03*
X1348300Y0567000D03*
X1361300Y0567000D03*
X1292800Y0558000D03*
X1279800Y0558000D03*
X1348300Y0557500D03*
X1361300Y0557500D03*
X1292800Y0548500D03*
X1279800Y0548500D03*
X1163400Y0604000D02*
G01*
D104*
M02*
