G75*
G70*
%OFA0B0*%
%FSLAX25Y25*%
%IPPOS*%
%LPD*%
%AMOC8*
5,1,8,0,0,1.08239X$1,22.5*
%
%ADD102C,0.00000*%
%ADD104C,0.00591*%
%ADD121C,0.00394*%
%ADD61C,0.01500*%
X0010000Y0010000D02*
G01*
D104*
X0010000Y0010000D02*
X0010000Y0186500D01*
X0403750Y0010000D02*
X0010000Y0010000D01*
X0403750Y0186500D02*
X0403750Y0010000D01*
X0010000Y0186500D02*
X0403750Y0186500D01*
X0010000Y0194000D02*
G01*
D104*
D121*
X0075000Y0194000D02*
X0075000Y0279000D01*
X0010000Y0194000D02*
X0075000Y0194000D01*
X0010000Y0279000D02*
X0010000Y0194000D01*
X0010000Y0279000D02*
X0075000Y0279000D01*
X0411250Y0010000D02*
G01*
D104*
D61*
X0741250Y0490000D02*
X0411250Y0490000D01*
X0741250Y0010000D02*
X0741250Y0490000D01*
X0411250Y0010000D02*
X0741250Y0010000D01*
X0411250Y0490000D02*
X0411250Y0010000D01*
X0116850Y0194000D02*
G01*
D104*
D61*
X0403750Y0591500D02*
X0116850Y0591500D01*
X0403750Y0194000D02*
X0403750Y0591500D01*
X0116850Y0194000D02*
X0403750Y0194000D01*
X0116850Y0194000D02*
X0116850Y0591500D01*
X0411250Y0497500D02*
G01*
D104*
D61*
X0698150Y0895000D02*
X0411250Y0895000D01*
X0698150Y0497500D02*
X0698150Y0895000D01*
X0411250Y0497500D02*
X0698150Y0497500D01*
X0411250Y0497500D02*
X0411250Y0895000D01*
X0206250Y0599000D02*
G01*
D104*
D61*
X0206250Y0599000D02*
X0206250Y0691500D01*
X0403750Y0599000D02*
X0206250Y0599000D01*
X0403750Y0691500D02*
X0403750Y0599000D01*
X0206250Y0691500D02*
X0403750Y0691500D01*
X0013750Y0699000D02*
G01*
D102*
D61*
X0108750Y0969000D02*
X0108750Y0749000D01*
X0308750Y0969000D02*
X0308750Y0749000D01*
X0403750Y0969000D02*
X0308750Y0969000D01*
X0403750Y0699000D02*
X0403750Y0969000D01*
X0013750Y0699000D02*
X0403750Y0699000D01*
X0013750Y0969000D02*
X0013750Y0699000D01*
X0013750Y0969000D02*
X0108750Y0969000D01*
X0108750Y0749000D02*
X0308750Y0749000D01*
X0705650Y0497500D02*
G01*
D104*
D61*
X1035650Y0977500D02*
X0705650Y0977500D01*
X1035650Y0497500D02*
X1035650Y0977500D01*
X0705650Y0497500D02*
X1035650Y0497500D01*
X0705650Y0977500D02*
X0705650Y0497500D01*
X0044350Y0286500D02*
G01*
D104*
D121*
X0109350Y0286500D02*
X0109350Y0371500D01*
X0044350Y0286500D02*
X0109350Y0286500D01*
X0044350Y0371500D02*
X0044350Y0286500D01*
X0044350Y0371500D02*
X0109350Y0371500D01*
X0133750Y0599000D02*
G01*
D104*
D121*
X0198750Y0599000D02*
X0198750Y0684000D01*
X0133750Y0599000D02*
X0198750Y0599000D01*
X0133750Y0684000D02*
X0133750Y0599000D01*
X0133750Y0684000D02*
X0198750Y0684000D01*
X0748750Y0010000D02*
G01*
D104*
D61*
X1078750Y0490000D02*
X0748750Y0490000D01*
X1078750Y0010000D02*
X1078750Y0490000D01*
X0748750Y0010000D02*
X1078750Y0010000D01*
X0748750Y0490000D02*
X0748750Y0010000D01*
X1043150Y0497500D02*
G01*
D102*
D61*
X1138150Y0767500D02*
X1138150Y0547500D01*
X1338150Y0767500D02*
X1338150Y0547500D01*
X1433150Y0767500D02*
X1338150Y0767500D01*
X1433150Y0497500D02*
X1433150Y0767500D01*
X1043150Y0497500D02*
X1433150Y0497500D01*
X1043150Y0767500D02*
X1043150Y0497500D01*
X1043150Y0767500D02*
X1138150Y0767500D01*
X1138150Y0547500D02*
X1338150Y0547500D01*
X0010000Y0379000D02*
G01*
D104*
D121*
X0075000Y0379000D02*
X0075000Y0464000D01*
X0010000Y0379000D02*
X0075000Y0379000D01*
X0010000Y0464000D02*
X0010000Y0379000D01*
X0010000Y0464000D02*
X0075000Y0464000D01*
X1043150Y0775000D02*
G01*
D104*
X1043150Y0775000D02*
X1043150Y0951500D01*
X1436900Y0775000D02*
X1043150Y0775000D01*
X1436900Y0951500D02*
X1436900Y0775000D01*
X1043150Y0951500D02*
X1436900Y0951500D01*
X0016850Y0471500D02*
G01*
D104*
D61*
X0109350Y0471500D02*
X0016850Y0471500D01*
X0109350Y0669000D02*
X0109350Y0471500D01*
X0016850Y0669000D02*
X0109350Y0669000D01*
X0016850Y0471500D02*
X0016850Y0669000D01*
X0411250Y0902500D02*
G01*
D104*
D61*
X0411250Y0902500D02*
X0411250Y0995000D01*
X0608750Y0902500D02*
X0411250Y0902500D01*
X0608750Y0995000D02*
X0608750Y0902500D01*
X0411250Y0995000D02*
X0608750Y0995000D01*
X1086250Y0010000D02*
G01*
D104*
D61*
X1416250Y0490000D02*
X1086250Y0490000D01*
X1416250Y0010000D02*
X1416250Y0490000D01*
X1086250Y0010000D02*
X1416250Y0010000D01*
X1086250Y0490000D02*
X1086250Y0010000D01*
M02*
