G75*
G70*
%OFA0B0*%
%FSLAX25Y25*%
%IPPOS*%
%LPD*%
%AMOC8*
5,1,8,0,0,1.08239X$1,22.5*
%
%ADD10C,0.05500*%
%ADD101C,0.13575*%
%ADD102C,0.00000*%
%ADD104C,0.00591*%
%ADD105C,0.12000*%
%ADD109C,0.15355*%
%ADD11C,0.07000*%
%ADD111R,0.21290X0.21290*%
%ADD118R,0.11575X0.11575*%
%ADD119C,0.18000*%
%ADD123C,0.13810*%
%ADD129R,0.07575X0.09575*%
%ADD13C,0.05940*%
%ADD135O,0.12000X0.08000*%
%ADD14R,0.12000X0.12000*%
%ADD15C,0.17710*%
%ADD16C,0.13386*%
%ADD18R,0.07500X0.07500*%
%ADD22C,0.11449*%
%ADD34R,0.07575X0.07575*%
%ADD40C,0.17575*%
%ADD43C,0.07175*%
%ADD44R,0.08000X0.10000*%
%ADD45C,0.15780*%
%ADD46R,0.07075X0.07075*%
%ADD47C,0.14000*%
%ADD53C,0.08000*%
%ADD58R,0.10000X0.08000*%
%ADD63R,0.05500X0.05500*%
%ADD68C,0.07075*%
%ADD71C,0.14500*%
%ADD75R,0.08000X0.08000*%
%ADD76R,0.16760X0.12040*%
%ADD83C,0.07600*%
%ADD84C,0.07575*%
%ADD86C,0.07500*%
%ADD93R,0.09000X0.09000*%
%ADD95R,0.04000X0.06500*%
%ADD96C,0.17500*%
%ADD97C,0.11843*%
%ADD99C,0.13811*%
X0010000Y0010000D02*
G01*
D104*
D101*
X0029750Y0029500D03*
X0115750Y0029500D03*
D34*
X0092750Y0036500D03*
D84*
X0092750Y0026500D03*
X0082750Y0036500D03*
X0082750Y0026500D03*
X0072750Y0036500D03*
X0072750Y0026500D03*
X0062750Y0036500D03*
X0062750Y0026500D03*
X0052750Y0036500D03*
X0052750Y0026500D03*
D40*
X0369000Y0088250D03*
X0177750Y0088250D03*
D16*
X0147450Y0017340D03*
D118*
X0147450Y0067720D03*
X0163990Y0067720D03*
X0180510Y0067720D03*
X0197050Y0067720D03*
X0147450Y0046080D03*
X0163990Y0046080D03*
X0180510Y0046080D03*
X0197050Y0046080D03*
D16*
X0197050Y0017340D03*
D101*
X0115750Y0171000D03*
X0029750Y0171000D03*
D34*
X0052750Y0164000D03*
D84*
X0052750Y0174000D03*
X0062750Y0164000D03*
X0062750Y0174000D03*
X0072750Y0164000D03*
X0072750Y0174000D03*
X0082750Y0164000D03*
X0082750Y0174000D03*
X0092750Y0164000D03*
X0092750Y0174000D03*
D109*
X0192750Y0155000D03*
X0152750Y0155000D03*
D84*
X0162750Y0135000D03*
X0172750Y0135000D03*
D68*
X0397210Y0121390D03*
X0379490Y0121390D03*
X0397210Y0145010D03*
X0379490Y0145010D03*
D34*
X0246050Y0177000D03*
D84*
X0246050Y0167000D03*
X0236050Y0177000D03*
X0236050Y0167000D03*
X0226050Y0177000D03*
X0226050Y0167000D03*
D34*
X0345950Y0179200D03*
D84*
X0355950Y0179200D03*
X0365950Y0179200D03*
X0375950Y0179200D03*
X0385950Y0179200D03*
X0395950Y0179200D03*
D68*
X0354150Y0154000D03*
X0344150Y0154000D03*
X0334150Y0154000D03*
X0324150Y0154000D03*
X0314150Y0154000D03*
X0304150Y0154000D03*
X0294150Y0154000D03*
X0284150Y0154000D03*
X0274150Y0154000D03*
X0264150Y0154000D03*
X0254150Y0154000D03*
X0244150Y0154000D03*
X0234150Y0154000D03*
D46*
X0364150Y0154000D03*
D68*
X0234150Y0124000D03*
X0244150Y0124000D03*
X0254150Y0124000D03*
X0264150Y0124000D03*
X0274150Y0124000D03*
X0284150Y0124000D03*
X0294150Y0124000D03*
X0304150Y0124000D03*
X0314150Y0124000D03*
X0324150Y0124000D03*
X0334150Y0124000D03*
X0344150Y0124000D03*
X0354150Y0124000D03*
X0364150Y0124000D03*
D34*
X0211000Y0129500D03*
D84*
X0211000Y0139500D03*
X0211000Y0149500D03*
D43*
X0278050Y0172400D03*
X0298050Y0172400D03*
D34*
X0344850Y0164200D03*
D84*
X0354850Y0164200D03*
D34*
X0129950Y0136750D03*
D84*
X0119950Y0136750D03*
D129*
X0349350Y0045500D03*
X0336350Y0045500D03*
X0327900Y0089550D03*
X0340900Y0089550D03*
X0010000Y0194000D02*
G01*
D104*
D63*
X0017500Y0241500D03*
D10*
X0017500Y0251500D03*
X0017500Y0261500D03*
X0017500Y0271500D03*
D63*
X0017500Y0201500D03*
D10*
X0017500Y0211500D03*
X0017500Y0221500D03*
X0411250Y0010000D02*
G01*
D104*
D119*
X0426250Y0430000D03*
X0426250Y0025000D03*
X0726250Y0025000D03*
X0726250Y0430000D03*
D11*
X0625120Y0029130D03*
X0517620Y0029130D03*
D13*
X0613870Y0031630D03*
X0618870Y0031630D03*
X0618870Y0026630D03*
X0613870Y0026630D03*
X0598870Y0026630D03*
X0593870Y0026630D03*
X0603870Y0026630D03*
X0608870Y0026630D03*
X0608870Y0031630D03*
X0603870Y0031630D03*
X0593870Y0031630D03*
X0598870Y0031630D03*
X0543870Y0026630D03*
X0538870Y0026630D03*
X0528870Y0026630D03*
X0533870Y0026630D03*
X0533870Y0031630D03*
X0528870Y0031630D03*
X0538870Y0031630D03*
X0543870Y0031630D03*
X0523870Y0031630D03*
X0523870Y0026630D03*
X0548870Y0026630D03*
X0548870Y0031630D03*
X0578870Y0031630D03*
X0573870Y0031630D03*
X0583870Y0031630D03*
X0588870Y0031630D03*
X0568870Y0031630D03*
X0563870Y0031630D03*
X0553870Y0031630D03*
X0558870Y0031630D03*
X0558870Y0026630D03*
X0553870Y0026630D03*
X0563870Y0026630D03*
X0568870Y0026630D03*
X0588870Y0026630D03*
X0583870Y0026630D03*
X0573870Y0026630D03*
X0578870Y0026630D03*
D47*
X0718370Y0467130D03*
X0632370Y0467130D03*
D75*
X0655370Y0460130D03*
D53*
X0655370Y0470130D03*
X0665370Y0460130D03*
X0665370Y0470130D03*
X0675370Y0460130D03*
X0675370Y0470130D03*
X0685370Y0460130D03*
X0685370Y0470130D03*
X0695370Y0460130D03*
X0695370Y0470130D03*
D58*
X0451870Y0201630D03*
X0451870Y0214630D03*
X0706870Y0074630D03*
X0706870Y0061630D03*
X0691870Y0061630D03*
X0691870Y0074630D03*
X0676870Y0271630D03*
X0676870Y0284630D03*
X0616870Y0131630D03*
X0616870Y0144630D03*
X0646870Y0284630D03*
X0646870Y0271630D03*
X0646870Y0214630D03*
X0646870Y0201630D03*
X0616870Y0061630D03*
X0616870Y0074630D03*
X0586870Y0284630D03*
X0586870Y0271630D03*
X0586870Y0144630D03*
X0586870Y0131630D03*
X0586870Y0214630D03*
X0586870Y0201630D03*
X0571870Y0271630D03*
X0571870Y0284630D03*
X0706870Y0284630D03*
X0706870Y0271630D03*
X0706870Y0144130D03*
X0706870Y0131130D03*
X0706870Y0214630D03*
X0706870Y0201630D03*
X0691870Y0271630D03*
X0691870Y0284630D03*
X0631870Y0061630D03*
X0631870Y0074630D03*
X0676870Y0131130D03*
X0676870Y0144130D03*
X0676870Y0201630D03*
X0676870Y0214630D03*
X0646870Y0074630D03*
X0646870Y0061630D03*
X0676870Y0061630D03*
X0676870Y0074630D03*
X0466870Y0074630D03*
X0466870Y0061630D03*
X0451870Y0061630D03*
X0451870Y0074630D03*
X0466870Y0214630D03*
X0466870Y0201630D03*
X0436870Y0271630D03*
X0436870Y0284630D03*
X0436870Y0061630D03*
X0436870Y0074630D03*
X0436870Y0201630D03*
X0436870Y0214630D03*
X0451870Y0271630D03*
X0451870Y0284630D03*
X0466870Y0284630D03*
X0466870Y0271630D03*
X0496870Y0061630D03*
X0496870Y0074630D03*
X0526870Y0284630D03*
X0526870Y0271630D03*
X0511870Y0061630D03*
X0511870Y0074630D03*
X0526870Y0214630D03*
X0526870Y0201630D03*
X0496870Y0201630D03*
X0496870Y0214630D03*
X0496870Y0131630D03*
X0496870Y0144630D03*
X0496870Y0271630D03*
X0496870Y0284630D03*
X0436870Y0131630D03*
X0436870Y0144630D03*
X0556870Y0131630D03*
X0556870Y0144630D03*
X0556870Y0201630D03*
X0556870Y0214630D03*
X0556870Y0061630D03*
X0556870Y0074630D03*
X0616870Y0201630D03*
X0616870Y0214630D03*
X0646870Y0144630D03*
X0646870Y0131630D03*
X0631870Y0271630D03*
X0631870Y0284630D03*
X0616870Y0271630D03*
X0616870Y0284630D03*
X0571870Y0061630D03*
X0571870Y0074630D03*
X0586870Y0074630D03*
X0586870Y0061630D03*
X0556870Y0271630D03*
X0556870Y0284630D03*
X0526870Y0144630D03*
X0526870Y0131630D03*
X0526870Y0074630D03*
X0526870Y0061630D03*
X0511870Y0271630D03*
X0511870Y0284630D03*
X0466870Y0144630D03*
X0466870Y0131630D03*
X0571870Y0201630D03*
X0571870Y0214630D03*
X0571870Y0131630D03*
X0571870Y0144630D03*
X0631870Y0131630D03*
X0631870Y0144630D03*
X0631870Y0201630D03*
X0631870Y0214630D03*
X0691870Y0201630D03*
X0691870Y0214630D03*
X0691870Y0131130D03*
X0691870Y0144130D03*
D44*
X0696750Y0447500D03*
X0709750Y0447500D03*
D58*
X0451870Y0131630D03*
X0451870Y0144630D03*
X0511870Y0201630D03*
X0511870Y0214630D03*
X0511870Y0131630D03*
X0511870Y0144630D03*
D44*
X0586870Y0228130D03*
X0576870Y0228130D03*
X0566870Y0228130D03*
X0556870Y0228130D03*
X0556870Y0258130D03*
X0566870Y0258130D03*
X0576870Y0258130D03*
X0586870Y0258130D03*
X0706870Y0158130D03*
X0696870Y0158130D03*
X0686870Y0158130D03*
X0676870Y0158130D03*
X0676870Y0188130D03*
X0686870Y0188130D03*
X0696870Y0188130D03*
X0706870Y0188130D03*
X0466870Y0298130D03*
X0456870Y0298130D03*
X0446870Y0298130D03*
X0436870Y0298130D03*
X0436870Y0328130D03*
X0446870Y0328130D03*
X0456870Y0328130D03*
X0466870Y0328130D03*
X0586870Y0158130D03*
X0576870Y0158130D03*
X0566870Y0158130D03*
X0556870Y0158130D03*
X0556870Y0188130D03*
X0566870Y0188130D03*
X0576870Y0188130D03*
X0586870Y0188130D03*
X0466870Y0158130D03*
X0456870Y0158130D03*
X0446870Y0158130D03*
X0436870Y0158130D03*
X0436870Y0188130D03*
X0446870Y0188130D03*
X0456870Y0188130D03*
X0466870Y0188130D03*
X0646870Y0228130D03*
X0636870Y0228130D03*
X0626870Y0228130D03*
X0616870Y0228130D03*
X0616870Y0258130D03*
X0626870Y0258130D03*
X0636870Y0258130D03*
X0646870Y0258130D03*
X0646870Y0158130D03*
X0636870Y0158130D03*
X0626870Y0158130D03*
X0616870Y0158130D03*
X0616870Y0188130D03*
X0626870Y0188130D03*
X0636870Y0188130D03*
X0646870Y0188130D03*
X0706870Y0228130D03*
X0696870Y0228130D03*
X0686870Y0228130D03*
X0676870Y0228130D03*
X0676870Y0258130D03*
X0686870Y0258130D03*
X0696870Y0258130D03*
X0706870Y0258130D03*
X0706870Y0298130D03*
X0696870Y0298130D03*
X0686870Y0298130D03*
X0676870Y0298130D03*
X0676870Y0328130D03*
X0686870Y0328130D03*
X0696870Y0328130D03*
X0706870Y0328130D03*
X0466870Y0088130D03*
X0456870Y0088130D03*
X0446870Y0088130D03*
X0436870Y0088130D03*
X0436870Y0118130D03*
X0446870Y0118130D03*
X0456870Y0118130D03*
X0466870Y0118130D03*
X0646870Y0298130D03*
X0636870Y0298130D03*
X0626870Y0298130D03*
X0616870Y0298130D03*
X0616870Y0328130D03*
X0626870Y0328130D03*
X0636870Y0328130D03*
X0646870Y0328130D03*
X0706870Y0088130D03*
X0696870Y0088130D03*
X0686870Y0088130D03*
X0676870Y0088130D03*
X0676870Y0118130D03*
X0686870Y0118130D03*
X0696870Y0118130D03*
X0706870Y0118130D03*
X0526870Y0088130D03*
X0516870Y0088130D03*
X0506870Y0088130D03*
X0496870Y0088130D03*
X0496870Y0118130D03*
X0506870Y0118130D03*
X0516870Y0118130D03*
X0526870Y0118130D03*
X0586870Y0298130D03*
X0576870Y0298130D03*
X0566870Y0298130D03*
X0556870Y0298130D03*
X0556870Y0328130D03*
X0566870Y0328130D03*
X0576870Y0328130D03*
X0586870Y0328130D03*
X0526870Y0228130D03*
X0516870Y0228130D03*
X0506870Y0228130D03*
X0496870Y0228130D03*
X0496870Y0258130D03*
X0506870Y0258130D03*
X0516870Y0258130D03*
X0526870Y0258130D03*
X0586870Y0088130D03*
X0576870Y0088130D03*
X0566870Y0088130D03*
X0556870Y0088130D03*
X0556870Y0118130D03*
X0566870Y0118130D03*
X0576870Y0118130D03*
X0586870Y0118130D03*
X0466870Y0228130D03*
X0456870Y0228130D03*
X0446870Y0228130D03*
X0436870Y0228130D03*
X0436870Y0258130D03*
X0446870Y0258130D03*
X0456870Y0258130D03*
X0466870Y0258130D03*
X0526870Y0298130D03*
X0516870Y0298130D03*
X0506870Y0298130D03*
X0496870Y0298130D03*
X0496870Y0328130D03*
X0506870Y0328130D03*
X0516870Y0328130D03*
X0526870Y0328130D03*
D76*
X0436870Y0401510D03*
X0436870Y0380250D03*
D44*
X0646870Y0088130D03*
X0636870Y0088130D03*
X0626870Y0088130D03*
X0616870Y0088130D03*
X0616870Y0118130D03*
X0626870Y0118130D03*
X0636870Y0118130D03*
X0646870Y0118130D03*
X0526870Y0158130D03*
X0516870Y0158130D03*
X0506870Y0158130D03*
X0496870Y0158130D03*
X0496870Y0188130D03*
X0506870Y0188130D03*
X0516870Y0188130D03*
X0526870Y0188130D03*
D105*
X0605370Y0445130D03*
X0525370Y0445130D03*
D15*
X0585370Y0475130D03*
D71*
X0555370Y0435130D03*
X0575370Y0435130D03*
X0535370Y0435130D03*
X0595370Y0435130D03*
D15*
X0545370Y0475130D03*
D22*
X0490370Y0470130D03*
D97*
X0480370Y0480130D03*
X0500370Y0480130D03*
X0500370Y0460130D03*
X0480370Y0460130D03*
D22*
X0440370Y0470130D03*
D97*
X0430370Y0480130D03*
X0450370Y0480130D03*
X0450370Y0460130D03*
X0430370Y0460130D03*
D95*
X0529370Y0342130D03*
X0524370Y0342130D03*
X0519370Y0342130D03*
X0514370Y0342130D03*
X0509370Y0342130D03*
X0504370Y0342130D03*
X0499370Y0342130D03*
X0494370Y0342130D03*
X0494370Y0362130D03*
X0499370Y0362130D03*
X0504370Y0362130D03*
X0509370Y0362130D03*
X0514370Y0362130D03*
X0519370Y0362130D03*
X0524370Y0362130D03*
X0529370Y0362130D03*
X0589370Y0342130D03*
X0584370Y0342130D03*
X0579370Y0342130D03*
X0574370Y0342130D03*
X0569370Y0342130D03*
X0564370Y0342130D03*
X0559370Y0342130D03*
X0554370Y0342130D03*
X0554370Y0362130D03*
X0559370Y0362130D03*
X0564370Y0362130D03*
X0569370Y0362130D03*
X0574370Y0362130D03*
X0579370Y0362130D03*
X0584370Y0362130D03*
X0589370Y0362130D03*
X0649370Y0342130D03*
X0644370Y0342130D03*
X0639370Y0342130D03*
X0634370Y0342130D03*
X0629370Y0342130D03*
X0624370Y0342130D03*
X0619370Y0342130D03*
X0614370Y0342130D03*
X0614370Y0362130D03*
X0619370Y0362130D03*
X0624370Y0362130D03*
X0629370Y0362130D03*
X0634370Y0362130D03*
X0639370Y0362130D03*
X0644370Y0362130D03*
X0649370Y0362130D03*
X0709370Y0342630D03*
X0704370Y0342630D03*
X0699370Y0342630D03*
X0694370Y0342630D03*
X0689370Y0342630D03*
X0684370Y0342630D03*
X0679370Y0342630D03*
X0674370Y0342630D03*
X0674370Y0362630D03*
X0679370Y0362630D03*
X0684370Y0362630D03*
X0689370Y0362630D03*
X0694370Y0362630D03*
X0699370Y0362630D03*
X0704370Y0362630D03*
X0709370Y0362630D03*
D75*
X0660250Y0392500D03*
D53*
X0660250Y0402500D03*
X0670250Y0392500D03*
X0670250Y0402500D03*
X0680250Y0392500D03*
X0680250Y0402500D03*
D75*
X0540250Y0458000D03*
D53*
X0550250Y0458000D03*
X0560250Y0458000D03*
X0570250Y0458000D03*
X0580250Y0458000D03*
X0590250Y0458000D03*
D83*
X0485370Y0430130D03*
X0505370Y0430130D03*
D86*
X0604370Y0412380D03*
X0594370Y0412380D03*
X0584370Y0412380D03*
X0574370Y0412380D03*
X0564370Y0412380D03*
X0554370Y0412380D03*
X0544370Y0412380D03*
X0534370Y0412380D03*
X0524370Y0412380D03*
X0514370Y0412380D03*
X0504370Y0412380D03*
X0494370Y0412380D03*
X0484370Y0412380D03*
D18*
X0614370Y0412380D03*
D86*
X0484370Y0382380D03*
X0494370Y0382380D03*
X0504370Y0382380D03*
X0514370Y0382380D03*
X0524370Y0382380D03*
X0534370Y0382380D03*
X0544370Y0382380D03*
X0554370Y0382380D03*
X0564370Y0382380D03*
X0574370Y0382380D03*
X0584370Y0382380D03*
X0594370Y0382380D03*
X0604370Y0382380D03*
X0614370Y0382380D03*
D95*
X0469370Y0342130D03*
X0464370Y0342130D03*
X0459370Y0342130D03*
X0454370Y0342130D03*
X0449370Y0342130D03*
X0444370Y0342130D03*
X0439370Y0342130D03*
X0434370Y0342130D03*
X0434370Y0362130D03*
X0439370Y0362130D03*
X0444370Y0362130D03*
X0449370Y0362130D03*
X0454370Y0362130D03*
X0459370Y0362130D03*
X0464370Y0362130D03*
X0469370Y0362130D03*
D75*
X0619750Y0435500D03*
D53*
X0619750Y0425500D03*
D75*
X0700750Y0394000D03*
D53*
X0710750Y0394000D03*
D44*
X0696750Y0427500D03*
X0709750Y0427500D03*
X0696750Y0417500D03*
X0709750Y0417500D03*
D75*
X0700750Y0405500D03*
D53*
X0710750Y0405500D03*
D58*
X0602250Y0470000D03*
X0602250Y0457000D03*
D44*
X0553050Y0392100D03*
X0540050Y0392100D03*
D86*
X0643480Y0385070D03*
X0625760Y0385070D03*
X0643480Y0408690D03*
X0625760Y0408690D03*
D44*
X0696750Y0437500D03*
X0709750Y0437500D03*
X0642750Y0435700D03*
X0655750Y0435700D03*
X0116850Y0194000D02*
G01*
D104*
D53*
X0226850Y0456000D03*
X0226850Y0446000D03*
X0216850Y0446000D03*
X0216850Y0456000D03*
X0206850Y0456000D03*
X0206850Y0446000D03*
D135*
X0126850Y0269500D03*
X0126850Y0279500D03*
X0316850Y0305500D03*
X0316850Y0315500D03*
X0126850Y0465500D03*
X0126850Y0475500D03*
X0126850Y0485500D03*
X0126850Y0495500D03*
X0126850Y0505500D03*
X0126850Y0515500D03*
X0126850Y0525500D03*
X0126850Y0535500D03*
X0316850Y0555500D03*
X0316850Y0545500D03*
X0316850Y0535500D03*
X0316850Y0525500D03*
X0316850Y0485500D03*
X0316850Y0465500D03*
X0316850Y0455500D03*
X0316850Y0495500D03*
X0316850Y0505500D03*
X0316850Y0515500D03*
X0316850Y0445500D03*
X0316850Y0435500D03*
X0316850Y0425500D03*
X0316850Y0395500D03*
X0316850Y0405500D03*
X0316850Y0415500D03*
X0316850Y0375500D03*
X0316850Y0365500D03*
X0316850Y0355500D03*
X0316850Y0335500D03*
X0316850Y0325500D03*
X0126850Y0445500D03*
X0126850Y0435500D03*
X0126850Y0425500D03*
X0126850Y0415500D03*
X0126850Y0405500D03*
X0126850Y0395500D03*
X0126850Y0385500D03*
X0126850Y0375500D03*
X0126850Y0359500D03*
X0126850Y0349500D03*
X0126850Y0339500D03*
X0126850Y0329500D03*
X0126850Y0319500D03*
X0126850Y0309500D03*
X0126850Y0299500D03*
X0126850Y0289500D03*
X0316850Y0345500D03*
D96*
X0316850Y0575500D03*
X0126850Y0550500D03*
D53*
X0136850Y0565500D03*
X0136850Y0575500D03*
X0146850Y0565500D03*
X0146850Y0575500D03*
X0156850Y0565500D03*
X0156850Y0575500D03*
X0166850Y0565500D03*
X0166850Y0575500D03*
X0126850Y0565500D03*
X0126850Y0575500D03*
X0176850Y0575500D03*
X0176850Y0565500D03*
X0186850Y0565500D03*
X0186850Y0575500D03*
X0196850Y0565500D03*
X0196850Y0575500D03*
X0206850Y0565500D03*
X0206850Y0575500D03*
X0216850Y0565500D03*
X0216850Y0575500D03*
X0226850Y0565500D03*
X0226850Y0575500D03*
X0236850Y0565500D03*
X0236850Y0575500D03*
X0246850Y0565500D03*
X0246850Y0575500D03*
X0256850Y0565500D03*
X0256850Y0575500D03*
X0266850Y0565500D03*
X0266850Y0575500D03*
X0276850Y0565500D03*
X0276850Y0575500D03*
X0286850Y0565500D03*
X0286850Y0575500D03*
X0296850Y0565500D03*
X0296850Y0575500D03*
D99*
X0386410Y0326700D03*
D14*
X0336030Y0326700D03*
X0336030Y0343240D03*
X0336030Y0359760D03*
X0336030Y0376300D03*
X0357670Y0326700D03*
X0357670Y0343240D03*
X0357670Y0359760D03*
X0357670Y0376300D03*
D99*
X0386410Y0376300D03*
X0216050Y0207430D03*
D14*
X0216050Y0257820D03*
X0232590Y0257820D03*
X0249110Y0257820D03*
X0265650Y0257820D03*
X0216050Y0236180D03*
X0232590Y0236180D03*
X0249110Y0236180D03*
X0265650Y0236180D03*
D99*
X0265650Y0207430D03*
X0141050Y0207430D03*
D14*
X0141050Y0257820D03*
X0157590Y0257820D03*
X0174110Y0257820D03*
X0190650Y0257820D03*
X0141050Y0236180D03*
X0157590Y0236180D03*
X0174110Y0236180D03*
X0190650Y0236180D03*
D99*
X0190650Y0207430D03*
D75*
X0282850Y0467000D03*
D119*
X0342850Y0292200D03*
D47*
X0361350Y0408500D03*
X0361350Y0494500D03*
D75*
X0354350Y0471500D03*
D53*
X0364350Y0471500D03*
X0354350Y0461500D03*
X0364350Y0461500D03*
X0354350Y0451500D03*
X0364350Y0451500D03*
X0354350Y0441500D03*
X0364350Y0441500D03*
X0354350Y0431500D03*
X0364350Y0431500D03*
D45*
X0353850Y0224000D03*
X0393850Y0224000D03*
D53*
X0383850Y0244000D03*
X0373850Y0244000D03*
D45*
X0289850Y0224000D03*
X0329850Y0224000D03*
D53*
X0319850Y0244000D03*
X0309850Y0244000D03*
D93*
X0161030Y0379600D03*
X0161030Y0396130D03*
X0161030Y0412670D03*
X0161030Y0429200D03*
X0161030Y0445740D03*
X0161030Y0462260D03*
X0161030Y0478800D03*
X0161030Y0495330D03*
X0161030Y0511870D03*
X0161030Y0528400D03*
X0182670Y0379600D03*
X0182670Y0396130D03*
X0182670Y0412670D03*
X0182670Y0429200D03*
X0182670Y0445740D03*
X0182670Y0462260D03*
X0182670Y0478800D03*
X0182670Y0495330D03*
X0182670Y0511870D03*
X0182670Y0528400D03*
D123*
X0180910Y0361090D03*
X0180910Y0546910D03*
D22*
X0375850Y0281500D03*
D97*
X0365850Y0271500D03*
X0365850Y0291500D03*
X0385850Y0291500D03*
X0385850Y0271500D03*
D75*
X0285850Y0396750D03*
D53*
X0275850Y0396750D03*
X0265850Y0396750D03*
D75*
X0261850Y0479000D03*
D53*
X0251850Y0479000D03*
X0241850Y0479000D03*
D75*
X0285850Y0411000D03*
D53*
X0275850Y0411000D03*
X0265850Y0411000D03*
D75*
X0261850Y0493000D03*
D53*
X0251850Y0493000D03*
X0241850Y0493000D03*
D75*
X0261850Y0465000D03*
D53*
X0251850Y0465000D03*
X0241850Y0465000D03*
D75*
X0282850Y0457000D03*
X0376850Y0531000D03*
D53*
X0386850Y0531000D03*
X0396850Y0531000D03*
D75*
X0376850Y0547000D03*
D53*
X0386850Y0547000D03*
X0396850Y0547000D03*
D75*
X0376850Y0577000D03*
D53*
X0386850Y0577000D03*
X0396850Y0577000D03*
D75*
X0376850Y0562000D03*
D53*
X0386850Y0562000D03*
X0396850Y0562000D03*
D119*
X0151350Y0292200D03*
X0411250Y0497500D02*
G01*
D104*
D53*
X0521250Y0759500D03*
X0521250Y0749500D03*
X0511250Y0749500D03*
X0511250Y0759500D03*
X0501250Y0759500D03*
X0501250Y0749500D03*
D135*
X0421250Y0573000D03*
X0421250Y0583000D03*
X0611250Y0609000D03*
X0611250Y0619000D03*
X0421250Y0769000D03*
X0421250Y0779000D03*
X0421250Y0789000D03*
X0421250Y0799000D03*
X0421250Y0809000D03*
X0421250Y0819000D03*
X0421250Y0829000D03*
X0421250Y0839000D03*
X0611250Y0859000D03*
X0611250Y0849000D03*
X0611250Y0839000D03*
X0611250Y0829000D03*
X0611250Y0789000D03*
X0611250Y0769000D03*
X0611250Y0759000D03*
X0611250Y0799000D03*
X0611250Y0809000D03*
X0611250Y0819000D03*
X0611250Y0749000D03*
X0611250Y0739000D03*
X0611250Y0729000D03*
X0611250Y0699000D03*
X0611250Y0709000D03*
X0611250Y0719000D03*
X0611250Y0679000D03*
X0611250Y0669000D03*
X0611250Y0659000D03*
X0611250Y0639000D03*
X0611250Y0629000D03*
X0421250Y0749000D03*
X0421250Y0739000D03*
X0421250Y0729000D03*
X0421250Y0719000D03*
X0421250Y0709000D03*
X0421250Y0699000D03*
X0421250Y0689000D03*
X0421250Y0679000D03*
X0421250Y0663000D03*
X0421250Y0653000D03*
X0421250Y0643000D03*
X0421250Y0633000D03*
X0421250Y0623000D03*
X0421250Y0613000D03*
X0421250Y0603000D03*
X0421250Y0593000D03*
X0611250Y0649000D03*
D96*
X0611250Y0879000D03*
X0421250Y0854000D03*
D53*
X0431250Y0869000D03*
X0431250Y0879000D03*
X0441250Y0869000D03*
X0441250Y0879000D03*
X0451250Y0869000D03*
X0451250Y0879000D03*
X0461250Y0869000D03*
X0461250Y0879000D03*
X0421250Y0869000D03*
X0421250Y0879000D03*
X0471250Y0879000D03*
X0471250Y0869000D03*
X0481250Y0869000D03*
X0481250Y0879000D03*
X0491250Y0869000D03*
X0491250Y0879000D03*
X0501250Y0869000D03*
X0501250Y0879000D03*
X0511250Y0869000D03*
X0511250Y0879000D03*
X0521250Y0869000D03*
X0521250Y0879000D03*
X0531250Y0869000D03*
X0531250Y0879000D03*
X0541250Y0869000D03*
X0541250Y0879000D03*
X0551250Y0869000D03*
X0551250Y0879000D03*
X0561250Y0869000D03*
X0561250Y0879000D03*
X0571250Y0869000D03*
X0571250Y0879000D03*
X0581250Y0869000D03*
X0581250Y0879000D03*
X0591250Y0869000D03*
X0591250Y0879000D03*
D99*
X0680810Y0630200D03*
D14*
X0630430Y0630200D03*
X0630430Y0646740D03*
X0630430Y0663260D03*
X0630430Y0679800D03*
X0652070Y0630200D03*
X0652070Y0646740D03*
X0652070Y0663260D03*
X0652070Y0679800D03*
D99*
X0680810Y0679800D03*
X0510450Y0510930D03*
D14*
X0510450Y0561320D03*
X0526990Y0561320D03*
X0543510Y0561320D03*
X0560050Y0561320D03*
X0510450Y0539680D03*
X0526990Y0539680D03*
X0543510Y0539680D03*
X0560050Y0539680D03*
D99*
X0560050Y0510930D03*
X0435450Y0510930D03*
D14*
X0435450Y0561320D03*
X0451990Y0561320D03*
X0468510Y0561320D03*
X0485050Y0561320D03*
X0435450Y0539680D03*
X0451990Y0539680D03*
X0468510Y0539680D03*
X0485050Y0539680D03*
D99*
X0485050Y0510930D03*
D75*
X0577250Y0770500D03*
D119*
X0637250Y0595700D03*
D47*
X0655750Y0712000D03*
X0655750Y0798000D03*
D75*
X0648750Y0775000D03*
D53*
X0658750Y0775000D03*
X0648750Y0765000D03*
X0658750Y0765000D03*
X0648750Y0755000D03*
X0658750Y0755000D03*
X0648750Y0745000D03*
X0658750Y0745000D03*
X0648750Y0735000D03*
X0658750Y0735000D03*
D45*
X0648250Y0527500D03*
X0688250Y0527500D03*
D53*
X0678250Y0547500D03*
X0668250Y0547500D03*
D45*
X0584250Y0527500D03*
X0624250Y0527500D03*
D53*
X0614250Y0547500D03*
X0604250Y0547500D03*
D93*
X0455430Y0683100D03*
X0455430Y0699630D03*
X0455430Y0716170D03*
X0455430Y0732700D03*
X0455430Y0749240D03*
X0455430Y0765760D03*
X0455430Y0782300D03*
X0455430Y0798830D03*
X0455430Y0815370D03*
X0455430Y0831900D03*
X0477070Y0683100D03*
X0477070Y0699630D03*
X0477070Y0716170D03*
X0477070Y0732700D03*
X0477070Y0749240D03*
X0477070Y0765760D03*
X0477070Y0782300D03*
X0477070Y0798830D03*
X0477070Y0815370D03*
X0477070Y0831900D03*
D123*
X0475310Y0664590D03*
X0475310Y0850410D03*
D22*
X0670250Y0585000D03*
D97*
X0660250Y0575000D03*
X0660250Y0595000D03*
X0680250Y0595000D03*
X0680250Y0575000D03*
D75*
X0580250Y0700250D03*
D53*
X0570250Y0700250D03*
X0560250Y0700250D03*
D75*
X0556250Y0782500D03*
D53*
X0546250Y0782500D03*
X0536250Y0782500D03*
D75*
X0580250Y0714500D03*
D53*
X0570250Y0714500D03*
X0560250Y0714500D03*
D75*
X0556250Y0796500D03*
D53*
X0546250Y0796500D03*
X0536250Y0796500D03*
D75*
X0556250Y0768500D03*
D53*
X0546250Y0768500D03*
X0536250Y0768500D03*
D75*
X0577250Y0760500D03*
X0671250Y0834500D03*
D53*
X0681250Y0834500D03*
X0691250Y0834500D03*
D75*
X0671250Y0850500D03*
D53*
X0681250Y0850500D03*
X0691250Y0850500D03*
D75*
X0671250Y0880500D03*
D53*
X0681250Y0880500D03*
X0691250Y0880500D03*
D75*
X0671250Y0865500D03*
D53*
X0681250Y0865500D03*
X0691250Y0865500D03*
D119*
X0445750Y0595700D03*
X0206250Y0599000D02*
G01*
D104*
D11*
X0249500Y0641000D03*
X0357000Y0641000D03*
D13*
X0260750Y0638500D03*
X0255750Y0638500D03*
X0255750Y0643500D03*
X0260750Y0643500D03*
X0275750Y0643500D03*
X0280750Y0643500D03*
X0270750Y0643500D03*
X0265750Y0643500D03*
X0265750Y0638500D03*
X0270750Y0638500D03*
X0280750Y0638500D03*
X0275750Y0638500D03*
X0330750Y0643500D03*
X0335750Y0643500D03*
X0345750Y0643500D03*
X0340750Y0643500D03*
X0340750Y0638500D03*
X0345750Y0638500D03*
X0335750Y0638500D03*
X0330750Y0638500D03*
X0350750Y0638500D03*
X0350750Y0643500D03*
X0325750Y0643500D03*
X0325750Y0638500D03*
X0295750Y0638500D03*
X0300750Y0638500D03*
X0290750Y0638500D03*
X0285750Y0638500D03*
X0305750Y0638500D03*
X0310750Y0638500D03*
X0320750Y0638500D03*
X0315750Y0638500D03*
X0315750Y0643500D03*
X0320750Y0643500D03*
X0310750Y0643500D03*
X0305750Y0643500D03*
X0285750Y0643500D03*
X0290750Y0643500D03*
X0300750Y0643500D03*
X0295750Y0643500D03*
D111*
X0387750Y0643500D03*
X0013750Y0699000D02*
G01*
D102*
D119*
X0068750Y0734000D03*
X0348750Y0734000D03*
X0068750Y0949000D03*
X0348750Y0949000D03*
D11*
X0041250Y0817750D03*
X0041250Y0925250D03*
D13*
X0043750Y0829000D03*
X0043750Y0824000D03*
X0038750Y0824000D03*
X0038750Y0829000D03*
X0038750Y0844000D03*
X0038750Y0849000D03*
X0038750Y0839000D03*
X0038750Y0834000D03*
X0043750Y0834000D03*
X0043750Y0839000D03*
X0043750Y0849000D03*
X0043750Y0844000D03*
X0038750Y0899000D03*
X0038750Y0904000D03*
X0038750Y0914000D03*
X0038750Y0909000D03*
X0043750Y0909000D03*
X0043750Y0914000D03*
X0043750Y0904000D03*
X0043750Y0899000D03*
X0043750Y0919000D03*
X0038750Y0919000D03*
X0038750Y0894000D03*
X0043750Y0894000D03*
X0043750Y0864000D03*
X0043750Y0869000D03*
X0043750Y0859000D03*
X0043750Y0854000D03*
X0043750Y0874000D03*
X0043750Y0879000D03*
X0043750Y0889000D03*
X0043750Y0884000D03*
X0038750Y0884000D03*
X0038750Y0889000D03*
X0038750Y0879000D03*
X0038750Y0874000D03*
X0038750Y0854000D03*
X0038750Y0859000D03*
X0038750Y0869000D03*
X0038750Y0864000D03*
D11*
X0376250Y0925250D03*
X0376250Y0817750D03*
D13*
X0373750Y0914000D03*
X0373750Y0919000D03*
X0378750Y0919000D03*
X0378750Y0914000D03*
X0378750Y0899000D03*
X0378750Y0894000D03*
X0378750Y0904000D03*
X0378750Y0909000D03*
X0373750Y0909000D03*
X0373750Y0904000D03*
X0373750Y0894000D03*
X0373750Y0899000D03*
X0378750Y0844000D03*
X0378750Y0839000D03*
X0378750Y0829000D03*
X0378750Y0834000D03*
X0373750Y0834000D03*
X0373750Y0829000D03*
X0373750Y0839000D03*
X0373750Y0844000D03*
X0373750Y0824000D03*
X0378750Y0824000D03*
X0378750Y0849000D03*
X0373750Y0849000D03*
X0373750Y0879000D03*
X0373750Y0874000D03*
X0373750Y0884000D03*
X0373750Y0889000D03*
X0373750Y0869000D03*
X0373750Y0864000D03*
X0373750Y0854000D03*
X0373750Y0859000D03*
X0378750Y0859000D03*
X0378750Y0854000D03*
X0378750Y0864000D03*
X0378750Y0869000D03*
X0378750Y0889000D03*
X0378750Y0884000D03*
X0378750Y0874000D03*
X0378750Y0879000D03*
D11*
X0262500Y0729000D03*
X0155000Y0729000D03*
D13*
X0251250Y0731500D03*
X0256250Y0731500D03*
X0256250Y0726500D03*
X0251250Y0726500D03*
X0236250Y0726500D03*
X0231250Y0726500D03*
X0241250Y0726500D03*
X0246250Y0726500D03*
X0246250Y0731500D03*
X0241250Y0731500D03*
X0231250Y0731500D03*
X0236250Y0731500D03*
X0181250Y0726500D03*
X0176250Y0726500D03*
X0166250Y0726500D03*
X0171250Y0726500D03*
X0171250Y0731500D03*
X0166250Y0731500D03*
X0176250Y0731500D03*
X0181250Y0731500D03*
X0161250Y0731500D03*
X0161250Y0726500D03*
X0186250Y0726500D03*
X0186250Y0731500D03*
X0216250Y0731500D03*
X0211250Y0731500D03*
X0221250Y0731500D03*
X0226250Y0731500D03*
X0206250Y0731500D03*
X0201250Y0731500D03*
X0191250Y0731500D03*
X0196250Y0731500D03*
X0196250Y0726500D03*
X0191250Y0726500D03*
X0201250Y0726500D03*
X0206250Y0726500D03*
X0226250Y0726500D03*
X0221250Y0726500D03*
X0211250Y0726500D03*
X0216250Y0726500D03*
D53*
X0318750Y0919000D03*
X0328750Y0919000D03*
X0338750Y0919000D03*
X0348750Y0919000D03*
X0318750Y0909000D03*
X0328750Y0909000D03*
X0338750Y0909000D03*
X0348750Y0909000D03*
X0318750Y0899000D03*
X0328750Y0899000D03*
X0338750Y0899000D03*
X0348750Y0899000D03*
X0318750Y0889000D03*
X0328750Y0889000D03*
X0338750Y0889000D03*
X0348750Y0889000D03*
X0318750Y0879000D03*
X0328750Y0879000D03*
X0338750Y0879000D03*
X0348750Y0879000D03*
X0318750Y0869000D03*
X0328750Y0869000D03*
X0338750Y0869000D03*
X0348750Y0869000D03*
X0318750Y0859000D03*
X0328750Y0859000D03*
X0338750Y0859000D03*
X0348750Y0859000D03*
X0318750Y0849000D03*
X0328750Y0849000D03*
X0338750Y0849000D03*
X0348750Y0849000D03*
X0318750Y0839000D03*
X0328750Y0839000D03*
X0338750Y0839000D03*
X0348750Y0839000D03*
X0318750Y0829000D03*
X0328750Y0829000D03*
X0338750Y0829000D03*
X0348750Y0829000D03*
X0318750Y0819000D03*
X0328750Y0819000D03*
X0338750Y0819000D03*
X0348750Y0819000D03*
X0318750Y0809000D03*
X0328750Y0809000D03*
X0338750Y0809000D03*
X0348750Y0809000D03*
X0318750Y0799000D03*
X0328750Y0799000D03*
X0338750Y0799000D03*
X0348750Y0799000D03*
X0318750Y0789000D03*
X0328750Y0789000D03*
X0338750Y0789000D03*
X0348750Y0789000D03*
X0318750Y0779000D03*
X0328750Y0779000D03*
X0338750Y0779000D03*
X0348750Y0779000D03*
X0068750Y0779000D03*
X0078750Y0779000D03*
X0088750Y0779000D03*
X0098750Y0779000D03*
X0068750Y0789000D03*
X0078750Y0789000D03*
X0088750Y0789000D03*
X0098750Y0789000D03*
X0068750Y0799000D03*
X0078750Y0799000D03*
X0088750Y0799000D03*
X0098750Y0799000D03*
X0068750Y0809000D03*
X0078750Y0809000D03*
X0088750Y0809000D03*
X0098750Y0809000D03*
X0068750Y0819000D03*
X0078750Y0819000D03*
X0088750Y0819000D03*
X0098750Y0819000D03*
X0068750Y0829000D03*
X0078750Y0829000D03*
X0088750Y0829000D03*
X0098750Y0829000D03*
X0068750Y0839000D03*
X0078750Y0839000D03*
X0088750Y0839000D03*
X0098750Y0839000D03*
X0068750Y0849000D03*
X0078750Y0849000D03*
X0088750Y0849000D03*
X0098750Y0849000D03*
X0068750Y0859000D03*
X0078750Y0859000D03*
X0088750Y0859000D03*
X0098750Y0859000D03*
X0068750Y0869000D03*
X0078750Y0869000D03*
X0088750Y0869000D03*
X0098750Y0869000D03*
X0068750Y0879000D03*
X0078750Y0879000D03*
X0088750Y0879000D03*
X0098750Y0879000D03*
X0068750Y0889000D03*
X0078750Y0889000D03*
X0088750Y0889000D03*
X0098750Y0889000D03*
X0068750Y0899000D03*
X0078750Y0899000D03*
X0088750Y0899000D03*
X0098750Y0899000D03*
X0068750Y0909000D03*
X0078750Y0909000D03*
X0088750Y0909000D03*
X0098750Y0909000D03*
X0068750Y0919000D03*
X0078750Y0919000D03*
X0088750Y0919000D03*
X0098750Y0919000D03*
X0705650Y0497500D02*
G01*
D104*
D119*
X0720650Y0917500D03*
X0720650Y0512500D03*
X1020650Y0512500D03*
X1020650Y0917500D03*
D11*
X0919520Y0516630D03*
X0812020Y0516630D03*
D13*
X0908270Y0519130D03*
X0913270Y0519130D03*
X0913270Y0514130D03*
X0908270Y0514130D03*
X0893270Y0514130D03*
X0888270Y0514130D03*
X0898270Y0514130D03*
X0903270Y0514130D03*
X0903270Y0519130D03*
X0898270Y0519130D03*
X0888270Y0519130D03*
X0893270Y0519130D03*
X0838270Y0514130D03*
X0833270Y0514130D03*
X0823270Y0514130D03*
X0828270Y0514130D03*
X0828270Y0519130D03*
X0823270Y0519130D03*
X0833270Y0519130D03*
X0838270Y0519130D03*
X0818270Y0519130D03*
X0818270Y0514130D03*
X0843270Y0514130D03*
X0843270Y0519130D03*
X0873270Y0519130D03*
X0868270Y0519130D03*
X0878270Y0519130D03*
X0883270Y0519130D03*
X0863270Y0519130D03*
X0858270Y0519130D03*
X0848270Y0519130D03*
X0853270Y0519130D03*
X0853270Y0514130D03*
X0848270Y0514130D03*
X0858270Y0514130D03*
X0863270Y0514130D03*
X0883270Y0514130D03*
X0878270Y0514130D03*
X0868270Y0514130D03*
X0873270Y0514130D03*
D47*
X1012770Y0954630D03*
X0926770Y0954630D03*
D75*
X0949770Y0947630D03*
D53*
X0949770Y0957630D03*
X0959770Y0947630D03*
X0959770Y0957630D03*
X0969770Y0947630D03*
X0969770Y0957630D03*
X0979770Y0947630D03*
X0979770Y0957630D03*
X0989770Y0947630D03*
X0989770Y0957630D03*
D58*
X0746270Y0689130D03*
X0746270Y0702130D03*
X1001270Y0562130D03*
X1001270Y0549130D03*
X0986270Y0549130D03*
X0986270Y0562130D03*
X0971270Y0759130D03*
X0971270Y0772130D03*
X0911270Y0619130D03*
X0911270Y0632130D03*
X0941270Y0772130D03*
X0941270Y0759130D03*
X0941270Y0702130D03*
X0941270Y0689130D03*
X0911270Y0549130D03*
X0911270Y0562130D03*
X0881270Y0772130D03*
X0881270Y0759130D03*
X0881270Y0632130D03*
X0881270Y0619130D03*
X0881270Y0702130D03*
X0881270Y0689130D03*
X0866270Y0759130D03*
X0866270Y0772130D03*
X1001270Y0772130D03*
X1001270Y0759130D03*
X1001270Y0631630D03*
X1001270Y0618630D03*
X1001270Y0702130D03*
X1001270Y0689130D03*
X0986270Y0759130D03*
X0986270Y0772130D03*
X0926270Y0549130D03*
X0926270Y0562130D03*
X0971270Y0618630D03*
X0971270Y0631630D03*
X0971270Y0689130D03*
X0971270Y0702130D03*
X0941270Y0562130D03*
X0941270Y0549130D03*
X0971270Y0549130D03*
X0971270Y0562130D03*
X0761270Y0562130D03*
X0761270Y0549130D03*
X0746270Y0549130D03*
X0746270Y0562130D03*
X0761270Y0702130D03*
X0761270Y0689130D03*
X0731270Y0759130D03*
X0731270Y0772130D03*
X0731270Y0549130D03*
X0731270Y0562130D03*
X0731270Y0689130D03*
X0731270Y0702130D03*
X0746270Y0759130D03*
X0746270Y0772130D03*
X0761270Y0772130D03*
X0761270Y0759130D03*
X0791270Y0549130D03*
X0791270Y0562130D03*
X0821270Y0772130D03*
X0821270Y0759130D03*
X0806270Y0549130D03*
X0806270Y0562130D03*
X0821270Y0702130D03*
X0821270Y0689130D03*
X0791270Y0689130D03*
X0791270Y0702130D03*
X0791270Y0619130D03*
X0791270Y0632130D03*
X0791270Y0759130D03*
X0791270Y0772130D03*
X0731270Y0619130D03*
X0731270Y0632130D03*
X0851270Y0619130D03*
X0851270Y0632130D03*
X0851270Y0689130D03*
X0851270Y0702130D03*
X0851270Y0549130D03*
X0851270Y0562130D03*
X0911270Y0689130D03*
X0911270Y0702130D03*
X0941270Y0632130D03*
X0941270Y0619130D03*
X0926270Y0759130D03*
X0926270Y0772130D03*
X0911270Y0759130D03*
X0911270Y0772130D03*
X0866270Y0549130D03*
X0866270Y0562130D03*
X0881270Y0562130D03*
X0881270Y0549130D03*
X0851270Y0759130D03*
X0851270Y0772130D03*
X0821270Y0632130D03*
X0821270Y0619130D03*
X0821270Y0562130D03*
X0821270Y0549130D03*
X0806270Y0759130D03*
X0806270Y0772130D03*
X0761270Y0632130D03*
X0761270Y0619130D03*
X0866270Y0689130D03*
X0866270Y0702130D03*
X0866270Y0619130D03*
X0866270Y0632130D03*
X0926270Y0619130D03*
X0926270Y0632130D03*
X0926270Y0689130D03*
X0926270Y0702130D03*
X0986270Y0689130D03*
X0986270Y0702130D03*
X0986270Y0618630D03*
X0986270Y0631630D03*
D44*
X0991150Y0935000D03*
X1004150Y0935000D03*
D58*
X0746270Y0619130D03*
X0746270Y0632130D03*
X0806270Y0689130D03*
X0806270Y0702130D03*
X0806270Y0619130D03*
X0806270Y0632130D03*
D44*
X0881270Y0715630D03*
X0871270Y0715630D03*
X0861270Y0715630D03*
X0851270Y0715630D03*
X0851270Y0745630D03*
X0861270Y0745630D03*
X0871270Y0745630D03*
X0881270Y0745630D03*
X1001270Y0645630D03*
X0991270Y0645630D03*
X0981270Y0645630D03*
X0971270Y0645630D03*
X0971270Y0675630D03*
X0981270Y0675630D03*
X0991270Y0675630D03*
X1001270Y0675630D03*
X0761270Y0785630D03*
X0751270Y0785630D03*
X0741270Y0785630D03*
X0731270Y0785630D03*
X0731270Y0815630D03*
X0741270Y0815630D03*
X0751270Y0815630D03*
X0761270Y0815630D03*
X0881270Y0645630D03*
X0871270Y0645630D03*
X0861270Y0645630D03*
X0851270Y0645630D03*
X0851270Y0675630D03*
X0861270Y0675630D03*
X0871270Y0675630D03*
X0881270Y0675630D03*
X0761270Y0645630D03*
X0751270Y0645630D03*
X0741270Y0645630D03*
X0731270Y0645630D03*
X0731270Y0675630D03*
X0741270Y0675630D03*
X0751270Y0675630D03*
X0761270Y0675630D03*
X0941270Y0715630D03*
X0931270Y0715630D03*
X0921270Y0715630D03*
X0911270Y0715630D03*
X0911270Y0745630D03*
X0921270Y0745630D03*
X0931270Y0745630D03*
X0941270Y0745630D03*
X0941270Y0645630D03*
X0931270Y0645630D03*
X0921270Y0645630D03*
X0911270Y0645630D03*
X0911270Y0675630D03*
X0921270Y0675630D03*
X0931270Y0675630D03*
X0941270Y0675630D03*
X1001270Y0715630D03*
X0991270Y0715630D03*
X0981270Y0715630D03*
X0971270Y0715630D03*
X0971270Y0745630D03*
X0981270Y0745630D03*
X0991270Y0745630D03*
X1001270Y0745630D03*
X1001270Y0785630D03*
X0991270Y0785630D03*
X0981270Y0785630D03*
X0971270Y0785630D03*
X0971270Y0815630D03*
X0981270Y0815630D03*
X0991270Y0815630D03*
X1001270Y0815630D03*
X0761270Y0575630D03*
X0751270Y0575630D03*
X0741270Y0575630D03*
X0731270Y0575630D03*
X0731270Y0605630D03*
X0741270Y0605630D03*
X0751270Y0605630D03*
X0761270Y0605630D03*
X0941270Y0785630D03*
X0931270Y0785630D03*
X0921270Y0785630D03*
X0911270Y0785630D03*
X0911270Y0815630D03*
X0921270Y0815630D03*
X0931270Y0815630D03*
X0941270Y0815630D03*
X1001270Y0575630D03*
X0991270Y0575630D03*
X0981270Y0575630D03*
X0971270Y0575630D03*
X0971270Y0605630D03*
X0981270Y0605630D03*
X0991270Y0605630D03*
X1001270Y0605630D03*
X0821270Y0575630D03*
X0811270Y0575630D03*
X0801270Y0575630D03*
X0791270Y0575630D03*
X0791270Y0605630D03*
X0801270Y0605630D03*
X0811270Y0605630D03*
X0821270Y0605630D03*
X0881270Y0785630D03*
X0871270Y0785630D03*
X0861270Y0785630D03*
X0851270Y0785630D03*
X0851270Y0815630D03*
X0861270Y0815630D03*
X0871270Y0815630D03*
X0881270Y0815630D03*
X0821270Y0715630D03*
X0811270Y0715630D03*
X0801270Y0715630D03*
X0791270Y0715630D03*
X0791270Y0745630D03*
X0801270Y0745630D03*
X0811270Y0745630D03*
X0821270Y0745630D03*
X0881270Y0575630D03*
X0871270Y0575630D03*
X0861270Y0575630D03*
X0851270Y0575630D03*
X0851270Y0605630D03*
X0861270Y0605630D03*
X0871270Y0605630D03*
X0881270Y0605630D03*
X0761270Y0715630D03*
X0751270Y0715630D03*
X0741270Y0715630D03*
X0731270Y0715630D03*
X0731270Y0745630D03*
X0741270Y0745630D03*
X0751270Y0745630D03*
X0761270Y0745630D03*
X0821270Y0785630D03*
X0811270Y0785630D03*
X0801270Y0785630D03*
X0791270Y0785630D03*
X0791270Y0815630D03*
X0801270Y0815630D03*
X0811270Y0815630D03*
X0821270Y0815630D03*
D76*
X0731270Y0889010D03*
X0731270Y0867750D03*
D44*
X0941270Y0575630D03*
X0931270Y0575630D03*
X0921270Y0575630D03*
X0911270Y0575630D03*
X0911270Y0605630D03*
X0921270Y0605630D03*
X0931270Y0605630D03*
X0941270Y0605630D03*
X0821270Y0645630D03*
X0811270Y0645630D03*
X0801270Y0645630D03*
X0791270Y0645630D03*
X0791270Y0675630D03*
X0801270Y0675630D03*
X0811270Y0675630D03*
X0821270Y0675630D03*
D105*
X0899770Y0932630D03*
X0819770Y0932630D03*
D15*
X0879770Y0962630D03*
D71*
X0849770Y0922630D03*
X0869770Y0922630D03*
X0829770Y0922630D03*
X0889770Y0922630D03*
D15*
X0839770Y0962630D03*
D22*
X0784770Y0957630D03*
D97*
X0774770Y0967630D03*
X0794770Y0967630D03*
X0794770Y0947630D03*
X0774770Y0947630D03*
D22*
X0734770Y0957630D03*
D97*
X0724770Y0967630D03*
X0744770Y0967630D03*
X0744770Y0947630D03*
X0724770Y0947630D03*
D95*
X0823770Y0829630D03*
X0818770Y0829630D03*
X0813770Y0829630D03*
X0808770Y0829630D03*
X0803770Y0829630D03*
X0798770Y0829630D03*
X0793770Y0829630D03*
X0788770Y0829630D03*
X0788770Y0849630D03*
X0793770Y0849630D03*
X0798770Y0849630D03*
X0803770Y0849630D03*
X0808770Y0849630D03*
X0813770Y0849630D03*
X0818770Y0849630D03*
X0823770Y0849630D03*
X0883770Y0829630D03*
X0878770Y0829630D03*
X0873770Y0829630D03*
X0868770Y0829630D03*
X0863770Y0829630D03*
X0858770Y0829630D03*
X0853770Y0829630D03*
X0848770Y0829630D03*
X0848770Y0849630D03*
X0853770Y0849630D03*
X0858770Y0849630D03*
X0863770Y0849630D03*
X0868770Y0849630D03*
X0873770Y0849630D03*
X0878770Y0849630D03*
X0883770Y0849630D03*
X0943770Y0829630D03*
X0938770Y0829630D03*
X0933770Y0829630D03*
X0928770Y0829630D03*
X0923770Y0829630D03*
X0918770Y0829630D03*
X0913770Y0829630D03*
X0908770Y0829630D03*
X0908770Y0849630D03*
X0913770Y0849630D03*
X0918770Y0849630D03*
X0923770Y0849630D03*
X0928770Y0849630D03*
X0933770Y0849630D03*
X0938770Y0849630D03*
X0943770Y0849630D03*
X1003770Y0830130D03*
X0998770Y0830130D03*
X0993770Y0830130D03*
X0988770Y0830130D03*
X0983770Y0830130D03*
X0978770Y0830130D03*
X0973770Y0830130D03*
X0968770Y0830130D03*
X0968770Y0850130D03*
X0973770Y0850130D03*
X0978770Y0850130D03*
X0983770Y0850130D03*
X0988770Y0850130D03*
X0993770Y0850130D03*
X0998770Y0850130D03*
X1003770Y0850130D03*
D75*
X0954650Y0880000D03*
D53*
X0954650Y0890000D03*
X0964650Y0880000D03*
X0964650Y0890000D03*
X0974650Y0880000D03*
X0974650Y0890000D03*
D75*
X0834650Y0945500D03*
D53*
X0844650Y0945500D03*
X0854650Y0945500D03*
X0864650Y0945500D03*
X0874650Y0945500D03*
X0884650Y0945500D03*
D83*
X0779770Y0917630D03*
X0799770Y0917630D03*
D86*
X0898770Y0899880D03*
X0888770Y0899880D03*
X0878770Y0899880D03*
X0868770Y0899880D03*
X0858770Y0899880D03*
X0848770Y0899880D03*
X0838770Y0899880D03*
X0828770Y0899880D03*
X0818770Y0899880D03*
X0808770Y0899880D03*
X0798770Y0899880D03*
X0788770Y0899880D03*
X0778770Y0899880D03*
D18*
X0908770Y0899880D03*
D86*
X0778770Y0869880D03*
X0788770Y0869880D03*
X0798770Y0869880D03*
X0808770Y0869880D03*
X0818770Y0869880D03*
X0828770Y0869880D03*
X0838770Y0869880D03*
X0848770Y0869880D03*
X0858770Y0869880D03*
X0868770Y0869880D03*
X0878770Y0869880D03*
X0888770Y0869880D03*
X0898770Y0869880D03*
X0908770Y0869880D03*
D95*
X0763770Y0829630D03*
X0758770Y0829630D03*
X0753770Y0829630D03*
X0748770Y0829630D03*
X0743770Y0829630D03*
X0738770Y0829630D03*
X0733770Y0829630D03*
X0728770Y0829630D03*
X0728770Y0849630D03*
X0733770Y0849630D03*
X0738770Y0849630D03*
X0743770Y0849630D03*
X0748770Y0849630D03*
X0753770Y0849630D03*
X0758770Y0849630D03*
X0763770Y0849630D03*
D75*
X0914150Y0923000D03*
D53*
X0914150Y0913000D03*
D75*
X0995150Y0881500D03*
D53*
X1005150Y0881500D03*
D44*
X0991150Y0915000D03*
X1004150Y0915000D03*
X0991150Y0905000D03*
X1004150Y0905000D03*
D75*
X0995150Y0893000D03*
D53*
X1005150Y0893000D03*
D58*
X0896650Y0957500D03*
X0896650Y0944500D03*
D44*
X0847450Y0879600D03*
X0834450Y0879600D03*
D86*
X0937880Y0872570D03*
X0920160Y0872570D03*
X0937880Y0896190D03*
X0920160Y0896190D03*
D44*
X0991150Y0925000D03*
X1004150Y0925000D03*
X0937150Y0923200D03*
X0950150Y0923200D03*
X0044350Y0286500D02*
G01*
D104*
D63*
X0051850Y0334000D03*
D10*
X0051850Y0344000D03*
X0051850Y0354000D03*
X0051850Y0364000D03*
D63*
X0051850Y0294000D03*
D10*
X0051850Y0304000D03*
X0051850Y0314000D03*
X0133750Y0599000D02*
G01*
D104*
D63*
X0141250Y0646500D03*
D10*
X0141250Y0656500D03*
X0141250Y0666500D03*
X0141250Y0676500D03*
D63*
X0141250Y0606500D03*
D10*
X0141250Y0616500D03*
X0141250Y0626500D03*
X0748750Y0010000D02*
G01*
D104*
D119*
X0763750Y0430000D03*
X0763750Y0025000D03*
X1063750Y0025000D03*
X1063750Y0430000D03*
D11*
X0962620Y0029130D03*
X0855120Y0029130D03*
D13*
X0951370Y0031630D03*
X0956370Y0031630D03*
X0956370Y0026630D03*
X0951370Y0026630D03*
X0936370Y0026630D03*
X0931370Y0026630D03*
X0941370Y0026630D03*
X0946370Y0026630D03*
X0946370Y0031630D03*
X0941370Y0031630D03*
X0931370Y0031630D03*
X0936370Y0031630D03*
X0881370Y0026630D03*
X0876370Y0026630D03*
X0866370Y0026630D03*
X0871370Y0026630D03*
X0871370Y0031630D03*
X0866370Y0031630D03*
X0876370Y0031630D03*
X0881370Y0031630D03*
X0861370Y0031630D03*
X0861370Y0026630D03*
X0886370Y0026630D03*
X0886370Y0031630D03*
X0916370Y0031630D03*
X0911370Y0031630D03*
X0921370Y0031630D03*
X0926370Y0031630D03*
X0906370Y0031630D03*
X0901370Y0031630D03*
X0891370Y0031630D03*
X0896370Y0031630D03*
X0896370Y0026630D03*
X0891370Y0026630D03*
X0901370Y0026630D03*
X0906370Y0026630D03*
X0926370Y0026630D03*
X0921370Y0026630D03*
X0911370Y0026630D03*
X0916370Y0026630D03*
D47*
X1055870Y0467130D03*
X0969870Y0467130D03*
D75*
X0992870Y0460130D03*
D53*
X0992870Y0470130D03*
X1002870Y0460130D03*
X1002870Y0470130D03*
X1012870Y0460130D03*
X1012870Y0470130D03*
X1022870Y0460130D03*
X1022870Y0470130D03*
X1032870Y0460130D03*
X1032870Y0470130D03*
D58*
X0789370Y0201630D03*
X0789370Y0214630D03*
X1044370Y0074630D03*
X1044370Y0061630D03*
X1029370Y0061630D03*
X1029370Y0074630D03*
X1014370Y0271630D03*
X1014370Y0284630D03*
X0954370Y0131630D03*
X0954370Y0144630D03*
X0984370Y0284630D03*
X0984370Y0271630D03*
X0984370Y0214630D03*
X0984370Y0201630D03*
X0954370Y0061630D03*
X0954370Y0074630D03*
X0924370Y0284630D03*
X0924370Y0271630D03*
X0924370Y0144630D03*
X0924370Y0131630D03*
X0924370Y0214630D03*
X0924370Y0201630D03*
X0909370Y0271630D03*
X0909370Y0284630D03*
X1044370Y0284630D03*
X1044370Y0271630D03*
X1044370Y0144130D03*
X1044370Y0131130D03*
X1044370Y0214630D03*
X1044370Y0201630D03*
X1029370Y0271630D03*
X1029370Y0284630D03*
X0969370Y0061630D03*
X0969370Y0074630D03*
X1014370Y0131130D03*
X1014370Y0144130D03*
X1014370Y0201630D03*
X1014370Y0214630D03*
X0984370Y0074630D03*
X0984370Y0061630D03*
X1014370Y0061630D03*
X1014370Y0074630D03*
X0804370Y0074630D03*
X0804370Y0061630D03*
X0789370Y0061630D03*
X0789370Y0074630D03*
X0804370Y0214630D03*
X0804370Y0201630D03*
X0774370Y0271630D03*
X0774370Y0284630D03*
X0774370Y0061630D03*
X0774370Y0074630D03*
X0774370Y0201630D03*
X0774370Y0214630D03*
X0789370Y0271630D03*
X0789370Y0284630D03*
X0804370Y0284630D03*
X0804370Y0271630D03*
X0834370Y0061630D03*
X0834370Y0074630D03*
X0864370Y0284630D03*
X0864370Y0271630D03*
X0849370Y0061630D03*
X0849370Y0074630D03*
X0864370Y0214630D03*
X0864370Y0201630D03*
X0834370Y0201630D03*
X0834370Y0214630D03*
X0834370Y0131630D03*
X0834370Y0144630D03*
X0834370Y0271630D03*
X0834370Y0284630D03*
X0774370Y0131630D03*
X0774370Y0144630D03*
X0894370Y0131630D03*
X0894370Y0144630D03*
X0894370Y0201630D03*
X0894370Y0214630D03*
X0894370Y0061630D03*
X0894370Y0074630D03*
X0954370Y0201630D03*
X0954370Y0214630D03*
X0984370Y0144630D03*
X0984370Y0131630D03*
X0969370Y0271630D03*
X0969370Y0284630D03*
X0954370Y0271630D03*
X0954370Y0284630D03*
X0909370Y0061630D03*
X0909370Y0074630D03*
X0924370Y0074630D03*
X0924370Y0061630D03*
X0894370Y0271630D03*
X0894370Y0284630D03*
X0864370Y0144630D03*
X0864370Y0131630D03*
X0864370Y0074630D03*
X0864370Y0061630D03*
X0849370Y0271630D03*
X0849370Y0284630D03*
X0804370Y0144630D03*
X0804370Y0131630D03*
X0909370Y0201630D03*
X0909370Y0214630D03*
X0909370Y0131630D03*
X0909370Y0144630D03*
X0969370Y0131630D03*
X0969370Y0144630D03*
X0969370Y0201630D03*
X0969370Y0214630D03*
X1029370Y0201630D03*
X1029370Y0214630D03*
X1029370Y0131130D03*
X1029370Y0144130D03*
D44*
X1034250Y0447500D03*
X1047250Y0447500D03*
D58*
X0789370Y0131630D03*
X0789370Y0144630D03*
X0849370Y0201630D03*
X0849370Y0214630D03*
X0849370Y0131630D03*
X0849370Y0144630D03*
D44*
X0924370Y0228130D03*
X0914370Y0228130D03*
X0904370Y0228130D03*
X0894370Y0228130D03*
X0894370Y0258130D03*
X0904370Y0258130D03*
X0914370Y0258130D03*
X0924370Y0258130D03*
X1044370Y0158130D03*
X1034370Y0158130D03*
X1024370Y0158130D03*
X1014370Y0158130D03*
X1014370Y0188130D03*
X1024370Y0188130D03*
X1034370Y0188130D03*
X1044370Y0188130D03*
X0804370Y0298130D03*
X0794370Y0298130D03*
X0784370Y0298130D03*
X0774370Y0298130D03*
X0774370Y0328130D03*
X0784370Y0328130D03*
X0794370Y0328130D03*
X0804370Y0328130D03*
X0924370Y0158130D03*
X0914370Y0158130D03*
X0904370Y0158130D03*
X0894370Y0158130D03*
X0894370Y0188130D03*
X0904370Y0188130D03*
X0914370Y0188130D03*
X0924370Y0188130D03*
X0804370Y0158130D03*
X0794370Y0158130D03*
X0784370Y0158130D03*
X0774370Y0158130D03*
X0774370Y0188130D03*
X0784370Y0188130D03*
X0794370Y0188130D03*
X0804370Y0188130D03*
X0984370Y0228130D03*
X0974370Y0228130D03*
X0964370Y0228130D03*
X0954370Y0228130D03*
X0954370Y0258130D03*
X0964370Y0258130D03*
X0974370Y0258130D03*
X0984370Y0258130D03*
X0984370Y0158130D03*
X0974370Y0158130D03*
X0964370Y0158130D03*
X0954370Y0158130D03*
X0954370Y0188130D03*
X0964370Y0188130D03*
X0974370Y0188130D03*
X0984370Y0188130D03*
X1044370Y0228130D03*
X1034370Y0228130D03*
X1024370Y0228130D03*
X1014370Y0228130D03*
X1014370Y0258130D03*
X1024370Y0258130D03*
X1034370Y0258130D03*
X1044370Y0258130D03*
X1044370Y0298130D03*
X1034370Y0298130D03*
X1024370Y0298130D03*
X1014370Y0298130D03*
X1014370Y0328130D03*
X1024370Y0328130D03*
X1034370Y0328130D03*
X1044370Y0328130D03*
X0804370Y0088130D03*
X0794370Y0088130D03*
X0784370Y0088130D03*
X0774370Y0088130D03*
X0774370Y0118130D03*
X0784370Y0118130D03*
X0794370Y0118130D03*
X0804370Y0118130D03*
X0984370Y0298130D03*
X0974370Y0298130D03*
X0964370Y0298130D03*
X0954370Y0298130D03*
X0954370Y0328130D03*
X0964370Y0328130D03*
X0974370Y0328130D03*
X0984370Y0328130D03*
X1044370Y0088130D03*
X1034370Y0088130D03*
X1024370Y0088130D03*
X1014370Y0088130D03*
X1014370Y0118130D03*
X1024370Y0118130D03*
X1034370Y0118130D03*
X1044370Y0118130D03*
X0864370Y0088130D03*
X0854370Y0088130D03*
X0844370Y0088130D03*
X0834370Y0088130D03*
X0834370Y0118130D03*
X0844370Y0118130D03*
X0854370Y0118130D03*
X0864370Y0118130D03*
X0924370Y0298130D03*
X0914370Y0298130D03*
X0904370Y0298130D03*
X0894370Y0298130D03*
X0894370Y0328130D03*
X0904370Y0328130D03*
X0914370Y0328130D03*
X0924370Y0328130D03*
X0864370Y0228130D03*
X0854370Y0228130D03*
X0844370Y0228130D03*
X0834370Y0228130D03*
X0834370Y0258130D03*
X0844370Y0258130D03*
X0854370Y0258130D03*
X0864370Y0258130D03*
X0924370Y0088130D03*
X0914370Y0088130D03*
X0904370Y0088130D03*
X0894370Y0088130D03*
X0894370Y0118130D03*
X0904370Y0118130D03*
X0914370Y0118130D03*
X0924370Y0118130D03*
X0804370Y0228130D03*
X0794370Y0228130D03*
X0784370Y0228130D03*
X0774370Y0228130D03*
X0774370Y0258130D03*
X0784370Y0258130D03*
X0794370Y0258130D03*
X0804370Y0258130D03*
X0864370Y0298130D03*
X0854370Y0298130D03*
X0844370Y0298130D03*
X0834370Y0298130D03*
X0834370Y0328130D03*
X0844370Y0328130D03*
X0854370Y0328130D03*
X0864370Y0328130D03*
D76*
X0774370Y0401510D03*
X0774370Y0380250D03*
D44*
X0984370Y0088130D03*
X0974370Y0088130D03*
X0964370Y0088130D03*
X0954370Y0088130D03*
X0954370Y0118130D03*
X0964370Y0118130D03*
X0974370Y0118130D03*
X0984370Y0118130D03*
X0864370Y0158130D03*
X0854370Y0158130D03*
X0844370Y0158130D03*
X0834370Y0158130D03*
X0834370Y0188130D03*
X0844370Y0188130D03*
X0854370Y0188130D03*
X0864370Y0188130D03*
D105*
X0942870Y0445130D03*
X0862870Y0445130D03*
D15*
X0922870Y0475130D03*
D71*
X0892870Y0435130D03*
X0912870Y0435130D03*
X0872870Y0435130D03*
X0932870Y0435130D03*
D15*
X0882870Y0475130D03*
D22*
X0827870Y0470130D03*
D97*
X0817870Y0480130D03*
X0837870Y0480130D03*
X0837870Y0460130D03*
X0817870Y0460130D03*
D22*
X0777870Y0470130D03*
D97*
X0767870Y0480130D03*
X0787870Y0480130D03*
X0787870Y0460130D03*
X0767870Y0460130D03*
D95*
X0866870Y0342130D03*
X0861870Y0342130D03*
X0856870Y0342130D03*
X0851870Y0342130D03*
X0846870Y0342130D03*
X0841870Y0342130D03*
X0836870Y0342130D03*
X0831870Y0342130D03*
X0831870Y0362130D03*
X0836870Y0362130D03*
X0841870Y0362130D03*
X0846870Y0362130D03*
X0851870Y0362130D03*
X0856870Y0362130D03*
X0861870Y0362130D03*
X0866870Y0362130D03*
X0926870Y0342130D03*
X0921870Y0342130D03*
X0916870Y0342130D03*
X0911870Y0342130D03*
X0906870Y0342130D03*
X0901870Y0342130D03*
X0896870Y0342130D03*
X0891870Y0342130D03*
X0891870Y0362130D03*
X0896870Y0362130D03*
X0901870Y0362130D03*
X0906870Y0362130D03*
X0911870Y0362130D03*
X0916870Y0362130D03*
X0921870Y0362130D03*
X0926870Y0362130D03*
X0986870Y0342130D03*
X0981870Y0342130D03*
X0976870Y0342130D03*
X0971870Y0342130D03*
X0966870Y0342130D03*
X0961870Y0342130D03*
X0956870Y0342130D03*
X0951870Y0342130D03*
X0951870Y0362130D03*
X0956870Y0362130D03*
X0961870Y0362130D03*
X0966870Y0362130D03*
X0971870Y0362130D03*
X0976870Y0362130D03*
X0981870Y0362130D03*
X0986870Y0362130D03*
X1046870Y0342630D03*
X1041870Y0342630D03*
X1036870Y0342630D03*
X1031870Y0342630D03*
X1026870Y0342630D03*
X1021870Y0342630D03*
X1016870Y0342630D03*
X1011870Y0342630D03*
X1011870Y0362630D03*
X1016870Y0362630D03*
X1021870Y0362630D03*
X1026870Y0362630D03*
X1031870Y0362630D03*
X1036870Y0362630D03*
X1041870Y0362630D03*
X1046870Y0362630D03*
D75*
X0997750Y0392500D03*
D53*
X0997750Y0402500D03*
X1007750Y0392500D03*
X1007750Y0402500D03*
X1017750Y0392500D03*
X1017750Y0402500D03*
D75*
X0877750Y0458000D03*
D53*
X0887750Y0458000D03*
X0897750Y0458000D03*
X0907750Y0458000D03*
X0917750Y0458000D03*
X0927750Y0458000D03*
D83*
X0822870Y0430130D03*
X0842870Y0430130D03*
D86*
X0941870Y0412380D03*
X0931870Y0412380D03*
X0921870Y0412380D03*
X0911870Y0412380D03*
X0901870Y0412380D03*
X0891870Y0412380D03*
X0881870Y0412380D03*
X0871870Y0412380D03*
X0861870Y0412380D03*
X0851870Y0412380D03*
X0841870Y0412380D03*
X0831870Y0412380D03*
X0821870Y0412380D03*
D18*
X0951870Y0412380D03*
D86*
X0821870Y0382380D03*
X0831870Y0382380D03*
X0841870Y0382380D03*
X0851870Y0382380D03*
X0861870Y0382380D03*
X0871870Y0382380D03*
X0881870Y0382380D03*
X0891870Y0382380D03*
X0901870Y0382380D03*
X0911870Y0382380D03*
X0921870Y0382380D03*
X0931870Y0382380D03*
X0941870Y0382380D03*
X0951870Y0382380D03*
D95*
X0806870Y0342130D03*
X0801870Y0342130D03*
X0796870Y0342130D03*
X0791870Y0342130D03*
X0786870Y0342130D03*
X0781870Y0342130D03*
X0776870Y0342130D03*
X0771870Y0342130D03*
X0771870Y0362130D03*
X0776870Y0362130D03*
X0781870Y0362130D03*
X0786870Y0362130D03*
X0791870Y0362130D03*
X0796870Y0362130D03*
X0801870Y0362130D03*
X0806870Y0362130D03*
D75*
X0957250Y0435500D03*
D53*
X0957250Y0425500D03*
D75*
X1038250Y0394000D03*
D53*
X1048250Y0394000D03*
D44*
X1034250Y0427500D03*
X1047250Y0427500D03*
X1034250Y0417500D03*
X1047250Y0417500D03*
D75*
X1038250Y0405500D03*
D53*
X1048250Y0405500D03*
D58*
X0939750Y0470000D03*
X0939750Y0457000D03*
D44*
X0890550Y0392100D03*
X0877550Y0392100D03*
D86*
X0980980Y0385070D03*
X0963260Y0385070D03*
X0980980Y0408690D03*
X0963260Y0408690D03*
D44*
X1034250Y0437500D03*
X1047250Y0437500D03*
X0980250Y0435700D03*
X0993250Y0435700D03*
X1043150Y0497500D02*
G01*
D102*
D119*
X1098150Y0532500D03*
X1378150Y0532500D03*
X1098150Y0747500D03*
X1378150Y0747500D03*
D11*
X1070650Y0616250D03*
X1070650Y0723750D03*
D13*
X1073150Y0627500D03*
X1073150Y0622500D03*
X1068150Y0622500D03*
X1068150Y0627500D03*
X1068150Y0642500D03*
X1068150Y0647500D03*
X1068150Y0637500D03*
X1068150Y0632500D03*
X1073150Y0632500D03*
X1073150Y0637500D03*
X1073150Y0647500D03*
X1073150Y0642500D03*
X1068150Y0697500D03*
X1068150Y0702500D03*
X1068150Y0712500D03*
X1068150Y0707500D03*
X1073150Y0707500D03*
X1073150Y0712500D03*
X1073150Y0702500D03*
X1073150Y0697500D03*
X1073150Y0717500D03*
X1068150Y0717500D03*
X1068150Y0692500D03*
X1073150Y0692500D03*
X1073150Y0662500D03*
X1073150Y0667500D03*
X1073150Y0657500D03*
X1073150Y0652500D03*
X1073150Y0672500D03*
X1073150Y0677500D03*
X1073150Y0687500D03*
X1073150Y0682500D03*
X1068150Y0682500D03*
X1068150Y0687500D03*
X1068150Y0677500D03*
X1068150Y0672500D03*
X1068150Y0652500D03*
X1068150Y0657500D03*
X1068150Y0667500D03*
X1068150Y0662500D03*
D11*
X1405650Y0723750D03*
X1405650Y0616250D03*
D13*
X1403150Y0712500D03*
X1403150Y0717500D03*
X1408150Y0717500D03*
X1408150Y0712500D03*
X1408150Y0697500D03*
X1408150Y0692500D03*
X1408150Y0702500D03*
X1408150Y0707500D03*
X1403150Y0707500D03*
X1403150Y0702500D03*
X1403150Y0692500D03*
X1403150Y0697500D03*
X1408150Y0642500D03*
X1408150Y0637500D03*
X1408150Y0627500D03*
X1408150Y0632500D03*
X1403150Y0632500D03*
X1403150Y0627500D03*
X1403150Y0637500D03*
X1403150Y0642500D03*
X1403150Y0622500D03*
X1408150Y0622500D03*
X1408150Y0647500D03*
X1403150Y0647500D03*
X1403150Y0677500D03*
X1403150Y0672500D03*
X1403150Y0682500D03*
X1403150Y0687500D03*
X1403150Y0667500D03*
X1403150Y0662500D03*
X1403150Y0652500D03*
X1403150Y0657500D03*
X1408150Y0657500D03*
X1408150Y0652500D03*
X1408150Y0662500D03*
X1408150Y0667500D03*
X1408150Y0687500D03*
X1408150Y0682500D03*
X1408150Y0672500D03*
X1408150Y0677500D03*
D11*
X1291900Y0527500D03*
X1184400Y0527500D03*
D13*
X1280650Y0530000D03*
X1285650Y0530000D03*
X1285650Y0525000D03*
X1280650Y0525000D03*
X1265650Y0525000D03*
X1260650Y0525000D03*
X1270650Y0525000D03*
X1275650Y0525000D03*
X1275650Y0530000D03*
X1270650Y0530000D03*
X1260650Y0530000D03*
X1265650Y0530000D03*
X1210650Y0525000D03*
X1205650Y0525000D03*
X1195650Y0525000D03*
X1200650Y0525000D03*
X1200650Y0530000D03*
X1195650Y0530000D03*
X1205650Y0530000D03*
X1210650Y0530000D03*
X1190650Y0530000D03*
X1190650Y0525000D03*
X1215650Y0525000D03*
X1215650Y0530000D03*
X1245650Y0530000D03*
X1240650Y0530000D03*
X1250650Y0530000D03*
X1255650Y0530000D03*
X1235650Y0530000D03*
X1230650Y0530000D03*
X1220650Y0530000D03*
X1225650Y0530000D03*
X1225650Y0525000D03*
X1220650Y0525000D03*
X1230650Y0525000D03*
X1235650Y0525000D03*
X1255650Y0525000D03*
X1250650Y0525000D03*
X1240650Y0525000D03*
X1245650Y0525000D03*
D53*
X1348150Y0717500D03*
X1358150Y0717500D03*
X1368150Y0717500D03*
X1378150Y0717500D03*
X1348150Y0707500D03*
X1358150Y0707500D03*
X1368150Y0707500D03*
X1378150Y0707500D03*
X1348150Y0697500D03*
X1358150Y0697500D03*
X1368150Y0697500D03*
X1378150Y0697500D03*
X1348150Y0687500D03*
X1358150Y0687500D03*
X1368150Y0687500D03*
X1378150Y0687500D03*
X1348150Y0677500D03*
X1358150Y0677500D03*
X1368150Y0677500D03*
X1378150Y0677500D03*
X1348150Y0667500D03*
X1358150Y0667500D03*
X1368150Y0667500D03*
X1378150Y0667500D03*
X1348150Y0657500D03*
X1358150Y0657500D03*
X1368150Y0657500D03*
X1378150Y0657500D03*
X1348150Y0647500D03*
X1358150Y0647500D03*
X1368150Y0647500D03*
X1378150Y0647500D03*
X1348150Y0637500D03*
X1358150Y0637500D03*
X1368150Y0637500D03*
X1378150Y0637500D03*
X1348150Y0627500D03*
X1358150Y0627500D03*
X1368150Y0627500D03*
X1378150Y0627500D03*
X1348150Y0617500D03*
X1358150Y0617500D03*
X1368150Y0617500D03*
X1378150Y0617500D03*
X1348150Y0607500D03*
X1358150Y0607500D03*
X1368150Y0607500D03*
X1378150Y0607500D03*
X1348150Y0597500D03*
X1358150Y0597500D03*
X1368150Y0597500D03*
X1378150Y0597500D03*
X1348150Y0587500D03*
X1358150Y0587500D03*
X1368150Y0587500D03*
X1378150Y0587500D03*
X1348150Y0577500D03*
X1358150Y0577500D03*
X1368150Y0577500D03*
X1378150Y0577500D03*
X1098150Y0577500D03*
X1108150Y0577500D03*
X1118150Y0577500D03*
X1128150Y0577500D03*
X1098150Y0587500D03*
X1108150Y0587500D03*
X1118150Y0587500D03*
X1128150Y0587500D03*
X1098150Y0597500D03*
X1108150Y0597500D03*
X1118150Y0597500D03*
X1128150Y0597500D03*
X1098150Y0607500D03*
X1108150Y0607500D03*
X1118150Y0607500D03*
X1128150Y0607500D03*
X1098150Y0617500D03*
X1108150Y0617500D03*
X1118150Y0617500D03*
X1128150Y0617500D03*
X1098150Y0627500D03*
X1108150Y0627500D03*
X1118150Y0627500D03*
X1128150Y0627500D03*
X1098150Y0637500D03*
X1108150Y0637500D03*
X1118150Y0637500D03*
X1128150Y0637500D03*
X1098150Y0647500D03*
X1108150Y0647500D03*
X1118150Y0647500D03*
X1128150Y0647500D03*
X1098150Y0657500D03*
X1108150Y0657500D03*
X1118150Y0657500D03*
X1128150Y0657500D03*
X1098150Y0667500D03*
X1108150Y0667500D03*
X1118150Y0667500D03*
X1128150Y0667500D03*
X1098150Y0677500D03*
X1108150Y0677500D03*
X1118150Y0677500D03*
X1128150Y0677500D03*
X1098150Y0687500D03*
X1108150Y0687500D03*
X1118150Y0687500D03*
X1128150Y0687500D03*
X1098150Y0697500D03*
X1108150Y0697500D03*
X1118150Y0697500D03*
X1128150Y0697500D03*
X1098150Y0707500D03*
X1108150Y0707500D03*
X1118150Y0707500D03*
X1128150Y0707500D03*
X1098150Y0717500D03*
X1108150Y0717500D03*
X1118150Y0717500D03*
X1128150Y0717500D03*
X0010000Y0379000D02*
G01*
D104*
D63*
X0017500Y0426500D03*
D10*
X0017500Y0436500D03*
X0017500Y0446500D03*
X0017500Y0456500D03*
D63*
X0017500Y0386500D03*
D10*
X0017500Y0396500D03*
X0017500Y0406500D03*
X1043150Y0775000D02*
G01*
D104*
D101*
X1062900Y0794500D03*
X1148900Y0794500D03*
D34*
X1125900Y0801500D03*
D84*
X1125900Y0791500D03*
X1115900Y0801500D03*
X1115900Y0791500D03*
X1105900Y0801500D03*
X1105900Y0791500D03*
X1095900Y0801500D03*
X1095900Y0791500D03*
X1085900Y0801500D03*
X1085900Y0791500D03*
D40*
X1402150Y0853250D03*
X1210900Y0853250D03*
D16*
X1180600Y0782340D03*
D118*
X1180600Y0832720D03*
X1197140Y0832720D03*
X1213660Y0832720D03*
X1230200Y0832720D03*
X1180600Y0811080D03*
X1197140Y0811080D03*
X1213660Y0811080D03*
X1230200Y0811080D03*
D16*
X1230200Y0782340D03*
D101*
X1148900Y0936000D03*
X1062900Y0936000D03*
D34*
X1085900Y0929000D03*
D84*
X1085900Y0939000D03*
X1095900Y0929000D03*
X1095900Y0939000D03*
X1105900Y0929000D03*
X1105900Y0939000D03*
X1115900Y0929000D03*
X1115900Y0939000D03*
X1125900Y0929000D03*
X1125900Y0939000D03*
D109*
X1225900Y0920000D03*
X1185900Y0920000D03*
D84*
X1195900Y0900000D03*
X1205900Y0900000D03*
D68*
X1430360Y0886390D03*
X1412640Y0886390D03*
X1430360Y0910010D03*
X1412640Y0910010D03*
D34*
X1279200Y0942000D03*
D84*
X1279200Y0932000D03*
X1269200Y0942000D03*
X1269200Y0932000D03*
X1259200Y0942000D03*
X1259200Y0932000D03*
D34*
X1379100Y0944200D03*
D84*
X1389100Y0944200D03*
X1399100Y0944200D03*
X1409100Y0944200D03*
X1419100Y0944200D03*
X1429100Y0944200D03*
D68*
X1387300Y0919000D03*
X1377300Y0919000D03*
X1367300Y0919000D03*
X1357300Y0919000D03*
X1347300Y0919000D03*
X1337300Y0919000D03*
X1327300Y0919000D03*
X1317300Y0919000D03*
X1307300Y0919000D03*
X1297300Y0919000D03*
X1287300Y0919000D03*
X1277300Y0919000D03*
X1267300Y0919000D03*
D46*
X1397300Y0919000D03*
D68*
X1267300Y0889000D03*
X1277300Y0889000D03*
X1287300Y0889000D03*
X1297300Y0889000D03*
X1307300Y0889000D03*
X1317300Y0889000D03*
X1327300Y0889000D03*
X1337300Y0889000D03*
X1347300Y0889000D03*
X1357300Y0889000D03*
X1367300Y0889000D03*
X1377300Y0889000D03*
X1387300Y0889000D03*
X1397300Y0889000D03*
D34*
X1244150Y0894500D03*
D84*
X1244150Y0904500D03*
X1244150Y0914500D03*
D43*
X1311200Y0937400D03*
X1331200Y0937400D03*
D34*
X1378000Y0929200D03*
D84*
X1388000Y0929200D03*
D34*
X1163100Y0901750D03*
D84*
X1153100Y0901750D03*
D129*
X1382500Y0810500D03*
X1369500Y0810500D03*
X1361050Y0854550D03*
X1374050Y0854550D03*
X0016850Y0471500D02*
G01*
D104*
D11*
X0067350Y0514750D03*
X0067350Y0622250D03*
D13*
X0069850Y0526000D03*
X0069850Y0521000D03*
X0064850Y0521000D03*
X0064850Y0526000D03*
X0064850Y0541000D03*
X0064850Y0546000D03*
X0064850Y0536000D03*
X0064850Y0531000D03*
X0069850Y0531000D03*
X0069850Y0536000D03*
X0069850Y0546000D03*
X0069850Y0541000D03*
X0064850Y0596000D03*
X0064850Y0601000D03*
X0064850Y0611000D03*
X0064850Y0606000D03*
X0069850Y0606000D03*
X0069850Y0611000D03*
X0069850Y0601000D03*
X0069850Y0596000D03*
X0069850Y0616000D03*
X0064850Y0616000D03*
X0064850Y0591000D03*
X0069850Y0591000D03*
X0069850Y0561000D03*
X0069850Y0566000D03*
X0069850Y0556000D03*
X0069850Y0551000D03*
X0069850Y0571000D03*
X0069850Y0576000D03*
X0069850Y0586000D03*
X0069850Y0581000D03*
X0064850Y0581000D03*
X0064850Y0586000D03*
X0064850Y0576000D03*
X0064850Y0571000D03*
X0064850Y0551000D03*
X0064850Y0556000D03*
X0064850Y0566000D03*
X0064850Y0561000D03*
D111*
X0064850Y0653000D03*
X0411250Y0902500D02*
G01*
D104*
D11*
X0454500Y0944500D03*
X0562000Y0944500D03*
D13*
X0465750Y0942000D03*
X0460750Y0942000D03*
X0460750Y0947000D03*
X0465750Y0947000D03*
X0480750Y0947000D03*
X0485750Y0947000D03*
X0475750Y0947000D03*
X0470750Y0947000D03*
X0470750Y0942000D03*
X0475750Y0942000D03*
X0485750Y0942000D03*
X0480750Y0942000D03*
X0535750Y0947000D03*
X0540750Y0947000D03*
X0550750Y0947000D03*
X0545750Y0947000D03*
X0545750Y0942000D03*
X0550750Y0942000D03*
X0540750Y0942000D03*
X0535750Y0942000D03*
X0555750Y0942000D03*
X0555750Y0947000D03*
X0530750Y0947000D03*
X0530750Y0942000D03*
X0500750Y0942000D03*
X0505750Y0942000D03*
X0495750Y0942000D03*
X0490750Y0942000D03*
X0510750Y0942000D03*
X0515750Y0942000D03*
X0525750Y0942000D03*
X0520750Y0942000D03*
X0520750Y0947000D03*
X0525750Y0947000D03*
X0515750Y0947000D03*
X0510750Y0947000D03*
X0490750Y0947000D03*
X0495750Y0947000D03*
X0505750Y0947000D03*
X0500750Y0947000D03*
D111*
X0592750Y0947000D03*
X1086250Y0010000D02*
G01*
D104*
D119*
X1101250Y0430000D03*
X1101250Y0025000D03*
X1401250Y0025000D03*
X1401250Y0430000D03*
D11*
X1300120Y0029130D03*
X1192620Y0029130D03*
D13*
X1288870Y0031630D03*
X1293870Y0031630D03*
X1293870Y0026630D03*
X1288870Y0026630D03*
X1273870Y0026630D03*
X1268870Y0026630D03*
X1278870Y0026630D03*
X1283870Y0026630D03*
X1283870Y0031630D03*
X1278870Y0031630D03*
X1268870Y0031630D03*
X1273870Y0031630D03*
X1218870Y0026630D03*
X1213870Y0026630D03*
X1203870Y0026630D03*
X1208870Y0026630D03*
X1208870Y0031630D03*
X1203870Y0031630D03*
X1213870Y0031630D03*
X1218870Y0031630D03*
X1198870Y0031630D03*
X1198870Y0026630D03*
X1223870Y0026630D03*
X1223870Y0031630D03*
X1253870Y0031630D03*
X1248870Y0031630D03*
X1258870Y0031630D03*
X1263870Y0031630D03*
X1243870Y0031630D03*
X1238870Y0031630D03*
X1228870Y0031630D03*
X1233870Y0031630D03*
X1233870Y0026630D03*
X1228870Y0026630D03*
X1238870Y0026630D03*
X1243870Y0026630D03*
X1263870Y0026630D03*
X1258870Y0026630D03*
X1248870Y0026630D03*
X1253870Y0026630D03*
D47*
X1393370Y0467130D03*
X1307370Y0467130D03*
D75*
X1330370Y0460130D03*
D53*
X1330370Y0470130D03*
X1340370Y0460130D03*
X1340370Y0470130D03*
X1350370Y0460130D03*
X1350370Y0470130D03*
X1360370Y0460130D03*
X1360370Y0470130D03*
X1370370Y0460130D03*
X1370370Y0470130D03*
D58*
X1126870Y0201630D03*
X1126870Y0214630D03*
X1381870Y0074630D03*
X1381870Y0061630D03*
X1366870Y0061630D03*
X1366870Y0074630D03*
X1351870Y0271630D03*
X1351870Y0284630D03*
X1291870Y0131630D03*
X1291870Y0144630D03*
X1321870Y0284630D03*
X1321870Y0271630D03*
X1321870Y0214630D03*
X1321870Y0201630D03*
X1291870Y0061630D03*
X1291870Y0074630D03*
X1261870Y0284630D03*
X1261870Y0271630D03*
X1261870Y0144630D03*
X1261870Y0131630D03*
X1261870Y0214630D03*
X1261870Y0201630D03*
X1246870Y0271630D03*
X1246870Y0284630D03*
X1381870Y0284630D03*
X1381870Y0271630D03*
X1381870Y0144130D03*
X1381870Y0131130D03*
X1381870Y0214630D03*
X1381870Y0201630D03*
X1366870Y0271630D03*
X1366870Y0284630D03*
X1306870Y0061630D03*
X1306870Y0074630D03*
X1351870Y0131130D03*
X1351870Y0144130D03*
X1351870Y0201630D03*
X1351870Y0214630D03*
X1321870Y0074630D03*
X1321870Y0061630D03*
X1351870Y0061630D03*
X1351870Y0074630D03*
X1141870Y0074630D03*
X1141870Y0061630D03*
X1126870Y0061630D03*
X1126870Y0074630D03*
X1141870Y0214630D03*
X1141870Y0201630D03*
X1111870Y0271630D03*
X1111870Y0284630D03*
X1111870Y0061630D03*
X1111870Y0074630D03*
X1111870Y0201630D03*
X1111870Y0214630D03*
X1126870Y0271630D03*
X1126870Y0284630D03*
X1141870Y0284630D03*
X1141870Y0271630D03*
X1171870Y0061630D03*
X1171870Y0074630D03*
X1201870Y0284630D03*
X1201870Y0271630D03*
X1186870Y0061630D03*
X1186870Y0074630D03*
X1201870Y0214630D03*
X1201870Y0201630D03*
X1171870Y0201630D03*
X1171870Y0214630D03*
X1171870Y0131630D03*
X1171870Y0144630D03*
X1171870Y0271630D03*
X1171870Y0284630D03*
X1111870Y0131630D03*
X1111870Y0144630D03*
X1231870Y0131630D03*
X1231870Y0144630D03*
X1231870Y0201630D03*
X1231870Y0214630D03*
X1231870Y0061630D03*
X1231870Y0074630D03*
X1291870Y0201630D03*
X1291870Y0214630D03*
X1321870Y0144630D03*
X1321870Y0131630D03*
X1306870Y0271630D03*
X1306870Y0284630D03*
X1291870Y0271630D03*
X1291870Y0284630D03*
X1246870Y0061630D03*
X1246870Y0074630D03*
X1261870Y0074630D03*
X1261870Y0061630D03*
X1231870Y0271630D03*
X1231870Y0284630D03*
X1201870Y0144630D03*
X1201870Y0131630D03*
X1201870Y0074630D03*
X1201870Y0061630D03*
X1186870Y0271630D03*
X1186870Y0284630D03*
X1141870Y0144630D03*
X1141870Y0131630D03*
X1246870Y0201630D03*
X1246870Y0214630D03*
X1246870Y0131630D03*
X1246870Y0144630D03*
X1306870Y0131630D03*
X1306870Y0144630D03*
X1306870Y0201630D03*
X1306870Y0214630D03*
X1366870Y0201630D03*
X1366870Y0214630D03*
X1366870Y0131130D03*
X1366870Y0144130D03*
D44*
X1371750Y0447500D03*
X1384750Y0447500D03*
D58*
X1126870Y0131630D03*
X1126870Y0144630D03*
X1186870Y0201630D03*
X1186870Y0214630D03*
X1186870Y0131630D03*
X1186870Y0144630D03*
D44*
X1261870Y0228130D03*
X1251870Y0228130D03*
X1241870Y0228130D03*
X1231870Y0228130D03*
X1231870Y0258130D03*
X1241870Y0258130D03*
X1251870Y0258130D03*
X1261870Y0258130D03*
X1381870Y0158130D03*
X1371870Y0158130D03*
X1361870Y0158130D03*
X1351870Y0158130D03*
X1351870Y0188130D03*
X1361870Y0188130D03*
X1371870Y0188130D03*
X1381870Y0188130D03*
X1141870Y0298130D03*
X1131870Y0298130D03*
X1121870Y0298130D03*
X1111870Y0298130D03*
X1111870Y0328130D03*
X1121870Y0328130D03*
X1131870Y0328130D03*
X1141870Y0328130D03*
X1261870Y0158130D03*
X1251870Y0158130D03*
X1241870Y0158130D03*
X1231870Y0158130D03*
X1231870Y0188130D03*
X1241870Y0188130D03*
X1251870Y0188130D03*
X1261870Y0188130D03*
X1141870Y0158130D03*
X1131870Y0158130D03*
X1121870Y0158130D03*
X1111870Y0158130D03*
X1111870Y0188130D03*
X1121870Y0188130D03*
X1131870Y0188130D03*
X1141870Y0188130D03*
X1321870Y0228130D03*
X1311870Y0228130D03*
X1301870Y0228130D03*
X1291870Y0228130D03*
X1291870Y0258130D03*
X1301870Y0258130D03*
X1311870Y0258130D03*
X1321870Y0258130D03*
X1321870Y0158130D03*
X1311870Y0158130D03*
X1301870Y0158130D03*
X1291870Y0158130D03*
X1291870Y0188130D03*
X1301870Y0188130D03*
X1311870Y0188130D03*
X1321870Y0188130D03*
X1381870Y0228130D03*
X1371870Y0228130D03*
X1361870Y0228130D03*
X1351870Y0228130D03*
X1351870Y0258130D03*
X1361870Y0258130D03*
X1371870Y0258130D03*
X1381870Y0258130D03*
X1381870Y0298130D03*
X1371870Y0298130D03*
X1361870Y0298130D03*
X1351870Y0298130D03*
X1351870Y0328130D03*
X1361870Y0328130D03*
X1371870Y0328130D03*
X1381870Y0328130D03*
X1141870Y0088130D03*
X1131870Y0088130D03*
X1121870Y0088130D03*
X1111870Y0088130D03*
X1111870Y0118130D03*
X1121870Y0118130D03*
X1131870Y0118130D03*
X1141870Y0118130D03*
X1321870Y0298130D03*
X1311870Y0298130D03*
X1301870Y0298130D03*
X1291870Y0298130D03*
X1291870Y0328130D03*
X1301870Y0328130D03*
X1311870Y0328130D03*
X1321870Y0328130D03*
X1381870Y0088130D03*
X1371870Y0088130D03*
X1361870Y0088130D03*
X1351870Y0088130D03*
X1351870Y0118130D03*
X1361870Y0118130D03*
X1371870Y0118130D03*
X1381870Y0118130D03*
X1201870Y0088130D03*
X1191870Y0088130D03*
X1181870Y0088130D03*
X1171870Y0088130D03*
X1171870Y0118130D03*
X1181870Y0118130D03*
X1191870Y0118130D03*
X1201870Y0118130D03*
X1261870Y0298130D03*
X1251870Y0298130D03*
X1241870Y0298130D03*
X1231870Y0298130D03*
X1231870Y0328130D03*
X1241870Y0328130D03*
X1251870Y0328130D03*
X1261870Y0328130D03*
X1201870Y0228130D03*
X1191870Y0228130D03*
X1181870Y0228130D03*
X1171870Y0228130D03*
X1171870Y0258130D03*
X1181870Y0258130D03*
X1191870Y0258130D03*
X1201870Y0258130D03*
X1261870Y0088130D03*
X1251870Y0088130D03*
X1241870Y0088130D03*
X1231870Y0088130D03*
X1231870Y0118130D03*
X1241870Y0118130D03*
X1251870Y0118130D03*
X1261870Y0118130D03*
X1141870Y0228130D03*
X1131870Y0228130D03*
X1121870Y0228130D03*
X1111870Y0228130D03*
X1111870Y0258130D03*
X1121870Y0258130D03*
X1131870Y0258130D03*
X1141870Y0258130D03*
X1201870Y0298130D03*
X1191870Y0298130D03*
X1181870Y0298130D03*
X1171870Y0298130D03*
X1171870Y0328130D03*
X1181870Y0328130D03*
X1191870Y0328130D03*
X1201870Y0328130D03*
D76*
X1111870Y0401510D03*
X1111870Y0380250D03*
D44*
X1321870Y0088130D03*
X1311870Y0088130D03*
X1301870Y0088130D03*
X1291870Y0088130D03*
X1291870Y0118130D03*
X1301870Y0118130D03*
X1311870Y0118130D03*
X1321870Y0118130D03*
X1201870Y0158130D03*
X1191870Y0158130D03*
X1181870Y0158130D03*
X1171870Y0158130D03*
X1171870Y0188130D03*
X1181870Y0188130D03*
X1191870Y0188130D03*
X1201870Y0188130D03*
D105*
X1280370Y0445130D03*
X1200370Y0445130D03*
D15*
X1260370Y0475130D03*
D71*
X1230370Y0435130D03*
X1250370Y0435130D03*
X1210370Y0435130D03*
X1270370Y0435130D03*
D15*
X1220370Y0475130D03*
D22*
X1165370Y0470130D03*
D97*
X1155370Y0480130D03*
X1175370Y0480130D03*
X1175370Y0460130D03*
X1155370Y0460130D03*
D22*
X1115370Y0470130D03*
D97*
X1105370Y0480130D03*
X1125370Y0480130D03*
X1125370Y0460130D03*
X1105370Y0460130D03*
D95*
X1204370Y0342130D03*
X1199370Y0342130D03*
X1194370Y0342130D03*
X1189370Y0342130D03*
X1184370Y0342130D03*
X1179370Y0342130D03*
X1174370Y0342130D03*
X1169370Y0342130D03*
X1169370Y0362130D03*
X1174370Y0362130D03*
X1179370Y0362130D03*
X1184370Y0362130D03*
X1189370Y0362130D03*
X1194370Y0362130D03*
X1199370Y0362130D03*
X1204370Y0362130D03*
X1264370Y0342130D03*
X1259370Y0342130D03*
X1254370Y0342130D03*
X1249370Y0342130D03*
X1244370Y0342130D03*
X1239370Y0342130D03*
X1234370Y0342130D03*
X1229370Y0342130D03*
X1229370Y0362130D03*
X1234370Y0362130D03*
X1239370Y0362130D03*
X1244370Y0362130D03*
X1249370Y0362130D03*
X1254370Y0362130D03*
X1259370Y0362130D03*
X1264370Y0362130D03*
X1324370Y0342130D03*
X1319370Y0342130D03*
X1314370Y0342130D03*
X1309370Y0342130D03*
X1304370Y0342130D03*
X1299370Y0342130D03*
X1294370Y0342130D03*
X1289370Y0342130D03*
X1289370Y0362130D03*
X1294370Y0362130D03*
X1299370Y0362130D03*
X1304370Y0362130D03*
X1309370Y0362130D03*
X1314370Y0362130D03*
X1319370Y0362130D03*
X1324370Y0362130D03*
X1384370Y0342630D03*
X1379370Y0342630D03*
X1374370Y0342630D03*
X1369370Y0342630D03*
X1364370Y0342630D03*
X1359370Y0342630D03*
X1354370Y0342630D03*
X1349370Y0342630D03*
X1349370Y0362630D03*
X1354370Y0362630D03*
X1359370Y0362630D03*
X1364370Y0362630D03*
X1369370Y0362630D03*
X1374370Y0362630D03*
X1379370Y0362630D03*
X1384370Y0362630D03*
D75*
X1335250Y0392500D03*
D53*
X1335250Y0402500D03*
X1345250Y0392500D03*
X1345250Y0402500D03*
X1355250Y0392500D03*
X1355250Y0402500D03*
D75*
X1215250Y0458000D03*
D53*
X1225250Y0458000D03*
X1235250Y0458000D03*
X1245250Y0458000D03*
X1255250Y0458000D03*
X1265250Y0458000D03*
D83*
X1160370Y0430130D03*
X1180370Y0430130D03*
D86*
X1279370Y0412380D03*
X1269370Y0412380D03*
X1259370Y0412380D03*
X1249370Y0412380D03*
X1239370Y0412380D03*
X1229370Y0412380D03*
X1219370Y0412380D03*
X1209370Y0412380D03*
X1199370Y0412380D03*
X1189370Y0412380D03*
X1179370Y0412380D03*
X1169370Y0412380D03*
X1159370Y0412380D03*
D18*
X1289370Y0412380D03*
D86*
X1159370Y0382380D03*
X1169370Y0382380D03*
X1179370Y0382380D03*
X1189370Y0382380D03*
X1199370Y0382380D03*
X1209370Y0382380D03*
X1219370Y0382380D03*
X1229370Y0382380D03*
X1239370Y0382380D03*
X1249370Y0382380D03*
X1259370Y0382380D03*
X1269370Y0382380D03*
X1279370Y0382380D03*
X1289370Y0382380D03*
D95*
X1144370Y0342130D03*
X1139370Y0342130D03*
X1134370Y0342130D03*
X1129370Y0342130D03*
X1124370Y0342130D03*
X1119370Y0342130D03*
X1114370Y0342130D03*
X1109370Y0342130D03*
X1109370Y0362130D03*
X1114370Y0362130D03*
X1119370Y0362130D03*
X1124370Y0362130D03*
X1129370Y0362130D03*
X1134370Y0362130D03*
X1139370Y0362130D03*
X1144370Y0362130D03*
D75*
X1294750Y0435500D03*
D53*
X1294750Y0425500D03*
D75*
X1375750Y0394000D03*
D53*
X1385750Y0394000D03*
D44*
X1371750Y0427500D03*
X1384750Y0427500D03*
X1371750Y0417500D03*
X1384750Y0417500D03*
D75*
X1375750Y0405500D03*
D53*
X1385750Y0405500D03*
D58*
X1277250Y0470000D03*
X1277250Y0457000D03*
D44*
X1228050Y0392100D03*
X1215050Y0392100D03*
D86*
X1318480Y0385070D03*
X1300760Y0385070D03*
X1318480Y0408690D03*
X1300760Y0408690D03*
D44*
X1371750Y0437500D03*
X1384750Y0437500D03*
X1317750Y0435700D03*
X1330750Y0435700D03*
M02*
