G75*
G70*
%OFA0B0*%
%FSLAX25Y25*%
%IPPOS*%
%LPD*%
%AMOC8*
5,1,8,0,0,1.08239X$1,22.5*
%
%ADD101C,0.13575*%
%ADD102C,0.00000*%
%ADD104C,0.00591*%
%ADD105C,0.12000*%
%ADD109C,0.15355*%
%ADD11C,0.07000*%
%ADD111R,0.21290X0.21290*%
%ADD118R,0.11575X0.11575*%
%ADD119C,0.18000*%
%ADD123C,0.13810*%
%ADD129R,0.07575X0.09575*%
%ADD13C,0.05940*%
%ADD14R,0.12000X0.12000*%
%ADD15C,0.17710*%
%ADD16C,0.13386*%
%ADD18R,0.07500X0.07500*%
%ADD22C,0.11449*%
%ADD34R,0.07575X0.07575*%
%ADD40C,0.17575*%
%ADD43C,0.07175*%
%ADD44R,0.08000X0.10000*%
%ADD45C,0.15780*%
%ADD46R,0.07075X0.07075*%
%ADD47C,0.14000*%
%ADD53C,0.08000*%
%ADD58R,0.10000X0.08000*%
%ADD68C,0.07075*%
%ADD71C,0.14500*%
%ADD75R,0.08000X0.08000*%
%ADD76R,0.16760X0.12040*%
%ADD83C,0.07600*%
%ADD84C,0.07575*%
%ADD86C,0.07500*%
%ADD91O,0.08000X0.12000*%
%ADD93R,0.09000X0.09000*%
%ADD95R,0.04000X0.06500*%
%ADD96C,0.17500*%
%ADD97C,0.11843*%
%ADD99C,0.13811*%
X0010000Y0010000D02*
G01*
D104*
D119*
X0025000Y0430000D03*
X0025000Y0025000D03*
X0325000Y0025000D03*
X0325000Y0430000D03*
D11*
X0223870Y0029130D03*
X0116370Y0029130D03*
D13*
X0212620Y0031630D03*
X0217620Y0031630D03*
X0217620Y0026630D03*
X0212620Y0026630D03*
X0197620Y0026630D03*
X0192620Y0026630D03*
X0202620Y0026630D03*
X0207620Y0026630D03*
X0207620Y0031630D03*
X0202620Y0031630D03*
X0192620Y0031630D03*
X0197620Y0031630D03*
X0142620Y0026630D03*
X0137620Y0026630D03*
X0127620Y0026630D03*
X0132620Y0026630D03*
X0132620Y0031630D03*
X0127620Y0031630D03*
X0137620Y0031630D03*
X0142620Y0031630D03*
X0122620Y0031630D03*
X0122620Y0026630D03*
X0147620Y0026630D03*
X0147620Y0031630D03*
X0177620Y0031630D03*
X0172620Y0031630D03*
X0182620Y0031630D03*
X0187620Y0031630D03*
X0167620Y0031630D03*
X0162620Y0031630D03*
X0152620Y0031630D03*
X0157620Y0031630D03*
X0157620Y0026630D03*
X0152620Y0026630D03*
X0162620Y0026630D03*
X0167620Y0026630D03*
X0187620Y0026630D03*
X0182620Y0026630D03*
X0172620Y0026630D03*
X0177620Y0026630D03*
D47*
X0317120Y0467130D03*
X0231120Y0467130D03*
D75*
X0254120Y0460130D03*
D53*
X0254120Y0470130D03*
X0264120Y0460130D03*
X0264120Y0470130D03*
X0274120Y0460130D03*
X0274120Y0470130D03*
X0284120Y0460130D03*
X0284120Y0470130D03*
X0294120Y0460130D03*
X0294120Y0470130D03*
D58*
X0050620Y0201630D03*
X0050620Y0214630D03*
X0305620Y0074630D03*
X0305620Y0061630D03*
X0290620Y0061630D03*
X0290620Y0074630D03*
X0275620Y0271630D03*
X0275620Y0284630D03*
X0215620Y0131630D03*
X0215620Y0144630D03*
X0245620Y0284630D03*
X0245620Y0271630D03*
X0245620Y0214630D03*
X0245620Y0201630D03*
X0215620Y0061630D03*
X0215620Y0074630D03*
X0185620Y0284630D03*
X0185620Y0271630D03*
X0185620Y0144630D03*
X0185620Y0131630D03*
X0185620Y0214630D03*
X0185620Y0201630D03*
X0170620Y0271630D03*
X0170620Y0284630D03*
X0305620Y0284630D03*
X0305620Y0271630D03*
X0305620Y0144130D03*
X0305620Y0131130D03*
X0305620Y0214630D03*
X0305620Y0201630D03*
X0290620Y0271630D03*
X0290620Y0284630D03*
X0230620Y0061630D03*
X0230620Y0074630D03*
X0275620Y0131130D03*
X0275620Y0144130D03*
X0275620Y0201630D03*
X0275620Y0214630D03*
X0245620Y0074630D03*
X0245620Y0061630D03*
X0275620Y0061630D03*
X0275620Y0074630D03*
X0065620Y0074630D03*
X0065620Y0061630D03*
X0050620Y0061630D03*
X0050620Y0074630D03*
X0065620Y0214630D03*
X0065620Y0201630D03*
X0035620Y0271630D03*
X0035620Y0284630D03*
X0035620Y0061630D03*
X0035620Y0074630D03*
X0035620Y0201630D03*
X0035620Y0214630D03*
X0050620Y0271630D03*
X0050620Y0284630D03*
X0065620Y0284630D03*
X0065620Y0271630D03*
X0095620Y0061630D03*
X0095620Y0074630D03*
X0125620Y0284630D03*
X0125620Y0271630D03*
X0110620Y0061630D03*
X0110620Y0074630D03*
X0125620Y0214630D03*
X0125620Y0201630D03*
X0095620Y0201630D03*
X0095620Y0214630D03*
X0095620Y0131630D03*
X0095620Y0144630D03*
X0095620Y0271630D03*
X0095620Y0284630D03*
X0035620Y0131630D03*
X0035620Y0144630D03*
X0155620Y0131630D03*
X0155620Y0144630D03*
X0155620Y0201630D03*
X0155620Y0214630D03*
X0155620Y0061630D03*
X0155620Y0074630D03*
X0215620Y0201630D03*
X0215620Y0214630D03*
X0245620Y0144630D03*
X0245620Y0131630D03*
X0230620Y0271630D03*
X0230620Y0284630D03*
X0215620Y0271630D03*
X0215620Y0284630D03*
X0170620Y0061630D03*
X0170620Y0074630D03*
X0185620Y0074630D03*
X0185620Y0061630D03*
X0155620Y0271630D03*
X0155620Y0284630D03*
X0125620Y0144630D03*
X0125620Y0131630D03*
X0125620Y0074630D03*
X0125620Y0061630D03*
X0110620Y0271630D03*
X0110620Y0284630D03*
X0065620Y0144630D03*
X0065620Y0131630D03*
X0170620Y0201630D03*
X0170620Y0214630D03*
X0170620Y0131630D03*
X0170620Y0144630D03*
X0230620Y0131630D03*
X0230620Y0144630D03*
X0230620Y0201630D03*
X0230620Y0214630D03*
X0290620Y0201630D03*
X0290620Y0214630D03*
X0290620Y0131130D03*
X0290620Y0144130D03*
D44*
X0295500Y0447500D03*
X0308500Y0447500D03*
D58*
X0050620Y0131630D03*
X0050620Y0144630D03*
X0110620Y0201630D03*
X0110620Y0214630D03*
X0110620Y0131630D03*
X0110620Y0144630D03*
D44*
X0185620Y0228130D03*
X0175620Y0228130D03*
X0165620Y0228130D03*
X0155620Y0228130D03*
X0155620Y0258130D03*
X0165620Y0258130D03*
X0175620Y0258130D03*
X0185620Y0258130D03*
X0305620Y0158130D03*
X0295620Y0158130D03*
X0285620Y0158130D03*
X0275620Y0158130D03*
X0275620Y0188130D03*
X0285620Y0188130D03*
X0295620Y0188130D03*
X0305620Y0188130D03*
X0065620Y0298130D03*
X0055620Y0298130D03*
X0045620Y0298130D03*
X0035620Y0298130D03*
X0035620Y0328130D03*
X0045620Y0328130D03*
X0055620Y0328130D03*
X0065620Y0328130D03*
X0185620Y0158130D03*
X0175620Y0158130D03*
X0165620Y0158130D03*
X0155620Y0158130D03*
X0155620Y0188130D03*
X0165620Y0188130D03*
X0175620Y0188130D03*
X0185620Y0188130D03*
X0065620Y0158130D03*
X0055620Y0158130D03*
X0045620Y0158130D03*
X0035620Y0158130D03*
X0035620Y0188130D03*
X0045620Y0188130D03*
X0055620Y0188130D03*
X0065620Y0188130D03*
X0245620Y0228130D03*
X0235620Y0228130D03*
X0225620Y0228130D03*
X0215620Y0228130D03*
X0215620Y0258130D03*
X0225620Y0258130D03*
X0235620Y0258130D03*
X0245620Y0258130D03*
X0245620Y0158130D03*
X0235620Y0158130D03*
X0225620Y0158130D03*
X0215620Y0158130D03*
X0215620Y0188130D03*
X0225620Y0188130D03*
X0235620Y0188130D03*
X0245620Y0188130D03*
X0305620Y0228130D03*
X0295620Y0228130D03*
X0285620Y0228130D03*
X0275620Y0228130D03*
X0275620Y0258130D03*
X0285620Y0258130D03*
X0295620Y0258130D03*
X0305620Y0258130D03*
X0305620Y0298130D03*
X0295620Y0298130D03*
X0285620Y0298130D03*
X0275620Y0298130D03*
X0275620Y0328130D03*
X0285620Y0328130D03*
X0295620Y0328130D03*
X0305620Y0328130D03*
X0065620Y0088130D03*
X0055620Y0088130D03*
X0045620Y0088130D03*
X0035620Y0088130D03*
X0035620Y0118130D03*
X0045620Y0118130D03*
X0055620Y0118130D03*
X0065620Y0118130D03*
X0245620Y0298130D03*
X0235620Y0298130D03*
X0225620Y0298130D03*
X0215620Y0298130D03*
X0215620Y0328130D03*
X0225620Y0328130D03*
X0235620Y0328130D03*
X0245620Y0328130D03*
X0305620Y0088130D03*
X0295620Y0088130D03*
X0285620Y0088130D03*
X0275620Y0088130D03*
X0275620Y0118130D03*
X0285620Y0118130D03*
X0295620Y0118130D03*
X0305620Y0118130D03*
X0125620Y0088130D03*
X0115620Y0088130D03*
X0105620Y0088130D03*
X0095620Y0088130D03*
X0095620Y0118130D03*
X0105620Y0118130D03*
X0115620Y0118130D03*
X0125620Y0118130D03*
X0185620Y0298130D03*
X0175620Y0298130D03*
X0165620Y0298130D03*
X0155620Y0298130D03*
X0155620Y0328130D03*
X0165620Y0328130D03*
X0175620Y0328130D03*
X0185620Y0328130D03*
X0125620Y0228130D03*
X0115620Y0228130D03*
X0105620Y0228130D03*
X0095620Y0228130D03*
X0095620Y0258130D03*
X0105620Y0258130D03*
X0115620Y0258130D03*
X0125620Y0258130D03*
X0185620Y0088130D03*
X0175620Y0088130D03*
X0165620Y0088130D03*
X0155620Y0088130D03*
X0155620Y0118130D03*
X0165620Y0118130D03*
X0175620Y0118130D03*
X0185620Y0118130D03*
X0065620Y0228130D03*
X0055620Y0228130D03*
X0045620Y0228130D03*
X0035620Y0228130D03*
X0035620Y0258130D03*
X0045620Y0258130D03*
X0055620Y0258130D03*
X0065620Y0258130D03*
X0125620Y0298130D03*
X0115620Y0298130D03*
X0105620Y0298130D03*
X0095620Y0298130D03*
X0095620Y0328130D03*
X0105620Y0328130D03*
X0115620Y0328130D03*
X0125620Y0328130D03*
D76*
X0035620Y0401510D03*
X0035620Y0380250D03*
D44*
X0245620Y0088130D03*
X0235620Y0088130D03*
X0225620Y0088130D03*
X0215620Y0088130D03*
X0215620Y0118130D03*
X0225620Y0118130D03*
X0235620Y0118130D03*
X0245620Y0118130D03*
X0125620Y0158130D03*
X0115620Y0158130D03*
X0105620Y0158130D03*
X0095620Y0158130D03*
X0095620Y0188130D03*
X0105620Y0188130D03*
X0115620Y0188130D03*
X0125620Y0188130D03*
D105*
X0204120Y0445130D03*
X0124120Y0445130D03*
D15*
X0184120Y0475130D03*
D71*
X0154120Y0435130D03*
X0174120Y0435130D03*
X0134120Y0435130D03*
X0194120Y0435130D03*
D15*
X0144120Y0475130D03*
D22*
X0089120Y0470130D03*
D97*
X0079120Y0480130D03*
X0099120Y0480130D03*
X0099120Y0460130D03*
X0079120Y0460130D03*
D22*
X0039120Y0470130D03*
D97*
X0029120Y0480130D03*
X0049120Y0480130D03*
X0049120Y0460130D03*
X0029120Y0460130D03*
D95*
X0128120Y0342130D03*
X0123120Y0342130D03*
X0118120Y0342130D03*
X0113120Y0342130D03*
X0108120Y0342130D03*
X0103120Y0342130D03*
X0098120Y0342130D03*
X0093120Y0342130D03*
X0093120Y0362130D03*
X0098120Y0362130D03*
X0103120Y0362130D03*
X0108120Y0362130D03*
X0113120Y0362130D03*
X0118120Y0362130D03*
X0123120Y0362130D03*
X0128120Y0362130D03*
X0188120Y0342130D03*
X0183120Y0342130D03*
X0178120Y0342130D03*
X0173120Y0342130D03*
X0168120Y0342130D03*
X0163120Y0342130D03*
X0158120Y0342130D03*
X0153120Y0342130D03*
X0153120Y0362130D03*
X0158120Y0362130D03*
X0163120Y0362130D03*
X0168120Y0362130D03*
X0173120Y0362130D03*
X0178120Y0362130D03*
X0183120Y0362130D03*
X0188120Y0362130D03*
X0248120Y0342130D03*
X0243120Y0342130D03*
X0238120Y0342130D03*
X0233120Y0342130D03*
X0228120Y0342130D03*
X0223120Y0342130D03*
X0218120Y0342130D03*
X0213120Y0342130D03*
X0213120Y0362130D03*
X0218120Y0362130D03*
X0223120Y0362130D03*
X0228120Y0362130D03*
X0233120Y0362130D03*
X0238120Y0362130D03*
X0243120Y0362130D03*
X0248120Y0362130D03*
X0308120Y0342630D03*
X0303120Y0342630D03*
X0298120Y0342630D03*
X0293120Y0342630D03*
X0288120Y0342630D03*
X0283120Y0342630D03*
X0278120Y0342630D03*
X0273120Y0342630D03*
X0273120Y0362630D03*
X0278120Y0362630D03*
X0283120Y0362630D03*
X0288120Y0362630D03*
X0293120Y0362630D03*
X0298120Y0362630D03*
X0303120Y0362630D03*
X0308120Y0362630D03*
D75*
X0259000Y0392500D03*
D53*
X0259000Y0402500D03*
X0269000Y0392500D03*
X0269000Y0402500D03*
X0279000Y0392500D03*
X0279000Y0402500D03*
D75*
X0139000Y0458000D03*
D53*
X0149000Y0458000D03*
X0159000Y0458000D03*
X0169000Y0458000D03*
X0179000Y0458000D03*
X0189000Y0458000D03*
D83*
X0084120Y0430130D03*
X0104120Y0430130D03*
D86*
X0203120Y0412380D03*
X0193120Y0412380D03*
X0183120Y0412380D03*
X0173120Y0412380D03*
X0163120Y0412380D03*
X0153120Y0412380D03*
X0143120Y0412380D03*
X0133120Y0412380D03*
X0123120Y0412380D03*
X0113120Y0412380D03*
X0103120Y0412380D03*
X0093120Y0412380D03*
X0083120Y0412380D03*
D18*
X0213120Y0412380D03*
D86*
X0083120Y0382380D03*
X0093120Y0382380D03*
X0103120Y0382380D03*
X0113120Y0382380D03*
X0123120Y0382380D03*
X0133120Y0382380D03*
X0143120Y0382380D03*
X0153120Y0382380D03*
X0163120Y0382380D03*
X0173120Y0382380D03*
X0183120Y0382380D03*
X0193120Y0382380D03*
X0203120Y0382380D03*
X0213120Y0382380D03*
D95*
X0068120Y0342130D03*
X0063120Y0342130D03*
X0058120Y0342130D03*
X0053120Y0342130D03*
X0048120Y0342130D03*
X0043120Y0342130D03*
X0038120Y0342130D03*
X0033120Y0342130D03*
X0033120Y0362130D03*
X0038120Y0362130D03*
X0043120Y0362130D03*
X0048120Y0362130D03*
X0053120Y0362130D03*
X0058120Y0362130D03*
X0063120Y0362130D03*
X0068120Y0362130D03*
D75*
X0218500Y0435500D03*
D53*
X0218500Y0425500D03*
D75*
X0299500Y0394000D03*
D53*
X0309500Y0394000D03*
D44*
X0295500Y0427500D03*
X0308500Y0427500D03*
X0295500Y0417500D03*
X0308500Y0417500D03*
D75*
X0299500Y0405500D03*
D53*
X0309500Y0405500D03*
D58*
X0201000Y0470000D03*
X0201000Y0457000D03*
D44*
X0151800Y0392100D03*
X0138800Y0392100D03*
D86*
X0242230Y0385070D03*
X0224510Y0385070D03*
X0242230Y0408690D03*
X0224510Y0408690D03*
D44*
X0295500Y0437500D03*
X0308500Y0437500D03*
X0241500Y0435700D03*
X0254500Y0435700D03*
X0010000Y0497500D02*
G01*
D102*
D119*
X0245000Y0552500D03*
X0245000Y0832500D03*
X0030000Y0552500D03*
X0030000Y0832500D03*
D11*
X0161250Y0525000D03*
X0053750Y0525000D03*
D13*
X0150000Y0527500D03*
X0155000Y0527500D03*
X0155000Y0522500D03*
X0150000Y0522500D03*
X0135000Y0522500D03*
X0130000Y0522500D03*
X0140000Y0522500D03*
X0145000Y0522500D03*
X0145000Y0527500D03*
X0140000Y0527500D03*
X0130000Y0527500D03*
X0135000Y0527500D03*
X0080000Y0522500D03*
X0075000Y0522500D03*
X0065000Y0522500D03*
X0070000Y0522500D03*
X0070000Y0527500D03*
X0065000Y0527500D03*
X0075000Y0527500D03*
X0080000Y0527500D03*
X0060000Y0527500D03*
X0060000Y0522500D03*
X0085000Y0522500D03*
X0085000Y0527500D03*
X0115000Y0527500D03*
X0110000Y0527500D03*
X0120000Y0527500D03*
X0125000Y0527500D03*
X0105000Y0527500D03*
X0100000Y0527500D03*
X0090000Y0527500D03*
X0095000Y0527500D03*
X0095000Y0522500D03*
X0090000Y0522500D03*
X0100000Y0522500D03*
X0105000Y0522500D03*
X0125000Y0522500D03*
X0120000Y0522500D03*
X0110000Y0522500D03*
X0115000Y0522500D03*
D11*
X0053750Y0860000D03*
X0161250Y0860000D03*
D13*
X0065000Y0857500D03*
X0060000Y0857500D03*
X0060000Y0862500D03*
X0065000Y0862500D03*
X0080000Y0862500D03*
X0085000Y0862500D03*
X0075000Y0862500D03*
X0070000Y0862500D03*
X0070000Y0857500D03*
X0075000Y0857500D03*
X0085000Y0857500D03*
X0080000Y0857500D03*
X0135000Y0862500D03*
X0140000Y0862500D03*
X0150000Y0862500D03*
X0145000Y0862500D03*
X0145000Y0857500D03*
X0150000Y0857500D03*
X0140000Y0857500D03*
X0135000Y0857500D03*
X0155000Y0857500D03*
X0155000Y0862500D03*
X0130000Y0862500D03*
X0130000Y0857500D03*
X0100000Y0857500D03*
X0105000Y0857500D03*
X0095000Y0857500D03*
X0090000Y0857500D03*
X0110000Y0857500D03*
X0115000Y0857500D03*
X0125000Y0857500D03*
X0120000Y0857500D03*
X0120000Y0862500D03*
X0125000Y0862500D03*
X0115000Y0862500D03*
X0110000Y0862500D03*
X0090000Y0862500D03*
X0095000Y0862500D03*
X0105000Y0862500D03*
X0100000Y0862500D03*
D11*
X0250000Y0746250D03*
X0250000Y0638750D03*
D13*
X0247500Y0735000D03*
X0247500Y0740000D03*
X0252500Y0740000D03*
X0252500Y0735000D03*
X0252500Y0720000D03*
X0252500Y0715000D03*
X0252500Y0725000D03*
X0252500Y0730000D03*
X0247500Y0730000D03*
X0247500Y0725000D03*
X0247500Y0715000D03*
X0247500Y0720000D03*
X0252500Y0665000D03*
X0252500Y0660000D03*
X0252500Y0650000D03*
X0252500Y0655000D03*
X0247500Y0655000D03*
X0247500Y0650000D03*
X0247500Y0660000D03*
X0247500Y0665000D03*
X0247500Y0645000D03*
X0252500Y0645000D03*
X0252500Y0670000D03*
X0247500Y0670000D03*
X0247500Y0700000D03*
X0247500Y0695000D03*
X0247500Y0705000D03*
X0247500Y0710000D03*
X0247500Y0690000D03*
X0247500Y0685000D03*
X0247500Y0675000D03*
X0247500Y0680000D03*
X0252500Y0680000D03*
X0252500Y0675000D03*
X0252500Y0685000D03*
X0252500Y0690000D03*
X0252500Y0710000D03*
X0252500Y0705000D03*
X0252500Y0695000D03*
X0252500Y0700000D03*
D53*
X0060000Y0802500D03*
X0060000Y0812500D03*
X0060000Y0822500D03*
X0060000Y0832500D03*
X0070000Y0802500D03*
X0070000Y0812500D03*
X0070000Y0822500D03*
X0070000Y0832500D03*
X0080000Y0802500D03*
X0080000Y0812500D03*
X0080000Y0822500D03*
X0080000Y0832500D03*
X0090000Y0802500D03*
X0090000Y0812500D03*
X0090000Y0822500D03*
X0090000Y0832500D03*
X0100000Y0802500D03*
X0100000Y0812500D03*
X0100000Y0822500D03*
X0100000Y0832500D03*
X0110000Y0802500D03*
X0110000Y0812500D03*
X0110000Y0822500D03*
X0110000Y0832500D03*
X0120000Y0802500D03*
X0120000Y0812500D03*
X0120000Y0822500D03*
X0120000Y0832500D03*
X0130000Y0802500D03*
X0130000Y0812500D03*
X0130000Y0822500D03*
X0130000Y0832500D03*
X0140000Y0802500D03*
X0140000Y0812500D03*
X0140000Y0822500D03*
X0140000Y0832500D03*
X0150000Y0802500D03*
X0150000Y0812500D03*
X0150000Y0822500D03*
X0150000Y0832500D03*
X0160000Y0802500D03*
X0160000Y0812500D03*
X0160000Y0822500D03*
X0160000Y0832500D03*
X0170000Y0802500D03*
X0170000Y0812500D03*
X0170000Y0822500D03*
X0170000Y0832500D03*
X0180000Y0802500D03*
X0180000Y0812500D03*
X0180000Y0822500D03*
X0180000Y0832500D03*
X0190000Y0802500D03*
X0190000Y0812500D03*
X0190000Y0822500D03*
X0190000Y0832500D03*
X0200000Y0802500D03*
X0200000Y0812500D03*
X0200000Y0822500D03*
X0200000Y0832500D03*
X0200000Y0552500D03*
X0200000Y0562500D03*
X0200000Y0572500D03*
X0200000Y0582500D03*
X0190000Y0552500D03*
X0190000Y0562500D03*
X0190000Y0572500D03*
X0190000Y0582500D03*
X0180000Y0552500D03*
X0180000Y0562500D03*
X0180000Y0572500D03*
X0180000Y0582500D03*
X0170000Y0552500D03*
X0170000Y0562500D03*
X0170000Y0572500D03*
X0170000Y0582500D03*
X0160000Y0552500D03*
X0160000Y0562500D03*
X0160000Y0572500D03*
X0160000Y0582500D03*
X0150000Y0552500D03*
X0150000Y0562500D03*
X0150000Y0572500D03*
X0150000Y0582500D03*
X0140000Y0552500D03*
X0140000Y0562500D03*
X0140000Y0572500D03*
X0140000Y0582500D03*
X0130000Y0552500D03*
X0130000Y0562500D03*
X0130000Y0572500D03*
X0130000Y0582500D03*
X0120000Y0552500D03*
X0120000Y0562500D03*
X0120000Y0572500D03*
X0120000Y0582500D03*
X0110000Y0552500D03*
X0110000Y0562500D03*
X0110000Y0572500D03*
X0110000Y0582500D03*
X0100000Y0552500D03*
X0100000Y0562500D03*
X0100000Y0572500D03*
X0100000Y0582500D03*
X0090000Y0552500D03*
X0090000Y0562500D03*
X0090000Y0572500D03*
X0090000Y0582500D03*
X0080000Y0552500D03*
X0080000Y0562500D03*
X0080000Y0572500D03*
X0080000Y0582500D03*
X0070000Y0552500D03*
X0070000Y0562500D03*
X0070000Y0572500D03*
X0070000Y0582500D03*
X0060000Y0552500D03*
X0060000Y0562500D03*
X0060000Y0572500D03*
X0060000Y0582500D03*
X0287500Y0497500D02*
G01*
D102*
D119*
X0342500Y0532500D03*
X0622500Y0532500D03*
X0342500Y0747500D03*
X0622500Y0747500D03*
D11*
X0315000Y0616250D03*
X0315000Y0723750D03*
D13*
X0317500Y0627500D03*
X0317500Y0622500D03*
X0312500Y0622500D03*
X0312500Y0627500D03*
X0312500Y0642500D03*
X0312500Y0647500D03*
X0312500Y0637500D03*
X0312500Y0632500D03*
X0317500Y0632500D03*
X0317500Y0637500D03*
X0317500Y0647500D03*
X0317500Y0642500D03*
X0312500Y0697500D03*
X0312500Y0702500D03*
X0312500Y0712500D03*
X0312500Y0707500D03*
X0317500Y0707500D03*
X0317500Y0712500D03*
X0317500Y0702500D03*
X0317500Y0697500D03*
X0317500Y0717500D03*
X0312500Y0717500D03*
X0312500Y0692500D03*
X0317500Y0692500D03*
X0317500Y0662500D03*
X0317500Y0667500D03*
X0317500Y0657500D03*
X0317500Y0652500D03*
X0317500Y0672500D03*
X0317500Y0677500D03*
X0317500Y0687500D03*
X0317500Y0682500D03*
X0312500Y0682500D03*
X0312500Y0687500D03*
X0312500Y0677500D03*
X0312500Y0672500D03*
X0312500Y0652500D03*
X0312500Y0657500D03*
X0312500Y0667500D03*
X0312500Y0662500D03*
D11*
X0650000Y0723750D03*
X0650000Y0616250D03*
D13*
X0647500Y0712500D03*
X0647500Y0717500D03*
X0652500Y0717500D03*
X0652500Y0712500D03*
X0652500Y0697500D03*
X0652500Y0692500D03*
X0652500Y0702500D03*
X0652500Y0707500D03*
X0647500Y0707500D03*
X0647500Y0702500D03*
X0647500Y0692500D03*
X0647500Y0697500D03*
X0652500Y0642500D03*
X0652500Y0637500D03*
X0652500Y0627500D03*
X0652500Y0632500D03*
X0647500Y0632500D03*
X0647500Y0627500D03*
X0647500Y0637500D03*
X0647500Y0642500D03*
X0647500Y0622500D03*
X0652500Y0622500D03*
X0652500Y0647500D03*
X0647500Y0647500D03*
X0647500Y0677500D03*
X0647500Y0672500D03*
X0647500Y0682500D03*
X0647500Y0687500D03*
X0647500Y0667500D03*
X0647500Y0662500D03*
X0647500Y0652500D03*
X0647500Y0657500D03*
X0652500Y0657500D03*
X0652500Y0652500D03*
X0652500Y0662500D03*
X0652500Y0667500D03*
X0652500Y0687500D03*
X0652500Y0682500D03*
X0652500Y0672500D03*
X0652500Y0677500D03*
D11*
X0536250Y0527500D03*
X0428750Y0527500D03*
D13*
X0525000Y0530000D03*
X0530000Y0530000D03*
X0530000Y0525000D03*
X0525000Y0525000D03*
X0510000Y0525000D03*
X0505000Y0525000D03*
X0515000Y0525000D03*
X0520000Y0525000D03*
X0520000Y0530000D03*
X0515000Y0530000D03*
X0505000Y0530000D03*
X0510000Y0530000D03*
X0455000Y0525000D03*
X0450000Y0525000D03*
X0440000Y0525000D03*
X0445000Y0525000D03*
X0445000Y0530000D03*
X0440000Y0530000D03*
X0450000Y0530000D03*
X0455000Y0530000D03*
X0435000Y0530000D03*
X0435000Y0525000D03*
X0460000Y0525000D03*
X0460000Y0530000D03*
X0490000Y0530000D03*
X0485000Y0530000D03*
X0495000Y0530000D03*
X0500000Y0530000D03*
X0480000Y0530000D03*
X0475000Y0530000D03*
X0465000Y0530000D03*
X0470000Y0530000D03*
X0470000Y0525000D03*
X0465000Y0525000D03*
X0475000Y0525000D03*
X0480000Y0525000D03*
X0500000Y0525000D03*
X0495000Y0525000D03*
X0485000Y0525000D03*
X0490000Y0525000D03*
D53*
X0592500Y0717500D03*
X0602500Y0717500D03*
X0612500Y0717500D03*
X0622500Y0717500D03*
X0592500Y0707500D03*
X0602500Y0707500D03*
X0612500Y0707500D03*
X0622500Y0707500D03*
X0592500Y0697500D03*
X0602500Y0697500D03*
X0612500Y0697500D03*
X0622500Y0697500D03*
X0592500Y0687500D03*
X0602500Y0687500D03*
X0612500Y0687500D03*
X0622500Y0687500D03*
X0592500Y0677500D03*
X0602500Y0677500D03*
X0612500Y0677500D03*
X0622500Y0677500D03*
X0592500Y0667500D03*
X0602500Y0667500D03*
X0612500Y0667500D03*
X0622500Y0667500D03*
X0592500Y0657500D03*
X0602500Y0657500D03*
X0612500Y0657500D03*
X0622500Y0657500D03*
X0592500Y0647500D03*
X0602500Y0647500D03*
X0612500Y0647500D03*
X0622500Y0647500D03*
X0592500Y0637500D03*
X0602500Y0637500D03*
X0612500Y0637500D03*
X0622500Y0637500D03*
X0592500Y0627500D03*
X0602500Y0627500D03*
X0612500Y0627500D03*
X0622500Y0627500D03*
X0592500Y0617500D03*
X0602500Y0617500D03*
X0612500Y0617500D03*
X0622500Y0617500D03*
X0592500Y0607500D03*
X0602500Y0607500D03*
X0612500Y0607500D03*
X0622500Y0607500D03*
X0592500Y0597500D03*
X0602500Y0597500D03*
X0612500Y0597500D03*
X0622500Y0597500D03*
X0592500Y0587500D03*
X0602500Y0587500D03*
X0612500Y0587500D03*
X0622500Y0587500D03*
X0592500Y0577500D03*
X0602500Y0577500D03*
X0612500Y0577500D03*
X0622500Y0577500D03*
X0342500Y0577500D03*
X0352500Y0577500D03*
X0362500Y0577500D03*
X0372500Y0577500D03*
X0342500Y0587500D03*
X0352500Y0587500D03*
X0362500Y0587500D03*
X0372500Y0587500D03*
X0342500Y0597500D03*
X0352500Y0597500D03*
X0362500Y0597500D03*
X0372500Y0597500D03*
X0342500Y0607500D03*
X0352500Y0607500D03*
X0362500Y0607500D03*
X0372500Y0607500D03*
X0342500Y0617500D03*
X0352500Y0617500D03*
X0362500Y0617500D03*
X0372500Y0617500D03*
X0342500Y0627500D03*
X0352500Y0627500D03*
X0362500Y0627500D03*
X0372500Y0627500D03*
X0342500Y0637500D03*
X0352500Y0637500D03*
X0362500Y0637500D03*
X0372500Y0637500D03*
X0342500Y0647500D03*
X0352500Y0647500D03*
X0362500Y0647500D03*
X0372500Y0647500D03*
X0342500Y0657500D03*
X0352500Y0657500D03*
X0362500Y0657500D03*
X0372500Y0657500D03*
X0342500Y0667500D03*
X0352500Y0667500D03*
X0362500Y0667500D03*
X0372500Y0667500D03*
X0342500Y0677500D03*
X0352500Y0677500D03*
X0362500Y0677500D03*
X0372500Y0677500D03*
X0342500Y0687500D03*
X0352500Y0687500D03*
X0362500Y0687500D03*
X0372500Y0687500D03*
X0342500Y0697500D03*
X0352500Y0697500D03*
X0362500Y0697500D03*
X0372500Y0697500D03*
X0342500Y0707500D03*
X0352500Y0707500D03*
X0362500Y0707500D03*
X0372500Y0707500D03*
X0342500Y0717500D03*
X0352500Y0717500D03*
X0362500Y0717500D03*
X0372500Y0717500D03*
X0287500Y0775000D02*
G01*
D104*
D11*
X0338000Y0818250D03*
X0338000Y0925750D03*
D13*
X0340500Y0829500D03*
X0340500Y0824500D03*
X0335500Y0824500D03*
X0335500Y0829500D03*
X0335500Y0844500D03*
X0335500Y0849500D03*
X0335500Y0839500D03*
X0335500Y0834500D03*
X0340500Y0834500D03*
X0340500Y0839500D03*
X0340500Y0849500D03*
X0340500Y0844500D03*
X0335500Y0899500D03*
X0335500Y0904500D03*
X0335500Y0914500D03*
X0335500Y0909500D03*
X0340500Y0909500D03*
X0340500Y0914500D03*
X0340500Y0904500D03*
X0340500Y0899500D03*
X0340500Y0919500D03*
X0335500Y0919500D03*
X0335500Y0894500D03*
X0340500Y0894500D03*
X0340500Y0864500D03*
X0340500Y0869500D03*
X0340500Y0859500D03*
X0340500Y0854500D03*
X0340500Y0874500D03*
X0340500Y0879500D03*
X0340500Y0889500D03*
X0340500Y0884500D03*
X0335500Y0884500D03*
X0335500Y0889500D03*
X0335500Y0879500D03*
X0335500Y0874500D03*
X0335500Y0854500D03*
X0335500Y0859500D03*
X0335500Y0869500D03*
X0335500Y0864500D03*
D111*
X0335500Y0956500D03*
X0347500Y0010000D02*
G01*
D104*
D119*
X0362500Y0430000D03*
X0362500Y0025000D03*
X0662500Y0025000D03*
X0662500Y0430000D03*
D11*
X0561370Y0029130D03*
X0453870Y0029130D03*
D13*
X0550120Y0031630D03*
X0555120Y0031630D03*
X0555120Y0026630D03*
X0550120Y0026630D03*
X0535120Y0026630D03*
X0530120Y0026630D03*
X0540120Y0026630D03*
X0545120Y0026630D03*
X0545120Y0031630D03*
X0540120Y0031630D03*
X0530120Y0031630D03*
X0535120Y0031630D03*
X0480120Y0026630D03*
X0475120Y0026630D03*
X0465120Y0026630D03*
X0470120Y0026630D03*
X0470120Y0031630D03*
X0465120Y0031630D03*
X0475120Y0031630D03*
X0480120Y0031630D03*
X0460120Y0031630D03*
X0460120Y0026630D03*
X0485120Y0026630D03*
X0485120Y0031630D03*
X0515120Y0031630D03*
X0510120Y0031630D03*
X0520120Y0031630D03*
X0525120Y0031630D03*
X0505120Y0031630D03*
X0500120Y0031630D03*
X0490120Y0031630D03*
X0495120Y0031630D03*
X0495120Y0026630D03*
X0490120Y0026630D03*
X0500120Y0026630D03*
X0505120Y0026630D03*
X0525120Y0026630D03*
X0520120Y0026630D03*
X0510120Y0026630D03*
X0515120Y0026630D03*
D47*
X0654620Y0467130D03*
X0568620Y0467130D03*
D75*
X0591620Y0460130D03*
D53*
X0591620Y0470130D03*
X0601620Y0460130D03*
X0601620Y0470130D03*
X0611620Y0460130D03*
X0611620Y0470130D03*
X0621620Y0460130D03*
X0621620Y0470130D03*
X0631620Y0460130D03*
X0631620Y0470130D03*
D58*
X0388120Y0201630D03*
X0388120Y0214630D03*
X0643120Y0074630D03*
X0643120Y0061630D03*
X0628120Y0061630D03*
X0628120Y0074630D03*
X0613120Y0271630D03*
X0613120Y0284630D03*
X0553120Y0131630D03*
X0553120Y0144630D03*
X0583120Y0284630D03*
X0583120Y0271630D03*
X0583120Y0214630D03*
X0583120Y0201630D03*
X0553120Y0061630D03*
X0553120Y0074630D03*
X0523120Y0284630D03*
X0523120Y0271630D03*
X0523120Y0144630D03*
X0523120Y0131630D03*
X0523120Y0214630D03*
X0523120Y0201630D03*
X0508120Y0271630D03*
X0508120Y0284630D03*
X0643120Y0284630D03*
X0643120Y0271630D03*
X0643120Y0144130D03*
X0643120Y0131130D03*
X0643120Y0214630D03*
X0643120Y0201630D03*
X0628120Y0271630D03*
X0628120Y0284630D03*
X0568120Y0061630D03*
X0568120Y0074630D03*
X0613120Y0131130D03*
X0613120Y0144130D03*
X0613120Y0201630D03*
X0613120Y0214630D03*
X0583120Y0074630D03*
X0583120Y0061630D03*
X0613120Y0061630D03*
X0613120Y0074630D03*
X0403120Y0074630D03*
X0403120Y0061630D03*
X0388120Y0061630D03*
X0388120Y0074630D03*
X0403120Y0214630D03*
X0403120Y0201630D03*
X0373120Y0271630D03*
X0373120Y0284630D03*
X0373120Y0061630D03*
X0373120Y0074630D03*
X0373120Y0201630D03*
X0373120Y0214630D03*
X0388120Y0271630D03*
X0388120Y0284630D03*
X0403120Y0284630D03*
X0403120Y0271630D03*
X0433120Y0061630D03*
X0433120Y0074630D03*
X0463120Y0284630D03*
X0463120Y0271630D03*
X0448120Y0061630D03*
X0448120Y0074630D03*
X0463120Y0214630D03*
X0463120Y0201630D03*
X0433120Y0201630D03*
X0433120Y0214630D03*
X0433120Y0131630D03*
X0433120Y0144630D03*
X0433120Y0271630D03*
X0433120Y0284630D03*
X0373120Y0131630D03*
X0373120Y0144630D03*
X0493120Y0131630D03*
X0493120Y0144630D03*
X0493120Y0201630D03*
X0493120Y0214630D03*
X0493120Y0061630D03*
X0493120Y0074630D03*
X0553120Y0201630D03*
X0553120Y0214630D03*
X0583120Y0144630D03*
X0583120Y0131630D03*
X0568120Y0271630D03*
X0568120Y0284630D03*
X0553120Y0271630D03*
X0553120Y0284630D03*
X0508120Y0061630D03*
X0508120Y0074630D03*
X0523120Y0074630D03*
X0523120Y0061630D03*
X0493120Y0271630D03*
X0493120Y0284630D03*
X0463120Y0144630D03*
X0463120Y0131630D03*
X0463120Y0074630D03*
X0463120Y0061630D03*
X0448120Y0271630D03*
X0448120Y0284630D03*
X0403120Y0144630D03*
X0403120Y0131630D03*
X0508120Y0201630D03*
X0508120Y0214630D03*
X0508120Y0131630D03*
X0508120Y0144630D03*
X0568120Y0131630D03*
X0568120Y0144630D03*
X0568120Y0201630D03*
X0568120Y0214630D03*
X0628120Y0201630D03*
X0628120Y0214630D03*
X0628120Y0131130D03*
X0628120Y0144130D03*
D44*
X0633000Y0447500D03*
X0646000Y0447500D03*
D58*
X0388120Y0131630D03*
X0388120Y0144630D03*
X0448120Y0201630D03*
X0448120Y0214630D03*
X0448120Y0131630D03*
X0448120Y0144630D03*
D44*
X0523120Y0228130D03*
X0513120Y0228130D03*
X0503120Y0228130D03*
X0493120Y0228130D03*
X0493120Y0258130D03*
X0503120Y0258130D03*
X0513120Y0258130D03*
X0523120Y0258130D03*
X0643120Y0158130D03*
X0633120Y0158130D03*
X0623120Y0158130D03*
X0613120Y0158130D03*
X0613120Y0188130D03*
X0623120Y0188130D03*
X0633120Y0188130D03*
X0643120Y0188130D03*
X0403120Y0298130D03*
X0393120Y0298130D03*
X0383120Y0298130D03*
X0373120Y0298130D03*
X0373120Y0328130D03*
X0383120Y0328130D03*
X0393120Y0328130D03*
X0403120Y0328130D03*
X0523120Y0158130D03*
X0513120Y0158130D03*
X0503120Y0158130D03*
X0493120Y0158130D03*
X0493120Y0188130D03*
X0503120Y0188130D03*
X0513120Y0188130D03*
X0523120Y0188130D03*
X0403120Y0158130D03*
X0393120Y0158130D03*
X0383120Y0158130D03*
X0373120Y0158130D03*
X0373120Y0188130D03*
X0383120Y0188130D03*
X0393120Y0188130D03*
X0403120Y0188130D03*
X0583120Y0228130D03*
X0573120Y0228130D03*
X0563120Y0228130D03*
X0553120Y0228130D03*
X0553120Y0258130D03*
X0563120Y0258130D03*
X0573120Y0258130D03*
X0583120Y0258130D03*
X0583120Y0158130D03*
X0573120Y0158130D03*
X0563120Y0158130D03*
X0553120Y0158130D03*
X0553120Y0188130D03*
X0563120Y0188130D03*
X0573120Y0188130D03*
X0583120Y0188130D03*
X0643120Y0228130D03*
X0633120Y0228130D03*
X0623120Y0228130D03*
X0613120Y0228130D03*
X0613120Y0258130D03*
X0623120Y0258130D03*
X0633120Y0258130D03*
X0643120Y0258130D03*
X0643120Y0298130D03*
X0633120Y0298130D03*
X0623120Y0298130D03*
X0613120Y0298130D03*
X0613120Y0328130D03*
X0623120Y0328130D03*
X0633120Y0328130D03*
X0643120Y0328130D03*
X0403120Y0088130D03*
X0393120Y0088130D03*
X0383120Y0088130D03*
X0373120Y0088130D03*
X0373120Y0118130D03*
X0383120Y0118130D03*
X0393120Y0118130D03*
X0403120Y0118130D03*
X0583120Y0298130D03*
X0573120Y0298130D03*
X0563120Y0298130D03*
X0553120Y0298130D03*
X0553120Y0328130D03*
X0563120Y0328130D03*
X0573120Y0328130D03*
X0583120Y0328130D03*
X0643120Y0088130D03*
X0633120Y0088130D03*
X0623120Y0088130D03*
X0613120Y0088130D03*
X0613120Y0118130D03*
X0623120Y0118130D03*
X0633120Y0118130D03*
X0643120Y0118130D03*
X0463120Y0088130D03*
X0453120Y0088130D03*
X0443120Y0088130D03*
X0433120Y0088130D03*
X0433120Y0118130D03*
X0443120Y0118130D03*
X0453120Y0118130D03*
X0463120Y0118130D03*
X0523120Y0298130D03*
X0513120Y0298130D03*
X0503120Y0298130D03*
X0493120Y0298130D03*
X0493120Y0328130D03*
X0503120Y0328130D03*
X0513120Y0328130D03*
X0523120Y0328130D03*
X0463120Y0228130D03*
X0453120Y0228130D03*
X0443120Y0228130D03*
X0433120Y0228130D03*
X0433120Y0258130D03*
X0443120Y0258130D03*
X0453120Y0258130D03*
X0463120Y0258130D03*
X0523120Y0088130D03*
X0513120Y0088130D03*
X0503120Y0088130D03*
X0493120Y0088130D03*
X0493120Y0118130D03*
X0503120Y0118130D03*
X0513120Y0118130D03*
X0523120Y0118130D03*
X0403120Y0228130D03*
X0393120Y0228130D03*
X0383120Y0228130D03*
X0373120Y0228130D03*
X0373120Y0258130D03*
X0383120Y0258130D03*
X0393120Y0258130D03*
X0403120Y0258130D03*
X0463120Y0298130D03*
X0453120Y0298130D03*
X0443120Y0298130D03*
X0433120Y0298130D03*
X0433120Y0328130D03*
X0443120Y0328130D03*
X0453120Y0328130D03*
X0463120Y0328130D03*
D76*
X0373120Y0401510D03*
X0373120Y0380250D03*
D44*
X0583120Y0088130D03*
X0573120Y0088130D03*
X0563120Y0088130D03*
X0553120Y0088130D03*
X0553120Y0118130D03*
X0563120Y0118130D03*
X0573120Y0118130D03*
X0583120Y0118130D03*
X0463120Y0158130D03*
X0453120Y0158130D03*
X0443120Y0158130D03*
X0433120Y0158130D03*
X0433120Y0188130D03*
X0443120Y0188130D03*
X0453120Y0188130D03*
X0463120Y0188130D03*
D105*
X0541620Y0445130D03*
X0461620Y0445130D03*
D15*
X0521620Y0475130D03*
D71*
X0491620Y0435130D03*
X0511620Y0435130D03*
X0471620Y0435130D03*
X0531620Y0435130D03*
D15*
X0481620Y0475130D03*
D22*
X0426620Y0470130D03*
D97*
X0416620Y0480130D03*
X0436620Y0480130D03*
X0436620Y0460130D03*
X0416620Y0460130D03*
D22*
X0376620Y0470130D03*
D97*
X0366620Y0480130D03*
X0386620Y0480130D03*
X0386620Y0460130D03*
X0366620Y0460130D03*
D95*
X0465620Y0342130D03*
X0460620Y0342130D03*
X0455620Y0342130D03*
X0450620Y0342130D03*
X0445620Y0342130D03*
X0440620Y0342130D03*
X0435620Y0342130D03*
X0430620Y0342130D03*
X0430620Y0362130D03*
X0435620Y0362130D03*
X0440620Y0362130D03*
X0445620Y0362130D03*
X0450620Y0362130D03*
X0455620Y0362130D03*
X0460620Y0362130D03*
X0465620Y0362130D03*
X0525620Y0342130D03*
X0520620Y0342130D03*
X0515620Y0342130D03*
X0510620Y0342130D03*
X0505620Y0342130D03*
X0500620Y0342130D03*
X0495620Y0342130D03*
X0490620Y0342130D03*
X0490620Y0362130D03*
X0495620Y0362130D03*
X0500620Y0362130D03*
X0505620Y0362130D03*
X0510620Y0362130D03*
X0515620Y0362130D03*
X0520620Y0362130D03*
X0525620Y0362130D03*
X0585620Y0342130D03*
X0580620Y0342130D03*
X0575620Y0342130D03*
X0570620Y0342130D03*
X0565620Y0342130D03*
X0560620Y0342130D03*
X0555620Y0342130D03*
X0550620Y0342130D03*
X0550620Y0362130D03*
X0555620Y0362130D03*
X0560620Y0362130D03*
X0565620Y0362130D03*
X0570620Y0362130D03*
X0575620Y0362130D03*
X0580620Y0362130D03*
X0585620Y0362130D03*
X0645620Y0342630D03*
X0640620Y0342630D03*
X0635620Y0342630D03*
X0630620Y0342630D03*
X0625620Y0342630D03*
X0620620Y0342630D03*
X0615620Y0342630D03*
X0610620Y0342630D03*
X0610620Y0362630D03*
X0615620Y0362630D03*
X0620620Y0362630D03*
X0625620Y0362630D03*
X0630620Y0362630D03*
X0635620Y0362630D03*
X0640620Y0362630D03*
X0645620Y0362630D03*
D75*
X0596500Y0392500D03*
D53*
X0596500Y0402500D03*
X0606500Y0392500D03*
X0606500Y0402500D03*
X0616500Y0392500D03*
X0616500Y0402500D03*
D75*
X0476500Y0458000D03*
D53*
X0486500Y0458000D03*
X0496500Y0458000D03*
X0506500Y0458000D03*
X0516500Y0458000D03*
X0526500Y0458000D03*
D83*
X0421620Y0430130D03*
X0441620Y0430130D03*
D86*
X0540620Y0412380D03*
X0530620Y0412380D03*
X0520620Y0412380D03*
X0510620Y0412380D03*
X0500620Y0412380D03*
X0490620Y0412380D03*
X0480620Y0412380D03*
X0470620Y0412380D03*
X0460620Y0412380D03*
X0450620Y0412380D03*
X0440620Y0412380D03*
X0430620Y0412380D03*
X0420620Y0412380D03*
D18*
X0550620Y0412380D03*
D86*
X0420620Y0382380D03*
X0430620Y0382380D03*
X0440620Y0382380D03*
X0450620Y0382380D03*
X0460620Y0382380D03*
X0470620Y0382380D03*
X0480620Y0382380D03*
X0490620Y0382380D03*
X0500620Y0382380D03*
X0510620Y0382380D03*
X0520620Y0382380D03*
X0530620Y0382380D03*
X0540620Y0382380D03*
X0550620Y0382380D03*
D95*
X0405620Y0342130D03*
X0400620Y0342130D03*
X0395620Y0342130D03*
X0390620Y0342130D03*
X0385620Y0342130D03*
X0380620Y0342130D03*
X0375620Y0342130D03*
X0370620Y0342130D03*
X0370620Y0362130D03*
X0375620Y0362130D03*
X0380620Y0362130D03*
X0385620Y0362130D03*
X0390620Y0362130D03*
X0395620Y0362130D03*
X0400620Y0362130D03*
X0405620Y0362130D03*
D75*
X0556000Y0435500D03*
D53*
X0556000Y0425500D03*
D75*
X0637000Y0394000D03*
D53*
X0647000Y0394000D03*
D44*
X0633000Y0427500D03*
X0646000Y0427500D03*
X0633000Y0417500D03*
X0646000Y0417500D03*
D75*
X0637000Y0405500D03*
D53*
X0647000Y0405500D03*
D58*
X0538500Y0470000D03*
X0538500Y0457000D03*
D44*
X0489300Y0392100D03*
X0476300Y0392100D03*
D86*
X0579730Y0385070D03*
X0562010Y0385070D03*
X0579730Y0408690D03*
X0562010Y0408690D03*
D44*
X0633000Y0437500D03*
X0646000Y0437500D03*
X0579000Y0435700D03*
X0592000Y0435700D03*
X0387500Y0775000D02*
G01*
D104*
D11*
X0438000Y0818250D03*
X0438000Y0925750D03*
D13*
X0440500Y0829500D03*
X0440500Y0824500D03*
X0435500Y0824500D03*
X0435500Y0829500D03*
X0435500Y0844500D03*
X0435500Y0849500D03*
X0435500Y0839500D03*
X0435500Y0834500D03*
X0440500Y0834500D03*
X0440500Y0839500D03*
X0440500Y0849500D03*
X0440500Y0844500D03*
X0435500Y0899500D03*
X0435500Y0904500D03*
X0435500Y0914500D03*
X0435500Y0909500D03*
X0440500Y0909500D03*
X0440500Y0914500D03*
X0440500Y0904500D03*
X0440500Y0899500D03*
X0440500Y0919500D03*
X0435500Y0919500D03*
X0435500Y0894500D03*
X0440500Y0894500D03*
X0440500Y0864500D03*
X0440500Y0869500D03*
X0440500Y0859500D03*
X0440500Y0854500D03*
X0440500Y0874500D03*
X0440500Y0879500D03*
X0440500Y0889500D03*
X0440500Y0884500D03*
X0435500Y0884500D03*
X0435500Y0889500D03*
X0435500Y0879500D03*
X0435500Y0874500D03*
X0435500Y0854500D03*
X0435500Y0859500D03*
X0435500Y0869500D03*
X0435500Y0864500D03*
D111*
X0435500Y0956500D03*
X0685000Y0010000D02*
G01*
D104*
D119*
X0700000Y0430000D03*
X0700000Y0025000D03*
X1000000Y0025000D03*
X1000000Y0430000D03*
D11*
X0898870Y0029130D03*
X0791370Y0029130D03*
D13*
X0887620Y0031630D03*
X0892620Y0031630D03*
X0892620Y0026630D03*
X0887620Y0026630D03*
X0872620Y0026630D03*
X0867620Y0026630D03*
X0877620Y0026630D03*
X0882620Y0026630D03*
X0882620Y0031630D03*
X0877620Y0031630D03*
X0867620Y0031630D03*
X0872620Y0031630D03*
X0817620Y0026630D03*
X0812620Y0026630D03*
X0802620Y0026630D03*
X0807620Y0026630D03*
X0807620Y0031630D03*
X0802620Y0031630D03*
X0812620Y0031630D03*
X0817620Y0031630D03*
X0797620Y0031630D03*
X0797620Y0026630D03*
X0822620Y0026630D03*
X0822620Y0031630D03*
X0852620Y0031630D03*
X0847620Y0031630D03*
X0857620Y0031630D03*
X0862620Y0031630D03*
X0842620Y0031630D03*
X0837620Y0031630D03*
X0827620Y0031630D03*
X0832620Y0031630D03*
X0832620Y0026630D03*
X0827620Y0026630D03*
X0837620Y0026630D03*
X0842620Y0026630D03*
X0862620Y0026630D03*
X0857620Y0026630D03*
X0847620Y0026630D03*
X0852620Y0026630D03*
D47*
X0992120Y0467130D03*
X0906120Y0467130D03*
D75*
X0929120Y0460130D03*
D53*
X0929120Y0470130D03*
X0939120Y0460130D03*
X0939120Y0470130D03*
X0949120Y0460130D03*
X0949120Y0470130D03*
X0959120Y0460130D03*
X0959120Y0470130D03*
X0969120Y0460130D03*
X0969120Y0470130D03*
D58*
X0725620Y0201630D03*
X0725620Y0214630D03*
X0980620Y0074630D03*
X0980620Y0061630D03*
X0965620Y0061630D03*
X0965620Y0074630D03*
X0950620Y0271630D03*
X0950620Y0284630D03*
X0890620Y0131630D03*
X0890620Y0144630D03*
X0920620Y0284630D03*
X0920620Y0271630D03*
X0920620Y0214630D03*
X0920620Y0201630D03*
X0890620Y0061630D03*
X0890620Y0074630D03*
X0860620Y0284630D03*
X0860620Y0271630D03*
X0860620Y0144630D03*
X0860620Y0131630D03*
X0860620Y0214630D03*
X0860620Y0201630D03*
X0845620Y0271630D03*
X0845620Y0284630D03*
X0980620Y0284630D03*
X0980620Y0271630D03*
X0980620Y0144130D03*
X0980620Y0131130D03*
X0980620Y0214630D03*
X0980620Y0201630D03*
X0965620Y0271630D03*
X0965620Y0284630D03*
X0905620Y0061630D03*
X0905620Y0074630D03*
X0950620Y0131130D03*
X0950620Y0144130D03*
X0950620Y0201630D03*
X0950620Y0214630D03*
X0920620Y0074630D03*
X0920620Y0061630D03*
X0950620Y0061630D03*
X0950620Y0074630D03*
X0740620Y0074630D03*
X0740620Y0061630D03*
X0725620Y0061630D03*
X0725620Y0074630D03*
X0740620Y0214630D03*
X0740620Y0201630D03*
X0710620Y0271630D03*
X0710620Y0284630D03*
X0710620Y0061630D03*
X0710620Y0074630D03*
X0710620Y0201630D03*
X0710620Y0214630D03*
X0725620Y0271630D03*
X0725620Y0284630D03*
X0740620Y0284630D03*
X0740620Y0271630D03*
X0770620Y0061630D03*
X0770620Y0074630D03*
X0800620Y0284630D03*
X0800620Y0271630D03*
X0785620Y0061630D03*
X0785620Y0074630D03*
X0800620Y0214630D03*
X0800620Y0201630D03*
X0770620Y0201630D03*
X0770620Y0214630D03*
X0770620Y0131630D03*
X0770620Y0144630D03*
X0770620Y0271630D03*
X0770620Y0284630D03*
X0710620Y0131630D03*
X0710620Y0144630D03*
X0830620Y0131630D03*
X0830620Y0144630D03*
X0830620Y0201630D03*
X0830620Y0214630D03*
X0830620Y0061630D03*
X0830620Y0074630D03*
X0890620Y0201630D03*
X0890620Y0214630D03*
X0920620Y0144630D03*
X0920620Y0131630D03*
X0905620Y0271630D03*
X0905620Y0284630D03*
X0890620Y0271630D03*
X0890620Y0284630D03*
X0845620Y0061630D03*
X0845620Y0074630D03*
X0860620Y0074630D03*
X0860620Y0061630D03*
X0830620Y0271630D03*
X0830620Y0284630D03*
X0800620Y0144630D03*
X0800620Y0131630D03*
X0800620Y0074630D03*
X0800620Y0061630D03*
X0785620Y0271630D03*
X0785620Y0284630D03*
X0740620Y0144630D03*
X0740620Y0131630D03*
X0845620Y0201630D03*
X0845620Y0214630D03*
X0845620Y0131630D03*
X0845620Y0144630D03*
X0905620Y0131630D03*
X0905620Y0144630D03*
X0905620Y0201630D03*
X0905620Y0214630D03*
X0965620Y0201630D03*
X0965620Y0214630D03*
X0965620Y0131130D03*
X0965620Y0144130D03*
D44*
X0970500Y0447500D03*
X0983500Y0447500D03*
D58*
X0725620Y0131630D03*
X0725620Y0144630D03*
X0785620Y0201630D03*
X0785620Y0214630D03*
X0785620Y0131630D03*
X0785620Y0144630D03*
D44*
X0860620Y0228130D03*
X0850620Y0228130D03*
X0840620Y0228130D03*
X0830620Y0228130D03*
X0830620Y0258130D03*
X0840620Y0258130D03*
X0850620Y0258130D03*
X0860620Y0258130D03*
X0980620Y0158130D03*
X0970620Y0158130D03*
X0960620Y0158130D03*
X0950620Y0158130D03*
X0950620Y0188130D03*
X0960620Y0188130D03*
X0970620Y0188130D03*
X0980620Y0188130D03*
X0740620Y0298130D03*
X0730620Y0298130D03*
X0720620Y0298130D03*
X0710620Y0298130D03*
X0710620Y0328130D03*
X0720620Y0328130D03*
X0730620Y0328130D03*
X0740620Y0328130D03*
X0860620Y0158130D03*
X0850620Y0158130D03*
X0840620Y0158130D03*
X0830620Y0158130D03*
X0830620Y0188130D03*
X0840620Y0188130D03*
X0850620Y0188130D03*
X0860620Y0188130D03*
X0740620Y0158130D03*
X0730620Y0158130D03*
X0720620Y0158130D03*
X0710620Y0158130D03*
X0710620Y0188130D03*
X0720620Y0188130D03*
X0730620Y0188130D03*
X0740620Y0188130D03*
X0920620Y0228130D03*
X0910620Y0228130D03*
X0900620Y0228130D03*
X0890620Y0228130D03*
X0890620Y0258130D03*
X0900620Y0258130D03*
X0910620Y0258130D03*
X0920620Y0258130D03*
X0920620Y0158130D03*
X0910620Y0158130D03*
X0900620Y0158130D03*
X0890620Y0158130D03*
X0890620Y0188130D03*
X0900620Y0188130D03*
X0910620Y0188130D03*
X0920620Y0188130D03*
X0980620Y0228130D03*
X0970620Y0228130D03*
X0960620Y0228130D03*
X0950620Y0228130D03*
X0950620Y0258130D03*
X0960620Y0258130D03*
X0970620Y0258130D03*
X0980620Y0258130D03*
X0980620Y0298130D03*
X0970620Y0298130D03*
X0960620Y0298130D03*
X0950620Y0298130D03*
X0950620Y0328130D03*
X0960620Y0328130D03*
X0970620Y0328130D03*
X0980620Y0328130D03*
X0740620Y0088130D03*
X0730620Y0088130D03*
X0720620Y0088130D03*
X0710620Y0088130D03*
X0710620Y0118130D03*
X0720620Y0118130D03*
X0730620Y0118130D03*
X0740620Y0118130D03*
X0920620Y0298130D03*
X0910620Y0298130D03*
X0900620Y0298130D03*
X0890620Y0298130D03*
X0890620Y0328130D03*
X0900620Y0328130D03*
X0910620Y0328130D03*
X0920620Y0328130D03*
X0980620Y0088130D03*
X0970620Y0088130D03*
X0960620Y0088130D03*
X0950620Y0088130D03*
X0950620Y0118130D03*
X0960620Y0118130D03*
X0970620Y0118130D03*
X0980620Y0118130D03*
X0800620Y0088130D03*
X0790620Y0088130D03*
X0780620Y0088130D03*
X0770620Y0088130D03*
X0770620Y0118130D03*
X0780620Y0118130D03*
X0790620Y0118130D03*
X0800620Y0118130D03*
X0860620Y0298130D03*
X0850620Y0298130D03*
X0840620Y0298130D03*
X0830620Y0298130D03*
X0830620Y0328130D03*
X0840620Y0328130D03*
X0850620Y0328130D03*
X0860620Y0328130D03*
X0800620Y0228130D03*
X0790620Y0228130D03*
X0780620Y0228130D03*
X0770620Y0228130D03*
X0770620Y0258130D03*
X0780620Y0258130D03*
X0790620Y0258130D03*
X0800620Y0258130D03*
X0860620Y0088130D03*
X0850620Y0088130D03*
X0840620Y0088130D03*
X0830620Y0088130D03*
X0830620Y0118130D03*
X0840620Y0118130D03*
X0850620Y0118130D03*
X0860620Y0118130D03*
X0740620Y0228130D03*
X0730620Y0228130D03*
X0720620Y0228130D03*
X0710620Y0228130D03*
X0710620Y0258130D03*
X0720620Y0258130D03*
X0730620Y0258130D03*
X0740620Y0258130D03*
X0800620Y0298130D03*
X0790620Y0298130D03*
X0780620Y0298130D03*
X0770620Y0298130D03*
X0770620Y0328130D03*
X0780620Y0328130D03*
X0790620Y0328130D03*
X0800620Y0328130D03*
D76*
X0710620Y0401510D03*
X0710620Y0380250D03*
D44*
X0920620Y0088130D03*
X0910620Y0088130D03*
X0900620Y0088130D03*
X0890620Y0088130D03*
X0890620Y0118130D03*
X0900620Y0118130D03*
X0910620Y0118130D03*
X0920620Y0118130D03*
X0800620Y0158130D03*
X0790620Y0158130D03*
X0780620Y0158130D03*
X0770620Y0158130D03*
X0770620Y0188130D03*
X0780620Y0188130D03*
X0790620Y0188130D03*
X0800620Y0188130D03*
D105*
X0879120Y0445130D03*
X0799120Y0445130D03*
D15*
X0859120Y0475130D03*
D71*
X0829120Y0435130D03*
X0849120Y0435130D03*
X0809120Y0435130D03*
X0869120Y0435130D03*
D15*
X0819120Y0475130D03*
D22*
X0764120Y0470130D03*
D97*
X0754120Y0480130D03*
X0774120Y0480130D03*
X0774120Y0460130D03*
X0754120Y0460130D03*
D22*
X0714120Y0470130D03*
D97*
X0704120Y0480130D03*
X0724120Y0480130D03*
X0724120Y0460130D03*
X0704120Y0460130D03*
D95*
X0803120Y0342130D03*
X0798120Y0342130D03*
X0793120Y0342130D03*
X0788120Y0342130D03*
X0783120Y0342130D03*
X0778120Y0342130D03*
X0773120Y0342130D03*
X0768120Y0342130D03*
X0768120Y0362130D03*
X0773120Y0362130D03*
X0778120Y0362130D03*
X0783120Y0362130D03*
X0788120Y0362130D03*
X0793120Y0362130D03*
X0798120Y0362130D03*
X0803120Y0362130D03*
X0863120Y0342130D03*
X0858120Y0342130D03*
X0853120Y0342130D03*
X0848120Y0342130D03*
X0843120Y0342130D03*
X0838120Y0342130D03*
X0833120Y0342130D03*
X0828120Y0342130D03*
X0828120Y0362130D03*
X0833120Y0362130D03*
X0838120Y0362130D03*
X0843120Y0362130D03*
X0848120Y0362130D03*
X0853120Y0362130D03*
X0858120Y0362130D03*
X0863120Y0362130D03*
X0923120Y0342130D03*
X0918120Y0342130D03*
X0913120Y0342130D03*
X0908120Y0342130D03*
X0903120Y0342130D03*
X0898120Y0342130D03*
X0893120Y0342130D03*
X0888120Y0342130D03*
X0888120Y0362130D03*
X0893120Y0362130D03*
X0898120Y0362130D03*
X0903120Y0362130D03*
X0908120Y0362130D03*
X0913120Y0362130D03*
X0918120Y0362130D03*
X0923120Y0362130D03*
X0983120Y0342630D03*
X0978120Y0342630D03*
X0973120Y0342630D03*
X0968120Y0342630D03*
X0963120Y0342630D03*
X0958120Y0342630D03*
X0953120Y0342630D03*
X0948120Y0342630D03*
X0948120Y0362630D03*
X0953120Y0362630D03*
X0958120Y0362630D03*
X0963120Y0362630D03*
X0968120Y0362630D03*
X0973120Y0362630D03*
X0978120Y0362630D03*
X0983120Y0362630D03*
D75*
X0934000Y0392500D03*
D53*
X0934000Y0402500D03*
X0944000Y0392500D03*
X0944000Y0402500D03*
X0954000Y0392500D03*
X0954000Y0402500D03*
D75*
X0814000Y0458000D03*
D53*
X0824000Y0458000D03*
X0834000Y0458000D03*
X0844000Y0458000D03*
X0854000Y0458000D03*
X0864000Y0458000D03*
D83*
X0759120Y0430130D03*
X0779120Y0430130D03*
D86*
X0878120Y0412380D03*
X0868120Y0412380D03*
X0858120Y0412380D03*
X0848120Y0412380D03*
X0838120Y0412380D03*
X0828120Y0412380D03*
X0818120Y0412380D03*
X0808120Y0412380D03*
X0798120Y0412380D03*
X0788120Y0412380D03*
X0778120Y0412380D03*
X0768120Y0412380D03*
X0758120Y0412380D03*
D18*
X0888120Y0412380D03*
D86*
X0758120Y0382380D03*
X0768120Y0382380D03*
X0778120Y0382380D03*
X0788120Y0382380D03*
X0798120Y0382380D03*
X0808120Y0382380D03*
X0818120Y0382380D03*
X0828120Y0382380D03*
X0838120Y0382380D03*
X0848120Y0382380D03*
X0858120Y0382380D03*
X0868120Y0382380D03*
X0878120Y0382380D03*
X0888120Y0382380D03*
D95*
X0743120Y0342130D03*
X0738120Y0342130D03*
X0733120Y0342130D03*
X0728120Y0342130D03*
X0723120Y0342130D03*
X0718120Y0342130D03*
X0713120Y0342130D03*
X0708120Y0342130D03*
X0708120Y0362130D03*
X0713120Y0362130D03*
X0718120Y0362130D03*
X0723120Y0362130D03*
X0728120Y0362130D03*
X0733120Y0362130D03*
X0738120Y0362130D03*
X0743120Y0362130D03*
D75*
X0893500Y0435500D03*
D53*
X0893500Y0425500D03*
D75*
X0974500Y0394000D03*
D53*
X0984500Y0394000D03*
D44*
X0970500Y0427500D03*
X0983500Y0427500D03*
X0970500Y0417500D03*
X0983500Y0417500D03*
D75*
X0974500Y0405500D03*
D53*
X0984500Y0405500D03*
D58*
X0876000Y0470000D03*
X0876000Y0457000D03*
D44*
X0826800Y0392100D03*
X0813800Y0392100D03*
D86*
X0917230Y0385070D03*
X0899510Y0385070D03*
X0917230Y0408690D03*
X0899510Y0408690D03*
D44*
X0970500Y0437500D03*
X0983500Y0437500D03*
X0916500Y0435700D03*
X0929500Y0435700D03*
X0685000Y0497500D02*
G01*
D104*
D119*
X0700000Y0917500D03*
X0700000Y0512500D03*
X1000000Y0512500D03*
X1000000Y0917500D03*
D11*
X0898870Y0516630D03*
X0791370Y0516630D03*
D13*
X0887620Y0519130D03*
X0892620Y0519130D03*
X0892620Y0514130D03*
X0887620Y0514130D03*
X0872620Y0514130D03*
X0867620Y0514130D03*
X0877620Y0514130D03*
X0882620Y0514130D03*
X0882620Y0519130D03*
X0877620Y0519130D03*
X0867620Y0519130D03*
X0872620Y0519130D03*
X0817620Y0514130D03*
X0812620Y0514130D03*
X0802620Y0514130D03*
X0807620Y0514130D03*
X0807620Y0519130D03*
X0802620Y0519130D03*
X0812620Y0519130D03*
X0817620Y0519130D03*
X0797620Y0519130D03*
X0797620Y0514130D03*
X0822620Y0514130D03*
X0822620Y0519130D03*
X0852620Y0519130D03*
X0847620Y0519130D03*
X0857620Y0519130D03*
X0862620Y0519130D03*
X0842620Y0519130D03*
X0837620Y0519130D03*
X0827620Y0519130D03*
X0832620Y0519130D03*
X0832620Y0514130D03*
X0827620Y0514130D03*
X0837620Y0514130D03*
X0842620Y0514130D03*
X0862620Y0514130D03*
X0857620Y0514130D03*
X0847620Y0514130D03*
X0852620Y0514130D03*
D47*
X0992120Y0954630D03*
X0906120Y0954630D03*
D75*
X0929120Y0947630D03*
D53*
X0929120Y0957630D03*
X0939120Y0947630D03*
X0939120Y0957630D03*
X0949120Y0947630D03*
X0949120Y0957630D03*
X0959120Y0947630D03*
X0959120Y0957630D03*
X0969120Y0947630D03*
X0969120Y0957630D03*
D58*
X0725620Y0689130D03*
X0725620Y0702130D03*
X0980620Y0562130D03*
X0980620Y0549130D03*
X0965620Y0549130D03*
X0965620Y0562130D03*
X0950620Y0759130D03*
X0950620Y0772130D03*
X0890620Y0619130D03*
X0890620Y0632130D03*
X0920620Y0772130D03*
X0920620Y0759130D03*
X0920620Y0702130D03*
X0920620Y0689130D03*
X0890620Y0549130D03*
X0890620Y0562130D03*
X0860620Y0772130D03*
X0860620Y0759130D03*
X0860620Y0632130D03*
X0860620Y0619130D03*
X0860620Y0702130D03*
X0860620Y0689130D03*
X0845620Y0759130D03*
X0845620Y0772130D03*
X0980620Y0772130D03*
X0980620Y0759130D03*
X0980620Y0631630D03*
X0980620Y0618630D03*
X0980620Y0702130D03*
X0980620Y0689130D03*
X0965620Y0759130D03*
X0965620Y0772130D03*
X0905620Y0549130D03*
X0905620Y0562130D03*
X0950620Y0618630D03*
X0950620Y0631630D03*
X0950620Y0689130D03*
X0950620Y0702130D03*
X0920620Y0562130D03*
X0920620Y0549130D03*
X0950620Y0549130D03*
X0950620Y0562130D03*
X0740620Y0562130D03*
X0740620Y0549130D03*
X0725620Y0549130D03*
X0725620Y0562130D03*
X0740620Y0702130D03*
X0740620Y0689130D03*
X0710620Y0759130D03*
X0710620Y0772130D03*
X0710620Y0549130D03*
X0710620Y0562130D03*
X0710620Y0689130D03*
X0710620Y0702130D03*
X0725620Y0759130D03*
X0725620Y0772130D03*
X0740620Y0772130D03*
X0740620Y0759130D03*
X0770620Y0549130D03*
X0770620Y0562130D03*
X0800620Y0772130D03*
X0800620Y0759130D03*
X0785620Y0549130D03*
X0785620Y0562130D03*
X0800620Y0702130D03*
X0800620Y0689130D03*
X0770620Y0689130D03*
X0770620Y0702130D03*
X0770620Y0619130D03*
X0770620Y0632130D03*
X0770620Y0759130D03*
X0770620Y0772130D03*
X0710620Y0619130D03*
X0710620Y0632130D03*
X0830620Y0619130D03*
X0830620Y0632130D03*
X0830620Y0689130D03*
X0830620Y0702130D03*
X0830620Y0549130D03*
X0830620Y0562130D03*
X0890620Y0689130D03*
X0890620Y0702130D03*
X0920620Y0632130D03*
X0920620Y0619130D03*
X0905620Y0759130D03*
X0905620Y0772130D03*
X0890620Y0759130D03*
X0890620Y0772130D03*
X0845620Y0549130D03*
X0845620Y0562130D03*
X0860620Y0562130D03*
X0860620Y0549130D03*
X0830620Y0759130D03*
X0830620Y0772130D03*
X0800620Y0632130D03*
X0800620Y0619130D03*
X0800620Y0562130D03*
X0800620Y0549130D03*
X0785620Y0759130D03*
X0785620Y0772130D03*
X0740620Y0632130D03*
X0740620Y0619130D03*
X0845620Y0689130D03*
X0845620Y0702130D03*
X0845620Y0619130D03*
X0845620Y0632130D03*
X0905620Y0619130D03*
X0905620Y0632130D03*
X0905620Y0689130D03*
X0905620Y0702130D03*
X0965620Y0689130D03*
X0965620Y0702130D03*
X0965620Y0618630D03*
X0965620Y0631630D03*
D44*
X0970500Y0935000D03*
X0983500Y0935000D03*
D58*
X0725620Y0619130D03*
X0725620Y0632130D03*
X0785620Y0689130D03*
X0785620Y0702130D03*
X0785620Y0619130D03*
X0785620Y0632130D03*
D44*
X0860620Y0715630D03*
X0850620Y0715630D03*
X0840620Y0715630D03*
X0830620Y0715630D03*
X0830620Y0745630D03*
X0840620Y0745630D03*
X0850620Y0745630D03*
X0860620Y0745630D03*
X0980620Y0645630D03*
X0970620Y0645630D03*
X0960620Y0645630D03*
X0950620Y0645630D03*
X0950620Y0675630D03*
X0960620Y0675630D03*
X0970620Y0675630D03*
X0980620Y0675630D03*
X0740620Y0785630D03*
X0730620Y0785630D03*
X0720620Y0785630D03*
X0710620Y0785630D03*
X0710620Y0815630D03*
X0720620Y0815630D03*
X0730620Y0815630D03*
X0740620Y0815630D03*
X0860620Y0645630D03*
X0850620Y0645630D03*
X0840620Y0645630D03*
X0830620Y0645630D03*
X0830620Y0675630D03*
X0840620Y0675630D03*
X0850620Y0675630D03*
X0860620Y0675630D03*
X0740620Y0645630D03*
X0730620Y0645630D03*
X0720620Y0645630D03*
X0710620Y0645630D03*
X0710620Y0675630D03*
X0720620Y0675630D03*
X0730620Y0675630D03*
X0740620Y0675630D03*
X0920620Y0715630D03*
X0910620Y0715630D03*
X0900620Y0715630D03*
X0890620Y0715630D03*
X0890620Y0745630D03*
X0900620Y0745630D03*
X0910620Y0745630D03*
X0920620Y0745630D03*
X0920620Y0645630D03*
X0910620Y0645630D03*
X0900620Y0645630D03*
X0890620Y0645630D03*
X0890620Y0675630D03*
X0900620Y0675630D03*
X0910620Y0675630D03*
X0920620Y0675630D03*
X0980620Y0715630D03*
X0970620Y0715630D03*
X0960620Y0715630D03*
X0950620Y0715630D03*
X0950620Y0745630D03*
X0960620Y0745630D03*
X0970620Y0745630D03*
X0980620Y0745630D03*
X0980620Y0785630D03*
X0970620Y0785630D03*
X0960620Y0785630D03*
X0950620Y0785630D03*
X0950620Y0815630D03*
X0960620Y0815630D03*
X0970620Y0815630D03*
X0980620Y0815630D03*
X0740620Y0575630D03*
X0730620Y0575630D03*
X0720620Y0575630D03*
X0710620Y0575630D03*
X0710620Y0605630D03*
X0720620Y0605630D03*
X0730620Y0605630D03*
X0740620Y0605630D03*
X0920620Y0785630D03*
X0910620Y0785630D03*
X0900620Y0785630D03*
X0890620Y0785630D03*
X0890620Y0815630D03*
X0900620Y0815630D03*
X0910620Y0815630D03*
X0920620Y0815630D03*
X0980620Y0575630D03*
X0970620Y0575630D03*
X0960620Y0575630D03*
X0950620Y0575630D03*
X0950620Y0605630D03*
X0960620Y0605630D03*
X0970620Y0605630D03*
X0980620Y0605630D03*
X0800620Y0575630D03*
X0790620Y0575630D03*
X0780620Y0575630D03*
X0770620Y0575630D03*
X0770620Y0605630D03*
X0780620Y0605630D03*
X0790620Y0605630D03*
X0800620Y0605630D03*
X0860620Y0785630D03*
X0850620Y0785630D03*
X0840620Y0785630D03*
X0830620Y0785630D03*
X0830620Y0815630D03*
X0840620Y0815630D03*
X0850620Y0815630D03*
X0860620Y0815630D03*
X0800620Y0715630D03*
X0790620Y0715630D03*
X0780620Y0715630D03*
X0770620Y0715630D03*
X0770620Y0745630D03*
X0780620Y0745630D03*
X0790620Y0745630D03*
X0800620Y0745630D03*
X0860620Y0575630D03*
X0850620Y0575630D03*
X0840620Y0575630D03*
X0830620Y0575630D03*
X0830620Y0605630D03*
X0840620Y0605630D03*
X0850620Y0605630D03*
X0860620Y0605630D03*
X0740620Y0715630D03*
X0730620Y0715630D03*
X0720620Y0715630D03*
X0710620Y0715630D03*
X0710620Y0745630D03*
X0720620Y0745630D03*
X0730620Y0745630D03*
X0740620Y0745630D03*
X0800620Y0785630D03*
X0790620Y0785630D03*
X0780620Y0785630D03*
X0770620Y0785630D03*
X0770620Y0815630D03*
X0780620Y0815630D03*
X0790620Y0815630D03*
X0800620Y0815630D03*
D76*
X0710620Y0889010D03*
X0710620Y0867750D03*
D44*
X0920620Y0575630D03*
X0910620Y0575630D03*
X0900620Y0575630D03*
X0890620Y0575630D03*
X0890620Y0605630D03*
X0900620Y0605630D03*
X0910620Y0605630D03*
X0920620Y0605630D03*
X0800620Y0645630D03*
X0790620Y0645630D03*
X0780620Y0645630D03*
X0770620Y0645630D03*
X0770620Y0675630D03*
X0780620Y0675630D03*
X0790620Y0675630D03*
X0800620Y0675630D03*
D105*
X0879120Y0932630D03*
X0799120Y0932630D03*
D15*
X0859120Y0962630D03*
D71*
X0829120Y0922630D03*
X0849120Y0922630D03*
X0809120Y0922630D03*
X0869120Y0922630D03*
D15*
X0819120Y0962630D03*
D22*
X0764120Y0957630D03*
D97*
X0754120Y0967630D03*
X0774120Y0967630D03*
X0774120Y0947630D03*
X0754120Y0947630D03*
D22*
X0714120Y0957630D03*
D97*
X0704120Y0967630D03*
X0724120Y0967630D03*
X0724120Y0947630D03*
X0704120Y0947630D03*
D95*
X0803120Y0829630D03*
X0798120Y0829630D03*
X0793120Y0829630D03*
X0788120Y0829630D03*
X0783120Y0829630D03*
X0778120Y0829630D03*
X0773120Y0829630D03*
X0768120Y0829630D03*
X0768120Y0849630D03*
X0773120Y0849630D03*
X0778120Y0849630D03*
X0783120Y0849630D03*
X0788120Y0849630D03*
X0793120Y0849630D03*
X0798120Y0849630D03*
X0803120Y0849630D03*
X0863120Y0829630D03*
X0858120Y0829630D03*
X0853120Y0829630D03*
X0848120Y0829630D03*
X0843120Y0829630D03*
X0838120Y0829630D03*
X0833120Y0829630D03*
X0828120Y0829630D03*
X0828120Y0849630D03*
X0833120Y0849630D03*
X0838120Y0849630D03*
X0843120Y0849630D03*
X0848120Y0849630D03*
X0853120Y0849630D03*
X0858120Y0849630D03*
X0863120Y0849630D03*
X0923120Y0829630D03*
X0918120Y0829630D03*
X0913120Y0829630D03*
X0908120Y0829630D03*
X0903120Y0829630D03*
X0898120Y0829630D03*
X0893120Y0829630D03*
X0888120Y0829630D03*
X0888120Y0849630D03*
X0893120Y0849630D03*
X0898120Y0849630D03*
X0903120Y0849630D03*
X0908120Y0849630D03*
X0913120Y0849630D03*
X0918120Y0849630D03*
X0923120Y0849630D03*
X0983120Y0830130D03*
X0978120Y0830130D03*
X0973120Y0830130D03*
X0968120Y0830130D03*
X0963120Y0830130D03*
X0958120Y0830130D03*
X0953120Y0830130D03*
X0948120Y0830130D03*
X0948120Y0850130D03*
X0953120Y0850130D03*
X0958120Y0850130D03*
X0963120Y0850130D03*
X0968120Y0850130D03*
X0973120Y0850130D03*
X0978120Y0850130D03*
X0983120Y0850130D03*
D75*
X0934000Y0880000D03*
D53*
X0934000Y0890000D03*
X0944000Y0880000D03*
X0944000Y0890000D03*
X0954000Y0880000D03*
X0954000Y0890000D03*
D75*
X0814000Y0945500D03*
D53*
X0824000Y0945500D03*
X0834000Y0945500D03*
X0844000Y0945500D03*
X0854000Y0945500D03*
X0864000Y0945500D03*
D83*
X0759120Y0917630D03*
X0779120Y0917630D03*
D86*
X0878120Y0899880D03*
X0868120Y0899880D03*
X0858120Y0899880D03*
X0848120Y0899880D03*
X0838120Y0899880D03*
X0828120Y0899880D03*
X0818120Y0899880D03*
X0808120Y0899880D03*
X0798120Y0899880D03*
X0788120Y0899880D03*
X0778120Y0899880D03*
X0768120Y0899880D03*
X0758120Y0899880D03*
D18*
X0888120Y0899880D03*
D86*
X0758120Y0869880D03*
X0768120Y0869880D03*
X0778120Y0869880D03*
X0788120Y0869880D03*
X0798120Y0869880D03*
X0808120Y0869880D03*
X0818120Y0869880D03*
X0828120Y0869880D03*
X0838120Y0869880D03*
X0848120Y0869880D03*
X0858120Y0869880D03*
X0868120Y0869880D03*
X0878120Y0869880D03*
X0888120Y0869880D03*
D95*
X0743120Y0829630D03*
X0738120Y0829630D03*
X0733120Y0829630D03*
X0728120Y0829630D03*
X0723120Y0829630D03*
X0718120Y0829630D03*
X0713120Y0829630D03*
X0708120Y0829630D03*
X0708120Y0849630D03*
X0713120Y0849630D03*
X0718120Y0849630D03*
X0723120Y0849630D03*
X0728120Y0849630D03*
X0733120Y0849630D03*
X0738120Y0849630D03*
X0743120Y0849630D03*
D75*
X0893500Y0923000D03*
D53*
X0893500Y0913000D03*
D75*
X0974500Y0881500D03*
D53*
X0984500Y0881500D03*
D44*
X0970500Y0915000D03*
X0983500Y0915000D03*
X0970500Y0905000D03*
X0983500Y0905000D03*
D75*
X0974500Y0893000D03*
D53*
X0984500Y0893000D03*
D58*
X0876000Y0957500D03*
X0876000Y0944500D03*
D44*
X0826800Y0879600D03*
X0813800Y0879600D03*
D86*
X0917230Y0872570D03*
X0899510Y0872570D03*
X0917230Y0896190D03*
X0899510Y0896190D03*
D44*
X0970500Y0925000D03*
X0983500Y0925000D03*
X0916500Y0923200D03*
X0929500Y0923200D03*
X0487500Y0775000D02*
G01*
D104*
D11*
X0538000Y0818250D03*
X0538000Y0925750D03*
D13*
X0540500Y0829500D03*
X0540500Y0824500D03*
X0535500Y0824500D03*
X0535500Y0829500D03*
X0535500Y0844500D03*
X0535500Y0849500D03*
X0535500Y0839500D03*
X0535500Y0834500D03*
X0540500Y0834500D03*
X0540500Y0839500D03*
X0540500Y0849500D03*
X0540500Y0844500D03*
X0535500Y0899500D03*
X0535500Y0904500D03*
X0535500Y0914500D03*
X0535500Y0909500D03*
X0540500Y0909500D03*
X0540500Y0914500D03*
X0540500Y0904500D03*
X0540500Y0899500D03*
X0540500Y0919500D03*
X0535500Y0919500D03*
X0535500Y0894500D03*
X0540500Y0894500D03*
X0540500Y0864500D03*
X0540500Y0869500D03*
X0540500Y0859500D03*
X0540500Y0854500D03*
X0540500Y0874500D03*
X0540500Y0879500D03*
X0540500Y0889500D03*
X0540500Y0884500D03*
X0535500Y0884500D03*
X0535500Y0889500D03*
X0535500Y0879500D03*
X0535500Y0874500D03*
X0535500Y0854500D03*
X0535500Y0859500D03*
X0535500Y0869500D03*
X0535500Y0864500D03*
D111*
X0535500Y0956500D03*
X1022500Y0010000D02*
G01*
D104*
D53*
X1284500Y0186900D03*
X1274500Y0186900D03*
X1274500Y0196900D03*
X1284500Y0196900D03*
X1284500Y0206900D03*
X1274500Y0206900D03*
D91*
X1098000Y0286900D03*
X1108000Y0286900D03*
X1134000Y0096900D03*
X1144000Y0096900D03*
X1294000Y0286900D03*
X1304000Y0286900D03*
X1314000Y0286900D03*
X1324000Y0286900D03*
X1334000Y0286900D03*
X1344000Y0286900D03*
X1354000Y0286900D03*
X1364000Y0286900D03*
X1384000Y0096900D03*
X1374000Y0096900D03*
X1364000Y0096900D03*
X1354000Y0096900D03*
X1314000Y0096900D03*
X1294000Y0096900D03*
X1284000Y0096900D03*
X1324000Y0096900D03*
X1334000Y0096900D03*
X1344000Y0096900D03*
X1274000Y0096900D03*
X1264000Y0096900D03*
X1254000Y0096900D03*
X1224000Y0096900D03*
X1234000Y0096900D03*
X1244000Y0096900D03*
X1204000Y0096900D03*
X1194000Y0096900D03*
X1184000Y0096900D03*
X1164000Y0096900D03*
X1154000Y0096900D03*
X1274000Y0286900D03*
X1264000Y0286900D03*
X1254000Y0286900D03*
X1244000Y0286900D03*
X1234000Y0286900D03*
X1224000Y0286900D03*
X1214000Y0286900D03*
X1204000Y0286900D03*
X1188000Y0286900D03*
X1178000Y0286900D03*
X1168000Y0286900D03*
X1158000Y0286900D03*
X1148000Y0286900D03*
X1138000Y0286900D03*
X1128000Y0286900D03*
X1118000Y0286900D03*
X1174000Y0096900D03*
D96*
X1404000Y0096900D03*
X1379000Y0286900D03*
D53*
X1394000Y0276900D03*
X1404000Y0276900D03*
X1394000Y0266900D03*
X1404000Y0266900D03*
X1394000Y0256900D03*
X1404000Y0256900D03*
X1394000Y0246900D03*
X1404000Y0246900D03*
X1394000Y0286900D03*
X1404000Y0286900D03*
X1404000Y0236900D03*
X1394000Y0236900D03*
X1394000Y0226900D03*
X1404000Y0226900D03*
X1394000Y0216900D03*
X1404000Y0216900D03*
X1394000Y0206900D03*
X1404000Y0206900D03*
X1394000Y0196900D03*
X1404000Y0196900D03*
X1394000Y0186900D03*
X1404000Y0186900D03*
X1394000Y0176900D03*
X1404000Y0176900D03*
X1394000Y0166900D03*
X1404000Y0166900D03*
X1394000Y0156900D03*
X1404000Y0156900D03*
X1394000Y0146900D03*
X1404000Y0146900D03*
X1394000Y0136900D03*
X1404000Y0136900D03*
X1394000Y0126900D03*
X1404000Y0126900D03*
X1394000Y0116900D03*
X1404000Y0116900D03*
D99*
X1155200Y0027340D03*
D14*
X1155200Y0077720D03*
X1171740Y0077720D03*
X1188260Y0077720D03*
X1204800Y0077720D03*
X1155200Y0056080D03*
X1171740Y0056080D03*
X1188260Y0056080D03*
X1204800Y0056080D03*
D99*
X1204800Y0027340D03*
X1035930Y0197700D03*
D14*
X1086320Y0197700D03*
X1086320Y0181160D03*
X1086320Y0164640D03*
X1086320Y0148100D03*
X1064680Y0197700D03*
X1064680Y0181160D03*
X1064680Y0164640D03*
X1064680Y0148100D03*
D99*
X1035930Y0148100D03*
X1035930Y0272700D03*
D14*
X1086320Y0272700D03*
X1086320Y0256160D03*
X1086320Y0239640D03*
X1086320Y0223100D03*
X1064680Y0272700D03*
X1064680Y0256160D03*
X1064680Y0239640D03*
X1064680Y0223100D03*
D99*
X1035930Y0223100D03*
D75*
X1295500Y0130900D03*
D119*
X1120700Y0070900D03*
D47*
X1237000Y0052400D03*
X1323000Y0052400D03*
D75*
X1300000Y0059400D03*
D53*
X1300000Y0049400D03*
X1290000Y0059400D03*
X1290000Y0049400D03*
X1280000Y0059400D03*
X1280000Y0049400D03*
X1270000Y0059400D03*
X1270000Y0049400D03*
X1260000Y0059400D03*
X1260000Y0049400D03*
D45*
X1052500Y0059900D03*
X1052500Y0019900D03*
D53*
X1072500Y0029900D03*
X1072500Y0039900D03*
D45*
X1052500Y0123900D03*
X1052500Y0083900D03*
D53*
X1072500Y0093900D03*
X1072500Y0103900D03*
D93*
X1208100Y0252720D03*
X1224630Y0252720D03*
X1241170Y0252720D03*
X1257700Y0252720D03*
X1274240Y0252720D03*
X1290760Y0252720D03*
X1307300Y0252720D03*
X1323830Y0252720D03*
X1340370Y0252720D03*
X1356900Y0252720D03*
X1208100Y0231080D03*
X1224630Y0231080D03*
X1241170Y0231080D03*
X1257700Y0231080D03*
X1274240Y0231080D03*
X1290760Y0231080D03*
X1307300Y0231080D03*
X1323830Y0231080D03*
X1340370Y0231080D03*
X1356900Y0231080D03*
D123*
X1189590Y0232840D03*
X1375410Y0232840D03*
D22*
X1110000Y0037900D03*
D97*
X1100000Y0047900D03*
X1120000Y0047900D03*
X1120000Y0027900D03*
X1100000Y0027900D03*
D75*
X1225250Y0127900D03*
D53*
X1225250Y0137900D03*
X1225250Y0147900D03*
D75*
X1307500Y0151900D03*
D53*
X1307500Y0161900D03*
X1307500Y0171900D03*
D75*
X1239500Y0127900D03*
D53*
X1239500Y0137900D03*
X1239500Y0147900D03*
D75*
X1321500Y0151900D03*
D53*
X1321500Y0161900D03*
X1321500Y0171900D03*
D75*
X1293500Y0151900D03*
D53*
X1293500Y0161900D03*
X1293500Y0171900D03*
D75*
X1285500Y0130900D03*
X1359500Y0036900D03*
D53*
X1359500Y0026900D03*
X1359500Y0016900D03*
D75*
X1375500Y0036900D03*
D53*
X1375500Y0026900D03*
X1375500Y0016900D03*
D75*
X1405500Y0036900D03*
D53*
X1405500Y0026900D03*
X1405500Y0016900D03*
D75*
X1390500Y0036900D03*
D53*
X1390500Y0026900D03*
X1390500Y0016900D03*
D119*
X1120700Y0262400D03*
X0010000Y0895000D02*
G01*
D104*
D11*
X0053250Y0937000D03*
X0160750Y0937000D03*
D13*
X0064500Y0934500D03*
X0059500Y0934500D03*
X0059500Y0939500D03*
X0064500Y0939500D03*
X0079500Y0939500D03*
X0084500Y0939500D03*
X0074500Y0939500D03*
X0069500Y0939500D03*
X0069500Y0934500D03*
X0074500Y0934500D03*
X0084500Y0934500D03*
X0079500Y0934500D03*
X0134500Y0939500D03*
X0139500Y0939500D03*
X0149500Y0939500D03*
X0144500Y0939500D03*
X0144500Y0934500D03*
X0149500Y0934500D03*
X0139500Y0934500D03*
X0134500Y0934500D03*
X0154500Y0934500D03*
X0154500Y0939500D03*
X0129500Y0939500D03*
X0129500Y0934500D03*
X0099500Y0934500D03*
X0104500Y0934500D03*
X0094500Y0934500D03*
X0089500Y0934500D03*
X0109500Y0934500D03*
X0114500Y0934500D03*
X0124500Y0934500D03*
X0119500Y0934500D03*
X0119500Y0939500D03*
X0124500Y0939500D03*
X0114500Y0939500D03*
X0109500Y0939500D03*
X0089500Y0939500D03*
X0094500Y0939500D03*
X0104500Y0939500D03*
X0099500Y0939500D03*
D111*
X0191500Y0939500D03*
X1022500Y0304400D02*
G01*
D104*
D53*
X1284500Y0481300D03*
X1274500Y0481300D03*
X1274500Y0491300D03*
X1284500Y0491300D03*
X1284500Y0501300D03*
X1274500Y0501300D03*
D91*
X1098000Y0581300D03*
X1108000Y0581300D03*
X1134000Y0391300D03*
X1144000Y0391300D03*
X1294000Y0581300D03*
X1304000Y0581300D03*
X1314000Y0581300D03*
X1324000Y0581300D03*
X1334000Y0581300D03*
X1344000Y0581300D03*
X1354000Y0581300D03*
X1364000Y0581300D03*
X1384000Y0391300D03*
X1374000Y0391300D03*
X1364000Y0391300D03*
X1354000Y0391300D03*
X1314000Y0391300D03*
X1294000Y0391300D03*
X1284000Y0391300D03*
X1324000Y0391300D03*
X1334000Y0391300D03*
X1344000Y0391300D03*
X1274000Y0391300D03*
X1264000Y0391300D03*
X1254000Y0391300D03*
X1224000Y0391300D03*
X1234000Y0391300D03*
X1244000Y0391300D03*
X1204000Y0391300D03*
X1194000Y0391300D03*
X1184000Y0391300D03*
X1164000Y0391300D03*
X1154000Y0391300D03*
X1274000Y0581300D03*
X1264000Y0581300D03*
X1254000Y0581300D03*
X1244000Y0581300D03*
X1234000Y0581300D03*
X1224000Y0581300D03*
X1214000Y0581300D03*
X1204000Y0581300D03*
X1188000Y0581300D03*
X1178000Y0581300D03*
X1168000Y0581300D03*
X1158000Y0581300D03*
X1148000Y0581300D03*
X1138000Y0581300D03*
X1128000Y0581300D03*
X1118000Y0581300D03*
X1174000Y0391300D03*
D96*
X1404000Y0391300D03*
X1379000Y0581300D03*
D53*
X1394000Y0571300D03*
X1404000Y0571300D03*
X1394000Y0561300D03*
X1404000Y0561300D03*
X1394000Y0551300D03*
X1404000Y0551300D03*
X1394000Y0541300D03*
X1404000Y0541300D03*
X1394000Y0581300D03*
X1404000Y0581300D03*
X1404000Y0531300D03*
X1394000Y0531300D03*
X1394000Y0521300D03*
X1404000Y0521300D03*
X1394000Y0511300D03*
X1404000Y0511300D03*
X1394000Y0501300D03*
X1404000Y0501300D03*
X1394000Y0491300D03*
X1404000Y0491300D03*
X1394000Y0481300D03*
X1404000Y0481300D03*
X1394000Y0471300D03*
X1404000Y0471300D03*
X1394000Y0461300D03*
X1404000Y0461300D03*
X1394000Y0451300D03*
X1404000Y0451300D03*
X1394000Y0441300D03*
X1404000Y0441300D03*
X1394000Y0431300D03*
X1404000Y0431300D03*
X1394000Y0421300D03*
X1404000Y0421300D03*
X1394000Y0411300D03*
X1404000Y0411300D03*
D99*
X1155200Y0321740D03*
D14*
X1155200Y0372120D03*
X1171740Y0372120D03*
X1188260Y0372120D03*
X1204800Y0372120D03*
X1155200Y0350480D03*
X1171740Y0350480D03*
X1188260Y0350480D03*
X1204800Y0350480D03*
D99*
X1204800Y0321740D03*
X1035930Y0492100D03*
D14*
X1086320Y0492100D03*
X1086320Y0475560D03*
X1086320Y0459040D03*
X1086320Y0442500D03*
X1064680Y0492100D03*
X1064680Y0475560D03*
X1064680Y0459040D03*
X1064680Y0442500D03*
D99*
X1035930Y0442500D03*
X1035930Y0567100D03*
D14*
X1086320Y0567100D03*
X1086320Y0550560D03*
X1086320Y0534040D03*
X1086320Y0517500D03*
X1064680Y0567100D03*
X1064680Y0550560D03*
X1064680Y0534040D03*
X1064680Y0517500D03*
D99*
X1035930Y0517500D03*
D75*
X1295500Y0425300D03*
D119*
X1120700Y0365300D03*
D47*
X1237000Y0346800D03*
X1323000Y0346800D03*
D75*
X1300000Y0353800D03*
D53*
X1300000Y0343800D03*
X1290000Y0353800D03*
X1290000Y0343800D03*
X1280000Y0353800D03*
X1280000Y0343800D03*
X1270000Y0353800D03*
X1270000Y0343800D03*
X1260000Y0353800D03*
X1260000Y0343800D03*
D45*
X1052500Y0354300D03*
X1052500Y0314300D03*
D53*
X1072500Y0324300D03*
X1072500Y0334300D03*
D45*
X1052500Y0418300D03*
X1052500Y0378300D03*
D53*
X1072500Y0388300D03*
X1072500Y0398300D03*
D93*
X1208100Y0547120D03*
X1224630Y0547120D03*
X1241170Y0547120D03*
X1257700Y0547120D03*
X1274240Y0547120D03*
X1290760Y0547120D03*
X1307300Y0547120D03*
X1323830Y0547120D03*
X1340370Y0547120D03*
X1356900Y0547120D03*
X1208100Y0525480D03*
X1224630Y0525480D03*
X1241170Y0525480D03*
X1257700Y0525480D03*
X1274240Y0525480D03*
X1290760Y0525480D03*
X1307300Y0525480D03*
X1323830Y0525480D03*
X1340370Y0525480D03*
X1356900Y0525480D03*
D123*
X1189590Y0527240D03*
X1375410Y0527240D03*
D22*
X1110000Y0332300D03*
D97*
X1100000Y0342300D03*
X1120000Y0342300D03*
X1120000Y0322300D03*
X1100000Y0322300D03*
D75*
X1225250Y0422300D03*
D53*
X1225250Y0432300D03*
X1225250Y0442300D03*
D75*
X1307500Y0446300D03*
D53*
X1307500Y0456300D03*
X1307500Y0466300D03*
D75*
X1239500Y0422300D03*
D53*
X1239500Y0432300D03*
X1239500Y0442300D03*
D75*
X1321500Y0446300D03*
D53*
X1321500Y0456300D03*
X1321500Y0466300D03*
D75*
X1293500Y0446300D03*
D53*
X1293500Y0456300D03*
X1293500Y0466300D03*
D75*
X1285500Y0425300D03*
X1359500Y0331300D03*
D53*
X1359500Y0321300D03*
X1359500Y0311300D03*
D75*
X1375500Y0331300D03*
D53*
X1375500Y0321300D03*
X1375500Y0311300D03*
D75*
X1405500Y0331300D03*
D53*
X1405500Y0321300D03*
X1405500Y0311300D03*
D75*
X1390500Y0331300D03*
D53*
X1390500Y0321300D03*
X1390500Y0311300D03*
D119*
X1120700Y0556800D03*
X1022500Y0598800D02*
G01*
D104*
D101*
X1042250Y0618300D03*
X1128250Y0618300D03*
D34*
X1105250Y0625300D03*
D84*
X1105250Y0615300D03*
X1095250Y0625300D03*
X1095250Y0615300D03*
X1085250Y0625300D03*
X1085250Y0615300D03*
X1075250Y0625300D03*
X1075250Y0615300D03*
X1065250Y0625300D03*
X1065250Y0615300D03*
D40*
X1381500Y0677050D03*
X1190250Y0677050D03*
D16*
X1159950Y0606140D03*
D118*
X1159950Y0656520D03*
X1176490Y0656520D03*
X1193010Y0656520D03*
X1209550Y0656520D03*
X1159950Y0634880D03*
X1176490Y0634880D03*
X1193010Y0634880D03*
X1209550Y0634880D03*
D16*
X1209550Y0606140D03*
D101*
X1128250Y0759800D03*
X1042250Y0759800D03*
D34*
X1065250Y0752800D03*
D84*
X1065250Y0762800D03*
X1075250Y0752800D03*
X1075250Y0762800D03*
X1085250Y0752800D03*
X1085250Y0762800D03*
X1095250Y0752800D03*
X1095250Y0762800D03*
X1105250Y0752800D03*
X1105250Y0762800D03*
D109*
X1205250Y0743800D03*
X1165250Y0743800D03*
D84*
X1175250Y0723800D03*
X1185250Y0723800D03*
D68*
X1409710Y0710190D03*
X1391990Y0710190D03*
X1409710Y0733810D03*
X1391990Y0733810D03*
D34*
X1258550Y0765800D03*
D84*
X1258550Y0755800D03*
X1248550Y0765800D03*
X1248550Y0755800D03*
X1238550Y0765800D03*
X1238550Y0755800D03*
D34*
X1358450Y0768000D03*
D84*
X1368450Y0768000D03*
X1378450Y0768000D03*
X1388450Y0768000D03*
X1398450Y0768000D03*
X1408450Y0768000D03*
D68*
X1366650Y0742800D03*
X1356650Y0742800D03*
X1346650Y0742800D03*
X1336650Y0742800D03*
X1326650Y0742800D03*
X1316650Y0742800D03*
X1306650Y0742800D03*
X1296650Y0742800D03*
X1286650Y0742800D03*
X1276650Y0742800D03*
X1266650Y0742800D03*
X1256650Y0742800D03*
X1246650Y0742800D03*
D46*
X1376650Y0742800D03*
D68*
X1246650Y0712800D03*
X1256650Y0712800D03*
X1266650Y0712800D03*
X1276650Y0712800D03*
X1286650Y0712800D03*
X1296650Y0712800D03*
X1306650Y0712800D03*
X1316650Y0712800D03*
X1326650Y0712800D03*
X1336650Y0712800D03*
X1346650Y0712800D03*
X1356650Y0712800D03*
X1366650Y0712800D03*
X1376650Y0712800D03*
D34*
X1223500Y0718300D03*
D84*
X1223500Y0728300D03*
X1223500Y0738300D03*
D43*
X1290550Y0761200D03*
X1310550Y0761200D03*
D34*
X1357350Y0753000D03*
D84*
X1367350Y0753000D03*
D34*
X1142450Y0725550D03*
D84*
X1132450Y0725550D03*
D129*
X1361850Y0634300D03*
X1348850Y0634300D03*
X1340400Y0678350D03*
X1353400Y0678350D03*
X1022500Y0782800D02*
G01*
D104*
D101*
X1042250Y0802300D03*
X1128250Y0802300D03*
D34*
X1105250Y0809300D03*
D84*
X1105250Y0799300D03*
X1095250Y0809300D03*
X1095250Y0799300D03*
X1085250Y0809300D03*
X1085250Y0799300D03*
X1075250Y0809300D03*
X1075250Y0799300D03*
X1065250Y0809300D03*
X1065250Y0799300D03*
D40*
X1381500Y0861050D03*
X1190250Y0861050D03*
D16*
X1159950Y0790140D03*
D118*
X1159950Y0840520D03*
X1176490Y0840520D03*
X1193010Y0840520D03*
X1209550Y0840520D03*
X1159950Y0818880D03*
X1176490Y0818880D03*
X1193010Y0818880D03*
X1209550Y0818880D03*
D16*
X1209550Y0790140D03*
D101*
X1128250Y0943800D03*
X1042250Y0943800D03*
D34*
X1065250Y0936800D03*
D84*
X1065250Y0946800D03*
X1075250Y0936800D03*
X1075250Y0946800D03*
X1085250Y0936800D03*
X1085250Y0946800D03*
X1095250Y0936800D03*
X1095250Y0946800D03*
X1105250Y0936800D03*
X1105250Y0946800D03*
D109*
X1205250Y0927800D03*
X1165250Y0927800D03*
D84*
X1175250Y0907800D03*
X1185250Y0907800D03*
D68*
X1409710Y0894190D03*
X1391990Y0894190D03*
X1409710Y0917810D03*
X1391990Y0917810D03*
D34*
X1258550Y0949800D03*
D84*
X1258550Y0939800D03*
X1248550Y0949800D03*
X1248550Y0939800D03*
X1238550Y0949800D03*
X1238550Y0939800D03*
D34*
X1358450Y0952000D03*
D84*
X1368450Y0952000D03*
X1378450Y0952000D03*
X1388450Y0952000D03*
X1398450Y0952000D03*
X1408450Y0952000D03*
D68*
X1366650Y0926800D03*
X1356650Y0926800D03*
X1346650Y0926800D03*
X1336650Y0926800D03*
X1326650Y0926800D03*
X1316650Y0926800D03*
X1306650Y0926800D03*
X1296650Y0926800D03*
X1286650Y0926800D03*
X1276650Y0926800D03*
X1266650Y0926800D03*
X1256650Y0926800D03*
X1246650Y0926800D03*
D46*
X1376650Y0926800D03*
D68*
X1246650Y0896800D03*
X1256650Y0896800D03*
X1266650Y0896800D03*
X1276650Y0896800D03*
X1286650Y0896800D03*
X1296650Y0896800D03*
X1306650Y0896800D03*
X1316650Y0896800D03*
X1326650Y0896800D03*
X1336650Y0896800D03*
X1346650Y0896800D03*
X1356650Y0896800D03*
X1366650Y0896800D03*
X1376650Y0896800D03*
D34*
X1223500Y0902300D03*
D84*
X1223500Y0912300D03*
X1223500Y0922300D03*
D43*
X1290550Y0945200D03*
X1310550Y0945200D03*
D34*
X1357350Y0937000D03*
D84*
X1367350Y0937000D03*
D34*
X1142450Y0909550D03*
D84*
X1132450Y0909550D03*
D129*
X1361850Y0818300D03*
X1348850Y0818300D03*
X1340400Y0862350D03*
X1353400Y0862350D03*
M02*
