G75*
G70*
%OFA0B0*%
%FSLAX25Y25*%
%IPPOS*%
%LPD*%
%AMOC8*
5,1,8,0,0,1.08239X$1,22.5*
%
%ADD10C,0.05500*%
%ADD100R,0.02000X0.04500*%
%ADD101C,0.13575*%
%ADD102C,0.00000*%
%ADD104C,0.00591*%
%ADD105C,0.12000*%
%ADD109C,0.15355*%
%ADD11C,0.07000*%
%ADD111R,0.21290X0.21290*%
%ADD115R,0.08000X0.06000*%
%ADD118R,0.11575X0.11575*%
%ADD119C,0.18000*%
%ADD123C,0.13810*%
%ADD128R,0.04575X0.06575*%
%ADD129R,0.07575X0.09575*%
%ADD13C,0.05940*%
%ADD130R,0.04500X0.02000*%
%ADD133R,0.06500X0.04000*%
%ADD134R,0.09090X0.08290*%
%ADD135O,0.12000X0.08000*%
%ADD138R,0.07000X0.04000*%
%ADD14R,0.12000X0.12000*%
%ADD142R,0.07085X0.03935*%
%ADD143R,0.06075X0.03575*%
%ADD144R,0.06575X0.04575*%
%ADD145R,0.06575X0.03075*%
%ADD146R,0.05515X0.04725*%
%ADD15C,0.17710*%
%ADD16C,0.13386*%
%ADD18R,0.07500X0.07500*%
%ADD19R,0.04725X0.05515*%
%ADD20R,0.07865X0.08665*%
%ADD22C,0.11449*%
%ADD29R,0.05940X0.05150*%
%ADD34R,0.07575X0.07575*%
%ADD40C,0.17575*%
%ADD42R,0.05150X0.05940*%
%ADD43C,0.07175*%
%ADD44R,0.08000X0.10000*%
%ADD45C,0.15780*%
%ADD46R,0.07075X0.07075*%
%ADD47C,0.14000*%
%ADD53C,0.08000*%
%ADD54R,0.08665X0.07865*%
%ADD58R,0.10000X0.08000*%
%ADD60R,0.08290X0.09090*%
%ADD63R,0.05500X0.05500*%
%ADD65R,0.03075X0.06575*%
%ADD68C,0.07075*%
%ADD70R,0.03935X0.07085*%
%ADD71C,0.14500*%
%ADD72R,0.09575X0.07575*%
%ADD74R,0.03575X0.06075*%
%ADD75R,0.08000X0.08000*%
%ADD76R,0.16760X0.12040*%
%ADD83C,0.07600*%
%ADD84C,0.07575*%
%ADD85R,0.06000X0.08000*%
%ADD86C,0.07500*%
%ADD93R,0.09000X0.09000*%
%ADD95R,0.04000X0.06500*%
%ADD96C,0.17500*%
%ADD97C,0.11843*%
%ADD99C,0.13811*%
X0010000Y0010000D02*
G01*
D104*
D53*
X0120000Y0272000D03*
X0120000Y0262000D03*
X0110000Y0262000D03*
X0110000Y0272000D03*
X0100000Y0272000D03*
X0100000Y0262000D03*
D135*
X0020000Y0085500D03*
X0020000Y0095500D03*
X0210000Y0121500D03*
X0210000Y0131500D03*
X0020000Y0281500D03*
X0020000Y0291500D03*
X0020000Y0301500D03*
X0020000Y0311500D03*
X0020000Y0321500D03*
X0020000Y0331500D03*
X0020000Y0341500D03*
X0020000Y0351500D03*
X0210000Y0371500D03*
X0210000Y0361500D03*
X0210000Y0351500D03*
X0210000Y0341500D03*
X0210000Y0301500D03*
X0210000Y0281500D03*
X0210000Y0271500D03*
X0210000Y0311500D03*
X0210000Y0321500D03*
X0210000Y0331500D03*
X0210000Y0261500D03*
X0210000Y0251500D03*
X0210000Y0241500D03*
X0210000Y0211500D03*
X0210000Y0221500D03*
X0210000Y0231500D03*
X0210000Y0191500D03*
X0210000Y0181500D03*
X0210000Y0171500D03*
X0210000Y0151500D03*
X0210000Y0141500D03*
X0020000Y0261500D03*
X0020000Y0251500D03*
X0020000Y0241500D03*
X0020000Y0231500D03*
X0020000Y0221500D03*
X0020000Y0211500D03*
X0020000Y0201500D03*
X0020000Y0191500D03*
X0020000Y0175500D03*
X0020000Y0165500D03*
X0020000Y0155500D03*
X0020000Y0145500D03*
X0020000Y0135500D03*
X0020000Y0125500D03*
X0020000Y0115500D03*
X0020000Y0105500D03*
X0210000Y0161500D03*
D96*
X0210000Y0391500D03*
X0020000Y0366500D03*
D53*
X0030000Y0381500D03*
X0030000Y0391500D03*
X0040000Y0381500D03*
X0040000Y0391500D03*
X0050000Y0381500D03*
X0050000Y0391500D03*
X0060000Y0381500D03*
X0060000Y0391500D03*
X0020000Y0381500D03*
X0020000Y0391500D03*
X0070000Y0391500D03*
X0070000Y0381500D03*
X0080000Y0381500D03*
X0080000Y0391500D03*
X0090000Y0381500D03*
X0090000Y0391500D03*
X0100000Y0381500D03*
X0100000Y0391500D03*
X0110000Y0381500D03*
X0110000Y0391500D03*
X0120000Y0381500D03*
X0120000Y0391500D03*
X0130000Y0381500D03*
X0130000Y0391500D03*
X0140000Y0381500D03*
X0140000Y0391500D03*
X0150000Y0381500D03*
X0150000Y0391500D03*
X0160000Y0381500D03*
X0160000Y0391500D03*
X0170000Y0381500D03*
X0170000Y0391500D03*
X0180000Y0381500D03*
X0180000Y0391500D03*
X0190000Y0381500D03*
X0190000Y0391500D03*
D99*
X0279560Y0142700D03*
D14*
X0229180Y0142700D03*
X0229180Y0159240D03*
X0229180Y0175760D03*
X0229180Y0192300D03*
X0250820Y0142700D03*
X0250820Y0159240D03*
X0250820Y0175760D03*
X0250820Y0192300D03*
D99*
X0279560Y0192300D03*
X0109200Y0023430D03*
D14*
X0109200Y0073820D03*
X0125740Y0073820D03*
X0142260Y0073820D03*
X0158800Y0073820D03*
X0109200Y0052180D03*
X0125740Y0052180D03*
X0142260Y0052180D03*
X0158800Y0052180D03*
D99*
X0158800Y0023430D03*
X0034200Y0023430D03*
D14*
X0034200Y0073820D03*
X0050740Y0073820D03*
X0067260Y0073820D03*
X0083800Y0073820D03*
X0034200Y0052180D03*
X0050740Y0052180D03*
X0067260Y0052180D03*
X0083800Y0052180D03*
D99*
X0083800Y0023430D03*
D75*
X0176000Y0283000D03*
D119*
X0236000Y0108200D03*
D58*
X0171850Y0320520D03*
X0171850Y0333520D03*
X0159850Y0320520D03*
X0159850Y0333520D03*
X0133250Y0321500D03*
X0133250Y0334500D03*
X0144750Y0321500D03*
X0144750Y0334500D03*
D47*
X0254500Y0224500D03*
X0254500Y0310500D03*
D75*
X0247500Y0287500D03*
D53*
X0257500Y0287500D03*
X0247500Y0277500D03*
X0257500Y0277500D03*
X0247500Y0267500D03*
X0257500Y0267500D03*
X0247500Y0257500D03*
X0257500Y0257500D03*
X0247500Y0247500D03*
X0257500Y0247500D03*
D44*
X0046000Y0155000D03*
X0059000Y0155000D03*
D58*
X0167500Y0163500D03*
X0167500Y0150500D03*
X0157500Y0150500D03*
X0157500Y0163500D03*
D44*
X0046000Y0165000D03*
X0059000Y0165000D03*
D58*
X0187500Y0150500D03*
X0187500Y0163500D03*
X0177500Y0150500D03*
X0177500Y0163500D03*
D44*
X0046000Y0175000D03*
X0059000Y0175000D03*
D58*
X0135000Y0150500D03*
X0135000Y0163500D03*
X0101500Y0214500D03*
X0101500Y0227500D03*
X0115000Y0150500D03*
X0115000Y0163500D03*
D44*
X0046000Y0135000D03*
X0059000Y0135000D03*
D58*
X0092500Y0150500D03*
X0092500Y0163500D03*
D44*
X0225750Y0092750D03*
X0238750Y0092750D03*
D134*
X0101500Y0236160D03*
X0101500Y0247340D03*
D58*
X0202500Y0083500D03*
X0202500Y0096500D03*
D45*
X0247000Y0040000D03*
X0287000Y0040000D03*
D53*
X0277000Y0060000D03*
X0267000Y0060000D03*
D45*
X0183000Y0040000D03*
X0223000Y0040000D03*
D53*
X0213000Y0060000D03*
X0203000Y0060000D03*
D134*
X0090500Y0236160D03*
X0090500Y0247340D03*
D93*
X0054180Y0195600D03*
X0054180Y0212130D03*
X0054180Y0228670D03*
X0054180Y0245200D03*
X0054180Y0261740D03*
X0054180Y0278260D03*
X0054180Y0294800D03*
X0054180Y0311330D03*
X0054180Y0327870D03*
X0054180Y0344400D03*
X0075820Y0195600D03*
X0075820Y0212130D03*
X0075820Y0228670D03*
X0075820Y0245200D03*
X0075820Y0261740D03*
X0075820Y0278260D03*
X0075820Y0294800D03*
X0075820Y0311330D03*
X0075820Y0327870D03*
X0075820Y0344400D03*
D123*
X0074060Y0177090D03*
X0074060Y0362910D03*
D22*
X0269000Y0097500D03*
D97*
X0259000Y0087500D03*
X0259000Y0107500D03*
X0279000Y0107500D03*
X0279000Y0087500D03*
D58*
X0090500Y0214500D03*
X0090500Y0227500D03*
D133*
X0141000Y0174500D03*
X0141000Y0179500D03*
X0141000Y0184500D03*
X0141000Y0189500D03*
X0141000Y0194500D03*
X0141000Y0199500D03*
X0141000Y0204500D03*
X0120000Y0204500D03*
X0120000Y0199500D03*
X0120000Y0194500D03*
X0120000Y0189500D03*
X0120000Y0184500D03*
X0120000Y0179500D03*
X0120000Y0174500D03*
D44*
X0072500Y0109500D03*
X0082500Y0109500D03*
X0092500Y0109500D03*
X0102500Y0109500D03*
X0102500Y0139500D03*
X0092500Y0139500D03*
X0082500Y0139500D03*
X0072500Y0139500D03*
X0115000Y0109500D03*
X0125000Y0109500D03*
X0135000Y0109500D03*
X0145000Y0109500D03*
X0145000Y0139500D03*
X0135000Y0139500D03*
X0125000Y0139500D03*
X0115000Y0139500D03*
X0157500Y0109500D03*
X0167500Y0109500D03*
X0177500Y0109500D03*
X0187500Y0109500D03*
X0187500Y0139500D03*
X0177500Y0139500D03*
X0167500Y0139500D03*
X0157500Y0139500D03*
X0046000Y0145000D03*
X0059000Y0145000D03*
D58*
X0108250Y0202300D03*
X0108250Y0189300D03*
X0097800Y0189300D03*
X0097800Y0202300D03*
X0145000Y0163500D03*
X0145000Y0150500D03*
D44*
X0046000Y0125000D03*
X0059000Y0125000D03*
D58*
X0072500Y0150500D03*
X0072500Y0163500D03*
D44*
X0216500Y0112500D03*
X0203500Y0112500D03*
D58*
X0160200Y0185150D03*
X0160200Y0172150D03*
D44*
X0112100Y0178800D03*
X0099100Y0178800D03*
D58*
X0119970Y0361620D03*
X0119970Y0348620D03*
X0119970Y0326970D03*
X0119970Y0339970D03*
D44*
X0120250Y0317500D03*
X0107250Y0317500D03*
D133*
X0108920Y0331460D03*
X0108920Y0336460D03*
X0108920Y0341460D03*
X0108920Y0346460D03*
X0108920Y0351460D03*
X0108920Y0356460D03*
X0108920Y0361460D03*
X0087920Y0361460D03*
X0087920Y0356460D03*
X0087920Y0351460D03*
X0087920Y0346460D03*
X0087920Y0341460D03*
X0087920Y0336460D03*
X0087920Y0331460D03*
X0140750Y0214250D03*
X0140750Y0219250D03*
X0140750Y0224250D03*
X0140750Y0229250D03*
X0140750Y0234250D03*
X0140750Y0239250D03*
X0140750Y0244250D03*
X0119750Y0244250D03*
X0119750Y0239250D03*
X0119750Y0234250D03*
X0119750Y0229250D03*
X0119750Y0224250D03*
X0119750Y0219250D03*
X0119750Y0214250D03*
D58*
X0037250Y0270750D03*
X0037250Y0257750D03*
D29*
X0162270Y0349300D03*
X0170930Y0353050D03*
X0170930Y0345550D03*
X0135570Y0356700D03*
X0144230Y0360450D03*
X0144230Y0352950D03*
D42*
X0093750Y0302030D03*
X0097500Y0293370D03*
X0090000Y0293370D03*
D75*
X0179000Y0212750D03*
D53*
X0169000Y0212750D03*
X0159000Y0212750D03*
D75*
X0155000Y0295000D03*
D53*
X0145000Y0295000D03*
X0135000Y0295000D03*
D75*
X0179000Y0227000D03*
D53*
X0169000Y0227000D03*
X0159000Y0227000D03*
D75*
X0155000Y0309000D03*
D53*
X0145000Y0309000D03*
X0135000Y0309000D03*
D75*
X0155000Y0281000D03*
D53*
X0145000Y0281000D03*
X0135000Y0281000D03*
D75*
X0176000Y0273000D03*
D44*
X0233050Y0399300D03*
X0246050Y0399300D03*
X0258700Y0335600D03*
X0245700Y0335600D03*
X0223900Y0335600D03*
X0236900Y0335600D03*
D75*
X0270000Y0347000D03*
D53*
X0280000Y0347000D03*
X0290000Y0347000D03*
D75*
X0270000Y0363000D03*
D53*
X0280000Y0363000D03*
X0290000Y0363000D03*
D75*
X0270000Y0393000D03*
D53*
X0280000Y0393000D03*
X0290000Y0393000D03*
D75*
X0270000Y0378000D03*
D53*
X0280000Y0378000D03*
X0290000Y0378000D03*
D138*
X0223600Y0389900D03*
X0223600Y0384900D03*
X0223600Y0379900D03*
X0223600Y0374900D03*
X0223600Y0369900D03*
X0223600Y0364900D03*
X0223600Y0359900D03*
X0223600Y0354900D03*
X0223600Y0349900D03*
X0223600Y0344900D03*
X0261600Y0344900D03*
X0261600Y0349900D03*
X0261600Y0354900D03*
X0261600Y0359900D03*
X0261600Y0364900D03*
X0261600Y0369900D03*
X0261600Y0374900D03*
X0261600Y0379900D03*
X0261600Y0384900D03*
X0261600Y0389900D03*
D119*
X0044500Y0108200D03*
D58*
X0221700Y0320200D03*
X0221700Y0307200D03*
X0149750Y0180550D03*
X0149750Y0193550D03*
X0087300Y0194400D03*
X0087300Y0181400D03*
X0111500Y0214550D03*
X0111500Y0227550D03*
X0088800Y0322900D03*
X0088800Y0309900D03*
X0010000Y0415000D02*
G01*
D104*
D130*
X0055000Y0460000D03*
X0055000Y0465000D03*
X0055000Y0470000D03*
X0055000Y0475000D03*
X0080000Y0475000D03*
X0080000Y0470000D03*
X0080000Y0465000D03*
X0080000Y0460000D03*
D115*
X0072500Y0436000D03*
X0072500Y0449000D03*
X0062500Y0436000D03*
X0062500Y0449000D03*
X0052500Y0449000D03*
X0052500Y0436000D03*
X0082500Y0436000D03*
X0082500Y0449000D03*
X0027500Y0474000D03*
X0027500Y0461000D03*
X0017500Y0449000D03*
X0017500Y0436000D03*
X0017500Y0461000D03*
X0017500Y0474000D03*
X0027500Y0449000D03*
X0027500Y0436000D03*
D63*
X0047500Y0422500D03*
D10*
X0037500Y0422500D03*
X0027500Y0422500D03*
X0017500Y0422500D03*
D63*
X0087500Y0422500D03*
D10*
X0077500Y0422500D03*
X0067500Y0422500D03*
X0304400Y0010000D02*
G01*
D104*
D119*
X0319400Y0430000D03*
X0319400Y0025000D03*
X0619400Y0025000D03*
X0619400Y0430000D03*
D11*
X0518270Y0029130D03*
X0410770Y0029130D03*
D13*
X0507020Y0031630D03*
X0512020Y0031630D03*
X0512020Y0026630D03*
X0507020Y0026630D03*
X0492020Y0026630D03*
X0487020Y0026630D03*
X0497020Y0026630D03*
X0502020Y0026630D03*
X0502020Y0031630D03*
X0497020Y0031630D03*
X0487020Y0031630D03*
X0492020Y0031630D03*
X0437020Y0026630D03*
X0432020Y0026630D03*
X0422020Y0026630D03*
X0427020Y0026630D03*
X0427020Y0031630D03*
X0422020Y0031630D03*
X0432020Y0031630D03*
X0437020Y0031630D03*
X0417020Y0031630D03*
X0417020Y0026630D03*
X0442020Y0026630D03*
X0442020Y0031630D03*
X0472020Y0031630D03*
X0467020Y0031630D03*
X0477020Y0031630D03*
X0482020Y0031630D03*
X0462020Y0031630D03*
X0457020Y0031630D03*
X0447020Y0031630D03*
X0452020Y0031630D03*
X0452020Y0026630D03*
X0447020Y0026630D03*
X0457020Y0026630D03*
X0462020Y0026630D03*
X0482020Y0026630D03*
X0477020Y0026630D03*
X0467020Y0026630D03*
X0472020Y0026630D03*
D47*
X0611520Y0467130D03*
X0525520Y0467130D03*
D75*
X0548520Y0460130D03*
D53*
X0548520Y0470130D03*
X0558520Y0460130D03*
X0558520Y0470130D03*
X0568520Y0460130D03*
X0568520Y0470130D03*
X0578520Y0460130D03*
X0578520Y0470130D03*
X0588520Y0460130D03*
X0588520Y0470130D03*
D58*
X0345020Y0354630D03*
X0345020Y0341630D03*
X0360020Y0271630D03*
X0360020Y0284630D03*
X0345020Y0144630D03*
X0345020Y0131630D03*
X0330020Y0144630D03*
X0330020Y0131630D03*
X0420020Y0271630D03*
X0420020Y0284630D03*
X0420020Y0201630D03*
X0420020Y0214630D03*
X0390020Y0144630D03*
X0390020Y0131630D03*
X0330020Y0284630D03*
X0330020Y0271630D03*
X0360020Y0131630D03*
X0360020Y0144630D03*
X0360020Y0201630D03*
X0360020Y0214630D03*
X0330020Y0354630D03*
X0330020Y0341630D03*
X0585020Y0214630D03*
X0585020Y0201630D03*
X0585020Y0284630D03*
X0585020Y0271630D03*
X0330020Y0214630D03*
X0330020Y0201630D03*
X0345020Y0284630D03*
X0345020Y0271630D03*
X0345020Y0214630D03*
X0345020Y0201630D03*
X0405020Y0214630D03*
X0405020Y0201630D03*
X0465020Y0214630D03*
X0465020Y0201630D03*
X0465020Y0284630D03*
X0465020Y0271630D03*
X0525020Y0284630D03*
X0525020Y0271630D03*
X0525020Y0214630D03*
X0525020Y0201630D03*
X0405020Y0284630D03*
X0405020Y0271630D03*
X0465020Y0354630D03*
X0465020Y0341630D03*
X0450020Y0144630D03*
X0450020Y0131630D03*
X0540020Y0201630D03*
X0540020Y0214630D03*
X0540020Y0271630D03*
X0540020Y0284630D03*
X0540020Y0341630D03*
X0540020Y0354630D03*
X0570020Y0354630D03*
X0570020Y0341630D03*
X0600020Y0131130D03*
X0600020Y0144130D03*
X0570020Y0284630D03*
X0570020Y0271630D03*
X0585020Y0144130D03*
X0585020Y0131130D03*
X0510020Y0284630D03*
X0510020Y0271630D03*
X0510020Y0214630D03*
X0510020Y0201630D03*
X0480020Y0341630D03*
X0480020Y0354630D03*
X0480020Y0201630D03*
X0480020Y0214630D03*
X0525020Y0144630D03*
X0525020Y0131630D03*
X0510020Y0144630D03*
X0510020Y0131630D03*
X0480020Y0271630D03*
X0480020Y0284630D03*
X0510020Y0354630D03*
X0510020Y0341630D03*
X0540020Y0131630D03*
X0540020Y0144630D03*
X0525020Y0354630D03*
X0525020Y0341630D03*
X0570020Y0214630D03*
X0570020Y0201630D03*
X0585020Y0354630D03*
X0585020Y0341630D03*
X0570020Y0144130D03*
X0570020Y0131130D03*
X0600020Y0201630D03*
X0600020Y0214630D03*
X0600020Y0341630D03*
X0600020Y0354630D03*
X0600020Y0271630D03*
X0600020Y0284630D03*
X0405020Y0144630D03*
X0405020Y0131630D03*
X0390020Y0354630D03*
X0390020Y0341630D03*
X0360020Y0341630D03*
X0360020Y0354630D03*
X0465020Y0144630D03*
X0465020Y0131630D03*
X0450020Y0284630D03*
X0450020Y0271630D03*
X0390020Y0214630D03*
X0390020Y0201630D03*
X0390020Y0284630D03*
X0390020Y0271630D03*
X0405020Y0354630D03*
X0405020Y0341630D03*
X0480020Y0131630D03*
X0480020Y0144630D03*
X0450020Y0214630D03*
X0450020Y0201630D03*
X0450020Y0354630D03*
X0450020Y0341630D03*
X0420020Y0341630D03*
X0420020Y0354630D03*
X0420020Y0131630D03*
X0420020Y0144630D03*
D44*
X0420020Y0328130D03*
X0410020Y0328130D03*
X0400020Y0328130D03*
X0390020Y0328130D03*
X0390020Y0298130D03*
X0400020Y0298130D03*
X0410020Y0298130D03*
X0420020Y0298130D03*
X0360020Y0188130D03*
X0350020Y0188130D03*
X0340020Y0188130D03*
X0330020Y0188130D03*
X0330020Y0158130D03*
X0340020Y0158130D03*
X0350020Y0158130D03*
X0360020Y0158130D03*
X0480020Y0118130D03*
X0470020Y0118130D03*
X0460020Y0118130D03*
X0450020Y0118130D03*
X0450020Y0088130D03*
X0460020Y0088130D03*
X0470020Y0088130D03*
X0480020Y0088130D03*
X0540020Y0328130D03*
X0530020Y0328130D03*
X0520020Y0328130D03*
X0510020Y0328130D03*
X0510020Y0298130D03*
X0520020Y0298130D03*
X0530020Y0298130D03*
X0540020Y0298130D03*
X0480020Y0328130D03*
X0470020Y0328130D03*
X0460020Y0328130D03*
X0450020Y0328130D03*
X0450020Y0298130D03*
X0460020Y0298130D03*
X0470020Y0298130D03*
X0480020Y0298130D03*
X0360020Y0258130D03*
X0350020Y0258130D03*
X0340020Y0258130D03*
X0330020Y0258130D03*
X0330020Y0228130D03*
X0340020Y0228130D03*
X0350020Y0228130D03*
X0360020Y0228130D03*
X0480020Y0188130D03*
X0470020Y0188130D03*
X0460020Y0188130D03*
X0450020Y0188130D03*
X0450020Y0158130D03*
X0460020Y0158130D03*
X0470020Y0158130D03*
X0480020Y0158130D03*
X0360020Y0328130D03*
X0350020Y0328130D03*
X0340020Y0328130D03*
X0330020Y0328130D03*
X0330020Y0298130D03*
X0340020Y0298130D03*
X0350020Y0298130D03*
X0360020Y0298130D03*
X0540020Y0188130D03*
X0530020Y0188130D03*
X0520020Y0188130D03*
X0510020Y0188130D03*
X0510020Y0158130D03*
X0520020Y0158130D03*
X0530020Y0158130D03*
X0540020Y0158130D03*
X0540020Y0118130D03*
X0530020Y0118130D03*
X0520020Y0118130D03*
X0510020Y0118130D03*
X0510020Y0088130D03*
X0520020Y0088130D03*
X0530020Y0088130D03*
X0540020Y0088130D03*
X0600020Y0118130D03*
X0590020Y0118130D03*
X0580020Y0118130D03*
X0570020Y0118130D03*
X0570020Y0088130D03*
X0580020Y0088130D03*
X0590020Y0088130D03*
X0600020Y0088130D03*
X0540020Y0258130D03*
X0530020Y0258130D03*
X0520020Y0258130D03*
X0510020Y0258130D03*
X0510020Y0228130D03*
X0520020Y0228130D03*
X0530020Y0228130D03*
X0540020Y0228130D03*
X0420020Y0188130D03*
X0410020Y0188130D03*
X0400020Y0188130D03*
X0390020Y0188130D03*
X0390020Y0158130D03*
X0400020Y0158130D03*
X0410020Y0158130D03*
X0420020Y0158130D03*
X0600020Y0328130D03*
X0590020Y0328130D03*
X0580020Y0328130D03*
X0570020Y0328130D03*
X0570020Y0298130D03*
X0580020Y0298130D03*
X0590020Y0298130D03*
X0600020Y0298130D03*
X0420020Y0258130D03*
X0410020Y0258130D03*
X0400020Y0258130D03*
X0390020Y0258130D03*
X0390020Y0228130D03*
X0400020Y0228130D03*
X0410020Y0228130D03*
X0420020Y0228130D03*
X0600020Y0258130D03*
X0590020Y0258130D03*
X0580020Y0258130D03*
X0570020Y0258130D03*
X0570020Y0228130D03*
X0580020Y0228130D03*
X0590020Y0228130D03*
X0600020Y0228130D03*
X0420020Y0118130D03*
X0410020Y0118130D03*
X0400020Y0118130D03*
X0390020Y0118130D03*
X0390020Y0088130D03*
X0400020Y0088130D03*
X0410020Y0088130D03*
X0420020Y0088130D03*
X0600020Y0188130D03*
X0590020Y0188130D03*
X0580020Y0188130D03*
X0570020Y0188130D03*
X0570020Y0158130D03*
X0580020Y0158130D03*
X0590020Y0158130D03*
X0600020Y0158130D03*
X0480020Y0258130D03*
X0470020Y0258130D03*
X0460020Y0258130D03*
X0450020Y0258130D03*
X0450020Y0228130D03*
X0460020Y0228130D03*
X0470020Y0228130D03*
X0480020Y0228130D03*
X0360020Y0118130D03*
X0350020Y0118130D03*
X0340020Y0118130D03*
X0330020Y0118130D03*
X0330020Y0088130D03*
X0340020Y0088130D03*
X0350020Y0088130D03*
X0360020Y0088130D03*
D105*
X0498520Y0445130D03*
X0418520Y0445130D03*
D15*
X0478520Y0475130D03*
D71*
X0448520Y0435130D03*
X0468520Y0435130D03*
X0428520Y0435130D03*
X0488520Y0435130D03*
D15*
X0438520Y0475130D03*
D22*
X0383520Y0470130D03*
D97*
X0373520Y0480130D03*
X0393520Y0480130D03*
X0393520Y0460130D03*
X0373520Y0460130D03*
D22*
X0333520Y0470130D03*
D97*
X0323520Y0480130D03*
X0343520Y0480130D03*
X0343520Y0460130D03*
X0323520Y0460130D03*
D44*
X0395020Y0445130D03*
X0382020Y0445130D03*
X0592150Y0378000D03*
X0605150Y0378000D03*
D75*
X0553400Y0392500D03*
D53*
X0553400Y0402500D03*
X0563400Y0392500D03*
X0563400Y0402500D03*
X0573400Y0392500D03*
X0573400Y0402500D03*
D75*
X0433400Y0458000D03*
D53*
X0443400Y0458000D03*
X0453400Y0458000D03*
X0463400Y0458000D03*
X0473400Y0458000D03*
X0483400Y0458000D03*
D83*
X0378520Y0430130D03*
X0398520Y0430130D03*
D86*
X0497520Y0412380D03*
X0487520Y0412380D03*
X0477520Y0412380D03*
X0467520Y0412380D03*
X0457520Y0412380D03*
X0447520Y0412380D03*
X0437520Y0412380D03*
X0427520Y0412380D03*
X0417520Y0412380D03*
X0407520Y0412380D03*
X0397520Y0412380D03*
X0387520Y0412380D03*
X0377520Y0412380D03*
D18*
X0507520Y0412380D03*
D86*
X0377520Y0382380D03*
X0387520Y0382380D03*
X0397520Y0382380D03*
X0407520Y0382380D03*
X0417520Y0382380D03*
X0427520Y0382380D03*
X0437520Y0382380D03*
X0447520Y0382380D03*
X0457520Y0382380D03*
X0467520Y0382380D03*
X0477520Y0382380D03*
X0487520Y0382380D03*
X0497520Y0382380D03*
X0507520Y0382380D03*
D76*
X0330020Y0401510D03*
X0330020Y0380250D03*
D75*
X0512900Y0435500D03*
D53*
X0512900Y0425500D03*
D75*
X0593900Y0394000D03*
D53*
X0603900Y0394000D03*
D95*
X0565400Y0447000D03*
X0560400Y0447000D03*
X0555400Y0447000D03*
X0550400Y0447000D03*
X0545400Y0447000D03*
X0540400Y0447000D03*
X0535400Y0447000D03*
X0535400Y0426000D03*
X0540400Y0426000D03*
X0545400Y0426000D03*
X0550400Y0426000D03*
X0555400Y0426000D03*
X0560400Y0426000D03*
X0565400Y0426000D03*
D58*
X0525400Y0424000D03*
X0525400Y0437000D03*
D75*
X0593900Y0405500D03*
D53*
X0603900Y0405500D03*
D60*
X0601990Y0437500D03*
X0590810Y0437500D03*
X0601990Y0427500D03*
X0590810Y0427500D03*
D58*
X0406700Y0458100D03*
X0406700Y0445100D03*
X0435300Y0346700D03*
X0435300Y0333700D03*
X0357400Y0417000D03*
X0357400Y0430000D03*
D44*
X0342900Y0383500D03*
X0355900Y0383500D03*
X0610900Y0366500D03*
X0623900Y0366500D03*
D58*
X0555250Y0346600D03*
X0555250Y0333600D03*
D44*
X0342900Y0397000D03*
X0355900Y0397000D03*
D58*
X0494800Y0346700D03*
X0494800Y0333700D03*
X0375450Y0346850D03*
X0375450Y0333850D03*
D86*
X0536630Y0385070D03*
X0518910Y0385070D03*
X0536630Y0408690D03*
X0518910Y0408690D03*
D60*
X0601990Y0417500D03*
X0590810Y0417500D03*
X0601990Y0447500D03*
X0590810Y0447500D03*
X0641900Y0010000D02*
G01*
D104*
D119*
X0656900Y0430000D03*
X0656900Y0025000D03*
X0956900Y0025000D03*
X0956900Y0430000D03*
D11*
X0855770Y0029130D03*
X0748270Y0029130D03*
D13*
X0844520Y0031630D03*
X0849520Y0031630D03*
X0849520Y0026630D03*
X0844520Y0026630D03*
X0829520Y0026630D03*
X0824520Y0026630D03*
X0834520Y0026630D03*
X0839520Y0026630D03*
X0839520Y0031630D03*
X0834520Y0031630D03*
X0824520Y0031630D03*
X0829520Y0031630D03*
X0774520Y0026630D03*
X0769520Y0026630D03*
X0759520Y0026630D03*
X0764520Y0026630D03*
X0764520Y0031630D03*
X0759520Y0031630D03*
X0769520Y0031630D03*
X0774520Y0031630D03*
X0754520Y0031630D03*
X0754520Y0026630D03*
X0779520Y0026630D03*
X0779520Y0031630D03*
X0809520Y0031630D03*
X0804520Y0031630D03*
X0814520Y0031630D03*
X0819520Y0031630D03*
X0799520Y0031630D03*
X0794520Y0031630D03*
X0784520Y0031630D03*
X0789520Y0031630D03*
X0789520Y0026630D03*
X0784520Y0026630D03*
X0794520Y0026630D03*
X0799520Y0026630D03*
X0819520Y0026630D03*
X0814520Y0026630D03*
X0804520Y0026630D03*
X0809520Y0026630D03*
D47*
X0949020Y0467130D03*
X0863020Y0467130D03*
D75*
X0886020Y0460130D03*
D53*
X0886020Y0470130D03*
X0896020Y0460130D03*
X0896020Y0470130D03*
X0906020Y0460130D03*
X0906020Y0470130D03*
X0916020Y0460130D03*
X0916020Y0470130D03*
X0926020Y0460130D03*
X0926020Y0470130D03*
D58*
X0682520Y0354630D03*
X0682520Y0341630D03*
X0697520Y0271630D03*
X0697520Y0284630D03*
X0682520Y0144630D03*
X0682520Y0131630D03*
X0667520Y0144630D03*
X0667520Y0131630D03*
X0757520Y0271630D03*
X0757520Y0284630D03*
X0757520Y0201630D03*
X0757520Y0214630D03*
X0727520Y0144630D03*
X0727520Y0131630D03*
X0667520Y0284630D03*
X0667520Y0271630D03*
X0697520Y0131630D03*
X0697520Y0144630D03*
X0697520Y0201630D03*
X0697520Y0214630D03*
X0667520Y0354630D03*
X0667520Y0341630D03*
X0922520Y0214630D03*
X0922520Y0201630D03*
X0922520Y0284630D03*
X0922520Y0271630D03*
X0667520Y0214630D03*
X0667520Y0201630D03*
X0682520Y0284630D03*
X0682520Y0271630D03*
X0682520Y0214630D03*
X0682520Y0201630D03*
X0742520Y0214630D03*
X0742520Y0201630D03*
X0802520Y0214630D03*
X0802520Y0201630D03*
X0802520Y0284630D03*
X0802520Y0271630D03*
X0862520Y0284630D03*
X0862520Y0271630D03*
X0862520Y0214630D03*
X0862520Y0201630D03*
X0742520Y0284630D03*
X0742520Y0271630D03*
X0802520Y0354630D03*
X0802520Y0341630D03*
X0787520Y0144630D03*
X0787520Y0131630D03*
X0877520Y0201630D03*
X0877520Y0214630D03*
X0877520Y0271630D03*
X0877520Y0284630D03*
X0877520Y0341630D03*
X0877520Y0354630D03*
X0907520Y0354630D03*
X0907520Y0341630D03*
X0937520Y0131130D03*
X0937520Y0144130D03*
X0907520Y0284630D03*
X0907520Y0271630D03*
X0922520Y0144130D03*
X0922520Y0131130D03*
X0847520Y0284630D03*
X0847520Y0271630D03*
X0847520Y0214630D03*
X0847520Y0201630D03*
X0817520Y0341630D03*
X0817520Y0354630D03*
X0817520Y0201630D03*
X0817520Y0214630D03*
X0862520Y0144630D03*
X0862520Y0131630D03*
X0847520Y0144630D03*
X0847520Y0131630D03*
X0817520Y0271630D03*
X0817520Y0284630D03*
X0847520Y0354630D03*
X0847520Y0341630D03*
X0877520Y0131630D03*
X0877520Y0144630D03*
X0862520Y0354630D03*
X0862520Y0341630D03*
X0907520Y0214630D03*
X0907520Y0201630D03*
X0922520Y0354630D03*
X0922520Y0341630D03*
X0907520Y0144130D03*
X0907520Y0131130D03*
X0937520Y0201630D03*
X0937520Y0214630D03*
X0937520Y0341630D03*
X0937520Y0354630D03*
X0937520Y0271630D03*
X0937520Y0284630D03*
X0742520Y0144630D03*
X0742520Y0131630D03*
X0727520Y0354630D03*
X0727520Y0341630D03*
X0697520Y0341630D03*
X0697520Y0354630D03*
X0802520Y0144630D03*
X0802520Y0131630D03*
X0787520Y0284630D03*
X0787520Y0271630D03*
X0727520Y0214630D03*
X0727520Y0201630D03*
X0727520Y0284630D03*
X0727520Y0271630D03*
X0742520Y0354630D03*
X0742520Y0341630D03*
X0817520Y0131630D03*
X0817520Y0144630D03*
X0787520Y0214630D03*
X0787520Y0201630D03*
X0787520Y0354630D03*
X0787520Y0341630D03*
X0757520Y0341630D03*
X0757520Y0354630D03*
X0757520Y0131630D03*
X0757520Y0144630D03*
D44*
X0757520Y0328130D03*
X0747520Y0328130D03*
X0737520Y0328130D03*
X0727520Y0328130D03*
X0727520Y0298130D03*
X0737520Y0298130D03*
X0747520Y0298130D03*
X0757520Y0298130D03*
X0697520Y0188130D03*
X0687520Y0188130D03*
X0677520Y0188130D03*
X0667520Y0188130D03*
X0667520Y0158130D03*
X0677520Y0158130D03*
X0687520Y0158130D03*
X0697520Y0158130D03*
X0817520Y0118130D03*
X0807520Y0118130D03*
X0797520Y0118130D03*
X0787520Y0118130D03*
X0787520Y0088130D03*
X0797520Y0088130D03*
X0807520Y0088130D03*
X0817520Y0088130D03*
X0877520Y0328130D03*
X0867520Y0328130D03*
X0857520Y0328130D03*
X0847520Y0328130D03*
X0847520Y0298130D03*
X0857520Y0298130D03*
X0867520Y0298130D03*
X0877520Y0298130D03*
X0817520Y0328130D03*
X0807520Y0328130D03*
X0797520Y0328130D03*
X0787520Y0328130D03*
X0787520Y0298130D03*
X0797520Y0298130D03*
X0807520Y0298130D03*
X0817520Y0298130D03*
X0697520Y0258130D03*
X0687520Y0258130D03*
X0677520Y0258130D03*
X0667520Y0258130D03*
X0667520Y0228130D03*
X0677520Y0228130D03*
X0687520Y0228130D03*
X0697520Y0228130D03*
X0817520Y0188130D03*
X0807520Y0188130D03*
X0797520Y0188130D03*
X0787520Y0188130D03*
X0787520Y0158130D03*
X0797520Y0158130D03*
X0807520Y0158130D03*
X0817520Y0158130D03*
X0697520Y0328130D03*
X0687520Y0328130D03*
X0677520Y0328130D03*
X0667520Y0328130D03*
X0667520Y0298130D03*
X0677520Y0298130D03*
X0687520Y0298130D03*
X0697520Y0298130D03*
X0877520Y0188130D03*
X0867520Y0188130D03*
X0857520Y0188130D03*
X0847520Y0188130D03*
X0847520Y0158130D03*
X0857520Y0158130D03*
X0867520Y0158130D03*
X0877520Y0158130D03*
X0877520Y0118130D03*
X0867520Y0118130D03*
X0857520Y0118130D03*
X0847520Y0118130D03*
X0847520Y0088130D03*
X0857520Y0088130D03*
X0867520Y0088130D03*
X0877520Y0088130D03*
X0937520Y0118130D03*
X0927520Y0118130D03*
X0917520Y0118130D03*
X0907520Y0118130D03*
X0907520Y0088130D03*
X0917520Y0088130D03*
X0927520Y0088130D03*
X0937520Y0088130D03*
X0877520Y0258130D03*
X0867520Y0258130D03*
X0857520Y0258130D03*
X0847520Y0258130D03*
X0847520Y0228130D03*
X0857520Y0228130D03*
X0867520Y0228130D03*
X0877520Y0228130D03*
X0757520Y0188130D03*
X0747520Y0188130D03*
X0737520Y0188130D03*
X0727520Y0188130D03*
X0727520Y0158130D03*
X0737520Y0158130D03*
X0747520Y0158130D03*
X0757520Y0158130D03*
X0937520Y0328130D03*
X0927520Y0328130D03*
X0917520Y0328130D03*
X0907520Y0328130D03*
X0907520Y0298130D03*
X0917520Y0298130D03*
X0927520Y0298130D03*
X0937520Y0298130D03*
X0757520Y0258130D03*
X0747520Y0258130D03*
X0737520Y0258130D03*
X0727520Y0258130D03*
X0727520Y0228130D03*
X0737520Y0228130D03*
X0747520Y0228130D03*
X0757520Y0228130D03*
X0937520Y0258130D03*
X0927520Y0258130D03*
X0917520Y0258130D03*
X0907520Y0258130D03*
X0907520Y0228130D03*
X0917520Y0228130D03*
X0927520Y0228130D03*
X0937520Y0228130D03*
X0757520Y0118130D03*
X0747520Y0118130D03*
X0737520Y0118130D03*
X0727520Y0118130D03*
X0727520Y0088130D03*
X0737520Y0088130D03*
X0747520Y0088130D03*
X0757520Y0088130D03*
X0937520Y0188130D03*
X0927520Y0188130D03*
X0917520Y0188130D03*
X0907520Y0188130D03*
X0907520Y0158130D03*
X0917520Y0158130D03*
X0927520Y0158130D03*
X0937520Y0158130D03*
X0817520Y0258130D03*
X0807520Y0258130D03*
X0797520Y0258130D03*
X0787520Y0258130D03*
X0787520Y0228130D03*
X0797520Y0228130D03*
X0807520Y0228130D03*
X0817520Y0228130D03*
X0697520Y0118130D03*
X0687520Y0118130D03*
X0677520Y0118130D03*
X0667520Y0118130D03*
X0667520Y0088130D03*
X0677520Y0088130D03*
X0687520Y0088130D03*
X0697520Y0088130D03*
D105*
X0836020Y0445130D03*
X0756020Y0445130D03*
D15*
X0816020Y0475130D03*
D71*
X0786020Y0435130D03*
X0806020Y0435130D03*
X0766020Y0435130D03*
X0826020Y0435130D03*
D15*
X0776020Y0475130D03*
D22*
X0721020Y0470130D03*
D97*
X0711020Y0480130D03*
X0731020Y0480130D03*
X0731020Y0460130D03*
X0711020Y0460130D03*
D22*
X0671020Y0470130D03*
D97*
X0661020Y0480130D03*
X0681020Y0480130D03*
X0681020Y0460130D03*
X0661020Y0460130D03*
D44*
X0732520Y0445130D03*
X0719520Y0445130D03*
X0929650Y0378000D03*
X0942650Y0378000D03*
D75*
X0890900Y0392500D03*
D53*
X0890900Y0402500D03*
X0900900Y0392500D03*
X0900900Y0402500D03*
X0910900Y0392500D03*
X0910900Y0402500D03*
D75*
X0770900Y0458000D03*
D53*
X0780900Y0458000D03*
X0790900Y0458000D03*
X0800900Y0458000D03*
X0810900Y0458000D03*
X0820900Y0458000D03*
D83*
X0716020Y0430130D03*
X0736020Y0430130D03*
D86*
X0835020Y0412380D03*
X0825020Y0412380D03*
X0815020Y0412380D03*
X0805020Y0412380D03*
X0795020Y0412380D03*
X0785020Y0412380D03*
X0775020Y0412380D03*
X0765020Y0412380D03*
X0755020Y0412380D03*
X0745020Y0412380D03*
X0735020Y0412380D03*
X0725020Y0412380D03*
X0715020Y0412380D03*
D18*
X0845020Y0412380D03*
D86*
X0715020Y0382380D03*
X0725020Y0382380D03*
X0735020Y0382380D03*
X0745020Y0382380D03*
X0755020Y0382380D03*
X0765020Y0382380D03*
X0775020Y0382380D03*
X0785020Y0382380D03*
X0795020Y0382380D03*
X0805020Y0382380D03*
X0815020Y0382380D03*
X0825020Y0382380D03*
X0835020Y0382380D03*
X0845020Y0382380D03*
D76*
X0667520Y0401510D03*
X0667520Y0380250D03*
D75*
X0850400Y0435500D03*
D53*
X0850400Y0425500D03*
D75*
X0931400Y0394000D03*
D53*
X0941400Y0394000D03*
D95*
X0902900Y0447000D03*
X0897900Y0447000D03*
X0892900Y0447000D03*
X0887900Y0447000D03*
X0882900Y0447000D03*
X0877900Y0447000D03*
X0872900Y0447000D03*
X0872900Y0426000D03*
X0877900Y0426000D03*
X0882900Y0426000D03*
X0887900Y0426000D03*
X0892900Y0426000D03*
X0897900Y0426000D03*
X0902900Y0426000D03*
D58*
X0862900Y0424000D03*
X0862900Y0437000D03*
D75*
X0931400Y0405500D03*
D53*
X0941400Y0405500D03*
D60*
X0939490Y0437500D03*
X0928310Y0437500D03*
X0939490Y0427500D03*
X0928310Y0427500D03*
D58*
X0744200Y0458100D03*
X0744200Y0445100D03*
X0772800Y0346700D03*
X0772800Y0333700D03*
X0694900Y0417000D03*
X0694900Y0430000D03*
D44*
X0680400Y0383500D03*
X0693400Y0383500D03*
X0948400Y0366500D03*
X0961400Y0366500D03*
D58*
X0892750Y0346600D03*
X0892750Y0333600D03*
D44*
X0680400Y0397000D03*
X0693400Y0397000D03*
D58*
X0832300Y0346700D03*
X0832300Y0333700D03*
X0712950Y0346850D03*
X0712950Y0333850D03*
D86*
X0874130Y0385070D03*
X0856410Y0385070D03*
X0874130Y0408690D03*
X0856410Y0408690D03*
D60*
X0939490Y0417500D03*
X0928310Y0417500D03*
X0939490Y0447500D03*
X0928310Y0447500D03*
X0979400Y0010000D02*
G01*
D104*
D101*
X0999150Y0029500D03*
X1085150Y0029500D03*
D34*
X1062150Y0036500D03*
D84*
X1062150Y0026500D03*
X1052150Y0036500D03*
X1052150Y0026500D03*
X1042150Y0036500D03*
X1042150Y0026500D03*
X1032150Y0036500D03*
X1032150Y0026500D03*
X1022150Y0036500D03*
X1022150Y0026500D03*
D40*
X1338400Y0088250D03*
X1147150Y0088250D03*
D16*
X1116850Y0017340D03*
D118*
X1116850Y0067720D03*
X1133390Y0067720D03*
X1149910Y0067720D03*
X1166450Y0067720D03*
X1116850Y0046080D03*
X1133390Y0046080D03*
X1149910Y0046080D03*
X1166450Y0046080D03*
D16*
X1166450Y0017340D03*
D101*
X1085150Y0171000D03*
X0999150Y0171000D03*
D34*
X1022150Y0164000D03*
D84*
X1022150Y0174000D03*
X1032150Y0164000D03*
X1032150Y0174000D03*
X1042150Y0164000D03*
X1042150Y0174000D03*
X1052150Y0164000D03*
X1052150Y0174000D03*
X1062150Y0164000D03*
X1062150Y0174000D03*
D70*
X1202650Y0078500D03*
X1202650Y0099500D03*
X1197650Y0078500D03*
X1192650Y0078500D03*
X1187650Y0078500D03*
X1197650Y0099500D03*
X1192650Y0099500D03*
X1187650Y0099500D03*
D74*
X1264650Y0025500D03*
X1269650Y0025500D03*
X1274650Y0025500D03*
X1279650Y0025500D03*
X1284650Y0025500D03*
X1289650Y0025500D03*
X1294650Y0025500D03*
X1294650Y0046500D03*
X1289650Y0046500D03*
X1284650Y0046500D03*
X1279650Y0046500D03*
X1274650Y0046500D03*
X1269650Y0046500D03*
X1264650Y0046500D03*
D72*
X1228250Y0165300D03*
X1228250Y0178300D03*
D129*
X1199650Y0110000D03*
X1212650Y0110000D03*
D109*
X1162150Y0155000D03*
X1122150Y0155000D03*
D84*
X1132150Y0135000D03*
X1142150Y0135000D03*
D68*
X1366610Y0121390D03*
X1348890Y0121390D03*
X1366610Y0145010D03*
X1348890Y0145010D03*
D129*
X1223650Y0099000D03*
X1210650Y0099000D03*
D72*
X1212300Y0076750D03*
X1212300Y0089750D03*
D34*
X1215450Y0177000D03*
D84*
X1215450Y0167000D03*
X1205450Y0177000D03*
X1205450Y0167000D03*
X1195450Y0177000D03*
X1195450Y0167000D03*
D34*
X1315350Y0179200D03*
D84*
X1325350Y0179200D03*
X1335350Y0179200D03*
X1345350Y0179200D03*
X1355350Y0179200D03*
X1365350Y0179200D03*
D68*
X1323550Y0154000D03*
X1313550Y0154000D03*
X1303550Y0154000D03*
X1293550Y0154000D03*
X1283550Y0154000D03*
X1273550Y0154000D03*
X1263550Y0154000D03*
X1253550Y0154000D03*
X1243550Y0154000D03*
X1233550Y0154000D03*
X1223550Y0154000D03*
X1213550Y0154000D03*
X1203550Y0154000D03*
D46*
X1333550Y0154000D03*
D68*
X1203550Y0124000D03*
X1213550Y0124000D03*
X1223550Y0124000D03*
X1233550Y0124000D03*
X1243550Y0124000D03*
X1253550Y0124000D03*
X1263550Y0124000D03*
X1273550Y0124000D03*
X1283550Y0124000D03*
X1293550Y0124000D03*
X1303550Y0124000D03*
X1313550Y0124000D03*
X1323550Y0124000D03*
X1333550Y0124000D03*
D65*
X1360290Y0109200D03*
X1357730Y0109200D03*
X1355170Y0109200D03*
X1352610Y0109200D03*
X1352610Y0092200D03*
X1355170Y0092200D03*
X1357730Y0092200D03*
X1360290Y0092200D03*
D72*
X1297050Y0177800D03*
X1297050Y0164800D03*
D129*
X0993650Y0062200D03*
X1006650Y0062200D03*
D20*
X0993460Y0052000D03*
X1004640Y0052000D03*
D34*
X1180400Y0129500D03*
D84*
X1180400Y0139500D03*
X1180400Y0149500D03*
D74*
X1363550Y0069500D03*
X1358550Y0069500D03*
X1353550Y0069500D03*
X1348550Y0069500D03*
X1343550Y0069500D03*
X1338550Y0069500D03*
X1333550Y0069500D03*
X1333550Y0048500D03*
X1338550Y0048500D03*
X1343550Y0048500D03*
X1348550Y0048500D03*
X1353550Y0048500D03*
X1358550Y0048500D03*
X1363550Y0048500D03*
X1224550Y0051000D03*
X1229550Y0051000D03*
X1234550Y0051000D03*
X1239550Y0051000D03*
X1244550Y0051000D03*
X1249550Y0051000D03*
X1254550Y0051000D03*
X1254550Y0072000D03*
X1249550Y0072000D03*
X1244550Y0072000D03*
X1239550Y0072000D03*
X1234550Y0072000D03*
X1229550Y0072000D03*
X1224550Y0072000D03*
D43*
X1247450Y0172400D03*
X1267450Y0172400D03*
D128*
X1322450Y0103000D03*
X1317450Y0103000D03*
X1312450Y0103000D03*
X1307450Y0103000D03*
X1302450Y0103000D03*
X1297450Y0103000D03*
X1292450Y0103000D03*
X1287450Y0103000D03*
X1282450Y0103000D03*
X1277450Y0103000D03*
X1272450Y0103000D03*
X1267450Y0103000D03*
X1322450Y0065000D03*
X1317450Y0065000D03*
X1312450Y0065000D03*
X1307450Y0065000D03*
X1302450Y0065000D03*
X1297450Y0065000D03*
X1292450Y0065000D03*
X1287450Y0065000D03*
X1282450Y0065000D03*
X1277450Y0065000D03*
X1272450Y0065000D03*
X1267450Y0065000D03*
D70*
X1308350Y0046500D03*
X1308350Y0025500D03*
X1313350Y0046500D03*
X1318350Y0046500D03*
X1323350Y0046500D03*
X1313350Y0025500D03*
X1318350Y0025500D03*
X1323350Y0025500D03*
D129*
X1357350Y0166500D03*
X1344350Y0166500D03*
D72*
X1286750Y0164800D03*
X1286750Y0177800D03*
X1245750Y0028100D03*
X1245750Y0041100D03*
X1203350Y0034800D03*
X1203350Y0047800D03*
X1235350Y0028100D03*
X1235350Y0041100D03*
X1224950Y0028100D03*
X1224950Y0041100D03*
D129*
X1244350Y0084700D03*
X1257350Y0084700D03*
X1236150Y0084700D03*
X1223150Y0084700D03*
D19*
X1244250Y0099470D03*
X1240500Y0108130D03*
X1248000Y0108130D03*
D34*
X1314250Y0164200D03*
D84*
X1324250Y0164200D03*
D74*
X1092550Y0090000D03*
X1097550Y0090000D03*
X1102550Y0090000D03*
X1107550Y0090000D03*
X1112550Y0090000D03*
X1117550Y0090000D03*
X1122550Y0090000D03*
X1122550Y0111000D03*
X1117550Y0111000D03*
X1112550Y0111000D03*
X1107550Y0111000D03*
X1102550Y0111000D03*
X1097550Y0111000D03*
X1092550Y0111000D03*
D129*
X1088300Y0123550D03*
X1101300Y0123550D03*
X1040850Y0061000D03*
X1053850Y0061000D03*
X1040750Y0050400D03*
X1053750Y0050400D03*
D34*
X1099350Y0136750D03*
D84*
X1089350Y0136750D03*
D20*
X1064360Y0060400D03*
X1075540Y0060400D03*
X1064310Y0050950D03*
X1075490Y0050950D03*
D72*
X1081450Y0097900D03*
X1081450Y0110900D03*
X1366430Y0166840D03*
X1366430Y0153840D03*
X1368030Y0094040D03*
X1368030Y0107040D03*
D129*
X1354300Y0040700D03*
X1367300Y0040700D03*
X1179900Y0103450D03*
X1166900Y0103450D03*
X1186750Y0070350D03*
X1199750Y0070350D03*
X1281500Y0017050D03*
X1268500Y0017050D03*
D72*
X1214600Y0053450D03*
X1214600Y0066450D03*
X1330250Y0020400D03*
X1330250Y0033400D03*
X0010000Y0487500D02*
G01*
D102*
D119*
X0245000Y0542500D03*
X0245000Y0822500D03*
X0030000Y0542500D03*
X0030000Y0822500D03*
D11*
X0161250Y0515000D03*
X0053750Y0515000D03*
D13*
X0150000Y0517500D03*
X0155000Y0517500D03*
X0155000Y0512500D03*
X0150000Y0512500D03*
X0135000Y0512500D03*
X0130000Y0512500D03*
X0140000Y0512500D03*
X0145000Y0512500D03*
X0145000Y0517500D03*
X0140000Y0517500D03*
X0130000Y0517500D03*
X0135000Y0517500D03*
X0080000Y0512500D03*
X0075000Y0512500D03*
X0065000Y0512500D03*
X0070000Y0512500D03*
X0070000Y0517500D03*
X0065000Y0517500D03*
X0075000Y0517500D03*
X0080000Y0517500D03*
X0060000Y0517500D03*
X0060000Y0512500D03*
X0085000Y0512500D03*
X0085000Y0517500D03*
X0115000Y0517500D03*
X0110000Y0517500D03*
X0120000Y0517500D03*
X0125000Y0517500D03*
X0105000Y0517500D03*
X0100000Y0517500D03*
X0090000Y0517500D03*
X0095000Y0517500D03*
X0095000Y0512500D03*
X0090000Y0512500D03*
X0100000Y0512500D03*
X0105000Y0512500D03*
X0125000Y0512500D03*
X0120000Y0512500D03*
X0110000Y0512500D03*
X0115000Y0512500D03*
D11*
X0053750Y0850000D03*
X0161250Y0850000D03*
D13*
X0065000Y0847500D03*
X0060000Y0847500D03*
X0060000Y0852500D03*
X0065000Y0852500D03*
X0080000Y0852500D03*
X0085000Y0852500D03*
X0075000Y0852500D03*
X0070000Y0852500D03*
X0070000Y0847500D03*
X0075000Y0847500D03*
X0085000Y0847500D03*
X0080000Y0847500D03*
X0135000Y0852500D03*
X0140000Y0852500D03*
X0150000Y0852500D03*
X0145000Y0852500D03*
X0145000Y0847500D03*
X0150000Y0847500D03*
X0140000Y0847500D03*
X0135000Y0847500D03*
X0155000Y0847500D03*
X0155000Y0852500D03*
X0130000Y0852500D03*
X0130000Y0847500D03*
X0100000Y0847500D03*
X0105000Y0847500D03*
X0095000Y0847500D03*
X0090000Y0847500D03*
X0110000Y0847500D03*
X0115000Y0847500D03*
X0125000Y0847500D03*
X0120000Y0847500D03*
X0120000Y0852500D03*
X0125000Y0852500D03*
X0115000Y0852500D03*
X0110000Y0852500D03*
X0090000Y0852500D03*
X0095000Y0852500D03*
X0105000Y0852500D03*
X0100000Y0852500D03*
D11*
X0250000Y0736250D03*
X0250000Y0628750D03*
D13*
X0247500Y0725000D03*
X0247500Y0730000D03*
X0252500Y0730000D03*
X0252500Y0725000D03*
X0252500Y0710000D03*
X0252500Y0705000D03*
X0252500Y0715000D03*
X0252500Y0720000D03*
X0247500Y0720000D03*
X0247500Y0715000D03*
X0247500Y0705000D03*
X0247500Y0710000D03*
X0252500Y0655000D03*
X0252500Y0650000D03*
X0252500Y0640000D03*
X0252500Y0645000D03*
X0247500Y0645000D03*
X0247500Y0640000D03*
X0247500Y0650000D03*
X0247500Y0655000D03*
X0247500Y0635000D03*
X0252500Y0635000D03*
X0252500Y0660000D03*
X0247500Y0660000D03*
X0247500Y0690000D03*
X0247500Y0685000D03*
X0247500Y0695000D03*
X0247500Y0700000D03*
X0247500Y0680000D03*
X0247500Y0675000D03*
X0247500Y0665000D03*
X0247500Y0670000D03*
X0252500Y0670000D03*
X0252500Y0665000D03*
X0252500Y0675000D03*
X0252500Y0680000D03*
X0252500Y0700000D03*
X0252500Y0695000D03*
X0252500Y0685000D03*
X0252500Y0690000D03*
D53*
X0060000Y0792500D03*
X0060000Y0802500D03*
X0060000Y0812500D03*
X0060000Y0822500D03*
X0070000Y0792500D03*
X0070000Y0802500D03*
X0070000Y0812500D03*
X0070000Y0822500D03*
X0080000Y0792500D03*
X0080000Y0802500D03*
X0080000Y0812500D03*
X0080000Y0822500D03*
X0090000Y0792500D03*
X0090000Y0802500D03*
X0090000Y0812500D03*
X0090000Y0822500D03*
X0100000Y0792500D03*
X0100000Y0802500D03*
X0100000Y0812500D03*
X0100000Y0822500D03*
X0110000Y0792500D03*
X0110000Y0802500D03*
X0110000Y0812500D03*
X0110000Y0822500D03*
X0120000Y0792500D03*
X0120000Y0802500D03*
X0120000Y0812500D03*
X0120000Y0822500D03*
X0130000Y0792500D03*
X0130000Y0802500D03*
X0130000Y0812500D03*
X0130000Y0822500D03*
X0140000Y0792500D03*
X0140000Y0802500D03*
X0140000Y0812500D03*
X0140000Y0822500D03*
X0150000Y0792500D03*
X0150000Y0802500D03*
X0150000Y0812500D03*
X0150000Y0822500D03*
X0160000Y0792500D03*
X0160000Y0802500D03*
X0160000Y0812500D03*
X0160000Y0822500D03*
X0170000Y0792500D03*
X0170000Y0802500D03*
X0170000Y0812500D03*
X0170000Y0822500D03*
X0180000Y0792500D03*
X0180000Y0802500D03*
X0180000Y0812500D03*
X0180000Y0822500D03*
X0190000Y0792500D03*
X0190000Y0802500D03*
X0190000Y0812500D03*
X0190000Y0822500D03*
X0200000Y0792500D03*
X0200000Y0802500D03*
X0200000Y0812500D03*
X0200000Y0822500D03*
X0200000Y0542500D03*
X0200000Y0552500D03*
X0200000Y0562500D03*
X0200000Y0572500D03*
X0190000Y0542500D03*
X0190000Y0552500D03*
X0190000Y0562500D03*
X0190000Y0572500D03*
X0180000Y0542500D03*
X0180000Y0552500D03*
X0180000Y0562500D03*
X0180000Y0572500D03*
X0170000Y0542500D03*
X0170000Y0552500D03*
X0170000Y0562500D03*
X0170000Y0572500D03*
X0160000Y0542500D03*
X0160000Y0552500D03*
X0160000Y0562500D03*
X0160000Y0572500D03*
X0150000Y0542500D03*
X0150000Y0552500D03*
X0150000Y0562500D03*
X0150000Y0572500D03*
X0140000Y0542500D03*
X0140000Y0552500D03*
X0140000Y0562500D03*
X0140000Y0572500D03*
X0130000Y0542500D03*
X0130000Y0552500D03*
X0130000Y0562500D03*
X0130000Y0572500D03*
X0120000Y0542500D03*
X0120000Y0552500D03*
X0120000Y0562500D03*
X0120000Y0572500D03*
X0110000Y0542500D03*
X0110000Y0552500D03*
X0110000Y0562500D03*
X0110000Y0572500D03*
X0100000Y0542500D03*
X0100000Y0552500D03*
X0100000Y0562500D03*
X0100000Y0572500D03*
X0090000Y0542500D03*
X0090000Y0552500D03*
X0090000Y0562500D03*
X0090000Y0572500D03*
X0080000Y0542500D03*
X0080000Y0552500D03*
X0080000Y0562500D03*
X0080000Y0572500D03*
X0070000Y0542500D03*
X0070000Y0552500D03*
X0070000Y0562500D03*
X0070000Y0572500D03*
X0060000Y0542500D03*
X0060000Y0552500D03*
X0060000Y0562500D03*
X0060000Y0572500D03*
X0979400Y0194000D02*
G01*
D104*
D53*
X1089400Y0456000D03*
X1089400Y0446000D03*
X1079400Y0446000D03*
X1079400Y0456000D03*
X1069400Y0456000D03*
X1069400Y0446000D03*
D135*
X0989400Y0269500D03*
X0989400Y0279500D03*
X1179400Y0305500D03*
X1179400Y0315500D03*
X0989400Y0465500D03*
X0989400Y0475500D03*
X0989400Y0485500D03*
X0989400Y0495500D03*
X0989400Y0505500D03*
X0989400Y0515500D03*
X0989400Y0525500D03*
X0989400Y0535500D03*
X1179400Y0555500D03*
X1179400Y0545500D03*
X1179400Y0535500D03*
X1179400Y0525500D03*
X1179400Y0485500D03*
X1179400Y0465500D03*
X1179400Y0455500D03*
X1179400Y0495500D03*
X1179400Y0505500D03*
X1179400Y0515500D03*
X1179400Y0445500D03*
X1179400Y0435500D03*
X1179400Y0425500D03*
X1179400Y0395500D03*
X1179400Y0405500D03*
X1179400Y0415500D03*
X1179400Y0375500D03*
X1179400Y0365500D03*
X1179400Y0355500D03*
X1179400Y0335500D03*
X1179400Y0325500D03*
X0989400Y0445500D03*
X0989400Y0435500D03*
X0989400Y0425500D03*
X0989400Y0415500D03*
X0989400Y0405500D03*
X0989400Y0395500D03*
X0989400Y0385500D03*
X0989400Y0375500D03*
X0989400Y0359500D03*
X0989400Y0349500D03*
X0989400Y0339500D03*
X0989400Y0329500D03*
X0989400Y0319500D03*
X0989400Y0309500D03*
X0989400Y0299500D03*
X0989400Y0289500D03*
X1179400Y0345500D03*
D96*
X1179400Y0575500D03*
X0989400Y0550500D03*
D53*
X0999400Y0565500D03*
X0999400Y0575500D03*
X1009400Y0565500D03*
X1009400Y0575500D03*
X1019400Y0565500D03*
X1019400Y0575500D03*
X1029400Y0565500D03*
X1029400Y0575500D03*
X0989400Y0565500D03*
X0989400Y0575500D03*
X1039400Y0575500D03*
X1039400Y0565500D03*
X1049400Y0565500D03*
X1049400Y0575500D03*
X1059400Y0565500D03*
X1059400Y0575500D03*
X1069400Y0565500D03*
X1069400Y0575500D03*
X1079400Y0565500D03*
X1079400Y0575500D03*
X1089400Y0565500D03*
X1089400Y0575500D03*
X1099400Y0565500D03*
X1099400Y0575500D03*
X1109400Y0565500D03*
X1109400Y0575500D03*
X1119400Y0565500D03*
X1119400Y0575500D03*
X1129400Y0565500D03*
X1129400Y0575500D03*
X1139400Y0565500D03*
X1139400Y0575500D03*
X1149400Y0565500D03*
X1149400Y0575500D03*
X1159400Y0565500D03*
X1159400Y0575500D03*
D99*
X1248960Y0326700D03*
D14*
X1198580Y0326700D03*
X1198580Y0343240D03*
X1198580Y0359760D03*
X1198580Y0376300D03*
X1220220Y0326700D03*
X1220220Y0343240D03*
X1220220Y0359760D03*
X1220220Y0376300D03*
D99*
X1248960Y0376300D03*
X1078600Y0207430D03*
D14*
X1078600Y0257820D03*
X1095140Y0257820D03*
X1111660Y0257820D03*
X1128200Y0257820D03*
X1078600Y0236180D03*
X1095140Y0236180D03*
X1111660Y0236180D03*
X1128200Y0236180D03*
D99*
X1128200Y0207430D03*
X1003600Y0207430D03*
D14*
X1003600Y0257820D03*
X1020140Y0257820D03*
X1036660Y0257820D03*
X1053200Y0257820D03*
X1003600Y0236180D03*
X1020140Y0236180D03*
X1036660Y0236180D03*
X1053200Y0236180D03*
D99*
X1053200Y0207430D03*
D75*
X1145400Y0467000D03*
D119*
X1205400Y0292200D03*
D58*
X1141250Y0504520D03*
X1141250Y0517520D03*
X1129250Y0504520D03*
X1129250Y0517520D03*
X1102650Y0505500D03*
X1102650Y0518500D03*
X1114150Y0505500D03*
X1114150Y0518500D03*
D47*
X1223900Y0408500D03*
X1223900Y0494500D03*
D75*
X1216900Y0471500D03*
D53*
X1226900Y0471500D03*
X1216900Y0461500D03*
X1226900Y0461500D03*
X1216900Y0451500D03*
X1226900Y0451500D03*
X1216900Y0441500D03*
X1226900Y0441500D03*
X1216900Y0431500D03*
X1226900Y0431500D03*
D44*
X1015400Y0339000D03*
X1028400Y0339000D03*
D58*
X1136900Y0347500D03*
X1136900Y0334500D03*
X1126900Y0334500D03*
X1126900Y0347500D03*
D44*
X1015400Y0349000D03*
X1028400Y0349000D03*
D58*
X1156900Y0334500D03*
X1156900Y0347500D03*
X1146900Y0334500D03*
X1146900Y0347500D03*
D44*
X1015400Y0359000D03*
X1028400Y0359000D03*
D58*
X1104400Y0334500D03*
X1104400Y0347500D03*
X1070900Y0398500D03*
X1070900Y0411500D03*
X1084400Y0334500D03*
X1084400Y0347500D03*
D44*
X1015400Y0319000D03*
X1028400Y0319000D03*
D58*
X1061900Y0334500D03*
X1061900Y0347500D03*
D44*
X1195150Y0276750D03*
X1208150Y0276750D03*
D134*
X1070900Y0420160D03*
X1070900Y0431340D03*
D58*
X1171900Y0267500D03*
X1171900Y0280500D03*
D45*
X1216400Y0224000D03*
X1256400Y0224000D03*
D53*
X1246400Y0244000D03*
X1236400Y0244000D03*
D45*
X1152400Y0224000D03*
X1192400Y0224000D03*
D53*
X1182400Y0244000D03*
X1172400Y0244000D03*
D134*
X1059900Y0420160D03*
X1059900Y0431340D03*
D93*
X1023580Y0379600D03*
X1023580Y0396130D03*
X1023580Y0412670D03*
X1023580Y0429200D03*
X1023580Y0445740D03*
X1023580Y0462260D03*
X1023580Y0478800D03*
X1023580Y0495330D03*
X1023580Y0511870D03*
X1023580Y0528400D03*
X1045220Y0379600D03*
X1045220Y0396130D03*
X1045220Y0412670D03*
X1045220Y0429200D03*
X1045220Y0445740D03*
X1045220Y0462260D03*
X1045220Y0478800D03*
X1045220Y0495330D03*
X1045220Y0511870D03*
X1045220Y0528400D03*
D123*
X1043460Y0361090D03*
X1043460Y0546910D03*
D22*
X1238400Y0281500D03*
D97*
X1228400Y0271500D03*
X1228400Y0291500D03*
X1248400Y0291500D03*
X1248400Y0271500D03*
D58*
X1059900Y0398500D03*
X1059900Y0411500D03*
D133*
X1110400Y0358500D03*
X1110400Y0363500D03*
X1110400Y0368500D03*
X1110400Y0373500D03*
X1110400Y0378500D03*
X1110400Y0383500D03*
X1110400Y0388500D03*
X1089400Y0388500D03*
X1089400Y0383500D03*
X1089400Y0378500D03*
X1089400Y0373500D03*
X1089400Y0368500D03*
X1089400Y0363500D03*
X1089400Y0358500D03*
D44*
X1041900Y0293500D03*
X1051900Y0293500D03*
X1061900Y0293500D03*
X1071900Y0293500D03*
X1071900Y0323500D03*
X1061900Y0323500D03*
X1051900Y0323500D03*
X1041900Y0323500D03*
X1084400Y0293500D03*
X1094400Y0293500D03*
X1104400Y0293500D03*
X1114400Y0293500D03*
X1114400Y0323500D03*
X1104400Y0323500D03*
X1094400Y0323500D03*
X1084400Y0323500D03*
X1126900Y0293500D03*
X1136900Y0293500D03*
X1146900Y0293500D03*
X1156900Y0293500D03*
X1156900Y0323500D03*
X1146900Y0323500D03*
X1136900Y0323500D03*
X1126900Y0323500D03*
X1015400Y0329000D03*
X1028400Y0329000D03*
D58*
X1077650Y0386300D03*
X1077650Y0373300D03*
X1067200Y0373300D03*
X1067200Y0386300D03*
X1114400Y0347500D03*
X1114400Y0334500D03*
D44*
X1015400Y0309000D03*
X1028400Y0309000D03*
D58*
X1041900Y0334500D03*
X1041900Y0347500D03*
D44*
X1185900Y0296500D03*
X1172900Y0296500D03*
D58*
X1129600Y0369150D03*
X1129600Y0356150D03*
D44*
X1081500Y0362800D03*
X1068500Y0362800D03*
D58*
X1089370Y0545620D03*
X1089370Y0532620D03*
X1089370Y0510970D03*
X1089370Y0523970D03*
D44*
X1089650Y0501500D03*
X1076650Y0501500D03*
D133*
X1078320Y0515460D03*
X1078320Y0520460D03*
X1078320Y0525460D03*
X1078320Y0530460D03*
X1078320Y0535460D03*
X1078320Y0540460D03*
X1078320Y0545460D03*
X1057320Y0545460D03*
X1057320Y0540460D03*
X1057320Y0535460D03*
X1057320Y0530460D03*
X1057320Y0525460D03*
X1057320Y0520460D03*
X1057320Y0515460D03*
X1110150Y0398250D03*
X1110150Y0403250D03*
X1110150Y0408250D03*
X1110150Y0413250D03*
X1110150Y0418250D03*
X1110150Y0423250D03*
X1110150Y0428250D03*
X1089150Y0428250D03*
X1089150Y0423250D03*
X1089150Y0418250D03*
X1089150Y0413250D03*
X1089150Y0408250D03*
X1089150Y0403250D03*
X1089150Y0398250D03*
D58*
X1006650Y0454750D03*
X1006650Y0441750D03*
D29*
X1131670Y0533300D03*
X1140330Y0537050D03*
X1140330Y0529550D03*
X1104970Y0540700D03*
X1113630Y0544450D03*
X1113630Y0536950D03*
D42*
X1063150Y0486030D03*
X1066900Y0477370D03*
X1059400Y0477370D03*
D75*
X1148400Y0396750D03*
D53*
X1138400Y0396750D03*
X1128400Y0396750D03*
D75*
X1124400Y0479000D03*
D53*
X1114400Y0479000D03*
X1104400Y0479000D03*
D75*
X1148400Y0411000D03*
D53*
X1138400Y0411000D03*
X1128400Y0411000D03*
D75*
X1124400Y0493000D03*
D53*
X1114400Y0493000D03*
X1104400Y0493000D03*
D75*
X1124400Y0465000D03*
D53*
X1114400Y0465000D03*
X1104400Y0465000D03*
D75*
X1145400Y0457000D03*
D44*
X1202450Y0583300D03*
X1215450Y0583300D03*
X1228100Y0519600D03*
X1215100Y0519600D03*
X1193300Y0519600D03*
X1206300Y0519600D03*
D75*
X1239400Y0531000D03*
D53*
X1249400Y0531000D03*
X1259400Y0531000D03*
D75*
X1239400Y0547000D03*
D53*
X1249400Y0547000D03*
X1259400Y0547000D03*
D75*
X1239400Y0577000D03*
D53*
X1249400Y0577000D03*
X1259400Y0577000D03*
D75*
X1239400Y0562000D03*
D53*
X1249400Y0562000D03*
X1259400Y0562000D03*
D138*
X1193000Y0573900D03*
X1193000Y0568900D03*
X1193000Y0563900D03*
X1193000Y0558900D03*
X1193000Y0553900D03*
X1193000Y0548900D03*
X1193000Y0543900D03*
X1193000Y0538900D03*
X1193000Y0533900D03*
X1193000Y0528900D03*
X1231000Y0528900D03*
X1231000Y0533900D03*
X1231000Y0538900D03*
X1231000Y0543900D03*
X1231000Y0548900D03*
X1231000Y0553900D03*
X1231000Y0558900D03*
X1231000Y0563900D03*
X1231000Y0568900D03*
X1231000Y0573900D03*
D119*
X1013900Y0292200D03*
D58*
X1191100Y0504200D03*
X1191100Y0491200D03*
X1119150Y0364550D03*
X1119150Y0377550D03*
X1056700Y0378400D03*
X1056700Y0365400D03*
X1080900Y0398550D03*
X1080900Y0411550D03*
X1058200Y0506900D03*
X1058200Y0493900D03*
X1273800Y0194000D02*
G01*
D104*
D100*
X1318800Y0234000D03*
X1323800Y0234000D03*
X1328800Y0234000D03*
X1333800Y0234000D03*
X1333800Y0209000D03*
X1328800Y0209000D03*
X1323800Y0209000D03*
X1318800Y0209000D03*
D85*
X1294800Y0216500D03*
X1307800Y0216500D03*
X1294800Y0226500D03*
X1307800Y0226500D03*
X1307800Y0236500D03*
X1294800Y0236500D03*
X1294800Y0206500D03*
X1307800Y0206500D03*
X1332800Y0261500D03*
X1319800Y0261500D03*
X1307800Y0271500D03*
X1294800Y0271500D03*
X1319800Y0271500D03*
X1332800Y0271500D03*
X1307800Y0261500D03*
X1294800Y0261500D03*
D63*
X1281300Y0241500D03*
D10*
X1281300Y0251500D03*
X1281300Y0261500D03*
X1281300Y0271500D03*
D63*
X1281300Y0201500D03*
D10*
X1281300Y0211500D03*
X1281300Y0221500D03*
X1346300Y0194000D02*
G01*
D104*
D11*
X1396800Y0237250D03*
X1396800Y0344750D03*
D13*
X1399300Y0248500D03*
X1399300Y0243500D03*
X1394300Y0243500D03*
X1394300Y0248500D03*
X1394300Y0263500D03*
X1394300Y0268500D03*
X1394300Y0258500D03*
X1394300Y0253500D03*
X1399300Y0253500D03*
X1399300Y0258500D03*
X1399300Y0268500D03*
X1399300Y0263500D03*
X1394300Y0318500D03*
X1394300Y0323500D03*
X1394300Y0333500D03*
X1394300Y0328500D03*
X1399300Y0328500D03*
X1399300Y0333500D03*
X1399300Y0323500D03*
X1399300Y0318500D03*
X1399300Y0338500D03*
X1394300Y0338500D03*
X1394300Y0313500D03*
X1399300Y0313500D03*
X1399300Y0283500D03*
X1399300Y0288500D03*
X1399300Y0278500D03*
X1399300Y0273500D03*
X1399300Y0293500D03*
X1399300Y0298500D03*
X1399300Y0308500D03*
X1399300Y0303500D03*
X1394300Y0303500D03*
X1394300Y0308500D03*
X1394300Y0298500D03*
X1394300Y0293500D03*
X1394300Y0273500D03*
X1394300Y0278500D03*
X1394300Y0288500D03*
X1394300Y0283500D03*
D111*
X1394300Y0375500D03*
D44*
X1365300Y0267500D03*
X1352300Y0267500D03*
X1365300Y0334000D03*
X1352300Y0334000D03*
X1420800Y0333500D03*
X1433800Y0333500D03*
X1365300Y0324500D03*
X1352300Y0324500D03*
X1420800Y0324000D03*
X1433800Y0324000D03*
X1365300Y0315000D03*
X1352300Y0315000D03*
X1420800Y0314500D03*
X1433800Y0314500D03*
X1365300Y0305500D03*
X1352300Y0305500D03*
X1420800Y0305000D03*
X1433800Y0305000D03*
X1365300Y0296000D03*
X1352300Y0296000D03*
X1420800Y0295500D03*
X1433800Y0295500D03*
X1365300Y0286500D03*
X1352300Y0286500D03*
X1420800Y0286000D03*
X1433800Y0286000D03*
X1365300Y0277000D03*
X1352300Y0277000D03*
X1420800Y0276500D03*
X1433800Y0276500D03*
X1420800Y0343000D03*
X1433800Y0343000D03*
X1420800Y0267000D03*
X1433800Y0267000D03*
X1365300Y0258000D03*
X1352300Y0258000D03*
X1420800Y0257500D03*
X1433800Y0257500D03*
X1365300Y0248500D03*
X1352300Y0248500D03*
X1420800Y0248000D03*
X1433800Y0248000D03*
X1365300Y0239000D03*
X1352300Y0239000D03*
X1420800Y0238500D03*
X1433800Y0238500D03*
X1365300Y0229500D03*
X1352300Y0229500D03*
X1420800Y0229000D03*
X1433800Y0229000D03*
X1365300Y0220000D03*
X1352300Y0220000D03*
X1420800Y0219500D03*
X1433800Y0219500D03*
X1365300Y0210500D03*
X1352300Y0210500D03*
X1420800Y0210000D03*
X1433800Y0210000D03*
X1365300Y0201000D03*
X1352300Y0201000D03*
X1420800Y0200500D03*
X1433800Y0200500D03*
X1365300Y0381500D03*
X1352300Y0381500D03*
X1420800Y0381000D03*
X1433800Y0381000D03*
X1365300Y0372000D03*
X1352300Y0372000D03*
X1420800Y0371500D03*
X1433800Y0371500D03*
X1365300Y0362500D03*
X1352300Y0362500D03*
X1420800Y0362000D03*
X1433800Y0362000D03*
X1365300Y0353000D03*
X1352300Y0353000D03*
X1420800Y0352500D03*
X1433800Y0352500D03*
X1365300Y0343500D03*
X1352300Y0343500D03*
X0641900Y0497500D02*
G01*
D104*
D119*
X0656900Y0917500D03*
X0656900Y0512500D03*
X0956900Y0512500D03*
X0956900Y0917500D03*
D11*
X0855770Y0516630D03*
X0748270Y0516630D03*
D13*
X0844520Y0519130D03*
X0849520Y0519130D03*
X0849520Y0514130D03*
X0844520Y0514130D03*
X0829520Y0514130D03*
X0824520Y0514130D03*
X0834520Y0514130D03*
X0839520Y0514130D03*
X0839520Y0519130D03*
X0834520Y0519130D03*
X0824520Y0519130D03*
X0829520Y0519130D03*
X0774520Y0514130D03*
X0769520Y0514130D03*
X0759520Y0514130D03*
X0764520Y0514130D03*
X0764520Y0519130D03*
X0759520Y0519130D03*
X0769520Y0519130D03*
X0774520Y0519130D03*
X0754520Y0519130D03*
X0754520Y0514130D03*
X0779520Y0514130D03*
X0779520Y0519130D03*
X0809520Y0519130D03*
X0804520Y0519130D03*
X0814520Y0519130D03*
X0819520Y0519130D03*
X0799520Y0519130D03*
X0794520Y0519130D03*
X0784520Y0519130D03*
X0789520Y0519130D03*
X0789520Y0514130D03*
X0784520Y0514130D03*
X0794520Y0514130D03*
X0799520Y0514130D03*
X0819520Y0514130D03*
X0814520Y0514130D03*
X0804520Y0514130D03*
X0809520Y0514130D03*
D47*
X0949020Y0954630D03*
X0863020Y0954630D03*
D75*
X0886020Y0947630D03*
D53*
X0886020Y0957630D03*
X0896020Y0947630D03*
X0896020Y0957630D03*
X0906020Y0947630D03*
X0906020Y0957630D03*
X0916020Y0947630D03*
X0916020Y0957630D03*
X0926020Y0947630D03*
X0926020Y0957630D03*
D58*
X0682520Y0842130D03*
X0682520Y0829130D03*
X0697520Y0759130D03*
X0697520Y0772130D03*
X0682520Y0632130D03*
X0682520Y0619130D03*
X0667520Y0632130D03*
X0667520Y0619130D03*
X0757520Y0759130D03*
X0757520Y0772130D03*
X0757520Y0689130D03*
X0757520Y0702130D03*
X0727520Y0632130D03*
X0727520Y0619130D03*
X0667520Y0772130D03*
X0667520Y0759130D03*
X0697520Y0619130D03*
X0697520Y0632130D03*
X0697520Y0689130D03*
X0697520Y0702130D03*
X0667520Y0842130D03*
X0667520Y0829130D03*
X0922520Y0702130D03*
X0922520Y0689130D03*
X0922520Y0772130D03*
X0922520Y0759130D03*
X0667520Y0702130D03*
X0667520Y0689130D03*
X0682520Y0772130D03*
X0682520Y0759130D03*
X0682520Y0702130D03*
X0682520Y0689130D03*
X0742520Y0702130D03*
X0742520Y0689130D03*
X0802520Y0702130D03*
X0802520Y0689130D03*
X0802520Y0772130D03*
X0802520Y0759130D03*
X0862520Y0772130D03*
X0862520Y0759130D03*
X0862520Y0702130D03*
X0862520Y0689130D03*
X0742520Y0772130D03*
X0742520Y0759130D03*
X0802520Y0842130D03*
X0802520Y0829130D03*
X0787520Y0632130D03*
X0787520Y0619130D03*
X0877520Y0689130D03*
X0877520Y0702130D03*
X0877520Y0759130D03*
X0877520Y0772130D03*
X0877520Y0829130D03*
X0877520Y0842130D03*
X0907520Y0842130D03*
X0907520Y0829130D03*
X0937520Y0618630D03*
X0937520Y0631630D03*
X0907520Y0772130D03*
X0907520Y0759130D03*
X0922520Y0631630D03*
X0922520Y0618630D03*
X0847520Y0772130D03*
X0847520Y0759130D03*
X0847520Y0702130D03*
X0847520Y0689130D03*
X0817520Y0829130D03*
X0817520Y0842130D03*
X0817520Y0689130D03*
X0817520Y0702130D03*
X0862520Y0632130D03*
X0862520Y0619130D03*
X0847520Y0632130D03*
X0847520Y0619130D03*
X0817520Y0759130D03*
X0817520Y0772130D03*
X0847520Y0842130D03*
X0847520Y0829130D03*
X0877520Y0619130D03*
X0877520Y0632130D03*
X0862520Y0842130D03*
X0862520Y0829130D03*
X0907520Y0702130D03*
X0907520Y0689130D03*
X0922520Y0842130D03*
X0922520Y0829130D03*
X0907520Y0631630D03*
X0907520Y0618630D03*
X0937520Y0689130D03*
X0937520Y0702130D03*
X0937520Y0829130D03*
X0937520Y0842130D03*
X0937520Y0759130D03*
X0937520Y0772130D03*
X0742520Y0632130D03*
X0742520Y0619130D03*
X0727520Y0842130D03*
X0727520Y0829130D03*
X0697520Y0829130D03*
X0697520Y0842130D03*
X0802520Y0632130D03*
X0802520Y0619130D03*
X0787520Y0772130D03*
X0787520Y0759130D03*
X0727520Y0702130D03*
X0727520Y0689130D03*
X0727520Y0772130D03*
X0727520Y0759130D03*
X0742520Y0842130D03*
X0742520Y0829130D03*
X0817520Y0619130D03*
X0817520Y0632130D03*
X0787520Y0702130D03*
X0787520Y0689130D03*
X0787520Y0842130D03*
X0787520Y0829130D03*
X0757520Y0829130D03*
X0757520Y0842130D03*
X0757520Y0619130D03*
X0757520Y0632130D03*
D44*
X0757520Y0815630D03*
X0747520Y0815630D03*
X0737520Y0815630D03*
X0727520Y0815630D03*
X0727520Y0785630D03*
X0737520Y0785630D03*
X0747520Y0785630D03*
X0757520Y0785630D03*
X0697520Y0675630D03*
X0687520Y0675630D03*
X0677520Y0675630D03*
X0667520Y0675630D03*
X0667520Y0645630D03*
X0677520Y0645630D03*
X0687520Y0645630D03*
X0697520Y0645630D03*
X0817520Y0605630D03*
X0807520Y0605630D03*
X0797520Y0605630D03*
X0787520Y0605630D03*
X0787520Y0575630D03*
X0797520Y0575630D03*
X0807520Y0575630D03*
X0817520Y0575630D03*
X0877520Y0815630D03*
X0867520Y0815630D03*
X0857520Y0815630D03*
X0847520Y0815630D03*
X0847520Y0785630D03*
X0857520Y0785630D03*
X0867520Y0785630D03*
X0877520Y0785630D03*
X0817520Y0815630D03*
X0807520Y0815630D03*
X0797520Y0815630D03*
X0787520Y0815630D03*
X0787520Y0785630D03*
X0797520Y0785630D03*
X0807520Y0785630D03*
X0817520Y0785630D03*
X0697520Y0745630D03*
X0687520Y0745630D03*
X0677520Y0745630D03*
X0667520Y0745630D03*
X0667520Y0715630D03*
X0677520Y0715630D03*
X0687520Y0715630D03*
X0697520Y0715630D03*
X0817520Y0675630D03*
X0807520Y0675630D03*
X0797520Y0675630D03*
X0787520Y0675630D03*
X0787520Y0645630D03*
X0797520Y0645630D03*
X0807520Y0645630D03*
X0817520Y0645630D03*
X0697520Y0815630D03*
X0687520Y0815630D03*
X0677520Y0815630D03*
X0667520Y0815630D03*
X0667520Y0785630D03*
X0677520Y0785630D03*
X0687520Y0785630D03*
X0697520Y0785630D03*
X0877520Y0675630D03*
X0867520Y0675630D03*
X0857520Y0675630D03*
X0847520Y0675630D03*
X0847520Y0645630D03*
X0857520Y0645630D03*
X0867520Y0645630D03*
X0877520Y0645630D03*
X0877520Y0605630D03*
X0867520Y0605630D03*
X0857520Y0605630D03*
X0847520Y0605630D03*
X0847520Y0575630D03*
X0857520Y0575630D03*
X0867520Y0575630D03*
X0877520Y0575630D03*
X0937520Y0605630D03*
X0927520Y0605630D03*
X0917520Y0605630D03*
X0907520Y0605630D03*
X0907520Y0575630D03*
X0917520Y0575630D03*
X0927520Y0575630D03*
X0937520Y0575630D03*
X0877520Y0745630D03*
X0867520Y0745630D03*
X0857520Y0745630D03*
X0847520Y0745630D03*
X0847520Y0715630D03*
X0857520Y0715630D03*
X0867520Y0715630D03*
X0877520Y0715630D03*
X0757520Y0675630D03*
X0747520Y0675630D03*
X0737520Y0675630D03*
X0727520Y0675630D03*
X0727520Y0645630D03*
X0737520Y0645630D03*
X0747520Y0645630D03*
X0757520Y0645630D03*
X0937520Y0815630D03*
X0927520Y0815630D03*
X0917520Y0815630D03*
X0907520Y0815630D03*
X0907520Y0785630D03*
X0917520Y0785630D03*
X0927520Y0785630D03*
X0937520Y0785630D03*
X0757520Y0745630D03*
X0747520Y0745630D03*
X0737520Y0745630D03*
X0727520Y0745630D03*
X0727520Y0715630D03*
X0737520Y0715630D03*
X0747520Y0715630D03*
X0757520Y0715630D03*
X0937520Y0745630D03*
X0927520Y0745630D03*
X0917520Y0745630D03*
X0907520Y0745630D03*
X0907520Y0715630D03*
X0917520Y0715630D03*
X0927520Y0715630D03*
X0937520Y0715630D03*
X0757520Y0605630D03*
X0747520Y0605630D03*
X0737520Y0605630D03*
X0727520Y0605630D03*
X0727520Y0575630D03*
X0737520Y0575630D03*
X0747520Y0575630D03*
X0757520Y0575630D03*
X0937520Y0675630D03*
X0927520Y0675630D03*
X0917520Y0675630D03*
X0907520Y0675630D03*
X0907520Y0645630D03*
X0917520Y0645630D03*
X0927520Y0645630D03*
X0937520Y0645630D03*
X0817520Y0745630D03*
X0807520Y0745630D03*
X0797520Y0745630D03*
X0787520Y0745630D03*
X0787520Y0715630D03*
X0797520Y0715630D03*
X0807520Y0715630D03*
X0817520Y0715630D03*
X0697520Y0605630D03*
X0687520Y0605630D03*
X0677520Y0605630D03*
X0667520Y0605630D03*
X0667520Y0575630D03*
X0677520Y0575630D03*
X0687520Y0575630D03*
X0697520Y0575630D03*
D105*
X0836020Y0932630D03*
X0756020Y0932630D03*
D15*
X0816020Y0962630D03*
D71*
X0786020Y0922630D03*
X0806020Y0922630D03*
X0766020Y0922630D03*
X0826020Y0922630D03*
D15*
X0776020Y0962630D03*
D22*
X0721020Y0957630D03*
D97*
X0711020Y0967630D03*
X0731020Y0967630D03*
X0731020Y0947630D03*
X0711020Y0947630D03*
D22*
X0671020Y0957630D03*
D97*
X0661020Y0967630D03*
X0681020Y0967630D03*
X0681020Y0947630D03*
X0661020Y0947630D03*
D44*
X0732520Y0932630D03*
X0719520Y0932630D03*
X0929650Y0865500D03*
X0942650Y0865500D03*
D75*
X0890900Y0880000D03*
D53*
X0890900Y0890000D03*
X0900900Y0880000D03*
X0900900Y0890000D03*
X0910900Y0880000D03*
X0910900Y0890000D03*
D75*
X0770900Y0945500D03*
D53*
X0780900Y0945500D03*
X0790900Y0945500D03*
X0800900Y0945500D03*
X0810900Y0945500D03*
X0820900Y0945500D03*
D83*
X0716020Y0917630D03*
X0736020Y0917630D03*
D86*
X0835020Y0899880D03*
X0825020Y0899880D03*
X0815020Y0899880D03*
X0805020Y0899880D03*
X0795020Y0899880D03*
X0785020Y0899880D03*
X0775020Y0899880D03*
X0765020Y0899880D03*
X0755020Y0899880D03*
X0745020Y0899880D03*
X0735020Y0899880D03*
X0725020Y0899880D03*
X0715020Y0899880D03*
D18*
X0845020Y0899880D03*
D86*
X0715020Y0869880D03*
X0725020Y0869880D03*
X0735020Y0869880D03*
X0745020Y0869880D03*
X0755020Y0869880D03*
X0765020Y0869880D03*
X0775020Y0869880D03*
X0785020Y0869880D03*
X0795020Y0869880D03*
X0805020Y0869880D03*
X0815020Y0869880D03*
X0825020Y0869880D03*
X0835020Y0869880D03*
X0845020Y0869880D03*
D76*
X0667520Y0889010D03*
X0667520Y0867750D03*
D75*
X0850400Y0923000D03*
D53*
X0850400Y0913000D03*
D75*
X0931400Y0881500D03*
D53*
X0941400Y0881500D03*
D95*
X0902900Y0934500D03*
X0897900Y0934500D03*
X0892900Y0934500D03*
X0887900Y0934500D03*
X0882900Y0934500D03*
X0877900Y0934500D03*
X0872900Y0934500D03*
X0872900Y0913500D03*
X0877900Y0913500D03*
X0882900Y0913500D03*
X0887900Y0913500D03*
X0892900Y0913500D03*
X0897900Y0913500D03*
X0902900Y0913500D03*
D58*
X0862900Y0911500D03*
X0862900Y0924500D03*
D75*
X0931400Y0893000D03*
D53*
X0941400Y0893000D03*
D60*
X0939490Y0925000D03*
X0928310Y0925000D03*
X0939490Y0915000D03*
X0928310Y0915000D03*
D58*
X0744200Y0945600D03*
X0744200Y0932600D03*
X0772800Y0834200D03*
X0772800Y0821200D03*
X0694900Y0904500D03*
X0694900Y0917500D03*
D44*
X0680400Y0871000D03*
X0693400Y0871000D03*
X0948400Y0854000D03*
X0961400Y0854000D03*
D58*
X0892750Y0834100D03*
X0892750Y0821100D03*
D44*
X0680400Y0884500D03*
X0693400Y0884500D03*
D58*
X0832300Y0834200D03*
X0832300Y0821200D03*
X0712950Y0834350D03*
X0712950Y0821350D03*
D86*
X0874130Y0872570D03*
X0856410Y0872570D03*
X0874130Y0896190D03*
X0856410Y0896190D03*
D60*
X0939490Y0905000D03*
X0928310Y0905000D03*
X0939490Y0935000D03*
X0928310Y0935000D03*
X0010000Y0885000D02*
G01*
D104*
D100*
X0055000Y0925000D03*
X0060000Y0925000D03*
X0065000Y0925000D03*
X0070000Y0925000D03*
X0070000Y0900000D03*
X0065000Y0900000D03*
X0060000Y0900000D03*
X0055000Y0900000D03*
D85*
X0031000Y0907500D03*
X0044000Y0907500D03*
X0031000Y0917500D03*
X0044000Y0917500D03*
X0044000Y0927500D03*
X0031000Y0927500D03*
X0031000Y0897500D03*
X0044000Y0897500D03*
X0069000Y0952500D03*
X0056000Y0952500D03*
X0044000Y0962500D03*
X0031000Y0962500D03*
X0056000Y0962500D03*
X0069000Y0962500D03*
X0044000Y0952500D03*
X0031000Y0952500D03*
D63*
X0017500Y0932500D03*
D10*
X0017500Y0942500D03*
X0017500Y0952500D03*
X0017500Y0962500D03*
D63*
X0017500Y0892500D03*
D10*
X0017500Y0902500D03*
X0017500Y0912500D03*
X0304400Y0497500D02*
G01*
D104*
D119*
X0319400Y0917500D03*
X0319400Y0512500D03*
X0619400Y0512500D03*
X0619400Y0917500D03*
D11*
X0518270Y0516630D03*
X0410770Y0516630D03*
D13*
X0507020Y0519130D03*
X0512020Y0519130D03*
X0512020Y0514130D03*
X0507020Y0514130D03*
X0492020Y0514130D03*
X0487020Y0514130D03*
X0497020Y0514130D03*
X0502020Y0514130D03*
X0502020Y0519130D03*
X0497020Y0519130D03*
X0487020Y0519130D03*
X0492020Y0519130D03*
X0437020Y0514130D03*
X0432020Y0514130D03*
X0422020Y0514130D03*
X0427020Y0514130D03*
X0427020Y0519130D03*
X0422020Y0519130D03*
X0432020Y0519130D03*
X0437020Y0519130D03*
X0417020Y0519130D03*
X0417020Y0514130D03*
X0442020Y0514130D03*
X0442020Y0519130D03*
X0472020Y0519130D03*
X0467020Y0519130D03*
X0477020Y0519130D03*
X0482020Y0519130D03*
X0462020Y0519130D03*
X0457020Y0519130D03*
X0447020Y0519130D03*
X0452020Y0519130D03*
X0452020Y0514130D03*
X0447020Y0514130D03*
X0457020Y0514130D03*
X0462020Y0514130D03*
X0482020Y0514130D03*
X0477020Y0514130D03*
X0467020Y0514130D03*
X0472020Y0514130D03*
D47*
X0611520Y0954630D03*
X0525520Y0954630D03*
D75*
X0548520Y0947630D03*
D53*
X0548520Y0957630D03*
X0558520Y0947630D03*
X0558520Y0957630D03*
X0568520Y0947630D03*
X0568520Y0957630D03*
X0578520Y0947630D03*
X0578520Y0957630D03*
X0588520Y0947630D03*
X0588520Y0957630D03*
D58*
X0345020Y0842130D03*
X0345020Y0829130D03*
X0360020Y0759130D03*
X0360020Y0772130D03*
X0345020Y0632130D03*
X0345020Y0619130D03*
X0330020Y0632130D03*
X0330020Y0619130D03*
X0420020Y0759130D03*
X0420020Y0772130D03*
X0420020Y0689130D03*
X0420020Y0702130D03*
X0390020Y0632130D03*
X0390020Y0619130D03*
X0330020Y0772130D03*
X0330020Y0759130D03*
X0360020Y0619130D03*
X0360020Y0632130D03*
X0360020Y0689130D03*
X0360020Y0702130D03*
X0330020Y0842130D03*
X0330020Y0829130D03*
X0585020Y0702130D03*
X0585020Y0689130D03*
X0585020Y0772130D03*
X0585020Y0759130D03*
X0330020Y0702130D03*
X0330020Y0689130D03*
X0345020Y0772130D03*
X0345020Y0759130D03*
X0345020Y0702130D03*
X0345020Y0689130D03*
X0405020Y0702130D03*
X0405020Y0689130D03*
X0465020Y0702130D03*
X0465020Y0689130D03*
X0465020Y0772130D03*
X0465020Y0759130D03*
X0525020Y0772130D03*
X0525020Y0759130D03*
X0525020Y0702130D03*
X0525020Y0689130D03*
X0405020Y0772130D03*
X0405020Y0759130D03*
X0465020Y0842130D03*
X0465020Y0829130D03*
X0450020Y0632130D03*
X0450020Y0619130D03*
X0540020Y0689130D03*
X0540020Y0702130D03*
X0540020Y0759130D03*
X0540020Y0772130D03*
X0540020Y0829130D03*
X0540020Y0842130D03*
X0570020Y0842130D03*
X0570020Y0829130D03*
X0600020Y0618630D03*
X0600020Y0631630D03*
X0570020Y0772130D03*
X0570020Y0759130D03*
X0585020Y0631630D03*
X0585020Y0618630D03*
X0510020Y0772130D03*
X0510020Y0759130D03*
X0510020Y0702130D03*
X0510020Y0689130D03*
X0480020Y0829130D03*
X0480020Y0842130D03*
X0480020Y0689130D03*
X0480020Y0702130D03*
X0525020Y0632130D03*
X0525020Y0619130D03*
X0510020Y0632130D03*
X0510020Y0619130D03*
X0480020Y0759130D03*
X0480020Y0772130D03*
X0510020Y0842130D03*
X0510020Y0829130D03*
X0540020Y0619130D03*
X0540020Y0632130D03*
X0525020Y0842130D03*
X0525020Y0829130D03*
X0570020Y0702130D03*
X0570020Y0689130D03*
X0585020Y0842130D03*
X0585020Y0829130D03*
X0570020Y0631630D03*
X0570020Y0618630D03*
X0600020Y0689130D03*
X0600020Y0702130D03*
X0600020Y0829130D03*
X0600020Y0842130D03*
X0600020Y0759130D03*
X0600020Y0772130D03*
X0405020Y0632130D03*
X0405020Y0619130D03*
X0390020Y0842130D03*
X0390020Y0829130D03*
X0360020Y0829130D03*
X0360020Y0842130D03*
X0465020Y0632130D03*
X0465020Y0619130D03*
X0450020Y0772130D03*
X0450020Y0759130D03*
X0390020Y0702130D03*
X0390020Y0689130D03*
X0390020Y0772130D03*
X0390020Y0759130D03*
X0405020Y0842130D03*
X0405020Y0829130D03*
X0480020Y0619130D03*
X0480020Y0632130D03*
X0450020Y0702130D03*
X0450020Y0689130D03*
X0450020Y0842130D03*
X0450020Y0829130D03*
X0420020Y0829130D03*
X0420020Y0842130D03*
X0420020Y0619130D03*
X0420020Y0632130D03*
D44*
X0420020Y0815630D03*
X0410020Y0815630D03*
X0400020Y0815630D03*
X0390020Y0815630D03*
X0390020Y0785630D03*
X0400020Y0785630D03*
X0410020Y0785630D03*
X0420020Y0785630D03*
X0360020Y0675630D03*
X0350020Y0675630D03*
X0340020Y0675630D03*
X0330020Y0675630D03*
X0330020Y0645630D03*
X0340020Y0645630D03*
X0350020Y0645630D03*
X0360020Y0645630D03*
X0480020Y0605630D03*
X0470020Y0605630D03*
X0460020Y0605630D03*
X0450020Y0605630D03*
X0450020Y0575630D03*
X0460020Y0575630D03*
X0470020Y0575630D03*
X0480020Y0575630D03*
X0540020Y0815630D03*
X0530020Y0815630D03*
X0520020Y0815630D03*
X0510020Y0815630D03*
X0510020Y0785630D03*
X0520020Y0785630D03*
X0530020Y0785630D03*
X0540020Y0785630D03*
X0480020Y0815630D03*
X0470020Y0815630D03*
X0460020Y0815630D03*
X0450020Y0815630D03*
X0450020Y0785630D03*
X0460020Y0785630D03*
X0470020Y0785630D03*
X0480020Y0785630D03*
X0360020Y0745630D03*
X0350020Y0745630D03*
X0340020Y0745630D03*
X0330020Y0745630D03*
X0330020Y0715630D03*
X0340020Y0715630D03*
X0350020Y0715630D03*
X0360020Y0715630D03*
X0480020Y0675630D03*
X0470020Y0675630D03*
X0460020Y0675630D03*
X0450020Y0675630D03*
X0450020Y0645630D03*
X0460020Y0645630D03*
X0470020Y0645630D03*
X0480020Y0645630D03*
X0360020Y0815630D03*
X0350020Y0815630D03*
X0340020Y0815630D03*
X0330020Y0815630D03*
X0330020Y0785630D03*
X0340020Y0785630D03*
X0350020Y0785630D03*
X0360020Y0785630D03*
X0540020Y0675630D03*
X0530020Y0675630D03*
X0520020Y0675630D03*
X0510020Y0675630D03*
X0510020Y0645630D03*
X0520020Y0645630D03*
X0530020Y0645630D03*
X0540020Y0645630D03*
X0540020Y0605630D03*
X0530020Y0605630D03*
X0520020Y0605630D03*
X0510020Y0605630D03*
X0510020Y0575630D03*
X0520020Y0575630D03*
X0530020Y0575630D03*
X0540020Y0575630D03*
X0600020Y0605630D03*
X0590020Y0605630D03*
X0580020Y0605630D03*
X0570020Y0605630D03*
X0570020Y0575630D03*
X0580020Y0575630D03*
X0590020Y0575630D03*
X0600020Y0575630D03*
X0540020Y0745630D03*
X0530020Y0745630D03*
X0520020Y0745630D03*
X0510020Y0745630D03*
X0510020Y0715630D03*
X0520020Y0715630D03*
X0530020Y0715630D03*
X0540020Y0715630D03*
X0420020Y0675630D03*
X0410020Y0675630D03*
X0400020Y0675630D03*
X0390020Y0675630D03*
X0390020Y0645630D03*
X0400020Y0645630D03*
X0410020Y0645630D03*
X0420020Y0645630D03*
X0600020Y0815630D03*
X0590020Y0815630D03*
X0580020Y0815630D03*
X0570020Y0815630D03*
X0570020Y0785630D03*
X0580020Y0785630D03*
X0590020Y0785630D03*
X0600020Y0785630D03*
X0420020Y0745630D03*
X0410020Y0745630D03*
X0400020Y0745630D03*
X0390020Y0745630D03*
X0390020Y0715630D03*
X0400020Y0715630D03*
X0410020Y0715630D03*
X0420020Y0715630D03*
X0600020Y0745630D03*
X0590020Y0745630D03*
X0580020Y0745630D03*
X0570020Y0745630D03*
X0570020Y0715630D03*
X0580020Y0715630D03*
X0590020Y0715630D03*
X0600020Y0715630D03*
X0420020Y0605630D03*
X0410020Y0605630D03*
X0400020Y0605630D03*
X0390020Y0605630D03*
X0390020Y0575630D03*
X0400020Y0575630D03*
X0410020Y0575630D03*
X0420020Y0575630D03*
X0600020Y0675630D03*
X0590020Y0675630D03*
X0580020Y0675630D03*
X0570020Y0675630D03*
X0570020Y0645630D03*
X0580020Y0645630D03*
X0590020Y0645630D03*
X0600020Y0645630D03*
X0480020Y0745630D03*
X0470020Y0745630D03*
X0460020Y0745630D03*
X0450020Y0745630D03*
X0450020Y0715630D03*
X0460020Y0715630D03*
X0470020Y0715630D03*
X0480020Y0715630D03*
X0360020Y0605630D03*
X0350020Y0605630D03*
X0340020Y0605630D03*
X0330020Y0605630D03*
X0330020Y0575630D03*
X0340020Y0575630D03*
X0350020Y0575630D03*
X0360020Y0575630D03*
D105*
X0498520Y0932630D03*
X0418520Y0932630D03*
D15*
X0478520Y0962630D03*
D71*
X0448520Y0922630D03*
X0468520Y0922630D03*
X0428520Y0922630D03*
X0488520Y0922630D03*
D15*
X0438520Y0962630D03*
D22*
X0383520Y0957630D03*
D97*
X0373520Y0967630D03*
X0393520Y0967630D03*
X0393520Y0947630D03*
X0373520Y0947630D03*
D22*
X0333520Y0957630D03*
D97*
X0323520Y0967630D03*
X0343520Y0967630D03*
X0343520Y0947630D03*
X0323520Y0947630D03*
D44*
X0395020Y0932630D03*
X0382020Y0932630D03*
X0592150Y0865500D03*
X0605150Y0865500D03*
D75*
X0553400Y0880000D03*
D53*
X0553400Y0890000D03*
X0563400Y0880000D03*
X0563400Y0890000D03*
X0573400Y0880000D03*
X0573400Y0890000D03*
D75*
X0433400Y0945500D03*
D53*
X0443400Y0945500D03*
X0453400Y0945500D03*
X0463400Y0945500D03*
X0473400Y0945500D03*
X0483400Y0945500D03*
D83*
X0378520Y0917630D03*
X0398520Y0917630D03*
D86*
X0497520Y0899880D03*
X0487520Y0899880D03*
X0477520Y0899880D03*
X0467520Y0899880D03*
X0457520Y0899880D03*
X0447520Y0899880D03*
X0437520Y0899880D03*
X0427520Y0899880D03*
X0417520Y0899880D03*
X0407520Y0899880D03*
X0397520Y0899880D03*
X0387520Y0899880D03*
X0377520Y0899880D03*
D18*
X0507520Y0899880D03*
D86*
X0377520Y0869880D03*
X0387520Y0869880D03*
X0397520Y0869880D03*
X0407520Y0869880D03*
X0417520Y0869880D03*
X0427520Y0869880D03*
X0437520Y0869880D03*
X0447520Y0869880D03*
X0457520Y0869880D03*
X0467520Y0869880D03*
X0477520Y0869880D03*
X0487520Y0869880D03*
X0497520Y0869880D03*
X0507520Y0869880D03*
D76*
X0330020Y0889010D03*
X0330020Y0867750D03*
D75*
X0512900Y0923000D03*
D53*
X0512900Y0913000D03*
D75*
X0593900Y0881500D03*
D53*
X0603900Y0881500D03*
D95*
X0565400Y0934500D03*
X0560400Y0934500D03*
X0555400Y0934500D03*
X0550400Y0934500D03*
X0545400Y0934500D03*
X0540400Y0934500D03*
X0535400Y0934500D03*
X0535400Y0913500D03*
X0540400Y0913500D03*
X0545400Y0913500D03*
X0550400Y0913500D03*
X0555400Y0913500D03*
X0560400Y0913500D03*
X0565400Y0913500D03*
D58*
X0525400Y0911500D03*
X0525400Y0924500D03*
D75*
X0593900Y0893000D03*
D53*
X0603900Y0893000D03*
D60*
X0601990Y0925000D03*
X0590810Y0925000D03*
X0601990Y0915000D03*
X0590810Y0915000D03*
D58*
X0406700Y0945600D03*
X0406700Y0932600D03*
X0435300Y0834200D03*
X0435300Y0821200D03*
X0357400Y0904500D03*
X0357400Y0917500D03*
D44*
X0342900Y0871000D03*
X0355900Y0871000D03*
X0610900Y0854000D03*
X0623900Y0854000D03*
D58*
X0555250Y0834100D03*
X0555250Y0821100D03*
D44*
X0342900Y0884500D03*
X0355900Y0884500D03*
D58*
X0494800Y0834200D03*
X0494800Y0821200D03*
X0375450Y0834350D03*
X0375450Y0821350D03*
D86*
X0536630Y0872570D03*
X0518910Y0872570D03*
X0536630Y0896190D03*
X0518910Y0896190D03*
D60*
X0601990Y0905000D03*
X0590810Y0905000D03*
X0601990Y0935000D03*
X0590810Y0935000D03*
X0979400Y0599000D02*
G01*
D104*
D101*
X1136400Y0618750D03*
X1136400Y0704750D03*
D34*
X1129400Y0681750D03*
D84*
X1139400Y0681750D03*
X1129400Y0671750D03*
X1139400Y0671750D03*
X1129400Y0661750D03*
X1139400Y0661750D03*
X1129400Y0651750D03*
X1139400Y0651750D03*
X1129400Y0641750D03*
X1139400Y0641750D03*
D40*
X1077650Y0958000D03*
X1077650Y0766750D03*
D16*
X1148560Y0736450D03*
D118*
X1098180Y0736450D03*
X1098180Y0752990D03*
X1098180Y0769510D03*
X1098180Y0786050D03*
X1119820Y0736450D03*
X1119820Y0752990D03*
X1119820Y0769510D03*
X1119820Y0786050D03*
D16*
X1148560Y0786050D03*
D101*
X0994900Y0704750D03*
X0994900Y0618750D03*
D34*
X1001900Y0641750D03*
D84*
X0991900Y0641750D03*
X1001900Y0651750D03*
X0991900Y0651750D03*
X1001900Y0661750D03*
X0991900Y0661750D03*
X1001900Y0671750D03*
X0991900Y0671750D03*
X1001900Y0681750D03*
X0991900Y0681750D03*
D142*
X1087400Y0822250D03*
X1066400Y0822250D03*
X1087400Y0817250D03*
X1087400Y0812250D03*
X1087400Y0807250D03*
X1066400Y0817250D03*
X1066400Y0812250D03*
X1066400Y0807250D03*
D143*
X1140400Y0884250D03*
X1140400Y0889250D03*
X1140400Y0894250D03*
X1140400Y0899250D03*
X1140400Y0904250D03*
X1140400Y0909250D03*
X1140400Y0914250D03*
X1119400Y0914250D03*
X1119400Y0909250D03*
X1119400Y0904250D03*
X1119400Y0899250D03*
X1119400Y0894250D03*
X1119400Y0889250D03*
X1119400Y0884250D03*
D129*
X1000600Y0847850D03*
X0987600Y0847850D03*
D72*
X1055900Y0819250D03*
X1055900Y0832250D03*
D109*
X1010900Y0781750D03*
X1010900Y0741750D03*
D84*
X1030900Y0751750D03*
X1030900Y0761750D03*
D68*
X1044510Y0986210D03*
X1044510Y0968490D03*
X1020890Y0986210D03*
X1020890Y0968490D03*
D72*
X1066900Y0843250D03*
X1066900Y0830250D03*
D129*
X1089150Y0831900D03*
X1076150Y0831900D03*
D34*
X0988900Y0835050D03*
D84*
X0998900Y0835050D03*
X0988900Y0825050D03*
X0998900Y0825050D03*
X0988900Y0815050D03*
X0998900Y0815050D03*
D34*
X0986700Y0934950D03*
D84*
X0986700Y0944950D03*
X0986700Y0954950D03*
X0986700Y0964950D03*
X0986700Y0974950D03*
X0986700Y0984950D03*
D68*
X1011900Y0943150D03*
X1011900Y0933150D03*
X1011900Y0923150D03*
X1011900Y0913150D03*
X1011900Y0903150D03*
X1011900Y0893150D03*
X1011900Y0883150D03*
X1011900Y0873150D03*
X1011900Y0863150D03*
X1011900Y0853150D03*
X1011900Y0843150D03*
X1011900Y0833150D03*
X1011900Y0823150D03*
D46*
X1011900Y0953150D03*
D68*
X1041900Y0823150D03*
X1041900Y0833150D03*
X1041900Y0843150D03*
X1041900Y0853150D03*
X1041900Y0863150D03*
X1041900Y0873150D03*
X1041900Y0883150D03*
X1041900Y0893150D03*
X1041900Y0903150D03*
X1041900Y0913150D03*
X1041900Y0923150D03*
X1041900Y0933150D03*
X1041900Y0943150D03*
X1041900Y0953150D03*
D145*
X1056700Y0979890D03*
X1056700Y0977330D03*
X1056700Y0974770D03*
X1056700Y0972210D03*
X1073700Y0972210D03*
X1073700Y0974770D03*
X1073700Y0977330D03*
X1073700Y0979890D03*
D129*
X0988100Y0916650D03*
X1001100Y0916650D03*
D72*
X1103700Y0613250D03*
X1103700Y0626250D03*
D54*
X1113900Y0613060D03*
X1113900Y0624240D03*
D34*
X1036400Y0800000D03*
D84*
X1026400Y0800000D03*
X1016400Y0800000D03*
D143*
X1096400Y0983150D03*
X1096400Y0978150D03*
X1096400Y0973150D03*
X1096400Y0968150D03*
X1096400Y0963150D03*
X1096400Y0958150D03*
X1096400Y0953150D03*
X1117400Y0953150D03*
X1117400Y0958150D03*
X1117400Y0963150D03*
X1117400Y0968150D03*
X1117400Y0973150D03*
X1117400Y0978150D03*
X1117400Y0983150D03*
X1114900Y0844150D03*
X1114900Y0849150D03*
X1114900Y0854150D03*
X1114900Y0859150D03*
X1114900Y0864150D03*
X1114900Y0869150D03*
X1114900Y0874150D03*
X1093900Y0874150D03*
X1093900Y0869150D03*
X1093900Y0864150D03*
X1093900Y0859150D03*
X1093900Y0854150D03*
X1093900Y0849150D03*
X1093900Y0844150D03*
D43*
X0993500Y0867050D03*
X0993500Y0887050D03*
D144*
X1062900Y0942050D03*
X1062900Y0937050D03*
X1062900Y0932050D03*
X1062900Y0927050D03*
X1062900Y0922050D03*
X1062900Y0917050D03*
X1062900Y0912050D03*
X1062900Y0907050D03*
X1062900Y0902050D03*
X1062900Y0897050D03*
X1062900Y0892050D03*
X1062900Y0887050D03*
X1100900Y0942050D03*
X1100900Y0937050D03*
X1100900Y0932050D03*
X1100900Y0927050D03*
X1100900Y0922050D03*
X1100900Y0917050D03*
X1100900Y0912050D03*
X1100900Y0907050D03*
X1100900Y0902050D03*
X1100900Y0897050D03*
X1100900Y0892050D03*
X1100900Y0887050D03*
D142*
X1119400Y0927950D03*
X1140400Y0927950D03*
X1119400Y0932950D03*
X1119400Y0937950D03*
X1119400Y0942950D03*
X1140400Y0932950D03*
X1140400Y0937950D03*
X1140400Y0942950D03*
D72*
X0999400Y0976950D03*
X0999400Y0963950D03*
D129*
X1001100Y0906350D03*
X0988100Y0906350D03*
X1137800Y0865350D03*
X1124800Y0865350D03*
X1131100Y0822950D03*
X1118100Y0822950D03*
X1137800Y0854950D03*
X1124800Y0854950D03*
X1137800Y0844550D03*
X1124800Y0844550D03*
D72*
X1081200Y0863950D03*
X1081200Y0876950D03*
X1081200Y0855750D03*
X1081200Y0842750D03*
D146*
X1066430Y0863850D03*
X1057770Y0860100D03*
X1057770Y0867600D03*
D34*
X1001700Y0933850D03*
D84*
X1001700Y0943850D03*
D143*
X1075900Y0712150D03*
X1075900Y0717150D03*
X1075900Y0722150D03*
X1075900Y0727150D03*
X1075900Y0732150D03*
X1075900Y0737150D03*
X1075900Y0742150D03*
X1054900Y0742150D03*
X1054900Y0737150D03*
X1054900Y0732150D03*
X1054900Y0727150D03*
X1054900Y0722150D03*
X1054900Y0717150D03*
X1054900Y0712150D03*
D72*
X1042350Y0707900D03*
X1042350Y0720900D03*
X1104900Y0660450D03*
X1104900Y0673450D03*
X1115500Y0660350D03*
X1115500Y0673350D03*
D34*
X1029150Y0718950D03*
D84*
X1029150Y0708950D03*
D54*
X1105500Y0683960D03*
X1105500Y0695140D03*
X1114950Y0683910D03*
X1114950Y0695090D03*
D129*
X1068000Y0701050D03*
X1055000Y0701050D03*
X0999060Y0986030D03*
X1012060Y0986030D03*
X1071860Y0987630D03*
X1058860Y0987630D03*
D72*
X1125200Y0973900D03*
X1125200Y0986900D03*
X1062450Y0799500D03*
X1062450Y0786500D03*
X1095550Y0806350D03*
X1095550Y0819350D03*
X1148850Y0901100D03*
X1148850Y0888100D03*
D129*
X1112450Y0834200D03*
X1099450Y0834200D03*
X1145500Y0949850D03*
X1132500Y0949850D03*
X1273800Y0286500D02*
G01*
D104*
D100*
X1318800Y0326500D03*
X1323800Y0326500D03*
X1328800Y0326500D03*
X1333800Y0326500D03*
X1333800Y0301500D03*
X1328800Y0301500D03*
X1323800Y0301500D03*
X1318800Y0301500D03*
D85*
X1294800Y0309000D03*
X1307800Y0309000D03*
X1294800Y0319000D03*
X1307800Y0319000D03*
X1307800Y0329000D03*
X1294800Y0329000D03*
X1294800Y0299000D03*
X1307800Y0299000D03*
X1332800Y0354000D03*
X1319800Y0354000D03*
X1307800Y0364000D03*
X1294800Y0364000D03*
X1319800Y0364000D03*
X1332800Y0364000D03*
X1307800Y0354000D03*
X1294800Y0354000D03*
D63*
X1281300Y0334000D03*
D10*
X1281300Y0344000D03*
X1281300Y0354000D03*
X1281300Y0364000D03*
D63*
X1281300Y0294000D03*
D10*
X1281300Y0304000D03*
X1281300Y0314000D03*
X0082500Y0885000D02*
G01*
D104*
D11*
X0125750Y0927000D03*
X0233250Y0927000D03*
D13*
X0137000Y0924500D03*
X0132000Y0924500D03*
X0132000Y0929500D03*
X0137000Y0929500D03*
X0152000Y0929500D03*
X0157000Y0929500D03*
X0147000Y0929500D03*
X0142000Y0929500D03*
X0142000Y0924500D03*
X0147000Y0924500D03*
X0157000Y0924500D03*
X0152000Y0924500D03*
X0207000Y0929500D03*
X0212000Y0929500D03*
X0222000Y0929500D03*
X0217000Y0929500D03*
X0217000Y0924500D03*
X0222000Y0924500D03*
X0212000Y0924500D03*
X0207000Y0924500D03*
X0227000Y0924500D03*
X0227000Y0929500D03*
X0202000Y0929500D03*
X0202000Y0924500D03*
X0172000Y0924500D03*
X0177000Y0924500D03*
X0167000Y0924500D03*
X0162000Y0924500D03*
X0182000Y0924500D03*
X0187000Y0924500D03*
X0197000Y0924500D03*
X0192000Y0924500D03*
X0192000Y0929500D03*
X0197000Y0929500D03*
X0187000Y0929500D03*
X0182000Y0929500D03*
X0162000Y0929500D03*
X0167000Y0929500D03*
X0177000Y0929500D03*
X0172000Y0929500D03*
D111*
X0264000Y0929500D03*
D58*
X0156000Y0958500D03*
X0156000Y0971500D03*
X0222500Y0958500D03*
X0222500Y0971500D03*
X0222000Y0903000D03*
X0222000Y0890000D03*
X0213000Y0958500D03*
X0213000Y0971500D03*
X0212500Y0903000D03*
X0212500Y0890000D03*
X0203500Y0958500D03*
X0203500Y0971500D03*
X0203000Y0903000D03*
X0203000Y0890000D03*
X0194000Y0958500D03*
X0194000Y0971500D03*
X0193500Y0903000D03*
X0193500Y0890000D03*
X0184500Y0958500D03*
X0184500Y0971500D03*
X0184000Y0903000D03*
X0184000Y0890000D03*
X0175000Y0958500D03*
X0175000Y0971500D03*
X0174500Y0903000D03*
X0174500Y0890000D03*
X0165500Y0958500D03*
X0165500Y0971500D03*
X0165000Y0903000D03*
X0165000Y0890000D03*
X0231500Y0903000D03*
X0231500Y0890000D03*
X0155500Y0903000D03*
X0155500Y0890000D03*
X0146500Y0958500D03*
X0146500Y0971500D03*
X0146000Y0903000D03*
X0146000Y0890000D03*
X0137000Y0958500D03*
X0137000Y0971500D03*
X0136500Y0903000D03*
X0136500Y0890000D03*
X0127500Y0958500D03*
X0127500Y0971500D03*
X0127000Y0903000D03*
X0127000Y0890000D03*
X0118000Y0958500D03*
X0118000Y0971500D03*
X0117500Y0903000D03*
X0117500Y0890000D03*
X0108500Y0958500D03*
X0108500Y0971500D03*
X0108000Y0903000D03*
X0108000Y0890000D03*
X0099000Y0958500D03*
X0099000Y0971500D03*
X0098500Y0903000D03*
X0098500Y0890000D03*
X0089500Y0958500D03*
X0089500Y0971500D03*
X0089000Y0903000D03*
X0089000Y0890000D03*
X0270000Y0958500D03*
X0270000Y0971500D03*
X0269500Y0903000D03*
X0269500Y0890000D03*
X0260500Y0958500D03*
X0260500Y0971500D03*
X0260000Y0903000D03*
X0260000Y0890000D03*
X0251000Y0958500D03*
X0251000Y0971500D03*
X0250500Y0903000D03*
X0250500Y0890000D03*
X0241500Y0958500D03*
X0241500Y0971500D03*
X0241000Y0903000D03*
X0241000Y0890000D03*
X0232000Y0958500D03*
X0232000Y0971500D03*
X1273800Y0399000D02*
G01*
D104*
D11*
X1324300Y0442250D03*
X1324300Y0549750D03*
D13*
X1326800Y0453500D03*
X1326800Y0448500D03*
X1321800Y0448500D03*
X1321800Y0453500D03*
X1321800Y0468500D03*
X1321800Y0473500D03*
X1321800Y0463500D03*
X1321800Y0458500D03*
X1326800Y0458500D03*
X1326800Y0463500D03*
X1326800Y0473500D03*
X1326800Y0468500D03*
X1321800Y0523500D03*
X1321800Y0528500D03*
X1321800Y0538500D03*
X1321800Y0533500D03*
X1326800Y0533500D03*
X1326800Y0538500D03*
X1326800Y0528500D03*
X1326800Y0523500D03*
X1326800Y0543500D03*
X1321800Y0543500D03*
X1321800Y0518500D03*
X1326800Y0518500D03*
X1326800Y0488500D03*
X1326800Y0493500D03*
X1326800Y0483500D03*
X1326800Y0478500D03*
X1326800Y0498500D03*
X1326800Y0503500D03*
X1326800Y0513500D03*
X1326800Y0508500D03*
X1321800Y0508500D03*
X1321800Y0513500D03*
X1321800Y0503500D03*
X1321800Y0498500D03*
X1321800Y0478500D03*
X1321800Y0483500D03*
X1321800Y0493500D03*
X1321800Y0488500D03*
D111*
X1321800Y0580500D03*
D44*
X1292800Y0472500D03*
X1279800Y0472500D03*
X1292800Y0539000D03*
X1279800Y0539000D03*
X1348300Y0538500D03*
X1361300Y0538500D03*
X1292800Y0529500D03*
X1279800Y0529500D03*
X1348300Y0529000D03*
X1361300Y0529000D03*
X1292800Y0520000D03*
X1279800Y0520000D03*
X1348300Y0519500D03*
X1361300Y0519500D03*
X1292800Y0510500D03*
X1279800Y0510500D03*
X1348300Y0510000D03*
X1361300Y0510000D03*
X1292800Y0501000D03*
X1279800Y0501000D03*
X1348300Y0500500D03*
X1361300Y0500500D03*
X1292800Y0491500D03*
X1279800Y0491500D03*
X1348300Y0491000D03*
X1361300Y0491000D03*
X1292800Y0482000D03*
X1279800Y0482000D03*
X1348300Y0481500D03*
X1361300Y0481500D03*
X1348300Y0548000D03*
X1361300Y0548000D03*
X1348300Y0472000D03*
X1361300Y0472000D03*
X1292800Y0463000D03*
X1279800Y0463000D03*
X1348300Y0462500D03*
X1361300Y0462500D03*
X1292800Y0453500D03*
X1279800Y0453500D03*
X1348300Y0453000D03*
X1361300Y0453000D03*
X1292800Y0444000D03*
X1279800Y0444000D03*
X1348300Y0443500D03*
X1361300Y0443500D03*
X1292800Y0434500D03*
X1279800Y0434500D03*
X1348300Y0434000D03*
X1361300Y0434000D03*
X1292800Y0425000D03*
X1279800Y0425000D03*
X1348300Y0424500D03*
X1361300Y0424500D03*
X1292800Y0415500D03*
X1279800Y0415500D03*
X1348300Y0415000D03*
X1361300Y0415000D03*
X1292800Y0406000D03*
X1279800Y0406000D03*
X1348300Y0405500D03*
X1361300Y0405500D03*
X1292800Y0586500D03*
X1279800Y0586500D03*
X1348300Y0586000D03*
X1361300Y0586000D03*
X1292800Y0577000D03*
X1279800Y0577000D03*
X1348300Y0576500D03*
X1361300Y0576500D03*
X1292800Y0567500D03*
X1279800Y0567500D03*
X1348300Y0567000D03*
X1361300Y0567000D03*
X1292800Y0558000D03*
X1279800Y0558000D03*
X1348300Y0557500D03*
X1361300Y0557500D03*
X1292800Y0548500D03*
X1279800Y0548500D03*
X1163400Y0604000D02*
G01*
D102*
D119*
X1398400Y0659000D03*
X1398400Y0939000D03*
X1183400Y0659000D03*
X1183400Y0939000D03*
D11*
X1314650Y0631500D03*
X1207150Y0631500D03*
D13*
X1303400Y0634000D03*
X1308400Y0634000D03*
X1308400Y0629000D03*
X1303400Y0629000D03*
X1288400Y0629000D03*
X1283400Y0629000D03*
X1293400Y0629000D03*
X1298400Y0629000D03*
X1298400Y0634000D03*
X1293400Y0634000D03*
X1283400Y0634000D03*
X1288400Y0634000D03*
X1233400Y0629000D03*
X1228400Y0629000D03*
X1218400Y0629000D03*
X1223400Y0629000D03*
X1223400Y0634000D03*
X1218400Y0634000D03*
X1228400Y0634000D03*
X1233400Y0634000D03*
X1213400Y0634000D03*
X1213400Y0629000D03*
X1238400Y0629000D03*
X1238400Y0634000D03*
X1268400Y0634000D03*
X1263400Y0634000D03*
X1273400Y0634000D03*
X1278400Y0634000D03*
X1258400Y0634000D03*
X1253400Y0634000D03*
X1243400Y0634000D03*
X1248400Y0634000D03*
X1248400Y0629000D03*
X1243400Y0629000D03*
X1253400Y0629000D03*
X1258400Y0629000D03*
X1278400Y0629000D03*
X1273400Y0629000D03*
X1263400Y0629000D03*
X1268400Y0629000D03*
D11*
X1207150Y0966500D03*
X1314650Y0966500D03*
D13*
X1218400Y0964000D03*
X1213400Y0964000D03*
X1213400Y0969000D03*
X1218400Y0969000D03*
X1233400Y0969000D03*
X1238400Y0969000D03*
X1228400Y0969000D03*
X1223400Y0969000D03*
X1223400Y0964000D03*
X1228400Y0964000D03*
X1238400Y0964000D03*
X1233400Y0964000D03*
X1288400Y0969000D03*
X1293400Y0969000D03*
X1303400Y0969000D03*
X1298400Y0969000D03*
X1298400Y0964000D03*
X1303400Y0964000D03*
X1293400Y0964000D03*
X1288400Y0964000D03*
X1308400Y0964000D03*
X1308400Y0969000D03*
X1283400Y0969000D03*
X1283400Y0964000D03*
X1253400Y0964000D03*
X1258400Y0964000D03*
X1248400Y0964000D03*
X1243400Y0964000D03*
X1263400Y0964000D03*
X1268400Y0964000D03*
X1278400Y0964000D03*
X1273400Y0964000D03*
X1273400Y0969000D03*
X1278400Y0969000D03*
X1268400Y0969000D03*
X1263400Y0969000D03*
X1243400Y0969000D03*
X1248400Y0969000D03*
X1258400Y0969000D03*
X1253400Y0969000D03*
D11*
X1403400Y0852750D03*
X1403400Y0745250D03*
D13*
X1400900Y0841500D03*
X1400900Y0846500D03*
X1405900Y0846500D03*
X1405900Y0841500D03*
X1405900Y0826500D03*
X1405900Y0821500D03*
X1405900Y0831500D03*
X1405900Y0836500D03*
X1400900Y0836500D03*
X1400900Y0831500D03*
X1400900Y0821500D03*
X1400900Y0826500D03*
X1405900Y0771500D03*
X1405900Y0766500D03*
X1405900Y0756500D03*
X1405900Y0761500D03*
X1400900Y0761500D03*
X1400900Y0756500D03*
X1400900Y0766500D03*
X1400900Y0771500D03*
X1400900Y0751500D03*
X1405900Y0751500D03*
X1405900Y0776500D03*
X1400900Y0776500D03*
X1400900Y0806500D03*
X1400900Y0801500D03*
X1400900Y0811500D03*
X1400900Y0816500D03*
X1400900Y0796500D03*
X1400900Y0791500D03*
X1400900Y0781500D03*
X1400900Y0786500D03*
X1405900Y0786500D03*
X1405900Y0781500D03*
X1405900Y0791500D03*
X1405900Y0796500D03*
X1405900Y0816500D03*
X1405900Y0811500D03*
X1405900Y0801500D03*
X1405900Y0806500D03*
D53*
X1213400Y0909000D03*
X1213400Y0919000D03*
X1213400Y0929000D03*
X1213400Y0939000D03*
X1223400Y0909000D03*
X1223400Y0919000D03*
X1223400Y0929000D03*
X1223400Y0939000D03*
X1233400Y0909000D03*
X1233400Y0919000D03*
X1233400Y0929000D03*
X1233400Y0939000D03*
X1243400Y0909000D03*
X1243400Y0919000D03*
X1243400Y0929000D03*
X1243400Y0939000D03*
X1253400Y0909000D03*
X1253400Y0919000D03*
X1253400Y0929000D03*
X1253400Y0939000D03*
X1263400Y0909000D03*
X1263400Y0919000D03*
X1263400Y0929000D03*
X1263400Y0939000D03*
X1273400Y0909000D03*
X1273400Y0919000D03*
X1273400Y0929000D03*
X1273400Y0939000D03*
X1283400Y0909000D03*
X1283400Y0919000D03*
X1283400Y0929000D03*
X1283400Y0939000D03*
X1293400Y0909000D03*
X1293400Y0919000D03*
X1293400Y0929000D03*
X1293400Y0939000D03*
X1303400Y0909000D03*
X1303400Y0919000D03*
X1303400Y0929000D03*
X1303400Y0939000D03*
X1313400Y0909000D03*
X1313400Y0919000D03*
X1313400Y0929000D03*
X1313400Y0939000D03*
X1323400Y0909000D03*
X1323400Y0919000D03*
X1323400Y0929000D03*
X1323400Y0939000D03*
X1333400Y0909000D03*
X1333400Y0919000D03*
X1333400Y0929000D03*
X1333400Y0939000D03*
X1343400Y0909000D03*
X1343400Y0919000D03*
X1343400Y0929000D03*
X1343400Y0939000D03*
X1353400Y0909000D03*
X1353400Y0919000D03*
X1353400Y0929000D03*
X1353400Y0939000D03*
X1353400Y0659000D03*
X1353400Y0669000D03*
X1353400Y0679000D03*
X1353400Y0689000D03*
X1343400Y0659000D03*
X1343400Y0669000D03*
X1343400Y0679000D03*
X1343400Y0689000D03*
X1333400Y0659000D03*
X1333400Y0669000D03*
X1333400Y0679000D03*
X1333400Y0689000D03*
X1323400Y0659000D03*
X1323400Y0669000D03*
X1323400Y0679000D03*
X1323400Y0689000D03*
X1313400Y0659000D03*
X1313400Y0669000D03*
X1313400Y0679000D03*
X1313400Y0689000D03*
X1303400Y0659000D03*
X1303400Y0669000D03*
X1303400Y0679000D03*
X1303400Y0689000D03*
X1293400Y0659000D03*
X1293400Y0669000D03*
X1293400Y0679000D03*
X1293400Y0689000D03*
X1283400Y0659000D03*
X1283400Y0669000D03*
X1283400Y0679000D03*
X1283400Y0689000D03*
X1273400Y0659000D03*
X1273400Y0669000D03*
X1273400Y0679000D03*
X1273400Y0689000D03*
X1263400Y0659000D03*
X1263400Y0669000D03*
X1263400Y0679000D03*
X1263400Y0689000D03*
X1253400Y0659000D03*
X1253400Y0669000D03*
X1253400Y0679000D03*
X1253400Y0689000D03*
X1243400Y0659000D03*
X1243400Y0669000D03*
X1243400Y0679000D03*
X1243400Y0689000D03*
X1233400Y0659000D03*
X1233400Y0669000D03*
X1233400Y0679000D03*
X1233400Y0689000D03*
X1223400Y0659000D03*
X1223400Y0669000D03*
X1223400Y0679000D03*
X1223400Y0689000D03*
X1213400Y0659000D03*
X1213400Y0669000D03*
X1213400Y0679000D03*
X1213400Y0689000D03*
M02*
