%
T01C0.015000
X1963Y38862
X1963Y35463
X2113Y39462
X2113Y34937
X2213Y5963
X2263Y6313
X2263Y5562
X2263Y5213
X2263Y4862
X2388Y30838
X2413Y6612
X2613Y6912
X2663Y31137
X2752Y16092
X2773Y23372
X3032Y22812
X3053Y29812
X3053Y15812
X3053Y8813
X3093Y9692
X3112Y6762
X3263Y31012
X3273Y32192
X3273Y25192
X3273Y18192
X3273Y11192
X3533Y30732
X3533Y23733
X3553Y16733
X3553Y9732
X3563Y38837
X3613Y6762
X3813Y36687
X4173Y21452
X4192Y28452
X4192Y14452
X4238Y35463
X4263Y39462
X4310Y37190
X4810Y37440
X4813Y34937
X5033Y8173
X5053Y32272
X5053Y25272
X5053Y11252
X5053Y9372
X5063Y33637
X5063Y31162
X5063Y29187
X5063Y26572
X5063Y22192
X5063Y19512
X5063Y15238
X5063Y12532
X5073Y30333
X5073Y23332
X5073Y16352
X5093Y18272
X5310Y36940
X5313Y34787
X5388Y38862
X5453Y2773
X5513Y2212
X5763Y35463
X5792Y28012
X5812Y37687
X5812Y21012
X5812Y13772
X5812Y6812
X5853Y3052
X5912Y2212
X6288Y5613
X6313Y2212
X6552Y30432
X6552Y23433
X6573Y16433
X6573Y9432
X6813Y29162
X6813Y22187
X6813Y15187
X6813Y8162
X6913Y5312
X7162Y2212
X7188Y34213
X7213Y4713
X7237Y35263
X7288Y5862
X7488Y34988
X7513Y4212
X7588Y5662
X7813Y3612
X8038Y5162
X8213Y2793
X8463Y36687
X8572Y2793
X8913Y6132
X8913Y5587
X8937Y34213
X8952Y6472
X8963Y37687
X9052Y29812
X9052Y22812
X9052Y15812
X9052Y8813
X9253Y25172
X9253Y17032
X9253Y10032
X9273Y32192
X9273Y31032
X9273Y24032
X9273Y18192
X9273Y11192
X9275Y33600
X9533Y9732
X9553Y30732
X9553Y23733
X9553Y16733
X9788Y36687
X10173Y28472
X10173Y21452
X10173Y7472
X10187Y35562
X10193Y14452
X10310Y37190
X10810Y37440
X10815Y34725
X10850Y48500
X11052Y18252
X11052Y11272
X11052Y8087
X11063Y33637
X11063Y29237
X11063Y26522
X11063Y22237
X11063Y19502
X11063Y12552
X11072Y32272
X11072Y31112
X11072Y30333
X11072Y25253
X11072Y24072
X11072Y23292
X11072Y16352
X11072Y15213
X11072Y10132
X11072Y9332
X11092Y17153
X11305Y40550
X11310Y36940
X11313Y34687
X11788Y35463
X11793Y28012
X11813Y37712
X11813Y6812
X11833Y21012
X11833Y13772
X12553Y30432
X12553Y9432
X12573Y23433
X12573Y16433
X12795Y34940
X12813Y29187
X12813Y15187
X12813Y8087
X12963Y42562
X12985Y22235
X13188Y34213
X13388Y34937
X14013Y5152
X14173Y5752
X14192Y6112
X14550Y35450
X14912Y34213
X15033Y29812
X15053Y22812
X15053Y15812
X15053Y8813
X15188Y37712
X15253Y32172
X15253Y25172
X15253Y18192
X15253Y17032
X15253Y11172
X15253Y10052
X15272Y31032
X15272Y24032
X15295Y33565
X15313Y5512
X15400Y42400
X15533Y16733
X15553Y30732
X15553Y23733
X15562Y9743
X15613Y5252
X15813Y36687
X15912Y4992
X16173Y7492
X16187Y35437
X16193Y28452
X16193Y21452
X16193Y14472
X16310Y37190
X16812Y37437
X16812Y34937
X17053Y32272
X17053Y22192
X17053Y15213
X17053Y11212
X17063Y33637
X17063Y29232
X17063Y26472
X17063Y19452
X17063Y12552
X17063Y8113
X17072Y25272
X17072Y24132
X17072Y23332
X17072Y18252
X17072Y16392
X17072Y10172
X17072Y9352
X17093Y31152
X17093Y30372
X17093Y17172
X17150Y42650
X17310Y36940
X17313Y34787
X17463Y5063
X17738Y35463
X17793Y28012
X17813Y37687
X17813Y13792
X17813Y6812
X17833Y21012
X18400Y41800
X18553Y30432
X18553Y16433
X18553Y9432
X18572Y23433
X18813Y29172
X18813Y15187
X18813Y8113
X18813Y5587
X18838Y22187
X19013Y5037
X19213Y35087
X19213Y34737
X19213Y34213
X19213Y5812
X19463Y6087
X19563Y4862
X19738Y6313
X20137Y4663
X20188Y7387
X20388Y7112
X20538Y4363
X20562Y6787
X20733Y6493
X20863Y34213
X20913Y6212
X21033Y22812
X21053Y29792
X21053Y15812
X21053Y8813
X21130Y45390
X21200Y42400
X21213Y31972
X21213Y18132
X21233Y25092
X21233Y24072
X21233Y11112
X21233Y10032
X21253Y17053
X21273Y31032
X21295Y33585
X21313Y37712
X21413Y45837
X21473Y16733
X21493Y23733
X21533Y30732
X21533Y9732
X21738Y46087
X21812Y36687
X21863Y4162
X22193Y28452
X22193Y21452
X22193Y14472
X22193Y7472
X22263Y35463
X22313Y37187
X22363Y3963
X22813Y37437
X22813Y34737
X22863Y3762
X23013Y3212
X23053Y33662
X23053Y32252
X23053Y22172
X23062Y26472
X23062Y19492
X23062Y15213
X23062Y12512
X23062Y8152
X23073Y30352
X23073Y29172
X23073Y25233
X23073Y9332
X23092Y31132
X23092Y23372
X23092Y18212
X23092Y17153
X23092Y16352
X23092Y11252
X23092Y10132
X23133Y24172
X23305Y36935
X23313Y34762
X23793Y13772
X23813Y35463
X23813Y28012
X23813Y6812
X23833Y21012
X24075Y46015
X24100Y44250
X24263Y2962
X24430Y45700
X24553Y23433
X24553Y16433
X24553Y9432
X24572Y30432
X24600Y42140
X24613Y2962
X24813Y29187
X24813Y22162
X24813Y15187
X24813Y8162
X24872Y4852
X24963Y2962
X25013Y4292
X25188Y34213
X25193Y4592
X25210Y42050
X25260Y44220
X25272Y4072
X25313Y2962
X25438Y34838
X25463Y35212
X25613Y4032
X25633Y3693
X25663Y2962
X25888Y37013
X25933Y3552
X25973Y3212
X26050Y44250
X26100Y42150
X26645Y45390
X26650Y43345
X26650Y42020
X26738Y36388
X26938Y34213
X27012Y29792
X27053Y22793
X27053Y15812
X27053Y11252
X27053Y8813
X27253Y32112
X27253Y31072
X27253Y25053
X27253Y18153
X27253Y17072
X27273Y23992
X27273Y10072
X27305Y33610
X27493Y23692
X27500Y44700
X27503Y30702
X27550Y42750
X27563Y16762
X27563Y9762
X27888Y37612
X28037Y41462
X28163Y37862
X28193Y7472
X28213Y28462
X28213Y21463
X28213Y14412
X28313Y35463
X28400Y43750
X28830Y41320
X28950Y43750
X29053Y32292
X29053Y25293
X29053Y11272
X29053Y9332
X29063Y33612
X29063Y29192
X29063Y26512
X29063Y22192
X29063Y19492
X29063Y15192
X29063Y12492
X29063Y8113
X29072Y30312
X29072Y23313
X29072Y16312
X29093Y24092
X29093Y18233
X29113Y31112
X29113Y17072
X29138Y34937
X29493Y10052
X29713Y35463
X29813Y6812
X29832Y21012
X29853Y13772
X29872Y28012
X30150Y38450
X30200Y43750
X30200Y42750
X30553Y30432
X30572Y23433
X30572Y16433
X30572Y9432
X30813Y29187
X30813Y22187
X30813Y15187
X30813Y8113
X31200Y36250
X31213Y35187
X31213Y34262
X31450Y44750
X31500Y41750
X32213Y34262
X32233Y7472
X32453Y30772
X32453Y23792
X32453Y16752
X32453Y10952
X32733Y10632
X32753Y30452
X32753Y23433
X32753Y16433
X33012Y35463
X33012Y28012
X33012Y21012
X33012Y13772
X33262Y35912
X33273Y28912
X33273Y21892
X33273Y14932
X15500Y50475
X6500Y50600
X15000Y50600
X7000Y50750
X14500Y50750
X7500Y50900
X14000Y50900
X13500Y51025
X8000Y51050
X13000Y51175
X8500Y51200
X4025Y51300
X12500Y51325
X9025Y51350
X12000Y51475
X9550Y51500
X11500Y51625
X9975Y51650
X26950Y64500
X26950Y65000
X26625Y65500
X26625Y66000
X26325Y66500
X26325Y67000
X26025Y67500
X26025Y68000
X26025Y70500
X26025Y71000
X26300Y71500
X26300Y72000
X26575Y72500
X26575Y73000
X26875Y73500
X26875Y74000
X10000Y86850
X11500Y86875
X9500Y86975
X17675Y87000
X12000Y87025
X9000Y87150
X12500Y87175
X8500Y87275
X13000Y87325
X8000Y87425
X13500Y87475
X7500Y87575
X14025Y87600
X7000Y87700
X14500Y87750
X6500Y87850
X15000Y87900
X6000Y87975
X29475Y62250
X29600Y71250
X29600Y62750
X29750Y70750
X29750Y63250
X29900Y70250
X29900Y63750
X30025Y64250
X30050Y69750
X30175Y64750
X30200Y69250
X30300Y73725
X30325Y65250
X30350Y68725
X30475Y65750
X30500Y68200
X30625Y66250
X30650Y67775
X43500Y50800
X44000Y50800
X44500Y51125
X45000Y51125
X45500Y51425
X46000Y51425
X46500Y51725
X47000Y51725
X49500Y51725
X50000Y51725
X50500Y51450
X51000Y51450
X51500Y51175
X52000Y51175
X52500Y50875
X53000Y50875
X65850Y67750
X65875Y66250
X65975Y68250
X66000Y60075
X66025Y65750
X66150Y68750
X66175Y65250
X66275Y69250
X66325Y64750
X66425Y69750
X66475Y64250
X66575Y70250
X66600Y63725
X66700Y70750
X66750Y63250
X66850Y71250
X66900Y62750
X66975Y71750
X35713Y38862
X35713Y35463
X35863Y39462
X35863Y34937
X35963Y5963
X36013Y6313
X36013Y5562
X36013Y5213
X36013Y4862
X36138Y30838
X36163Y6612
X36363Y6912
X36413Y31137
X36502Y16092
X36523Y23372
X36782Y22812
X36803Y29812
X36803Y15812
X36803Y8813
X36843Y9692
X36862Y6762
X37013Y31012
X37023Y32192
X37023Y25192
X37023Y18192
X37023Y11192
X37283Y30732
X37283Y23733
X37303Y16733
X37303Y9732
X37313Y38837
X37363Y6762
X37563Y36687
X37923Y21452
X37942Y28452
X37942Y14452
X37988Y35463
X38013Y39462
X38060Y37190
X38560Y37440
X38563Y34937
X38783Y8173
X38803Y32272
X38803Y25272
X38803Y11252
X38803Y9372
X38813Y33637
X38813Y31162
X38813Y29187
X38813Y26572
X38813Y22192
X38813Y19512
X38813Y15238
X38813Y12532
X38823Y30333
X38823Y23332
X38823Y16352
X38843Y18272
X39060Y36940
X39063Y34787
X39138Y38862
X39203Y2773
X39263Y2212
X39513Y35463
X39542Y28012
X39562Y37687
X39562Y21012
X39562Y13772
X39562Y6812
X39603Y3052
X39662Y2212
X40038Y5613
X40063Y2212
X40302Y30432
X40302Y23433
X40323Y16433
X40323Y9432
X40563Y29162
X40563Y22187
X40563Y15187
X40563Y8162
X40663Y5312
X40912Y2212
X40938Y34213
X40963Y4713
X40987Y35263
X41038Y5862
X41238Y34988
X41263Y4212
X41338Y5662
X41563Y3612
X41788Y5162
X41963Y2793
X42213Y36687
X42322Y2793
X42663Y6132
X42663Y5587
X42687Y34213
X42702Y6472
X42713Y37687
X42802Y29812
X42802Y22812
X42802Y15812
X42802Y8813
X43003Y25172
X43003Y17032
X43003Y10032
X43023Y32192
X43023Y31032
X43023Y24032
X43023Y18192
X43023Y11192
X43025Y33600
X43283Y9732
X43303Y30732
X43303Y23733
X43303Y16733
X43538Y36687
X43923Y28472
X43923Y21452
X43923Y7472
X43937Y35562
X43943Y14452
X44060Y37190
X44560Y37440
X44565Y34725
X44600Y48500
X44802Y18252
X44802Y11272
X44802Y8087
X44813Y33637
X44813Y29237
X44813Y26522
X44813Y22237
X44813Y19502
X44813Y12552
X44822Y32272
X44822Y31112
X44822Y30333
X44822Y25253
X44822Y24072
X44822Y23292
X44822Y16352
X44822Y15213
X44822Y10132
X44822Y9332
X44842Y17153
X45055Y40550
X45060Y36940
X45063Y34687
X45538Y35463
X45543Y28012
X45563Y37712
X45563Y6812
X45583Y21012
X45583Y13772
X46303Y30432
X46303Y9432
X46323Y23433
X46323Y16433
X46545Y34940
X46563Y29187
X46563Y15187
X46563Y8087
X46713Y42562
X46735Y22235
X46938Y34213
X47138Y34937
X47763Y5152
X47923Y5752
X47942Y6112
X48300Y35450
X48662Y34213
X48783Y29812
X48803Y22812
X48803Y15812
X48803Y8813
X48938Y37712
X49003Y32172
X49003Y25172
X49003Y18192
X49003Y17032
X49003Y11172
X49003Y10052
X49022Y31032
X49022Y24032
X49045Y33565
X49063Y5512
X49150Y42400
X49283Y16733
X49303Y30732
X49303Y23733
X49312Y9743
X49363Y5252
X49563Y36687
X49662Y4992
X49923Y7492
X49937Y35437
X49943Y28452
X49943Y21452
X49943Y14472
X50060Y37190
X50562Y37437
X50562Y34937
X50803Y32272
X50803Y22192
X50803Y15213
X50803Y11212
X50813Y33637
X50813Y29232
X50813Y26472
X50813Y19452
X50813Y12552
X50813Y8113
X50822Y25272
X50822Y24132
X50822Y23332
X50822Y18252
X50822Y16392
X50822Y10172
X50822Y9352
X50843Y31152
X50843Y30372
X50843Y17172
X50900Y42650
X51060Y36940
X51063Y34787
X51213Y5063
X51488Y35463
X51543Y28012
X51563Y37687
X51563Y13792
X51563Y6812
X51583Y21012
X52150Y41800
X52303Y30432
X52303Y16433
X52303Y9432
X52322Y23433
X52563Y29172
X52563Y15187
X52563Y8113
X52563Y5587
X52588Y22187
X52763Y5037
X52963Y35087
X52963Y34737
X52963Y34213
X52963Y5812
X53213Y6087
X53313Y4862
X53488Y6313
X53887Y4663
X53938Y7387
X54138Y7112
X54288Y4363
X54312Y6787
X54483Y6493
X54613Y34213
X54663Y6212
X54783Y22812
X54803Y29792
X54803Y15812
X54803Y8813
X54880Y45390
X54950Y42400
X54963Y31972
X54963Y18132
X54983Y25092
X54983Y24072
X54983Y11112
X54983Y10032
X55003Y17053
X55023Y31032
X55045Y33585
X55063Y37712
X55163Y45837
X55223Y16733
X55243Y23733
X55283Y30732
X55283Y9732
X55488Y46087
X55562Y36687
X55613Y4162
X55943Y28452
X55943Y21452
X55943Y14472
X55943Y7472
X56013Y35463
X56063Y37187
X56113Y3963
X56563Y37437
X56563Y34737
X56613Y3762
X56763Y3212
X56803Y33662
X56803Y32252
X56803Y22172
X56812Y26472
X56812Y19492
X56812Y15213
X56812Y12512
X56812Y8152
X56823Y30352
X56823Y29172
X56823Y25233
X56823Y9332
X56842Y31132
X56842Y23372
X56842Y18212
X56842Y17153
X56842Y16352
X56842Y11252
X56842Y10132
X56883Y24172
X57055Y36935
X57063Y34762
X57543Y13772
X57563Y35463
X57563Y28012
X57563Y6812
X57583Y21012
X57825Y46015
X57850Y44250
X58013Y2962
X58180Y45700
X58303Y23433
X58303Y16433
X58303Y9432
X58322Y30432
X58350Y42140
X58363Y2962
X58563Y29187
X58563Y22162
X58563Y15187
X58563Y8162
X58622Y4852
X58713Y2962
X58763Y4292
X58938Y34213
X58943Y4592
X58960Y42050
X59010Y44220
X59022Y4072
X59063Y2962
X59188Y34838
X59213Y35212
X59363Y4032
X59383Y3693
X59413Y2962
X59638Y37013
X59683Y3552
X59723Y3212
X59800Y44250
X59850Y42150
X60395Y45390
X60400Y43345
X60400Y42020
X60488Y36388
X60688Y34213
X60762Y29792
X60803Y22793
X60803Y15812
X60803Y11252
X60803Y8813
X61003Y32112
X61003Y31072
X61003Y25053
X61003Y18153
X61003Y17072
X61023Y23992
X61023Y10072
X61055Y33610
X61243Y23692
X61250Y44700
X61253Y30702
X61300Y42750
X61313Y16762
X61313Y9762
X61638Y37612
X61787Y41462
X61913Y37862
X61943Y7472
X61963Y28462
X61963Y21463
X61963Y14412
X62063Y35463
X62150Y43750
X62580Y41320
X62700Y43750
X62803Y32292
X62803Y25293
X62803Y11272
X62803Y9332
X62813Y33612
X62813Y29192
X62813Y26512
X62813Y22192
X62813Y19492
X62813Y15192
X62813Y12492
X62813Y8113
X62822Y30312
X62822Y23313
X62822Y16312
X62843Y24092
X62843Y18233
X62863Y31112
X62863Y17072
X62888Y34937
X63243Y10052
X63463Y35463
X63563Y6812
X63582Y21012
X63603Y13772
X63622Y28012
X63900Y38450
X63950Y43750
X63950Y42750
X64303Y30432
X64322Y23433
X64322Y16433
X64322Y9432
X64563Y29187
X64563Y22187
X64563Y15187
X64563Y8113
X64950Y36250
X64963Y35187
X64963Y34262
X65200Y44750
X65250Y41750
X65963Y34262
X65983Y7472
X66203Y30772
X66203Y23792
X66203Y16752
X66203Y10952
X66483Y10632
X66503Y30452
X66503Y23433
X66503Y16433
X66762Y35463
X66762Y28012
X66762Y21012
X66762Y13772
X67012Y35912
X67023Y28912
X67023Y21892
X67023Y14932
X69463Y38862
X69463Y35463
X69613Y39462
X69613Y34937
X69713Y5963
X69763Y6313
X69763Y5562
X69763Y5213
X69763Y4862
X69888Y30838
X69913Y6612
X70113Y6912
X70163Y31137
X70252Y16092
X70273Y23372
X70532Y22812
X70553Y29812
X70553Y15812
X70553Y8813
X70593Y9692
X70612Y6762
X70763Y31012
X70773Y32192
X70773Y25192
X70773Y18192
X70773Y11192
X71033Y30732
X71033Y23733
X71053Y16733
X71053Y9732
X71063Y38837
X71113Y6762
X71313Y36687
X71673Y21452
X71692Y28452
X71692Y14452
X71738Y35463
X71763Y39462
X71810Y37190
X72310Y37440
X72313Y34937
X72533Y8173
X72553Y32272
X72553Y25272
X72553Y11252
X72553Y9372
X72563Y33637
X72563Y31162
X72563Y29187
X72563Y26572
X72563Y22192
X72563Y19512
X72563Y15238
X72563Y12532
X72573Y30333
X72573Y23332
X72573Y16352
X72593Y18272
X72810Y36940
X72813Y34787
X72888Y38862
X72953Y2773
X73013Y2212
X73263Y35463
X73292Y28012
X73312Y37687
X73312Y21012
X73312Y13772
X73312Y6812
X73353Y3052
X73412Y2212
X73788Y5613
X73813Y2212
X74052Y30432
X74052Y23433
X74073Y16433
X74073Y9432
X74313Y29162
X74313Y22187
X74313Y15187
X74313Y8162
X74413Y5312
X74662Y2212
X74688Y34213
X74713Y4713
X74737Y35263
X74788Y5862
X74988Y34988
X75013Y4212
X75088Y5662
X75313Y3612
X75538Y5162
X75713Y2793
X75963Y36687
X76072Y2793
X76413Y6132
X76413Y5587
X76437Y34213
X76452Y6472
X76463Y37687
X76552Y29812
X76552Y22812
X76552Y15812
X76552Y8813
X76753Y25172
X76753Y17032
X76753Y10032
X76773Y32192
X76773Y31032
X76773Y24032
X76773Y18192
X76773Y11192
X76775Y33600
X77033Y9732
X77053Y30732
X77053Y23733
X77053Y16733
X77288Y36687
X77673Y28472
X77673Y21452
X77673Y7472
X77687Y35562
X77693Y14452
X77810Y37190
X78310Y37440
X78315Y34725
X78350Y48500
X78552Y18252
X78552Y11272
X78552Y8087
X78563Y33637
X78563Y29237
X78563Y26522
X78563Y22237
X78563Y19502
X78563Y12552
X78572Y32272
X78572Y31112
X78572Y30333
X78572Y25253
X78572Y24072
X78572Y23292
X78572Y16352
X78572Y15213
X78572Y10132
X78572Y9332
X78592Y17153
X78805Y40550
X78810Y36940
X78813Y34687
X79288Y35463
X79293Y28012
X79313Y37712
X79313Y6812
X79333Y21012
X79333Y13772
X80053Y30432
X80053Y9432
X80073Y23433
X80073Y16433
X80295Y34940
X80313Y29187
X80313Y15187
X80313Y8087
X80463Y42562
X80485Y22235
X80688Y34213
X80888Y34937
X81513Y5152
X81673Y5752
X81692Y6112
X82050Y35450
X82412Y34213
X82533Y29812
X82553Y22812
X82553Y15812
X82553Y8813
X82688Y37712
X82753Y32172
X82753Y25172
X82753Y18192
X82753Y17032
X82753Y11172
X82753Y10052
X82772Y31032
X82772Y24032
X82795Y33565
X82813Y5512
X82900Y42400
X83033Y16733
X83053Y30732
X83053Y23733
X83062Y9743
X83113Y5252
X83313Y36687
X83412Y4992
X83673Y7492
X83687Y35437
X83693Y28452
X83693Y21452
X83693Y14472
X83810Y37190
X84312Y37437
X84312Y34937
X84553Y32272
X84553Y22192
X84553Y15213
X84553Y11212
X84563Y33637
X84563Y29232
X84563Y26472
X84563Y19452
X84563Y12552
X84563Y8113
X84572Y25272
X84572Y24132
X84572Y23332
X84572Y18252
X84572Y16392
X84572Y10172
X84572Y9352
X84593Y31152
X84593Y30372
X84593Y17172
X84650Y42650
X84810Y36940
X84813Y34787
X84963Y5063
X85238Y35463
X85293Y28012
X85313Y37687
X85313Y13792
X85313Y6812
X85333Y21012
X85900Y41800
X86053Y30432
X86053Y16433
X86053Y9432
X86072Y23433
X86313Y29172
X86313Y15187
X86313Y8113
X86313Y5587
X86338Y22187
X86513Y5037
X86713Y35087
X86713Y34737
X86713Y34213
X86713Y5812
X86963Y6087
X87063Y4862
X87238Y6313
X87637Y4663
X87688Y7387
X87888Y7112
X88038Y4363
X88062Y6787
X88233Y6493
X88363Y34213
X88413Y6212
X88533Y22812
X88553Y29792
X88553Y15812
X88553Y8813
X88630Y45390
X88700Y42400
X88713Y31972
X88713Y18132
X88733Y25092
X88733Y24072
X88733Y11112
X88733Y10032
X88753Y17053
X88773Y31032
X88795Y33585
X88813Y37712
X88913Y45837
X88973Y16733
X88993Y23733
X89033Y30732
X89033Y9732
X89238Y46087
X89312Y36687
X89363Y4162
X89693Y28452
X89693Y21452
X89693Y14472
X89693Y7472
X89763Y35463
X89813Y37187
X89863Y3963
X90313Y37437
X90313Y34737
X90363Y3762
X90513Y3212
X90553Y33662
X90553Y32252
X90553Y22172
X90562Y26472
X90562Y19492
X90562Y15213
X90562Y12512
X90562Y8152
X90573Y30352
X90573Y29172
X90573Y25233
X90573Y9332
X90592Y31132
X90592Y23372
X90592Y18212
X90592Y17153
X90592Y16352
X90592Y11252
X90592Y10132
X90633Y24172
X90805Y36935
X90813Y34762
X91293Y13772
X91313Y35463
X91313Y28012
X91313Y6812
X91333Y21012
X91575Y46015
X91600Y44250
X91763Y2962
X91930Y45700
X92053Y23433
X92053Y16433
X92053Y9432
X92072Y30432
X92100Y42140
X92113Y2962
X92313Y29187
X92313Y22162
X92313Y15187
X92313Y8162
X92372Y4852
X92463Y2962
X92513Y4292
X92688Y34213
X92693Y4592
X92710Y42050
X92760Y44220
X92772Y4072
X92813Y2962
X92938Y34838
X92963Y35212
X93113Y4032
X93133Y3693
X93163Y2962
X93388Y37013
X93433Y3552
X93473Y3212
X93550Y44250
X93600Y42150
X94145Y45390
X94150Y43345
X94150Y42020
X94238Y36388
X94438Y34213
X94512Y29792
X94553Y22793
X94553Y15812
X94553Y11252
X94553Y8813
X94753Y32112
X94753Y31072
X94753Y25053
X94753Y18153
X94753Y17072
X94773Y23992
X94773Y10072
X94805Y33610
X94993Y23692
X95000Y44700
X95003Y30702
X95050Y42750
X95063Y16762
X95063Y9762
X95388Y37612
X95537Y41462
X95663Y37862
X95693Y7472
X95713Y28462
X95713Y21463
X95713Y14412
X95813Y35463
X95900Y43750
X96330Y41320
X96450Y43750
X96553Y32292
X96553Y25293
X96553Y11272
X96553Y9332
X96563Y33612
X96563Y29192
X96563Y26512
X96563Y22192
X96563Y19492
X96563Y15192
X96563Y12492
X96563Y8113
X96572Y30312
X96572Y23313
X96572Y16312
X96593Y24092
X96593Y18233
X96613Y31112
X96613Y17072
X96638Y34937
X96993Y10052
X97213Y35463
X97313Y6812
X97332Y21012
X97353Y13772
X97372Y28012
X97650Y38450
X97700Y43750
X97700Y42750
X98053Y30432
X98072Y23433
X98072Y16433
X98072Y9432
X98313Y29187
X98313Y22187
X98313Y15187
X98313Y8113
X98700Y36250
X98713Y35187
X98713Y34262
X98950Y44750
X99000Y41750
X99713Y34262
X99733Y7472
X99953Y30772
X99953Y23792
X99953Y16752
X99953Y10952
X100233Y10632
X100253Y30452
X100253Y23433
X100253Y16433
X100512Y35463
X100512Y28012
X100512Y21012
X100512Y13772
X100762Y35912
X100773Y28912
X100773Y21892
X100773Y14932
X69463Y87612
X69463Y84213
X69613Y88212
X69613Y83687
X69713Y54713
X69763Y55063
X69763Y54312
X69763Y53963
X69763Y53612
X69888Y79588
X69913Y55362
X70113Y55662
X70163Y79887
X70252Y64842
X70273Y72122
X70532Y71562
X70553Y78562
X70553Y64562
X70553Y57563
X70593Y58442
X70612Y55512
X70763Y79762
X70773Y80942
X70773Y73942
X70773Y66942
X70773Y59942
X71033Y79482
X71033Y72483
X71053Y65483
X71053Y58482
X71063Y87587
X71113Y55512
X71313Y85437
X71673Y70202
X71692Y77202
X71692Y63202
X71738Y84213
X71763Y88212
X71810Y85940
X72310Y86190
X72313Y83687
X72533Y56923
X72553Y81022
X72553Y74022
X72553Y60002
X72553Y58122
X72563Y82387
X72563Y79912
X72563Y77937
X72563Y75322
X72563Y70942
X72563Y68262
X72563Y63988
X72563Y61282
X72573Y79083
X72573Y72082
X72573Y65102
X72593Y67022
X72810Y85690
X72813Y83537
X72888Y87612
X72953Y51523
X73013Y50962
X73263Y84213
X73292Y76762
X73312Y86437
X73312Y69762
X73312Y62522
X73312Y55562
X73353Y51802
X73412Y50962
X73788Y54363
X73813Y50962
X74052Y79182
X74052Y72183
X74073Y65183
X74073Y58182
X74313Y77912
X74313Y70937
X74313Y63937
X74313Y56912
X74413Y54062
X74662Y50962
X74688Y82963
X74713Y53463
X74737Y84013
X74788Y54612
X74988Y83738
X75013Y52962
X75088Y54412
X75313Y52362
X75538Y53912
X75713Y51543
X75963Y85437
X76072Y51543
X76413Y54882
X76413Y54337
X76437Y82963
X76452Y55222
X76463Y86437
X76552Y78562
X76552Y71562
X76552Y64562
X76552Y57563
X76753Y73922
X76753Y65782
X76753Y58782
X76773Y80942
X76773Y79782
X76773Y72782
X76773Y66942
X76773Y59942
X76775Y82350
X77033Y58482
X77053Y79482
X77053Y72483
X77053Y65483
X77288Y85437
X77673Y77222
X77673Y70202
X77673Y56222
X77687Y84312
X77693Y63202
X77810Y85940
X78310Y86190
X78315Y83475
X78350Y97250
X78552Y67002
X78552Y60022
X78552Y56837
X78563Y82387
X78563Y77987
X78563Y75272
X78563Y70987
X78563Y68252
X78563Y61302
X78572Y81022
X78572Y79862
X78572Y79083
X78572Y74003
X78572Y72822
X78572Y72042
X78572Y65102
X78572Y63963
X78572Y58882
X78572Y58082
X78592Y65903
X78805Y89300
X78810Y85690
X78813Y83437
X79288Y84213
X79293Y76762
X79313Y86462
X79313Y55562
X79333Y69762
X79333Y62522
X80053Y79182
X80053Y58182
X80073Y72183
X80073Y65183
X80295Y83690
X80313Y77937
X80313Y63937
X80313Y56837
X80463Y91312
X80485Y70985
X80688Y82963
X80888Y83687
X81513Y53902
X81673Y54502
X81692Y54862
X82050Y84200
X82412Y82963
X82533Y78562
X82553Y71562
X82553Y64562
X82553Y57563
X82688Y86462
X82753Y80922
X82753Y73922
X82753Y66942
X82753Y65782
X82753Y59922
X82753Y58802
X82772Y79782
X82772Y72782
X82795Y82315
X82813Y54262
X82900Y91150
X83033Y65483
X83053Y79482
X83053Y72483
X83062Y58493
X83113Y54002
X83313Y85437
X83412Y53742
X83673Y56242
X83687Y84187
X83693Y77202
X83693Y70202
X83693Y63222
X83810Y85940
X84312Y86187
X84312Y83687
X84553Y81022
X84553Y70942
X84553Y63963
X84553Y59962
X84563Y82387
X84563Y77982
X84563Y75222
X84563Y68202
X84563Y61302
X84563Y56863
X84572Y74022
X84572Y72882
X84572Y72082
X84572Y67002
X84572Y65142
X84572Y58922
X84572Y58102
X84593Y79902
X84593Y79122
X84593Y65922
X84650Y91400
X84810Y85690
X84813Y83537
X84963Y53813
X85238Y84213
X85293Y76762
X85313Y86437
X85313Y62542
X85313Y55562
X85333Y69762
X85900Y90550
X86053Y79182
X86053Y65183
X86053Y58182
X86072Y72183
X86313Y77922
X86313Y63937
X86313Y56863
X86313Y54337
X86338Y70937
X86513Y53787
X86713Y83837
X86713Y83487
X86713Y82963
X86713Y54562
X86963Y54837
X87063Y53612
X87238Y55063
X87637Y53413
X87688Y56137
X87888Y55862
X88038Y53113
X88062Y55537
X88233Y55243
X88363Y82963
X88413Y54962
X88533Y71562
X88553Y78542
X88553Y64562
X88553Y57563
X88630Y94140
X88700Y91150
X88713Y80722
X88713Y66882
X88733Y73842
X88733Y72822
X88733Y59862
X88733Y58782
X88753Y65803
X88773Y79782
X88795Y82335
X88813Y86462
X88913Y94587
X88973Y65483
X88993Y72483
X89033Y79482
X89033Y58482
X89238Y94837
X89312Y85437
X89363Y52912
X89693Y77202
X89693Y70202
X89693Y63222
X89693Y56222
X89763Y84213
X89813Y85937
X89863Y52713
X90313Y86187
X90313Y83487
X90363Y52512
X90513Y51962
X90553Y82412
X90553Y81002
X90553Y70922
X90562Y75222
X90562Y68242
X90562Y63963
X90562Y61262
X90562Y56902
X90573Y79102
X90573Y77922
X90573Y73983
X90573Y58082
X90592Y79882
X90592Y72122
X90592Y66962
X90592Y65903
X90592Y65102
X90592Y60002
X90592Y58882
X90633Y72922
X90805Y85685
X90813Y83512
X91293Y62522
X91313Y84213
X91313Y76762
X91313Y55562
X91333Y69762
X91575Y94765
X91600Y93000
X91763Y51712
X91930Y94450
X92053Y72183
X92053Y65183
X92053Y58182
X92072Y79182
X92100Y90890
X92113Y51712
X92313Y77937
X92313Y70912
X92313Y63937
X92313Y56912
X92372Y53602
X92463Y51712
X92513Y53042
X92688Y82963
X92693Y53342
X92710Y90800
X92760Y92970
X92772Y52822
X92813Y51712
X92938Y83588
X92963Y83962
X93113Y52782
X93133Y52443
X93163Y51712
X93388Y85763
X93433Y52302
X93473Y51962
X93550Y93000
X93600Y90900
X94145Y94140
X94150Y92095
X94150Y90770
X94238Y85138
X94438Y82963
X94512Y78542
X94553Y71543
X94553Y64562
X94553Y60002
X94553Y57563
X94753Y80862
X94753Y79822
X94753Y73803
X94753Y66903
X94753Y65822
X94773Y72742
X94773Y58822
X94805Y82360
X94993Y72442
X95000Y93450
X95003Y79452
X95050Y91500
X95063Y65512
X95063Y58512
X95388Y86362
X95537Y90212
X95663Y86612
X95693Y56222
X95713Y77212
X95713Y70213
X95713Y63162
X95813Y84213
X95900Y92500
X96330Y90070
X96450Y92500
X96553Y81042
X96553Y74043
X96553Y60022
X96553Y58082
X96563Y82362
X96563Y77942
X96563Y75262
X96563Y70942
X96563Y68242
X96563Y63942
X96563Y61242
X96563Y56863
X96572Y79062
X96572Y72063
X96572Y65062
X96593Y72842
X96593Y66983
X96613Y79862
X96613Y65822
X96638Y83687
X96993Y58802
X97213Y84213
X97313Y55562
X97332Y69762
X97353Y62522
X97372Y76762
X97650Y87200
X97700Y92500
X97700Y91500
X98053Y79182
X98072Y72183
X98072Y65183
X98072Y58182
X98313Y77937
X98313Y70937
X98313Y63937
X98313Y56863
X98700Y85000
X98713Y83937
X98713Y83012
X98950Y93500
X99000Y90500
X99713Y83012
X99733Y56222
X99953Y79522
X99953Y72542
X99953Y65502
X99953Y59702
X100233Y59382
X100253Y79202
X100253Y72183
X100253Y65183
X100512Y84213
X100512Y76762
X100512Y69762
X100512Y62522
X100762Y84662
X100773Y77662
X100773Y70642
X100773Y63682
T02C0.023500
X12263Y3162
X12263Y2662
X12763Y3162
X12763Y2662
X13263Y3162
X13263Y2662
X13763Y3162
X13763Y2662
X14263Y3162
X14263Y2662
X14763Y3162
X14763Y2662
X15263Y3162
X15263Y2662
X15762Y3162
X15762Y2662
X16263Y3162
X16263Y2662
X16763Y3162
X16763Y2662
X17263Y3162
X17263Y2662
X17763Y3162
X17763Y2662
X18262Y3162
X18262Y2662
X18763Y3162
X18763Y2662
X19263Y3162
X19263Y2662
X19763Y3162
X19763Y2662
X20263Y3162
X20263Y2662
X20762Y3162
X20762Y2662
X21263Y3162
X21263Y2662
X21763Y3162
X21763Y2662
X6000Y52250
X6500Y52250
X7000Y52250
X7500Y52250
X8000Y52250
X8500Y52250
X9000Y52250
X9500Y52250
X10000Y52250
X10500Y52250
X11000Y52250
X11500Y52250
X12000Y52250
X12500Y52250
X13000Y52250
X13500Y52250
X14000Y52250
X14500Y52250
X15000Y52250
X15500Y52250
X6000Y52750
X6500Y52750
X7000Y52750
X7500Y52750
X8000Y52750
X8500Y52750
X9000Y52750
X9500Y52750
X10000Y52750
X10500Y52750
X11000Y52750
X11500Y52750
X12000Y52750
X12500Y52750
X13000Y52750
X13500Y52750
X14000Y52750
X14500Y52750
X15000Y52750
X15500Y52750
X24750Y64500
X25250Y64500
X24750Y65000
X25250Y65000
X24750Y65500
X25250Y65500
X24750Y66000
X25250Y66000
X24750Y66500
X25250Y66500
X24750Y67000
X25250Y67000
X24750Y67500
X25250Y67500
X24750Y68000
X25250Y68000
X24750Y68500
X25250Y68500
X24750Y69000
X25250Y69000
X24750Y69500
X25250Y69500
X24750Y70000
X25250Y70000
X24750Y70500
X25250Y70500
X24750Y71000
X25250Y71000
X24750Y71500
X25250Y71500
X24750Y72000
X25250Y72000
X24750Y72500
X25250Y72500
X24750Y73000
X25250Y73000
X24750Y73500
X25250Y73500
X24750Y74000
X25250Y74000
X6000Y85750
X6500Y85750
X7000Y85750
X7500Y85750
X8000Y85750
X8500Y85750
X9000Y85750
X9500Y85750
X10000Y85750
X10500Y85750
X11000Y85750
X11500Y85750
X12000Y85750
X12500Y85750
X13000Y85750
X13500Y85750
X14000Y85750
X14500Y85750
X15000Y85750
X15500Y85750
X6000Y86250
X6500Y86250
X7000Y86250
X7500Y86250
X8000Y86250
X8500Y86250
X9000Y86250
X9500Y86250
X10000Y86250
X10500Y86250
X11000Y86250
X11500Y86250
X12000Y86250
X12500Y86250
X13000Y86250
X13500Y86250
X14000Y86250
X14500Y86250
X15000Y86250
X15500Y86250
X6000Y55250
X7000Y55250
X8000Y55250
X9000Y55250
X10000Y55250
X11000Y55250
X12000Y55250
X13000Y55250
X14000Y55250
X15000Y55250
X16000Y55250
X17000Y55250
X18000Y55250
X19000Y55250
X20000Y55250
X6000Y56250
X7000Y56250
X8000Y56250
X9000Y56250
X10000Y56250
X11000Y56250
X12000Y56250
X13000Y56250
X14000Y56250
X15000Y56250
X16000Y56250
X17000Y56250
X18000Y56250
X19000Y56250
X20000Y56250
X6000Y57250
X7000Y57250
X8000Y57250
X9000Y57250
X10000Y57250
X11000Y57250
X12000Y57250
X13000Y57250
X14000Y57250
X15000Y57250
X16000Y57250
X17000Y57250
X18000Y57250
X19000Y57250
X20000Y57250
X6000Y58250
X7000Y58250
X8000Y58250
X9000Y58250
X10000Y58250
X11000Y58250
X12000Y58250
X13000Y58250
X14000Y58250
X15000Y58250
X16000Y58250
X17000Y58250
X18000Y58250
X19000Y58250
X20000Y58250
X6000Y80250
X7000Y80250
X8000Y80250
X9000Y80250
X10000Y80250
X11000Y80250
X12000Y80250
X13000Y80250
X14000Y80250
X15000Y80250
X16000Y80250
X17000Y80250
X18000Y80250
X19000Y80250
X20000Y80250
X6000Y81250
X7000Y81250
X8000Y81250
X9000Y81250
X10000Y81250
X11000Y81250
X12000Y81250
X13000Y81250
X14000Y81250
X15000Y81250
X16000Y81250
X17000Y81250
X18000Y81250
X19000Y81250
X20000Y81250
X6000Y82250
X7000Y82250
X8000Y82250
X9000Y82250
X10000Y82250
X11000Y82250
X12000Y82250
X13000Y82250
X14000Y82250
X15000Y82250
X16000Y82250
X17000Y82250
X18000Y82250
X19000Y82250
X20000Y82250
X6000Y83250
X7000Y83250
X8000Y83250
X9000Y83250
X10000Y83250
X11000Y83250
X12000Y83250
X13000Y83250
X14000Y83250
X15000Y83250
X16000Y83250
X17000Y83250
X18000Y83250
X19000Y83250
X20000Y83250
X31250Y71750
X31250Y71250
X31250Y70750
X31250Y70250
X31250Y69750
X31250Y69250
X31250Y68750
X31250Y68250
X31250Y67750
X31250Y67250
X31250Y66750
X31250Y66250
X31250Y65750
X31250Y65250
X31250Y64750
X31250Y64250
X31250Y63750
X31250Y63250
X31250Y62750
X31250Y62250
X31750Y71750
X31750Y71250
X31750Y70750
X31750Y70250
X31750Y69750
X31750Y69250
X31750Y68750
X31750Y68250
X31750Y67750
X31750Y67250
X31750Y66750
X31750Y66250
X31750Y65750
X31750Y65250
X31750Y64750
X31750Y64250
X31750Y63750
X31750Y63250
X31750Y62750
X31750Y62250
X43500Y53000
X43500Y52500
X44000Y53000
X44000Y52500
X44500Y53000
X44500Y52500
X45000Y53000
X45000Y52500
X45500Y53000
X45500Y52500
X46000Y53000
X46000Y52500
X46500Y53000
X46500Y52500
X47000Y53000
X47000Y52500
X47500Y53000
X47500Y52500
X48000Y53000
X48000Y52500
X48500Y53000
X48500Y52500
X49000Y53000
X49000Y52500
X49500Y53000
X49500Y52500
X50000Y53000
X50000Y52500
X50500Y53000
X50500Y52500
X51000Y53000
X51000Y52500
X51500Y53000
X51500Y52500
X52000Y53000
X52000Y52500
X52500Y53000
X52500Y52500
X53000Y53000
X53000Y52500
X64750Y71750
X64750Y71250
X64750Y70750
X64750Y70250
X64750Y69750
X64750Y69250
X64750Y68750
X64750Y68250
X64750Y67750
X64750Y67250
X64750Y66750
X64750Y66250
X64750Y65750
X64750Y65250
X64750Y64750
X64750Y64250
X64750Y63750
X64750Y63250
X64750Y62750
X64750Y62250
X65250Y71750
X65250Y71250
X65250Y70750
X65250Y70250
X65250Y69750
X65250Y69250
X65250Y68750
X65250Y68250
X65250Y67750
X65250Y67250
X65250Y66750
X65250Y66250
X65250Y65750
X65250Y65250
X65250Y64750
X65250Y64250
X65250Y63750
X65250Y63250
X65250Y62750
X65250Y62250
X34250Y71750
X34250Y70750
X34250Y69750
X34250Y68750
X34250Y67750
X34250Y66750
X34250Y65750
X34250Y64750
X34250Y63750
X34250Y62750
X34250Y61750
X34250Y60750
X34250Y59750
X34250Y58750
X34250Y57750
X35250Y71750
X35250Y70750
X35250Y69750
X35250Y68750
X35250Y67750
X35250Y66750
X35250Y65750
X35250Y64750
X35250Y63750
X35250Y62750
X35250Y61750
X35250Y60750
X35250Y59750
X35250Y58750
X35250Y57750
X36250Y71750
X36250Y70750
X36250Y69750
X36250Y68750
X36250Y67750
X36250Y66750
X36250Y65750
X36250Y64750
X36250Y63750
X36250Y62750
X36250Y61750
X36250Y60750
X36250Y59750
X36250Y58750
X36250Y57750
X37250Y71750
X37250Y70750
X37250Y69750
X37250Y68750
X37250Y67750
X37250Y66750
X37250Y65750
X37250Y64750
X37250Y63750
X37250Y62750
X37250Y61750
X37250Y60750
X37250Y59750
X37250Y58750
X37250Y57750
X59250Y71750
X59250Y70750
X59250Y69750
X59250Y68750
X59250Y67750
X59250Y66750
X59250Y65750
X59250Y64750
X59250Y63750
X59250Y62750
X59250Y61750
X59250Y60750
X59250Y59750
X59250Y58750
X59250Y57750
X60250Y71750
X60250Y70750
X60250Y69750
X60250Y68750
X60250Y67750
X60250Y66750
X60250Y65750
X60250Y64750
X60250Y63750
X60250Y62750
X60250Y61750
X60250Y60750
X60250Y59750
X60250Y58750
X60250Y57750
X61250Y71750
X61250Y70750
X61250Y69750
X61250Y68750
X61250Y67750
X61250Y66750
X61250Y65750
X61250Y64750
X61250Y63750
X61250Y62750
X61250Y61750
X61250Y60750
X61250Y59750
X61250Y58750
X61250Y57750
X62250Y71750
X62250Y70750
X62250Y69750
X62250Y68750
X62250Y67750
X62250Y66750
X62250Y65750
X62250Y64750
X62250Y63750
X62250Y62750
X62250Y61750
X62250Y60750
X62250Y59750
X62250Y58750
X62250Y57750
X33550Y82450
X34050Y82450
X33550Y82950
X34050Y82950
X33550Y83450
X34050Y83450
X33550Y83950
X34050Y83950
X33550Y84450
X34050Y84450
X33550Y84950
X34050Y84950
X33550Y85450
X34050Y85450
X33550Y85950
X34050Y85950
X33550Y86450
X34050Y86450
X33550Y86950
X34050Y86950
X33550Y87450
X34050Y87450
X33550Y87950
X34050Y87950
X33550Y88450
X34050Y88450
X33550Y88950
X34050Y88950
X33550Y89450
X34050Y89450
X33550Y89950
X34050Y89950
X33550Y90450
X34050Y90450
X33550Y90950
X34050Y90950
X33550Y91450
X34050Y91450
X33550Y91950
X34050Y91950
X46013Y3162
X46013Y2662
X46513Y3162
X46513Y2662
X47013Y3162
X47013Y2662
X47513Y3162
X47513Y2662
X48013Y3162
X48013Y2662
X48513Y3162
X48513Y2662
X49013Y3162
X49013Y2662
X49512Y3162
X49512Y2662
X50013Y3162
X50013Y2662
X50513Y3162
X50513Y2662
X51013Y3162
X51013Y2662
X51513Y3162
X51513Y2662
X52012Y3162
X52012Y2662
X52513Y3162
X52513Y2662
X53013Y3162
X53013Y2662
X53513Y3162
X53513Y2662
X54013Y3162
X54013Y2662
X54512Y3162
X54512Y2662
X55013Y3162
X55013Y2662
X55513Y3162
X55513Y2662
X43550Y82450
X44050Y82450
X43550Y82950
X44050Y82950
X43550Y83450
X44050Y83450
X43550Y83950
X44050Y83950
X43550Y84450
X44050Y84450
X43550Y84950
X44050Y84950
X43550Y85450
X44050Y85450
X43550Y85950
X44050Y85950
X43550Y86450
X44050Y86450
X43550Y86950
X44050Y86950
X43550Y87450
X44050Y87450
X43550Y87950
X44050Y87950
X43550Y88450
X44050Y88450
X43550Y88950
X44050Y88950
X43550Y89450
X44050Y89450
X43550Y89950
X44050Y89950
X43550Y90450
X44050Y90450
X43550Y90950
X44050Y90950
X43550Y91450
X44050Y91450
X43550Y91950
X44050Y91950
X79763Y3162
X79763Y2662
X80263Y3162
X80263Y2662
X80763Y3162
X80763Y2662
X81263Y3162
X81263Y2662
X81763Y3162
X81763Y2662
X82263Y3162
X82263Y2662
X82763Y3162
X82763Y2662
X83262Y3162
X83262Y2662
X83763Y3162
X83763Y2662
X84263Y3162
X84263Y2662
X84763Y3162
X84763Y2662
X85263Y3162
X85263Y2662
X85762Y3162
X85762Y2662
X86263Y3162
X86263Y2662
X86763Y3162
X86763Y2662
X87263Y3162
X87263Y2662
X87763Y3162
X87763Y2662
X88262Y3162
X88262Y2662
X88763Y3162
X88763Y2662
X89263Y3162
X89263Y2662
X79763Y51912
X79763Y51412
X80263Y51912
X80263Y51412
X80763Y51912
X80763Y51412
X81263Y51912
X81263Y51412
X81763Y51912
X81763Y51412
X82263Y51912
X82263Y51412
X82763Y51912
X82763Y51412
X83262Y51912
X83262Y51412
X83763Y51912
X83763Y51412
X84263Y51912
X84263Y51412
X84763Y51912
X84763Y51412
X85263Y51912
X85263Y51412
X85762Y51912
X85762Y51412
X86263Y51912
X86263Y51412
X86763Y51912
X86763Y51412
X87263Y51912
X87263Y51412
X87763Y51912
X87763Y51412
X88262Y51912
X88262Y51412
X88763Y51912
X88763Y51412
X89263Y51912
X89263Y51412
X53550Y82450
X54050Y82450
X53550Y82950
X54050Y82950
X53550Y83450
X54050Y83450
X53550Y83950
X54050Y83950
X53550Y84450
X54050Y84450
X53550Y84950
X54050Y84950
X53550Y85450
X54050Y85450
X53550Y85950
X54050Y85950
X53550Y86450
X54050Y86450
X53550Y86950
X54050Y86950
X53550Y87450
X54050Y87450
X53550Y87950
X54050Y87950
X53550Y88450
X54050Y88450
X53550Y88950
X54050Y88950
X53550Y89450
X54050Y89450
X53550Y89950
X54050Y89950
X53550Y90450
X54050Y90450
X53550Y90950
X54050Y90950
X53550Y91450
X54050Y91450
X53550Y91950
X54050Y91950
X109125Y21115
X109750Y8965
X110175Y19740
X110800Y20440
X111280Y27260
X112950Y17240
X113050Y14940
X113050Y12940
X116750Y24140
X116950Y13890
X117200Y20440
X117750Y24140
X117950Y18190
X118000Y20490
X118250Y24040
X118250Y11920
X118340Y12930
X118350Y13890
X118900Y10420
X119925Y19165
X120000Y11490
X120375Y17940
X120925Y21115
X120950Y15035
X121435Y17860
X121520Y17145
X121635Y23415
X121805Y19330
X121815Y21885
X121850Y18165
X122050Y16565
X122265Y18800
X122635Y17170
X123050Y21940
X123400Y11390
X123475Y8515
X123515Y17600
X123650Y22440
X123925Y9140
X124100Y27340
X124540Y17275
X124890Y17970
X124890Y5940
X125280Y11370
X125360Y18080
X126000Y1380
X126210Y12570
X126242Y14552
X126250Y18565
X126250Y16615
X126350Y27290
X126400Y19565
X126420Y1720
X127005Y2310
X127040Y11000
X127235Y16085
X127250Y18095
X127510Y1810
X127600Y17352
X127965Y11890
X128320Y17374
X128425Y28115
X128705Y17050
X128725Y8490
X128725Y7315
X128950Y16665
X130090Y21700
X131140Y12320
X131240Y8510
X131520Y21855
X131575Y18465
X131600Y19690
X131775Y13815
X132175Y13390
X132190Y11050
X132200Y12700
X132375Y18090
X132810Y10510
X132940Y12240
X133470Y26740
X133590Y6060
X133800Y19615
X134075Y17640
X134175Y21315
X134400Y20400
X134650Y18665
X134890Y9040
X135700Y15060
X135703Y16230
X135857Y22393
X135912Y10794
X135950Y6090
X136225Y17715
X136510Y14920
X136525Y12940
X136550Y20530
X136745Y7910
X136920Y10790
X136990Y24160
X137230Y20320
X137250Y7885
X137410Y17860
X137510Y5760
X137922Y10460
X138105Y7790
X138970Y5435
X139490Y7805
X139865Y6095
X140535Y5105
X141330Y27130
X141380Y4650
X141410Y8440
X5950Y93950
X5950Y93450
X6450Y93950
X6450Y93450
X6950Y93950
X6950Y93450
X7450Y93950
X7450Y93450
X7950Y93950
X7950Y93450
X8450Y93950
X8450Y93450
X8950Y93950
X8950Y93450
X9450Y93950
X9450Y93450
X9950Y93950
X9950Y93450
X10450Y93950
X10450Y93450
X10950Y93950
X10950Y93450
X11450Y93950
X11450Y93450
X11950Y93950
X11950Y93450
X12450Y93950
X12450Y93450
X12950Y93950
X12950Y93450
X13450Y93950
X13450Y93450
X13950Y93950
X13950Y93450
X14450Y93950
X14450Y93450
X14950Y93950
X14950Y93450
X15450Y93950
X15450Y93450
X109125Y50555
X109750Y38405
X110175Y49180
X110800Y49880
X111280Y56700
X112950Y46680
X113050Y44380
X113050Y42380
X116750Y53580
X116950Y43330
X117200Y49880
X117750Y53580
X117950Y47630
X118000Y49930
X118250Y53480
X118250Y41360
X118340Y42370
X118350Y43330
X118900Y39860
X119925Y48605
X120000Y40930
X120375Y47380
X120925Y50555
X120950Y44475
X121435Y47300
X121520Y46585
X121635Y52855
X121805Y48770
X121815Y51325
X121850Y47605
X122050Y46005
X122265Y48240
X122635Y46610
X123050Y51380
X123400Y40830
X123475Y37955
X123515Y47040
X123650Y51880
X123925Y38580
X124100Y56780
X124540Y46715
X124890Y47410
X124890Y35380
X125280Y40810
X125360Y47520
X126000Y30820
X126210Y42010
X126242Y43992
X126250Y48005
X126250Y46055
X126350Y56730
X126400Y49005
X126420Y31160
X127005Y31750
X127040Y40440
X127235Y45525
X127250Y47535
X127510Y31250
X127600Y46792
X127965Y41330
X128320Y46814
X128425Y57555
X128705Y46490
X128725Y37930
X128725Y36755
X128950Y46105
X130090Y51140
X131140Y41760
X131240Y37950
X131520Y51295
X131575Y47905
X131600Y49130
X131775Y43255
X132175Y42830
X132190Y40490
X132200Y42140
X132375Y47530
X132810Y39950
X132940Y41680
X133470Y56180
X133590Y35500
X133800Y49055
X134075Y47080
X134175Y50755
X134400Y49840
X134650Y48105
X134890Y38480
X135700Y44500
X135703Y45670
X135857Y51833
X135912Y40234
X135950Y35530
X136225Y47155
X136510Y44360
X136525Y42380
X136550Y49970
X136745Y37350
X136920Y40230
X136990Y53600
X137230Y49760
X137250Y37325
X137410Y47300
X137510Y35200
X137922Y39900
X138105Y37230
X138970Y34875
X139490Y37245
X139865Y35535
X140535Y34545
X141330Y56570
X141380Y34090
X141410Y37880
X104765Y63270
X106525Y71335
X107025Y70990
X107530Y70650
X108020Y70320
X109525Y70650
X109970Y70315
X110540Y71335
X111515Y70980
X111525Y76280
X111535Y74420
X111985Y61530
X112395Y65575
X112495Y71860
X113130Y69975
X113240Y74470
X113295Y64195
X113765Y74115
X113955Y71245
X114065Y67340
X114555Y70475
X114585Y67340
X114900Y62850
X115065Y67345
X115095Y70580
X115500Y76865
X115775Y70590
X115970Y77210
X116240Y70615
X116425Y66500
X116611Y64500
X122255Y76850
X122375Y64080
X122595Y77210
X122925Y75100
X122930Y75810
X123275Y75430
X123340Y72275
X123415Y64540
X123445Y72730
X123935Y77165
X124325Y64830
X124400Y70705
X124550Y67555
X124925Y65730
X126705Y71930
X126775Y65460
X127265Y65350
X127575Y73230
X127755Y65460
X128085Y64580
X128175Y70930
X128735Y68330
X128755Y64580
X129175Y70930
X129648Y69713
X129735Y61790
X130155Y63020
X130275Y60840
X130455Y65340
X130835Y64130
X131065Y68560
X131345Y64160
X131955Y76060
X132005Y62030
X132045Y67500
X132045Y66040
X132055Y68610
X132385Y70470
X132395Y63010
X132525Y68290
X132555Y66010
X132585Y64110
X133045Y66010
X133045Y62020
X133175Y70980
X133185Y60585
X133235Y68610
X133515Y62030
X133535Y60950
X133975Y64500
X134035Y66000
X134055Y68540
X134405Y63535
X134425Y61370
X134505Y61910
X134555Y68560
X134775Y64230
X135065Y68620
X135545Y64730
X135945Y68600
X136220Y67590
X136565Y65980
X136665Y72620
X104765Y81670
X106525Y89735
X107025Y89390
X107530Y89050
X108020Y88720
X109525Y89050
X109970Y88715
X110540Y89735
X111515Y89380
X111525Y94680
X111535Y92820
X111985Y79930
X112395Y83975
X112495Y90260
X113130Y88375
X113240Y92870
X113295Y82595
X113765Y92515
X113955Y89645
X114065Y85740
X114555Y88875
X114585Y85740
X114900Y81250
X115065Y85745
X115095Y88980
X115500Y95265
X115775Y88990
X115970Y95610
X116240Y89015
X116425Y84900
X116611Y82900
X122255Y95250
X122375Y82480
X122595Y95610
X122925Y93500
X122930Y94210
X123275Y93830
X123340Y90675
X123415Y82940
X123445Y91130
X123935Y95565
X124325Y83230
X124400Y89105
X124550Y85955
X124925Y84130
X126705Y90330
X126775Y83860
X127265Y83750
X127575Y91630
X127755Y83860
X128085Y82980
X128175Y89330
X128735Y86730
X128755Y82980
X129175Y89330
X129648Y88113
X129735Y80190
X130155Y81420
X130275Y79240
X130455Y83740
X130835Y82530
X131065Y86960
X131345Y82560
X131955Y94460
X132005Y80430
X132045Y85900
X132045Y84440
X132055Y87010
X132385Y88870
X132395Y81410
X132525Y86690
X132555Y84410
X132585Y82510
X133045Y84410
X133045Y80420
X133175Y89380
X133185Y78985
X133235Y87010
X133515Y80430
X133535Y79350
X133975Y82900
X134035Y84400
X134055Y86940
X134405Y81935
X134425Y79770
X134505Y80310
X134555Y86960
X134775Y82630
X135065Y87020
X135545Y83130
X135945Y87000
X136220Y85990
X136565Y84380
X136665Y91020
T03C0.031000
X8312Y41237
X8312Y38237
X9313Y41237
X9313Y38237
X10313Y41237
X10313Y38237
X11313Y41237
X11313Y38237
X12313Y41237
X12313Y38237
X13313Y41237
X13313Y38237
X14313Y41237
X14313Y38237
X15313Y41237
X15313Y38237
X16313Y41237
X16313Y38237
X17313Y41237
X17313Y38237
X18313Y41237
X18313Y38237
X19312Y41237
X19312Y38237
X20313Y41237
X20313Y38237
X21313Y41237
X21313Y38237
X25413Y47012
X25413Y46013
X26413Y47012
X26413Y46013
X27412Y47012
X27412Y46013
X28413Y47012
X28413Y46013
X29413Y47012
X29413Y46013
X8412Y43012
X10413Y43012
X42062Y41237
X42062Y38237
X43063Y41237
X43063Y38237
X44063Y41237
X44063Y38237
X45063Y41237
X45063Y38237
X46063Y41237
X46063Y38237
X47063Y41237
X47063Y38237
X48063Y41237
X48063Y38237
X49063Y41237
X49063Y38237
X50063Y41237
X50063Y38237
X51063Y41237
X51063Y38237
X52063Y41237
X52063Y38237
X53062Y41237
X53062Y38237
X54063Y41237
X54063Y38237
X55063Y41237
X55063Y38237
X59163Y47012
X59163Y46013
X60163Y47012
X60163Y46013
X61162Y47012
X61162Y46013
X62163Y47012
X62163Y46013
X63163Y47012
X63163Y46013
X42162Y43012
X44163Y43012
X75812Y41237
X75812Y38237
X76813Y41237
X76813Y38237
X77813Y41237
X77813Y38237
X78813Y41237
X78813Y38237
X79813Y41237
X79813Y38237
X80813Y41237
X80813Y38237
X81813Y41237
X81813Y38237
X82813Y41237
X82813Y38237
X83813Y41237
X83813Y38237
X84813Y41237
X84813Y38237
X85813Y41237
X85813Y38237
X86812Y41237
X86812Y38237
X87813Y41237
X87813Y38237
X88813Y41237
X88813Y38237
X92913Y47012
X92913Y46013
X93913Y47012
X93913Y46013
X94912Y47012
X94912Y46013
X95913Y47012
X95913Y46013
X96913Y47012
X96913Y46013
X75912Y43012
X77913Y43012
X75812Y89987
X75812Y86987
X76813Y89987
X76813Y86987
X77813Y89987
X77813Y86987
X78813Y89987
X78813Y86987
X79813Y89987
X79813Y86987
X80813Y89987
X80813Y86987
X81813Y89987
X81813Y86987
X82813Y89987
X82813Y86987
X83813Y89987
X83813Y86987
X84813Y89987
X84813Y86987
X85813Y89987
X85813Y86987
X86812Y89987
X86812Y86987
X87813Y89987
X87813Y86987
X88813Y89987
X88813Y86987
X92913Y95762
X92913Y94763
X93913Y95762
X93913Y94763
X94912Y95762
X94912Y94763
X95913Y95762
X95913Y94763
X96913Y95762
X96913Y94763
X75912Y91762
X77913Y91762
X109800Y28690
X110800Y28690
X111800Y28690
X112800Y28690
X113400Y9690
X113800Y28690
X114400Y9690
X114800Y28690
X115400Y9690
X115800Y28690
X116400Y9690
X116800Y28690
X117400Y9690
X117800Y28690
X118400Y9690
X118800Y28690
X119400Y9690
X120400Y28690
X120400Y9690
X121400Y28690
X122400Y28690
X122400Y9690
X123400Y28690
X123400Y9690
X124400Y28690
X124400Y9690
X125400Y28690
X125400Y9690
X126000Y5940
X126000Y4940
X126400Y28690
X126400Y9690
X127000Y5940
X127000Y4940
X127400Y28690
X127400Y9690
X127450Y20690
X127450Y19690
X127450Y18690
X128000Y5940
X128000Y4940
X128400Y9690
X128450Y20690
X128450Y19690
X128450Y18690
X129000Y5940
X129000Y4940
X129400Y28690
X129400Y9690
X130000Y5940
X130000Y4940
X130400Y28690
X131400Y28690
X131400Y9690
X132400Y28690
X132400Y9690
X133400Y28690
X133400Y9690
X134400Y28690
X134400Y9690
X135400Y28690
X135400Y9690
X136400Y28690
X136400Y9690
X137400Y9690
X138400Y9690
X139400Y28690
X139400Y27690
X139400Y26690
X139400Y25690
X139400Y24690
X139400Y23690
X139400Y22690
X139400Y21690
X139400Y20690
X139400Y19690
X139400Y18690
X139400Y17690
X139400Y16690
X139400Y15690
X139400Y14690
X139400Y13690
X139400Y12690
X139400Y11690
X140400Y28690
X140400Y27690
X140400Y26690
X140400Y25690
X140400Y24690
X140400Y23690
X140400Y22690
X140400Y21690
X140400Y20690
X140400Y19690
X140400Y18690
X140400Y17690
X140400Y16690
X140400Y15690
X140400Y14690
X140400Y13690
X140400Y12690
X140400Y11690
X109800Y58130
X110800Y58130
X111800Y58130
X112800Y58130
X113400Y39130
X113800Y58130
X114400Y39130
X114800Y58130
X115400Y39130
X115800Y58130
X116400Y39130
X116800Y58130
X117400Y39130
X117800Y58130
X118400Y39130
X118800Y58130
X119400Y39130
X120400Y58130
X120400Y39130
X121400Y58130
X122400Y58130
X122400Y39130
X123400Y58130
X123400Y39130
X124400Y58130
X124400Y39130
X125400Y58130
X125400Y39130
X126000Y35380
X126000Y34380
X126400Y58130
X126400Y39130
X127000Y35380
X127000Y34380
X127400Y58130
X127400Y39130
X127450Y50130
X127450Y49130
X127450Y48130
X128000Y35380
X128000Y34380
X128400Y39130
X128450Y50130
X128450Y49130
X128450Y48130
X129000Y35380
X129000Y34380
X129400Y58130
X129400Y39130
X130000Y35380
X130000Y34380
X130400Y58130
X131400Y58130
X131400Y39130
X132400Y58130
X132400Y39130
X133400Y58130
X133400Y39130
X134400Y58130
X134400Y39130
X135400Y58130
X135400Y39130
X136400Y58130
X136400Y39130
X137400Y39130
X138400Y39130
X139400Y58130
X139400Y57130
X139400Y56130
X139400Y55130
X139400Y54130
X139400Y53130
X139400Y52130
X139400Y51130
X139400Y50130
X139400Y49130
X139400Y48130
X139400Y47130
X139400Y46130
X139400Y45130
X139400Y44130
X139400Y43130
X139400Y42130
X139400Y41130
X140400Y58130
X140400Y57130
X140400Y56130
X140400Y55130
X140400Y54130
X140400Y53130
X140400Y52130
X140400Y51130
X140400Y50130
X140400Y49130
X140400Y48130
X140400Y47130
X140400Y46130
X140400Y45130
X140400Y44130
X140400Y43130
X140400Y42130
X140400Y41130
X106525Y76280
X106525Y75280
X106525Y62530
X106525Y61530
X107525Y76280
X107525Y75280
X107525Y62530
X107525Y61530
X108525Y76280
X108525Y75280
X108525Y62530
X108525Y61530
X109525Y76280
X109525Y75280
X109525Y62530
X109525Y61530
X110525Y76280
X110525Y75280
X110525Y62530
X110525Y61530
X124665Y74280
X124665Y71280
X125665Y74280
X125665Y71280
X126665Y74280
X126665Y71280
X127665Y74280
X127665Y71280
X128665Y74280
X128665Y71280
X129665Y74280
X129665Y71280
X130665Y74280
X130665Y71280
X131665Y74280
X131665Y71280
X132665Y74280
X132665Y71280
X133665Y74280
X133665Y71280
X134665Y74280
X134665Y71280
X135665Y74280
X135665Y71280
X136665Y74280
X136665Y71280
X137665Y74280
X137665Y71280
X129055Y76120
X131055Y76120
X106525Y94680
X106525Y93680
X106525Y80930
X106525Y79930
X107525Y94680
X107525Y93680
X107525Y80930
X107525Y79930
X108525Y94680
X108525Y93680
X108525Y80930
X108525Y79930
X109525Y94680
X109525Y93680
X109525Y80930
X109525Y79930
X110525Y94680
X110525Y93680
X110525Y80930
X110525Y79930
X124665Y92680
X124665Y89680
X125665Y92680
X125665Y89680
X126665Y92680
X126665Y89680
X127665Y92680
X127665Y89680
X128665Y92680
X128665Y89680
X129665Y92680
X129665Y89680
X130665Y92680
X130665Y89680
X131665Y92680
X131665Y89680
X132665Y92680
X132665Y89680
X133665Y92680
X133665Y89680
X134665Y92680
X134665Y89680
X135665Y92680
X135665Y89680
X136665Y92680
X136665Y89680
X137665Y92680
X137665Y89680
X129055Y94520
X131055Y94520
T04C0.037000
X107250Y10390
X107250Y9390
X107250Y3990
X107250Y2990
X107250Y39830
X107250Y38830
X107250Y33430
X107250Y32430
X117525Y72380
X118525Y72380
X117525Y90780
X118525Y90780
T05C0.040000
X13900Y45800
X14900Y45800
X15900Y45800
X16900Y45800
X17900Y45800
X18900Y45800
X21850Y43550
X21850Y42550
X25900Y40250
X25900Y39250
X26900Y40250
X26900Y39250
X27900Y40250
X27900Y39250
X29950Y40550
X29950Y39400
X30950Y40550
X30950Y39400
X22451Y40868
X22451Y38507
X24224Y40868
X24224Y38507
X33550Y95650
X47650Y45800
X48650Y45800
X49650Y45800
X50650Y45800
X51650Y45800
X52650Y45800
X55600Y43550
X55600Y42550
X59650Y40250
X59650Y39250
X60650Y40250
X60650Y39250
X61650Y40250
X61650Y39250
X63700Y40550
X63700Y39400
X64700Y40550
X64700Y39400
X56201Y40868
X56201Y38507
X57974Y40868
X57974Y38507
X43550Y95650
X81400Y45800
X82400Y45800
X83400Y45800
X84400Y45800
X85400Y45800
X86400Y45800
X89350Y43550
X89350Y42550
X93400Y40250
X93400Y39250
X94400Y40250
X94400Y39250
X95400Y40250
X95400Y39250
X97450Y40550
X97450Y39400
X98450Y40550
X98450Y39400
X89951Y40868
X89951Y38507
X91724Y40868
X91724Y38507
X81400Y94550
X82400Y94550
X83400Y94550
X84400Y94550
X85400Y94550
X86400Y94550
X89350Y92300
X89350Y91300
X93400Y89000
X93400Y88000
X94400Y89000
X94400Y88000
X95400Y89000
X95400Y88000
X97450Y89300
X97450Y88150
X98450Y89300
X98450Y88150
X89951Y89618
X89951Y87257
X91724Y89618
X91724Y87257
X53550Y95650
X122525Y14790
X122525Y13790
X122525Y12790
X123950Y14790
X123950Y13790
X123950Y12790
X128550Y13090
X129350Y17190
X129350Y16190
X129350Y15190
X129550Y13090
X130750Y17190
X130750Y16190
X130750Y15190
X132150Y17190
X132150Y16190
X132150Y15190
X135950Y3690
X135950Y2690
X135950Y1690
X137550Y3690
X137550Y2690
X137550Y1690
X139050Y3690
X139050Y2690
X139050Y1690
X140550Y3690
X140550Y2690
X140550Y1690
X19150Y93950
X122525Y44230
X122525Y43230
X122525Y42230
X123950Y44230
X123950Y43230
X123950Y42230
X128550Y42530
X129350Y46630
X129350Y45630
X129350Y44630
X129550Y42530
X130750Y46630
X130750Y45630
X130750Y44630
X132150Y46630
X132150Y45630
X132150Y44630
X135950Y33130
X135950Y32130
X135950Y31130
X137550Y33130
X137550Y32130
X137550Y31130
X139050Y33130
X139050Y32130
X139050Y31130
X140550Y33130
X140550Y32130
X140550Y31130
X113245Y72555
X114245Y72555
X122350Y73830
X122350Y72830
X122350Y71830
X123855Y76580
X123855Y75580
X124855Y76580
X124855Y75580
X125855Y76580
X125855Y75580
X135735Y75300
X135845Y76800
X136735Y75300
X136845Y76800
X137845Y76800
X138845Y76800
X139845Y76800
X140845Y76800
X139199Y73381
X139199Y71019
X140971Y73381
X140971Y71019
X113245Y90955
X114245Y90955
X122350Y92230
X122350Y91230
X122350Y90230
X123855Y94980
X123855Y93980
X124855Y94980
X124855Y93980
X125855Y94980
X125855Y93980
X135735Y93700
X135845Y95200
X136735Y93700
X136845Y95200
X137845Y95200
X138845Y95200
X139845Y95200
X140845Y95200
X139199Y91781
X139199Y89419
X140971Y91781
X140971Y89419
T06C0.050000
X11638Y2912
X22388Y2912
X5375Y52500
X16125Y52500
X25000Y63875
X25000Y74625
X5375Y86000
X16125Y86000
X31500Y72375
X31500Y61625
X42875Y52750
X53625Y52750
X65000Y72375
X65000Y61625
X33800Y81825
X33800Y92575
X45388Y2912
X56138Y2912
X43800Y81825
X43800Y92575
X79138Y2912
X89888Y2912
X79138Y51662
X89888Y51662
X53800Y81825
X53800Y92575
X120810Y25272
X120810Y23108
X122463Y25272
X122463Y23108
X124117Y25272
X124117Y23108
X125770Y25272
X125770Y23108
X127424Y25272
X127424Y23108
X129076Y25272
X129076Y23108
X130730Y25272
X130730Y23108
X132383Y25272
X132383Y23108
X134037Y25272
X134037Y23108
X135690Y25272
X135690Y23108
X5325Y93700
X16075Y93700
X120810Y54712
X120810Y52548
X122463Y54712
X122463Y52548
X124117Y54712
X124117Y52548
X125770Y54712
X125770Y52548
X127424Y54712
X127424Y52548
X129076Y54712
X129076Y52548
X130730Y54712
X130730Y52548
X132383Y54712
X132383Y52548
X134037Y54712
X134037Y52548
X135690Y54712
X135690Y52548
T07C0.061000
X2913Y48012
X2913Y46013
X4913Y48012
X4913Y46013
X7913Y48012
X7913Y46013
X9913Y48012
X9913Y46013
X13412Y43513
X15413Y43513
X17412Y43513
X19413Y43513
X3913Y47012
X8913Y47012
X36663Y48012
X36663Y46013
X38663Y48012
X38663Y46013
X41663Y48012
X41663Y46013
X43663Y48012
X43663Y46013
X47162Y43513
X49163Y43513
X51162Y43513
X53163Y43513
X37663Y47012
X42663Y47012
X70413Y48012
X70413Y46013
X72413Y48012
X72413Y46013
X75413Y48012
X75413Y46013
X77413Y48012
X77413Y46013
X80912Y43513
X82913Y43513
X84912Y43513
X86913Y43513
X71413Y47012
X76413Y47012
X70413Y96762
X70413Y94763
X72413Y96762
X72413Y94763
X75413Y96762
X75413Y94763
X77413Y96762
X77413Y94763
X80912Y92263
X82913Y92263
X84912Y92263
X86913Y92263
X71413Y95762
X76413Y95762
X110000Y4790
X110000Y2790
X112000Y4790
X112000Y2790
X111000Y3790
X110000Y34230
X110000Y32230
X112000Y34230
X112000Y32230
X111000Y33230
T08C0.073000
X106468Y27270
X106468Y25616
X106468Y23964
X106468Y22310
X106468Y19770
X106468Y18116
X106468Y16464
X106468Y14810
X108632Y27270
X108632Y25616
X108632Y23964
X108632Y22310
X108632Y19770
X108632Y18116
X108632Y16464
X108632Y14810
X115520Y7772
X115520Y5608
X117174Y7772
X117174Y5608
X118826Y7772
X118826Y5608
X120480Y7772
X120480Y5608
X106468Y56710
X106468Y55056
X106468Y53404
X106468Y51750
X106468Y49210
X106468Y47556
X106468Y45904
X106468Y44250
X108632Y56710
X108632Y55056
X108632Y53404
X108632Y51750
X108632Y49210
X108632Y47556
X108632Y45904
X108632Y44250
X115520Y37212
X115520Y35048
X117174Y37212
X117174Y35048
X118826Y37212
X118826Y35048
X120480Y37212
X120480Y35048
X115995Y65652
X115995Y63488
X117649Y65652
X117649Y63488
X119301Y65652
X119301Y63488
X120955Y65652
X120955Y63488
X115995Y84052
X115995Y81888
X117649Y84052
X117649Y81888
X119301Y84052
X119301Y81888
X120955Y84052
X120955Y81888
T09C0.079000
X105250Y12390
X105250Y8390
X105250Y5990
X105250Y1990
X105250Y41830
X105250Y37830
X105250Y35430
X105250Y31430
X116525Y74380
X120525Y74380
X116525Y92780
X120525Y92780
T10C0.099000
X12413Y44512
X20413Y44512
X23113Y46712
X31713Y46712
X46163Y44512
X54163Y44512
X56863Y46712
X65463Y46712
X79913Y44512
X87913Y44512
X90613Y46712
X99213Y46712
X79913Y93262
X87913Y93262
X90613Y95462
X99213Y95462
X123700Y5240
X132300Y5240
X118959Y23284
X137541Y23284
X123700Y34680
X132300Y34680
X118959Y52724
X137541Y52724
X104225Y75980
X104225Y61830
X112825Y75980
X112825Y61830
X104225Y94380
X104225Y80230
X112825Y94380
X112825Y80230
T11C0.119000
X2500Y43000
X2500Y2500
X32500Y43000
X32500Y2500
X3000Y55250
X24500Y55250
X3000Y83250
X24500Y83250
X34250Y74750
X34250Y53250
X62250Y74750
X62250Y53250
X36250Y43000
X36250Y2500
X66250Y43000
X66250Y2500
X70000Y43000
X70000Y2500
X100000Y43000
X100000Y2500
X70000Y91750
X70000Y51250
X100000Y91750
X100000Y51250
X103593Y27270
X103593Y22310
X103593Y19770
X103593Y14810
X115520Y2733
X120480Y2733
X112070Y26240
X112070Y7090
X103593Y56710
X103593Y51750
X103593Y49210
X103593Y44250
X115520Y32173
X120480Y32173
X112070Y55680
X112070Y36530
X119025Y67705
X138150Y67705
X115995Y60613
X120955Y60613
X119025Y86105
X138150Y86105
X115995Y79013
X120955Y79013
T12C0.125000
X137900Y28690
X140400Y9690
X137900Y58130
X140400Y39130
T13C0.157000
X14413Y47512
X18412Y47512
X48163Y47512
X52162Y47512
X81913Y47512
X85912Y47512
X81913Y96262
X85912Y96262
M30
