G75*
G70*
%OFA0B0*%
%FSLAX25Y25*%
%IPPOS*%
%LPD*%
%AMOC8*
5,1,8,0,0,1.08239X$1,22.5*
%
%ADD100R,0.02000X0.04500*%
%ADD104C,0.00591*%
%ADD115R,0.08000X0.06000*%
%ADD32R,0.14760X0.10040*%
%ADD85R,0.06000X0.08000*%
X0010000Y0010000D02*
G01*
D104*
D85*
X0349350Y0045500D03*
X0336350Y0045500D03*
X0327900Y0089550D03*
X0340900Y0089550D03*
X0010000Y0194000D02*
G01*
D104*
X0411250Y0010000D02*
G01*
D104*
D115*
X0451870Y0201630D03*
X0451870Y0214630D03*
X0706870Y0074630D03*
X0706870Y0061630D03*
X0691870Y0061630D03*
X0691870Y0074630D03*
X0676870Y0271630D03*
X0676870Y0284630D03*
X0616870Y0131630D03*
X0616870Y0144630D03*
X0646870Y0284630D03*
X0646870Y0271630D03*
X0646870Y0214630D03*
X0646870Y0201630D03*
X0616870Y0061630D03*
X0616870Y0074630D03*
X0586870Y0284630D03*
X0586870Y0271630D03*
X0586870Y0144630D03*
X0586870Y0131630D03*
X0586870Y0214630D03*
X0586870Y0201630D03*
X0571870Y0271630D03*
X0571870Y0284630D03*
X0706870Y0284630D03*
X0706870Y0271630D03*
X0706870Y0144130D03*
X0706870Y0131130D03*
X0706870Y0214630D03*
X0706870Y0201630D03*
X0691870Y0271630D03*
X0691870Y0284630D03*
X0631870Y0061630D03*
X0631870Y0074630D03*
X0676870Y0131130D03*
X0676870Y0144130D03*
X0676870Y0201630D03*
X0676870Y0214630D03*
X0646870Y0074630D03*
X0646870Y0061630D03*
X0676870Y0061630D03*
X0676870Y0074630D03*
X0466870Y0074630D03*
X0466870Y0061630D03*
X0451870Y0061630D03*
X0451870Y0074630D03*
X0466870Y0214630D03*
X0466870Y0201630D03*
X0436870Y0271630D03*
X0436870Y0284630D03*
X0436870Y0061630D03*
X0436870Y0074630D03*
X0436870Y0201630D03*
X0436870Y0214630D03*
X0451870Y0271630D03*
X0451870Y0284630D03*
X0466870Y0284630D03*
X0466870Y0271630D03*
X0496870Y0061630D03*
X0496870Y0074630D03*
X0526870Y0284630D03*
X0526870Y0271630D03*
X0511870Y0061630D03*
X0511870Y0074630D03*
X0526870Y0214630D03*
X0526870Y0201630D03*
X0496870Y0201630D03*
X0496870Y0214630D03*
X0496870Y0131630D03*
X0496870Y0144630D03*
X0496870Y0271630D03*
X0496870Y0284630D03*
X0436870Y0131630D03*
X0436870Y0144630D03*
X0556870Y0131630D03*
X0556870Y0144630D03*
X0556870Y0201630D03*
X0556870Y0214630D03*
X0556870Y0061630D03*
X0556870Y0074630D03*
X0616870Y0201630D03*
X0616870Y0214630D03*
X0646870Y0144630D03*
X0646870Y0131630D03*
X0631870Y0271630D03*
X0631870Y0284630D03*
X0616870Y0271630D03*
X0616870Y0284630D03*
X0571870Y0061630D03*
X0571870Y0074630D03*
X0586870Y0074630D03*
X0586870Y0061630D03*
X0556870Y0271630D03*
X0556870Y0284630D03*
X0526870Y0144630D03*
X0526870Y0131630D03*
X0526870Y0074630D03*
X0526870Y0061630D03*
X0511870Y0271630D03*
X0511870Y0284630D03*
X0466870Y0144630D03*
X0466870Y0131630D03*
X0571870Y0201630D03*
X0571870Y0214630D03*
X0571870Y0131630D03*
X0571870Y0144630D03*
X0631870Y0131630D03*
X0631870Y0144630D03*
X0631870Y0201630D03*
X0631870Y0214630D03*
X0691870Y0201630D03*
X0691870Y0214630D03*
X0691870Y0131130D03*
X0691870Y0144130D03*
D85*
X0696750Y0447500D03*
X0709750Y0447500D03*
D115*
X0451870Y0131630D03*
X0451870Y0144630D03*
X0511870Y0201630D03*
X0511870Y0214630D03*
X0511870Y0131630D03*
X0511870Y0144630D03*
D85*
X0586870Y0228130D03*
X0576870Y0228130D03*
X0566870Y0228130D03*
X0556870Y0228130D03*
X0556870Y0258130D03*
X0566870Y0258130D03*
X0576870Y0258130D03*
X0586870Y0258130D03*
X0706870Y0158130D03*
X0696870Y0158130D03*
X0686870Y0158130D03*
X0676870Y0158130D03*
X0676870Y0188130D03*
X0686870Y0188130D03*
X0696870Y0188130D03*
X0706870Y0188130D03*
X0466870Y0298130D03*
X0456870Y0298130D03*
X0446870Y0298130D03*
X0436870Y0298130D03*
X0436870Y0328130D03*
X0446870Y0328130D03*
X0456870Y0328130D03*
X0466870Y0328130D03*
X0586870Y0158130D03*
X0576870Y0158130D03*
X0566870Y0158130D03*
X0556870Y0158130D03*
X0556870Y0188130D03*
X0566870Y0188130D03*
X0576870Y0188130D03*
X0586870Y0188130D03*
X0466870Y0158130D03*
X0456870Y0158130D03*
X0446870Y0158130D03*
X0436870Y0158130D03*
X0436870Y0188130D03*
X0446870Y0188130D03*
X0456870Y0188130D03*
X0466870Y0188130D03*
X0646870Y0228130D03*
X0636870Y0228130D03*
X0626870Y0228130D03*
X0616870Y0228130D03*
X0616870Y0258130D03*
X0626870Y0258130D03*
X0636870Y0258130D03*
X0646870Y0258130D03*
X0646870Y0158130D03*
X0636870Y0158130D03*
X0626870Y0158130D03*
X0616870Y0158130D03*
X0616870Y0188130D03*
X0626870Y0188130D03*
X0636870Y0188130D03*
X0646870Y0188130D03*
X0706870Y0228130D03*
X0696870Y0228130D03*
X0686870Y0228130D03*
X0676870Y0228130D03*
X0676870Y0258130D03*
X0686870Y0258130D03*
X0696870Y0258130D03*
X0706870Y0258130D03*
X0706870Y0298130D03*
X0696870Y0298130D03*
X0686870Y0298130D03*
X0676870Y0298130D03*
X0676870Y0328130D03*
X0686870Y0328130D03*
X0696870Y0328130D03*
X0706870Y0328130D03*
X0466870Y0088130D03*
X0456870Y0088130D03*
X0446870Y0088130D03*
X0436870Y0088130D03*
X0436870Y0118130D03*
X0446870Y0118130D03*
X0456870Y0118130D03*
X0466870Y0118130D03*
X0646870Y0298130D03*
X0636870Y0298130D03*
X0626870Y0298130D03*
X0616870Y0298130D03*
X0616870Y0328130D03*
X0626870Y0328130D03*
X0636870Y0328130D03*
X0646870Y0328130D03*
X0706870Y0088130D03*
X0696870Y0088130D03*
X0686870Y0088130D03*
X0676870Y0088130D03*
X0676870Y0118130D03*
X0686870Y0118130D03*
X0696870Y0118130D03*
X0706870Y0118130D03*
X0526870Y0088130D03*
X0516870Y0088130D03*
X0506870Y0088130D03*
X0496870Y0088130D03*
X0496870Y0118130D03*
X0506870Y0118130D03*
X0516870Y0118130D03*
X0526870Y0118130D03*
X0586870Y0298130D03*
X0576870Y0298130D03*
X0566870Y0298130D03*
X0556870Y0298130D03*
X0556870Y0328130D03*
X0566870Y0328130D03*
X0576870Y0328130D03*
X0586870Y0328130D03*
X0526870Y0228130D03*
X0516870Y0228130D03*
X0506870Y0228130D03*
X0496870Y0228130D03*
X0496870Y0258130D03*
X0506870Y0258130D03*
X0516870Y0258130D03*
X0526870Y0258130D03*
X0586870Y0088130D03*
X0576870Y0088130D03*
X0566870Y0088130D03*
X0556870Y0088130D03*
X0556870Y0118130D03*
X0566870Y0118130D03*
X0576870Y0118130D03*
X0586870Y0118130D03*
X0466870Y0228130D03*
X0456870Y0228130D03*
X0446870Y0228130D03*
X0436870Y0228130D03*
X0436870Y0258130D03*
X0446870Y0258130D03*
X0456870Y0258130D03*
X0466870Y0258130D03*
X0526870Y0298130D03*
X0516870Y0298130D03*
X0506870Y0298130D03*
X0496870Y0298130D03*
X0496870Y0328130D03*
X0506870Y0328130D03*
X0516870Y0328130D03*
X0526870Y0328130D03*
D32*
X0436870Y0401510D03*
X0436870Y0380250D03*
D85*
X0646870Y0088130D03*
X0636870Y0088130D03*
X0626870Y0088130D03*
X0616870Y0088130D03*
X0616870Y0118130D03*
X0626870Y0118130D03*
X0636870Y0118130D03*
X0646870Y0118130D03*
X0526870Y0158130D03*
X0516870Y0158130D03*
X0506870Y0158130D03*
X0496870Y0158130D03*
X0496870Y0188130D03*
X0506870Y0188130D03*
X0516870Y0188130D03*
X0526870Y0188130D03*
D100*
X0529370Y0342130D03*
X0524370Y0342130D03*
X0519370Y0342130D03*
X0514370Y0342130D03*
X0509370Y0342130D03*
X0504370Y0342130D03*
X0499370Y0342130D03*
X0494370Y0342130D03*
X0494370Y0362130D03*
X0499370Y0362130D03*
X0504370Y0362130D03*
X0509370Y0362130D03*
X0514370Y0362130D03*
X0519370Y0362130D03*
X0524370Y0362130D03*
X0529370Y0362130D03*
X0589370Y0342130D03*
X0584370Y0342130D03*
X0579370Y0342130D03*
X0574370Y0342130D03*
X0569370Y0342130D03*
X0564370Y0342130D03*
X0559370Y0342130D03*
X0554370Y0342130D03*
X0554370Y0362130D03*
X0559370Y0362130D03*
X0564370Y0362130D03*
X0569370Y0362130D03*
X0574370Y0362130D03*
X0579370Y0362130D03*
X0584370Y0362130D03*
X0589370Y0362130D03*
X0649370Y0342130D03*
X0644370Y0342130D03*
X0639370Y0342130D03*
X0634370Y0342130D03*
X0629370Y0342130D03*
X0624370Y0342130D03*
X0619370Y0342130D03*
X0614370Y0342130D03*
X0614370Y0362130D03*
X0619370Y0362130D03*
X0624370Y0362130D03*
X0629370Y0362130D03*
X0634370Y0362130D03*
X0639370Y0362130D03*
X0644370Y0362130D03*
X0649370Y0362130D03*
X0709370Y0342630D03*
X0704370Y0342630D03*
X0699370Y0342630D03*
X0694370Y0342630D03*
X0689370Y0342630D03*
X0684370Y0342630D03*
X0679370Y0342630D03*
X0674370Y0342630D03*
X0674370Y0362630D03*
X0679370Y0362630D03*
X0684370Y0362630D03*
X0689370Y0362630D03*
X0694370Y0362630D03*
X0699370Y0362630D03*
X0704370Y0362630D03*
X0709370Y0362630D03*
X0469370Y0342130D03*
X0464370Y0342130D03*
X0459370Y0342130D03*
X0454370Y0342130D03*
X0449370Y0342130D03*
X0444370Y0342130D03*
X0439370Y0342130D03*
X0434370Y0342130D03*
X0434370Y0362130D03*
X0439370Y0362130D03*
X0444370Y0362130D03*
X0449370Y0362130D03*
X0454370Y0362130D03*
X0459370Y0362130D03*
X0464370Y0362130D03*
X0469370Y0362130D03*
D85*
X0696750Y0427500D03*
X0709750Y0427500D03*
X0696750Y0417500D03*
X0709750Y0417500D03*
D115*
X0602250Y0470000D03*
X0602250Y0457000D03*
D85*
X0553050Y0392100D03*
X0540050Y0392100D03*
X0696750Y0437500D03*
X0709750Y0437500D03*
X0642750Y0435700D03*
X0655750Y0435700D03*
X0116850Y0194000D02*
G01*
D104*
X0411250Y0497500D02*
G01*
D104*
X0206250Y0599000D02*
G01*
D104*
X0013750Y0699000D02*
G01*
D104*
X0705650Y0497500D02*
G01*
D104*
D115*
X0746270Y0689130D03*
X0746270Y0702130D03*
X1001270Y0562130D03*
X1001270Y0549130D03*
X0986270Y0549130D03*
X0986270Y0562130D03*
X0971270Y0759130D03*
X0971270Y0772130D03*
X0911270Y0619130D03*
X0911270Y0632130D03*
X0941270Y0772130D03*
X0941270Y0759130D03*
X0941270Y0702130D03*
X0941270Y0689130D03*
X0911270Y0549130D03*
X0911270Y0562130D03*
X0881270Y0772130D03*
X0881270Y0759130D03*
X0881270Y0632130D03*
X0881270Y0619130D03*
X0881270Y0702130D03*
X0881270Y0689130D03*
X0866270Y0759130D03*
X0866270Y0772130D03*
X1001270Y0772130D03*
X1001270Y0759130D03*
X1001270Y0631630D03*
X1001270Y0618630D03*
X1001270Y0702130D03*
X1001270Y0689130D03*
X0986270Y0759130D03*
X0986270Y0772130D03*
X0926270Y0549130D03*
X0926270Y0562130D03*
X0971270Y0618630D03*
X0971270Y0631630D03*
X0971270Y0689130D03*
X0971270Y0702130D03*
X0941270Y0562130D03*
X0941270Y0549130D03*
X0971270Y0549130D03*
X0971270Y0562130D03*
X0761270Y0562130D03*
X0761270Y0549130D03*
X0746270Y0549130D03*
X0746270Y0562130D03*
X0761270Y0702130D03*
X0761270Y0689130D03*
X0731270Y0759130D03*
X0731270Y0772130D03*
X0731270Y0549130D03*
X0731270Y0562130D03*
X0731270Y0689130D03*
X0731270Y0702130D03*
X0746270Y0759130D03*
X0746270Y0772130D03*
X0761270Y0772130D03*
X0761270Y0759130D03*
X0791270Y0549130D03*
X0791270Y0562130D03*
X0821270Y0772130D03*
X0821270Y0759130D03*
X0806270Y0549130D03*
X0806270Y0562130D03*
X0821270Y0702130D03*
X0821270Y0689130D03*
X0791270Y0689130D03*
X0791270Y0702130D03*
X0791270Y0619130D03*
X0791270Y0632130D03*
X0791270Y0759130D03*
X0791270Y0772130D03*
X0731270Y0619130D03*
X0731270Y0632130D03*
X0851270Y0619130D03*
X0851270Y0632130D03*
X0851270Y0689130D03*
X0851270Y0702130D03*
X0851270Y0549130D03*
X0851270Y0562130D03*
X0911270Y0689130D03*
X0911270Y0702130D03*
X0941270Y0632130D03*
X0941270Y0619130D03*
X0926270Y0759130D03*
X0926270Y0772130D03*
X0911270Y0759130D03*
X0911270Y0772130D03*
X0866270Y0549130D03*
X0866270Y0562130D03*
X0881270Y0562130D03*
X0881270Y0549130D03*
X0851270Y0759130D03*
X0851270Y0772130D03*
X0821270Y0632130D03*
X0821270Y0619130D03*
X0821270Y0562130D03*
X0821270Y0549130D03*
X0806270Y0759130D03*
X0806270Y0772130D03*
X0761270Y0632130D03*
X0761270Y0619130D03*
X0866270Y0689130D03*
X0866270Y0702130D03*
X0866270Y0619130D03*
X0866270Y0632130D03*
X0926270Y0619130D03*
X0926270Y0632130D03*
X0926270Y0689130D03*
X0926270Y0702130D03*
X0986270Y0689130D03*
X0986270Y0702130D03*
X0986270Y0618630D03*
X0986270Y0631630D03*
D85*
X0991150Y0935000D03*
X1004150Y0935000D03*
D115*
X0746270Y0619130D03*
X0746270Y0632130D03*
X0806270Y0689130D03*
X0806270Y0702130D03*
X0806270Y0619130D03*
X0806270Y0632130D03*
D85*
X0881270Y0715630D03*
X0871270Y0715630D03*
X0861270Y0715630D03*
X0851270Y0715630D03*
X0851270Y0745630D03*
X0861270Y0745630D03*
X0871270Y0745630D03*
X0881270Y0745630D03*
X1001270Y0645630D03*
X0991270Y0645630D03*
X0981270Y0645630D03*
X0971270Y0645630D03*
X0971270Y0675630D03*
X0981270Y0675630D03*
X0991270Y0675630D03*
X1001270Y0675630D03*
X0761270Y0785630D03*
X0751270Y0785630D03*
X0741270Y0785630D03*
X0731270Y0785630D03*
X0731270Y0815630D03*
X0741270Y0815630D03*
X0751270Y0815630D03*
X0761270Y0815630D03*
X0881270Y0645630D03*
X0871270Y0645630D03*
X0861270Y0645630D03*
X0851270Y0645630D03*
X0851270Y0675630D03*
X0861270Y0675630D03*
X0871270Y0675630D03*
X0881270Y0675630D03*
X0761270Y0645630D03*
X0751270Y0645630D03*
X0741270Y0645630D03*
X0731270Y0645630D03*
X0731270Y0675630D03*
X0741270Y0675630D03*
X0751270Y0675630D03*
X0761270Y0675630D03*
X0941270Y0715630D03*
X0931270Y0715630D03*
X0921270Y0715630D03*
X0911270Y0715630D03*
X0911270Y0745630D03*
X0921270Y0745630D03*
X0931270Y0745630D03*
X0941270Y0745630D03*
X0941270Y0645630D03*
X0931270Y0645630D03*
X0921270Y0645630D03*
X0911270Y0645630D03*
X0911270Y0675630D03*
X0921270Y0675630D03*
X0931270Y0675630D03*
X0941270Y0675630D03*
X1001270Y0715630D03*
X0991270Y0715630D03*
X0981270Y0715630D03*
X0971270Y0715630D03*
X0971270Y0745630D03*
X0981270Y0745630D03*
X0991270Y0745630D03*
X1001270Y0745630D03*
X1001270Y0785630D03*
X0991270Y0785630D03*
X0981270Y0785630D03*
X0971270Y0785630D03*
X0971270Y0815630D03*
X0981270Y0815630D03*
X0991270Y0815630D03*
X1001270Y0815630D03*
X0761270Y0575630D03*
X0751270Y0575630D03*
X0741270Y0575630D03*
X0731270Y0575630D03*
X0731270Y0605630D03*
X0741270Y0605630D03*
X0751270Y0605630D03*
X0761270Y0605630D03*
X0941270Y0785630D03*
X0931270Y0785630D03*
X0921270Y0785630D03*
X0911270Y0785630D03*
X0911270Y0815630D03*
X0921270Y0815630D03*
X0931270Y0815630D03*
X0941270Y0815630D03*
X1001270Y0575630D03*
X0991270Y0575630D03*
X0981270Y0575630D03*
X0971270Y0575630D03*
X0971270Y0605630D03*
X0981270Y0605630D03*
X0991270Y0605630D03*
X1001270Y0605630D03*
X0821270Y0575630D03*
X0811270Y0575630D03*
X0801270Y0575630D03*
X0791270Y0575630D03*
X0791270Y0605630D03*
X0801270Y0605630D03*
X0811270Y0605630D03*
X0821270Y0605630D03*
X0881270Y0785630D03*
X0871270Y0785630D03*
X0861270Y0785630D03*
X0851270Y0785630D03*
X0851270Y0815630D03*
X0861270Y0815630D03*
X0871270Y0815630D03*
X0881270Y0815630D03*
X0821270Y0715630D03*
X0811270Y0715630D03*
X0801270Y0715630D03*
X0791270Y0715630D03*
X0791270Y0745630D03*
X0801270Y0745630D03*
X0811270Y0745630D03*
X0821270Y0745630D03*
X0881270Y0575630D03*
X0871270Y0575630D03*
X0861270Y0575630D03*
X0851270Y0575630D03*
X0851270Y0605630D03*
X0861270Y0605630D03*
X0871270Y0605630D03*
X0881270Y0605630D03*
X0761270Y0715630D03*
X0751270Y0715630D03*
X0741270Y0715630D03*
X0731270Y0715630D03*
X0731270Y0745630D03*
X0741270Y0745630D03*
X0751270Y0745630D03*
X0761270Y0745630D03*
X0821270Y0785630D03*
X0811270Y0785630D03*
X0801270Y0785630D03*
X0791270Y0785630D03*
X0791270Y0815630D03*
X0801270Y0815630D03*
X0811270Y0815630D03*
X0821270Y0815630D03*
D32*
X0731270Y0889010D03*
X0731270Y0867750D03*
D85*
X0941270Y0575630D03*
X0931270Y0575630D03*
X0921270Y0575630D03*
X0911270Y0575630D03*
X0911270Y0605630D03*
X0921270Y0605630D03*
X0931270Y0605630D03*
X0941270Y0605630D03*
X0821270Y0645630D03*
X0811270Y0645630D03*
X0801270Y0645630D03*
X0791270Y0645630D03*
X0791270Y0675630D03*
X0801270Y0675630D03*
X0811270Y0675630D03*
X0821270Y0675630D03*
D100*
X0823770Y0829630D03*
X0818770Y0829630D03*
X0813770Y0829630D03*
X0808770Y0829630D03*
X0803770Y0829630D03*
X0798770Y0829630D03*
X0793770Y0829630D03*
X0788770Y0829630D03*
X0788770Y0849630D03*
X0793770Y0849630D03*
X0798770Y0849630D03*
X0803770Y0849630D03*
X0808770Y0849630D03*
X0813770Y0849630D03*
X0818770Y0849630D03*
X0823770Y0849630D03*
X0883770Y0829630D03*
X0878770Y0829630D03*
X0873770Y0829630D03*
X0868770Y0829630D03*
X0863770Y0829630D03*
X0858770Y0829630D03*
X0853770Y0829630D03*
X0848770Y0829630D03*
X0848770Y0849630D03*
X0853770Y0849630D03*
X0858770Y0849630D03*
X0863770Y0849630D03*
X0868770Y0849630D03*
X0873770Y0849630D03*
X0878770Y0849630D03*
X0883770Y0849630D03*
X0943770Y0829630D03*
X0938770Y0829630D03*
X0933770Y0829630D03*
X0928770Y0829630D03*
X0923770Y0829630D03*
X0918770Y0829630D03*
X0913770Y0829630D03*
X0908770Y0829630D03*
X0908770Y0849630D03*
X0913770Y0849630D03*
X0918770Y0849630D03*
X0923770Y0849630D03*
X0928770Y0849630D03*
X0933770Y0849630D03*
X0938770Y0849630D03*
X0943770Y0849630D03*
X1003770Y0830130D03*
X0998770Y0830130D03*
X0993770Y0830130D03*
X0988770Y0830130D03*
X0983770Y0830130D03*
X0978770Y0830130D03*
X0973770Y0830130D03*
X0968770Y0830130D03*
X0968770Y0850130D03*
X0973770Y0850130D03*
X0978770Y0850130D03*
X0983770Y0850130D03*
X0988770Y0850130D03*
X0993770Y0850130D03*
X0998770Y0850130D03*
X1003770Y0850130D03*
X0763770Y0829630D03*
X0758770Y0829630D03*
X0753770Y0829630D03*
X0748770Y0829630D03*
X0743770Y0829630D03*
X0738770Y0829630D03*
X0733770Y0829630D03*
X0728770Y0829630D03*
X0728770Y0849630D03*
X0733770Y0849630D03*
X0738770Y0849630D03*
X0743770Y0849630D03*
X0748770Y0849630D03*
X0753770Y0849630D03*
X0758770Y0849630D03*
X0763770Y0849630D03*
D85*
X0991150Y0915000D03*
X1004150Y0915000D03*
X0991150Y0905000D03*
X1004150Y0905000D03*
D115*
X0896650Y0957500D03*
X0896650Y0944500D03*
D85*
X0847450Y0879600D03*
X0834450Y0879600D03*
X0991150Y0925000D03*
X1004150Y0925000D03*
X0937150Y0923200D03*
X0950150Y0923200D03*
X0044350Y0286500D02*
G01*
D104*
X0133750Y0599000D02*
G01*
D104*
X0748750Y0010000D02*
G01*
D104*
D115*
X0789370Y0201630D03*
X0789370Y0214630D03*
X1044370Y0074630D03*
X1044370Y0061630D03*
X1029370Y0061630D03*
X1029370Y0074630D03*
X1014370Y0271630D03*
X1014370Y0284630D03*
X0954370Y0131630D03*
X0954370Y0144630D03*
X0984370Y0284630D03*
X0984370Y0271630D03*
X0984370Y0214630D03*
X0984370Y0201630D03*
X0954370Y0061630D03*
X0954370Y0074630D03*
X0924370Y0284630D03*
X0924370Y0271630D03*
X0924370Y0144630D03*
X0924370Y0131630D03*
X0924370Y0214630D03*
X0924370Y0201630D03*
X0909370Y0271630D03*
X0909370Y0284630D03*
X1044370Y0284630D03*
X1044370Y0271630D03*
X1044370Y0144130D03*
X1044370Y0131130D03*
X1044370Y0214630D03*
X1044370Y0201630D03*
X1029370Y0271630D03*
X1029370Y0284630D03*
X0969370Y0061630D03*
X0969370Y0074630D03*
X1014370Y0131130D03*
X1014370Y0144130D03*
X1014370Y0201630D03*
X1014370Y0214630D03*
X0984370Y0074630D03*
X0984370Y0061630D03*
X1014370Y0061630D03*
X1014370Y0074630D03*
X0804370Y0074630D03*
X0804370Y0061630D03*
X0789370Y0061630D03*
X0789370Y0074630D03*
X0804370Y0214630D03*
X0804370Y0201630D03*
X0774370Y0271630D03*
X0774370Y0284630D03*
X0774370Y0061630D03*
X0774370Y0074630D03*
X0774370Y0201630D03*
X0774370Y0214630D03*
X0789370Y0271630D03*
X0789370Y0284630D03*
X0804370Y0284630D03*
X0804370Y0271630D03*
X0834370Y0061630D03*
X0834370Y0074630D03*
X0864370Y0284630D03*
X0864370Y0271630D03*
X0849370Y0061630D03*
X0849370Y0074630D03*
X0864370Y0214630D03*
X0864370Y0201630D03*
X0834370Y0201630D03*
X0834370Y0214630D03*
X0834370Y0131630D03*
X0834370Y0144630D03*
X0834370Y0271630D03*
X0834370Y0284630D03*
X0774370Y0131630D03*
X0774370Y0144630D03*
X0894370Y0131630D03*
X0894370Y0144630D03*
X0894370Y0201630D03*
X0894370Y0214630D03*
X0894370Y0061630D03*
X0894370Y0074630D03*
X0954370Y0201630D03*
X0954370Y0214630D03*
X0984370Y0144630D03*
X0984370Y0131630D03*
X0969370Y0271630D03*
X0969370Y0284630D03*
X0954370Y0271630D03*
X0954370Y0284630D03*
X0909370Y0061630D03*
X0909370Y0074630D03*
X0924370Y0074630D03*
X0924370Y0061630D03*
X0894370Y0271630D03*
X0894370Y0284630D03*
X0864370Y0144630D03*
X0864370Y0131630D03*
X0864370Y0074630D03*
X0864370Y0061630D03*
X0849370Y0271630D03*
X0849370Y0284630D03*
X0804370Y0144630D03*
X0804370Y0131630D03*
X0909370Y0201630D03*
X0909370Y0214630D03*
X0909370Y0131630D03*
X0909370Y0144630D03*
X0969370Y0131630D03*
X0969370Y0144630D03*
X0969370Y0201630D03*
X0969370Y0214630D03*
X1029370Y0201630D03*
X1029370Y0214630D03*
X1029370Y0131130D03*
X1029370Y0144130D03*
D85*
X1034250Y0447500D03*
X1047250Y0447500D03*
D115*
X0789370Y0131630D03*
X0789370Y0144630D03*
X0849370Y0201630D03*
X0849370Y0214630D03*
X0849370Y0131630D03*
X0849370Y0144630D03*
D85*
X0924370Y0228130D03*
X0914370Y0228130D03*
X0904370Y0228130D03*
X0894370Y0228130D03*
X0894370Y0258130D03*
X0904370Y0258130D03*
X0914370Y0258130D03*
X0924370Y0258130D03*
X1044370Y0158130D03*
X1034370Y0158130D03*
X1024370Y0158130D03*
X1014370Y0158130D03*
X1014370Y0188130D03*
X1024370Y0188130D03*
X1034370Y0188130D03*
X1044370Y0188130D03*
X0804370Y0298130D03*
X0794370Y0298130D03*
X0784370Y0298130D03*
X0774370Y0298130D03*
X0774370Y0328130D03*
X0784370Y0328130D03*
X0794370Y0328130D03*
X0804370Y0328130D03*
X0924370Y0158130D03*
X0914370Y0158130D03*
X0904370Y0158130D03*
X0894370Y0158130D03*
X0894370Y0188130D03*
X0904370Y0188130D03*
X0914370Y0188130D03*
X0924370Y0188130D03*
X0804370Y0158130D03*
X0794370Y0158130D03*
X0784370Y0158130D03*
X0774370Y0158130D03*
X0774370Y0188130D03*
X0784370Y0188130D03*
X0794370Y0188130D03*
X0804370Y0188130D03*
X0984370Y0228130D03*
X0974370Y0228130D03*
X0964370Y0228130D03*
X0954370Y0228130D03*
X0954370Y0258130D03*
X0964370Y0258130D03*
X0974370Y0258130D03*
X0984370Y0258130D03*
X0984370Y0158130D03*
X0974370Y0158130D03*
X0964370Y0158130D03*
X0954370Y0158130D03*
X0954370Y0188130D03*
X0964370Y0188130D03*
X0974370Y0188130D03*
X0984370Y0188130D03*
X1044370Y0228130D03*
X1034370Y0228130D03*
X1024370Y0228130D03*
X1014370Y0228130D03*
X1014370Y0258130D03*
X1024370Y0258130D03*
X1034370Y0258130D03*
X1044370Y0258130D03*
X1044370Y0298130D03*
X1034370Y0298130D03*
X1024370Y0298130D03*
X1014370Y0298130D03*
X1014370Y0328130D03*
X1024370Y0328130D03*
X1034370Y0328130D03*
X1044370Y0328130D03*
X0804370Y0088130D03*
X0794370Y0088130D03*
X0784370Y0088130D03*
X0774370Y0088130D03*
X0774370Y0118130D03*
X0784370Y0118130D03*
X0794370Y0118130D03*
X0804370Y0118130D03*
X0984370Y0298130D03*
X0974370Y0298130D03*
X0964370Y0298130D03*
X0954370Y0298130D03*
X0954370Y0328130D03*
X0964370Y0328130D03*
X0974370Y0328130D03*
X0984370Y0328130D03*
X1044370Y0088130D03*
X1034370Y0088130D03*
X1024370Y0088130D03*
X1014370Y0088130D03*
X1014370Y0118130D03*
X1024370Y0118130D03*
X1034370Y0118130D03*
X1044370Y0118130D03*
X0864370Y0088130D03*
X0854370Y0088130D03*
X0844370Y0088130D03*
X0834370Y0088130D03*
X0834370Y0118130D03*
X0844370Y0118130D03*
X0854370Y0118130D03*
X0864370Y0118130D03*
X0924370Y0298130D03*
X0914370Y0298130D03*
X0904370Y0298130D03*
X0894370Y0298130D03*
X0894370Y0328130D03*
X0904370Y0328130D03*
X0914370Y0328130D03*
X0924370Y0328130D03*
X0864370Y0228130D03*
X0854370Y0228130D03*
X0844370Y0228130D03*
X0834370Y0228130D03*
X0834370Y0258130D03*
X0844370Y0258130D03*
X0854370Y0258130D03*
X0864370Y0258130D03*
X0924370Y0088130D03*
X0914370Y0088130D03*
X0904370Y0088130D03*
X0894370Y0088130D03*
X0894370Y0118130D03*
X0904370Y0118130D03*
X0914370Y0118130D03*
X0924370Y0118130D03*
X0804370Y0228130D03*
X0794370Y0228130D03*
X0784370Y0228130D03*
X0774370Y0228130D03*
X0774370Y0258130D03*
X0784370Y0258130D03*
X0794370Y0258130D03*
X0804370Y0258130D03*
X0864370Y0298130D03*
X0854370Y0298130D03*
X0844370Y0298130D03*
X0834370Y0298130D03*
X0834370Y0328130D03*
X0844370Y0328130D03*
X0854370Y0328130D03*
X0864370Y0328130D03*
D32*
X0774370Y0401510D03*
X0774370Y0380250D03*
D85*
X0984370Y0088130D03*
X0974370Y0088130D03*
X0964370Y0088130D03*
X0954370Y0088130D03*
X0954370Y0118130D03*
X0964370Y0118130D03*
X0974370Y0118130D03*
X0984370Y0118130D03*
X0864370Y0158130D03*
X0854370Y0158130D03*
X0844370Y0158130D03*
X0834370Y0158130D03*
X0834370Y0188130D03*
X0844370Y0188130D03*
X0854370Y0188130D03*
X0864370Y0188130D03*
D100*
X0866870Y0342130D03*
X0861870Y0342130D03*
X0856870Y0342130D03*
X0851870Y0342130D03*
X0846870Y0342130D03*
X0841870Y0342130D03*
X0836870Y0342130D03*
X0831870Y0342130D03*
X0831870Y0362130D03*
X0836870Y0362130D03*
X0841870Y0362130D03*
X0846870Y0362130D03*
X0851870Y0362130D03*
X0856870Y0362130D03*
X0861870Y0362130D03*
X0866870Y0362130D03*
X0926870Y0342130D03*
X0921870Y0342130D03*
X0916870Y0342130D03*
X0911870Y0342130D03*
X0906870Y0342130D03*
X0901870Y0342130D03*
X0896870Y0342130D03*
X0891870Y0342130D03*
X0891870Y0362130D03*
X0896870Y0362130D03*
X0901870Y0362130D03*
X0906870Y0362130D03*
X0911870Y0362130D03*
X0916870Y0362130D03*
X0921870Y0362130D03*
X0926870Y0362130D03*
X0986870Y0342130D03*
X0981870Y0342130D03*
X0976870Y0342130D03*
X0971870Y0342130D03*
X0966870Y0342130D03*
X0961870Y0342130D03*
X0956870Y0342130D03*
X0951870Y0342130D03*
X0951870Y0362130D03*
X0956870Y0362130D03*
X0961870Y0362130D03*
X0966870Y0362130D03*
X0971870Y0362130D03*
X0976870Y0362130D03*
X0981870Y0362130D03*
X0986870Y0362130D03*
X1046870Y0342630D03*
X1041870Y0342630D03*
X1036870Y0342630D03*
X1031870Y0342630D03*
X1026870Y0342630D03*
X1021870Y0342630D03*
X1016870Y0342630D03*
X1011870Y0342630D03*
X1011870Y0362630D03*
X1016870Y0362630D03*
X1021870Y0362630D03*
X1026870Y0362630D03*
X1031870Y0362630D03*
X1036870Y0362630D03*
X1041870Y0362630D03*
X1046870Y0362630D03*
X0806870Y0342130D03*
X0801870Y0342130D03*
X0796870Y0342130D03*
X0791870Y0342130D03*
X0786870Y0342130D03*
X0781870Y0342130D03*
X0776870Y0342130D03*
X0771870Y0342130D03*
X0771870Y0362130D03*
X0776870Y0362130D03*
X0781870Y0362130D03*
X0786870Y0362130D03*
X0791870Y0362130D03*
X0796870Y0362130D03*
X0801870Y0362130D03*
X0806870Y0362130D03*
D85*
X1034250Y0427500D03*
X1047250Y0427500D03*
X1034250Y0417500D03*
X1047250Y0417500D03*
D115*
X0939750Y0470000D03*
X0939750Y0457000D03*
D85*
X0890550Y0392100D03*
X0877550Y0392100D03*
X1034250Y0437500D03*
X1047250Y0437500D03*
X0980250Y0435700D03*
X0993250Y0435700D03*
X1043150Y0497500D02*
G01*
D104*
X0010000Y0379000D02*
G01*
D104*
X1043150Y0775000D02*
G01*
D104*
D85*
X1382500Y0810500D03*
X1369500Y0810500D03*
X1361050Y0854550D03*
X1374050Y0854550D03*
X0016850Y0471500D02*
G01*
D104*
X0411250Y0902500D02*
G01*
D104*
X1086250Y0010000D02*
G01*
D104*
D115*
X1126870Y0201630D03*
X1126870Y0214630D03*
X1381870Y0074630D03*
X1381870Y0061630D03*
X1366870Y0061630D03*
X1366870Y0074630D03*
X1351870Y0271630D03*
X1351870Y0284630D03*
X1291870Y0131630D03*
X1291870Y0144630D03*
X1321870Y0284630D03*
X1321870Y0271630D03*
X1321870Y0214630D03*
X1321870Y0201630D03*
X1291870Y0061630D03*
X1291870Y0074630D03*
X1261870Y0284630D03*
X1261870Y0271630D03*
X1261870Y0144630D03*
X1261870Y0131630D03*
X1261870Y0214630D03*
X1261870Y0201630D03*
X1246870Y0271630D03*
X1246870Y0284630D03*
X1381870Y0284630D03*
X1381870Y0271630D03*
X1381870Y0144130D03*
X1381870Y0131130D03*
X1381870Y0214630D03*
X1381870Y0201630D03*
X1366870Y0271630D03*
X1366870Y0284630D03*
X1306870Y0061630D03*
X1306870Y0074630D03*
X1351870Y0131130D03*
X1351870Y0144130D03*
X1351870Y0201630D03*
X1351870Y0214630D03*
X1321870Y0074630D03*
X1321870Y0061630D03*
X1351870Y0061630D03*
X1351870Y0074630D03*
X1141870Y0074630D03*
X1141870Y0061630D03*
X1126870Y0061630D03*
X1126870Y0074630D03*
X1141870Y0214630D03*
X1141870Y0201630D03*
X1111870Y0271630D03*
X1111870Y0284630D03*
X1111870Y0061630D03*
X1111870Y0074630D03*
X1111870Y0201630D03*
X1111870Y0214630D03*
X1126870Y0271630D03*
X1126870Y0284630D03*
X1141870Y0284630D03*
X1141870Y0271630D03*
X1171870Y0061630D03*
X1171870Y0074630D03*
X1201870Y0284630D03*
X1201870Y0271630D03*
X1186870Y0061630D03*
X1186870Y0074630D03*
X1201870Y0214630D03*
X1201870Y0201630D03*
X1171870Y0201630D03*
X1171870Y0214630D03*
X1171870Y0131630D03*
X1171870Y0144630D03*
X1171870Y0271630D03*
X1171870Y0284630D03*
X1111870Y0131630D03*
X1111870Y0144630D03*
X1231870Y0131630D03*
X1231870Y0144630D03*
X1231870Y0201630D03*
X1231870Y0214630D03*
X1231870Y0061630D03*
X1231870Y0074630D03*
X1291870Y0201630D03*
X1291870Y0214630D03*
X1321870Y0144630D03*
X1321870Y0131630D03*
X1306870Y0271630D03*
X1306870Y0284630D03*
X1291870Y0271630D03*
X1291870Y0284630D03*
X1246870Y0061630D03*
X1246870Y0074630D03*
X1261870Y0074630D03*
X1261870Y0061630D03*
X1231870Y0271630D03*
X1231870Y0284630D03*
X1201870Y0144630D03*
X1201870Y0131630D03*
X1201870Y0074630D03*
X1201870Y0061630D03*
X1186870Y0271630D03*
X1186870Y0284630D03*
X1141870Y0144630D03*
X1141870Y0131630D03*
X1246870Y0201630D03*
X1246870Y0214630D03*
X1246870Y0131630D03*
X1246870Y0144630D03*
X1306870Y0131630D03*
X1306870Y0144630D03*
X1306870Y0201630D03*
X1306870Y0214630D03*
X1366870Y0201630D03*
X1366870Y0214630D03*
X1366870Y0131130D03*
X1366870Y0144130D03*
D85*
X1371750Y0447500D03*
X1384750Y0447500D03*
D115*
X1126870Y0131630D03*
X1126870Y0144630D03*
X1186870Y0201630D03*
X1186870Y0214630D03*
X1186870Y0131630D03*
X1186870Y0144630D03*
D85*
X1261870Y0228130D03*
X1251870Y0228130D03*
X1241870Y0228130D03*
X1231870Y0228130D03*
X1231870Y0258130D03*
X1241870Y0258130D03*
X1251870Y0258130D03*
X1261870Y0258130D03*
X1381870Y0158130D03*
X1371870Y0158130D03*
X1361870Y0158130D03*
X1351870Y0158130D03*
X1351870Y0188130D03*
X1361870Y0188130D03*
X1371870Y0188130D03*
X1381870Y0188130D03*
X1141870Y0298130D03*
X1131870Y0298130D03*
X1121870Y0298130D03*
X1111870Y0298130D03*
X1111870Y0328130D03*
X1121870Y0328130D03*
X1131870Y0328130D03*
X1141870Y0328130D03*
X1261870Y0158130D03*
X1251870Y0158130D03*
X1241870Y0158130D03*
X1231870Y0158130D03*
X1231870Y0188130D03*
X1241870Y0188130D03*
X1251870Y0188130D03*
X1261870Y0188130D03*
X1141870Y0158130D03*
X1131870Y0158130D03*
X1121870Y0158130D03*
X1111870Y0158130D03*
X1111870Y0188130D03*
X1121870Y0188130D03*
X1131870Y0188130D03*
X1141870Y0188130D03*
X1321870Y0228130D03*
X1311870Y0228130D03*
X1301870Y0228130D03*
X1291870Y0228130D03*
X1291870Y0258130D03*
X1301870Y0258130D03*
X1311870Y0258130D03*
X1321870Y0258130D03*
X1321870Y0158130D03*
X1311870Y0158130D03*
X1301870Y0158130D03*
X1291870Y0158130D03*
X1291870Y0188130D03*
X1301870Y0188130D03*
X1311870Y0188130D03*
X1321870Y0188130D03*
X1381870Y0228130D03*
X1371870Y0228130D03*
X1361870Y0228130D03*
X1351870Y0228130D03*
X1351870Y0258130D03*
X1361870Y0258130D03*
X1371870Y0258130D03*
X1381870Y0258130D03*
X1381870Y0298130D03*
X1371870Y0298130D03*
X1361870Y0298130D03*
X1351870Y0298130D03*
X1351870Y0328130D03*
X1361870Y0328130D03*
X1371870Y0328130D03*
X1381870Y0328130D03*
X1141870Y0088130D03*
X1131870Y0088130D03*
X1121870Y0088130D03*
X1111870Y0088130D03*
X1111870Y0118130D03*
X1121870Y0118130D03*
X1131870Y0118130D03*
X1141870Y0118130D03*
X1321870Y0298130D03*
X1311870Y0298130D03*
X1301870Y0298130D03*
X1291870Y0298130D03*
X1291870Y0328130D03*
X1301870Y0328130D03*
X1311870Y0328130D03*
X1321870Y0328130D03*
X1381870Y0088130D03*
X1371870Y0088130D03*
X1361870Y0088130D03*
X1351870Y0088130D03*
X1351870Y0118130D03*
X1361870Y0118130D03*
X1371870Y0118130D03*
X1381870Y0118130D03*
X1201870Y0088130D03*
X1191870Y0088130D03*
X1181870Y0088130D03*
X1171870Y0088130D03*
X1171870Y0118130D03*
X1181870Y0118130D03*
X1191870Y0118130D03*
X1201870Y0118130D03*
X1261870Y0298130D03*
X1251870Y0298130D03*
X1241870Y0298130D03*
X1231870Y0298130D03*
X1231870Y0328130D03*
X1241870Y0328130D03*
X1251870Y0328130D03*
X1261870Y0328130D03*
X1201870Y0228130D03*
X1191870Y0228130D03*
X1181870Y0228130D03*
X1171870Y0228130D03*
X1171870Y0258130D03*
X1181870Y0258130D03*
X1191870Y0258130D03*
X1201870Y0258130D03*
X1261870Y0088130D03*
X1251870Y0088130D03*
X1241870Y0088130D03*
X1231870Y0088130D03*
X1231870Y0118130D03*
X1241870Y0118130D03*
X1251870Y0118130D03*
X1261870Y0118130D03*
X1141870Y0228130D03*
X1131870Y0228130D03*
X1121870Y0228130D03*
X1111870Y0228130D03*
X1111870Y0258130D03*
X1121870Y0258130D03*
X1131870Y0258130D03*
X1141870Y0258130D03*
X1201870Y0298130D03*
X1191870Y0298130D03*
X1181870Y0298130D03*
X1171870Y0298130D03*
X1171870Y0328130D03*
X1181870Y0328130D03*
X1191870Y0328130D03*
X1201870Y0328130D03*
D32*
X1111870Y0401510D03*
X1111870Y0380250D03*
D85*
X1321870Y0088130D03*
X1311870Y0088130D03*
X1301870Y0088130D03*
X1291870Y0088130D03*
X1291870Y0118130D03*
X1301870Y0118130D03*
X1311870Y0118130D03*
X1321870Y0118130D03*
X1201870Y0158130D03*
X1191870Y0158130D03*
X1181870Y0158130D03*
X1171870Y0158130D03*
X1171870Y0188130D03*
X1181870Y0188130D03*
X1191870Y0188130D03*
X1201870Y0188130D03*
D100*
X1204370Y0342130D03*
X1199370Y0342130D03*
X1194370Y0342130D03*
X1189370Y0342130D03*
X1184370Y0342130D03*
X1179370Y0342130D03*
X1174370Y0342130D03*
X1169370Y0342130D03*
X1169370Y0362130D03*
X1174370Y0362130D03*
X1179370Y0362130D03*
X1184370Y0362130D03*
X1189370Y0362130D03*
X1194370Y0362130D03*
X1199370Y0362130D03*
X1204370Y0362130D03*
X1264370Y0342130D03*
X1259370Y0342130D03*
X1254370Y0342130D03*
X1249370Y0342130D03*
X1244370Y0342130D03*
X1239370Y0342130D03*
X1234370Y0342130D03*
X1229370Y0342130D03*
X1229370Y0362130D03*
X1234370Y0362130D03*
X1239370Y0362130D03*
X1244370Y0362130D03*
X1249370Y0362130D03*
X1254370Y0362130D03*
X1259370Y0362130D03*
X1264370Y0362130D03*
X1324370Y0342130D03*
X1319370Y0342130D03*
X1314370Y0342130D03*
X1309370Y0342130D03*
X1304370Y0342130D03*
X1299370Y0342130D03*
X1294370Y0342130D03*
X1289370Y0342130D03*
X1289370Y0362130D03*
X1294370Y0362130D03*
X1299370Y0362130D03*
X1304370Y0362130D03*
X1309370Y0362130D03*
X1314370Y0362130D03*
X1319370Y0362130D03*
X1324370Y0362130D03*
X1384370Y0342630D03*
X1379370Y0342630D03*
X1374370Y0342630D03*
X1369370Y0342630D03*
X1364370Y0342630D03*
X1359370Y0342630D03*
X1354370Y0342630D03*
X1349370Y0342630D03*
X1349370Y0362630D03*
X1354370Y0362630D03*
X1359370Y0362630D03*
X1364370Y0362630D03*
X1369370Y0362630D03*
X1374370Y0362630D03*
X1379370Y0362630D03*
X1384370Y0362630D03*
X1144370Y0342130D03*
X1139370Y0342130D03*
X1134370Y0342130D03*
X1129370Y0342130D03*
X1124370Y0342130D03*
X1119370Y0342130D03*
X1114370Y0342130D03*
X1109370Y0342130D03*
X1109370Y0362130D03*
X1114370Y0362130D03*
X1119370Y0362130D03*
X1124370Y0362130D03*
X1129370Y0362130D03*
X1134370Y0362130D03*
X1139370Y0362130D03*
X1144370Y0362130D03*
D85*
X1371750Y0427500D03*
X1384750Y0427500D03*
X1371750Y0417500D03*
X1384750Y0417500D03*
D115*
X1277250Y0470000D03*
X1277250Y0457000D03*
D85*
X1228050Y0392100D03*
X1215050Y0392100D03*
X1371750Y0437500D03*
X1384750Y0437500D03*
X1317750Y0435700D03*
X1330750Y0435700D03*
M02*
